<?xml version="1.0" encoding="UTF-8"?>
<svg width="23px" height="24px" viewBox="0 0 23 24" version="1.1" xmlns="http://www.w3.org/2000/svg" xmlns:xlink="http://www.w3.org/1999/xlink">
    <title>Fill 22</title>
    <g id="Desktop" stroke="none" stroke-width="1" fill="none" fill-rule="evenodd">
        <g id="Home_1440" transform="translate(-726.000000, -11348.000000)" fill="#000000">
            <g id="Roadmap" transform="translate(-25.000000, 10810.000000)">
                <g transform="translate(0.000000, 248.000000)" id="Group-36">
                    <g transform="translate(744.000000, 289.853000)">
                        <path d="M28.2796,21.6322 C28.1446,21.7672 28.0346,21.8102 27.9506,21.7582 C27.8656,21.7072 27.8566,21.5982 27.9256,21.4292 C28.1286,21.0572 28.2976,20.6172 28.4316,20.1112 C28.6686,19.3332 28.7186,18.8432 28.5846,18.6402 C28.3816,18.4032 27.6206,18.3532 26.3026,18.4882 L25.5416,18.5392 C25.5086,18.5392 25.4736,18.5222 25.4406,18.4882 C25.3726,18.3532 25.5666,18.1842 26.0236,17.9822 C26.4796,17.7782 26.9276,17.6522 27.3676,17.6012 C27.8066,17.5502 28.2716,17.5502 28.7616,17.6012 C29.2516,17.6522 29.5476,17.7442 29.6486,17.8802 C29.7516,18.0152 29.7676,18.3112 29.6996,18.7672 C29.6326,19.2232 29.5136,19.6542 29.3446,20.0612 C29.0406,20.7702 28.6846,21.2932 28.2796,21.6322 M19.7606,13.8742 C19.3886,14.3482 18.9086,14.5932 18.3166,14.6102 C17.7256,14.6262 17.2176,14.4402 16.7956,14.0522 C16.3736,13.6632 16.1616,13.1642 16.1616,12.5562 C16.1616,11.4742 16.6516,10.6962 17.6326,10.2232 C18.3766,9.8522 19.3046,9.6492 20.4216,9.6152 L20.4216,11.6432 C20.4216,12.6232 20.2006,13.3662 19.7606,13.8742 M15.1986,8.3482 C12.9676,9.3612 11.8516,10.9842 11.8516,13.2152 C11.8516,14.5332 12.2236,15.5982 12.9676,16.4092 C13.6436,17.1532 14.5216,17.6012 15.6036,17.7532 C16.6856,17.9052 17.7416,17.7702 18.7736,17.3482 C19.8036,16.9252 20.5906,16.2742 21.1316,15.3952 C21.3676,15.7672 22.1286,16.5612 23.4126,17.7782 L26.3026,14.9392 L25.8966,14.5842 C25.5586,14.2452 25.2886,13.9082 25.0856,13.5692 C24.8146,13.1312 24.6796,12.6912 24.6796,12.2512 L24.6796,4.7982 C24.6796,4.2912 24.5106,3.7502 24.1736,3.1762 C23.7676,2.4322 23.1926,1.8582 22.4496,1.4522 C21.5026,0.9102 20.3366,0.6412 18.9506,0.6412 C17.5646,0.6412 16.3306,0.9102 15.2496,1.4522 C14.2686,1.9582 13.5086,2.6182 12.9676,3.4292 C12.4266,4.2402 12.1566,5.0692 12.1566,5.9142 L15.9086,6.2692 C16.2456,5.2202 16.8036,4.4942 17.5816,4.0882 C17.9536,3.8862 18.3076,3.7842 18.6456,3.7842 C19.2206,3.7842 19.6346,3.8942 19.8876,4.1132 C20.1416,4.3332 20.3016,4.6802 20.3696,5.1532 C20.4376,5.4572 20.4556,5.9642 20.4216,6.6742 L20.4216,7.2822 C18.3596,7.3502 16.6176,7.7052 15.1986,8.3482 M26.0496,21.0742 C25.1356,21.6832 24.1386,22.1902 23.0566,22.5952 C21.6036,23.1032 20.0746,23.3562 18.4686,23.3562 C16.8636,23.3562 15.2656,23.0182 13.6766,22.3422 C12.3926,21.8342 11.1756,21.1252 10.0266,20.2122 C9.1476,19.5362 8.4376,18.8772 7.8976,18.2352 C7.7276,18.0662 7.6936,17.9312 7.7966,17.8292 C7.8976,17.7282 8.0146,17.7282 8.1496,17.8292 L8.3536,17.9312 C10.1776,19.0462 11.6666,19.8232 12.8156,20.2632 C14.8436,21.0742 16.8886,21.4632 18.9506,21.4292 C21.5186,21.3952 24.2236,20.7022 27.0626,19.3502 C27.2656,19.2492 27.4096,19.2652 27.4946,19.4012 C27.5786,19.5362 27.5196,19.7222 27.3166,19.9592 C27.0806,20.2632 26.6576,20.6342 26.0496,21.0742" id="Fill-22"></path>
                    </g>
                </g>
            </g>
        </g>
    </g>
</svg>