<?xml version="1.0" encoding="UTF-8"?>
<svg width="189px" height="31px" viewBox="0 0 189 31" version="1.1" xmlns="http://www.w3.org/2000/svg" xmlns:xlink="http://www.w3.org/1999/xlink">
    <title>Group 9</title>
    <g id="Desktop" stroke="none" stroke-width="1" fill="none" fill-rule="evenodd">
        <g id="Credit-card-fraud_1440" transform="translate(-838.000000, -1306.000000)" fill="#000000" fill-rule="nonzero">
            <g id="Apollo_Stratus_Socnet" transform="translate(189.000000, 1246.000000)">
                <g id="Group-9" transform="translate(649.000000, 60.000000)">
                    <g id="Group" transform="translate(84.475081, 5.548560)">
                        <path d="M7.36375686,0.142134062 L11.9245353,0.142134062 L19.1932759,20.0409027 L15.9152164,20.0409027 L14.2049245,15.3504787 L5.08336764,15.3504787 L3.37307572,20.0409027 L0.0950162175,20.0409027 L7.36375686,0.142134062 Z M13.2072542,12.6499315 L9.92919473,3.55335154 L9.35909743,3.55335154 L6.08103792,12.6499315 L13.2072542,12.6499315 Z" id="Shape"></path>
                        <path d="M21.2836327,5.82749653 L23.8490706,5.82749653 L24.1341193,7.24883715 L24.2766436,7.24883715 C24.5616922,6.917191 24.894249,6.63292288 25.2743139,6.39603278 C25.9394274,5.96963059 26.8420815,5.54322841 27.9822761,5.54322841 C29.4550274,5.54322841 30.3576815,6.06438663 30.9752869,6.53816684 C31.3078437,6.86981298 31.5928923,7.1540811 31.8304329,7.53310527 L31.9729572,7.53310527 C32.2580059,7.1540811 32.6380707,6.86981298 33.0656437,6.53816684 C33.8257734,6.06438663 34.9659681,5.54322841 36.67626,5.54322841 C39.6217627,5.54322841 41.8071357,7.81737339 41.8071357,11.0390788 L41.8071357,20.0409027 L38.9566492,20.0409027 L38.9566492,11.0864568 C38.9566492,9.23871401 37.8164546,8.10164152 36.1061627,8.10164152 C34.3483626,8.10164152 32.9706275,9.38084807 32.9706275,11.0864568 L32.9706275,20.0409027 L30.120141,20.0409027 L30.120141,11.0864568 C30.120141,9.23871401 28.9799463,8.10164152 27.2696544,8.10164152 C25.5118544,8.10164152 24.1341193,9.38084807 24.1341193,11.0864568 L24.1341193,20.0409027 L21.2836327,20.0409027 L21.2836327,5.82749653 L21.2836327,5.82749653 Z" id="Path"></path>
                        <path d="M54.6343251,18.477428 L54.4918008,18.477428 C54.2067521,18.8564522 53.8741953,19.1407203 53.4466224,19.4249884 C52.7815088,19.8987686 51.6888223,20.3251708 50.216071,20.3251708 C47.0805358,20.3251708 45.0851952,18.524806 45.0851952,15.9190149 C45.0851952,13.0763337 46.9380115,11.2285909 50.9286926,11.2285909 L54.4918008,11.2285909 L54.4918008,10.9443227 C54.4918008,9.09657995 53.3516061,7.95950745 51.4987899,7.95950745 C49.5034493,7.95950745 48.6483034,9.09657995 48.5057791,9.94938432 L45.6552925,9.94938432 C45.7978169,7.58048329 47.9356817,5.54322841 51.4987899,5.54322841 C55.2519305,5.54322841 57.3422873,7.62786131 57.3422873,10.9443227 L57.3422873,20.0409027 L54.9193737,20.0409027 L54.6343251,18.477428 Z M54.4918008,13.5027359 L51.0712169,13.5027359 C48.8858439,13.5027359 47.9356817,14.4976743 47.9356817,15.7768808 C47.9356817,17.0560874 48.7908277,17.9088918 50.5011196,17.9088918 C53.1140656,17.9088918 54.4918008,16.4875512 54.4918008,14.0712721 L54.4918008,13.5027359 L54.4918008,13.5027359 Z" id="Shape"></path>
                        <polygon id="Path" points="60.1927738 17.4824896 67.6040388 8.5280437 60.3352981 8.5280437 60.3352981 5.82749653 71.3096713 5.82749653 71.3096713 8.38590964 63.8984063 17.3403555 71.4521956 17.3403555 71.4521956 20.0409027 60.1927738 20.0409027 60.1927738 17.4824896"></polygon>
                        <path d="M73.4475362,12.9341996 C73.4475362,8.5280437 76.440547,5.54322841 80.5737525,5.54322841 C84.7069579,5.54322841 87.6999688,8.5280437 87.6999688,12.9341996 C87.6999688,17.3403555 84.7069579,20.3251708 80.5737525,20.3251708 C76.440547,20.3251708 73.4475362,17.3403555 73.4475362,12.9341996 Z M84.8494823,12.9341996 C84.8494823,9.99676234 82.996666,8.10164152 80.5737525,8.10164152 C78.1508389,8.10164152 76.2980227,9.99676234 76.2980227,12.9341996 C76.2980227,15.8716369 78.1508389,17.7667577 80.5737525,17.7667577 C82.996666,17.7667577 84.8494823,15.9190149 84.8494823,12.9341996 Z" id="Shape"></path>
                        <path d="M90.9780283,5.82749653 L93.5434662,5.82749653 L93.8285148,7.24883715 L93.9710391,7.24883715 C94.3035959,6.917191 94.6361527,6.63292288 95.0162175,6.39603278 C95.6813311,5.96963059 96.7265095,5.54322841 98.1042446,5.54322841 C101.524828,5.54322841 103.805218,7.76999537 103.805218,11.512859 L103.805218,20.0409027 L100.954731,20.0409027 L100.954731,11.512859 C100.954731,9.66511619 99.4819798,8.10164152 97.5341473,8.10164152 C95.3962824,8.10164152 93.8285148,9.66511619 93.8285148,11.512859 L93.8285148,20.0409027 L90.9780283,20.0409027 L90.9780283,5.82749653 Z" id="Path"></path>
                    </g>
                    <path d="M24.1801458,27.8805031 C22.9562815,28.7091195 21.6382738,29.3915094 20.2261227,29.9764151 C18.2961828,30.658805 16.2720996,31 14.1538729,31 C12.0356462,31 9.91741956,30.5613208 7.8462646,29.6352201 C6.15168327,28.9528302 4.55124535,27.9779874 3.04495083,26.7106918 C1.86815824,25.7845912 0.926724166,24.9072327 0.220648611,24.0298742 C-0.0147099074,23.7861635 -0.061781611,23.591195 0.0794334999,23.4937107 C0.220648611,23.3474843 0.361863722,23.3474843 0.550150536,23.4937107 L0.832580758,23.6399371 C3.23323764,25.1509434 5.2102492,26.2232704 6.71654371,26.8081761 C9.39963082,27.9292453 12.0827179,28.4654088 14.8128767,28.4166667 C18.2020394,28.3679245 21.7794889,27.4418239 25.4981535,25.5896226 C25.7805837,25.4433962 25.9688705,25.4921384 26.0630139,25.6383648 C26.1571573,25.8333333 26.1100856,26.077044 25.8276554,26.418239 C25.4981535,26.8081761 24.9803647,27.2955975 24.1801458,27.8805031 M9.82327616,10.4795597 C6.85775883,11.8443396 5.39853601,14.086478 5.39853601,17.1084906 C5.39853601,18.9119497 5.86925305,20.3742138 6.85775883,21.495283 C7.7521212,22.5188679 8.92891379,23.1037736 10.3410649,23.3474843 C11.753216,23.5424528 13.1653671,23.3474843 14.5304465,22.8113208 C15.8955259,22.2264151 16.9311034,21.3490566 17.637179,20.1305031 C17.9666809,20.6179245 18.9551867,21.7389937 20.649768,23.3962264 L24.462576,19.4968553 L23.9447873,19.009434 C23.5211419,18.5707547 23.1445683,18.0833333 22.8621381,17.6446541 C22.4855644,17.0597484 22.3443493,16.4261006 22.3443493,15.841195 L22.3443493,5.65408805 C22.3443493,4.97169811 22.1089908,4.24056604 21.6853455,3.46069182 C21.1675567,2.43710692 20.4144095,1.6572327 19.4259037,1.12106918 C18.1549677,0.389937107 16.6486732,0 14.8128767,0 C12.9770803,0 11.3766424,0.389937107 9.91741956,1.12106918 C8.64648356,1.80345912 7.61090608,2.72955975 6.90483053,3.80188679 C6.19875497,4.92295597 5.82218135,6.04402516 5.82218135,7.21383648 L10.7647102,7.70125786 C11.1883556,6.28773585 11.9415028,5.26415094 12.9770803,4.72798742 C13.4477973,4.43553459 13.9185144,4.28930818 14.3892314,4.28930818 C15.1423787,4.28930818 15.7072391,4.43553459 16.036741,4.72798742 C16.366243,5.02044025 16.6016015,5.50786164 16.6957449,6.14150943 C16.7898883,6.58018868 16.7898883,7.26257862 16.7428166,8.23742138 L16.7428166,9.06603774 C14.0126578,9.16352201 11.7061443,9.60220126 9.82327616,10.4795597 M15.8484542,18.0345912 C15.3777372,18.668239 14.7187333,19.009434 13.9185144,19.0581761 C13.1182954,19.0581761 12.4592916,18.8144654 11.8944311,18.2783019 C11.3295707,17.7421384 11.0471405,17.0597484 11.0471405,16.2311321 C11.0471405,14.7688679 11.7061443,13.6965409 12.9770803,13.0628931 C13.9655861,12.5754717 15.1894504,12.2830189 16.6486732,12.2342767 L16.6486732,15.0125786 C16.7428166,16.3286164 16.4603864,17.3522013 15.8484542,18.0345912 M27.0985914,28.6603774 C26.9103046,28.8553459 26.7690895,28.9040881 26.6749461,28.8553459 C26.5808027,28.8066038 26.533731,28.6116352 26.6278744,28.4166667 C26.9103046,27.9292453 27.0985914,27.2955975 27.2868782,26.6132075 C27.6163801,25.5408805 27.6634518,24.8584906 27.475165,24.6147799 C27.1927348,24.2735849 26.204229,24.2248428 24.462576,24.4198113 L23.4740702,24.4685535 C23.4269985,24.4685535 23.3799268,24.4685535 23.3328551,24.4198113 C23.2387117,24.2248428 23.5211419,23.9811321 24.0860024,23.7374214 C24.6979345,23.4449686 25.262795,23.2987421 25.8747271,23.2012579 C26.4395875,23.1525157 27.0515197,23.1525157 27.7105235,23.2012579 C28.3695274,23.25 28.746101,23.3962264 28.8873161,23.591195 C29.0285312,23.7861635 29.0285312,24.1761006 28.9343878,24.8097484 C28.8402444,25.4433962 28.6990293,26.0283019 28.4636708,26.5644654 C28.0870972,27.490566 27.6163801,28.172956 27.0985914,28.6603774" id="Shape"></path>
                </g>
            </g>
        </g>
    </g>
</svg>