<?xml version="1.0" encoding="UTF-8"?>
<svg width="310px" height="31px" viewBox="0 0 310 31" version="1.1" xmlns="http://www.w3.org/2000/svg" xmlns:xlink="http://www.w3.org/1999/xlink">
    <title>Group 4</title>
    <g id="Desktop" stroke="none" stroke-width="1" fill="none" fill-rule="evenodd">
        <g id="Credit-card-fraud_1440" transform="translate(-839.000000, -1436.000000)" fill="#000000" fill-rule="nonzero">
            <g id="Apollo_Stratus_Socnet" transform="translate(189.000000, 1246.000000)">
                <g id="Group-4" transform="translate(650.000000, 190.000000)">
                    <g id="Group" transform="translate(85.971682, 4.483353)">
                        <path d="M0.237540544,0.615914267 L9.07404877,0.615914267 C12.3521083,0.615914267 14.7750218,3.07957134 14.7750218,6.15914267 C14.7750218,7.67523933 14.2524326,8.71755578 13.6823353,9.38084807 C13.3497786,9.75987224 13.0172218,10.1388964 12.6371569,10.4231645 L12.6371569,10.5652986 C13.112238,10.8021887 13.4923029,11.1812129 13.8248597,11.607615 C14.4424651,12.3182853 15.0600705,13.4079798 15.0600705,14.9714545 C15.0600705,18.0984039 12.6371569,20.5146829 9.45411364,20.5146829 L0.237540544,20.5146829 L0.237540544,0.615914267 L0.237540544,0.615914267 Z M8.93152445,9.28609203 C10.499292,9.28609203 11.782011,8.00688547 11.782011,6.30127673 C11.782011,4.59566799 10.499292,3.31646144 8.93152445,3.31646144 L3.2305514,3.31646144 L3.2305514,9.28609203 L8.93152445,9.28609203 Z M9.2165731,17.8141357 C10.7843407,17.8141357 12.0670596,16.5349292 12.0670596,14.8293204 C12.0670596,13.1237117 10.7843407,11.8445051 9.2165731,11.8445051 L3.2305514,11.8445051 L3.2305514,17.8141357 L9.2165731,17.8141357 Z" id="Shape"></path>
                        <path d="M27.7447355,18.9512082 L27.6022112,18.9512082 C27.3171625,19.3302324 26.9846058,19.6145005 26.5570328,19.8987686 C25.8919193,20.3725488 24.7992328,20.798951 23.3264814,20.798951 C20.1909462,20.798951 18.1956057,18.9985862 18.1956057,16.3927951 C18.1956057,13.5501139 20.0484219,11.7023711 24.039103,11.7023711 L27.6022112,11.7023711 L27.6022112,11.418103 C27.6022112,9.57036015 26.4620166,8.43328766 24.6092003,8.43328766 C22.6138598,8.43328766 21.7587138,9.57036015 21.6161895,10.4231645 L18.765703,10.4231645 C18.9082273,8.0542635 21.0460922,6.01700861 24.6092003,6.01700861 C28.3623409,6.01700861 30.4526977,8.10164152 30.4526977,11.418103 L30.4526977,20.5146829 L28.0297842,20.5146829 L27.7447355,18.9512082 Z M27.6022112,13.9765161 L24.1816274,13.9765161 C21.9962544,13.9765161 21.0460922,14.9714545 21.0460922,16.2506611 C21.0460922,17.5298676 21.9012381,18.382672 23.6115301,18.382672 C26.224476,18.382672 27.6022112,16.9613314 27.6022112,14.5450523 L27.6022112,13.9765161 L27.6022112,13.9765161 Z" id="Shape"></path>
                        <path d="M34.3008545,6.30127673 L36.8662924,6.30127673 L37.1513411,7.72261735 L37.2938654,7.72261735 C37.6264221,7.39097121 37.9589789,7.10670308 38.3390438,6.86981298 C39.0041573,6.4434108 40.0493357,6.01700861 41.4270708,6.01700861 C44.8476547,6.01700861 47.1280439,8.24377558 47.1280439,11.9866392 L47.1280439,20.5146829 L44.2775574,20.5146829 L44.2775574,11.9866392 C44.2775574,10.1388964 42.804806,8.57542172 40.8569735,8.57542172 C38.7191086,8.57542172 37.1513411,10.1388964 37.1513411,11.9866392 L37.1513411,20.5146829 L34.3008545,20.5146829 L34.3008545,6.30127673 Z" id="Path"></path>
                        <polygon id="Path" points="51.0712169 0.615914267 53.9217035 0.615914267 53.9217035 12.8394436 59.9077252 6.30127673 63.328309 6.30127673 56.9147143 13.2658458 63.6133576 20.5146829 60.1927738 20.5146829 53.9217035 13.6922479 53.9217035 20.5146829 51.0712169 20.5146829 51.0712169 0.615914267"></polygon>
                        <path d="M65.4661739,0.615914267 L68.6017091,0.615914267 L68.6017091,3.60072956 L65.4661739,3.60072956 L65.4661739,0.615914267 Z M65.6086982,6.30127673 L68.4591847,6.30127673 L68.4591847,20.5146829 L65.6086982,20.5146829 L65.6086982,6.30127673 Z" id="Shape"></path>
                        <path d="M72.4498659,6.30127673 L75.0153037,6.30127673 L75.3003524,7.72261735 L75.4428767,7.72261735 C75.7754335,7.39097121 76.1079902,7.10670308 76.4880551,6.86981298 C77.1531686,6.4434108 78.198347,6.01700861 79.5760822,6.01700861 C82.996666,6.01700861 85.2770552,8.24377558 85.2770552,11.9866392 L85.2770552,20.5146829 L82.4265687,20.5146829 L82.4265687,11.9866392 C82.4265687,10.1388964 80.9538173,8.57542172 79.0059849,8.57542172 C76.86812,8.57542172 75.3003524,10.1388964 75.3003524,11.9866392 L75.3003524,20.5146829 L72.4498659,20.5146829 L72.4498659,6.30127673 Z" id="Path"></path>
                        <path d="M91.6431418,21.3674873 C91.7856661,22.6466938 93.020877,23.9259004 95.3487743,23.9259004 C97.6291635,23.9259004 99.1969311,22.3624257 99.1969311,20.2304148 L99.1969311,17.9562698 L99.0544068,17.9562698 C98.3892933,18.6195621 97.3441149,19.6618785 94.6361527,19.6618785 C91.1205526,19.6618785 88.3650823,16.9613314 88.3650823,12.8394436 C88.3650823,8.71755578 91.1205526,6.01700861 94.6361527,6.01700861 C97.391623,6.01700861 98.5793257,7.29621517 99.0544068,7.86475141 L99.1969311,7.86475141 L99.4819798,6.30127673 L102.047418,6.30127673 L102.047418,20.2304148 C102.047418,23.9732784 99.6245041,26.4843135 95.3487743,26.4843135 C90.6454715,26.4843135 88.9351796,23.3099861 88.7926553,21.3674873 L91.6431418,21.3674873 L91.6431418,21.3674873 Z M99.1969311,12.8394436 C99.1969311,10.2810305 97.4866392,8.57542172 95.20625,8.57542172 C92.9258608,8.57542172 91.2155688,10.2810305 91.2155688,12.8394436 C91.2155688,15.3978567 92.9258608,17.1034654 95.20625,17.1034654 C97.4866392,17.1034654 99.1969311,15.3978567 99.1969311,12.8394436 Z" id="Shape"></path>
                        <path d="M115.30218,14.4029183 C115.30218,16.2506611 117.202504,17.9562698 120.148007,17.9562698 C123.426067,17.9562698 124.708786,16.6770632 124.708786,14.9714545 C124.708786,13.5027359 123.568591,12.5551754 121.288202,12.1287733 L117.440045,11.418103 C114.257002,10.8495667 112.736742,8.90706787 112.736742,6.15914267 C112.736742,2.89005925 115.444704,0.331646144 119.862958,0.331646144 C124.85131,0.331646144 127.416748,3.17432738 127.416748,6.72767892 L124.423737,6.72767892 C124.423737,4.87993612 122.713445,3.17432738 119.862958,3.17432738 C117.154996,3.17432738 115.729753,4.54828997 115.729753,6.15914267 C115.729753,7.43834923 116.537391,8.43328766 118.722764,8.85968985 L121.858299,9.42822609 C125.896488,10.1388964 127.701796,11.7971271 127.701796,14.9714545 C127.701796,18.2405379 125.136358,20.798951 120.148007,20.798951 C115.159656,20.798951 112.309169,17.9562698 112.309169,14.4029183 L115.30218,14.4029183 L115.30218,14.4029183 Z" id="Path"></path>
                        <path d="M143.94957,16.3927951 C143.284456,18.2405379 141.241607,20.798951 137.535975,20.798951 C133.402769,20.798951 130.409759,17.8141357 130.409759,13.4079798 C130.409759,9.00182391 133.402769,6.01700861 137.535975,6.01700861 C141.384132,6.01700861 144.377143,9.00182391 144.377143,12.9815776 C144.377143,13.4079798 144.329634,13.739626 144.282126,14.0238941 L144.234618,14.4029183 L133.260245,14.4029183 C133.592802,16.8191973 135.255586,18.382672 137.535975,18.382672 C139.246267,18.382672 140.481478,17.3877335 140.956559,16.3927951 L143.94957,16.3927951 L143.94957,16.3927951 Z M141.66918,12.2709073 C141.336624,9.99676234 139.816364,8.43328766 137.535975,8.43328766 C135.113061,8.43328766 133.687818,9.99676234 133.260245,12.2709073 L141.66918,12.2709073 Z" id="Shape"></path>
                        <path d="M147.655202,6.30127673 L150.078116,6.30127673 L150.363164,7.58048329 L150.505689,7.58048329 C150.98077,7.05932506 151.455851,6.30127673 153.213651,6.30127673 L155.779089,6.30127673 L155.779089,8.85968985 L153.498699,8.85968985 C151.503359,8.85968985 150.505689,9.85462828 150.505689,11.7971271 L150.505689,20.5146829 L147.655202,20.5146829 L147.655202,6.30127673 Z" id="Path"></path>
                        <polygon id="Path" points="156.49171 6.30127673 159.484721 6.30127673 163.332878 17.3877335 163.902975 17.3877335 167.751132 6.30127673 170.744143 6.30127673 165.755791 20.5146829 161.480062 20.5146829"></polygon>
                        <path d="M172.882008,0.615914267 L176.017543,0.615914267 L176.017543,3.60072956 L172.882008,3.60072956 L172.882008,0.615914267 Z M173.024532,6.30127673 L175.875019,6.30127673 L175.875019,20.5146829 L173.024532,20.5146829 L173.024532,6.30127673 Z" id="Shape"></path>
                        <path d="M192.835413,15.5399907 C192.360332,17.6720017 190.555024,20.798951 186.279294,20.798951 C182.146089,20.798951 179.153078,17.8141357 179.153078,13.4079798 C179.153078,9.00182391 182.146089,6.01700861 186.279294,6.01700861 C190.555024,6.01700861 192.360332,9.19133599 192.835413,11.1338348 L189.984927,11.1338348 C189.509846,9.85462828 188.464667,8.57542172 186.279294,8.57542172 C183.856381,8.57542172 182.003565,10.4705425 182.003565,13.4079798 C182.003565,16.3454171 183.856381,18.2405379 186.279294,18.2405379 C188.559684,18.2405379 189.65237,16.6770632 189.984927,15.5399907 L192.835413,15.5399907 Z" id="Path"></path>
                        <path d="M208.798138,16.3927951 C208.133025,18.2405379 206.090176,20.798951 202.384543,20.798951 C198.251338,20.798951 195.258327,17.8141357 195.258327,13.4079798 C195.258327,9.00182391 198.251338,6.01700861 202.384543,6.01700861 C206.2327,6.01700861 209.225711,9.00182391 209.225711,12.9815776 C209.225711,13.4079798 209.178203,13.739626 209.130695,14.0238941 L209.083187,14.4029183 L198.108814,14.4029183 C198.44137,16.8191973 200.104154,18.382672 202.384543,18.382672 C204.094835,18.382672 205.330046,17.3877335 205.805127,16.3927951 L208.798138,16.3927951 L208.798138,16.3927951 Z M206.517749,12.2709073 C206.185192,9.99676234 204.664933,8.43328766 202.384543,8.43328766 C199.96163,8.43328766 198.536387,9.99676234 198.108814,12.2709073 L206.517749,12.2709073 Z" id="Shape"></path>
                        <path d="M214.356587,16.2506611 C214.356587,17.1034654 215.354257,18.382672 217.634646,18.382672 C219.772511,18.382672 220.627657,17.4351116 220.627657,16.5349292 C220.627657,15.5399907 220.105068,14.9240765 218.489792,14.6871864 L215.924354,14.2607842 C213.168884,13.787004 211.791149,12.5551754 211.791149,10.1388964 C211.791149,7.86475141 213.643965,6.01700861 217.492122,6.01700861 C221.625327,6.01700861 223.335619,8.85968985 223.335619,10.4231645 L220.485133,10.4231645 C220.485133,9.57036015 219.629987,8.43328766 217.492122,8.43328766 C215.449273,8.43328766 214.641635,9.23871401 214.641635,10.1388964 C214.641635,11.0390788 215.496781,11.607615 216.7795,11.8445051 L219.344938,12.2709073 C222.100408,12.7446875 223.478144,14.1660281 223.478144,16.5349292 C223.478144,18.8090742 221.625327,20.798951 217.634646,20.798951 C213.073868,20.798951 211.5061,17.8141357 211.5061,16.2506611 L214.356587,16.2506611 L214.356587,16.2506611 Z" id="Path"></path>
                    </g>
                    <path d="M5.625,9.53176044 L11.9347826,9.53176044 L11.9347826,23.0272232 L5.625,23.0272232 L5.625,9.53176044 Z M15.0163043,9.53176044 L21.326087,9.53176044 L21.326087,23.0272232 L15.0163043,23.0272232 L15.0163043,9.53176044 Z M13.5,0 L0,6.51179673 L0,9.53176044 L2.54347826,9.53176044 L2.54347826,23.0272232 L0,23.0272232 L0,26 L27,26 L27,23.0272232 L24.4565217,23.0272232 L24.4565217,9.53176044 L27,9.53176044 L27,6.51179673 L13.5,0 Z" id="Shape"></path>
                </g>
            </g>
        </g>
    </g>
</svg>