<?xml version="1.0" encoding="UTF-8"?>
<svg width="636px" height="583px" viewBox="0 0 636 583" version="1.1" xmlns="http://www.w3.org/2000/svg" xmlns:xlink="http://www.w3.org/1999/xlink">
    <title>censorship</title>
    <defs>
        <radialGradient cx="50%" cy="50.0783277%" fx="50%" fy="50.0783277%" r="47.798296%" gradientTransform="translate(0.500000,0.500783),scale(1.000000,0.998195),rotate(90.000000),translate(-0.500000,-0.500783)" id="radialGradient-1">
            <stop stop-color="#58DFFF" offset="0%"></stop>
            <stop stop-color="#D0EEFF" stop-opacity="0" offset="100%"></stop>
        </radialGradient>
        <linearGradient x1="91.8562432%" y1="107.891551%" x2="21.372757%" y2="10.9301586%" id="linearGradient-2">
            <stop stop-color="#53CFFF" offset="5.93998%"></stop>
            <stop stop-color="#89DEFF" stop-opacity="0.6838" offset="51.7%"></stop>
            <stop stop-color="#C7F0FF" stop-opacity="0.35" offset="100%"></stop>
        </linearGradient>
        <linearGradient x1="-1.95919783%" y1="86.6562016%" x2="38.7233148%" y2="57.2511073%" id="linearGradient-3">
            <stop stop-color="#00A0FF" offset="0%"></stop>
            <stop stop-color="#0CBAFF" stop-opacity="0.6933" offset="30.1%"></stop>
            <stop stop-color="#18D4FF" stop-opacity="0.3229" offset="66.46%"></stop>
            <stop stop-color="#1CDDFF" stop-opacity="0.1" offset="88.34%"></stop>
        </linearGradient>
        <linearGradient x1="53.8513894%" y1="51.3061412%" x2="25.4479607%" y2="41.2643886%" id="linearGradient-4">
            <stop stop-color="#39C5FF" stop-opacity="0.1" offset="23.81%"></stop>
            <stop stop-color="#39C5FF" stop-opacity="0.7" offset="100%"></stop>
        </linearGradient>
        <linearGradient x1="8.95666331%" y1="107.563885%" x2="78.0643952%" y2="11.0893522%" id="linearGradient-5">
            <stop stop-color="#53CFFF" offset="5.93998%"></stop>
            <stop stop-color="#89DEFF" stop-opacity="0.6838" offset="51.7%"></stop>
            <stop stop-color="#C7F0FF" stop-opacity="0.35" offset="100%"></stop>
        </linearGradient>
        <linearGradient x1="101.857146%" y1="86.0496561%" x2="61.3388936%" y2="57.0152943%" id="linearGradient-6">
            <stop stop-color="#00A0FF" offset="0%"></stop>
            <stop stop-color="#0CBAFF" stop-opacity="0.6933" offset="30.1%"></stop>
            <stop stop-color="#18D4FF" stop-opacity="0.3229" offset="66.46%"></stop>
            <stop stop-color="#1CDDFF" stop-opacity="0.1" offset="88.34%"></stop>
        </linearGradient>
        <linearGradient x1="46.1501038%" y1="51.3455158%" x2="74.6302635%" y2="41.3103924%" id="linearGradient-7">
            <stop stop-color="#39C5FF" stop-opacity="0.1" offset="23.81%"></stop>
            <stop stop-color="#39C5FF" stop-opacity="0.7" offset="100%"></stop>
        </linearGradient>
        <linearGradient x1="32.4167487%" y1="35.8899548%" x2="67.361701%" y2="63.9322172%" id="linearGradient-8">
            <stop stop-color="#003AD1" offset="0%"></stop>
            <stop stop-color="#0F69DF" offset="26.12%"></stop>
            <stop stop-color="#21A2F0" offset="60.59%"></stop>
            <stop stop-color="#2CC5FB" offset="86.24%"></stop>
            <stop stop-color="#30D2FF" offset="100%"></stop>
        </linearGradient>
        <linearGradient x1="8.12597504%" y1="50%" x2="239.956708%" y2="50%" id="linearGradient-9">
            <stop stop-color="#B5EEFF" offset="6.410918%"></stop>
            <stop stop-color="#0054FF" offset="100%"></stop>
        </linearGradient>
        <linearGradient x1="21.974384%" y1="-3.760181%" x2="71.3953677%" y2="90.1639819%" id="linearGradient-10">
            <stop stop-color="#30D2FF" offset="0%"></stop>
            <stop stop-color="#2CC5FB" offset="13.45%"></stop>
            <stop stop-color="#21A2F0" offset="38.52%"></stop>
            <stop stop-color="#0F69DF" offset="72.21%"></stop>
            <stop stop-color="#003AD1" offset="97.75%"></stop>
        </linearGradient>
        <linearGradient x1="32.0877975%" y1="35.73837%" x2="67.6862465%" y2="64.0817766%" id="linearGradient-11">
            <stop stop-color="#003AD1" offset="0%"></stop>
            <stop stop-color="#0F69DF" offset="26.12%"></stop>
            <stop stop-color="#21A2F0" offset="60.59%"></stop>
            <stop stop-color="#2CC5FB" offset="86.24%"></stop>
            <stop stop-color="#30D2FF" offset="100%"></stop>
        </linearGradient>
        <linearGradient x1="8.16679718%" y1="50%" x2="239.898042%" y2="50%" id="linearGradient-12">
            <stop stop-color="#B5EEFF" offset="6.410918%"></stop>
            <stop stop-color="#0054FF" offset="100%"></stop>
        </linearGradient>
        <linearGradient x1="21.2280963%" y1="-3.99844322%" x2="71.9948516%" y2="90.3908425%" id="linearGradient-13">
            <stop stop-color="#30D2FF" offset="0%"></stop>
            <stop stop-color="#2CC5FB" offset="13.45%"></stop>
            <stop stop-color="#21A2F0" offset="38.52%"></stop>
            <stop stop-color="#0F69DF" offset="72.21%"></stop>
            <stop stop-color="#003AD1" offset="97.75%"></stop>
        </linearGradient>
        <linearGradient x1="-25.9106781%" y1="67.4577225%" x2="101.252767%" y2="38.2878768%" id="linearGradient-14">
            <stop stop-color="#3BB1FF" offset="5.93998%"></stop>
            <stop stop-color="#C7F0FF" stop-opacity="0.35" offset="100%"></stop>
        </linearGradient>
        <linearGradient x1="26.949711%" y1="72.6677951%" x2="69.9813073%" y2="30.3502287%" id="linearGradient-15">
            <stop stop-color="#00A3FF" offset="0%"></stop>
            <stop stop-color="#B4E7FF" stop-opacity="0.9" offset="84.45%"></stop>
        </linearGradient>
        <linearGradient x1="3.41126227%" y1="56.7317475%" x2="62.2190969%" y2="48.2344007%" id="linearGradient-16">
            <stop stop-color="#0082FF" offset="11.17%"></stop>
            <stop stop-color="#39C5FF" stop-opacity="0.25" offset="100%"></stop>
        </linearGradient>
        <linearGradient x1="-25.8806299%" y1="67.3376554%" x2="101.377323%" y2="38.2910322%" id="linearGradient-17">
            <stop stop-color="#26C0FF" offset="21.81%"></stop>
            <stop stop-color="#C7F0FF" stop-opacity="0.35" offset="100%"></stop>
        </linearGradient>
        <linearGradient x1="25.5378869%" y1="59.2014733%" x2="71.2068958%" y2="42.0228361%" id="linearGradient-18">
            <stop stop-color="#00A0FF" offset="24.53%"></stop>
            <stop stop-color="#18D4FF" stop-opacity="0.3229" offset="100%"></stop>
        </linearGradient>
        <linearGradient x1="-5.895922%" y1="145.169982%" x2="64.2956558%" y2="24.5034991%" id="linearGradient-19">
            <stop stop-color="#007CFF" offset="22.99%"></stop>
            <stop stop-color="#39C5FF" stop-opacity="0.25" offset="100%"></stop>
        </linearGradient>
        <linearGradient x1="16.9669917%" y1="61.4046618%" x2="104.892497%" y2="31.761712%" id="linearGradient-20">
            <stop stop-color="#81F5FF" stop-opacity="0" offset="9.701553%"></stop>
            <stop stop-color="#8DE8FF" offset="100%"></stop>
        </linearGradient>
        <linearGradient x1="17.0040548%" y1="61.4153508%" x2="104.929481%" y2="31.756632%" id="linearGradient-21">
            <stop stop-color="#81F5FF" stop-opacity="0" offset="9.701553%"></stop>
            <stop stop-color="#8DE8FF" offset="100%"></stop>
        </linearGradient>
        <linearGradient x1="15.4491023%" y1="38.5525692%" x2="104.444318%" y2="69.2528365%" id="linearGradient-22">
            <stop stop-color="#81F5FF" stop-opacity="0" offset="9.701553%"></stop>
            <stop stop-color="#8DE8FF" offset="100%"></stop>
        </linearGradient>
        <linearGradient x1="15.5179766%" y1="38.5984001%" x2="104.513192%" y2="69.2986673%" id="linearGradient-23">
            <stop stop-color="#81F5FF" stop-opacity="0" offset="9.701553%"></stop>
            <stop stop-color="#8DE8FF" offset="100%"></stop>
        </linearGradient>
        <linearGradient x1="36.5580349%" y1="105.009334%" x2="92.2133112%" y2="-86.5296809%" id="linearGradient-24">
            <stop stop-color="#00C2FF" stop-opacity="0.8" offset="0%"></stop>
            <stop stop-color="#00F1FF" stop-opacity="0.6" offset="99.11%"></stop>
        </linearGradient>
        <linearGradient x1="36.4911693%" y1="105.07226%" x2="65.6206962%" y2="4.67108182%" id="linearGradient-25">
            <stop stop-color="#00A8FF" stop-opacity="0.6" offset="0%"></stop>
            <stop stop-color="#79F1FF" stop-opacity="0.6" offset="100%"></stop>
        </linearGradient>
        <linearGradient x1="65.2898482%" y1="76.3216624%" x2="35.7849797%" y2="25.5916828%" id="linearGradient-26">
            <stop stop-color="#33AEFF" offset="0%"></stop>
            <stop stop-color="#BDE1FF" offset="53.45%"></stop>
            <stop stop-color="#FFFFFF" stop-opacity="0.3" offset="99.43%"></stop>
        </linearGradient>
        <linearGradient x1="20.7645554%" y1="87.8641538%" x2="79.2487329%" y2="12.1069483%" id="linearGradient-27">
            <stop stop-color="#007BFF" offset="0%"></stop>
            <stop stop-color="#00F1FF" stop-opacity="0.8" offset="99.11%"></stop>
        </linearGradient>
        <linearGradient x1="28.5547911%" y1="39.096945%" x2="71.1918207%" y2="67.2836897%" id="linearGradient-28">
            <stop stop-color="#BEF1FF" stop-opacity="0.2" offset="0%"></stop>
            <stop stop-color="#92F1FF" offset="70.69%"></stop>
        </linearGradient>
        <linearGradient x1="67.4809921%" y1="76.9290306%" x2="32.5302391%" y2="23.0567128%" id="linearGradient-29">
            <stop stop-color="#4743EF" offset="7.764582%"></stop>
            <stop stop-color="#77E9FF" stop-opacity="0.5" offset="99.26%"></stop>
        </linearGradient>
        <linearGradient x1="-41.0145248%" y1="111.351308%" x2="74.1433636%" y2="32.818471%" id="linearGradient-30">
            <stop stop-color="#00ADFF" offset="10.58%"></stop>
            <stop stop-color="#69D0FF" stop-opacity="0.755" offset="54.39%"></stop>
            <stop stop-color="#ADE7FF" stop-opacity="0.581" offset="85.51%"></stop>
            <stop stop-color="#C7F0FF" stop-opacity="0.5" offset="100%"></stop>
        </linearGradient>
        <linearGradient x1="21.797399%" y1="109.342889%" x2="66.5962254%" y2="17.6388596%" id="linearGradient-31">
            <stop stop-color="#0074FF" offset="6.61789%"></stop>
            <stop stop-color="#027FFF" stop-opacity="0.9387" offset="20.93%"></stop>
            <stop stop-color="#069DFF" stop-opacity="0.83" offset="46.3%"></stop>
            <stop stop-color="#0ECEFF" stop-opacity="0.6877" offset="79.53%"></stop>
            <stop stop-color="#13EFFF" stop-opacity="0.6" offset="100%"></stop>
        </linearGradient>
        <linearGradient x1="138.594369%" y1="111.203137%" x2="26.6374476%" y2="32.9306357%" id="linearGradient-32">
            <stop stop-color="#00ADFF" offset="10.58%"></stop>
            <stop stop-color="#69D0FF" stop-opacity="0.755" offset="54.39%"></stop>
            <stop stop-color="#ADE7FF" stop-opacity="0.581" offset="85.51%"></stop>
            <stop stop-color="#C7F0FF" stop-opacity="0.5" offset="100%"></stop>
        </linearGradient>
        <linearGradient x1="77.2836002%" y1="109.121025%" x2="33.8352338%" y2="17.7059506%" id="linearGradient-33">
            <stop stop-color="#0074FF" offset="6.61789%"></stop>
            <stop stop-color="#027FFF" stop-opacity="0.9387" offset="20.93%"></stop>
            <stop stop-color="#069DFF" stop-opacity="0.83" offset="46.3%"></stop>
            <stop stop-color="#0ECEFF" stop-opacity="0.6877" offset="79.53%"></stop>
            <stop stop-color="#13EFFF" stop-opacity="0.6" offset="100%"></stop>
        </linearGradient>
    </defs>
    <g id="Desktop" stroke="none" stroke-width="1" fill="none" fill-rule="evenodd">
        <g id="Home_1440" transform="translate(-90.000000, -5460.000000)">
            <g id="Features-2" transform="translate(-1.000000, 2647.000000)">
                <g id="censorship" transform="translate(91.000000, 2813.000000)">
                    <ellipse id="Oval" fill="url(#radialGradient-1)" opacity="0.796829578" cx="359.5" cy="306" rx="276.5" ry="277"></ellipse>
                    <g id="Censorship" fill-rule="nonzero">
                        <g id="Group" opacity="0.5" transform="translate(77.000000, 0.000000)">
                            <g transform="translate(0.000000, 43.166667)" id="Path">
                                <polygon fill="url(#linearGradient-2)" opacity="0.92" points="0.357198444 176.905405 76.9167315 220.594595 76.9167315 130.828829 0.357198444 86.3040541"></polygon>
                                <polygon fill="url(#linearGradient-3)" opacity="0.8" points="306 0.835585586 306 86.3040541 76.9167315 220.594595 76.9167315 130.828829"></polygon>
                            </g>
                            <polygon id="Path" fill="url(#linearGradient-4)" opacity="0.85" points="306 44.0022523 229.440467 0.0743243243 0.357198444 129.470721 76.9167315 173.995495"></polygon>
                        </g>
                        <g id="Group" opacity="0.5" transform="translate(77.000000, 0.000000)">
                            <g transform="translate(0.000000, 44.199095)" id="Path">
                                <polygon fill="url(#linearGradient-5)" opacity="0.92" points="306 175.482353 230.512062 219.20362 230.512062 129.371946 306 84.9339367"></polygon>
                                <polygon fill="url(#linearGradient-6)" opacity="0.8" points="0.357198444 0.477828054 0.357198444 84.9339367 230.512062 219.20362 230.512062 129.371946"></polygon>
                            </g>
                            <polygon id="Path" fill="url(#linearGradient-7)" opacity="0.85" points="0.357198444 44.6769231 77.9883268 0.358371041 306 129.133032 230.512062 173.571041"></polygon>
                        </g>
                        <g id="Group" opacity="0.75" transform="translate(0.000000, 218.000000)">
                            <polygon id="Path" fill="url(#linearGradient-8)" opacity="0.8" points="76.7612403 177.163758 153.522481 131.767785 153.522481 45.157047 76.7612403 89.2389262"></polygon>
                            <polygon id="Path" fill="url(#linearGradient-9)" points="76.7612403 0.836241611 0.47751938 45.157047 76.7612403 89.2389262 153.522481 45.157047"></polygon>
                            <polygon id="Path" fill="url(#linearGradient-10)" opacity="0.8" points="76.7612403 89.2389262 0.47751938 45.157047 0.47751938 131.767785 76.7612403 177.163758"></polygon>
                        </g>
                        <g id="Group" opacity="0.72" transform="translate(306.000000, 219.000000)">
                            <polygon id="Path" fill="url(#linearGradient-11)" opacity="0.8" points="76.5968992 175 152.522481 131.309524 152.522481 45 76.5968992 87.3809524"></polygon>
                            <polygon id="Path" fill="url(#linearGradient-12)" points="76.5968992 0.833333333 0.0744186047 45 76.5968992 87.3809524 152.522481 45"></polygon>
                            <polygon id="Path" fill="url(#linearGradient-13)" opacity="0.8" points="76.5968992 87.3809524 0.0744186047 45 0.0744186047 131.309524 76.5968992 175"></polygon>
                        </g>
                        <g id="Group" opacity="0.78" transform="translate(153.000000, 218.000000)">
                            <g opacity="0.91" id="Path">
                                <g>
                                    <polygon fill="url(#linearGradient-14)" points="77.5968992 0.837162162 0.71627907 45.2067568 77.5968992 88.2608108 153.88062 45.2067568"></polygon>
                                    <polygon fill="url(#linearGradient-15)" opacity="0.8" points="77.5968992 175.923649 0.71627907 131.912838 0.71627907 45.2067568 77.5968992 88.2608108"></polygon>
                                </g>
                                <polygon fill="url(#linearGradient-16)" points="77.5968992 175.923649 153.88062 131.912838 153.88062 45.2067568 77.5968992 88.2608108"></polygon>
                            </g>
                            <g transform="translate(39.395349, 44.250000)" id="Path">
                                <g>
                                    <polygon fill="url(#linearGradient-17)" points="38.2015504 0.956756757 0.23875969 22.722973 38.2015504 44.0108108 76.0449612 22.722973"></polygon>
                                    <polygon fill="url(#linearGradient-18)" opacity="0.8" points="38.2015504 87.6628378 0.23875969 65.1790541 0.23875969 22.722973 38.2015504 44.0108108"></polygon>
                                </g>
                                <polygon fill="url(#linearGradient-19)" points="38.2015504 87.6628378 76.0449612 65.1790541 76.0449612 22.722973 38.2015504 44.0108108"></polygon>
                            </g>
                        </g>
                        <path d="M382.330714,68.2357534 L309,110.959806 L312.463503,113 L384.122181,71.3560494 C384.958199,70.8760039 385.197061,69.9159128 384.838768,69.0758331 L384.838768,69.0758331 C384.361043,67.9957307 383.166732,67.7557079 382.330714,68.2357534 Z" id="Path" fill="url(#linearGradient-20)" opacity="0.65"></path>
                        <path d="M74.4501454,91.2118189 L1,133.958716 L4.46350279,136 L76.1221812,94.3337833 C76.9581991,93.8534811 77.1970614,92.8928766 76.838768,92.0523478 L76.838768,92.0523478 C76.3610435,91.0917433 75.2861633,90.7315167 74.4501454,91.2118189 Z" id="Path" fill="url(#linearGradient-21)" opacity="0.65"></path>
                        <path d="M495.187715,243.772903 L421,202 L421,205.938588 L493.389951,246.756682 C494.228908,247.234087 495.187715,246.995384 495.667119,246.159926 L495.667119,246.159926 C496.266373,245.324468 496.026672,244.250308 495.187715,243.772903 Z" id="Path" fill="url(#linearGradient-22)" opacity="0.65"></path>
                        <path d="M172.187715,414.772903 L98,373 L98,376.938588 L170.389951,417.756682 C171.228908,418.234087 172.187715,417.995384 172.667119,417.159926 L172.667119,417.159926 C173.266373,416.324468 173.026672,415.250308 172.187715,414.772903 Z" id="Path" fill="url(#linearGradient-23)" opacity="0.65"></path>
                        <g id="Group" transform="translate(115.000000, 3.000000)">
                            <g id="Path">
                                <path d="M197.701346,77.6797101 C197.701346,56.5594203 188.177561,43.5531401 173.894634,41.047343 C167.586341,39.4961353 160.087805,40.331401 152.113171,43.4338164 C152.232195,41.6439614 152.232195,40.0927536 152.232195,38.4222222 C152.113171,4.77294686 128.308293,-8.82995169 99.1473171,8.11400966 C69.9863415,25.057971 46.3004878,65.9859903 46.4195122,99.6352657 C46.4195122,101.305797 46.5385366,102.857005 46.657561,104.527536 C20.8292683,123.738647 0.833170732,160.609662 0.951666537,191.275845 C1.07121951,224.925121 25.1141463,238.408696 54.5131707,221.345411 C54.6321951,221.345411 54.6321951,221.226087 54.7512195,221.226087 L142.948293,169.916908 C143.067317,169.916908 143.067317,169.797585 143.186341,169.797585 C144.138537,169.200966 145.209756,168.604348 146.280976,167.888406 C174.965854,150.586473 197.937561,110.613043 197.701346,77.6797101 Z" fill="url(#linearGradient-24)" opacity="0.46"></path>
                                <path d="M219.957073,85.9130435 C219.957073,64.5541063 210.435122,51.3091787 195.914146,48.8033816 C189.486829,47.2521739 181.988293,48.0874396 173.894634,51.1898551 C174.013659,49.4 174.013659,47.8487923 174.013659,46.0589372 C173.894634,12.0516908 149.851707,-1.6705314 120.452683,15.3927536 C90.9346341,32.4560386 67.1297561,73.8613527 67.2487805,107.987923 C67.2487805,109.658454 67.3678049,111.209662 67.4868293,112.880193 C41.4204878,132.329952 21.1863415,169.678261 21.3048435,200.702415 C21.4243902,234.709662 45.7053659,248.31256 75.5804878,231.010628 C75.6995122,231.010628 75.6995122,230.891304 75.8185366,230.891304 L164.967805,178.985507 C165.086829,178.985507 165.086829,178.866184 165.205854,178.866184 C166.158049,178.269565 167.348293,177.672947 168.300488,176.957005 C196.866341,159.655072 219.957073,119.204348 219.957073,85.9130435 Z" fill="url(#linearGradient-25)"></path>
                                <g transform="translate(44.039024, 15.512077)">
                                    <path d="M144.138537,48.326087 C144.019512,48.326087 144.019512,48.4454106 143.900488,48.4454106 L143.900488,48.4454106 L54.7512195,100.351208 L54.7512195,100.351208 C54.6321951,100.351208 54.6321951,100.470531 54.5131707,100.470531 C24.6380488,117.772464 0.476097561,159.297101 0.594684088,193.423671 C0.714146341,227.430918 24.995122,241.033816 54.8702439,223.731884 C54.9892683,223.731884 54.9892683,223.61256 55.1082927,223.61256 L144.257561,171.706763 C144.376585,171.706763 144.376585,171.58744 144.49561,171.58744 C174.251707,154.404831 198.294634,112.999517 198.413659,78.9922705 L198.413659,78.3956522 C198.056585,44.5077295 173.894634,31.1434783 144.138537,48.326087" fill="url(#linearGradient-26)"></path>
                                    <path d="M99.742439,8.23333333 C70.2243902,25.2966184 46.4195122,66.7019324 46.5380922,100.828502 C46.657561,134.955072 70.7004878,148.557971 100.099512,131.494686 C129.617561,114.431401 153.422439,73.026087 153.303859,38.8995169 C153.303859,4.89227053 129.379512,-8.82995169 99.742439,8.23333333" fill="url(#linearGradient-27)"></path>
                                    <g opacity="0.41" transform="translate(0.000000, 40.570048)" fill="url(#linearGradient-28)">
                                        <g>
                                            <path d="M144.138537,7.87536232 C144.019512,7.87536232 144.019512,7.99468599 143.900488,7.99468599 L143.900488,7.99468599 L54.7512195,59.9004831 L54.7512195,59.9004831 C54.6321951,59.9004831 54.6321951,60.0198068 54.5131707,60.0198068 C24.6380488,77.3217391 0.476097561,119.442995 0.594684088,154.166184 C72.9619512,112.283575 134.259512,76.9637681 198.413659,39.8541063 L198.413659,39.2574879 C198.17561,4.65362319 174.013659,-9.30724638 144.138537,7.87536232"></path>
                                        </g>
                                    </g>
                                    <path d="M146.280976,48.4454106 C117.000976,65.389372 93.5531707,106.317391 93.5531707,139.966667 C93.6721951,173.615942 117.477073,187.099517 146.519024,170.274879 C175.560976,153.450242 199.246829,112.402899 199.246829,78.7536232 C199.246829,45.1043478 175.441951,31.5014493 146.280976,48.4454106" fill="url(#linearGradient-29)"></path>
                                </g>
                            </g>
                            <g transform="translate(166.634146, 83.333333)" fill="#FFFFFF">
                                <path d="M35.2312195,24.8932367 C34.9931707,24.6545894 34.9931707,24.1772947 34.9931707,23.7 C34.9931707,22.8647343 35.2312195,21.9101449 35.8263415,20.9555556 L42.4917073,9.38115942 C42.9678049,8.54589372 43.6819512,7.71062802 44.515122,7.23333333 C45.1102439,6.87536232 45.8243902,6.75603865 46.5385366,7.11400966 L49.0380488,8.42657005 C50.1092683,8.90386473 50.1092683,10.9323671 49.1570732,12.8415459 L42.4917073,24.415942 C42.0156098,25.3705314 41.3014634,26.0864734 40.4682927,26.5637681 C40.1112195,26.8024155 39.635122,26.9217391 39.2780488,26.9217391 C40.1112195,25.2512077 39.9921951,23.5806763 39.04,23.1033816 C38.5639024,22.8647343 37.9687805,22.8647343 37.1356098,23.2227053 C36.302439,23.5806763 35.7073171,24.1772947 35.2312195,24.8932367 M44.2770732,1.02850242 C42.2536585,2.10241546 40.2302439,4.25024155 38.6829268,6.99468599 L32.017561,18.5690821 C29.1609756,23.5806763 28.9229268,29.0695652 31.5414634,31.2173913 L29.6370732,34.5584541 L29.6370732,43.0304348 L35.2312195,33.4845411 C36.5404878,33.9618357 38.444878,33.6038647 40.2302439,32.6492754 C42.2536585,31.5753623 44.2770732,29.4275362 45.8243902,26.6830918 L52.4897561,15.1086957 C55.4653659,9.61980676 55.4653659,3.77294686 52.3707317,2.10241546 L49.8712195,0.789855072 C48.4429268,-0.403381643 46.4195122,-0.045410628 44.2770732,1.02850242" id="Shape"></path>
                                <path d="M10.8312195,77.3956522 C10.1170732,77.7536232 9.52195122,77.8729469 8.80780488,77.6342995 L6.30829268,76.3217391 C5.83219512,76.0830918 5.47512195,75.4864734 5.47512195,74.5318841 C5.47512195,73.6966184 5.71317073,72.742029 6.30829268,71.7874396 L12.9736585,60.2130435 C13.4497561,59.3777778 14.1639024,58.5425121 14.9970732,58.0652174 C15.4731707,57.82657 15.9492683,57.7072464 16.5443902,57.7072464 C16.1873171,59.0198068 16.4253659,60.0937198 17.1395122,60.5710145 C17.6156098,60.8096618 18.3297561,60.6903382 19.0439024,60.3323671 C19.2819512,60.2130435 19.6390244,59.9743961 19.8770732,59.6164251 C20.4721951,60.4516908 20.3531707,62.1222222 19.4009756,63.67343 L12.7356098,75.2478261 C12.3785366,76.3217391 11.5453659,76.9183575 10.8312195,77.3956522 M25.1141463,42.1951691 L19.9960976,51.0251208 C18.4487805,50.5478261 16.782439,50.9057971 14.8780488,51.8603865 C12.8546341,52.9342995 10.8312195,55.0821256 9.28390244,57.7072464 L2.61853659,69.2816425 C-0.476097561,74.6512077 -0.476097561,80.4980676 2.61853659,82.2879227 L5.11804878,83.6004831 C6.78439024,84.4357488 8.68878049,84.1971014 10.8312195,83.0038647 C12.9736585,81.810628 14.8780488,79.7821256 16.4253659,77.0376812 L23.0907317,65.463285 C25.9473171,60.4516908 26.1853659,55.0821256 23.6858537,52.9342995 L24.995122,50.4285024 L24.995122,42.1951691" id="Shape"></path>
                                <path d="M13.5687805,44.1043478 C12.8546341,44.4623188 12.2595122,45.6555556 12.2595122,46.3714976 C12.2595122,47.2067633 12.8546341,47.5647343 13.5687805,47.0874396 L18.5678049,44.2236715 L18.5678049,44.2236715 C19.2819512,43.8657005 19.8770732,42.6724638 19.8770732,41.9565217 C19.8770732,41.121256 19.2819512,40.763285 18.5678049,41.2405797 L13.5687805,44.1043478" id="Path"></path>
                                <path d="M16.5443902,32.6492754 C16.1873171,32.8879227 15.8302439,33.2458937 15.5921951,33.7231884 C15.1160976,34.5584541 15.235122,35.6323671 15.8302439,35.7516908 L20.4721951,37.5415459 C20.7102439,37.6608696 20.9482927,37.5415459 21.3053659,37.4222222 C21.662439,37.1835749 22.0195122,36.8256039 22.257561,36.3483092 C22.7336585,35.5130435 22.6146341,34.4391304 22.0195122,34.3198068 L17.377561,32.5299517 C17.1395122,32.410628 16.9014634,32.5299517 16.5443902,32.6492754" id="Path"></path>
                                <path d="M24.0429268,23.342029 C23.9239024,23.342029 23.804878,23.4613527 23.6858537,23.5806763 C22.9717073,24.1772947 22.6146341,25.3705314 22.7336585,25.9671498 L23.9239024,30.6207729 C24.0429268,31.2173913 24.6380488,31.336715 25.1141463,30.978744 C25.2331707,30.8594203 25.3521951,30.8594203 25.4712195,30.7400966 C26.1853659,30.1434783 26.542439,28.9502415 26.4234146,28.3536232 L25.2331707,23.7 C25.1141463,23.2227053 24.5190244,23.1033816 24.0429268,23.342029" id="Path"></path>
                                <path d="M39.2780488,37.8995169 C38.6829268,38.2574879 38.2068293,38.97343 38.0878049,39.9280193 C37.9687805,40.763285 38.444878,41.4792271 39.04,41.121256 L43.92,39.4507246 C44.0390244,39.4507246 44.0390244,39.331401 44.1580488,39.331401 C44.7531707,38.97343 45.2292683,38.2574879 45.3482927,37.3028986 C45.4673171,36.3483092 44.9912195,35.7516908 44.3960976,36.1096618 L39.5160976,37.7801932 C39.3970732,37.8995169 39.2780488,37.8995169 39.2780488,37.8995169" id="Path"></path>
                                <path d="M35.5882927,44.7009662 C35.3502439,44.8202899 34.9931707,45.1782609 34.755122,45.5362319 C34.16,46.3714976 34.16,47.4454106 34.5170732,47.8033816 L38.3258537,50.9057971 C38.5639024,51.1444444 38.9209756,51.1444444 39.2780488,50.9057971 C39.5160976,50.7864734 39.8731707,50.4285024 40.1112195,50.0705314 C40.7063415,49.2352657 40.7063415,48.1613527 40.3492683,47.8033816 L36.5404878,44.7009662 C36.302439,44.4623188 35.9453659,44.4623188 35.5882927,44.7009662" id="Path"></path>
                                <path d="M31.0653659,50.3091787 C31.0653659,50.3091787 30.9463415,50.3091787 31.0653659,50.3091787 C30.3512195,50.7864734 29.7560976,51.8603865 29.7560976,52.6956522 L29.9941463,58.0652174 C29.9941463,58.7811594 30.5892683,59.1391304 31.3034146,58.6618357 L31.3034146,58.6618357 C32.017561,58.1845411 32.4936585,57.110628 32.4936585,56.2753623 L32.2556098,50.9057971 C32.3746341,50.1898551 31.7795122,49.9512077 31.0653659,50.3091787" id="Path"></path>
                            </g>
                        </g>
                        <g id="Group" transform="translate(385.000000, 86.000000)">
                            <path d="M31.3540984,79.8648649 L31.3540984,41.9297297 C31.3540984,37.6486486 33.6278689,33.7243243 37.3377049,31.7027027 L66.1786885,15.2918919 C67.3754098,14.5783784 68.5721311,14.5783784 69.7688525,14.9351351 C66.4180328,13.3891892 41.047541,1.14054054 39.6114754,0.664864865 C38.0557377,0.0702702703 35.6622951,-0.167567568 33.9868852,0.783783784 L5.98360656,16.6 C2.27377049,18.7405405 0,22.6648649 0,26.827027 L0,64.7621622 C0,66.427027 0.837704918,67.7351351 2.15409836,68.4486486 C3.11147541,69.0432432 29.9180328,81.6486486 33.0295082,83.0756757 C31.952459,82.3621622 31.3540984,81.172973 31.3540984,79.8648649 Z" id="Path" fill="url(#linearGradient-30)"></path>
                            <path d="M66.1786885,15.172973 L37.3377049,31.5837838 C33.6278689,33.7243243 31.3540984,37.6486486 31.3540984,41.8108108 L31.3540984,79.8648649 C31.3540984,83.0756757 34.8245902,85.0972973 37.6967213,83.5513514 L44.2786885,79.8648649 L55.0491803,86.1675676 L55.0491803,73.6810811 L68.0934426,66.3081081 C70.8459016,64.7621622 72.5213115,61.7891892 72.5213115,58.6972973 L72.5213115,18.9783784 C72.6409836,15.6486486 69.0508197,13.627027 66.1786885,15.172973 Z" id="Path" fill="url(#linearGradient-31)"></path>
                        </g>
                        <g id="Group" transform="translate(25.000000, 144.000000)">
                            <path d="M27.9761905,54.7372549 L27.9761905,28.7823529 C27.9761905,25.9117647 26.4285714,23.1607843 23.9285714,21.7254902 L4.4047619,10.4823529 C3.57142857,10.0039216 2.73809524,10.0039216 2.02380952,10.2431373 C4.28571429,9.16666667 21.4285714,0.794117647 22.3809524,0.435294118 C23.452381,0.0764705882 25,-0.162745098 26.1904762,0.435294118 L45.1190476,11.3196078 C47.6190476,12.754902 49.1666667,15.3862745 49.1666667,18.3764706 L49.1666667,44.4509804 C49.1666667,45.527451 48.5714286,46.4843137 47.7380952,46.9627451 C47.0238095,47.3215686 28.9285714,55.9333333 26.9047619,56.8901961 C27.6190476,56.4117647 27.9761905,55.6941176 27.9761905,54.7372549 Z" id="Path" fill="url(#linearGradient-32)"></path>
                            <path d="M4.4047619,10.6019608 L23.9285714,21.845098 C26.4285714,23.2803922 27.9761905,25.9117647 27.9761905,28.9019608 L27.9761905,54.8568627 C27.9761905,57.0098039 25.5952381,58.445098 23.6904762,57.3686275 L19.2857143,54.8568627 L12.0238095,59.1627451 L12.0238095,50.4313725 L3.21428571,45.4078431 C1.30952381,44.3313725 0.238095238,42.2980392 0.238095238,40.145098 L0.238095238,12.9941176 C0.119047619,10.8411765 2.5,9.40588235 4.4047619,10.6019608 Z" id="Path" fill="url(#linearGradient-33)"></path>
                        </g>
                    </g>
                </g>
            </g>
        </g>
    </g>
</svg>