<?xml version="1.0" encoding="UTF-8"?>
<svg width="738px" height="622px" viewBox="0 0 738 622" version="1.1" xmlns="http://www.w3.org/2000/svg" xmlns:xlink="http://www.w3.org/1999/xlink">
    <title>Censorship</title>
    <defs>
        <linearGradient x1="91.8638813%" y1="107.891551%" x2="21.367533%" y2="10.9301586%" id="linearGradient-1">
            <stop stop-color="#53CFFF" offset="5.93998%"></stop>
            <stop stop-color="#89DEFF" stop-opacity="0.6838" offset="51.7%"></stop>
            <stop stop-color="#C7F0FF" stop-opacity="0.35" offset="100%"></stop>
        </linearGradient>
        <linearGradient x1="-1.95919783%" y1="86.6495137%" x2="38.7233148%" y2="57.2497844%" id="linearGradient-2">
            <stop stop-color="#00A0FF" offset="0%"></stop>
            <stop stop-color="#0CBAFF" stop-opacity="0.6933" offset="30.1%"></stop>
            <stop stop-color="#18D4FF" stop-opacity="0.3229" offset="66.46%"></stop>
            <stop stop-color="#1CDDFF" stop-opacity="0.1" offset="88.34%"></stop>
        </linearGradient>
        <linearGradient x1="53.8513894%" y1="51.3059029%" x2="25.4479607%" y2="41.2659824%" id="linearGradient-3">
            <stop stop-color="#39C5FF" stop-opacity="0.1" offset="23.81%"></stop>
            <stop stop-color="#39C5FF" stop-opacity="0.7" offset="100%"></stop>
        </linearGradient>
        <linearGradient x1="8.94917356%" y1="107.563885%" x2="78.0695165%" y2="11.0893522%" id="linearGradient-4">
            <stop stop-color="#53CFFF" offset="5.93998%"></stop>
            <stop stop-color="#89DEFF" stop-opacity="0.6838" offset="51.7%"></stop>
            <stop stop-color="#C7F0FF" stop-opacity="0.35" offset="100%"></stop>
        </linearGradient>
        <linearGradient x1="101.857146%" y1="86.0430788%" x2="61.3388936%" y2="57.0140143%" id="linearGradient-5">
            <stop stop-color="#00A0FF" offset="0%"></stop>
            <stop stop-color="#0CBAFF" stop-opacity="0.6933" offset="30.1%"></stop>
            <stop stop-color="#18D4FF" stop-opacity="0.3229" offset="66.46%"></stop>
            <stop stop-color="#1CDDFF" stop-opacity="0.1" offset="88.34%"></stop>
        </linearGradient>
        <linearGradient x1="46.1501038%" y1="51.3452703%" x2="74.6302635%" y2="41.3119778%" id="linearGradient-6">
            <stop stop-color="#39C5FF" stop-opacity="0.1" offset="23.81%"></stop>
            <stop stop-color="#39C5FF" stop-opacity="0.7" offset="100%"></stop>
        </linearGradient>
        <linearGradient x1="32.4580866%" y1="35.8899548%" x2="67.3208839%" y2="63.9322172%" id="linearGradient-7">
            <stop stop-color="#003AD1" offset="0%"></stop>
            <stop stop-color="#0F69DF" offset="26.12%"></stop>
            <stop stop-color="#21A2F0" offset="60.59%"></stop>
            <stop stop-color="#2CC5FB" offset="86.24%"></stop>
            <stop stop-color="#30D2FF" offset="100%"></stop>
        </linearGradient>
        <linearGradient x1="8.12597504%" y1="50%" x2="239.956708%" y2="50%" id="linearGradient-8">
            <stop stop-color="#B5EEFF" offset="6.410918%"></stop>
            <stop stop-color="#0054FF" offset="100%"></stop>
        </linearGradient>
        <linearGradient x1="22.0402717%" y1="-3.760181%" x2="71.3450676%" y2="90.1639819%" id="linearGradient-9">
            <stop stop-color="#30D2FF" offset="0%"></stop>
            <stop stop-color="#2CC5FB" offset="13.45%"></stop>
            <stop stop-color="#21A2F0" offset="38.52%"></stop>
            <stop stop-color="#0F69DF" offset="72.21%"></stop>
            <stop stop-color="#003AD1" offset="97.75%"></stop>
        </linearGradient>
        <linearGradient x1="32.0502429%" y1="35.73837%" x2="67.7233274%" y2="64.0817766%" id="linearGradient-10">
            <stop stop-color="#003AD1" offset="0%"></stop>
            <stop stop-color="#0F69DF" offset="26.12%"></stop>
            <stop stop-color="#21A2F0" offset="60.59%"></stop>
            <stop stop-color="#2CC5FB" offset="86.24%"></stop>
            <stop stop-color="#30D2FF" offset="100%"></stop>
        </linearGradient>
        <linearGradient x1="8.16679718%" y1="50%" x2="239.898042%" y2="50%" id="linearGradient-11">
            <stop stop-color="#B5EEFF" offset="6.410918%"></stop>
            <stop stop-color="#0054FF" offset="100%"></stop>
        </linearGradient>
        <linearGradient x1="21.1677733%" y1="-3.99844322%" x2="72.0409658%" y2="90.3908425%" id="linearGradient-12">
            <stop stop-color="#30D2FF" offset="0%"></stop>
            <stop stop-color="#2CC5FB" offset="13.45%"></stop>
            <stop stop-color="#21A2F0" offset="38.52%"></stop>
            <stop stop-color="#0F69DF" offset="72.21%"></stop>
            <stop stop-color="#003AD1" offset="97.75%"></stop>
        </linearGradient>
        <linearGradient x1="-25.9106781%" y1="67.4958606%" x2="101.252767%" y2="38.2622905%" id="linearGradient-13">
            <stop stop-color="#3BB1FF" offset="5.93998%"></stop>
            <stop stop-color="#C7F0FF" stop-opacity="0.35" offset="100%"></stop>
        </linearGradient>
        <linearGradient x1="26.9999568%" y1="72.6677951%" x2="69.9377514%" y2="30.3502287%" id="linearGradient-14">
            <stop stop-color="#00A3FF" offset="0%"></stop>
            <stop stop-color="#B4E7FF" stop-opacity="0.9" offset="84.45%"></stop>
        </linearGradient>
        <linearGradient x1="3.51281807%" y1="56.7317475%" x2="62.1924612%" y2="48.2344007%" id="linearGradient-15">
            <stop stop-color="#0082FF" offset="11.17%"></stop>
            <stop stop-color="#39C5FF" stop-opacity="0.25" offset="100%"></stop>
        </linearGradient>
        <linearGradient x1="-25.8806299%" y1="67.3755312%" x2="101.377323%" y2="38.2654529%" id="linearGradient-16">
            <stop stop-color="#26C0FF" offset="21.81%"></stop>
            <stop stop-color="#C7F0FF" stop-opacity="0.35" offset="100%"></stop>
        </linearGradient>
        <linearGradient x1="25.5912103%" y1="59.2014733%" x2="71.1606682%" y2="42.0228361%" id="linearGradient-17">
            <stop stop-color="#00A0FF" offset="24.53%"></stop>
            <stop stop-color="#18D4FF" stop-opacity="0.3229" offset="100%"></stop>
        </linearGradient>
        <linearGradient x1="-5.77407807%" y1="145.169982%" x2="64.2644936%" y2="24.5034991%" id="linearGradient-18">
            <stop stop-color="#007CFF" offset="22.99%"></stop>
            <stop stop-color="#39C5FF" stop-opacity="0.25" offset="100%"></stop>
        </linearGradient>
        <linearGradient x1="16.9669917%" y1="61.4360827%" x2="104.892497%" y2="31.7114638%" id="linearGradient-19">
            <stop stop-color="#81F5FF" stop-opacity="0" offset="9.701553%"></stop>
            <stop stop-color="#8DE8FF" offset="100%"></stop>
        </linearGradient>
        <linearGradient x1="17.0040548%" y1="61.4468011%" x2="104.929481%" y2="31.7063699%" id="linearGradient-20">
            <stop stop-color="#81F5FF" stop-opacity="0" offset="9.701553%"></stop>
            <stop stop-color="#8DE8FF" offset="100%"></stop>
        </linearGradient>
        <linearGradient x1="15.4491023%" y1="38.6206073%" x2="104.444318%" y2="69.1384068%" id="linearGradient-21">
            <stop stop-color="#81F5FF" stop-opacity="0" offset="9.701553%"></stop>
            <stop stop-color="#8DE8FF" offset="100%"></stop>
        </linearGradient>
        <linearGradient x1="15.5179766%" y1="38.6661657%" x2="104.513192%" y2="69.1839653%" id="linearGradient-22">
            <stop stop-color="#81F5FF" stop-opacity="0" offset="9.701553%"></stop>
            <stop stop-color="#8DE8FF" offset="100%"></stop>
        </linearGradient>
        <linearGradient x1="36.5238154%" y1="105.009334%" x2="92.3207747%" y2="-86.5296809%" id="linearGradient-23">
            <stop stop-color="#00C2FF" stop-opacity="0.8" offset="0%"></stop>
            <stop stop-color="#00F1FF" stop-opacity="0.6" offset="99.11%"></stop>
        </linearGradient>
        <linearGradient x1="36.4567795%" y1="105.07226%" x2="65.6604622%" y2="4.67108182%" id="linearGradient-24">
            <stop stop-color="#00A8FF" stop-opacity="0.6" offset="0%"></stop>
            <stop stop-color="#79F1FF" stop-opacity="0.6" offset="100%"></stop>
        </linearGradient>
        <linearGradient x1="65.2898482%" y1="76.2548249%" x2="35.7849797%" y2="25.6536619%" id="linearGradient-25">
            <stop stop-color="#33AEFF" offset="0%"></stop>
            <stop stop-color="#BDE1FF" offset="53.45%"></stop>
            <stop stop-color="#FFFFFF" stop-opacity="0.3" offset="99.43%"></stop>
        </linearGradient>
        <linearGradient x1="20.69013%" y1="87.8641538%" x2="79.3231921%" y2="12.1069483%" id="linearGradient-26">
            <stop stop-color="#007BFF" offset="0%"></stop>
            <stop stop-color="#00F1FF" stop-opacity="0.8" offset="99.11%"></stop>
        </linearGradient>
        <linearGradient x1="28.5547911%" y1="39.1246307%" x2="71.1918207%" y2="67.2398019%" id="linearGradient-27">
            <stop stop-color="#BEF1FF" stop-opacity="0.2" offset="0%"></stop>
            <stop stop-color="#92F1FF" offset="70.69%"></stop>
        </linearGradient>
        <linearGradient x1="67.5254939%" y1="76.9290306%" x2="32.4857659%" y2="23.0567128%" id="linearGradient-28">
            <stop stop-color="#4743EF" offset="7.764582%"></stop>
            <stop stop-color="#77E9FF" stop-opacity="0.5" offset="99.26%"></stop>
        </linearGradient>
        <linearGradient x1="-42.2947646%" y1="111.351308%" x2="74.4829719%" y2="32.818471%" id="linearGradient-29">
            <stop stop-color="#00ADFF" offset="10.58%"></stop>
            <stop stop-color="#69D0FF" stop-opacity="0.755" offset="54.39%"></stop>
            <stop stop-color="#ADE7FF" stop-opacity="0.581" offset="85.51%"></stop>
            <stop stop-color="#C7F0FF" stop-opacity="0.5" offset="100%"></stop>
        </linearGradient>
        <linearGradient x1="21.4006921%" y1="109.342889%" x2="66.8296733%" y2="17.6388596%" id="linearGradient-30">
            <stop stop-color="#0074FF" offset="6.61789%"></stop>
            <stop stop-color="#027FFF" stop-opacity="0.9387" offset="20.93%"></stop>
            <stop stop-color="#069DFF" stop-opacity="0.83" offset="46.3%"></stop>
            <stop stop-color="#0ECEFF" stop-opacity="0.6877" offset="79.53%"></stop>
            <stop stop-color="#13EFFF" stop-opacity="0.6" offset="100%"></stop>
        </linearGradient>
        <linearGradient x1="138.196639%" y1="111.203137%" x2="26.7423299%" y2="32.9306357%" id="linearGradient-31">
            <stop stop-color="#00ADFF" offset="10.58%"></stop>
            <stop stop-color="#69D0FF" stop-opacity="0.755" offset="54.39%"></stop>
            <stop stop-color="#ADE7FF" stop-opacity="0.581" offset="85.51%"></stop>
            <stop stop-color="#C7F0FF" stop-opacity="0.5" offset="100%"></stop>
        </linearGradient>
        <linearGradient x1="77.1611151%" y1="109.121025%" x2="33.9078028%" y2="17.7059506%" id="linearGradient-32">
            <stop stop-color="#0074FF" offset="6.61789%"></stop>
            <stop stop-color="#027FFF" stop-opacity="0.9387" offset="20.93%"></stop>
            <stop stop-color="#069DFF" stop-opacity="0.83" offset="46.3%"></stop>
            <stop stop-color="#0ECEFF" stop-opacity="0.6877" offset="79.53%"></stop>
            <stop stop-color="#13EFFF" stop-opacity="0.6" offset="100%"></stop>
        </linearGradient>
    </defs>
    <g id="Desktop" stroke="none" stroke-width="1" fill="none" fill-rule="evenodd">
        <g id="Censorship_1440" transform="translate(2.000000, -292.000000)" fill-rule="nonzero">
            <g id="Censorship" transform="translate(-2.000000, 292.000000)">
                <g id="Group" opacity="0.5" transform="translate(115.000000, 0.000000)">
                    <g transform="translate(0.000000, 65.179874)" id="Path">
                        <polygon fill="url(#linearGradient-1)" opacity="0.92" points="0.531128405 262.021622 114.36965 326.978378 114.36965 193.515315 0.531128405 127.316216"></polygon>
                        <polygon fill="url(#linearGradient-2)" opacity="0.8" points="455 0.242342342 455 127.316216 114.36965 326.978378 114.36965 193.515315"></polygon>
                    </g>
                    <polygon id="Path" fill="url(#linearGradient-3)" opacity="0.85" points="455 65.4222166 341.161479 0.110504844 0.531128405 192.49609 114.36965 258.69519"></polygon>
                </g>
                <g id="Group" opacity="0.5" transform="translate(115.000000, 0.000000)">
                    <g transform="translate(0.000000, 65.714881)" id="Path">
                        <polygon fill="url(#linearGradient-4)" opacity="0.92" points="455 260.905838 342.754864 325.910288 342.754864 192.349232 455 126.279136"></polygon>
                        <polygon fill="url(#linearGradient-5)" opacity="0.8" points="0.531128405 0.710431145 0.531128405 126.279136 342.754864 325.910288 342.754864 192.349232"></polygon>
                    </g>
                    <polygon id="Path" fill="url(#linearGradient-6)" opacity="0.85" points="0.531128405 66.425312 115.963035 0.532823359 455 191.994017 342.754864 258.064113"></polygon>
                </g>
                <g id="Group" opacity="0.75" transform="translate(0.000000, 325.000000)">
                    <polygon id="Path" fill="url(#linearGradient-7)" opacity="0.8" points="114.144961 262.755034 228.289922 195.171141 228.289922 66.2281879 114.144961 131.855705"></polygon>
                    <polygon id="Path" fill="url(#linearGradient-8)" points="114.144961 0.244966443 0.710077519 66.2281879 114.144961 131.855705 228.289922 66.2281879"></polygon>
                    <polygon id="Path" fill="url(#linearGradient-9)" opacity="0.8" points="114.144961 131.855705 0.710077519 66.2281879 0.710077519 195.171141 114.144961 262.755034"></polygon>
                </g>
                <g id="Group" opacity="0.72" transform="translate(455.000000, 327.000000)">
                    <polygon id="Path" fill="url(#linearGradient-10)" opacity="0.8" points="114.144399 259.511364 227.288402 194.472132 227.288402 65.9886364 114.144399 129.078463"></polygon>
                    <polygon id="Path" fill="url(#linearGradient-11)" points="114.144399 0.240530303 0.110898313 65.9886364 114.144399 129.078463 227.288402 65.9886364"></polygon>
                    <polygon id="Path" fill="url(#linearGradient-12)" opacity="0.8" points="114.144399 129.078463 0.110898313 65.9886364 0.110898313 194.472132 114.144399 259.511364"></polygon>
                </g>
                <g id="Group" opacity="0.78" transform="translate(229.000000, 325.000000)">
                    <g opacity="0.91" id="Path">
                        <g>
                            <polygon fill="url(#linearGradient-13)" points="114.387597 0.246230037 0.0651162791 66.296422 114.387597 130.388252 227.822481 66.296422"></polygon>
                            <polygon fill="url(#linearGradient-14)" opacity="0.8" points="114.387597 260.886341 0.0651162791 195.370247 0.0651162791 66.296422 114.387597 130.388252"></polygon>
                        </g>
                        <polygon fill="url(#linearGradient-15)" points="114.387597 260.886341 227.822481 195.370247 227.822481 66.296422 114.387597 130.388252"></polygon>
                    </g>
                    <g transform="translate(57.581395, 65.872159)" id="Path">
                        <g>
                            <polygon fill="url(#linearGradient-16)" points="56.8062016 0.424262899 0.35503876 32.8262439 56.8062016 64.5160934 113.079845 32.8262439"></polygon>
                            <polygon fill="url(#linearGradient-17)" opacity="0.8" points="56.8062016 129.498088 0.35503876 96.02791 0.35503876 32.8262439 56.8062016 64.5160934"></polygon>
                        </g>
                        <polygon fill="url(#linearGradient-18)" points="56.8062016 129.498088 113.079845 96.02791 113.079845 32.8262439 56.8062016 64.5160934"></polygon>
                    </g>
                </g>
                <path d="M569.031194,101.351011 L460,164.962379 L465.149682,168 L571.694822,105.996785 C572.937849,105.28205 573.292999,103.852581 572.760273,102.601796 L572.760273,102.601796 C572.049972,100.993643 570.27422,100.636276 569.031194,101.351011 Z" id="Path" fill="url(#linearGradient-19)" opacity="0.65"></path>
                <path d="M111.208769,135.315375 L2,198.960754 L7.14968178,202 L113.694822,139.963633 C114.937849,139.248516 115.292999,137.818283 114.760273,136.566829 L114.760273,136.566829 C114.049972,135.136596 112.451795,134.600258 111.208769,135.315375 Z" id="Path" fill="url(#linearGradient-20)" opacity="0.65"></path>
                <path d="M736.786988,363.195212 L626,301 L626,306.86412 L734.102327,367.637727 C735.355169,368.348529 736.786988,367.993128 737.502897,366.749224 L737.502897,366.749224 C738.397784,365.50532 738.039829,363.906014 736.786988,363.195212 Z" id="Path" fill="url(#linearGradient-21)" opacity="0.65"></path>
                <path d="M256.786988,617.195212 L146,555 L146,560.86412 L254.102327,621.637727 C255.355169,622.348529 256.786988,621.993128 257.502897,620.749224 L257.502897,620.749224 C258.397784,619.50532 258.039829,617.906014 256.786988,617.195212 Z" id="Path" fill="url(#linearGradient-22)" opacity="0.65"></path>
                <g id="Group" transform="translate(172.000000, 5.000000)">
                    <g id="Path">
                        <path d="M293.534658,114.579891 C293.534658,83.1549439 279.346162,63.8028576 258.067516,60.0744741 C248.669447,57.7664271 237.498158,59.0092216 225.617581,63.6253156 C225.794903,60.9621844 225.794903,58.6541374 225.794903,56.1685484 C225.617581,6.10168303 190.153171,-14.1381136 146.709268,11.0728612 C103.265366,36.2838359 67.9782778,97.1807679 68.1555998,147.247633 C68.1555998,149.733222 68.3329219,152.041269 68.5102439,154.526858 C30.0313589,183.111133 0.241254355,237.971634 0.417788922,283.599947 C0.595898457,333.666813 36.4149527,353.729067 80.2134993,328.34055 C80.3908213,328.34055 80.3908213,328.163008 80.5681434,328.163008 L211.963783,251.819916 C212.141105,251.819916 212.141105,251.642374 212.318427,251.642374 C213.737003,250.754663 215.332902,249.866953 216.9288,248.801701 C259.663415,223.0581 293.88657,163.581504 293.534658,114.579891 Z" fill="url(#linearGradient-23)" opacity="0.46"></path>
                        <path d="M326.69115,126.830295 C326.69115,95.050263 312.505386,75.3430926 290.872096,71.614709 C281.296705,69.306662 270.125416,70.5494565 258.067516,75.1655505 C258.244838,72.5024194 258.244838,70.1943724 258.244838,67.5312412 C258.067516,16.9317496 222.248462,-3.48558906 178.449915,21.9029278 C134.474047,47.2914446 99.0096366,108.898545 99.1869587,159.675579 C99.1869587,162.161168 99.3642807,164.469215 99.5416028,166.954804 C60.7080737,195.894162 30.563325,251.464832 30.7398688,297.625771 C30.9179691,348.225263 67.0916675,368.46506 111.599502,342.721459 C111.776824,342.721459 111.776824,342.543917 111.954146,342.543917 L244.768362,265.313114 C244.945684,265.313114 244.945684,265.135572 245.123006,265.135572 C246.541583,264.247861 248.314803,263.360151 249.73338,262.294898 C292.290672,236.551297 326.69115,176.364534 326.69115,126.830295 Z" fill="url(#linearGradient-24)"></path>
                        <g transform="translate(64.609159, 23.080470)">
                            <path d="M214.737003,70.9045407 C214.559681,70.9045407 214.559681,71.0820827 214.382359,71.0820827 L214.382359,71.0820827 L81.5681434,148.312886 L81.5681434,148.312886 C81.3908213,148.312886 81.3908213,148.490428 81.2134993,148.490428 C36.7056645,174.234029 0.709288203,236.018671 0.885957927,286.795705 C1.0639323,337.395196 37.2376307,357.634993 81.7454654,331.891392 C81.9227875,331.891392 81.9227875,331.71385 82.1001095,331.71385 L214.914326,254.483047 C215.091648,254.483047 215.091648,254.305505 215.26897,254.305505 C259.599482,228.739446 295.418537,167.132346 295.595859,116.532854 L295.595859,115.645144 C295.063892,65.2231942 259.067516,45.3384818 214.737003,70.9045407" fill="url(#linearGradient-25)"></path>
                            <path d="M148.595879,11.2504032 C104.62001,36.6389201 69.1555998,98.2460203 69.3322598,149.023054 C69.5102439,199.800088 105.329298,220.039884 149.127845,194.651367 C193.103713,169.262851 228.568123,107.65575 228.391463,56.8787167 C228.391463,6.27922511 192.749069,-14.1381136 148.595879,11.2504032" fill="url(#linearGradient-26)"></path>
                            <g opacity="0.41" transform="translate(0.000000, 59.364306)" fill="url(#linearGradient-27)">
                                <g>
                                    <path d="M214.737003,11.717777 C214.559681,11.717777 214.559681,11.8953191 214.382359,11.8953191 L214.382359,11.8953191 L81.5681434,89.126122 L81.5681434,89.126122 C81.3908213,89.126122 81.3908213,89.3036641 81.2134993,89.3036641 C36.7056645,115.047265 0.709288203,177.719618 0.885957927,229.384362 C108.698417,167.067093 200.019273,114.514639 295.595859,59.2990533 L295.595859,58.4113429 C295.241215,6.92414095 259.244838,-13.8482819 214.737003,11.717777"></path>
                                </g>
                            </g>
                            <path d="M217.9288,71.0820827 C174.307576,96.2930575 139.375132,157.189989 139.375132,207.256855 C139.552454,257.32372 175.016864,277.385975 218.283444,252.352542 C261.550025,227.319109 296.837113,166.244635 296.837113,116.17777 C296.837113,66.1109046 261.372703,45.871108 217.9288,71.0820827" fill="url(#linearGradient-28)"></path>
                        </g>
                    </g>
                    <g transform="translate(247.250871, 122.991935)" fill="#FFFFFF">
                        <path d="M52.487327,37.0387272 C52.1326829,36.6836431 52.1326829,35.9734748 52.1326829,35.2633065 C52.1326829,34.0205119 52.487327,32.6001753 53.3739373,31.1798387 L63.3039721,13.9582574 C64.0132603,12.7154628 65.0771926,11.4726683 66.318447,10.7625 C67.2050572,10.2298738 68.2689895,10.0523317 69.3329219,10.5849579 L73.0566849,12.5379208 C74.6525834,13.2480891 74.6525834,16.2663043 73.234007,19.1069776 L63.3039721,36.3285589 C62.5946839,37.7488955 61.5307516,38.814148 60.2894973,39.5243163 C59.7575311,39.8794004 59.0482429,40.0569425 58.5162768,40.0569425 C59.7575311,37.5713534 59.5802091,35.0857644 58.1616327,34.3755961 C57.4523444,34.0205119 56.5657342,34.0205119 55.3244798,34.5531381 C54.0832255,35.0857644 53.1966152,35.9734748 52.487327,37.0387272 M65.9638029,1.53031206 C62.949328,3.12819074 59.9348532,6.32394811 57.6296665,10.4074158 L47.6996317,27.6289972 C43.4439024,35.0857644 43.0892583,43.2526999 46.9903435,46.4484572 L44.1531906,51.4196353 L44.1531906,64.0251227 L52.487327,49.8217567 C54.4378696,50.531925 57.2750224,49.9992987 59.9348532,48.5789621 C62.949328,46.9810835 65.9638029,43.7853261 68.2689895,39.7018583 L78.1990244,22.480277 C82.6320757,14.3133415 82.6320757,5.6137798 78.0217023,3.12819074 L74.2979393,1.17522791 C72.1700747,-0.600192847 69.1555998,-0.0675666199 65.9638029,1.53031206" id="Shape"></path>
                        <path d="M16.1363066,115.157241 C15.0723743,115.689867 14.1857641,115.867409 13.1218318,115.512325 L9.39806869,113.559362 C8.68878049,113.204278 8.15681434,112.316567 8.15681434,110.896231 C8.15681434,109.653436 8.51145844,108.2331 9.39806869,106.812763 L19.3281035,89.5911816 C20.0373917,88.3483871 21.101324,87.1055926 22.3425784,86.3954243 C23.0518666,86.0403401 23.7611548,85.862798 24.6477651,85.862798 C24.1157989,87.8157609 24.470443,89.4136396 25.5343753,90.1238079 C26.2436635,90.478892 27.3075958,90.3013499 28.3715281,89.7687237 C28.7261722,89.5911816 29.2581384,89.2360975 29.6127825,88.7034712 C30.4993927,89.9462658 30.3220707,92.4318548 28.9034943,94.7399018 L18.9734594,111.961483 C18.4414933,113.559362 17.2002389,114.447072 16.1363066,115.157241 M37.4149527,62.7823282 L29.7901045,75.9204418 C27.4849179,75.2102735 25.0024092,75.7428997 22.1652563,77.1632363 C19.1507815,78.761115 16.1363066,81.9568724 13.83112,85.862798 L3.90108512,103.084379 C-0.709288203,111.073773 -0.709288203,119.773335 3.90108512,122.436466 L7.62484818,124.389428 C10.1073569,125.632223 12.9445097,125.277139 16.1363066,123.501718 C19.3281035,121.726297 22.1652563,118.708082 24.470443,114.624614 L34.4004778,97.403033 C38.6562071,89.9462658 39.0108512,81.9568724 35.2870881,78.761115 L37.2376307,75.0327314 L37.2376307,62.7823282" id="Shape"></path>
                        <path d="M20.2147138,65.6230014 C19.1507815,66.1556276 18.2641712,67.9310484 18.2641712,68.9963008 C18.2641712,70.2390954 19.1507815,70.7717216 20.2147138,70.0615533 L27.6622399,65.8005435 L27.6622399,65.8005435 C28.7261722,65.2679173 29.6127825,63.4924965 29.6127825,62.427244 C29.6127825,61.1844495 28.7261722,60.6518233 27.6622399,61.3619916 L20.2147138,65.6230014" id="Path"></path>
                        <path d="M24.6477651,48.5789621 C24.1157989,48.9340463 23.5838328,49.4666725 23.2291887,50.1768408 C22.5199004,51.4196353 22.6972225,53.017514 23.5838328,53.1950561 L30.4993927,55.8581872 C30.8540368,56.0357293 31.2086809,55.8581872 31.7406471,55.6806452 C32.2726132,55.325561 32.8045794,54.7929348 33.1592235,54.0827665 C33.8685117,52.8399719 33.6911896,51.2420933 32.8045794,51.0645512 L25.8890194,48.4014201 C25.5343753,48.223878 25.1797312,48.4014201 24.6477651,48.5789621" id="Path"></path>
                        <path d="M35.8190543,34.7306802 C35.6417322,34.7306802 35.4644102,34.9082223 35.2870881,35.0857644 C34.2231558,35.9734748 33.6911896,37.7488955 33.8685117,38.6366059 L35.6417322,45.5607468 C35.8190543,46.4484572 36.7056645,46.6259993 37.4149527,46.0933731 C37.5922748,45.915831 37.7695968,45.915831 37.9469189,45.7382889 C39.0108512,44.8505785 39.5428173,43.0751578 39.3654953,42.1874474 L37.5922748,35.2633065 C37.4149527,34.5531381 36.5283425,34.3755961 35.8190543,34.7306802" id="Path"></path>
                        <path d="M58.5162768,56.3908135 C57.6296665,56.9234397 56.9203783,57.9886921 56.7430562,59.4090288 C56.5657342,60.6518233 57.2750224,61.7170757 58.1616327,61.1844495 L65.4318367,58.6988604 C65.6091588,58.6988604 65.6091588,58.5213184 65.7864808,58.5213184 C66.6730911,57.9886921 67.3823793,56.9234397 67.5597013,55.5031031 C67.7370234,54.0827665 67.0277352,53.1950561 66.1411249,53.7276823 L58.8709209,56.2132714 C58.6935988,56.3908135 58.5162768,56.3908135 58.5162768,56.3908135" id="Path"></path>
                        <path d="M53.0192932,66.5107118 C52.6646491,66.6882539 52.1326829,67.2208801 51.7780388,67.7535063 C50.8914286,68.9963008 50.8914286,70.5941795 51.4233947,71.1268058 L57.0977003,75.7428997 C57.4523444,76.0979839 57.9843106,76.0979839 58.5162768,75.7428997 C58.8709209,75.5653576 59.402887,75.0327314 59.7575311,74.5001052 C60.6441414,73.2573107 60.6441414,71.659432 60.1121752,71.1268058 L54.4378696,66.5107118 C54.0832255,66.1556276 53.5512593,66.1556276 53.0192932,66.5107118" id="Path"></path>
                        <path d="M46.2810553,74.8551893 C46.2810553,74.8551893 46.1037332,74.8551893 46.2810553,74.8551893 C45.2171229,75.5653576 44.3305127,77.1632363 44.3305127,78.4060309 L44.6851568,86.3954243 C44.6851568,87.4606767 45.571767,87.9933029 46.6356994,87.2831346 L46.6356994,87.2831346 C47.6996317,86.5729663 48.4089199,84.9750877 48.4089199,83.7322931 L48.0542758,75.7428997 C48.2315978,74.6776473 47.3449876,74.3225631 46.2810553,74.8551893" id="Path"></path>
                    </g>
                </g>
                <g id="Group" transform="translate(573.000000, 128.000000)">
                    <path d="M46.8163934,118.420317 L46.8163934,62.1716682 C46.8163934,55.8238583 50.2114754,50.0050326 55.7508197,47.0074557 L98.8147541,22.6741845 C100.601639,21.6162162 102.388525,21.6162162 104.17541,22.1452004 C99.1721311,19.8529357 61.2901639,1.69114632 59.1459016,0.98583411 C56.8229508,0.104193849 53.2491803,-0.248462255 50.747541,1.16216216 L8.93442623,24.6137931 C3.39508197,27.787698 0,33.6065238 0,39.7780056 L0,96.0266542 C0,98.495247 1.25081967,100.434856 3.21639344,101.492824 C4.64590164,102.374464 44.6721311,121.065238 49.3180328,123.181174 C47.7098361,122.123206 46.8163934,120.359925 46.8163934,118.420317 Z" id="Path" fill="url(#linearGradient-29)"></path>
                    <path d="M98.8147541,22.4978565 L55.7508197,46.8311277 C50.2114754,50.0050326 46.8163934,55.8238583 46.8163934,61.9953402 L46.8163934,118.420317 C46.8163934,123.181174 51.9983607,126.178751 56.2868852,123.886486 L66.1147541,118.420317 L82.1967213,127.765704 L82.1967213,109.251258 L101.67377,98.3189189 C105.783607,96.0266542 108.285246,91.6184529 108.285246,87.0339236 L108.285246,28.1403541 C108.463934,23.2031687 103.103279,20.2055918 98.8147541,22.4978565 Z" id="Path" fill="url(#linearGradient-30)"></path>
                </g>
                <g id="Group" transform="translate(37.000000, 214.000000)">
                    <path d="M41.4047619,81.1935948 L41.4047619,42.6938235 C41.4047619,38.4357843 39.1142857,34.3551634 35.4142857,32.2261438 L6.51904762,15.5488235 C5.28571429,14.8391503 4.05238095,14.8391503 2.9952381,15.1939869 C6.34285714,13.5972222 31.7142857,1.17794118 33.1238095,0.645686275 C34.7095238,0.113431373 37,-0.241405229 38.7619048,0.645686275 L66.7761905,16.7907516 C70.4761905,18.9197712 72.7666667,22.8229739 72.7666667,27.2584314 L72.7666667,65.9356209 C72.7666667,67.5323856 71.8857143,68.951732 70.652381,69.6614052 C69.5952381,70.1936601 42.8142857,82.9677778 39.8190476,84.3871242 C40.8761905,83.677451 41.4047619,82.6129412 41.4047619,81.1935948 Z" id="Path" fill="url(#linearGradient-31)"></path>
                    <path d="M6.51904762,15.7262418 L35.4142857,32.4035621 C39.1142857,34.5325817 41.4047619,38.4357843 41.4047619,42.8712418 L41.4047619,81.3710131 C41.4047619,84.5645425 37.8809524,86.6935621 35.0619048,85.0967974 L28.5428571,81.3710131 L17.7952381,87.7580719 L17.7952381,74.8065359 L4.75714286,67.3549673 C1.93809524,65.7582026 0.352380952,62.7420915 0.352380952,59.5485621 L0.352380952,19.2746078 C0.176190476,16.0810784 3.7,13.9520588 6.51904762,15.7262418 Z" id="Path" fill="url(#linearGradient-32)"></path>
                </g>
            </g>
        </g>
    </g>
</svg>