<?xml version="1.0" encoding="UTF-8"?>
<svg width="152px" height="152px" viewBox="0 0 152 152" version="1.1" xmlns="http://www.w3.org/2000/svg" xmlns:xlink="http://www.w3.org/1999/xlink">
    <title>censorshipsmall</title>
    <defs>
        <polygon id="path-1" points="0.539368421 0.610113636 29.5342105 0.610113636 29.5342105 34.2146477 0.539368421 34.2146477"></polygon>
    </defs>
    <g id="Desktop" stroke="none" stroke-width="1" fill="none" fill-rule="evenodd">
        <g id="Home_1440" transform="translate(-1184.000000, -908.000000)">
            <g id="Features-1" transform="translate(0.000000, 460.000000)">
                <g id="censorshipsmall" transform="translate(1185.000000, 449.000000)">
                    <path d="M75,0 C116.421356,-7.6089797e-15 150,33.5786438 150,75 C150,116.421356 116.421356,150 75,150 C33.5786438,150 5.07265313e-15,116.421356 0,75 C-5.07265313e-15,33.5786438 33.5786438,7.6089797e-15 75,0 Z" id="BG" stroke="#D3D3D3"></path>
                    <path d="M75,109 C56.7746033,109 42,94.2253967 42,76 C42,57.7746033 56.7746033,43 75,43 C93.2253967,43 108,57.7746033 108,76 C108,94.2253967 93.2253967,109 75,109 Z" id="Path" fill="#CEE0FF" opacity="0.802234738"></path>
                    <g id="Group-14" transform="translate(43.125000, 44.000000)">
                        <g id="Group-3" transform="translate(34.000000, 0.000000)">
                            <mask id="mask-2" fill="white">
                                <use xlink:href="#path-1"></use>
                            </mask>
                            <g id="Clip-2"></g>
                            <path d="M22.6296316,14.9749886 L14.9251579,22.7394205 C13.8956842,23.7758977 12.4414737,23.9485114 11.2406842,23.3439659 C12.1833158,22.1364659 12.0972632,20.4103295 10.9864737,19.3754432 C9.87094737,18.2530568 8.15857895,18.2530568 6.95778947,19.2020341 C6.70357895,18.7701023 6.61910526,18.2530568 6.61910526,17.7368068 C6.61910526,16.8729432 6.95778947,16.0965795 7.55857895,15.4920341 L15.267,7.72760227 C15.8654211,7.12464773 16.722,6.778625 17.4917368,6.778625 C18.2638421,6.778625 19.1212105,7.12464773 19.7172632,7.72760227 L22.5451579,10.5745341 C23.8280526,11.696125 23.8280526,13.6815795 22.6296316,14.9749886 M26.8264737,6.17567045 L23.9993684,3.32635227 C20.4041053,-0.295352273 14.5817368,-0.295352273 11.0709474,3.32635227 L3.36331579,11.0915795 C0.0238421053,14.4579432 -0.232736842,19.807375 2.76252632,23.429875 L0.539368421,25.6738523 L0.539368421,34.2146477 L6.95778947,27.7452159 C8.58726316,29.0378295 10.6422632,29.7306705 12.6980526,29.7306705 C15.0104211,29.7306705 17.4048947,28.8652159 19.2056842,27.0547614 L26.9125263,19.2879432 C30.4225263,15.5795341 30.4225263,9.71146591 26.8264737,6.17567045" id="Fill-1" fill="#16161F" mask="url(#mask-2)"></path>
                        </g>
                        <path d="M22.0051599,49.3627036 L14.2837181,57.1585074 C13.0838178,58.3699635 11.0241339,58.3699635 9.82344256,57.1585074 L6.99098168,54.3003654 C6.391427,53.6926409 6.04893731,52.9132202 6.04893731,52.0467536 C6.04893731,51.1818842 6.391427,50.4016649 6.99098168,49.7963362 L14.7108415,41.9989352 C15.3127691,41.3936065 16.1709708,41.0462212 16.9429567,41.0462212 C17.5440934,41.0462212 18.14523,41.2203131 18.660151,41.5668998 C18.2306547,42.6913099 18.4877197,43.9059604 19.3467123,44.7708298 C19.945476,45.3785543 20.7190439,45.638095 21.4910299,45.638095 C21.8327286,45.638095 22.1768002,45.5502505 22.5208719,45.4640031 C23.2058512,46.6762578 23.0357928,48.2366963 22.0051599,49.3627036 L22.0051599,49.3627036 Z M28.612126,39.5744259 L28.612126,31 L22.6933032,36.9758246 C19.0872744,34.0298381 13.7695881,34.20393 10.4245792,37.5827505 L2.70155546,45.3785543 C-0.900518487,49.0145198 -0.900518487,54.9048956 2.70155546,58.4586066 L5.5348073,61.31595 C7.33426234,63.1359291 9.65101126,64 12.0547668,64 C14.4561494,64 16.7705254,63.1359291 18.5747263,61.31595 L26.2953771,53.5209448 C29.6403861,50.1421242 29.898242,44.8586743 26.9819384,41.2203131 L28.612126,39.5744259 Z" id="Fill-4" fill="#16161F"></path>
                        <polygon id="Fill-6" fill="#16161F" points="17.1934815 26 16 32 27 28.2699065"></polygon>
                        <polygon id="Fill-8" fill="#16161F" points="29 16 22 17.7613955 28.6322941 27"></polygon>
                        <polygon id="Fill-10" fill="#16161F" points="37.8190476 50 44 43.6761229 33 40"></polygon>
                        <polygon id="Fill-12" fill="#16161F" points="44.5328171 40 45 35 38 37.6856753"></polygon>
                    </g>
                </g>
            </g>
        </g>
    </g>
</svg>