<?xml version="1.0" encoding="UTF-8"?>
<svg width="259px" height="264px" viewBox="0 0 259 264" version="1.1" xmlns="http://www.w3.org/2000/svg" xmlns:xlink="http://www.w3.org/1999/xlink">
    <title>Cloud_Shield</title>
    <defs>
        <linearGradient x1="36.4798925%" y1="105.102039%" x2="92.2856167%" y2="-86.4421187%" id="linearGradient-1">
            <stop stop-color="#007BFF" offset="0%"></stop>
            <stop stop-color="#00F1FF" stop-opacity="0.8" offset="99.11%"></stop>
        </linearGradient>
        <linearGradient x1="36.4656726%" y1="105.122646%" x2="92.2886925%" y2="-86.451731%" id="linearGradient-2">
            <stop stop-color="#007BFF" offset="0%"></stop>
            <stop stop-color="#00F1FF" stop-opacity="0.8" offset="99.11%"></stop>
        </linearGradient>
        <linearGradient x1="65.3149018%" y1="76.245259%" x2="35.8126163%" y2="25.707816%" id="linearGradient-3">
            <stop stop-color="#33AEFF" offset="0%"></stop>
            <stop stop-color="#BDE1FF" offset="53.45%"></stop>
            <stop stop-color="#FFFFFF" stop-opacity="0.3" offset="99.43%"></stop>
        </linearGradient>
        <linearGradient x1="20.5973852%" y1="87.9028935%" x2="79.4128282%" y2="12.1041972%" id="linearGradient-4">
            <stop stop-color="#007BFF" offset="0%"></stop>
            <stop stop-color="#00F1FF" stop-opacity="0.8" offset="99.11%"></stop>
        </linearGradient>
        <linearGradient x1="28.5570049%" y1="39.1443617%" x2="71.1903221%" y2="67.2354164%" id="linearGradient-5">
            <stop stop-color="#BEF1FF" stop-opacity="0.2" offset="0%"></stop>
            <stop stop-color="#92F1FF" offset="70.69%"></stop>
        </linearGradient>
        <linearGradient x1="67.5419975%" y1="76.9349602%" x2="32.4611811%" y2="23.0571198%" id="linearGradient-6">
            <stop stop-color="#4743EF" offset="7.764582%"></stop>
            <stop stop-color="#77E9FF" stop-opacity="0.5" offset="99.26%"></stop>
        </linearGradient>
    </defs>
    <g id="Desktop" stroke="none" stroke-width="1" fill="none" fill-rule="evenodd">
        <g id="Home_1440" transform="translate(-526.000000, -594.000000)" fill-rule="nonzero">
            <g id="Cloud_Shield" transform="translate(526.000000, 594.000000)">
                <g id="Group">
                    <path d="M210.064976,82.7876923 C209.996785,60.3138462 199.919645,46.3015385 184.634854,43.6615385 C177.804041,42.1046154 169.891119,42.8492308 161.36951,46.1661538 C161.504774,44.3384615 161.572406,42.5784615 161.572406,40.7507692 C161.437142,4.87384615 136.075211,-9.61230769 104.896945,8.39384615 C73.7186781,26.4 48.4920112,70.1292308 48.559643,106.073846 C48.559643,107.833846 48.6272749,109.526154 48.7625385,111.218462 C21.1011262,131.729231 -0.0676318148,171.058462 -0.000161600537,203.821538 C0.0676318148,239.698462 25.7677214,254.049231 57.2841471,235.84 C57.351779,235.772308 57.4870426,235.704615 57.5546744,235.704615 L151.833424,180.941538 C151.901056,180.873846 152.03632,180.806154 152.103952,180.806154 C153.186061,180.196923 154.26817,179.52 155.350279,178.775385 C185.784595,160.566154 210.19968,117.92 210.064976,82.7876923 Z" id="Path" fill="url(#linearGradient-1)" opacity="0.15"></path>
                    <path d="M233.668059,91.5876923 C233.600288,68.8430769 223.387884,54.6953846 207.967831,51.9876923 C201.069385,50.4307692 193.088831,51.1753846 184.431959,54.4923077 C184.567223,52.6646154 184.634854,50.8369231 184.634854,49.0769231 C184.499591,12.7938462 158.867133,-1.82769231 127.350707,16.3815385 C95.7666498,34.5907692 70.3370874,78.7938462 70.4047192,115.076923 C70.4047192,116.836923 70.472351,118.596923 70.6076147,120.289231 C42.6080433,141.003077 21.2363899,180.806154 21.3038616,213.907692 C21.4392853,250.190769 47.3422704,264.676923 79.1968551,246.264615 C79.264487,246.196923 79.3997506,246.129231 79.4673824,246.129231 L174.760609,190.824615 C174.828241,190.756923 174.963505,190.689231 175.031137,190.689231 C176.113246,190.08 177.262987,189.403077 178.345096,188.658462 C209.04994,170.246154 233.735552,127.126154 233.668059,91.5876923 Z" id="Path" fill="url(#linearGradient-2)" opacity="0.2"></path>
                    <g transform="translate(45.989634, 16.923077)" id="Path">
                        <path d="M153.794747,51.1753846 C153.727115,51.2430769 153.591851,51.3107692 153.52422,51.3784615 L153.52422,51.3784615 L58.1633607,106.683077 L58.1633607,106.683077 C58.0957289,106.750769 57.9604653,106.750769 57.8928335,106.818462 C26.0382487,125.230769 0.270527259,169.569231 0.338026245,205.852308 C0.405790889,242.135385 26.3764078,256.621538 58.2309926,238.209231 C58.2986244,238.141538 58.433888,238.073846 58.5015198,238.073846 L153.862379,182.769231 C153.930011,182.701538 154.065274,182.633846 154.132906,182.633846 C185.919859,164.289231 211.619949,120.153846 211.68758,83.9384615 L211.68758,83.2615385 C211.417053,47.1815385 185.5817,32.8307692 153.794747,51.1753846" fill="url(#linearGradient-3)"></path>
                        <path d="M106.384845,8.39384615 C74.8007872,26.6030769 49.3712248,70.8061538 49.438722,107.089231 C49.5064884,143.372308 75.2065781,157.993846 106.723004,139.784615 C138.307061,121.575385 163.736624,77.3723077 163.669126,41.0892308 C163.60136,4.80615385 137.968902,-9.88307692 106.384845,8.39384615" fill="url(#linearGradient-4)"></path>
                        <g opacity="0.41" transform="translate(0.000000, 43.323077)" fill="url(#linearGradient-5)">
                            <g>
                                <path d="M153.862379,7.92 C153.794747,7.98769231 153.659483,8.05538462 153.591851,8.12307692 L153.591851,8.12307692 L58.2986244,63.4276923 L58.2986244,63.4276923 C58.2309926,63.4953846 58.0957289,63.4953846 58.0280971,63.5630769 C26.1735123,81.9753846 0.405790889,126.923077 0.473289874,163.950769 C77.8442189,119.273846 143.176552,81.6369231 211.822844,41.9692308 L211.822844,41.2923077 C211.552317,4.53538462 185.649332,-10.4246154 153.862379,7.92"></path>
                            </g>
                        </g>
                        <path d="M156.094229,51.2430769 C124.915962,69.2492308 99.689295,112.978462 99.7567912,148.855385 C99.8245587,184.732308 125.254121,199.218462 156.432388,181.144615 C187.610654,163.070769 212.837321,119.409231 212.702599,83.5323077 C212.634426,47.7230769 187.272495,33.2369231 156.094229,51.2430769" fill="url(#linearGradient-6)"></path>
                    </g>
                </g>
                <g id="Group" opacity="0.872398801" transform="translate(187.000000, 98.000000)">
                    <g>
                        <path d="M23,1.90515464 L0.411940299,26.4 L0.480597015,43.5463918 C0.480597015,51.5072165 2.67761194,57.5628866 7.00298507,61.6453608 C11.3283582,65.7278351 16.7522388,66.8164948 23.2059701,64.9113402 C29.6597015,59.4680412 35.0149254,52.1876289 39.3402985,43.1381443 C43.6656716,34.0886598 45.7940299,25.5835052 45.7940299,17.6226804 L45.7253731,0.47628866 L23,1.90515464" id="Path" fill="#F4FBFF" opacity="0.50059048"></path>
                        <path d="M24.0439836,13.0231223 L11.1029851,28.0174426 L11.1423194,38.5134669 C11.1423194,43.386621 12.4010184,47.0935502 14.8790819,49.5926036 C17.3571454,52.0916569 20.4645584,52.7580712 24.1619866,51.5918463 C27.8594147,48.2597751 30.9274934,43.8031299 33.4055569,38.2635615 C35.8836205,32.7239932 37.1029851,27.5176319 37.1029851,22.6444778 L37.0636507,12.1484536 L24.0439836,13.0231223" id="Path-Copy" fill="#FFFFFF"></path>
                    </g>
                </g>
            </g>
        </g>
    </g>
</svg>