<?xml version="1.0" encoding="UTF-8"?>
<svg width="209px" height="27px" viewBox="0 0 209 27" version="1.1" xmlns="http://www.w3.org/2000/svg" xmlns:xlink="http://www.w3.org/1999/xlink">
    <title>Group 3</title>
    <g id="Desktop" stroke="none" stroke-width="1" fill="none" fill-rule="evenodd">
        <g id="Credit-card-fraud_1440" transform="translate(-839.000000, -1498.000000)" fill="#000000" fill-rule="nonzero">
            <g id="Apollo_Stratus_Socnet" transform="translate(189.000000, 1246.000000)">
                <g id="Group-3" transform="translate(650.000000, 252.000000)">
                    <g id="Group" transform="translate(86.021519, 4.074780)">
                        <path d="M18.8607192,13.6922479 C18.1956057,16.8191973 15.2501029,20.798951 9.88168662,20.798951 C4.65579466,20.798951 0.332556761,16.6770632 0.332556761,10.5652986 C0.332556761,4.45353393 4.65579466,0.331646144 9.88168662,0.331646144 C14.870038,0.331646144 18.0530813,3.74286362 18.8607192,7.29621517 L15.725184,7.29621517 C14.7275137,4.59566799 12.3996164,3.17432738 9.88168662,3.17432738 C6.12854603,3.17432738 3.32556761,6.01700861 3.32556761,10.5652986 C3.32556761,15.1135886 6.12854603,17.9562698 9.88168662,17.9562698 C13.1597461,17.9562698 15.0600705,15.8242589 15.725184,13.6922479 L18.8607192,13.6922479 Z" id="Path"></path>
                        <path d="M21.2836327,13.4079798 C21.2836327,9.00182391 24.2766436,6.01700861 28.409849,6.01700861 C32.5430545,6.01700861 35.5360654,9.00182391 35.5360654,13.4079798 C35.5360654,17.8141357 32.5430545,20.798951 28.409849,20.798951 C24.2766436,20.798951 21.2836327,17.8141357 21.2836327,13.4079798 Z M32.6855788,13.4079798 C32.6855788,10.4705425 30.8327626,8.57542172 28.409849,8.57542172 C25.9869355,8.57542172 24.1341193,10.4705425 24.1341193,13.4079798 C24.1341193,16.3454171 25.9869355,18.2405379 28.409849,18.2405379 C30.8327626,18.2405379 32.6855788,16.3927951 32.6855788,13.4079798 Z" id="Shape"></path>
                        <path d="M38.6716005,0.615914267 L41.8071357,0.615914267 L41.8071357,3.60072956 L38.6716005,3.60072956 L38.6716005,0.615914267 Z M38.8141249,6.30127673 L41.6646114,6.30127673 L41.6646114,20.5146829 L38.8141249,20.5146829 L38.8141249,6.30127673 Z" id="Shape"></path>
                        <path d="M45.6077844,6.30127673 L48.1732223,6.30127673 L48.4582709,7.72261735 L48.6007953,7.72261735 C48.933352,7.39097121 49.2659088,7.10670308 49.6459737,6.86981298 C50.3110872,6.4434108 51.3562656,6.01700861 52.7340007,6.01700861 C56.1545846,6.01700861 58.4349738,8.24377558 58.4349738,11.9866392 L58.4349738,20.5146829 L55.5844873,20.5146829 L55.5844873,11.9866392 C55.5844873,10.1388964 54.1117359,8.57542172 52.1639034,8.57542172 C50.0260385,8.57542172 48.4582709,10.1388964 48.4582709,11.9866392 L48.4582709,20.5146829 L45.6077844,20.5146829 L45.6077844,6.30127673 Z" id="Path"></path>
                        <path d="M62.3781468,0.615914267 L65.2286333,0.615914267 L65.2286333,8.00688547 L65.3711577,8.00688547 C65.8462388,7.48572725 67.0339415,6.01700861 69.7894118,6.01700861 C73.5425524,6.01700861 76.3455308,8.85968985 76.3455308,13.4079798 C76.3455308,17.9562698 73.5425524,20.798951 69.7894118,20.798951 C67.0339415,20.798951 65.7987306,19.3776104 65.3711577,18.8090742 L65.2286333,18.8090742 L64.9435847,20.5146829 L62.3781468,20.5146829 L62.3781468,0.615914267 Z M73.4950443,13.4079798 C73.4950443,10.4705425 71.642228,8.57542172 69.3618388,8.57542172 C67.0814496,8.57542172 65.2286333,10.4705425 65.2286333,13.4079798 C65.2286333,16.3454171 67.0814496,18.2405379 69.3618388,18.2405379 C71.642228,18.2405379 73.4950443,16.3927951 73.4950443,13.4079798 Z" id="Shape"></path>
                        <path d="M88.6026229,18.9512082 L88.4600985,18.9512082 C88.1750499,19.3302324 87.8424931,19.6145005 87.4149201,19.8987686 C86.7498066,20.3725488 85.6571201,20.798951 84.1843687,20.798951 C81.0488336,20.798951 79.053493,18.9985862 79.053493,16.3927951 C79.053493,13.5501139 80.9063092,11.7023711 84.8969904,11.7023711 L88.4600985,11.7023711 L88.4600985,11.418103 C88.4600985,9.57036015 87.3199039,8.43328766 85.4670877,8.43328766 C83.4717471,8.43328766 82.6166011,9.57036015 82.4740768,10.4231645 L79.6235903,10.4231645 C79.7661146,8.0542635 81.9039795,6.01700861 85.4670877,6.01700861 C89.2202283,6.01700861 91.3105851,8.10164152 91.3105851,11.418103 L91.3105851,20.5146829 L88.8876715,20.5146829 L88.6026229,18.9512082 Z M88.4600985,13.9765161 L85.0395147,13.9765161 C82.8541417,13.9765161 81.9039795,14.9714545 81.9039795,16.2506611 C81.9039795,17.5298676 82.7591255,18.382672 84.4694174,18.382672 C87.0823634,18.382672 88.4600985,16.9613314 88.4600985,14.5450523 L88.4600985,13.9765161 L88.4600985,13.9765161 Z" id="Shape"></path>
                        <path d="M97.0115581,16.2506611 C97.0115581,17.1034654 98.0092284,18.382672 100.289618,18.382672 C102.427483,18.382672 103.282628,17.4351116 103.282628,16.5349292 C103.282628,15.5399907 102.760039,14.9240765 101.144764,14.6871864 L98.5793257,14.2607842 C95.8238554,13.787004 94.4461202,12.5551754 94.4461202,10.1388964 C94.4461202,7.86475141 96.2989365,6.01700861 100.147093,6.01700861 C104.280299,6.01700861 105.990591,8.85968985 105.990591,10.4231645 L103.140104,10.4231645 C103.140104,9.57036015 102.284958,8.43328766 100.147093,8.43328766 C98.1042446,8.43328766 97.2966068,9.23871401 97.2966068,10.1388964 C97.2966068,11.0390788 98.1517527,11.607615 99.4344717,11.8445051 L101.99991,12.2709073 C104.75538,12.7446875 106.133115,14.1660281 106.133115,16.5349292 C106.133115,18.8090742 104.280299,20.798951 100.289618,20.798951 C95.7288392,20.798951 94.1610716,17.8141357 94.1610716,16.2506611 L97.0115581,16.2506611 L97.0115581,16.2506611 Z" id="Path"></path>
                        <path d="M122.09584,16.3927951 C121.430726,18.2405379 119.387877,20.798951 115.682245,20.798951 C111.549039,20.798951 108.556029,17.8141357 108.556029,13.4079798 C108.556029,9.00182391 111.549039,6.01700861 115.682245,6.01700861 C119.530402,6.01700861 122.523413,9.00182391 122.523413,12.9815776 C122.523413,13.4079798 122.475904,13.739626 122.428396,14.0238941 L122.380888,14.4029183 L111.406515,14.4029183 C111.739072,16.8191973 113.401856,18.382672 115.682245,18.382672 C117.392537,18.382672 118.627748,17.3877335 119.102829,16.3927951 L122.09584,16.3927951 L122.09584,16.3927951 Z M119.81545,12.2709073 C119.482894,9.99676234 117.962634,8.43328766 115.682245,8.43328766 C113.259331,8.43328766 111.834088,9.99676234 111.406515,12.2709073 L119.81545,12.2709073 Z" id="Shape"></path>
                    </g>
                    <path d="M13.4765217,0 C6.01043478,0 0,6.0573913 0,13.4765217 C0,20.9426087 6.0573913,27 13.4765217,27 C20.9426087,27 27,20.9426087 27,13.4765217 C26.9530435,6.0573913 20.8956522,0 13.4765217,0 M14.04,20.3791304 C9.86086957,20.3791304 6.85565217,17.6556522 6.85565217,13.2417391 C6.85565217,8.82782609 10.0017391,6.10434783 14.04,6.10434783 C15.4486957,6.10434783 16.5756522,6.38608696 17.7026087,6.99652174 L16.3878261,9.20347826 C15.7304348,8.92173913 15.026087,8.82782609 14.2747826,8.82782609 C11.8330435,8.82782609 9.90782609,10.3773913 9.90782609,13.2417391 C9.90782609,15.9652174 11.7391304,17.6556522 14.4156522,17.6556522 C15.1669565,17.6556522 15.8713043,17.5147826 16.5286957,17.2330435 C16.5286957,17.28 17.8904348,19.346087 17.8904348,19.346087 C16.7634783,20.0973913 15.4017391,20.426087 14.04,20.3791304" id="Shape"></path>
                </g>
            </g>
        </g>
    </g>
</svg>