<?xml version="1.0" encoding="UTF-8"?>
<svg width="17px" height="18px" viewBox="0 0 17 18" version="1.1" xmlns="http://www.w3.org/2000/svg" xmlns:xlink="http://www.w3.org/1999/xlink">
    <title>Fill 34</title>
    <g id="Desktop" stroke="none" stroke-width="1" fill="none" fill-rule="evenodd">
        <g id="Home_1440" transform="translate(-729.000000, -11570.000000)" fill="#000000">
            <g id="Roadmap" transform="translate(-25.000000, 10810.000000)">
                <g transform="translate(0.000000, 248.000000)" id="Group-36">
                    <g transform="translate(744.000000, 289.853000)">
                        <path d="M19.1048,235.4994 C16.5648,235.5054 14.7308,233.8304 14.7308,231.1604 C14.7308,228.4764 16.6548,226.8114 19.1048,226.8114 C19.9688,226.8114 20.6598,226.9964 21.3438,227.3664 L20.5538,228.7004 C20.1388,228.5364 19.7138,228.4614 19.2698,228.4614 C17.7698,228.4614 16.6048,229.4164 16.6048,231.1604 C16.6048,232.8104 17.7298,233.8654 19.3438,233.8654 C19.8038,233.8654 20.2398,233.7794 20.6438,233.6204 C20.6438,233.6354 21.4688,234.9144 21.4838,234.9204 C20.7538,235.3104 19.9338,235.5104 19.1048,235.4994 M18.7398,223.0664 C14.1908,223.0664 10.5058,226.7514 10.5058,231.3004 C10.5058,235.8504 14.1908,239.5344 18.7398,239.5344 C23.2838,239.5344 26.9728,235.8504 26.9728,231.3004 C26.9728,226.7514 23.2838,223.0664 18.7398,223.0664" id="Fill-34"></path>
                    </g>
                </g>
            </g>
        </g>
    </g>
</svg>