<?xml version="1.0" encoding="UTF-8"?>
<svg width="54px" height="54px" viewBox="0 0 54 54" version="1.1" xmlns="http://www.w3.org/2000/svg" xmlns:xlink="http://www.w3.org/1999/xlink">
    <title>Group 16</title>
    <g id="Desktop" stroke="none" stroke-width="1" fill="none" fill-rule="evenodd">
        <g id="Home_1440" transform="translate(-186.000000, -7399.000000)">
            <g id="Monetization" transform="translate(0.000000, 6641.000000)">
                <g id="Commerce/Piggy" transform="translate(168.000000, 741.000000)">
                    <g id="Group-16" transform="translate(18.000000, 17.000000)">
                        <path d="M46.4921577,18.8557377 C44.0450298,23.9825168 38.6076375,26.9846963 32.9652681,26.3244191 C27.3228986,25.6641418 22.7255595,21.4876852 21.5282233,15.9344262 L21.2626495,15.9344262 L13.2954364,9.56065574 C12.4523612,8.91933304 11.3087994,8.84034715 10.3855583,9.35967025 C9.46231722,9.87899336 8.93598077,10.897297 9.04625607,11.9508197 L10.1085512,20.4491803 C7.69988385,22.8086389 6.11656823,25.8821339 5.59379706,29.2131148 L2.67248558,29.2131148 C1.94503934,29.12659 1.21808859,29.3784395 0.700080583,29.8964475 C0.18207258,30.4144555 -0.0697769256,31.1414062 0.0167478763,31.8688525 L0.0167478763,39.8360656 C-0.0697769256,40.5635118 0.18207258,41.2904626 0.700080583,41.8084706 C1.21808859,42.3264786 1.94503934,42.5783281 2.67248558,42.4918033 L9.31182984,42.4918033 C10.5051223,43.7121846 11.8428782,44.7823893 13.2954364,45.6786885 C15.723472,47.0622152 18.4681157,47.7941202 21.2626495,47.8032787 L37.1970757,47.8032787 C39.9916096,47.7941202 42.7362533,47.0622152 45.1642889,45.6786885 C50.0975804,42.8304529 53.1351542,37.5653249 53.1315053,31.8688525 C53.1108631,26.7228352 50.6465158,21.8927145 46.4921577,18.8557377 L46.4921577,18.8557377 Z M10.6396987,26.557377 C10.6396987,25.0906536 11.828713,23.9016393 13.2954364,23.9016393 C14.7621598,23.9016393 15.9511741,25.0906536 15.9511741,26.557377 C15.9511741,28.0241005 14.7621598,29.2131148 13.2954364,29.2131148 C12.5679902,29.2996396 11.8410394,29.0477901 11.3230314,28.529782 C10.8050234,28.011774 10.5531739,27.2848233 10.6396987,26.557377 L10.6396987,26.557377 Z" id="Shape" fill="#A7B4CB" opacity="0.6"></path>
                        <path d="M13.2954364,45.6813443 L14.0330786,46.0741268 C16.0240306,47.0761197 18.2005419,47.6565227 20.4260528,47.7789199 L21.2626495,47.8032787 L23.9183872,47.8032787 L23.9183872,50.4590164 C24.004912,51.1864626 23.7530625,51.9134134 23.2350545,52.4314214 C22.7910477,52.8754283 22.1935318,53.1238901 21.5737741,53.1313299 L21.2626495,53.1147541 L15.9511741,53.1147541 C15.2237279,53.2012789 14.4967771,52.9494294 13.9787691,52.4314214 C13.5347622,51.9874145 13.2863004,51.3898987 13.2788606,50.770141 L13.2954364,50.4590164 L13.2954364,45.6813443 Z M45.1642889,45.6786885 L45.1642889,50.4590164 C45.2508137,51.1864626 44.9989642,51.9134134 44.4809562,52.4314214 C44.0369493,52.8754283 43.4394335,53.1238901 42.8196758,53.1313299 L42.5085512,53.1147541 L37.1970757,53.1147541 C36.4696295,53.2012789 35.7426787,52.9494294 35.2246707,52.4314214 C34.7806639,51.9874145 34.532202,51.3898987 34.5247622,50.770141 L34.541338,50.4590164 L34.541338,47.8032787 L37.1970757,47.8032787 C39.7121562,47.7950361 42.1868256,47.2013688 44.4266467,46.0741268 L45.1642889,45.6786885 Z M13.2954364,23.9016393 C14.7621598,23.9016393 15.9511741,25.0906536 15.9511741,26.557377 C15.9511741,28.0241005 14.7621598,29.2131148 13.2954364,29.2131148 C11.828713,29.2131148 10.6396987,28.0241005 10.6396987,26.557377 C10.6396987,25.0906536 11.828713,23.9016393 13.2954364,23.9016393 Z M34.541338,2.48456993e-13 C38.0630652,2.48456993e-13 41.4405516,1.39900067 43.9307887,3.88923782 C46.4210259,6.37947498 47.8201434,9.75696136 47.8201434,13.2786885 C47.8260475,15.2167155 47.3708925,17.1283668 46.4921577,18.8557377 C44.0450298,23.9825168 38.6076375,26.9846963 32.9652681,26.3244191 C27.3228986,25.6641418 22.7255595,21.4876852 21.5282233,15.9344262 C21.3635303,15.2840241 21.2720121,14.6179742 21.2549059,13.9486483 L21.2626495,13.2786885 C21.2626495,5.94507135 27.2077209,2.48456993e-13 34.541338,2.48456993e-13 Z" id="Shape" fill="#16161F"></path>
                    </g>
                </g>
            </g>
        </g>
    </g>
</svg>