<?xml version="1.0" encoding="UTF-8"?>
<svg width="766px" height="744px" viewBox="0 0 766 744" version="1.1" xmlns="http://www.w3.org/2000/svg" xmlns:xlink="http://www.w3.org/1999/xlink">
    <title>Convenience</title>
    <defs>
        <linearGradient x1="-25.8231488%" y1="67.5523249%" x2="101.302602%" y2="37.9918354%" id="linearGradient-1">
            <stop stop-color="#6CD5FF" offset="0%"></stop>
            <stop stop-color="#95E1FF" stop-opacity="0.7464" offset="39.01%"></stop>
            <stop stop-color="#B9ECFF" stop-opacity="0.488" offset="78.77%"></stop>
            <stop stop-color="#C7F0FF" stop-opacity="0.35" offset="100%"></stop>
        </linearGradient>
        <linearGradient x1="27.0948073%" y1="64.8263994%" x2="69.6814539%" y2="37.2245083%" id="linearGradient-2">
            <stop stop-color="#00A0FF" stop-opacity="0.8" offset="0%"></stop>
            <stop stop-color="#0CA6FF" stop-opacity="0.6611" offset="17.68%"></stop>
            <stop stop-color="#26B3FF" stop-opacity="0.3108" offset="62.3%"></stop>
            <stop stop-color="#2FB8FF" stop-opacity="0.1" offset="89.14%"></stop>
        </linearGradient>
        <linearGradient x1="-9.1498168%" y1="109.9%" x2="65.4944452%" y2="34.2757943%" id="linearGradient-3">
            <stop stop-color="#008FFF" offset="0%"></stop>
            <stop stop-color="#39C5FF" stop-opacity="0.25" offset="100%"></stop>
        </linearGradient>
        <linearGradient x1="-25.8226151%" y1="67.5523249%" x2="101.303135%" y2="37.9918354%" id="linearGradient-4">
            <stop stop-color="#6CD5FF" offset="0%"></stop>
            <stop stop-color="#95E1FF" stop-opacity="0.7464" offset="39.01%"></stop>
            <stop stop-color="#B9ECFF" stop-opacity="0.488" offset="78.77%"></stop>
            <stop stop-color="#C7F0FF" stop-opacity="0.35" offset="100%"></stop>
        </linearGradient>
        <linearGradient x1="27.0951046%" y1="64.8263994%" x2="69.6817513%" y2="37.2245083%" id="linearGradient-5">
            <stop stop-color="#00A0FF" stop-opacity="0.8" offset="0%"></stop>
            <stop stop-color="#0CA6FF" stop-opacity="0.6611" offset="17.68%"></stop>
            <stop stop-color="#26B3FF" stop-opacity="0.3108" offset="62.3%"></stop>
            <stop stop-color="#2FB8FF" stop-opacity="0.1" offset="89.14%"></stop>
        </linearGradient>
        <linearGradient x1="-9.14951505%" y1="109.9%" x2="65.4947901%" y2="34.2757943%" id="linearGradient-6">
            <stop stop-color="#008FFF" offset="0%"></stop>
            <stop stop-color="#39C5FF" stop-opacity="0.25" offset="100%"></stop>
        </linearGradient>
        <linearGradient x1="85.1599587%" y1="28.068881%" x2="-179.993111%" y2="192.766619%" id="linearGradient-7">
            <stop stop-color="#DBF1FF" offset="11.48%"></stop>
            <stop stop-color="#0092FF" offset="95.46%"></stop>
        </linearGradient>
        <linearGradient x1="68.6614311%" y1="-13.1039198%" x2="-21.2462355%" y2="231.550575%" id="linearGradient-8">
            <stop stop-color="#30DCFF" stop-opacity="0.7" offset="0%"></stop>
            <stop stop-color="#005BFF" offset="52.17%"></stop>
        </linearGradient>
        <linearGradient x1="22.4448144%" y1="-3.27309166%" x2="70.7649129%" y2="90.2826997%" id="linearGradient-9">
            <stop stop-color="#00DCFF" stop-opacity="0.2" offset="0%"></stop>
            <stop stop-color="#00CFFF" stop-opacity="0.4141" offset="26.77%"></stop>
            <stop stop-color="#00ACFF" stop-opacity="0.8117" offset="76.46%"></stop>
            <stop stop-color="#0099FF" offset="100%"></stop>
        </linearGradient>
        <linearGradient x1="14.8311404%" y1="28.068881%" x2="279.984236%" y2="192.766619%" id="linearGradient-10">
            <stop stop-color="#DBF1FF" offset="0%"></stop>
            <stop stop-color="#0092FF" offset="95.46%"></stop>
        </linearGradient>
        <linearGradient x1="31.2618263%" y1="-13.1597996%" x2="121.523604%" y2="231.698998%" id="linearGradient-11">
            <stop stop-color="#30DCFF" stop-opacity="0.7" offset="0%"></stop>
            <stop stop-color="#005BFF" offset="52.17%"></stop>
        </linearGradient>
        <linearGradient x1="77.4350998%" y1="-3.21688771%" x2="29.315147%" y2="90.2402888%" id="linearGradient-12">
            <stop stop-color="#00DCFF" stop-opacity="0.2" offset="0%"></stop>
            <stop stop-color="#00CFFF" stop-opacity="0.4141" offset="26.77%"></stop>
            <stop stop-color="#00ACFF" stop-opacity="0.8117" offset="76.46%"></stop>
            <stop stop-color="#0099FF" offset="100%"></stop>
        </linearGradient>
        <linearGradient x1="85.1654921%" y1="28.349256%" x2="-179.985867%" y2="190.956367%" id="linearGradient-13">
            <stop stop-color="#DBF1FF" offset="11.48%"></stop>
            <stop stop-color="#0092FF" offset="95.46%"></stop>
        </linearGradient>
        <linearGradient x1="69.08744%" y1="-13.2723972%" x2="-22.9085706%" y2="231.85385%" id="linearGradient-14">
            <stop stop-color="#30DCFF" stop-opacity="0.7" offset="0%"></stop>
            <stop stop-color="#005BFF" offset="52.17%"></stop>
        </linearGradient>
        <linearGradient x1="22.395939%" y1="-3.15135608%" x2="70.8177503%" y2="90.1415136%" id="linearGradient-15">
            <stop stop-color="#00DCFF" stop-opacity="0.2" offset="0%"></stop>
            <stop stop-color="#00CFFF" stop-opacity="0.4141" offset="26.77%"></stop>
            <stop stop-color="#00ACFF" stop-opacity="0.8117" offset="76.46%"></stop>
            <stop stop-color="#0099FF" offset="100%"></stop>
        </linearGradient>
        <linearGradient x1="14.8225584%" y1="28.3041341%" x2="279.973841%" y2="191.214825%" id="linearGradient-16">
            <stop stop-color="#DBF1FF" offset="11.48%"></stop>
            <stop stop-color="#0092FF" offset="95.46%"></stop>
        </linearGradient>
        <linearGradient x1="30.9798559%" y1="-13.2597113%" x2="122.674319%" y2="231.866492%" id="linearGradient-17">
            <stop stop-color="#30DCFF" stop-opacity="0.7" offset="0%"></stop>
            <stop stop-color="#005BFF" offset="52.17%"></stop>
        </linearGradient>
        <linearGradient x1="77.56044%" y1="-3.13871391%" x2="29.223325%" y2="90.1541557%" id="linearGradient-18">
            <stop stop-color="#00DCFF" stop-opacity="0.2" offset="0%"></stop>
            <stop stop-color="#00CFFF" stop-opacity="0.4141" offset="26.77%"></stop>
            <stop stop-color="#00ACFF" stop-opacity="0.8117" offset="76.46%"></stop>
            <stop stop-color="#0099FF" offset="100%"></stop>
        </linearGradient>
        <linearGradient x1="-25.6901486%" y1="67.4115812%" x2="101.226327%" y2="38.1103114%" id="linearGradient-19">
            <stop stop-color="#53CFFF" offset="5.93998%"></stop>
            <stop stop-color="#89DEFF" stop-opacity="0.6838" offset="51.7%"></stop>
            <stop stop-color="#C7F0FF" stop-opacity="0.35" offset="100%"></stop>
        </linearGradient>
        <linearGradient x1="26.2074338%" y1="59.1098289%" x2="70.4387333%" y2="42.2032274%" id="linearGradient-20">
            <stop stop-color="#00B8FF" offset="0%"></stop>
            <stop stop-color="#B4E7FF" stop-opacity="0.9" offset="100%"></stop>
        </linearGradient>
        <linearGradient x1="3.69041371%" y1="56.6914538%" x2="62.1272435%" y2="48.24278%" id="linearGradient-21">
            <stop stop-color="#008FFF" offset="0%"></stop>
            <stop stop-color="#39C5FF" stop-opacity="0.25" offset="100%"></stop>
        </linearGradient>
        <linearGradient x1="-25.9382779%" y1="67.3402032%" x2="101.23572%" y2="37.9970959%" id="linearGradient-22">
            <stop stop-color="#1894FF" offset="5.93998%"></stop>
            <stop stop-color="#C7F0FF" stop-opacity="0.35" offset="100%"></stop>
        </linearGradient>
        <linearGradient x1="26.2889141%" y1="59.0327056%" x2="70.3983739%" y2="42.1650149%" id="linearGradient-23">
            <stop stop-color="#0077FF" offset="0%"></stop>
            <stop stop-color="#18D4FF" stop-opacity="0.3229" offset="100%"></stop>
        </linearGradient>
        <linearGradient x1="2.26207291%" y1="56.7713578%" x2="79.6267523%" y2="45.750446%" id="linearGradient-24">
            <stop stop-color="#0044FF" offset="0%"></stop>
            <stop stop-color="#0A5BFF" stop-opacity="0.9139" offset="21.52%"></stop>
            <stop stop-color="#2495FF" stop-opacity="0.7346" offset="66.35%"></stop>
            <stop stop-color="#39C5FF" stop-opacity="0.6" offset="100%"></stop>
        </linearGradient>
    </defs>
    <g id="Desktop" stroke="none" stroke-width="1" fill="none" fill-rule="evenodd" opacity="0.700922057">
        <g id="Convenience_1440-" transform="translate(56.000000, -207.000000)" fill-rule="nonzero">
            <g id="Convenience" transform="translate(-56.000000, 207.000000)">
                <g id="Group" opacity="0.68" transform="translate(506.000000, 337.000000)">
                    <g id="Path">
                        <polygon fill="url(#linearGradient-1)" points="88.4134595 0.592431327 0.355074135 52.0154705 88.4134595 103.320023 177.773783 52.0154705"></polygon>
                        <polygon fill="url(#linearGradient-2)" opacity="0.8" points="88.4134595 208.654313 0.355074135 157.231274 0.355074135 52.0154705 88.4134595 103.320023"></polygon>
                    </g>
                    <polygon id="Path" fill="url(#linearGradient-3)" points="88.4134595 208.654313 177.773783 157.231274 177.773783 52.0154705 88.4134595 103.320023"></polygon>
                </g>
                <g id="Group" opacity="0.68" transform="translate(83.000000, 337.000000)">
                    <g id="Path">
                        <polygon fill="url(#linearGradient-4)" points="88.4134595 0.592431327 0.355074135 52.0154705 88.4134595 103.320023 177.773783 52.0154705"></polygon>
                        <polygon fill="url(#linearGradient-5)" opacity="0.8" points="88.4134595 208.654313 0.355074135 157.231274 0.355074135 52.0154705 88.4134595 103.320023"></polygon>
                    </g>
                    <polygon id="Path" fill="url(#linearGradient-6)" points="88.4134595 208.654313 177.773783 157.231274 177.773783 52.0154705 88.4134595 103.320023"></polygon>
                </g>
                <g id="Group" transform="translate(155.000000, 48.000000)">
                    <g id="Path">
                        <polygon fill="url(#linearGradient-7)" points="229.236082 0.118584071 0.118041237 133.40708 229.236082 268.118584 457.645876 133.40708"></polygon>
                        <polygon fill="url(#linearGradient-8)" opacity="0.9" points="353.179381 340.929204 457.645876 279.858407 457.645876 133.40708 229.236082 268.118584 229.236082 535.762832 353.179381 463.189381"></polygon>
                        <polygon fill="url(#linearGradient-9)" opacity="0.8" points="0.118041237 133.40708 0.118041237 401.644248 229.236082 535.762832 229.236082 268.118584"></polygon>
                    </g>
                    <g id="Path">
                        <polygon fill="url(#linearGradient-10)" points="229.236082 0.118584071 457.645876 133.40708 229.236082 268.118584 0.118041237 133.40708"></polygon>
                        <polygon fill="url(#linearGradient-11)" opacity="0.9" points="104.466495 340.929204 0.118041237 279.858407 0.118041237 133.40708 229.236082 268.118584 229.236082 535.762832 104.466495 463.070796"></polygon>
                        <polygon fill="url(#linearGradient-12)" opacity="0.8" points="457.645876 133.40708 457.645876 401.644248 229.236082 535.762832 229.236082 268.118584"></polygon>
                    </g>
                </g>
                <g id="Group">
                    <polygon id="Path" fill="url(#linearGradient-13)" points="154.88692 0.355081967 0.118596416 90.072459 153.938148 180.618361 309.773839 90.072459"></polygon>
                    <polygon id="Path" fill="url(#linearGradient-14)" opacity="0.9" points="239.090375 229.619672 309.773839 188.548525 309.773839 90.072459 153.938148 180.618361 153.938148 360.644918 239.090375 311.288525"></polygon>
                    <polygon id="Path" fill="url(#linearGradient-15)" opacity="0.8" points="0.118596416 90.072459 0.118596416 270.335738 153.938148 360.644918 153.938148 180.618361"></polygon>
                </g>
                <g id="Group" transform="translate(456.000000, 1.000000)">
                    <polygon id="Path" fill="url(#linearGradient-16)" points="154.881679 0.107850533 309.290076 89.6112852 155.709924 180.060595 0.354961832 89.6112852"></polygon>
                    <polygon id="Path" fill="url(#linearGradient-17)" opacity="0.9" points="70.7557252 229.009633 0.354961832 187.982299 0.354961832 89.6112852 155.709924 180.060595 155.709924 359.895105 70.7557252 310.591363"></polygon>
                    <polygon id="Path" fill="url(#linearGradient-18)" opacity="0.8" points="309.290076 89.6112852 309.290076 269.800498 155.709924 359.895105 155.709924 180.060595"></polygon>
                </g>
                <g id="Group" transform="translate(664.000000, 172.000000)">
                    <g opacity="0.55" transform="translate(14.884630, 0.000000)" fill="#008BFF" id="Path">
                        <g>
                            <path d="M18.4952708,2.5926015 C8.28684211,8.39728232 0,22.4943643 0,34.103726 C0,45.7130876 8.40694127,50.3331397 18.6153699,44.5284589 C28.8237986,38.723778 37.1106407,24.626696 37.1106407,13.0173344 C37.1106407,1.40797276 28.8237986,-3.21207933 18.4952708,2.5926015"></path>
                        </g>
                    </g>
                    <path d="M53.9168574,45.5946247 C52.3555683,46.4238649 50.7942792,47.8454193 49.3530892,49.5038996 C44.669222,55.1901175 39.1446606,59.9286325 33.3799008,63.2455929 C27.6151411,66.5625534 22.0905797,67.9841079 17.4067124,67.7471822 C15.9655225,67.6287193 14.4042334,68.1025708 12.8429443,68.9318109 C11.0414569,69.9979768 9.36006865,71.656457 8.15907704,73.9072516 C3.11491228,83.3842815 0.112433257,93.8090144 0.112433257,103.167581 L0.112433257,107.432245 C0.112433257,112.052297 3.47520976,113.947703 7.55858124,111.578446 L59.4414188,82.0811899 C63.5247902,79.7119324 66.8875667,74.1441774 66.7674676,69.5241253 L66.7674676,65.2594618 C66.7674676,55.7824319 63.6448894,48.9115852 58.6007246,45.2392361 C57.5198322,44.2915331 55.7183448,44.6469217 53.9168574,45.5946247" id="Path" fill="#FFFFFF"></path>
                </g>
                <g id="Group" transform="translate(244.000000, 422.000000)">
                    <g id="Path">
                        <g>
                            <polygon fill="url(#linearGradient-19)" points="138.790021 0.343555326 0.10737906 80.0188378 138.790021 160.876246 278.774291 81.0827511"></polygon>
                            <polygon fill="url(#linearGradient-20)" points="138.790021 321.763575 0.10737906 241.497229 0.10737906 80.0188378 138.790021 160.876246"></polygon>
                        </g>
                        <polygon fill="url(#linearGradient-21)" points="138.790021 321.763575 278.774291 241.497229 278.774291 81.0827511 138.790021 160.876246"></polygon>
                    </g>
                    <g transform="translate(70.277009, 80.846326)" id="Path">
                        <g>
                            <polygon fill="url(#linearGradient-22)" points="68.5130115 0.118212585 0.118329899 40.4287042 68.5130115 80.0299203 138.919301 40.4287042"></polygon>
                            <polygon fill="url(#linearGradient-23)" points="68.5130115 159.705203 0.118329899 119.631136 0.118329899 40.4287042 68.5130115 80.0299203"></polygon>
                        </g>
                        <polygon fill="url(#linearGradient-24)" points="68.5130115 159.705203 138.919301 119.631136 138.919301 40.4287042 68.5130115 80.0299203"></polygon>
                    </g>
                </g>
                <g id="Group" transform="translate(36.000000, 172.000000)">
                    <path d="M54.5271739,66.5850444 C57.2463768,68.1191831 59.5362319,67.0034459 59.5362319,64.0746355 C59.5362319,61.1458252 57.3894928,57.5196791 54.6702899,56.1250075 C51.951087,54.5908688 49.6612319,55.706606 49.6612319,58.6354164 C49.5181159,61.4247595 51.6648551,65.0509057 54.5271739,66.5850444 M68.2663043,104.520112 C74.2771739,107.867323 79,105.356914 79,98.801958 L79,85.6920451 C79,88.6208554 76.8532609,89.7365927 73.990942,88.202454 L54.240942,77.0450813 C46.0833333,72.4426651 39.5,61.7036938 39.5,52.9172629 C39.5,44.270299 46.2264493,40.9230872 54.384058,45.5255035 L74.134058,56.6828761 C76.8532609,58.2170149 79,61.843161 79,64.7719713 L79,51.6620584 C79,45.107102 74.2771739,37.1574739 68.2663043,33.8102621 L10.8768116,1.45388137 C4.86594203,-1.89333044 0.143115942,0.756545575 0.143115942,7.17203487 L0,54.4514016 C0,61.0063581 4.72282609,68.9559861 10.7336957,72.3031979 L68.2663043,104.520112" id="Shape" fill="#FFFFFF"></path>
                    <path d="M53.8115942,57.4383181 C56.5940344,58.9549817 58.7906977,62.5398227 58.7906977,65.2973928 C58.7906977,68.1928414 56.4475902,69.2958694 53.66515,67.7792059 C50.8827098,66.2625423 48.6860465,62.6777012 48.6860465,59.9201312 C48.6860465,57.0246826 51.029154,55.9216546 53.8115942,57.4383181 M73.8744523,89.1503738 C76.6568925,90.6670373 79,89.5640093 79,86.6685608 L79,65.9867853 C79,63.0913368 76.8033367,59.5064957 74.0208965,57.9898321 L53.8115942,46.9595519 C45.4642737,42.4095613 38.5813953,45.7186454 38.5813953,54.2671126 C38.5813953,62.8155797 45.3178295,73.570103 53.66515,78.1200936 L73.8744523,89.1503738" id="Shape" fill="#008BFF" opacity="0.55"></path>
                </g>
            </g>
        </g>
    </g>
</svg>