<?xml version="1.0" encoding="UTF-8"?>
<svg width="152px" height="152px" viewBox="0 0 152 152" version="1.1" xmlns="http://www.w3.org/2000/svg" xmlns:xlink="http://www.w3.org/1999/xlink">
    <title>convenience</title>
    <defs>
        <polygon id="path-1" points="0 0.165809233 48.7316893 0.165809233 48.7316893 25.9999519 0 25.9999519"></polygon>
    </defs>
    <g id="Desktop" stroke="none" stroke-width="1" fill="none" fill-rule="evenodd">
        <g id="Home_1440" transform="translate(-106.000000, -908.000000)">
            <g id="Features-1" transform="translate(0.000000, 460.000000)">
                <g id="convenience" transform="translate(107.000000, 449.000000)">
                    <path d="M75,0 C116.421356,-7.6089797e-15 150,33.5786438 150,75 C150,116.421356 116.421356,150 75,150 C33.5786438,150 5.07265313e-15,116.421356 0,75 C-5.07265313e-15,33.5786438 33.5786438,7.6089797e-15 75,0 Z" id="BG" stroke="#D3D3D3"></path>
                    <path d="M89,57.5 C89,64.9574049 82.9575111,71 75.5002372,71 C68.0453355,71 62,64.9574049 62,57.5 C62,50.0421206 68.0453355,44 75.5002372,44 C82.9575111,44 89,50.0421206 89,57.5" id="Fill-1" fill="#16161F"></path>
                    <g id="Group-5" transform="translate(51.000000, 78.000000)">
                        <mask id="mask-2" fill="white">
                            <use xlink:href="#path-1"></use>
                        </mask>
                        <g id="Clip-4"></g>
                        <path d="M42.8242398,1.68176667 C41.1568126,-0.2769 38.2872204,-0.175788889 36.047968,1.06547037 C32.5799097,2.98898889 28.5975893,4.07906296 24.3659874,4.07906296 C20.1315311,4.07906296 16.152065,2.98898889 12.6840068,1.06547037 C10.4423757,-0.175788889 7.57516214,-0.2769 5.90725922,1.68176667 C2.2251233,6.00017407 -0.000333009709,11.6282111 -0.000333009709,17.7801 L-0.000333009709,20.5197296 C-0.000333009709,23.5448778 2.42302621,25.9999519 5.41440485,25.9999519 L43.3170942,25.9999519 C46.3060942,25.9999519 48.731832,23.5448778 48.731832,20.5197296 L48.731832,17.7801 C48.731832,11.6282111 46.5035214,6.00017407 42.8242398,1.68176667" id="Fill-3" fill="#CEE0FF" mask="url(#mask-2)"></path>
                    </g>
                </g>
            </g>
        </g>
    </g>
</svg>