<?xml version="1.0" encoding="UTF-8"?>
<svg width="152px" height="152px" viewBox="0 0 152 152" version="1.1" xmlns="http://www.w3.org/2000/svg" xmlns:xlink="http://www.w3.org/1999/xlink">
    <title>dataPrivacy</title>
    <g id="Desktop" stroke="none" stroke-width="1" fill="none" fill-rule="evenodd">
        <g id="Home_1440" transform="translate(-464.000000, -908.000000)">
            <g id="Features-1" transform="translate(0.000000, 460.000000)">
                <g id="dataPrivacy" transform="translate(465.000000, 449.000000)">
                    <path d="M75,0 C116.421356,-7.6089797e-15 150,33.5786438 150,75 C150,116.421356 116.421356,150 75,150 C33.5786438,150 5.07265313e-15,116.421356 0,75 C-5.07265313e-15,33.5786438 33.5786438,7.6089797e-15 75,0 Z" id="BG" stroke="#D3D3D3"></path>
                    <path d="M76.125,77.5 C79.5767797,77.5 82.375,80.2982203 82.375,83.75 C82.375,87.2017797 79.5767797,90 76.125,90 C72.6732203,90 69.875,87.2017797 69.875,83.75 C69.875,80.2982203 72.6732203,77.5 76.125,77.5 Z M76.125,40 L76.4619709,40.0029672 C86.6618399,40.1827243 94.875,48.507219 94.875,58.75 L94.875,58.75 L94.875,65 L57.375,65 L57.375,58.75 C57.375,48.3946609 65.7696609,40 76.125,40 L76.125,40 Z" id="Combined-Shape" fill="#CEE0FF"></path>
                    <path d="M98,65 L54.25,65 C53.3940158,64.8981865 52.5386146,65.1945372 51.9290759,65.8040759 C51.3195372,66.4136146 51.0231865,67.2690158 51.125,68.125 L51.125,99.375 C51.0231865,100.230984 51.3195372,101.086385 51.9290759,101.695924 C52.5386146,102.305463 53.3940158,102.601814 54.25,102.5 L98,102.5 C98.8559842,102.601814 99.7113854,102.305463 100.320924,101.695924 C100.930463,101.086385 101.226814,100.230984 101.125,99.375 L101.125,68.125 C101.226814,67.2690158 100.930463,66.4136146 100.320924,65.8040759 C99.7113854,65.1945372 98.8559842,64.8981865 98,65 Z M76.125,90 C72.6732203,90 69.875,87.2017797 69.875,83.75 C69.875,80.2982203 72.6732203,77.5 76.125,77.5 C79.5767797,77.5 82.375,80.2982203 82.375,83.75 C82.375,87.2017797 79.5767797,90 76.125,90 Z" id="Shape" fill="#16161F"></path>
                </g>
            </g>
        </g>
    </g>
</svg>