<?xml version="1.0" encoding="UTF-8"?>
<svg width="90px" height="90px" viewBox="0 0 90 90" version="1.1" xmlns="http://www.w3.org/2000/svg" xmlns:xlink="http://www.w3.org/1999/xlink">
    <title>Bottom/Icon Copy</title>
    <defs>
        <polygon id="path-1" points="0.000198707971 0.303239654 9.93540069 0.303239654 9.93540069 21.9233704 0.000198707971 21.9233704"></polygon>
        <polyline id="path-3" points="52.9797291 0.0199252595 52.9797291 43.0588235 0 43.0588235 0 0.0199252595"></polyline>
        <polygon id="path-5" points="0.100270524 0.0199083737 21.1843502 0.0199083737 21.1843502 21.1486696 0.100270524 21.1486696"></polygon>
    </defs>
    <g id="Desktop" stroke="none" stroke-width="1" fill="none" fill-rule="evenodd">
        <g id="Home_1440" transform="translate(-818.000000, -7011.000000)">
            <g id="Monetization" transform="translate(0.000000, 6641.000000)">
                <g id="Bottom/Icon-Copy" transform="translate(818.000000, 370.000000)">
                    <polygon id="BG" points="0 0 90 0 90 90 0 90"></polygon>
                    <g id="Group-10" transform="translate(18.000000, 23.000000)">
                        <g id="Group-6">
                            <g id="Group-3" transform="translate(0.000000, 9.287197)">
                                <mask id="mask-2" fill="white">
                                    <use xlink:href="#path-1"></use>
                                </mask>
                                <g id="Clip-2"></g>
                                <path d="M9.93559943,0.302644429 L1.98727846,0.302644429 C0.88842328,0.302644429 0.000198707971,1.19135744 0.000198707971,2.28638131 L0.000198707971,19.9396378 C0.000198707971,21.0346574 0.88842328,21.9233704 1.98727846,21.9233704 L9.93559943,21.9233704 L9.93559943,0.302644429 Z" id="Fill-1" fill="#CDD4E1" mask="url(#mask-2)"></path>
                            </g>
                            <mask id="mask-4" fill="white">
                                <use xlink:href="#path-3"></use>
                            </mask>
                            <g id="Clip-5"></g>
                            <path d="M47.4397509,33.0613963 L40.4313123,33.0613963 C40.1491482,33.3430855 40.7095058,32.7816871 40.4313123,33.0613963 C38.5416018,34.9459417 35.8630175,35.7791131 33.1764834,35.4041847 C31.2649154,35.1343958 29.5282073,34.1385635 28.1650681,32.7757348 L25.4606557,30.0778547 C24.7870315,29.4033889 24.7870315,28.3103491 25.4606557,27.6378631 C26.1322881,26.9693453 27.2172338,26.9633931 27.8948286,27.6259586 L31.1635735,30.8296913 C32.0994874,31.7640298 34.9986383,33.0613963 37.2480099,31.5676435 C39.4636038,30.0957114 39.2132343,26.4277835 37.2480099,24.4658716 L24.1948835,11.1093833 C23.2589696,10.1750448 21.9494825,9.61364644 20.6380122,9.61364644 L9.90777966,9.61364644 L9.90777966,31.2383406 L15.4278879,31.2383406 L26.0190216,41.5636823 C26.9529523,42.4980216 28.2644226,43.0594187 29.5739097,43.0594187 L47.5331177,43.0594187 C50.3408891,43.0594187 52.588248,40.8158143 52.588248,38.012798 C52.4928937,35.3049974 50.24748,33.0613963 47.4397509,33.0613963" id="Fill-4" fill="#000000" mask="url(#mask-4)"></path>
                        </g>
                        <g id="Group-9" transform="translate(31.796129, 0.000000)">
                            <mask id="mask-6" fill="white">
                                <use xlink:href="#path-5"></use>
                            </mask>
                            <g id="Clip-8"></g>
                            <path d="M3.18735973,3.1155254 C7.30282269,-1.01065813 13.9778277,-1.01264221 18.0952748,3.11354131 C22.2127218,7.2377281 22.2147017,13.9268826 18.0972546,18.0530492 C13.9817875,22.1792201 7.30678247,22.1812042 3.18933962,18.0550333 C-0.928099013,13.9308507 -0.930078899,7.24169626 3.18735973,3.1155254" id="Fill-7" fill-opacity="0.4" fill="#A7B4CB" mask="url(#mask-6)"></path>
                        </g>
                    </g>
                </g>
            </g>
        </g>
    </g>
</svg>