<?xml version="1.0" encoding="UTF-8"?>
<svg width="163px" height="30px" viewBox="0 0 163 30" version="1.1" xmlns="http://www.w3.org/2000/svg" xmlns:xlink="http://www.w3.org/1999/xlink">
    <title>Group 8</title>
    <g id="Desktop" stroke="none" stroke-width="1" fill="none" fill-rule="evenodd">
        <g id="Credit-card-fraud_1440" transform="translate(-824.000000, -1369.000000)" fill="#000000" fill-rule="nonzero">
            <g id="Apollo_Stratus_Socnet" transform="translate(189.000000, 1246.000000)">
                <g id="Group-8" transform="translate(635.000000, 123.000000)">
                    <g id="Group" transform="translate(100.375405, 4.139987)">
                        <polygon id="Path" points="0.332556761 0.142134062 13.4447948 0.142134062 13.4447948 2.9848153 3.32556761 2.9848153 3.32556761 8.67017776 12.8746975 8.67017776 12.8746975 11.512859 3.32556761 11.512859 3.32556761 17.1982215 13.4447948 17.1982215 13.4447948 20.0409027 0.332556761 20.0409027 0.332556761 0.142134062"></polygon>
                        <path d="M17.2454435,0.142134062 L20.09593,0.142134062 L20.09593,7.53310527 L20.2384543,7.53310527 C20.7135354,7.01194704 21.9012381,5.54322841 24.6567085,5.54322841 C28.409849,5.54322841 31.2128275,8.38590964 31.2128275,12.9341996 C31.2128275,17.4824896 28.409849,20.3251708 24.6567085,20.3251708 C21.9012381,20.3251708 20.6660273,18.9038302 20.2384543,18.335294 L20.09593,18.335294 L19.8108814,20.0409027 L17.2454435,20.0409027 L17.2454435,0.142134062 Z M28.3623409,12.9341996 C28.3623409,9.99676234 26.5095247,8.10164152 24.2291355,8.10164152 C21.9487463,8.10164152 20.09593,9.99676234 20.09593,12.9341996 C20.09593,15.8716369 21.9487463,17.7667577 24.2291355,17.7667577 C26.5095247,17.7667577 28.3623409,15.9190149 28.3623409,12.9341996 Z" id="Shape"></path>
                        <path d="M43.4699195,18.477428 L43.3273952,18.477428 C43.0423465,18.8564522 42.7097898,19.1407203 42.2822168,19.4249884 C41.6171033,19.8987686 40.5244168,20.3251708 39.0516654,20.3251708 C35.9161302,20.3251708 33.9207897,18.524806 33.9207897,15.9190149 C33.9207897,13.0763337 35.7736059,11.2285909 39.764287,11.2285909 L43.3273952,11.2285909 L43.3273952,10.9443227 C43.3273952,9.09657995 42.1872006,7.95950745 40.3343843,7.95950745 C38.3390438,7.95950745 37.4838978,9.09657995 37.3413735,9.94938432 L34.490887,9.94938432 C34.6334113,7.58048329 36.7712762,5.54322841 40.3343843,5.54322841 C44.0875249,5.54322841 46.1778817,7.62786131 46.1778817,10.9443227 L46.1778817,20.0409027 L43.7549682,20.0409027 L43.4699195,18.477428 Z M43.3273952,13.5027359 L39.9068114,13.5027359 C37.7214384,13.5027359 36.7712762,14.4976743 36.7712762,15.7768808 C36.7712762,17.0560874 37.6264221,17.9088918 39.3367141,17.9088918 C41.94966,17.9088918 43.3273952,16.4875512 43.3273952,14.0712721 L43.3273952,13.5027359 L43.3273952,13.5027359 Z" id="Shape"></path>
                        <path d="M49.360925,23.1678521 L52.2114115,23.1678521 C52.7815088,23.1678521 53.1140656,22.6466938 53.1615737,22.3150477 L53.6366548,21.0358411 L47.7931574,5.82749653 L50.7861683,5.82749653 L54.9193737,16.6296852 L55.489471,16.6296852 L59.1951035,5.82749653 L62.1881144,5.82749653 L55.917044,23.3099861 C55.3469467,24.8734608 54.4918008,25.7262652 52.3539359,25.7262652 L49.360925,25.7262652 L49.360925,23.1678521 Z" id="Path"></path>
                    </g>
                    <path d="M5.56327725,18.2522852 C6.84711046,18.9177331 8.22604243,19.0603291 9.74762253,18.7276051 C11.2216533,18.3473492 12.1726408,17.5868373 12.6005852,16.4460695 L15.9765911,16.4460695 C15.6912948,18.0146252 14.7403072,19.202925 13.1236284,20.1060329 C11.8397952,20.7714808 10.2706657,21.1042048 8.46378932,21.1042048 C5.61082663,21.1042048 3.47110461,20.3912249 2.04462326,18.9652651 C0.713240673,17.6343693 0,15.8281536 0,13.5941499 C0,11.1700183 0.713240673,9.22120658 2.13972202,7.7952468 C3.56620337,6.36928702 5.65837601,5.65630713 8.41623994,5.65630713 C10.8412582,5.65630713 12.7907827,6.27422303 14.2172641,7.60511883 C15.6437454,8.88848263 16.3569861,10.8372943 16.3569861,13.4040219 L16.3569861,14.2120658 L3.37600585,14.2120658 C3.37600585,16.0182815 4.1367959,17.3967093 5.56327725,18.2522852 M11.5069495,8.93601463 C10.6035113,8.17550274 9.50987564,7.7952468 8.32114119,7.7952468 C7.08485735,7.7952468 6.03877103,8.17550274 5.08778347,8.93601463 C4.1367959,9.69652651 3.56620337,10.7422303 3.37600585,12.0731261 L13.0285296,12.0731261 C12.8858815,10.7422303 12.4103877,9.69652651 11.5069495,8.93601463 M19.6854426,0 L19.6854426,8.12797075 C21.0168252,6.511883 23.013899,5.70383912 25.5815655,5.70383912 C27.6261887,5.70383912 29.3379663,6.32175503 30.7644477,7.65265082 C32.4762253,9.0786106 33.2845647,10.9798903 33.2845647,13.4515539 C33.2845647,15.6855576 32.5713241,17.5393053 31.0972933,18.9652651 C29.6232626,20.3912249 27.8163862,21.1517367 25.5815655,21.1517367 C24.3452816,21.1517367 23.2040966,20.9140768 22.1580102,20.4862888 C21.1119239,20.0585009 20.2560351,19.440585 19.5903438,18.6325411 C19.5903438,19.297989 19.5427944,19.9634369 19.4952451,20.5813528 L16.214338,20.5813528 C16.3569861,19.1078611 16.4045355,17.9670932 16.4045355,17.2541133 L16.4045355,0.0950639854 L19.6854426,0.0950639854 L19.6854426,0 Z M28.4345282,17.3491773 C29.3855157,16.3510055 29.8610095,15.0201097 29.8610095,13.4040219 C29.8610095,11.7879342 29.3855157,10.4570384 28.4345282,9.45886654 C27.4835406,8.4606947 26.2472568,7.93784278 24.7256767,7.93784278 C23.2040966,7.93784278 21.9678127,8.4606947 21.0643745,9.45886654 C20.1609364,10.4570384 19.6854426,11.7879342 19.6854426,13.4040219 C19.6854426,15.0201097 20.1609364,16.3510055 21.0643745,17.3491773 C21.9678127,18.3473492 23.2040966,18.8702011 24.773226,18.8702011 C26.2472568,18.8702011 27.4835406,18.3948812 28.4345282,17.3491773 M48.5479151,20.4862888 L45.5047549,20.4862888 C45.4572056,19.8683729 45.4096562,19.202925 45.4096562,18.4424132 C44.6013168,19.393053 43.6978786,20.0585009 42.6993416,20.4862888 C41.7008047,20.9140768 40.5120702,21.1042048 39.0855889,21.1042048 C37.1360644,21.1042048 35.6144843,20.6764168 34.5208486,19.773309 C33.4272129,18.8702011 32.9041697,17.8244973 32.9041697,16.5411335 C32.9041697,14.7824497 33.569861,13.5466179 34.948793,12.786106 C36.3277249,12.0255941 38.3247988,11.6453382 40.9400146,11.5502742 L45.2194587,11.5502742 L45.2194587,11.1224863 C45.2194587,8.88848263 43.8405267,7.7952468 41.0351134,7.7952468 C40.0365764,7.7952468 39.1806876,7.98537477 38.5625457,8.41316271 C37.8968544,8.84095064 37.5640088,9.36380256 37.5164594,10.0292505 L34.0453548,10.0292505 C34.1880029,8.4606947 35.0438917,7.31992687 36.5654718,6.55941499 C37.8017557,5.94149909 39.3233358,5.65630713 41.2253109,5.65630713 C43.4125823,5.65630713 45.0768105,6.03656307 46.3130944,6.89213894 C47.7395757,7.84277879 48.4528164,9.26873857 48.4528164,11.1700183 L48.4528164,17.8720293 L48.4528164,17.7769653 C48.4528164,18.8702011 48.4528164,19.773309 48.5479151,20.4862888 M37.5640088,14.4497258 C36.7556693,14.8299817 36.3277249,15.4478976 36.3277249,16.3034735 C36.3277249,17.0639854 36.6130212,17.6819013 37.2311631,18.2047532 C37.849305,18.7276051 38.7051939,18.9652651 39.8463789,18.9652651 C41.5581565,18.9652651 42.8419898,18.5374771 43.7454279,17.6343693 C44.6488661,16.7312614 45.1243599,15.5429616 45.1243599,13.9744059 L45.1243599,13.6892139 C43.5076811,13.6892139 42.1287491,13.7367459 41.0826628,13.7842779 C39.5610827,13.8793419 38.3723482,14.1170018 37.5640088,14.4497258 M54.9195318,26 L51.2582297,26 L54.1111924,20.5338208 L46.5983906,6.22669104 L50.3547915,6.22669104 L55.9656181,17.3967093 L61.5288954,6.22669104 L65,6.22669104 L54.9195318,26 Z" id="Shape"></path>
                </g>
            </g>
        </g>
    </g>
</svg>