<?xml version="1.0" encoding="UTF-8"?>
<svg width="38px" height="16px" viewBox="0 0 38 16" version="1.1" xmlns="http://www.w3.org/2000/svg" xmlns:xlink="http://www.w3.org/1999/xlink">
    <title>Fill 30</title>
    <g id="Desktop" stroke="none" stroke-width="1" fill="none" fill-rule="evenodd">
        <g id="Home_1440" transform="translate(-719.000000, -11474.000000)" fill="#000000">
            <g id="Roadmap" transform="translate(-25.000000, 10810.000000)">
                <g transform="translate(0.000000, 248.000000)" id="Group-36">
                    <g transform="translate(744.000000, 289.853000)">
                        <path d="M31.9368,141.6801 L29.8308,141.6801 L31.4688,138.5221 L27.1408,130.2751 L29.3048,130.2751 L32.5218,136.7081 L35.7378,130.2751 L37.7258,130.2751 L31.9368,141.6801 Z M21.9368,135.0431 C21.4678,135.2551 21.2348,135.6181 21.2348,136.1241 C21.2348,136.5521 21.4098,136.9141 21.7598,137.2051 C22.1118,137.4991 22.6178,137.6431 23.2808,137.6431 C24.2548,137.6431 25.0068,137.3911 25.5328,136.8851 C26.0588,136.3791 26.3228,135.6771 26.3228,134.7791 L26.3228,134.6021 C25.3868,134.6021 24.6068,134.6211 23.9828,134.6611 C23.0858,134.7011 22.4038,134.8271 21.9368,135.0431 L21.9368,135.0431 Z M28.2508,138.5221 L26.4978,138.5221 C26.4578,138.1721 26.4388,137.7801 26.4388,137.3521 C25.9718,137.8981 25.4548,138.2861 24.8888,138.5221 C24.3248,138.7561 23.6318,138.8741 22.8138,138.8741 C21.6818,138.8741 20.8048,138.6191 20.1808,138.1141 C19.5578,137.6071 19.2458,136.9831 19.2458,136.2421 C19.2458,135.2261 19.6358,134.5041 20.4148,134.0761 C21.1958,133.6491 22.3448,133.4131 23.8658,133.3741 L26.3228,133.3741 L26.3228,133.1421 C26.3228,131.8561 25.5228,131.2121 23.9238,131.2121 C23.3388,131.2121 22.8628,131.3291 22.4928,131.5621 C22.1218,131.7961 21.9168,132.1071 21.8778,132.4991 L19.8888,132.4991 C19.9668,131.6011 20.4548,130.9381 21.3518,130.5101 C22.0528,130.1581 22.9498,129.9841 24.0408,129.9841 C25.2898,129.9841 26.2638,130.2161 26.9658,130.6861 C27.7848,131.2321 28.1948,132.0481 28.1948,133.1421 L28.1948,136.9991 L28.1948,136.9441 C28.1948,137.5681 28.2138,138.0931 28.2508,138.5221 L28.2508,138.5221 Z M16.6718,136.7081 C17.2188,136.1241 17.4918,135.3641 17.4918,134.4291 C17.4918,133.4921 17.2188,132.7311 16.6718,132.1461 C16.1258,131.5621 15.4158,131.2711 14.5378,131.2711 C13.6608,131.2711 12.9578,131.5621 12.4328,132.1461 C11.9068,132.7311 11.6438,133.4921 11.6438,134.4291 C11.6438,135.3641 11.9068,136.1241 12.4328,136.7081 C12.9578,137.2931 13.6698,137.5871 14.5668,137.5871 C15.4238,137.5871 16.1258,137.2931 16.6718,136.7081 L16.6718,136.7081 Z M11.6438,126.7081 L11.6438,131.3881 C12.4228,130.4511 13.5528,129.9841 15.0358,129.9841 C16.2058,129.9841 17.1998,130.3531 18.0178,131.0941 C18.9928,131.9141 19.4808,133.0251 19.4808,134.4291 C19.4808,135.7161 19.0608,136.7781 18.2228,137.6171 C17.3838,138.4521 16.3228,138.8741 15.0358,138.8741 C14.3328,138.8741 13.6798,138.7461 13.0768,138.4921 C12.4718,138.2411 11.9758,137.8781 11.5848,137.4101 C11.5848,137.7991 11.5658,138.1721 11.5268,138.5221 L9.6548,138.5221 C9.7338,137.6621 9.7728,137.0191 9.7728,136.5911 L9.7728,126.7081 L11.6438,126.7081 Z M6.9358,131.8561 C6.4088,131.4241 5.7938,131.2121 5.0938,131.2121 C4.3918,131.2121 3.7678,131.4241 3.2228,131.8561 C2.6748,132.2841 2.3438,132.8881 2.2278,133.6681 L7.7838,133.6681 C7.7448,132.8881 7.4618,132.2841 6.9358,131.8561 L6.9358,131.8561 Z M3.5148,137.2351 C4.2538,137.6261 5.0548,137.7111 5.9128,137.4991 C6.7698,137.2841 7.3148,136.8461 7.5498,136.1831 L9.4798,136.1831 C9.3238,137.0771 8.7778,137.7801 7.8418,138.2861 C7.1008,138.6781 6.2048,138.8741 5.1518,138.8741 C3.5148,138.8741 2.2878,138.4621 1.4668,137.6431 C0.6878,136.8661 0.2978,135.8301 0.2978,134.5431 C0.2978,133.1421 0.7078,132.0291 1.5258,131.2121 C2.3438,130.3921 3.5538,129.9841 5.1518,129.9841 C6.5558,129.9841 7.6658,130.3531 8.4858,131.0941 C9.3038,131.8361 9.7138,132.9471 9.7138,134.4291 L9.7138,134.8961 L2.2278,134.8961 C2.2668,135.9481 2.6958,136.7281 3.5148,137.2351 L3.5148,137.2351 Z" id="Fill-30"></path>
                    </g>
                </g>
            </g>
        </g>
    </g>
</svg>