<?xml version="1.0" encoding="UTF-8"?>
<svg width="15px" height="30px" viewBox="0 0 15 30" version="1.1" xmlns="http://www.w3.org/2000/svg" xmlns:xlink="http://www.w3.org/1999/xlink">
    <title>Path</title>
    <g id="Desktop" stroke="none" stroke-width="1" fill="none" fill-rule="evenodd">
        <g id="Credit-card-fraud_1440" transform="translate(-196.000000, -1261.000000)" fill="#000000" fill-rule="nonzero">
            <g id="Apollo_Stratus_Socnet" transform="translate(189.000000, 1246.000000)">
                <g id="Group-20" transform="translate(7.000000, 15.000000)">
                    <path d="M4.38461538,16.59271 L0,16.59271 L0,11.2678288 L4.38461538,11.2678288 L4.38461538,7.03645008 C4.38461538,4.80190174 4.98461538,3.09033281 6.18461538,1.85419968 C7.38461538,0.618066561 9,0 11.0307692,0 C12.6461538,0 13.9846154,0.0950871632 15,0.237717908 L15,4.99207607 L12.2769231,4.99207607 C11.2615385,4.99207607 10.5692308,5.22979398 10.1538462,5.70522979 C9.83076923,6.08557845 9.69230769,6.70364501 9.69230769,7.55942948 L9.69230769,11.2678288 L14.5384615,11.2678288 L13.8461538,16.59271 L9.69230769,16.59271 L9.69230769,30 L4.33846154,30 L4.33846154,16.59271 L4.38461538,16.59271 Z" id="Path"></path>
                </g>
            </g>
        </g>
    </g>
</svg>