<?xml version="1.0" encoding="UTF-8"?>
<svg width="23px" height="23px" viewBox="0 0 23 23" version="1.1" xmlns="http://www.w3.org/2000/svg" xmlns:xlink="http://www.w3.org/1999/xlink">
    <title>fb</title>
    <g id="Desktop" stroke="none" stroke-width="1" fill="none" fill-rule="evenodd">
        <g id="Home_1440" transform="translate(-1050.000000, -13235.000000)">
            <g id="Footer" transform="translate(0.000000, 13174.000000)">
                <g id="Group-6" transform="translate(1036.000000, 47.000000)">
                    <g id="fb" transform="translate(14.375000, 14.375000)">
                        <circle id="Oval" fill="#A7B4CB" opacity="0.6" cx="10.625" cy="10.625" r="10.4166667"></circle>
                        <path d="M10.104375,21.0288542 C10.3916667,21.0430208 10.625,20.8084375 10.625,20.5208333 L10.625,12.7083333 L12.7083333,12.7083333 C13.2836458,12.7083333 13.75,12.2419792 13.75,11.6666667 C13.75,11.0913542 13.2836458,10.625 12.7083333,10.625 L10.625,10.625 L10.625,8.54166667 C10.625,7.966375 11.0913542,7.5 11.6666667,7.5 L12.7083333,7.5 C13.2836458,7.5 13.75,7.03363542 13.75,6.45833333 C13.75,5.88304167 13.2836458,5.41666667 12.7083333,5.41666667 L11.6666667,5.41666667 C9.94072917,5.41666667 8.54166667,6.81578125 8.54166667,8.54166667 L8.54166667,10.625 L7.5,10.625 C6.92470833,10.625 6.45833333,11.0913542 6.45833333,11.6666667 C6.45833333,12.2419792 6.92469792,12.7083333 7.5,12.7083333 L8.54166667,12.7083333 L8.54166667,20.4076042 C8.54166667,20.6553125 8.7159375,20.8701042 8.96052083,20.909375 C9.33552083,20.9695833 9.7171875,21.0097917 10.104375,21.0288542 Z" id="Path" fill="#000000" fill-rule="nonzero"></path>
                    </g>
                </g>
            </g>
        </g>
    </g>
</svg>