<?xml version="1.0" encoding="UTF-8"?>
<svg width="199px" height="30px" viewBox="0 0 199 30" version="1.1" xmlns="http://www.w3.org/2000/svg" xmlns:xlink="http://www.w3.org/1999/xlink">
    <title>Group 20</title>
    <g id="Desktop" stroke="none" stroke-width="1" fill="none" fill-rule="evenodd">
        <g id="Credit-card-fraud_1440" transform="translate(-196.000000, -1261.000000)" fill="#000000" fill-rule="nonzero">
            <g id="Apollo_Stratus_Socnet" transform="translate(189.000000, 1246.000000)">
                <g id="Group-20" transform="translate(7.000000, 15.000000)">
                    <g id="Group" transform="translate(70.375405, 6.000000)">
                        <polygon id="Path" points="0.332556761 0.142134062 13.1597461 0.142134062 13.1597461 2.9848153 3.32556761 2.9848153 3.32556761 8.67017776 12.5896488 8.67017776 12.5896488 11.512859 3.32556761 11.512859 3.32556761 20.0409027 0.332556761 20.0409027"></polygon>
                        <path d="M24.4191679,18.477428 L24.2766436,18.477428 C23.9915949,18.8564522 23.6590382,19.1407203 23.2314652,19.4249884 C22.5663517,19.8987686 21.4736652,20.3251708 20.0009138,20.3251708 C16.8653786,20.3251708 14.870038,18.524806 14.870038,15.9190149 C14.870038,13.0763337 16.7228543,11.2285909 20.7135354,11.2285909 L24.2766436,11.2285909 L24.2766436,10.9443227 C24.2766436,9.09657995 23.136449,7.95950745 21.2836327,7.95950745 C19.2882922,7.95950745 18.4331462,9.09657995 18.2906219,9.94938432 L15.4401353,9.94938432 C15.5826597,7.58048329 17.7205246,5.54322841 21.2836327,5.54322841 C25.0367733,5.54322841 27.1271301,7.62786131 27.1271301,10.9443227 L27.1271301,20.0409027 L24.7042166,20.0409027 L24.4191679,18.477428 Z M24.2766436,13.5027359 L20.8560597,13.5027359 C18.6706867,13.5027359 17.7205246,14.4976743 17.7205246,15.7768808 C17.7205246,17.0560874 18.5756705,17.9088918 20.2859624,17.9088918 C22.8989084,17.9088918 24.2766436,16.4875512 24.2766436,14.0712721 L24.2766436,13.5027359 L24.2766436,13.5027359 Z" id="Shape"></path>
                        <path d="M43.9450006,15.0662105 C43.4699195,17.1982215 41.6646114,20.3251708 37.3888816,20.3251708 C33.2556761,20.3251708 30.2626653,17.3403555 30.2626653,12.9341996 C30.2626653,8.5280437 33.2556761,5.54322841 37.3888816,5.54322841 C41.6646114,5.54322841 43.4699195,8.71755578 43.9450006,10.6600546 L41.0945141,10.6600546 C40.619433,9.38084807 39.5742546,8.10164152 37.3888816,8.10164152 C34.9659681,8.10164152 33.1131518,9.99676234 33.1131518,12.9341996 C33.1131518,15.8716369 34.9659681,17.7667577 37.3888816,17.7667577 C39.6692708,17.7667577 40.7619573,16.203283 41.0945141,15.0662105 L43.9450006,15.0662105 Z" id="Path"></path>
                        <path d="M59.9077252,15.9190149 C59.2426116,17.7667577 57.199763,20.3251708 53.4941305,20.3251708 C49.360925,20.3251708 46.3679142,17.3403555 46.3679142,12.9341996 C46.3679142,8.5280437 49.360925,5.54322841 53.4941305,5.54322841 C57.3422873,5.54322841 60.3352981,8.5280437 60.3352981,12.5077974 C60.3352981,12.9341996 60.28779,13.2658458 60.2402819,13.5501139 L60.1927738,13.929138 L49.2184007,13.929138 C49.5509574,16.3454171 51.2137413,17.9088918 53.4941305,17.9088918 C55.2044224,17.9088918 56.4396332,16.9139533 56.9147143,15.9190149 L59.9077252,15.9190149 L59.9077252,15.9190149 Z M57.6273359,11.7971271 C57.2947792,9.52298213 55.7745197,7.95950745 53.4941305,7.95950745 C51.0712169,7.95950745 49.6459737,9.52298213 49.2184007,11.7971271 L57.6273359,11.7971271 Z" id="Shape"></path>
                        <path d="M63.755882,0.142134062 L66.6063685,0.142134062 L66.6063685,7.53310527 L66.7488928,7.53310527 C67.2239739,7.01194704 68.4116766,5.54322841 71.1671469,5.54322841 C74.9202875,5.54322841 77.7232659,8.38590964 77.7232659,12.9341996 C77.7232659,17.4824896 74.9202875,20.3251708 71.1671469,20.3251708 C68.4116766,20.3251708 67.1764658,18.9038302 66.7488928,18.335294 L66.6063685,18.335294 L66.3213198,20.0409027 L63.755882,20.0409027 L63.755882,0.142134062 Z M74.8727794,12.9341996 C74.8727794,9.99676234 73.0199632,8.10164152 70.739574,8.10164152 C68.4591847,8.10164152 66.6063685,9.99676234 66.6063685,12.9341996 C66.6063685,15.8716369 68.4591847,17.7667577 70.739574,17.7667577 C73.0199632,17.7667577 74.8727794,15.9190149 74.8727794,12.9341996 Z" id="Shape"></path>
                        <path d="M80.2887038,12.9341996 C80.2887038,8.5280437 83.2817147,5.54322841 87.4149201,5.54322841 C91.5481256,5.54322841 94.5411364,8.5280437 94.5411364,12.9341996 C94.5411364,17.3403555 91.5481256,20.3251708 87.4149201,20.3251708 C83.2817147,20.3251708 80.2887038,17.3403555 80.2887038,12.9341996 Z M91.6906499,12.9341996 C91.6906499,9.99676234 89.8378337,8.10164152 87.4149201,8.10164152 C84.9920066,8.10164152 83.1391903,9.99676234 83.1391903,12.9341996 C83.1391903,15.8716369 84.9920066,17.7667577 87.4149201,17.7667577 C89.8378337,17.7667577 91.6906499,15.9190149 91.6906499,12.9341996 Z" id="Shape"></path>
                        <path d="M97.1065743,12.9341996 C97.1065743,8.5280437 100.099585,5.54322841 104.232791,5.54322841 C108.365996,5.54322841 111.359007,8.5280437 111.359007,12.9341996 C111.359007,17.3403555 108.365996,20.3251708 104.232791,20.3251708 C100.099585,20.3251708 97.1065743,17.3403555 97.1065743,12.9341996 Z M108.50852,12.9341996 C108.50852,9.99676234 106.655704,8.10164152 104.232791,8.10164152 C101.809877,8.10164152 99.9570608,9.99676234 99.9570608,12.9341996 C99.9570608,15.8716369 101.809877,17.7667577 104.232791,17.7667577 C106.655704,17.7667577 108.50852,15.9190149 108.50852,12.9341996 Z" id="Shape"></path>
                        <polygon id="Path" points="114.779591 0.142134062 117.630077 0.142134062 117.630077 12.3656634 123.616099 5.82749653 127.036683 5.82749653 120.623088 12.7920656 127.321731 20.0409027 123.901148 20.0409027 117.630077 13.2184677 117.630077 20.0409027 114.779591 20.0409027"></polygon>
                    </g>
                    <path d="M4.38461538,16.59271 L0,16.59271 L0,11.2678288 L4.38461538,11.2678288 L4.38461538,7.03645008 C4.38461538,4.80190174 4.98461538,3.09033281 6.18461538,1.85419968 C7.38461538,0.618066561 9,0 11.0307692,0 C12.6461538,0 13.9846154,0.0950871632 15,0.237717908 L15,4.99207607 L12.2769231,4.99207607 C11.2615385,4.99207607 10.5692308,5.22979398 10.1538462,5.70522979 C9.83076923,6.08557845 9.69230769,6.70364501 9.69230769,7.55942948 L9.69230769,11.2678288 L14.5384615,11.2678288 L13.8461538,16.59271 L9.69230769,16.59271 L9.69230769,30 L4.33846154,30 L4.33846154,16.59271 L4.38461538,16.59271 Z" id="Path"></path>
                </g>
            </g>
        </g>
    </g>
</svg>