<?xml version="1.0" encoding="UTF-8"?>
<svg width="215px" height="288px" viewBox="0 0 215 288" version="1.1" xmlns="http://www.w3.org/2000/svg" xmlns:xlink="http://www.w3.org/1999/xlink">
    <title>Group 3</title>
    <g id="Mobile" stroke="none" stroke-width="1" fill="none" fill-rule="evenodd">
        <g id="Credit-card-fraud_375" transform="translate(-49.000000, -1558.000000)" fill="#000000" fill-rule="nonzero">
            <g id="Group-5" transform="translate(35.000000, 441.000000)">
                <g id="Group-23" transform="translate(0.000000, 1117.000000)">
                    <g id="Group-3" transform="translate(14.000000, 0.000000)">
                        <g id="Group-20" transform="translate(6.871560, 0.000000)">
                            <g id="Group" transform="translate(73.597146, 6.290411)">
                                <polygon id="Path" points="0.347780996 0.14901361 13.7621908 0.14901361 13.7621908 3.12928581 3.47780996 3.12928581 3.47780996 9.0898302 13.1659948 9.0898302 13.1659948 12.0701024 3.47780996 12.0701024 3.47780996 21.010919 0.347780996 21.010919"></polygon>
                                <path d="M25.5370617,19.3717693 L25.3880127,19.3717693 C25.0899147,19.7691389 24.7421337,20.0671661 24.2949867,20.3651933 C23.5994247,20.8619054 22.4567157,21.3089462 20.9165427,21.3089462 C17.6374648,21.3089462 15.5507788,19.4214405 15.5507788,16.6895243 C15.5507788,13.7092521 17.4884158,11.7720752 21.6617877,11.7720752 L25.3880127,11.7720752 L25.3880127,11.474048 C25.3880127,9.53687103 24.1956207,8.34476215 22.2579837,8.34476215 C20.1712977,8.34476215 19.2770038,9.53687103 19.1279548,10.4309527 L16.1469748,10.4309527 C16.2960238,7.94739253 18.5317588,5.81153079 22.2579837,5.81153079 C26.1829407,5.81153079 28.3689926,7.99706373 28.3689926,11.474048 L28.3689926,21.010919 L25.8351597,21.010919 L25.5370617,19.3717693 Z M25.3880127,14.1562929 L21.8108367,14.1562929 C19.5254188,14.1562929 18.5317588,15.1993882 18.5317588,16.5405107 C18.5317588,17.8816332 19.4260528,18.7757148 21.2146407,18.7757148 C23.9472057,18.7757148 25.3880127,17.2855787 25.3880127,14.7523474 L25.3880127,14.1562929 L25.3880127,14.1562929 Z" id="Shape"></path>
                                <path d="M45.9567744,15.7954426 C45.4599444,18.0306468 43.5719904,21.3089462 39.1005205,21.3089462 C34.7780996,21.3089462 31.6480706,18.1796604 31.6480706,13.5602385 C31.6480706,8.94081659 34.7780996,5.81153079 39.1005205,5.81153079 C43.5719904,5.81153079 45.4599444,9.13950141 45.9567744,11.1760207 L42.9757945,11.1760207 C42.4789645,9.83489825 41.3859385,8.49377576 39.1005205,8.49377576 C36.5666875,8.49377576 34.6290506,10.4806239 34.6290506,13.5602385 C34.6290506,16.6398531 36.5666875,18.6267012 39.1005205,18.6267012 C41.4853045,18.6267012 42.6280135,16.9875515 42.9757945,15.7954426 L45.9567744,15.7954426 Z" id="Path"></path>
                                <path d="M62.6502622,16.6895243 C61.9547002,18.6267012 59.8183312,21.3089462 55.9430573,21.3089462 C51.6206363,21.3089462 48.4906074,18.1796604 48.4906074,13.5602385 C48.4906074,8.94081659 51.6206363,5.81153079 55.9430573,5.81153079 C59.9673802,5.81153079 63.0974092,8.94081659 63.0974092,13.1131977 C63.0974092,13.5602385 63.0477262,13.9079369 62.9980432,14.2059641 L62.9483602,14.6033338 L51.4715873,14.6033338 C51.8193683,17.1365651 53.5582733,18.7757148 55.9430573,18.7757148 C57.7316453,18.7757148 59.0234032,17.7326196 59.5202332,16.6895243 L62.6502622,16.6895243 L62.6502622,16.6895243 Z M60.2654782,12.3681296 C59.9176972,9.98391186 58.3278413,8.34476215 55.9430573,8.34476215 C53.4092243,8.34476215 51.9187343,9.98391186 51.4715873,12.3681296 L60.2654782,12.3681296 Z" id="Shape"></path>
                                <path d="M66.6745852,0.14901361 L69.6555651,0.14901361 L69.6555651,7.89772132 L69.8046141,7.89772132 C70.3014441,7.35133809 71.5435191,5.81153079 74.4251331,5.81153079 C78.35009,5.81153079 81.281387,8.79180298 81.281387,13.5602385 C81.281387,18.328674 78.35009,21.3089462 74.4251331,21.3089462 C71.5435191,21.3089462 70.2517611,19.8188101 69.8046141,19.2227557 L69.6555651,19.2227557 L69.3574671,21.010919 L66.6745852,21.010919 L66.6745852,0.14901361 Z M78.300407,13.5602385 C78.300407,10.4806239 76.36277,8.49377576 73.9779861,8.49377576 C71.5932021,8.49377576 69.6555651,10.4806239 69.6555651,13.5602385 C69.6555651,16.6398531 71.5932021,18.6267012 73.9779861,18.6267012 C76.36277,18.6267012 78.300407,16.6895243 78.300407,13.5602385 Z" id="Shape"></path>
                                <path d="M83.9642689,13.5602385 C83.9642689,8.94081659 87.0942979,5.81153079 91.4167188,5.81153079 C95.7391398,5.81153079 98.8691687,8.94081659 98.8691687,13.5602385 C98.8691687,18.1796604 95.7391398,21.3089462 91.4167188,21.3089462 C87.0942979,21.3089462 83.9642689,18.1796604 83.9642689,13.5602385 Z M95.8881888,13.5602385 C95.8881888,10.4806239 93.9505518,8.49377576 91.4167188,8.49377576 C88.8828859,8.49377576 86.9452489,10.4806239 86.9452489,13.5602385 C86.9452489,16.6398531 88.8828859,18.6267012 91.4167188,18.6267012 C93.9505518,18.6267012 95.8881888,16.6895243 95.8881888,13.5602385 Z" id="Shape"></path>
                                <path d="M101.552051,13.5602385 C101.552051,8.94081659 104.68208,5.81153079 109.004501,5.81153079 C113.326922,5.81153079 116.456951,8.94081659 116.456951,13.5602385 C116.456951,18.1796604 113.326922,21.3089462 109.004501,21.3089462 C104.68208,21.3089462 101.552051,18.1796604 101.552051,13.5602385 Z M113.475971,13.5602385 C113.475971,10.4806239 111.538334,8.49377576 109.004501,8.49377576 C106.470668,8.49377576 104.533031,10.4806239 104.533031,13.5602385 C104.533031,16.6398531 106.470668,18.6267012 109.004501,18.6267012 C111.538334,18.6267012 113.475971,16.6895243 113.475971,13.5602385 Z" id="Shape"></path>
                                <polygon id="Path" points="120.034126 0.14901361 123.015106 0.14901361 123.015106 12.9641841 129.275164 6.109558 132.85234 6.109558 126.145135 13.4112249 133.150438 21.010919 129.573262 21.010919 123.015106 13.8582657 123.015106 21.010919 120.034126 21.010919"></polygon>
                            </g>
                            <path d="M4.58534025,17.3958275 L0,17.3958275 L0,11.8132123 L4.58534025,11.8132123 L4.58534025,7.37702712 C4.58534025,5.03432256 5.21280786,3.23991056 6.46774309,1.94394633 C7.72267832,0.647982111 9.4120142,0 11.5357507,0 C13.2250866,0 14.6248221,0.0996895556 15.6866903,0.249223889 L15.6866903,5.23370167 L12.8389527,5.23370167 C11.7770844,5.23370167 11.0530833,5.48292556 10.6186827,5.98137334 C10.2808155,6.38013156 10.1360153,7.02811367 10.1360153,7.92531967 L10.1360153,11.8132123 L15.2040229,11.8132123 L14.4800218,17.3958275 L10.1360153,17.3958275 L10.1360153,31.4520548 L4.53707351,31.4520548 L4.53707351,17.3958275 L4.58534025,17.3958275 Z" id="Path"></path>
                        </g>
                        <g id="Group-19" transform="translate(0.981651, 66.835616)">
                            <g id="Group" transform="translate(78.421183, 3.812324)">
                                <polygon id="Path" points="6.76032323 3.16840188 0.198833036 3.16840188 0.198833036 0.15087628 16.4534337 0.15087628 16.4534337 3.16840188 9.89194355 3.16840188 9.89194355 21.2735555 6.76032323 21.2735555"></polygon>
                                <polygon id="Path" points="15.8569346 6.18592748 18.988555 6.18592748 21.8219257 17.3507722 22.4184248 17.3507722 25.3512121 6.18592748 29.3278728 6.18592748 32.2606601 17.3507722 32.8571592 17.3507722 35.69053 6.18592748 38.8221503 6.18592748 34.7957813 21.2735555 30.4711628 21.2735555 27.637792 10.4104633 27.0412929 10.4104633 24.2079222 21.2735555 19.8833036 21.2735555"></polygon>
                                <path d="M41.2081468,0.15087628 L44.4888919,0.15087628 L44.4888919,3.31927816 L41.2081468,3.31927816 L41.2081468,0.15087628 Z M41.3572715,6.18592748 L44.3397671,6.18592748 L44.3397671,21.2735555 L41.3572715,21.2735555 L41.3572715,6.18592748 Z" id="Shape"></path>
                                <path d="M49.7082591,9.0525768 L47.3222626,9.0525768 L47.3222626,6.18592748 L49.7082591,6.18592748 L49.7082591,1.96139164 L52.6907546,1.96139164 L52.6907546,6.18592748 L56.1206245,6.18592748 L56.1206245,9.0525768 L52.6907546,9.0525768 L52.6907546,17.6525248 C52.6907546,18.2560299 52.9890042,18.5577824 53.5855033,18.5577824 L56.1206245,18.5577824 L56.1206245,21.2735555 L52.9890042,21.2735555 C50.851549,21.2735555 49.7082591,20.0665452 49.7082591,18.1051536 L49.7082591,9.0525768 Z" id="Path"></path>
                                <path d="M60.8926173,9.0525768 L58.5066209,9.0525768 L58.5066209,6.18592748 L60.8926173,6.18592748 L60.8926173,1.96139164 L63.8751129,1.96139164 L63.8751129,6.18592748 L67.3049828,6.18592748 L67.3049828,9.0525768 L63.8751129,9.0525768 L63.8751129,17.6525248 C63.8751129,18.2560299 64.1733624,18.5577824 64.7698616,18.5577824 L67.3049828,18.5577824 L67.3049828,21.2735555 L64.1733624,21.2735555 C62.0359073,21.2735555 60.8926173,20.0665452 60.8926173,18.1051536 L60.8926173,9.0525768 Z" id="Path"></path>
                                <path d="M83.7087083,16.8981434 C83.0127926,18.859535 80.8753375,21.575308 76.9980933,21.575308 C72.6734747,21.575308 69.5418544,18.4069062 69.5418544,13.7297415 C69.5418544,9.0525768 72.6734747,5.88417492 76.9980933,5.88417492 C81.0244623,5.88417492 84.1560826,9.0525768 84.1560826,13.2771126 C84.1560826,13.7297415 84.1063743,14.0817861 84.0566661,14.3835387 L84.0069578,14.7858754 L72.52435,14.7858754 C72.8723078,17.3507722 74.6120968,19.0104113 76.9980933,19.0104113 C78.7875906,19.0104113 80.0800053,17.9542773 80.5770879,16.8981434 L83.7087083,16.8981434 L83.7087083,16.8981434 Z M81.3227118,12.5227312 C80.974754,10.1087108 79.3840897,8.44907168 76.9980933,8.44907168 C74.4629721,8.44907168 72.9717243,10.1087108 72.52435,12.5227312 L81.3227118,12.5227312 Z" id="Shape"></path>
                                <path d="M87.5859525,6.18592748 L90.1210737,6.18592748 L90.4193232,7.543814 L90.568448,7.543814 C91.0655306,6.99060097 91.5626132,6.18592748 93.4018188,6.18592748 L96.0860648,6.18592748 L96.0860648,8.90170052 L93.7000683,8.90170052 C91.6123214,8.90170052 90.568448,9.95783448 90.568448,12.0198103 L90.568448,21.2735555 L87.5859525,21.2735555 L87.5859525,6.18592748 L87.5859525,6.18592748 Z" id="Path"></path>
                            </g>
                            <path d="M29.1920782,7.4875963 C29.1920782,10.5437581 28.4318679,13.4980477 26.9621278,16.3504654 C25.4417071,19.3556911 23.313118,21.7496845 20.5763607,23.5324455 C17.5861999,25.5189506 14.1399129,26.5376712 10.2374997,26.5376712 C6.4871285,26.5376712 3.09152217,25.5698867 0,23.5324455 C0.456126222,23.5833815 1.01361383,23.5833815 1.57110143,23.5833815 C4.66262361,23.5833815 7.45006163,22.615597 9.88273482,20.7309639 C8.41299477,20.7309639 7.09529679,20.2725396 5.98032158,19.4066271 C4.86534637,18.5407146 4.105136,17.420122 3.64900978,16.1467213 C4.05445531,16.1976573 4.45990084,16.1976573 4.86534637,16.1976573 C5.47351467,16.1976573 6.03100227,16.1467213 6.63917057,15.9939132 C5.11874983,15.637361 3.85173254,14.8733205 2.83811872,13.6508558 C1.82450489,12.4283911 1.31769798,11.0021823 1.31769798,9.42316541 L1.31769798,9.32129335 C2.22995042,9.88158967 3.24356425,10.1872058 4.30785877,10.1872058 C3.44628701,9.52503747 2.68607664,8.76099703 2.12858904,7.74227644 C1.57110143,6.77449189 1.31769798,5.70483527 1.31769798,4.5333066 C1.31769798,3.36177793 1.62178212,2.24118529 2.28063111,1.17152867 C3.95309393,3.25990587 5.92964089,4.88985881 8.36231408,6.16325954 C10.7443066,7.38572424 13.2783411,8.04789262 16.0150985,8.20070071 C15.9137371,7.69134041 15.8630564,7.18198012 15.8630564,6.67261983 C15.8630564,5.50109116 16.1671405,4.38049851 16.7246282,3.3108419 C17.3327964,2.29212132 18.1436875,1.42620882 19.1573013,0.865912497 C20.1709152,0.254680146 21.2858904,0 22.4515463,0 C23.4144794,0 24.3267319,0.203744117 25.1376229,0.560296322 C25.948514,0.967784556 26.6580437,1.47714485 27.3168926,2.0883772 C28.8373134,1.78276102 30.2563727,1.27340073 31.5740707,0.509360292 C31.0672638,2.0883772 30.1043307,3.3108419 28.6345906,4.22769043 C29.9016079,4.07488234 31.1686252,3.66739411 32.4356425,3.15803381 C31.4727093,4.5333066 30.3577341,5.70483527 29.0907168,6.67261983 C29.1920782,6.82542792 29.1920782,7.13104409 29.1920782,7.4875963" id="Path"></path>
                        </g>
                        <g id="Group-18" transform="translate(0.981651, 133.671233)">
                            <g id="Group" transform="translate(77.379737, 1.213147)">
                                <polygon id="Path" points="8.04782056 13.2654507 0.447101142 0.145774184 3.92455447 0.145774184 9.38912399 9.62109612 9.98525885 9.62109612 15.3007947 0.145774184 18.778248 0.145774184 11.1775286 13.2654507 11.1775286 20.5541599 8.04782056 20.5541599 8.04782056 13.2654507"></polygon>
                                <path d="M18.3311468,13.2654507 C18.3311468,8.74645101 21.4608548,5.68519316 25.7828326,5.68519316 C30.1048103,5.68519316 33.2345183,8.74645101 33.2345183,13.2654507 C33.2345183,17.7844504 30.1048103,20.8457083 25.7828326,20.8457083 C21.4608548,20.8457083 18.3311468,17.7844504 18.3311468,13.2654507 Z M30.253844,13.2654507 C30.253844,10.2527842 28.3164057,8.30912846 25.7828326,8.30912846 C23.2492594,8.30912846 21.3118211,10.2527842 21.3118211,13.2654507 C21.3118211,16.2781172 23.2492594,18.2217729 25.7828326,18.2217729 C28.3164057,18.2217729 30.253844,16.3267086 30.253844,13.2654507 Z" id="Shape"></path>
                                <path d="M36.6622937,5.97674153 L39.642968,5.97674153 L39.642968,14.7231925 C39.642968,16.6182569 41.182983,18.2217729 43.2197771,18.2217729 C45.4552828,18.2217729 47.0946537,16.6182569 47.0946537,14.7231925 L47.0946537,5.97674153 L50.075328,5.97674153 L50.075328,20.5541599 L47.3927211,20.5541599 L47.0946537,19.096418 L46.94562,19.096418 C46.5978746,19.4365578 46.2501293,19.7281062 45.8527061,19.9710631 C45.1572154,20.4083857 44.0146236,20.8457083 42.6236423,20.8457083 C39.0468331,20.8457083 36.6622937,18.5619127 36.6622937,14.7231925 L36.6622937,5.97674153 Z" id="Path"></path>
                                <path d="M55.4405417,8.74645101 L53.0560022,8.74645101 L53.0560022,5.97674153 L55.4405417,5.97674153 L55.4405417,1.89506439 L58.421216,1.89506439 L58.421216,5.97674153 L61.8489914,5.97674153 L61.8489914,8.74645101 L58.421216,8.74645101 L58.421216,17.0555795 C58.421216,17.6386762 58.7192834,17.9302246 59.3154182,17.9302246 L61.8489914,17.9302246 L61.8489914,20.5541599 L58.7192834,20.5541599 C56.5831335,20.5541599 55.4405417,19.3879664 55.4405417,17.492902 L55.4405417,8.74645101 Z" id="Path"></path>
                                <path d="M64.8296657,5.97674153 L67.8103399,5.97674153 L67.8103399,14.7231925 C67.8103399,16.6182569 69.350355,18.2217729 71.3871491,18.2217729 C73.6226548,18.2217729 75.2620257,16.6182569 75.2620257,14.7231925 L75.2620257,5.97674153 L78.2426999,5.97674153 L78.2426999,20.5541599 L75.5600931,20.5541599 L75.2620257,19.096418 L75.1129919,19.096418 C74.7652466,19.4365578 74.4175013,19.7281062 74.020078,19.9710631 C73.3245874,20.4083857 72.1819956,20.8457083 70.7910142,20.8457083 C67.2142051,20.8457083 64.8296657,18.5619127 64.8296657,14.7231925 L64.8296657,5.97674153 Z" id="Path"></path>
                                <path d="M82.5646776,0.145774184 L85.5453519,0.145774184 L85.5453519,7.72603173 L85.6943856,7.72603173 C86.1911647,7.19152639 87.4331123,5.68519316 90.3144308,5.68519316 C94.2389853,5.68519316 97.1699816,8.60067683 97.1699816,13.2654507 C97.1699816,17.9302246 94.2389853,20.8457083 90.3144308,20.8457083 C87.4331123,20.8457083 86.1414868,19.3879664 85.6943856,18.8048697 L85.5453519,18.8048697 L85.2472845,20.5541599 L82.5646776,20.5541599 L82.5646776,0.145774184 Z M94.1893074,13.2654507 C94.1893074,10.2527842 92.2518691,8.30912846 89.8673296,8.30912846 C87.4827902,8.30912846 85.5453519,10.2527842 85.5453519,13.2654507 C85.5453519,16.2781172 87.4827902,18.2217729 89.8673296,18.2217729 C92.2518691,18.2217729 94.1893074,16.3267086 94.1893074,13.2654507 Z" id="Shape"></path>
                                <path d="M114.010791,16.3267086 C113.315301,18.2217729 111.179151,20.8457083 107.304274,20.8457083 C102.982296,20.8457083 99.8525885,17.7844504 99.8525885,13.2654507 C99.8525885,8.74645101 102.982296,5.68519316 107.304274,5.68519316 C111.328184,5.68519316 114.457892,8.74645101 114.457892,12.8281282 C114.457892,13.2654507 114.408215,13.6055905 114.358537,13.8971388 L114.308859,14.28587 L102.833263,14.28587 C103.181008,16.7640311 104.919735,18.3675471 107.304274,18.3675471 C109.092679,18.3675471 110.384304,17.3471278 110.881083,16.3267086 L114.010791,16.3267086 L114.010791,16.3267086 Z M111.626252,12.0992572 C111.278507,9.7668703 109.688814,8.16335428 107.304274,8.16335428 C104.770701,8.16335428 103.280364,9.7668703 102.833263,12.0992572 L111.626252,12.0992572 Z" id="Shape"></path>
                            </g>
                            <path d="M30.7228427,3.35464919 C30.9718123,4.37562937 31.1709879,5.8827906 31.3203696,7.92475097 L31.3701635,10.744601 L31.3203696,13.5644511 C31.2207818,15.6550295 31.0216062,17.2108089 30.7228427,18.231789 C30.5236671,18.8638244 30.1751097,19.4472417 29.6771706,19.9334227 C29.1792315,20.4196037 28.5817046,20.7599305 27.8845898,20.9544029 C26.8887116,21.1974934 24.5483978,21.3919658 20.8636485,21.489202 L15.6352879,21.5378201 L10.4069273,21.489202 C6.7221779,21.3919658 4.43165802,21.1974934 3.43577982,20.9544029 C2.73866507,20.7599305 2.14113815,20.4196037 1.64319904,19.9334227 C1.14525994,19.4472417 0.796702566,18.9124425 0.597526925,18.231789 C0.348557373,17.2108089 0.149381731,15.6550295 0.0497939104,13.5644511 L0,10.744601 C0,9.91809324 0,8.99434926 0.0497939104,7.92475097 C0.149381731,5.8827906 0.348557373,4.32701127 0.597526925,3.35464919 C0.796702566,2.67399573 1.14525994,2.09057848 1.64319904,1.60439744 C2.14113815,1.1182164 2.73866507,0.777889666 3.43577982,0.58341725 C4.43165802,0.340326729 6.77197181,0.145854312 10.4069273,0.0486181041 L15.6352879,0 L20.8636485,0.0486181041 C24.5483978,0.145854312 26.8389177,0.340326729 27.8845898,0.58341725 C28.5817046,0.777889666 29.1792315,1.1182164 29.6771706,1.60439744 C30.2249036,2.13919658 30.5236671,2.67399573 30.7228427,3.35464919 M12.4982715,15.3633209 L20.7142667,10.7932191 L12.4982715,6.27173543 L12.4982715,15.3633209 Z" id="Shape"></path>
                        </g>
                        <g id="Group-17" transform="translate(0.000000, 191.660959)">
                            <g id="Group" transform="translate(80.772374, 7.049946)">
                                <polygon id="Path" points="0.347156814 0.147917922 3.47156814 0.147917922 3.47156814 20.8564269 0.347156814 20.8564269"></polygon>
                                <path d="M7.9350129,6.06463478 L10.6130798,6.06463478 L10.9106427,7.543814 L11.0594242,7.543814 C11.406581,7.19867218 11.7537379,6.90283634 12.1504885,6.65630647 C12.8448021,6.21255271 13.9358664,5.76879894 15.3740875,5.76879894 C18.9448433,5.76879894 21.3253472,8.08617971 21.3253472,11.9813516 L21.3253472,20.8564269 L18.3497173,20.8564269 L18.3497173,11.9813516 C18.3497173,10.0584187 16.8123086,8.43132153 14.7789615,8.43132153 C12.5472391,8.43132153 10.9106427,10.0584187 10.9106427,11.9813516 L10.9106427,20.8564269 L7.9350129,20.8564269 L7.9350129,6.06463478 Z" id="Path"></path>
                                <path d="M27.227013,16.4188893 C27.227013,17.3063968 28.2684835,18.6376581 30.6489873,18.6376581 C32.8807097,18.6376581 33.7733986,17.6515386 33.7733986,16.7147251 C33.7733986,15.6792997 33.2278665,15.038322 31.5416763,14.7917922 L28.8636094,14.3480384 C25.9871672,13.8549787 24.5489462,12.5730233 24.5489462,10.0584187 C24.5489462,7.69173192 26.4831055,5.76879894 30.5002058,5.76879894 C34.8148691,5.76879894 36.600247,8.72715737 36.600247,10.3542545 L33.6246172,10.3542545 C33.6246172,9.46674698 32.7319282,8.28340361 30.5002058,8.28340361 C28.3676711,8.28340361 27.524576,9.12160516 27.524576,10.0584187 C27.524576,10.9952322 28.4172649,11.5869039 29.7562984,11.8334337 L32.4343652,12.2771875 C35.3108074,12.7702472 36.7490285,14.2494264 36.7490285,16.7147251 C36.7490285,19.0814119 34.8148691,21.1522628 30.6489873,21.1522628 C25.8879796,21.1522628 24.2513832,18.0459864 24.2513832,16.4188893 L27.227013,16.4188893 L27.227013,16.4188893 Z" id="Path"></path>
                                <path d="M40.6669411,8.87507529 L38.2864372,8.87507529 L38.2864372,6.06463478 L40.6669411,6.06463478 L40.6669411,1.92293298 L43.6425709,1.92293298 L43.6425709,6.06463478 L47.0645453,6.06463478 L47.0645453,8.87507529 L43.6425709,8.87507529 L43.6425709,17.3063968 C43.6425709,17.8980685 43.9401339,18.1939044 44.5352599,18.1939044 L47.0645453,18.1939044 L47.0645453,20.8564269 L43.9401339,20.8564269 C41.8075992,20.8564269 40.6669411,19.6730836 40.6669411,17.7501506 L40.6669411,8.87507529 Z" id="Path"></path>
                                <path d="M59.4134091,19.2293298 L59.2646276,19.2293298 C58.9670646,19.6237776 58.6199078,19.9196134 58.1735633,20.2154493 C57.4792497,20.708509 56.3385916,21.1522628 54.8011828,21.1522628 C51.52799,21.1522628 49.4450491,19.2786358 49.4450491,16.5668072 C49.4450491,13.6084488 51.3792085,11.6855158 55.5450903,11.6855158 L59.2646276,11.6855158 L59.2646276,11.38968 C59.2646276,9.46674698 58.0743757,8.28340361 56.1402163,8.28340361 C54.0572754,8.28340361 53.1645864,9.46674698 53.0158049,10.3542545 L50.0401751,10.3542545 C50.1889566,7.88895582 52.420679,5.76879894 56.1402163,5.76879894 C60.0581289,5.76879894 62.2402574,7.93826179 62.2402574,11.38968 L62.2402574,20.8564269 L59.7109721,20.8564269 L59.4134091,19.2293298 Z M59.2646276,14.0522025 L55.6938718,14.0522025 C53.4125556,14.0522025 52.420679,15.087628 52.420679,16.4188893 C52.420679,17.7501506 53.3133679,18.6376581 55.0987458,18.6376581 C57.8264065,18.6376581 59.2646276,17.1584789 59.2646276,14.6438742 L59.2646276,14.0522025 L59.2646276,14.0522025 Z" id="Shape"></path>
                                <path d="M68.9354246,21.7439345 C69.084206,23.0751958 70.3736456,24.4064571 72.8037433,24.4064571 C75.1842472,24.4064571 76.8208436,22.7793599 76.8208436,20.5605911 L76.8208436,18.1939044 L76.6720621,18.1939044 C75.9777485,18.884188 74.8866842,19.9689194 72.0598359,19.9689194 C68.3898924,19.9689194 65.5134502,17.1584789 65.5134502,12.8688592 C65.5134502,8.57923945 68.3898924,5.76879894 72.0598359,5.76879894 C74.9362781,5.76879894 76.1761238,7.10006024 76.6720621,7.69173192 L76.8208436,7.69173192 L77.1184066,6.06463478 L79.7964735,6.06463478 L79.7964735,20.5605911 C79.7964735,24.455763 77.2671881,27.0689796 72.8037433,27.0689796 C67.8939541,27.0689796 66.1085762,23.7654794 65.9597947,21.7439345 L68.9354246,21.7439345 L68.9354246,21.7439345 Z M76.8208436,12.8688592 C76.8208436,10.2063366 75.0354657,8.43132153 72.6549619,8.43132153 C70.274458,8.43132153 68.4890801,10.2063366 68.4890801,12.8688592 C68.4890801,15.5313818 70.274458,17.3063968 72.6549619,17.3063968 C75.0354657,17.3063968 76.8208436,15.5313818 76.8208436,12.8688592 Z" id="Shape"></path>
                                <path d="M83.9623552,6.06463478 L86.4916406,6.06463478 L86.7892036,7.39589608 L86.9379851,7.39589608 C87.4339234,6.85353037 87.9298617,6.06463478 89.7648334,6.06463478 L92.4429003,6.06463478 L92.4429003,8.72715737 L90.0623964,8.72715737 C87.9794555,8.72715737 86.9379851,9.76258282 86.9379851,11.7841278 L86.9379851,20.8564269 L83.9623552,20.8564269 L83.9623552,6.06463478 L83.9623552,6.06463478 Z" id="Path"></path>
                                <path d="M103.799887,19.2293298 L103.651106,19.2293298 C103.353543,19.6237776 103.006386,19.9196134 102.560042,20.2154493 C101.865728,20.708509 100.72507,21.1522628 99.1876612,21.1522628 C95.9144684,21.1522628 93.8315275,19.2786358 93.8315275,16.5668072 C93.8315275,13.6084488 95.7656869,11.6855158 99.9315687,11.6855158 L103.651106,11.6855158 L103.651106,11.38968 C103.651106,9.46674698 102.460854,8.28340361 100.526695,8.28340361 C98.4437538,8.28340361 97.5510648,9.46674698 97.4022833,10.3542545 L94.4266535,10.3542545 C94.575435,7.88895582 96.8071574,5.76879894 100.526695,5.76879894 C104.444607,5.76879894 106.626736,7.93826179 106.626736,11.38968 L106.626736,20.8564269 L104.09745,20.8564269 L103.799887,19.2293298 Z M103.651106,14.0522025 L100.08035,14.0522025 C97.799034,14.0522025 96.8071574,15.087628 96.8071574,16.4188893 C96.8071574,17.7501506 97.6998463,18.6376581 99.4852242,18.6376581 C102.212885,18.6376581 103.651106,17.1584789 103.651106,14.6438742 L103.651106,14.0522025 L103.651106,14.0522025 Z" id="Shape"></path>
                                <path d="M110.643836,6.06463478 L113.321903,6.06463478 L113.619466,7.543814 L113.768247,7.543814 C114.06581,7.19867218 114.412967,6.90283634 114.809718,6.65630647 C115.504032,6.21255271 116.446314,5.76879894 117.636566,5.76879894 C119.173975,5.76879894 120.116258,6.31116465 120.760978,6.80422439 C121.108134,7.14936621 121.405697,7.44520205 121.653667,7.83964984 L121.802448,7.83964984 C122.100011,7.44520205 122.496762,7.14936621 122.943106,6.80422439 C123.736607,6.31116465 124.926859,5.76879894 126.712237,5.76879894 C129.787055,5.76879894 132.068371,8.13548569 132.068371,11.4882919 L132.068371,20.8564269 L129.092741,20.8564269 L129.092741,11.5375979 C129.092741,9.6146649 127.902489,8.43132153 126.117111,8.43132153 C124.28214,8.43132153 122.843918,9.76258282 122.843918,11.5375979 L122.843918,20.8564269 L119.868289,20.8564269 L119.868289,11.5375979 C119.868289,9.6146649 118.678037,8.43132153 116.892659,8.43132153 C115.057687,8.43132153 113.619466,9.76258282 113.619466,11.5375979 L113.619466,20.8564269 L110.643836,20.8564269 L110.643836,6.06463478 L110.643836,6.06463478 Z" id="Path"></path>
                            </g>
                            <path d="M32.3100936,9.47079633 C32.3609756,10.8382375 32.3609756,13.0666602 32.3609756,16.1560643 C32.3609756,19.2961144 32.3100936,21.5245371 32.2592115,22.8919783 C32.1574475,24.2594195 32.0048013,25.4749227 31.6486271,26.4371962 C31.1906888,27.6526994 30.5292223,28.6656188 29.6642276,29.5772463 C28.748351,30.4382278 27.7307102,31.1472713 26.5095413,31.5524391 C25.4919006,31.9069609 24.3216137,32.0588988 22.9477987,32.1601907 C21.5739837,32.2108367 19.3351741,32.2614827 16.1804878,32.2614827 C13.0258015,32.2614827 10.7869919,32.2108367 9.41317687,32.1601907 C8.03936187,32.0588988 6.81819297,31.8563149 5.85143427,31.4511472 C4.63026538,31.0459794 3.61262464,30.4382278 2.69674797,29.5266003 C1.7808713,28.6149729 1.11940482,27.6020535 0.71234852,26.3865502 C0.35617426,25.3736308 0.152646111,24.2087735 0.101764074,22.8413323 C0.0508820371,21.4738911 0,19.2454685 0,16.1054184 C0,12.9653682 0.0508820371,10.7369456 0.101764074,9.36950439 C0.152646111,8.00206321 0.35617426,6.78655993 0.71234852,5.82428651 C1.17028685,4.60878324 1.83175334,3.59586385 2.69674797,2.68423639 C3.61262464,1.77260894 4.63026538,1.11421133 5.85143427,0.709043575 C6.86907501,0.354521788 8.03936187,0.151937909 9.41317687,0.101291939 C10.7869919,0.0506459697 13.0258015,0 16.1804878,0 C19.3351741,0 21.5739837,0.0506459697 22.9477987,0.101291939 C24.3216137,0.151937909 25.5427826,0.354521788 26.5095413,0.709043575 C27.7307102,1.1648573 28.748351,1.77260894 29.6642276,2.68423639 C30.5292223,3.59586385 31.2415708,4.60878324 31.6486271,5.82428651 C31.9539193,6.88785187 32.2083295,8.10335515 32.3100936,9.47079633 M28.799233,25.6775066 C29.1045252,24.8671711 29.2571713,23.5503759 29.3589354,21.777767 C29.4098175,20.7142016 29.4098175,19.2454685 29.4098175,17.3209216 L29.4098175,14.991207 C29.4098175,13.0160142 29.4098175,11.5472811 29.3589354,10.5343617 C29.2571713,8.71110678 29.0536432,7.39431157 28.799233,6.63462203 C28.2395306,5.16588891 27.1710078,4.10232354 25.6954287,3.54521788 C24.9321982,3.24134206 23.6092652,3.03875818 21.7775119,2.98811221 C20.7089891,2.93746624 19.23341,2.88682027 17.2998926,2.88682027 L14.9593189,2.88682027 C13.0258015,2.88682027 11.5502224,2.93746624 10.4816996,2.98811221 C8.70082835,3.08940415 7.37789538,3.29198803 6.56378279,3.54521788 C5.08820371,4.10232354 4.01968093,5.16588891 3.45997852,6.63462203 C3.1546863,7.39431157 2.95115815,8.71110678 2.90027612,10.5343617 C2.84939408,11.5979271 2.79851204,13.0666602 2.79851204,14.991207 L2.79851204,17.3209216 C2.79851204,19.2454685 2.84939408,20.7142016 2.90027612,21.777767 C3.00204019,23.5503759 3.20556834,24.8671711 3.45997852,25.6775066 C4.07056297,27.1462397 5.13908575,28.2098051 6.56378279,28.7669108 C7.37789538,29.0707866 8.70082835,29.2227245 10.4816996,29.3240164 C11.5502224,29.3746624 13.0258015,29.3746624 14.9593189,29.3746624 L17.2998926,29.3746624 C19.2842921,29.3746624 20.7598711,29.3746624 21.7775119,29.3240164 C23.6092652,29.2227245 24.9321982,29.0201406 25.6954287,28.7669108 C27.2218899,28.1591591 28.2395306,27.1462397 28.799233,25.6775066 M16.1804878,7.90077127 C17.6560669,7.90077127 19.0807639,8.25529306 20.3528148,9.0149826 C21.6248658,9.77467214 22.6425065,10.7875915 23.4057371,12.0537408 C24.1689676,13.31989 24.5251419,14.6873312 24.5251419,16.2067103 C24.5251419,17.6754434 24.1689676,19.0935306 23.4057371,20.3596798 C22.6425065,21.625829 21.6757478,22.6387484 20.3528148,23.398438 C19.0807639,24.1581275 17.7069489,24.5126493 16.1804878,24.5126493 C14.7049087,24.5126493 13.2802117,24.1581275 12.0081608,23.398438 C10.7361098,22.6387484 9.71846909,21.676475 8.95523853,20.3596798 C8.19200798,19.0935306 7.83583372,17.7260894 7.83583372,16.2067103 C7.83583372,14.7379772 8.19200798,13.31989 8.95523853,12.0537408 C9.71846909,10.7875915 10.7361098,9.77467214 12.0081608,9.0149826 C13.2802117,8.25529306 14.6540267,7.90077127 16.1804878,7.90077127 M16.1804878,21.5751831 C17.6560669,21.5751831 18.9281178,21.0687234 19.9966406,20.005158 C21.0651634,18.9415927 21.5739837,17.6754434 21.5739837,16.2067103 C21.5739837,14.7379772 21.0651634,13.4718279 19.9966406,12.4082626 C18.9281178,11.3446972 17.6560669,10.8382375 16.1804878,10.8382375 C14.7049087,10.8382375 13.4328578,11.3446972 12.364335,12.4082626 C11.2958122,13.4718279 10.7869919,14.7379772 10.7869919,16.2067103 C10.7869919,17.6754434 11.2958122,18.9415927 12.364335,20.005158 C13.3819758,21.0687234 14.6540267,21.5751831 16.1804878,21.5751831 M26.8148336,7.54624948 C26.8148336,7.03978978 26.6113054,6.58397606 26.2551312,6.1788083 C25.8480749,5.77364054 25.3901365,5.62170263 24.8813162,5.62170263 C24.3724958,5.62170263 23.8636754,5.82428651 23.5075012,6.1788083 C23.1004449,6.58397606 22.9477987,6.98914381 22.9477987,7.54624948 C22.9477987,8.05270918 23.1513269,8.55916887 23.5075012,8.91369066 C23.9145574,9.31885842 24.3724958,9.47079633 24.8813162,9.47079633 C25.3901365,9.47079633 25.8480749,9.26821245 26.2042491,8.91369066 C26.5604234,8.5085229 26.7639515,8.05270918 26.8148336,7.54624948" id="Shape"></path>
                        </g>
                        <g id="Group-16" transform="translate(3.926606, 256.530822)">
                            <g id="Group" transform="translate(74.963103, 6.688202)">
                                <polygon id="Path" points="6.73166397 3.13602996 0.197990117 3.13602996 0.197990117 0.14933476 16.3836822 0.14933476 16.3836822 3.13602996 9.85000831 3.13602996 9.85000831 21.0562011 6.73166397 21.0562011"></polygon>
                                <path d="M19.0565487,0.14933476 L22.3233857,0.14933476 L22.3233857,3.28536472 L19.0565487,3.28536472 L19.0565487,0.14933476 Z M19.2050413,6.12272516 L22.1748931,6.12272516 L22.1748931,21.0562011 L19.2050413,21.0562011 L19.2050413,6.12272516 Z" id="Shape"></path>
                                <polygon id="Path" points="26.4316806 0.14933476 29.4015323 0.14933476 29.4015323 12.9921241 35.638221 6.12272516 39.2020431 6.12272516 32.5198767 13.4401284 39.4990283 21.0562011 35.9352062 21.0562011 29.4015323 13.8881327 29.4015323 21.0562011 26.4316806 21.0562011"></polygon>
                                <polygon id="Path" points="53.2098439 3.13602996 46.67617 3.13602996 46.67617 0.14933476 62.8618621 0.14933476 62.8618621 3.13602996 56.3281882 3.13602996 56.3281882 21.0562011 53.2098439 21.0562011"></polygon>
                                <path d="M63.1588473,13.5894632 C63.1588473,8.96008559 66.2771916,5.82405564 70.5834766,5.82405564 C74.8897617,5.82405564 78.008106,8.96008559 78.008106,13.5894632 C78.008106,18.2188407 74.8897617,21.3548707 70.5834766,21.3548707 C66.2771916,21.3548707 63.1588473,18.2188407 63.1588473,13.5894632 Z M75.0382543,13.5894632 C75.0382543,10.5032114 73.1078506,8.51208131 70.5834766,8.51208131 C68.0591027,8.51208131 66.128699,10.5032114 66.128699,13.5894632 C66.128699,16.6757149 68.0591027,18.666845 70.5834766,18.666845 C73.1078506,18.666845 75.0382543,16.7254931 75.0382543,13.5894632 Z" id="Shape"></path>
                                <polygon id="Path" points="81.5719281 0.14933476 84.5417799 0.14933476 84.5417799 12.9921241 90.7784686 6.12272516 94.3422907 6.12272516 87.6601242 13.4401284 94.6392758 21.0562011 91.0754537 21.0562011 84.5417799 13.8881327 84.5417799 21.0562011 81.5719281 21.0562011"></polygon>
                            </g>
                            <path d="M25.1606013,6.79312823 C21.9601334,6.54338087 19.3997591,4.04590725 19.0550933,0.799191556 L18.9566174,0 L13.1957752,0 L13.1465373,20.9288289 C13.1465373,22.8269088 11.4724464,24.3753425 9.50292768,24.3753425 C7.58264696,24.3753425 6.007032,22.7769594 6.007032,20.8289299 C6.007032,18.8809005 7.58264696,17.2825174 9.50292768,17.2825174 C9.60140361,17.2825174 9.69987955,17.2825174 9.89683142,17.3324669 L10.9308287,17.4823153 L10.9308287,11.2885807 L10.0937833,11.2386313 C9.89683142,11.2386313 9.69987955,11.1886818 9.50292768,11.1886818 C4.28370315,11.1886818 0,15.4843364 0,20.8289299 C0,26.123574 4.23446518,30.4691781 9.50292768,30.4691781 C14.7221522,30.4691781 19.0058554,26.123574 19.0058554,20.8289299 L19.0058554,11.4384291 C20.6799462,12.8869638 22.8956548,13.5862565 25.2098392,13.3864586 L26.0468847,13.2865596 L26.0468847,6.8430777 L25.1606013,6.79312823 Z" id="Path"></path>
                        </g>
                    </g>
                </g>
            </g>
        </g>
    </g>
</svg>