<?xml version="1.0" encoding="UTF-8"?>
<svg width="19px" height="18px" viewBox="0 0 19 18" version="1.1" xmlns="http://www.w3.org/2000/svg" xmlns:xlink="http://www.w3.org/1999/xlink">
    <title>Fill 37</title>
    <g id="Desktop" stroke="none" stroke-width="1" fill="none" fill-rule="evenodd">
        <g id="Home_1440" transform="translate(-1009.000000, -11470.000000)" fill="#000000">
            <g id="Roadmap" transform="translate(-25.000000, 10810.000000)">
                <g transform="translate(0.000000, 248.000000)" id="Group-45">
                    <g transform="translate(1032.000000, 289.853000)">
                        <path d="M18.7982,130.9467 C18.5422,131.9007 18.1452,132.8097 17.6162,133.6447 C17.2812,134.1847 16.8952,134.6907 16.4692,135.1567 C16.9512,133.1847 16.6222,130.7637 15.4352,128.4977 C15.3602,128.3497 15.1792,128.2927 15.0312,128.3667 C15.0262,128.3727 15.0142,128.3787 15.0082,128.3837 L11.3102,130.6967 C11.1672,130.7817 11.1222,130.9687 11.2132,131.1107 L11.7582,131.9797 C11.8442,132.1227 12.0312,132.1627 12.1672,132.0767 L12.1732,132.0767 L14.5702,130.5767 C14.6512,130.8097 14.7242,131.0427 14.7812,131.2757 C15.0082,132.0997 15.0942,132.9577 15.0362,133.8157 C14.9232,135.3267 14.3102,136.5037 13.3042,137.1287 C12.7862,137.4407 12.2012,137.6107 11.5942,137.6227 L11.5202,137.6227 C10.9122,137.6107 10.3202,137.4457 9.8042,137.1287 C8.7982,136.5037 8.1852,135.3267 8.0702,133.8157 C8.0202,132.9577 8.1002,132.0997 8.3262,131.2697 C8.8502,129.3547 9.9232,127.6387 11.4122,126.3327 C12.0542,125.7637 12.7922,125.3097 13.5822,124.9857 C14.9912,124.4287 16.3162,124.4637 17.3202,125.0937 C18.3202,125.7187 18.9352,126.8947 19.0482,128.4007 C19.1102,129.2597 19.0202,130.1167 18.7982,130.9467 M5.4852,133.6447 C4.9572,132.8097 4.5662,131.9007 4.3102,130.9467 C4.0822,130.1167 4.0032,129.2597 4.0542,128.4067 C4.1672,126.8947 4.7812,125.7187 5.7872,125.0937 C6.7872,124.4687 8.1102,124.4287 9.5202,124.9917 C9.7302,125.0717 9.9412,125.1677 10.1512,125.2757 C9.3662,125.9917 8.6852,126.8097 8.1222,127.7137 C6.5762,130.1967 6.1052,132.9577 6.6392,135.1567 C6.2072,134.6907 5.8262,134.1847 5.4852,133.6447 M18.1852,123.7137 C16.2862,122.5257 13.7812,122.8037 11.5542,124.2077 C9.3262,122.8037 6.8202,122.5257 4.9232,123.7137 C1.9172,125.5887 1.5542,130.4237 4.1052,134.5087 C5.9912,137.5197 8.9352,139.2877 11.5542,139.2537 C14.1792,139.2877 17.1162,137.5197 18.9972,134.5087 C21.5482,130.4237 21.1912,125.5887 18.1852,123.7137" id="Fill-37"></path>
                    </g>
                </g>
            </g>
        </g>
    </g>
</svg>