<?xml version="1.0" encoding="UTF-8"?>
<svg width="266px" height="62px" viewBox="0 0 266 62" version="1.1" xmlns="http://www.w3.org/2000/svg" xmlns:xlink="http://www.w3.org/1999/xlink">
    <title>Group 10</title>
    <g id="Desktop" stroke="none" stroke-width="1" fill="none" fill-rule="evenodd">
        <g id="Credit-card-fraud_1440" transform="translate(-514.000000, -1510.000000)" fill="#000000" fill-rule="nonzero">
            <g id="Apollo_Stratus_Socnet" transform="translate(189.000000, 1246.000000)">
                <g id="Group-10" transform="translate(325.000000, 264.000000)">
                    <g id="Group" transform="translate(76.021519, 2.891927)">
                        <path d="M16.2952813,17.9562698 L16.152757,17.9562698 C15.725184,18.477428 15.2025948,18.9512082 14.6324975,19.3776104 C13.5873191,20.0882807 12.0670596,20.798951 9.88168662,20.798951 C4.65579466,20.798951 0.332556761,16.6770632 0.332556761,10.5652986 C0.332556761,4.45353393 4.65579466,0.331646144 9.88168662,0.331646144 C14.870038,0.331646144 18.0530813,3.74286362 18.8607192,7.1540811 L15.725184,7.1540811 C14.7275137,4.54828997 12.4946326,3.17432738 9.88168662,3.17432738 C6.12854603,3.17432738 3.32556761,6.01700861 3.32556761,10.5652986 C3.32556761,15.1135886 6.12854603,17.9562698 9.88168662,17.9562698 C13.3022705,17.9562698 16.0102327,15.3031006 16.0102327,12.6973095 L16.0102327,12.5551754 L10.4517839,12.5551754 L10.4517839,10.1388964 L19.0032435,10.1388964 L19.0032435,20.5146829 L16.58033,20.5146829 L16.2952813,17.9562698 Z" id="Path"></path>
                        <path d="M22.281303,13.4079798 C22.281303,9.00182391 25.2743139,6.01700861 29.4075193,6.01700861 C33.5407248,6.01700861 36.5337356,9.00182391 36.5337356,13.4079798 C36.5337356,17.8141357 33.5407248,20.798951 29.4075193,20.798951 C25.2743139,20.798951 22.281303,17.8141357 22.281303,13.4079798 Z M33.6832491,13.4079798 C33.6832491,10.4705425 31.8304329,8.57542172 29.4075193,8.57542172 C26.9846058,8.57542172 25.1317895,10.4705425 25.1317895,13.4079798 C25.1317895,16.3454171 26.9846058,18.2405379 29.4075193,18.2405379 C31.8304329,18.2405379 33.6832491,16.3927951 33.6832491,13.4079798 Z" id="Shape"></path>
                        <path d="M39.0991735,13.4079798 C39.0991735,9.00182391 42.0921844,6.01700861 46.2253898,6.01700861 C50.3585953,6.01700861 53.3516061,9.00182391 53.3516061,13.4079798 C53.3516061,17.8141357 50.3585953,20.798951 46.2253898,20.798951 C42.0921844,20.798951 39.0991735,17.8141357 39.0991735,13.4079798 Z M50.5011196,13.4079798 C50.5011196,10.4705425 48.6483034,8.57542172 46.2253898,8.57542172 C43.8024763,8.57542172 41.94966,10.4705425 41.94966,13.4079798 C41.94966,16.3454171 43.8024763,18.2405379 46.2253898,18.2405379 C48.6483034,18.2405379 50.5011196,16.3927951 50.5011196,13.4079798 Z" id="Shape"></path>
                        <path d="M59.1951035,21.3674873 C59.3376279,22.6466938 60.5728387,23.9259004 62.900736,23.9259004 C65.1811252,23.9259004 66.7488928,22.3624257 66.7488928,20.2304148 L66.7488928,17.9562698 L66.6063685,17.9562698 C65.941255,18.6195621 64.8960766,19.6618785 62.1881144,19.6618785 C58.6725143,19.6618785 55.917044,16.9613314 55.917044,12.8394436 C55.917044,8.71755578 58.6725143,6.01700861 62.1881144,6.01700861 C64.9435847,6.01700861 66.1312874,7.29621517 66.6063685,7.86475141 L66.7488928,7.86475141 L67.0339415,6.30127673 L69.5993793,6.30127673 L69.5993793,20.2304148 C69.5993793,23.9732784 67.1764658,26.4843135 62.900736,26.4843135 C58.1974332,26.4843135 56.4871413,23.3099861 56.344617,21.3674873 L59.1951035,21.3674873 L59.1951035,21.3674873 Z M66.7488928,12.8394436 C66.7488928,10.2810305 65.0386009,8.57542172 62.7582117,8.57542172 C60.4778225,8.57542172 58.7675305,10.2810305 58.7675305,12.8394436 C58.7675305,15.3978567 60.4778225,17.1034654 62.7582117,17.1034654 C65.0386009,17.1034654 66.7488928,15.3978567 66.7488928,12.8394436 Z" id="Shape"></path>
                        <polygon id="Path" points="73.7325848 0.615914267 76.5830713 0.615914267 76.5830713 20.5146829 73.7325848 20.5146829"></polygon>
                        <path d="M93.5434662,16.3927951 C92.8783526,18.2405379 90.835504,20.798951 87.1298715,20.798951 C82.996666,20.798951 80.0036552,17.8141357 80.0036552,13.4079798 C80.0036552,9.00182391 82.996666,6.01700861 87.1298715,6.01700861 C90.9780283,6.01700861 93.9710391,9.00182391 93.9710391,12.9815776 C93.9710391,13.4079798 93.923531,13.739626 93.8760229,14.0238941 L93.8285148,14.4029183 L82.8541417,14.4029183 C83.1866985,16.8191973 84.8494823,18.382672 87.1298715,18.382672 C88.8401634,18.382672 90.0753742,17.3877335 90.5504553,16.3927951 L93.5434662,16.3927951 L93.5434662,16.3927951 Z M91.2630769,12.2709073 C90.9305202,9.99676234 89.4102607,8.43328766 87.1298715,8.43328766 C84.7069579,8.43328766 83.2817147,9.99676234 82.8541417,12.2709073 L91.2630769,12.2709073 Z" id="Shape"></path>
                        <path d="M4.51317986,46.4029183 C4.51317986,48.2506611 6.41350421,49.9562698 9.35900695,49.9562698 C12.6370665,49.9562698 13.9197854,48.6770632 13.9197854,46.9714545 C13.9197854,45.5027359 12.7795908,44.5551754 10.4992016,44.1287733 L6.65104475,43.418103 C3.46800147,42.8495667 1.94774199,40.9070679 1.94774199,38.1591427 C1.94774199,34.8900593 4.65570418,32.3316461 9.0739583,32.3316461 C14.0623097,32.3316461 16.6277476,35.1743274 16.6277476,38.7276789 L13.6347367,38.7276789 C13.6347367,36.8799361 11.9244448,35.1743274 9.0739583,35.1743274 C6.3659961,35.1743274 4.94075284,36.54829 4.94075284,38.1591427 C4.94075284,39.4383492 5.74839069,40.4332877 7.93376369,40.8596898 L11.0692989,41.4282261 C15.1074881,42.1388964 16.9127962,43.7971271 16.9127962,46.9714545 C16.9127962,50.2405379 14.3473584,52.798951 9.35900695,52.798951 C4.37065553,52.798951 1.52016901,49.9562698 1.52016901,46.4029183 L4.51317986,46.4029183 L4.51317986,46.4029183 Z" id="Path"></path>
                        <path d="M33.1130613,48.3927951 C32.4479478,50.2405379 30.4050991,52.798951 26.6994667,52.798951 C22.5662612,52.798951 19.5732503,49.8141357 19.5732503,45.4079798 C19.5732503,41.0018239 22.5662612,38.0170086 26.6994667,38.0170086 C30.5476235,38.0170086 33.5406343,41.0018239 33.5406343,44.9815776 C33.5406343,45.4079798 33.4931262,45.739626 33.4456181,46.0238941 L33.39811,46.4029183 L22.4237369,46.4029183 C22.7562936,48.8191973 24.4190774,50.382672 26.6994667,50.382672 C28.4097586,50.382672 29.6449694,49.3877335 30.1200505,48.3927951 L33.1130613,48.3927951 L33.1130613,48.3927951 Z M30.8326721,44.2709073 C30.5001154,41.9967623 28.9798559,40.4332877 26.6994667,40.4332877 C24.2765531,40.4332877 22.8513098,41.9967623 22.4237369,44.2709073 L30.8326721,44.2709073 Z" id="Shape"></path>
                        <path d="M45.7977264,50.9512082 L45.6552021,50.9512082 C45.3701534,51.3302324 45.0375966,51.6145005 44.6100237,51.8987686 C43.9449101,52.3725488 42.8522236,52.798951 41.3794723,52.798951 C38.2439371,52.798951 36.2485965,50.9985862 36.2485965,48.3927951 C36.2485965,45.5501139 38.1014128,43.7023711 42.0920939,43.7023711 L45.6552021,43.7023711 L45.6552021,43.418103 C45.6552021,41.5703602 44.5150074,40.4332877 42.6621912,40.4332877 C40.6668506,40.4332877 39.8117047,41.5703602 39.6691803,42.4231645 L36.8186938,42.4231645 C36.9612181,40.0542635 39.099083,38.0170086 42.6621912,38.0170086 C46.4153318,38.0170086 48.5056886,40.1016415 48.5056886,43.418103 L48.5056886,52.5146829 L46.082775,52.5146829 L45.7977264,50.9512082 Z M45.6552021,45.9765161 L42.2346182,45.9765161 C40.0492452,45.9765161 39.099083,46.9714545 39.099083,48.2506611 C39.099083,49.5298676 39.954229,50.382672 41.6645209,50.382672 C44.2774669,50.382672 45.6552021,48.9613314 45.6552021,46.5450523 L45.6552021,45.9765161 L45.6552021,45.9765161 Z" id="Shape"></path>
                        <path d="M52.3538454,38.3012767 L54.7767589,38.3012767 L55.0618076,39.5804833 L55.2043319,39.5804833 C55.679413,39.0593251 56.1544941,38.3012767 57.9122941,38.3012767 L60.477732,38.3012767 L60.477732,40.8596898 L58.1973428,40.8596898 C56.2020022,40.8596898 55.2043319,41.8546283 55.2043319,43.7971271 L55.2043319,52.5146829 L52.3538454,52.5146829 L52.3538454,38.3012767 Z" id="Path"></path>
                        <path d="M75.34777,47.5399907 C74.8726889,49.6720017 73.0673808,52.798951 68.791651,52.798951 C64.6584456,52.798951 61.6654347,49.8141357 61.6654347,45.4079798 C61.6654347,41.0018239 64.6584456,38.0170086 68.791651,38.0170086 C73.0673808,38.0170086 74.8726889,41.191336 75.34777,43.1338348 L72.4972835,43.1338348 C72.0222024,41.8546283 70.977024,40.5754217 68.791651,40.5754217 C66.3687375,40.5754217 64.5159212,42.4705425 64.5159212,45.4079798 C64.5159212,48.3454171 66.3687375,50.2405379 68.791651,50.2405379 C71.0720402,50.2405379 72.1647267,48.6770632 72.4972835,47.5399907 L75.34777,47.5399907 Z" id="Path"></path>
                        <path d="M78.6258295,32.6159143 L81.4763161,32.6159143 L81.4763161,39.7226174 L81.6188404,39.7226174 C81.9513972,39.3909712 82.2839539,39.1067031 82.6640188,38.869813 C83.3291323,38.4434108 84.3743107,38.0170086 85.7520459,38.0170086 C89.1726297,38.0170086 91.4530189,40.2437756 91.4530189,43.9866392 L91.4530189,52.5146829 L88.6025324,52.5146829 L88.6025324,43.9866392 C88.6025324,42.1388964 87.129781,40.5754217 85.1819485,40.5754217 C83.0440837,40.5754217 81.4763161,42.1388964 81.4763161,43.9866392 L81.4763161,52.5146829 L78.6258295,52.5146829 L78.6258295,32.6159143 Z" id="Path"></path>
                        <polygon id="Path" points="102.569916 32.6159143 115.682154 32.6159143 115.682154 35.4585955 105.562927 35.4585955 105.562927 41.143958 115.112057 41.143958 115.112057 43.9866392 105.562927 43.9866392 105.562927 49.6720017 115.682154 49.6720017 115.682154 52.5146829 102.569916 52.5146829"></polygon>
                        <path d="M119.387787,38.3012767 L121.953225,38.3012767 L122.238273,39.7226174 L122.380798,39.7226174 C122.713354,39.3909712 123.045911,39.1067031 123.425976,38.869813 C124.09109,38.4434108 125.136268,38.0170086 126.514003,38.0170086 C129.934587,38.0170086 132.214976,40.2437756 132.214976,43.9866392 L132.214976,52.5146829 L129.36449,52.5146829 L129.36449,43.9866392 C129.36449,42.1388964 127.891738,40.5754217 125.943906,40.5754217 C123.806041,40.5754217 122.238273,42.1388964 122.238273,43.9866392 L122.238273,52.5146829 L119.387787,52.5146829 L119.387787,38.3012767 Z" id="Path"></path>
                        <path d="M138.628571,53.3674873 C138.771095,54.6466938 140.006306,55.9259004 142.334203,55.9259004 C144.614593,55.9259004 146.18236,54.3624257 146.18236,52.2304148 L146.18236,49.9562698 L146.039836,49.9562698 C145.374722,50.6195621 144.329544,51.6618785 141.621582,51.6618785 C138.105982,51.6618785 135.350511,48.9613314 135.350511,44.8394436 C135.350511,40.7175558 138.105982,38.0170086 141.621582,38.0170086 C144.377052,38.0170086 145.564755,39.2962152 146.039836,39.8647514 L146.18236,39.8647514 L146.467409,38.3012767 L149.032847,38.3012767 L149.032847,52.2304148 C149.032847,55.9732784 146.609933,58.4843135 142.334203,58.4843135 C137.630901,58.4843135 135.920609,55.3099861 135.778084,53.3674873 L138.628571,53.3674873 L138.628571,53.3674873 Z M146.18236,44.8394436 C146.18236,42.2810305 144.472068,40.5754217 142.191679,40.5754217 C139.91129,40.5754217 138.200998,42.2810305 138.200998,44.8394436 C138.200998,47.3978567 139.91129,49.1034654 142.191679,49.1034654 C144.472068,49.1034654 146.18236,47.3978567 146.18236,44.8394436 Z" id="Shape"></path>
                        <path d="M152.881004,32.6159143 L156.016539,32.6159143 L156.016539,35.6007296 L152.881004,35.6007296 L152.881004,32.6159143 Z M153.023528,38.3012767 L155.874014,38.3012767 L155.874014,52.5146829 L153.023528,52.5146829 L153.023528,38.3012767 Z" id="Shape"></path>
                        <path d="M159.864696,38.3012767 L162.430133,38.3012767 L162.715182,39.7226174 L162.857706,39.7226174 C163.190263,39.3909712 163.52282,39.1067031 163.902885,38.869813 C164.567998,38.4434108 165.613177,38.0170086 166.990912,38.0170086 C170.411496,38.0170086 172.691885,40.2437756 172.691885,43.9866392 L172.691885,52.5146829 L169.841398,52.5146829 L169.841398,43.9866392 C169.841398,42.1388964 168.368647,40.5754217 166.420815,40.5754217 C164.28295,40.5754217 162.715182,42.1388964 162.715182,43.9866392 L162.715182,52.5146829 L159.864696,52.5146829 L159.864696,38.3012767 Z" id="Path"></path>
                        <path d="M189.367231,48.3927951 C188.702118,50.2405379 186.659269,52.798951 182.953636,52.798951 C178.820431,52.798951 175.82742,49.8141357 175.82742,45.4079798 C175.82742,41.0018239 178.820431,38.0170086 182.953636,38.0170086 C186.801793,38.0170086 189.794804,41.0018239 189.794804,44.9815776 C189.794804,45.4079798 189.747296,45.739626 189.699788,46.0238941 L189.65228,46.4029183 L178.677907,46.4029183 C179.010463,48.8191973 180.673247,50.382672 182.953636,50.382672 C184.663928,50.382672 185.899139,49.3877335 186.37422,48.3927951 L189.367231,48.3927951 L189.367231,48.3927951 Z M187.086842,44.2709073 C186.754285,41.9967623 185.234026,40.4332877 182.953636,40.4332877 C180.530723,40.4332877 179.10548,41.9967623 178.677907,44.2709073 L187.086842,44.2709073 Z" id="Shape"></path>
                    </g>
                    <path d="M26,13.308958 C26,20.7239488 20.83859,26 13.2170686,26 C5.93320965,26 0,20.2010969 0,12.976234 C0,5.75137112 5.88497217,0 13.2170686,0 C16.7866419,0 19.729128,1.2833638 22.0445269,3.37477148 L18.4749536,6.79707495 C13.7959184,2.32906764 5.06493506,5.70383912 5.06493506,12.976234 C5.06493506,17.4917733 8.7309833,21.1992687 13.2170686,21.1992687 C18.4267161,21.1992687 20.4044527,17.4917733 20.6938776,15.5904936 L13.2170686,15.5904936 L13.2170686,11.1224863 L25.7588126,11.1224863 C25.903525,11.7879342 26,12.4533821 26,13.308958" id="Path"></path>
                </g>
            </g>
        </g>
    </g>
</svg>