<?xml version="1.0" encoding="UTF-8"?>
<svg width="15px" height="16px" viewBox="0 0 15 16" version="1.1" xmlns="http://www.w3.org/2000/svg" xmlns:xlink="http://www.w3.org/1999/xlink">
    <title>Fill 39</title>
    <g id="Desktop" stroke="none" stroke-width="1" fill="none" fill-rule="evenodd">
        <g id="Home_1440" transform="translate(-1011.000000, -11399.000000)" fill="#000000">
            <g id="Roadmap" transform="translate(-25.000000, 10810.000000)">
                <g transform="translate(0.000000, 248.000000)" id="Group-45">
                    <g transform="translate(1032.000000, 289.853000)">
                        <path d="M18.9681,59.1459 C18.9681,63.4449 16.0231,66.5079 11.6761,66.5079 C7.5071,66.5079 4.1361,63.1379 4.1361,58.9679 C4.1361,54.7989 7.5071,51.4339 11.6761,51.4339 C13.7051,51.4339 15.4081,52.1729 16.7271,53.4039 L14.6751,55.3779 C11.9891,52.7889 7.0041,54.7339 7.0041,58.9679 C7.0041,61.5999 9.1041,63.7289 11.6761,63.7289 C14.6571,63.7289 15.7801,61.5879 15.9521,60.4829 L11.6761,60.4829 L11.6761,57.8859 L18.8501,57.8859 C18.9211,58.2769 18.9681,58.6429 18.9681,59.1459" id="Fill-39"></path>
                    </g>
                </g>
            </g>
        </g>
    </g>
</svg>