<?xml version="1.0" encoding="UTF-8"?>
<svg width="17px" height="17px" viewBox="0 0 17 17" version="1.1" xmlns="http://www.w3.org/2000/svg" xmlns:xlink="http://www.w3.org/1999/xlink">
    <title>Fill 17</title>
    <g id="Desktop" stroke="none" stroke-width="1" fill="none" fill-rule="evenodd">
        <g id="Home_1440" transform="translate(-394.000000, -11397.000000)" fill="#000000">
            <g id="Roadmap" transform="translate(-25.000000, 10810.000000)">
                <g transform="translate(0.000000, 248.000000)" id="Group-21">
                    <g transform="translate(417.000000, 289.853000)">
                        <path d="M16.1234,53.4789 C16.1234,53.2119 16.0244,52.9859 15.8324,52.7929 C15.6404,52.6009 15.4074,52.5019 15.1464,52.5019 C14.8804,52.5019 14.6474,52.6009 14.4564,52.7929 C14.2644,52.9859 14.1704,53.2119 14.1704,53.4789 C14.1704,53.7459 14.2644,53.9769 14.4564,54.1689 C14.6474,54.3619 14.8804,54.4559 15.1464,54.4559 C15.4074,54.4559 15.6354,54.3619 15.8164,54.1689 C15.9944,53.9769 16.0984,53.7459 16.1234,53.4789 M10.8014,60.5369 C11.5514,60.5369 12.1864,60.2699 12.7204,59.7429 C13.2474,59.2099 13.5144,58.5739 13.5144,57.8239 C13.5144,57.0749 13.2474,56.4379 12.7204,55.9059 C12.1864,55.3729 11.5514,55.1119 10.8014,55.1119 C10.0514,55.1119 9.4154,55.3729 8.8824,55.9059 C8.3504,56.4379 8.0884,57.0749 8.0884,57.8239 C8.0884,58.5739 8.3504,59.2099 8.8824,59.7429 C9.4154,60.2699 10.0514,60.5369 10.8014,60.5369 M10.8014,53.6619 C11.5514,53.6619 12.2414,53.8489 12.8824,54.2179 C13.5234,54.5979 14.0264,55.1009 14.4014,55.7429 C14.7764,56.3789 14.9644,57.0749 14.9644,57.8239 C14.9644,58.5739 14.7764,59.2639 14.4014,59.9059 C14.0264,60.5459 13.5234,61.0489 12.8824,61.4239 C12.2414,61.7989 11.5514,61.9869 10.8014,61.9869 C10.0514,61.9869 9.3554,61.7989 8.7204,61.4239 C8.0784,61.0489 7.5754,60.5459 7.1954,59.9059 C6.8254,59.2639 6.6384,58.5739 6.6384,57.8239 C6.6384,57.0749 6.8254,56.3789 7.1954,55.7429 C7.5754,55.1009 8.0784,54.5979 8.7204,54.2179 C9.3554,53.8489 10.0514,53.6619 10.8014,53.6619 M17.1344,62.6029 C17.2824,62.1939 17.3754,61.5379 17.4254,60.6449 C17.4494,60.1179 17.4594,59.3679 17.4594,58.4059 L17.4594,57.2419 C17.4594,56.2549 17.4494,55.5059 17.4254,55.0019 C17.3754,54.0849 17.2824,53.4289 17.1344,53.0439 C16.8434,52.2949 16.3304,51.7769 15.5804,51.4909 C15.1954,51.3429 14.5394,51.2449 13.6224,51.1999 C13.0954,51.1749 12.3454,51.1609 11.3834,51.1609 L10.2194,51.1609 C9.2574,51.1609 8.5084,51.1749 7.9794,51.1999 C7.0824,51.2449 6.4314,51.3429 6.0214,51.4909 C5.2714,51.7769 4.7544,52.2949 4.4684,53.0439 C4.3204,53.4289 4.2224,54.0849 4.1774,55.0019 C4.1524,55.5309 4.1384,56.2809 4.1384,57.2419 L4.1384,58.4059 C4.1384,59.3679 4.1524,60.1179 4.1774,60.6449 C4.2224,61.5379 4.3204,62.1939 4.4684,62.6029 C4.7784,63.3479 5.2974,63.8659 6.0214,64.1569 C6.4314,64.3049 7.0824,64.3989 7.9794,64.4479 C8.5084,64.4729 9.2574,64.4829 10.2194,64.4829 L11.3834,64.4829 C12.3694,64.4829 13.1194,64.4729 13.6224,64.4479 C14.5394,64.3989 15.1954,64.3049 15.5804,64.1569 C16.3304,63.8459 16.8434,63.3289 17.1344,62.6029 M18.8754,54.4559 C18.8944,55.1309 18.9094,56.2549 18.9094,57.8239 C18.9094,59.3929 18.8904,60.5219 18.8554,61.2079 C18.8154,61.8979 18.7174,62.4949 18.5504,62.9979 C18.3324,63.6049 17.9974,64.1269 17.5534,64.5769 C17.1044,65.0199 16.5814,65.3559 15.9754,65.5729 C15.4724,65.7409 14.8754,65.8389 14.1854,65.8779 C13.4994,65.9129 12.3694,65.9329 10.8014,65.9329 C9.2324,65.9329 8.1024,65.9129 7.4174,65.8779 C6.7274,65.8389 6.1304,65.7249 5.6274,65.5329 C5.0204,65.3409 4.4974,65.0199 4.0494,64.5769 C3.6004,64.1269 3.2694,63.6049 3.0534,62.9979 C2.8854,62.4949 2.7814,61.8979 2.7464,61.2079 C2.7124,60.5219 2.6924,59.3929 2.6924,57.8239 C2.6924,56.2549 2.7124,55.1259 2.7464,54.4409 C2.7814,53.7499 2.8854,53.1529 3.0534,52.6499 C3.2694,52.0429 3.6004,51.5209 4.0494,51.0719 C4.4974,50.6239 5.0204,50.2919 5.6274,50.0759 C6.1304,49.9079 6.7274,49.8039 7.4174,49.7699 C8.1024,49.7349 9.2324,49.7149 10.8014,49.7149 C12.3694,49.7149 13.4994,49.7349 14.1854,49.7699 C14.8754,49.8039 15.4724,49.9079 15.9754,50.0759 C16.5814,50.2919 17.1044,50.6239 17.5534,51.0719 C17.9974,51.5209 18.3324,52.0429 18.5504,52.6499 C18.7174,53.1529 18.8254,53.7549 18.8754,54.4559" id="Fill-17"></path>
                    </g>
                </g>
            </g>
        </g>
    </g>
</svg>