<?xml version="1.0" encoding="UTF-8"?>
<svg width="204px" height="33px" viewBox="0 0 204 33" version="1.1" xmlns="http://www.w3.org/2000/svg" xmlns:xlink="http://www.w3.org/1999/xlink">
    <title>Group 17</title>
    <g id="Desktop" stroke="none" stroke-width="1" fill="none" fill-rule="evenodd">
        <g id="Credit-card-fraud_1440" transform="translate(-189.000000, -1445.000000)" fill="#000000" fill-rule="nonzero">
            <g id="Apollo_Stratus_Socnet" transform="translate(189.000000, 1246.000000)">
                <g id="Group-17" transform="translate(0.000000, 199.000000)">
                    <g id="Group" transform="translate(77.375405, 6.774280)">
                        <polygon id="Path" points="0.332556761 0.142134062 3.32556761 0.142134062 3.32556761 20.0409027 0.332556761 20.0409027"></polygon>
                        <path d="M7.6012974,5.82749653 L10.1667353,5.82749653 L10.4517839,7.24883715 L10.5943083,7.24883715 C10.926865,6.917191 11.2594218,6.63292288 11.6394866,6.39603278 C12.3046002,5.96963059 13.3497786,5.54322841 14.7275137,5.54322841 C18.1480975,5.54322841 20.4284868,7.76999537 20.4284868,11.512859 L20.4284868,20.0409027 L17.5780002,20.0409027 L17.5780002,11.512859 C17.5780002,9.66511619 16.1052489,8.10164152 14.1574164,8.10164152 C12.0195515,8.10164152 10.4517839,9.66511619 10.4517839,11.512859 L10.4517839,20.0409027 L7.6012974,20.0409027 L7.6012974,5.82749653 Z" id="Path"></path>
                        <path d="M26.0819517,15.7768808 C26.0819517,16.6296852 27.079622,17.9088918 29.3600112,17.9088918 C31.4978761,17.9088918 32.3530221,16.9613314 32.3530221,16.061149 C32.3530221,15.0662105 31.8304329,14.4502963 30.2151572,14.2134062 L27.6497193,13.787004 C24.894249,13.3132238 23.5165138,12.0813952 23.5165138,9.66511619 C23.5165138,7.39097121 25.3693301,5.54322841 29.2174869,5.54322841 C33.3506924,5.54322841 35.0609843,8.38590964 35.0609843,9.94938432 L32.2104977,9.94938432 C32.2104977,9.09657995 31.3553518,7.95950745 29.2174869,7.95950745 C27.1746382,7.95950745 26.3670004,8.7649338 26.3670004,9.66511619 C26.3670004,10.5652986 27.2221463,11.1338348 28.5048653,11.3707249 L31.0703031,11.7971271 C33.8257734,12.2709073 35.2035086,13.6922479 35.2035086,16.061149 C35.2035086,18.335294 33.3506924,20.3251708 29.3600112,20.3251708 C24.7992328,20.3251708 23.2314652,17.3403555 23.2314652,15.7768808 L26.0819517,15.7768808 L26.0819517,15.7768808 Z" id="Path"></path>
                        <path d="M38.9566492,8.5280437 L36.67626,8.5280437 L36.67626,5.82749653 L38.9566492,5.82749653 L38.9566492,1.8477428 L41.8071357,1.8477428 L41.8071357,5.82749653 L45.0851952,5.82749653 L45.0851952,8.5280437 L41.8071357,8.5280437 L41.8071357,16.6296852 C41.8071357,17.1982215 42.0921844,17.4824896 42.6622817,17.4824896 L45.0851952,17.4824896 L45.0851952,20.0409027 L42.0921844,20.0409027 C40.0493357,20.0409027 38.9566492,18.9038302 38.9566492,17.0560874 L38.9566492,8.5280437 Z" id="Path"></path>
                        <path d="M56.9147143,18.477428 L56.77219,18.477428 C56.4871413,18.8564522 56.1545846,19.1407203 55.7270116,19.4249884 C55.0618981,19.8987686 53.9692116,20.3251708 52.4964602,20.3251708 C49.360925,20.3251708 47.3655844,18.524806 47.3655844,15.9190149 C47.3655844,13.0763337 49.2184007,11.2285909 53.2090818,11.2285909 L56.77219,11.2285909 L56.77219,10.9443227 C56.77219,9.09657995 55.6319954,7.95950745 53.7791791,7.95950745 C51.7838386,7.95950745 50.9286926,9.09657995 50.7861683,9.94938432 L47.9356817,9.94938432 C48.0782061,7.58048329 50.216071,5.54322841 53.7791791,5.54322841 C57.5323197,5.54322841 59.6226765,7.62786131 59.6226765,10.9443227 L59.6226765,20.0409027 L57.199763,20.0409027 L56.9147143,18.477428 Z M56.77219,13.5027359 L53.3516061,13.5027359 C51.1662331,13.5027359 50.216071,14.4976743 50.216071,15.7768808 C50.216071,17.0560874 51.0712169,17.9088918 52.7815088,17.9088918 C55.3944548,17.9088918 56.77219,16.4875512 56.77219,14.0712721 L56.77219,13.5027359 L56.77219,13.5027359 Z" id="Shape"></path>
                        <path d="M66.0362712,20.8937071 C66.1787955,22.1729136 67.4140063,23.4521202 69.7419037,23.4521202 C72.0222929,23.4521202 73.5900605,21.8886455 73.5900605,19.7566346 L73.5900605,17.4824896 L73.4475362,17.4824896 C72.7824226,18.1457819 71.7372442,19.1880983 69.029282,19.1880983 C65.513682,19.1880983 62.7582117,16.4875512 62.7582117,12.3656634 C62.7582117,8.24377558 65.513682,5.54322841 69.029282,5.54322841 C71.7847523,5.54322841 72.9724551,6.82243496 73.4475362,7.39097121 L73.5900605,7.39097121 L73.8751091,5.82749653 L76.440547,5.82749653 L76.440547,19.7566346 C76.440547,23.4994982 74.0176335,26.0105333 69.7419037,26.0105333 C65.0386009,26.0105333 63.328309,22.8362059 63.1857847,20.8937071 L66.0362712,20.8937071 L66.0362712,20.8937071 Z M73.5900605,12.3656634 C73.5900605,9.80725026 71.8797686,8.10164152 69.5993793,8.10164152 C67.3189901,8.10164152 65.6086982,9.80725026 65.6086982,12.3656634 C65.6086982,14.9240765 67.3189901,16.6296852 69.5993793,16.6296852 C71.8797686,16.6296852 73.5900605,14.9240765 73.5900605,12.3656634 Z" id="Shape"></path>
                        <path d="M80.4312281,5.82749653 L82.8541417,5.82749653 L83.1391903,7.10670308 L83.2817147,7.10670308 C83.7567958,6.58554486 84.2318768,5.82749653 85.9896769,5.82749653 L88.5551147,5.82749653 L88.5551147,8.38590964 L86.2747255,8.38590964 C84.279385,8.38590964 83.2817147,9.38084807 83.2817147,11.3233469 L83.2817147,20.0409027 L80.4312281,20.0409027 L80.4312281,5.82749653 L80.4312281,5.82749653 Z" id="Path"></path>
                        <path d="M99.4344717,18.477428 L99.2919473,18.477428 C99.0068987,18.8564522 98.6743419,19.1407203 98.2467689,19.4249884 C97.5816554,19.8987686 96.4889689,20.3251708 95.0162175,20.3251708 C91.8806824,20.3251708 89.8853418,18.524806 89.8853418,15.9190149 C89.8853418,13.0763337 91.738158,11.2285909 95.7288392,11.2285909 L99.2919473,11.2285909 L99.2919473,10.9443227 C99.2919473,9.09657995 98.1517527,7.95950745 96.2989365,7.95950745 C94.3035959,7.95950745 93.4484499,9.09657995 93.3059256,9.94938432 L90.4554391,9.94938432 C90.5979634,7.58048329 92.7358283,5.54322841 96.2989365,5.54322841 C100.052077,5.54322841 102.142434,7.62786131 102.142434,10.9443227 L102.142434,20.0409027 L99.7195203,20.0409027 L99.4344717,18.477428 Z M99.2919473,13.5027359 L95.8713635,13.5027359 C93.6859905,13.5027359 92.7358283,14.4976743 92.7358283,15.7768808 C92.7358283,17.0560874 93.5909743,17.9088918 95.3012662,17.9088918 C97.9142122,17.9088918 99.2919473,16.4875512 99.2919473,14.0712721 L99.2919473,13.5027359 L99.2919473,13.5027359 Z" id="Shape"></path>
                        <path d="M105.990591,5.82749653 L108.556029,5.82749653 L108.841077,7.24883715 L108.983602,7.24883715 C109.26865,6.917191 109.601207,6.63292288 109.981272,6.39603278 C110.646385,5.96963059 111.549039,5.54322841 112.689234,5.54322841 C114.161985,5.54322841 115.064639,6.06438663 115.682245,6.53816684 C116.014802,6.86981298 116.29985,7.1540811 116.537391,7.53310527 L116.679915,7.53310527 C116.964964,7.1540811 117.345029,6.86981298 117.772602,6.53816684 C118.532731,6.06438663 119.672926,5.54322841 121.383218,5.54322841 C124.328721,5.54322841 126.514094,7.81737339 126.514094,11.0390788 L126.514094,20.0409027 L123.663607,20.0409027 L123.663607,11.0864568 C123.663607,9.23871401 122.523413,8.10164152 120.813121,8.10164152 C119.055321,8.10164152 117.677585,9.38084807 117.677585,11.0864568 L117.677585,20.0409027 L114.827099,20.0409027 L114.827099,11.0864568 C114.827099,9.23871401 113.686904,8.10164152 111.976612,8.10164152 C110.218812,8.10164152 108.841077,9.38084807 108.841077,11.0864568 L108.841077,20.0409027 L105.990591,20.0409027 L105.990591,5.82749653 L105.990591,5.82749653 Z" id="Path"></path>
                    </g>
                    <path d="M30.9512579,9.10047096 C31,10.4144427 31,12.55573 31,15.5243328 C31,18.5416013 30.9512579,20.6828885 30.9025157,21.9968603 C30.8050314,23.310832 30.658805,24.4788069 30.3176101,25.4034537 C29.8789308,26.5714286 29.245283,27.544741 28.4166667,28.4207221 C27.5393082,29.2480377 26.5644654,29.9293564 25.3946541,30.3186813 C24.4198113,30.6593407 23.2987421,30.8053375 21.9827044,30.9026688 C20.6666667,30.9513344 18.5220126,31 15.5,31 C12.4779874,31 10.3333333,30.9513344 9.0172956,30.9026688 C7.70125786,30.8053375 6.53144654,30.610675 5.60534591,30.2213501 C4.43553459,29.8320251 3.46069182,29.2480377 2.58333333,28.3720565 C1.70597484,27.4960754 1.07232704,26.522763 0.682389937,25.3547881 C0.341194969,24.3814757 0.146226415,23.2621664 0.0974842767,21.9481947 C0.0487421384,20.6342229 0,18.4929356 0,15.4756672 C0,12.4583987 0.0487421384,10.3171115 0.0974842767,9.00313972 C0.146226415,7.68916797 0.341194969,6.52119309 0.682389937,5.59654631 C1.12106918,4.42857143 1.75471698,3.45525903 2.58333333,2.57927786 C3.46069182,1.7032967 4.43553459,1.07064364 5.60534591,0.681318681 C6.58018868,0.340659341 7.70125786,0.14599686 9.0172956,0.0973312402 C10.3333333,0.0486656201 12.4779874,0 15.5,0 C18.5220126,0 20.6666667,0.0486656201 21.9827044,0.0973312402 C23.2987421,0.14599686 24.4685535,0.340659341 25.3946541,0.681318681 C26.5644654,1.11930926 27.5393082,1.7032967 28.4166667,2.57927786 C29.245283,3.45525903 29.927673,4.42857143 30.3176101,5.59654631 C30.6100629,6.61852433 30.8537736,7.78649922 30.9512579,9.10047096 M27.5880503,24.6734694 C27.8805031,23.8948195 28.0267296,22.6295133 28.1242138,20.9262166 C28.172956,19.9042386 28.172956,18.4929356 28.172956,16.6436421 L28.172956,14.4050235 C28.172956,12.5070644 28.172956,11.0957614 28.1242138,10.122449 C28.0267296,8.37048666 27.831761,7.10518053 27.5880503,6.37519623 C27.0518868,4.96389325 26.0283019,3.94191523 24.6147799,3.40659341 C23.8836478,3.11459969 22.6163522,2.91993721 20.8616352,2.87127159 C19.8380503,2.82260597 18.4245283,2.77394035 16.572327,2.77394035 L14.3301887,2.77394035 C12.4779874,2.77394035 11.0644654,2.82260597 10.0408805,2.87127159 C8.33490566,2.96860283 7.06761006,3.16326531 6.28773585,3.40659341 C4.87421384,3.94191523 3.85062893,4.96389325 3.31446541,6.37519623 C3.02201258,7.10518053 2.82704403,8.37048666 2.77830189,10.122449 C2.72955975,11.144427 2.68081761,12.55573 2.68081761,14.4050235 L2.68081761,16.6436421 C2.68081761,18.4929356 2.72955975,19.9042386 2.77830189,20.9262166 C2.87578616,22.6295133 3.07075472,23.8948195 3.31446541,24.6734694 C3.89937107,26.0847724 4.92295597,27.1067504 6.28773585,27.6420722 C7.06761006,27.9340659 8.33490566,28.0800628 10.0408805,28.177394 C11.0644654,28.2260597 12.4779874,28.2260597 14.3301887,28.2260597 L16.572327,28.2260597 C18.4732704,28.2260597 19.8867925,28.2260597 20.8616352,28.177394 C22.6163522,28.0800628 23.8836478,27.8854003 24.6147799,27.6420722 C26.077044,27.0580848 27.0518868,26.0847724 27.5880503,24.6734694 M15.5,7.59183673 C16.913522,7.59183673 18.2783019,7.93249608 19.4968553,8.66248038 C20.7154088,9.39246468 21.6902516,10.3657771 22.4213836,11.5824176 C23.1525157,12.7990581 23.4937107,14.1130298 23.4937107,15.5729984 C23.4937107,16.9843014 23.1525157,18.3469388 22.4213836,19.5635793 C21.6902516,20.7802198 20.7641509,21.7535322 19.4968553,22.4835165 C18.2783019,23.2135008 16.9622642,23.5541601 15.5,23.5541601 C14.086478,23.5541601 12.7216981,23.2135008 11.5031447,22.4835165 C10.2845912,21.7535322 9.30974843,20.8288854 8.57861635,19.5635793 C7.84748428,18.3469388 7.50628931,17.032967 7.50628931,15.5729984 C7.50628931,14.1616954 7.84748428,12.7990581 8.57861635,11.5824176 C9.30974843,10.3657771 10.2845912,9.39246468 11.5031447,8.66248038 C12.7216981,7.93249608 14.0377358,7.59183673 15.5,7.59183673 M15.5,20.7315542 C16.913522,20.7315542 18.1320755,20.244898 19.1556604,19.2229199 C20.1792453,18.2009419 20.6666667,16.9843014 20.6666667,15.5729984 C20.6666667,14.1616954 20.1792453,12.9450549 19.1556604,11.9230769 C18.1320755,10.9010989 16.913522,10.4144427 15.5,10.4144427 C14.086478,10.4144427 12.8679245,10.9010989 11.8443396,11.9230769 C10.8207547,12.9450549 10.3333333,14.1616954 10.3333333,15.5729984 C10.3333333,16.9843014 10.8207547,18.2009419 11.8443396,19.2229199 C12.8191824,20.244898 14.0377358,20.7315542 15.5,20.7315542 M25.6871069,7.25117739 C25.6871069,6.76452119 25.4921384,6.32653061 25.1509434,5.93720565 C24.7610063,5.54788069 24.322327,5.40188383 23.8349057,5.40188383 C23.3474843,5.40188383 22.8600629,5.59654631 22.5188679,5.93720565 C22.1289308,6.32653061 21.9827044,6.71585557 21.9827044,7.25117739 C21.9827044,7.73783359 22.177673,8.2244898 22.5188679,8.56514914 C22.908805,8.9544741 23.3474843,9.10047096 23.8349057,9.10047096 C24.322327,9.10047096 24.7610063,8.90580848 25.1022013,8.56514914 C25.4433962,8.17582418 25.6383648,7.73783359 25.6871069,7.25117739" id="Shape"></path>
                </g>
            </g>
        </g>
    </g>
</svg>