<?xml version="1.0" encoding="UTF-8"?>
<svg width="23px" height="23px" viewBox="0 0 23 23" version="1.1" xmlns="http://www.w3.org/2000/svg" xmlns:xlink="http://www.w3.org/1999/xlink">
    <title>insta</title>
    <g id="Desktop" stroke="none" stroke-width="1" fill="none" fill-rule="evenodd">
        <g id="Home_1440" transform="translate(-1346.000000, -13235.000000)">
            <g id="Footer" transform="translate(0.000000, 13174.000000)">
                <g id="Group-6" transform="translate(1036.000000, 47.000000)">
                    <g id="Bottom/Icon-Copy-33" transform="translate(296.000000, 0.000000)">
                        <g id="insta" transform="translate(14.375000, 14.375000)">
                            <path d="M5.41666667,0.208333333 C2.5401875,0.208333333 0.208333333,2.5401875 0.208333333,5.41666667 L0.208333333,15.8333333 C0.208333333,18.7097917 2.5401875,21.0416667 5.41666667,21.0416667 L15.8333333,21.0416667 C18.7097917,21.0416667 21.0416667,18.7097917 21.0416667,15.8333333 L21.0416667,5.41666667 C21.0416667,2.5401875 18.7097917,0.208333333 15.8333333,0.208333333 L5.41666667,0.208333333 Z M10.625,13.75 C12.3509375,13.75 13.75,12.3509375 13.75,10.625 C13.75,8.89911458 12.3509375,7.5 10.625,7.5 C8.89911458,7.5 7.5,8.89911458 7.5,10.625 C7.5,12.3509375 8.89911458,13.75 10.625,13.75 Z" id="Shape" fill="#A7B4CB" opacity="0.6"></path>
                            <path d="M10.625,5.41666667 C13.5014583,5.41666667 15.8333333,7.74852083 15.8333333,10.625 C15.8333333,13.5014583 13.5014583,15.8333333 10.625,15.8333333 C7.74852083,15.8333333 5.41666667,13.5014583 5.41666667,10.625 C5.41666667,7.74852083 7.74852083,5.41666667 10.625,5.41666667 Z M10.625,7.5 C8.89911458,7.5 7.5,8.89911458 7.5,10.625 C7.5,12.3509375 8.89911458,13.75 10.625,13.75 C12.3509375,13.75 13.75,12.3509375 13.75,10.625 C13.75,8.89911458 12.3509375,7.5 10.625,7.5 Z M16.875,3.33333333 C17.4503125,3.33333333 17.9166667,3.79970833 17.9166667,4.375 C17.9166667,4.95029167 17.4503125,5.41666667 16.875,5.41666667 C16.2996875,5.41666667 15.8333333,4.95029167 15.8333333,4.375 C15.8333333,3.79970833 16.2996875,3.33333333 16.875,3.33333333 Z" id="Combined-Shape" fill="#16161F"></path>
                        </g>
                    </g>
                </g>
            </g>
        </g>
    </g>
</svg>