<?xml version="1.0" encoding="UTF-8"?>
<svg width="219px" height="26px" viewBox="0 0 219 26" version="1.1" xmlns="http://www.w3.org/2000/svg" xmlns:xlink="http://www.w3.org/1999/xlink">
    <title>Group 5</title>
    <g id="Desktop" stroke="none" stroke-width="1" fill="none" fill-rule="evenodd">
        <g id="Credit-card-fraud_1440" transform="translate(-513.000000, -1324.000000)" fill="#000000" fill-rule="nonzero">
            <g id="Apollo_Stratus_Socnet" transform="translate(189.000000, 1246.000000)">
                <g id="Group-5" transform="translate(324.000000, 78.000000)">
                    <g id="Group" transform="translate(78.971682, 4.591427)">
                        <polygon id="Path" points="0.237540544 0.142134062 3.2305514 0.142134062 3.2305514 9.23871401 10.8793569 0.142134062 14.6324975 0.142134062 6.36608657 9.94938432 15.2025948 20.0409027 11.4494542 20.0409027 3.2305514 10.6600546 3.2305514 20.0409027 0.237540544 20.0409027 0.237540544 0.142134062"></polygon>
                        <path d="M16.9128867,0.142134062 L20.0484219,0.142134062 L20.0484219,3.12694936 L16.9128867,3.12694936 L16.9128867,0.142134062 Z M17.055411,5.82749653 L19.9058976,5.82749653 L19.9058976,20.0409027 L17.055411,20.0409027 L17.055411,5.82749653 Z" id="Shape"></path>
                        <path d="M36.8187843,15.0662105 C36.3437032,17.1982215 34.5383951,20.3251708 30.2626653,20.3251708 C26.1294598,20.3251708 23.136449,17.3403555 23.136449,12.9341996 C23.136449,8.5280437 26.1294598,5.54322841 30.2626653,5.54322841 C34.5383951,5.54322841 36.3437032,8.71755578 36.8187843,10.6600546 L33.9682978,10.6600546 C33.4932167,9.38084807 32.4480383,8.10164152 30.2626653,8.10164152 C27.8397517,8.10164152 25.9869355,9.99676234 25.9869355,12.9341996 C25.9869355,15.8716369 27.8397517,17.7667577 30.2626653,17.7667577 C32.5430545,17.7667577 33.635741,16.203283 33.9682978,15.0662105 L36.8187843,15.0662105 Z" id="Path"></path>
                        <polygon id="Path" points="40.0493357 0.142134062 42.8998222 0.142134062 42.8998222 12.3656634 48.8858439 5.82749653 52.3064278 5.82749653 45.8928331 12.7920656 52.5914764 20.0409027 49.1708926 20.0409027 42.8998222 13.2184677 42.8998222 20.0409027 40.0493357 20.0409027 40.0493357 0.142134062"></polygon>
                        <path d="M56.4396332,15.7768808 C56.4396332,16.6296852 57.4373035,17.9088918 59.7176927,17.9088918 C61.8555576,17.9088918 62.7107036,16.9613314 62.7107036,16.061149 C62.7107036,15.0662105 62.1881144,14.4502963 60.5728387,14.2134062 L58.0074008,13.787004 C55.2519305,13.3132238 53.8741953,12.0813952 53.8741953,9.66511619 C53.8741953,7.39097121 55.7270116,5.54322841 59.5751684,5.54322841 C63.7083739,5.54322841 65.4186658,8.38590964 65.4186658,9.94938432 L62.5681792,9.94938432 C62.5681792,9.09657995 61.7130333,7.95950745 59.5751684,7.95950745 C57.5323197,7.95950745 56.7246819,8.7649338 56.7246819,9.66511619 C56.7246819,10.5652986 57.5798278,11.1338348 58.8625468,11.3707249 L61.4279846,11.7971271 C64.1834549,12.2709073 65.5611901,13.6922479 65.5611901,16.061149 C65.5611901,18.335294 63.7083739,20.3251708 59.7176927,20.3251708 C55.1569143,20.3251708 53.5891467,17.3403555 53.5891467,15.7768808 L56.4396332,15.7768808 L56.4396332,15.7768808 Z" id="Path"></path>
                        <path d="M69.3143307,8.5280437 L67.0339415,8.5280437 L67.0339415,5.82749653 L69.3143307,5.82749653 L69.3143307,1.8477428 L72.1648172,1.8477428 L72.1648172,5.82749653 L75.4428767,5.82749653 L75.4428767,8.5280437 L72.1648172,8.5280437 L72.1648172,16.6296852 C72.1648172,17.1982215 72.4498659,17.4824896 73.0199632,17.4824896 L75.4428767,17.4824896 L75.4428767,20.0409027 L72.4498659,20.0409027 C70.4070172,20.0409027 69.3143307,18.9038302 69.3143307,17.0560874 L69.3143307,8.5280437 Z" id="Path"></path>
                        <path d="M87.3199039,18.477428 L87.1773796,18.477428 C86.8923309,18.8564522 86.5597742,19.1407203 86.1322012,19.4249884 C85.4670877,19.8987686 84.3744012,20.3251708 82.9016498,20.3251708 C79.7661146,20.3251708 77.7707741,18.524806 77.7707741,15.9190149 C77.7707741,13.0763337 79.6235903,11.2285909 83.6142714,11.2285909 L87.1773796,11.2285909 L87.1773796,10.9443227 C87.1773796,9.09657995 86.037185,7.95950745 84.1843687,7.95950745 C82.1890282,7.95950745 81.3338822,9.09657995 81.1913579,9.94938432 L78.3408714,9.94938432 C78.4833957,7.58048329 80.6212606,5.54322841 84.1843687,5.54322841 C87.9375093,5.54322841 90.0278661,7.62786131 90.0278661,10.9443227 L90.0278661,20.0409027 L87.6049526,20.0409027 L87.3199039,18.477428 Z M87.1773796,13.5027359 L83.7567958,13.5027359 C81.5714228,13.5027359 80.6212606,14.4976743 80.6212606,15.7768808 C80.6212606,17.0560874 81.4764065,17.9088918 83.1866985,17.9088918 C85.7996444,17.9088918 87.1773796,16.4875512 87.1773796,14.0712721 L87.1773796,13.5027359 L87.1773796,13.5027359 Z" id="Shape"></path>
                        <path d="M93.8760229,5.82749653 L96.2989365,5.82749653 L96.5839851,7.10670308 L96.7265095,7.10670308 C97.2015905,6.58554486 97.6766716,5.82749653 99.4344717,5.82749653 L101.99991,5.82749653 L101.99991,8.38590964 L99.7195203,8.38590964 C97.7241797,8.38590964 96.7265095,9.38084807 96.7265095,11.3233469 L96.7265095,20.0409027 L93.8760229,20.0409027 L93.8760229,5.82749653 Z" id="Path"></path>
                        <path d="M105.563018,8.5280437 L103.282628,8.5280437 L103.282628,5.82749653 L105.563018,5.82749653 L105.563018,1.8477428 L108.413504,1.8477428 L108.413504,5.82749653 L111.691564,5.82749653 L111.691564,8.5280437 L108.413504,8.5280437 L108.413504,16.6296852 C108.413504,17.1982215 108.698553,17.4824896 109.26865,17.4824896 L111.691564,17.4824896 L111.691564,20.0409027 L108.698553,20.0409027 C106.655704,20.0409027 105.563018,18.9038302 105.563018,17.0560874 L105.563018,8.5280437 Z" id="Path"></path>
                        <path d="M127.36924,15.9190149 C126.704126,17.7667577 124.661277,20.3251708 120.955645,20.3251708 C116.822439,20.3251708 113.829429,17.3403555 113.829429,12.9341996 C113.829429,8.5280437 116.822439,5.54322841 120.955645,5.54322841 C124.803802,5.54322841 127.796813,8.5280437 127.796813,12.5077974 C127.796813,12.9341996 127.749304,13.2658458 127.701796,13.5501139 L127.654288,13.929138 L116.679915,13.929138 C117.012472,16.3454171 118.675256,17.9088918 120.955645,17.9088918 C122.665937,17.9088918 123.901148,16.9139533 124.376229,15.9190149 L127.36924,15.9190149 L127.36924,15.9190149 Z M125.08885,11.7971271 C124.756294,9.52298213 123.236034,7.95950745 120.955645,7.95950745 C118.532731,7.95950745 117.107488,9.52298213 116.679915,11.7971271 L125.08885,11.7971271 Z" id="Shape"></path>
                        <path d="M131.074872,5.82749653 L133.497786,5.82749653 L133.782834,7.10670308 L133.925359,7.10670308 C134.40044,6.58554486 134.875521,5.82749653 136.633321,5.82749653 L139.198759,5.82749653 L139.198759,8.38590964 L136.918369,8.38590964 C134.923029,8.38590964 133.925359,9.38084807 133.925359,11.3233469 L133.925359,20.0409027 L131.074872,20.0409027 L131.074872,5.82749653 Z" id="Path"></path>
                    </g>
                    <path d="M2.76190476,26 C2,26 1.33333333,25.714808 0.80952381,25.1919561 C0.285714286,24.6691042 0,24.0036563 0,23.1956124 L0,2.75685558 C0,1.99634369 0.285714286,1.3308958 0.80952381,0.808043876 C1.33333333,0.285191956 2,0 2.76190476,0 L23.2380952,0 C24,0 24.6666667,0.285191956 25.1904762,0.808043876 C25.7142857,1.3308958 26,1.99634369 26,2.75685558 L26,23.1956124 C26,23.9561243 25.7142857,24.6215722 25.1904762,25.1919561 C24.6666667,25.714808 24,26 23.2380952,26 L2.76190476,26 Z M10.9047619,6.511883 C10.4761905,6.08409506 9.9047619,5.8464351 9.19047619,5.8464351 C8.47619048,5.8464351 7.95238095,6.08409506 7.52380952,6.60694698 C7.0952381,7.1297989 6.9047619,7.74771481 6.9047619,8.4606947 L6.9047619,17.4442413 C6.9047619,18.2047532 7.0952381,18.8226691 7.52380952,19.345521 C7.9047619,19.820841 8.47619048,20.0585009 9.23809524,20.0585009 C9.95238095,20.0585009 10.5238095,19.820841 10.9047619,19.393053 C11.3333333,18.9652651 11.5238095,18.2998172 11.5238095,17.4442413 L11.5238095,15.0201097 L15,19.440585 C15.3809524,19.8683729 15.9047619,20.1060329 16.5714286,20.1060329 C17.2380952,20.1060329 17.7619048,19.9159049 18.2380952,19.488117 C18.6666667,19.0603291 18.9047619,18.5374771 18.952381,17.9670932 C18.952381,17.3967093 18.8095238,16.9213894 18.5238095,16.4936015 L15.6666667,12.833638 L18,9.45886654 C18.2857143,9.03107861 18.4285714,8.55575868 18.3809524,7.98537477 C18.3333333,7.46252285 18.0952381,6.98720293 17.6666667,6.60694698 C17.1428571,6.13162706 16.5714286,5.89396709 15.8571429,5.89396709 C15.1428571,5.94149909 14.5714286,6.32175503 14.0952381,6.98720293 L11.5238095,10.6946984 L11.5238095,8.41316271 C11.5714286,7.60511883 11.3809524,6.98720293 10.9047619,6.511883" id="Shape"></path>
                </g>
            </g>
        </g>
    </g>
</svg>