<?xml version="1.0" encoding="UTF-8"?>
<svg width="19px" height="19px" viewBox="0 0 19 19" version="1.1" xmlns="http://www.w3.org/2000/svg" xmlns:xlink="http://www.w3.org/1999/xlink">
    <title>Fill 41</title>
    <g id="Desktop" stroke="none" stroke-width="1" fill="none" fill-rule="evenodd">
        <g id="Home_1440" transform="translate(-1009.000000, -11348.000000)" fill="#000000">
            <g id="Roadmap" transform="translate(-25.000000, 10810.000000)">
                <g transform="translate(0.000000, 248.000000)" id="Group-45">
                    <g transform="translate(1032.000000, 289.853000)">
                        <path d="M10.1205,5.1762 C9.8115,4.8672 9.4155,4.7152 8.9315,4.7152 C8.4465,4.7152 8.0635,4.8882 7.7825,5.2382 C7.4985,5.5862 7.3585,6.0192 7.3585,6.5282 L7.3585,12.7802 C7.3585,13.3192 7.4985,13.7552 7.7825,14.0912 C8.0635,14.4262 8.4605,14.5952 8.9715,14.5952 C9.4555,14.5952 9.8455,14.4402 10.1405,14.1312 C10.4375,13.8212 10.5845,13.3702 10.5845,12.7802 L10.5845,11.0862 L13.0055,14.1522 C13.2725,14.4472 13.6365,14.6022 14.0935,14.6152 C14.5505,14.6262 14.9325,14.4812 15.2415,14.1722 C15.5525,13.8612 15.7125,13.5122 15.7255,13.1222 C15.7395,12.7332 15.6405,12.3902 15.4245,12.0932 L13.4485,9.5522 L15.0605,7.2152 C15.2745,6.9172 15.3695,6.5822 15.3435,6.2052 C15.3155,5.8292 15.1555,5.5072 14.8585,5.2382 C14.5095,4.8882 14.0865,4.7262 13.5885,4.7532 C13.0905,4.7802 12.6815,5.0362 12.3585,5.5212 L10.5845,8.1022 L10.5845,6.5282 C10.5845,5.9382 10.4315,5.4882 10.1205,5.1762 L10.1205,5.1762 Z M4.4555,18.7072 C3.9175,18.7072 3.4605,18.5192 3.0845,18.1422 C2.7085,17.7662 2.5185,17.3092 2.5185,16.7712 L2.5185,2.5772 C2.5185,2.0392 2.7085,1.5822 3.0845,1.2062 C3.4605,0.8292 3.9175,0.6412 4.4555,0.6412 L18.6485,0.6412 C19.1865,0.6412 19.6445,0.8292 20.0205,1.2062 C20.3965,1.5822 20.5865,2.0392 20.5865,2.5772 L20.5865,16.7712 C20.5865,17.3092 20.3965,17.7662 20.0205,18.1422 C19.6445,18.5192 19.1865,18.7072 18.6485,18.7072 L4.4555,18.7072 Z" id="Fill-41"></path>
                    </g>
                </g>
            </g>
        </g>
    </g>
</svg>