<?xml version="1.0" encoding="UTF-8"?>
<svg width="17px" height="17px" viewBox="0 0 17 17" version="1.1" xmlns="http://www.w3.org/2000/svg" xmlns:xlink="http://www.w3.org/1999/xlink">
    <title>Fill 32</title>
    <g id="Desktop" stroke="none" stroke-width="1" fill="none" fill-rule="evenodd">
        <g id="Home_1440" transform="translate(-729.000000, -11521.000000)" fill="#000000">
            <g id="Roadmap" transform="translate(-25.000000, 10810.000000)">
                <g transform="translate(0.000000, 248.000000)" id="Group-36">
                    <g transform="translate(744.000000, 289.853000)">
                        <path d="M23.4798,189.557 L23.4798,184.27 C23.4798,183.402 23.4058,182.776 23.2618,182.391 C22.9968,181.74 22.4778,181.414 21.7088,181.414 C20.9348,181.414 20.3918,181.701 20.0768,182.283 C19.8338,182.716 19.7158,183.358 19.7158,184.201 L19.7158,189.557 L16.3868,189.557 L16.3868,178.736 L19.6078,178.736 L19.6078,180.216 L19.6418,180.216 C19.8838,179.738 20.2688,179.337 20.8008,179.022 C21.3778,178.637 22.0538,178.445 22.8288,178.445 C24.3968,178.445 25.4968,178.938 26.1238,179.93 C26.6068,180.724 26.8478,181.952 26.8478,183.619 L26.8478,189.557 L23.4798,189.557 Z M10.8818,189.557 L14.2508,189.557 L14.2508,178.736 L10.8818,178.736 L10.8818,189.557 Z M11.2088,176.669 C10.8238,176.285 10.6308,175.826 10.6308,175.293 C10.6308,174.761 10.8238,174.307 11.2088,173.917 C11.5928,173.533 12.0508,173.34 12.5838,173.34 C13.1118,173.34 13.5758,173.533 13.9598,173.917 C14.3448,174.307 14.5378,174.761 14.5378,175.293 C14.5378,175.826 14.3448,176.285 13.9598,176.669 C13.5758,177.054 13.1118,177.246 12.5838,177.246 C12.0508,177.246 11.5928,177.054 11.2088,176.669 L11.2088,176.669 Z" id="Fill-32"></path>
                    </g>
                </g>
            </g>
        </g>
    </g>
</svg>