<?xml version="1.0" encoding="UTF-8"?>
<svg width="23px" height="23px" viewBox="0 0 23 23" version="1.1" xmlns="http://www.w3.org/2000/svg" xmlns:xlink="http://www.w3.org/1999/xlink">
    <title>linkedin</title>
    <g id="Desktop" stroke="none" stroke-width="1" fill="none" fill-rule="evenodd">
        <g id="Home_1440" transform="translate(-1169.000000, -13235.000000)">
            <g id="Footer" transform="translate(0.000000, 13174.000000)">
                <g id="Group-6" transform="translate(1036.000000, 47.000000)">
                    <g id="Bottom/Icon-Copy-12" transform="translate(119.000000, 0.000000)">
                        <g id="linkedin" transform="translate(14.375000, 14.375000)">
                            <path d="M0.208333333,3.33333333 C0.208333333,1.60744792 1.60744792,0.208333333 3.33333333,0.208333333 L17.9166667,0.208333333 C19.6426042,0.208333333 21.0416667,1.60744792 21.0416667,3.33333333 L21.0416667,17.9166667 C21.0416667,19.6426042 19.6426042,21.0416667 17.9166667,21.0416667 L3.33333333,21.0416667 C1.60744792,21.0416667 0.208333333,19.6426042 0.208333333,17.9166667 L0.208333333,3.33333333 Z" id="Path" fill="#A7B4CB" opacity="0.6"></path>
                            <path d="M5.41666667,8.54166667 C5.99195833,8.54166667 6.45833333,9.00804167 6.45833333,9.58333333 L6.45833333,9.58333333 L6.45833333,15.8333333 C6.45833333,16.4086458 5.99195833,16.875 5.41666667,16.875 C4.841375,16.875 4.375,16.4086458 4.375,15.8333333 L4.375,15.8333333 L4.375,9.58333333 C4.375,9.00804167 4.841375,8.54166667 5.41666667,8.54166667 Z M12.7083333,8.54166667 C15.0094792,8.54166667 16.875,10.4071458 16.875,12.7083333 L16.875,15.8333333 C16.875,16.4086458 16.4086458,16.875 15.8333333,16.875 C15.2580208,16.875 14.7916667,16.4086458 14.7916667,15.8333333 L14.7916667,12.7083333 C14.7916667,11.5577083 13.8589583,10.625 12.7083333,10.625 C11.5577083,10.625 10.625,11.5577083 10.625,12.7083333 L10.625,15.8333333 C10.625,16.4086458 10.1586354,16.875 9.58333333,16.875 C9.00803125,16.875 8.54166667,16.4086458 8.54166667,15.8333333 L8.54166667,9.58333333 C8.54166667,9.00804167 9.00804167,8.54166667 9.58333333,8.54166667 C10.0055937,8.54166667 10.3691667,8.79291667 10.5327187,9.15407292 C11.1659375,8.765625 11.9110417,8.54166667 12.7083333,8.54166667 Z M5.41666667,4.375 C5.99195833,4.375 6.45833333,4.841375 6.45833333,5.41666667 C6.45833333,5.99195833 5.99195833,6.45833333 5.41666667,6.45833333 C4.841375,6.45833333 4.375,5.99195833 4.375,5.41666667 C4.375,4.841375 4.841375,4.375 5.41666667,4.375 Z" id="Combined-Shape" fill="#16161F"></path>
                        </g>
                    </g>
                </g>
            </g>
        </g>
    </g>
</svg>