<?xml version="1.0" encoding="UTF-8"?>
<svg width="192px" height="27px" viewBox="0 0 192 27" version="1.1" xmlns="http://www.w3.org/2000/svg" xmlns:xlink="http://www.w3.org/1999/xlink">
    <title>Group 15</title>
    <g id="Desktop" stroke="none" stroke-width="1" fill="none" fill-rule="evenodd">
        <g id="Credit-card-fraud_1440" transform="translate(-515.000000, -1261.000000)" fill="#000000" fill-rule="nonzero">
            <g id="Apollo_Stratus_Socnet" transform="translate(189.000000, 1246.000000)">
                <g id="Group-15" transform="translate(326.000000, 15.000000)">
                    <g id="Group" transform="translate(76.971682, 6.000000)">
                        <polygon id="Path" points="0.237540544 0.142134062 3.2305514 0.142134062 3.2305514 17.1982215 12.9222056 17.1982215 12.9222056 20.0409027 0.237540544 20.0409027"></polygon>
                        <path d="M15.4876435,0.142134062 L18.6231786,0.142134062 L18.6231786,3.12694936 L15.4876435,3.12694936 L15.4876435,0.142134062 Z M15.6301678,5.82749653 L18.4806543,5.82749653 L18.4806543,20.0409027 L15.6301678,20.0409027 L15.6301678,5.82749653 Z" id="Shape"></path>
                        <path d="M22.4238273,5.82749653 L24.9892652,5.82749653 L25.2743139,7.24883715 L25.4168382,7.24883715 C25.749395,6.917191 26.0819517,6.63292288 26.4620166,6.39603278 C27.1271301,5.96963059 28.1723085,5.54322841 29.5500437,5.54322841 C32.9706275,5.54322841 35.2510167,7.76999537 35.2510167,11.512859 L35.2510167,20.0409027 L32.4005302,20.0409027 L32.4005302,11.512859 C32.4005302,9.66511619 30.9277788,8.10164152 28.9799463,8.10164152 C26.8420815,8.10164152 25.2743139,9.66511619 25.2743139,11.512859 L25.2743139,20.0409027 L22.4238273,20.0409027 L22.4238273,5.82749653 Z" id="Path"></path>
                        <polygon id="Path" points="39.1941897 0.142134062 42.0446763 0.142134062 42.0446763 12.3656634 48.030698 5.82749653 51.4512818 5.82749653 45.0376871 12.7920656 51.7363304 20.0409027 48.3157466 20.0409027 42.0446763 13.2184677 42.0446763 20.0409027 39.1941897 20.0409027 39.1941897 0.142134062"></polygon>
                        <path d="M66.0362712,15.9190149 C65.3711577,17.7667577 63.328309,20.3251708 59.6226765,20.3251708 C55.489471,20.3251708 52.4964602,17.3403555 52.4964602,12.9341996 C52.4964602,8.5280437 55.489471,5.54322841 59.6226765,5.54322841 C63.4708333,5.54322841 66.4638442,8.5280437 66.4638442,12.5077974 C66.4638442,12.9341996 66.4163361,13.2658458 66.3688279,13.5501139 L66.3213198,13.929138 L55.3469467,13.929138 C55.6795035,16.3454171 57.3422873,17.9088918 59.6226765,17.9088918 C61.3329684,17.9088918 62.5681792,16.9139533 63.0432603,15.9190149 L66.0362712,15.9190149 L66.0362712,15.9190149 Z M63.755882,11.7971271 C63.4233252,9.52298213 61.9030657,7.95950745 59.6226765,7.95950745 C57.199763,7.95950745 55.7745197,9.52298213 55.3469467,11.7971271 L63.755882,11.7971271 Z" id="Shape"></path>
                        <path d="M80.1461795,18.335294 L80.0036552,18.335294 C79.5760822,18.9038302 78.3408714,20.3251708 75.5854011,20.3251708 C71.8322605,20.3251708 69.029282,17.4824896 69.029282,12.9341996 C69.029282,8.38590964 71.8322605,5.54322841 75.5854011,5.54322841 C78.3408714,5.54322841 79.5285741,7.01194704 80.0036552,7.53310527 L80.1461795,7.53310527 L80.1461795,0.142134062 L82.996666,0.142134062 L82.996666,20.0409027 L80.4312281,20.0409027 L80.1461795,18.335294 Z M80.1461795,12.9341996 C80.1461795,9.99676234 78.2933633,8.10164152 76.012974,8.10164152 C73.7325848,8.10164152 71.8797686,9.99676234 71.8797686,12.9341996 C71.8797686,15.8716369 73.7325848,17.7667577 76.012974,17.7667577 C78.2933633,17.7667577 80.1461795,15.9190149 80.1461795,12.9341996 Z" id="Shape"></path>
                        <polygon id="Path" points="94.3986121 0.142134062 97.391623 0.142134062 97.391623 20.0409027 94.3986121 20.0409027"></polygon>
                        <path d="M101.667353,5.82749653 L104.232791,5.82749653 L104.517839,7.24883715 L104.660364,7.24883715 C104.99292,6.917191 105.325477,6.63292288 105.705542,6.39603278 C106.370656,5.96963059 107.415834,5.54322841 108.793569,5.54322841 C112.214153,5.54322841 114.494542,7.76999537 114.494542,11.512859 L114.494542,20.0409027 L111.644056,20.0409027 L111.644056,11.512859 C111.644056,9.66511619 110.171304,8.10164152 108.223472,8.10164152 C106.085607,8.10164152 104.517839,9.66511619 104.517839,11.512859 L104.517839,20.0409027 L101.667353,20.0409027 L101.667353,5.82749653 Z" id="Path"></path>
                    </g>
                    <path d="M0.840466926,4.93980583 C0.280155642,4.38058252 0,3.6815534 0,2.88932039 C0,2.09708738 0.280155642,1.44466019 0.840466926,0.838834951 C1.40077821,0.27961165 2.10116732,0 2.89494163,0 C3.68871595,0 4.34241245,0.27961165 4.94941634,0.838834951 C5.50972763,1.39805825 5.78988327,2.09708738 5.78988327,2.88932039 C5.78988327,3.6815534 5.50972763,4.33398058 4.94941634,4.93980583 C4.38910506,5.49902913 3.68871595,5.77864078 2.89494163,5.77864078 C2.05447471,5.77864078 1.40077821,5.49902913 0.840466926,4.93980583 M0.326848249,7.96893204 L5.3229572,7.96893204 L5.3229572,24 L0.326848249,24 L0.326848249,7.96893204 Z M19.0038911,24 L19.0038911,16.1708738 C19.0038911,14.8660194 18.9105058,13.9805825 18.6770428,13.3747573 C18.3035019,12.3961165 17.5097276,11.9300971 16.3891051,11.9300971 C15.2217899,11.9300971 14.4280156,12.3495146 13.9610895,13.2349515 C13.5875486,13.8873786 13.4474708,14.8194175 13.4474708,16.0776699 L13.4474708,24 L8.49805447,24 L8.49805447,7.96893204 L13.2607004,7.96893204 L13.2607004,10.1592233 L13.307393,10.1592233 C13.6809339,9.46019417 14.2412451,8.85436893 15.0350195,8.38834951 C15.8754864,7.82912621 16.9027237,7.54951456 18.0233463,7.54951456 C20.3579767,7.54951456 21.9922179,8.29514563 22.92607,9.73980583 C23.6264591,10.9048544 24,12.7223301 24,15.192233 L24,24 L19.0038911,24 L19.0038911,24 Z" id="Shape"></path>
                </g>
            </g>
        </g>
    </g>
</svg>