<?xml version="1.0" encoding="UTF-8"?>
<svg width="278px" height="323px" viewBox="0 0 278 323" version="1.1" xmlns="http://www.w3.org/2000/svg" xmlns:xlink="http://www.w3.org/1999/xlink">
    <title>Group 4</title>
    <g id="Mobile" stroke="none" stroke-width="1" fill="none" fill-rule="evenodd">
        <g id="Credit-card-fraud_375" transform="translate(-49.000000, -1879.000000)" fill="#000000" fill-rule="nonzero">
            <g id="Group-5" transform="translate(35.000000, 441.000000)">
                <g id="Group-23" transform="translate(0.000000, 1117.000000)">
                    <g id="Group-4" transform="translate(14.000000, 321.000000)">
                        <g id="Group-15" transform="translate(2.946996, 0.000000)">
                            <g id="Group" transform="translate(79.568905, 5.908257)">
                                <polygon id="Path" points="0.245518169 0.146625556 3.3390471 0.146625556 3.3390471 17.7416923 13.3561884 17.7416923 13.3561884 20.6742034 0.245518169 20.6742034"></polygon>
                                <path d="M16.0077846,0.146625556 L19.2486245,0.146625556 L19.2486245,3.22576223 L16.0077846,3.22576223 L16.0077846,0.146625556 Z M16.1550955,6.0116478 L19.1013136,6.0116478 L19.1013136,20.6742034 L16.1550955,20.6742034 L16.1550955,6.0116478 Z" id="Shape"></path>
                                <path d="M23.1769152,6.0116478 L25.8285114,6.0116478 L26.1231332,7.47790336 L26.2704441,7.47790336 C26.6141695,7.13577706 26.957895,6.84252595 27.350724,6.59815002 C28.0381749,6.15827335 29.1184549,5.71839668 30.5424602,5.71839668 C34.0779219,5.71839668 36.4348963,8.01553039 36.4348963,11.87667 L36.4348963,20.6742034 L33.4886783,20.6742034 L33.4886783,11.87667 C33.4886783,9.97053781 31.9664656,8.35765669 29.9532166,8.35765669 C27.7435531,8.35765669 26.1231332,9.97053781 26.1231332,11.87667 L26.1231332,20.6742034 L23.1769152,20.6742034 L23.1769152,6.0116478 Z" id="Path"></path>
                                <polygon id="Path" points="40.5104979 0.146625556 43.4567159 0.146625556 43.4567159 12.7564234 49.6437738 6.0116478 53.1792354 6.0116478 46.5502449 13.1963 53.4738572 20.6742034 49.9383956 20.6742034 43.4567159 13.6361767 43.4567159 20.6742034 40.5104979 20.6742034 40.5104979 0.146625556"></polygon>
                                <path d="M68.254051,16.4220623 C67.5666001,18.3281945 65.4551439,20.9674545 61.6250604,20.9674545 C57.3530443,20.9674545 54.2595154,17.8883178 54.2595154,13.3429256 C54.2595154,8.79753336 57.3530443,5.71839668 61.6250604,5.71839668 C65.6024548,5.71839668 68.6959837,8.79753336 68.6959837,12.9030489 C68.6959837,13.3429256 68.6468801,13.6850519 68.5977764,13.978303 L68.5486728,14.3693045 L57.2057334,14.3693045 C57.5494588,16.8619389 59.268086,18.4748201 61.6250604,18.4748201 C63.3927913,18.4748201 64.6694857,17.4484412 65.1605221,16.4220623 L68.254051,16.4220623 L68.254051,16.4220623 Z M65.8970766,12.1699211 C65.5533512,9.82391225 63.9820349,8.21103114 61.6250604,8.21103114 C59.1207751,8.21103114 57.6476661,9.82391225 57.2057334,12.1699211 L65.8970766,12.1699211 Z" id="Shape"></path>
                                <path d="M82.8378303,18.9146967 L82.6905194,18.9146967 C82.2485867,19.5011989 80.9718922,20.9674545 78.1238814,20.9674545 C74.2446943,20.9674545 71.3475799,18.0349434 71.3475799,13.3429256 C71.3475799,8.6509078 74.2446943,5.71839668 78.1238814,5.71839668 C80.9718922,5.71839668 82.199483,7.23352743 82.6905194,7.77115447 L82.8378303,7.77115447 L82.8378303,0.146625556 L85.7840483,0.146625556 L85.7840483,20.6742034 L83.1324521,20.6742034 L82.8378303,18.9146967 Z M82.8378303,13.3429256 C82.8378303,10.3126641 80.9227885,8.35765669 78.5658141,8.35765669 C76.2088397,8.35765669 74.293798,10.3126641 74.293798,13.3429256 C74.293798,16.3731871 76.2088397,18.3281945 78.5658141,18.3281945 C80.9227885,18.3281945 82.8378303,16.4220623 82.8378303,13.3429256 Z" id="Shape"></path>
                                <polygon id="Path" points="97.5689204 0.146625556 100.662449 0.146625556 100.662449 20.6742034 97.5689204 20.6742034"></polygon>
                                <path d="M105.081776,6.0116478 L107.733373,6.0116478 L108.027994,7.47790336 L108.175305,7.47790336 C108.519031,7.13577706 108.862756,6.84252595 109.255585,6.59815002 C109.943036,6.15827335 111.023316,5.71839668 112.447321,5.71839668 C115.982783,5.71839668 118.339758,8.01553039 118.339758,11.87667 L118.339758,20.6742034 L115.393539,20.6742034 L115.393539,11.87667 C115.393539,9.97053781 113.871327,8.35765669 111.858078,8.35765669 C109.648414,8.35765669 108.027994,9.97053781 108.027994,11.87667 L108.027994,20.6742034 L105.081776,20.6742034 L105.081776,6.0116478 Z" id="Path"></path>
                            </g>
                            <path d="M0.860018424,5.06695169 C0.286672808,4.49333452 0,3.77631305 0,2.96368873 C0,2.1510644 0.286672808,1.48184436 0.860018424,0.860425759 C1.43336404,0.286808586 2.15004606,0 2.96228568,0 C3.77452531,0 4.44342852,0.286808586 5.06455294,0.860425759 C5.63789856,1.43404293 5.92457137,2.1510644 5.92457137,2.96368873 C5.92457137,3.77631305 5.63789856,4.44553309 5.06455294,5.06695169 C4.49120733,5.64056887 3.77452531,5.92737745 2.96228568,5.92737745 C2.10226726,5.92737745 1.43336404,5.64056887 0.860018424,5.06695169 M0.334451609,8.17404471 L5.44678335,8.17404471 L5.44678335,24.617737 L0.334451609,24.617737 L0.334451609,8.17404471 Z M19.4459721,24.617737 L19.4459721,16.5870966 C19.4459721,15.2486565 19.3504145,14.3404293 19.1115205,13.7190107 C18.7292901,12.7151807 17.9170505,12.2371664 16.7703593,12.2371664 C15.5758892,12.2371664 14.7636496,12.6673792 14.2858616,13.5756064 C13.9036312,14.2448265 13.7602948,15.2008551 13.7602948,16.4914937 L13.7602948,24.617737 L8.69574184,24.617737 L8.69574184,8.17404471 L13.5691796,8.17404471 L13.5691796,10.420712 L13.6169584,10.420712 C13.9991888,9.70369051 14.5725344,9.0822719 15.384774,8.60425759 C16.2447925,8.03064042 17.2959261,7.74383183 18.4426173,7.74383183 C20.8315574,7.74383183 22.5038154,8.50865473 23.4593915,9.99049909 C24.1760735,11.1855349 24.5583039,13.0497907 24.5583039,15.5832665 L24.5583039,24.617737 L19.4459721,24.617737 L19.4459721,24.617737 Z" id="Shape"></path>
                        </g>
                        <g id="Group-14" transform="translate(0.000000, 125.058104)">
                            <g id="Group" transform="translate(80.551237, 8.862385)">
                                <polygon id="Path" points="6.55973239 3.05222115 0.0979064536 3.05222115 0.0979064536 0.145343864 16.1056116 0.145343864 16.1056116 3.05222115 9.64378568 3.05222115 9.64378568 20.4934848 6.55973239 20.4934848"></polygon>
                                <path d="M17.1825826,5.95909843 L19.6791972,5.95909843 L19.9729165,7.2671932 L20.1197762,7.2671932 C20.6093085,6.7342657 21.0988408,5.95909843 22.9101101,5.95909843 L25.5535844,5.95909843 L25.5535844,8.57528798 L23.2038295,8.57528798 C21.147794,8.57528798 20.1197762,9.59269503 20.1197762,11.5790612 L20.1197762,20.4934848 L17.1825826,20.4934848 L17.1825826,5.95909843 Z" id="Path"></path>
                                <path d="M36.7149201,18.8947023 L36.5680604,18.8947023 C36.2743411,19.282286 35.9316685,19.5729737 35.4910894,19.8636614 C34.8057443,20.348141 33.67982,20.7841726 32.16227,20.7841726 C28.931357,20.7841726 26.8753215,18.9431503 26.8753215,16.2785128 C26.8753215,13.3716355 28.7844974,11.4821653 32.8965684,11.4821653 L36.5680604,11.4821653 L36.5680604,11.1914775 C36.5680604,9.3020073 35.393183,8.13925639 33.4840071,8.13925639 C31.4279716,8.13925639 30.5468135,9.3020073 30.3999538,10.1740705 L27.4627602,10.1740705 C27.6096199,7.75167275 29.8125151,5.6684107 33.4840071,5.6684107 C37.3513121,5.6684107 39.505254,7.8001207 39.505254,11.1914775 L39.505254,20.4934848 L37.0086395,20.4934848 L36.7149201,18.8947023 Z M36.5680604,13.8076671 L33.0434281,13.8076671 C30.7915797,13.8076671 29.8125151,14.8250741 29.8125151,16.1331689 C29.8125151,17.4412637 30.6936732,18.3133269 32.4559894,18.3133269 C35.1484168,18.3133269 36.5680604,16.8598882 36.5680604,14.3890425 L36.5680604,13.8076671 L36.5680604,13.8076671 Z" id="Shape"></path>
                                <polygon id="Path" points="41.1696637 5.95909843 44.253717 5.95909843 48.2189284 17.2959198 48.8063671 17.2959198 52.7715785 5.95909843 55.8556318 5.95909843 50.715543 20.4934848 46.3097526 20.4934848"></polygon>
                                <path d="M71.1290386,16.2785128 C70.4436934,18.167983 68.3387046,20.7841726 64.5203529,20.7841726 C60.2614222,20.7841726 57.1773689,17.7319514 57.1773689,13.2262916 C57.1773689,8.72063184 60.2614222,5.6684107 64.5203529,5.6684107 C68.4855643,5.6684107 71.5696176,8.72063184 71.5696176,12.79026 C71.5696176,13.2262916 71.5206644,13.5654273 71.4717111,13.856115 L71.4227579,14.2436987 L60.1145625,14.2436987 C60.4572351,16.7145444 62.170598,18.3133269 64.5203529,18.3133269 C66.2826691,18.3133269 67.555453,17.2959198 68.0449853,16.2785128 L71.1290386,16.2785128 L71.1290386,16.2785128 Z M68.7792837,12.0635407 C68.4366111,9.73803889 66.8701078,8.13925639 64.5203529,8.13925639 C62.0237384,8.13925639 60.5551416,9.73803889 60.1145625,12.0635407 L68.7792837,12.0635407 Z" id="Shape"></path>
                                <polygon id="Path" points="75.0942499 0.145343864 78.0314435 0.145343864 78.0314435 20.4934848 75.0942499 20.4934848"></polygon>
                                <path d="M81.5560759,13.2262916 C81.5560759,8.72063184 84.6401291,5.6684107 88.8990599,5.6684107 C93.1579906,5.6684107 96.2420439,8.72063184 96.2420439,13.2262916 C96.2420439,17.7319514 93.1579906,20.7841726 88.8990599,20.7841726 C84.6401291,20.7841726 81.5560759,17.7319514 81.5560759,13.2262916 Z M93.3048503,13.2262916 C93.3048503,10.2225184 91.3956744,8.28460025 88.8990599,8.28460025 C86.4024453,8.28460025 84.4932695,10.2225184 84.4932695,13.2262916 C84.4932695,16.2300648 86.4024453,18.167983 88.8990599,18.167983 C91.3956744,18.167983 93.3048503,16.2785128 93.3048503,13.2262916 Z" id="Shape"></path>
                                <path d="M112.984047,15.4064496 C112.494515,17.5866076 110.634293,20.7841726 106.228502,20.7841726 C101.969571,20.7841726 98.8855181,17.7319514 98.8855181,13.2262916 C98.8855181,8.72063184 101.969571,5.6684107 106.228502,5.6684107 C110.634293,5.6684107 112.494515,8.91442366 112.984047,10.9007898 L110.046854,10.9007898 C109.557322,9.59269503 108.480351,8.28460025 106.228502,8.28460025 C103.731888,8.28460025 101.822712,10.2225184 101.822712,13.2262916 C101.822712,16.2300648 103.731888,18.167983 106.228502,18.167983 C108.578257,18.167983 109.704181,16.5692005 110.046854,15.4064496 L112.984047,15.4064496 Z" id="Path"></path>
                                <path d="M116.019148,0.145343864 L119.250061,0.145343864 L119.250061,3.19756501 L116.019148,3.19756501 L116.019148,0.145343864 Z M116.166007,5.95909843 L119.103201,5.95909843 L119.103201,20.4934848 L116.166007,20.4934848 L116.166007,5.95909843 Z" id="Shape"></path>
                                <path d="M124.390149,8.72063184 L122.040394,8.72063184 L122.040394,5.95909843 L124.390149,5.95909843 L124.390149,1.88947023 L127.327343,1.88947023 L127.327343,5.95909843 L130.705116,5.95909843 L130.705116,8.72063184 L127.327343,8.72063184 L127.327343,17.0052321 C127.327343,17.5866076 127.621062,17.8772953 128.208501,17.8772953 L130.705116,17.8772953 L130.705116,20.4934848 L127.621062,20.4934848 C125.516074,20.4934848 124.390149,19.3307339 124.390149,17.4412637 L124.390149,8.72063184 Z" id="Path"></path>
                                <path d="M134.082888,23.6910498 L137.020082,23.6910498 C137.607521,23.6910498 137.950193,23.1581223 137.999146,22.8189867 L138.488679,21.5108919 L132.467432,5.95909843 L135.551485,5.95909843 L139.810416,17.0052321 L140.397854,17.0052321 L144.216206,5.95909843 L147.300259,5.95909843 L140.838434,23.8363937 C140.250995,25.4351762 139.369837,26.3072394 137.166942,26.3072394 L134.082888,26.3072394 L134.082888,23.6910498 Z" id="Path"></path>
                            </g>
                            <g id="Group">
                                <path d="M20.4816254,22.0574924 C20.7272085,21.9050212 21.0219081,21.9050212 21.2674912,21.8033738 C20.8745583,21.3459603 20.3833922,20.8885469 20.039576,20.329486 C19.9413428,20.1770149 19.9904594,20.1261912 20.0886926,20.0753675 C20.1869258,20.0753675 20.1378092,19.9228963 20.1869258,19.8212489 C20.3342756,19.7704252 20.3342756,19.5671303 20.4325088,19.4146592 C20.4325088,19.3638355 20.4325088,19.262188 20.4816254,19.2113643 C20.530742,19.1605406 20.6289753,19.1097169 20.6780919,19.2113643 C21.0219081,19.617954 21.3657244,19.8720726 21.7586572,20.1770149 C22.2007067,20.5327809 22.7409894,20.7868995 23.0848057,21.1934892 C23.1339223,21.1934892 23.2321555,21.2951366 23.2321555,21.1934892 C23.2812721,20.7360758 23.4286219,20.329486 23.6250883,19.97372 C23.6742049,19.8212489 23.7233216,19.6687777 23.7724382,19.5163066 C23.8706714,19.262188 24.165371,19.1097169 24.4109541,18.906422 C24.8038869,18.7031272 25.1968198,18.906422 25.4915194,18.550656 C25.5897527,18.4490086 25.7371025,18.550656 25.8353357,18.550656 C26.0809187,18.6523034 26.424735,18.6014797 26.6212014,18.8047746 C26.2773852,19.5671303 26.2773852,20.3803098 26.0318021,21.1934892 C25.9826855,21.3459603 25.9335689,21.6509026 25.9826855,21.7017263 C26.3756184,21.8033738 27.3088339,21.6509026 27.3579505,21.6000789 C27.8491166,21.6000789 28.2911661,21.6000789 28.8314488,21.7017263 C29.2243816,21.8033738 29.4699647,21.9558449 29.7646643,22.2607872 C30.304947,22.7182007 30.304947,23.4805564 30.2067138,24.1412647 C30.2067138,24.1920884 29.9611307,24.446207 29.8628975,24.3953832 C29.8137809,24.3953832 29.8137809,24.2429121 29.7646643,24.1920884 C29.5681979,24.3445595 29.175265,24.7511493 29.0770318,24.7511493 C29.0279152,24.7511493 28.7823322,24.4970307 28.6349823,24.3953832 C28.1929329,24.090441 27.7017668,24.1920884 27.2597173,24.2429121 C26.7194346,24.2937358 26.1791519,24.1920884 25.6388693,24.446207 C25.8353357,24.8527967 26.1791519,25.0560915 26.5229682,25.3610338 C27.0141343,25.869271 27.5053004,26.2758607 27.9964664,26.7840979 C28.3402827,27.1906876 28.6840989,27.4448062 28.8805654,27.8513959 C28.7823322,27.9530433 28.8805654,28.003867 28.7823322,28.0546907 C28.6840989,28.1055145 28.6840989,27.9022196 28.6349823,27.9022196 C28.5367491,27.9022196 28.4876325,28.0546907 28.4876325,28.1055145 C28.5367491,28.1563382 28.3893993,28.4104567 28.3402827,28.4104567 C28.2911661,28.4612805 28.0946996,28.5629279 27.9964664,28.5629279 C27.9473498,28.5629279 27.7017668,28.4612805 27.7017668,28.4612805 C27.8,28.6137516 27.8491166,28.7662227 27.8491166,28.8170465 C27.6526502,28.7662227 27.5053004,28.7662227 27.4070671,28.6137516 C26.7194346,28.003867 26.1300353,27.3431587 25.3932862,26.7332741 C25.1477032,26.4791556 25.0003534,26.1233896 24.6565371,25.869271 C24.165371,27.0890401 23.8215548,27.9530433 23.3303887,29.1728125 C23.1830389,29.3761073 23.1339223,29.9351682 23.035689,29.9859919 C22.9374558,30.0368156 22.6427562,29.5794022 22.4954064,29.2744599 C22.4954064,28.5121042 22.5936396,28.2579856 22.6427562,27.4956299 L22.6427562,27.3431587 C22.6918728,26.3775081 22.9865724,25.513505 22.9374558,24.446207 C22.9374558,24.3445595 22.790106,24.2937358 22.6918728,24.2937358 C21.414841,24.1920884 20.2360424,23.9887935 18.9590106,23.8363224 C18.664311,23.7854987 18.3696113,23.7854987 18.0749117,23.6838512 C18.0257951,23.6330275 17.8784452,23.5822038 17.8293286,23.5822038 C17.780212,23.5313801 17.780212,23.5313801 17.7310954,23.5313801 C18.2222615,23.0231429 18.664311,22.4640821 19.3519435,22.1591398 C19.7939929,22.3624346 20.285159,22.1591398 20.4816254,22.0574924" id="Path"></path>
                                <path d="M0.44204947,26.5299793 C0.343816254,26.4791556 0.392932862,26.3775081 0.392932862,26.3775081 C0.491166078,26.2758607 0.638515901,26.2758607 0.736749117,26.2758607 C1.08056537,26.1742133 1.47349823,26.2758607 1.76819788,26.1742133 C1.8664311,26.1233896 1.8664311,26.0217421 1.9155477,26.0217421 C2.16113074,25.9200947 2.40671378,25.869271 2.70141343,25.7676236 C2.79964664,25.7167998 2.94699647,25.6659761 2.84876325,25.513505 C2.5540636,25.157739 2.25936396,24.8527967 2.11201413,24.4970307 C2.01378092,24.2937358 1.8664311,24.090441 1.8664311,23.8871461 C1.8664311,23.734675 2.06289753,23.6838512 2.25936396,23.734675 C2.99611307,24.1920884 3.48727915,24.801973 4.07667845,25.513505 C4.17491166,25.6659761 4.27314488,25.3610338 4.32226148,25.2085627 C4.56784452,24.6495018 4.71519435,23.9887935 5.00989399,23.4297327 C5.10812721,23.2772615 5.20636042,23.0231429 5.40282686,22.9723192 C5.64840989,22.8706718 5.84487633,22.7182007 6.04134276,22.5657295 C6.18869258,22.4640821 6.3360424,22.5657295 6.48339223,22.4640821 C6.58162544,22.4132584 6.72897527,22.6165532 6.87632509,22.5657295 C7.07279152,22.4132584 7.26925795,22.5149058 7.46572438,22.5657295 C7.6130742,22.6673769 7.66219081,22.7690244 7.6130742,22.9214955 C7.41660777,23.4297327 7.31837456,23.9379698 6.9745583,24.446207 C6.72897527,24.8527967 6.53250883,25.2085627 6.23780919,25.6151524 C6.23780919,25.6659761 6.18869258,25.7167998 6.2869258,25.7167998 C6.43427562,25.7676236 6.67985866,25.7167998 6.77809187,25.8184473 C7.26925795,25.9709184 7.76042403,25.9200947 8.30070671,26.0217421 C8.54628975,26.1233896 8.54628975,26.4791556 8.79187279,26.7332741 C8.89010601,26.8349216 8.69363958,26.936569 8.54628975,26.9873927 C8.15335689,27.1398639 7.80954064,26.936569 7.41660777,27.0890401 C6.77809187,27.1906876 6.18869258,27.0890401 5.59929329,27.3431587 C5.79575972,27.5464536 5.99222615,27.7497484 6.18869258,27.9530433 L6.67985866,28.715399 C6.82720848,29.0203413 6.9254417,29.2744599 7.02367491,29.5794022 C7.12190813,29.7318733 7.07279152,29.9351682 7.07279152,30.0876393 C6.9745583,30.0368156 6.9745583,29.9351682 6.9745583,29.8843445 C6.87632509,29.8843445 6.82720848,30.0368156 6.72897527,30.0368156 C6.63074205,29.9859919 6.58162544,29.8843445 6.58162544,29.8843445 C6.43427562,29.7826971 6.3360424,29.5285785 6.2869258,29.3761073 C6.04134276,28.8170465 5.59929329,28.4612805 5.15724382,28.1055145 C4.71519435,29.0203413 4.46961131,29.9351682 3.88021201,30.7991714 C3.83109541,30.9008188 3.73286219,30.9008188 3.63462898,30.9008188 C3.58551237,30.8499951 3.53639576,31.0024662 3.53639576,31.0024662 C3.48727915,30.9008188 3.43816254,30.9008188 3.38904594,30.9008188 C3.24169611,30.7991714 2.99611307,30.5958765 2.94699647,30.3925816 C2.84876325,30.1892868 2.79964664,29.9859919 2.79964664,29.7826971 C2.79964664,29.7318733 2.70141343,29.6302259 2.70141343,29.6302259 C2.79964664,29.4777548 2.79964664,29.2744599 2.84876325,29.2236362 C2.94699647,29.071165 3.09434629,28.9695176 3.09434629,28.8170465 C3.24169611,28.359633 3.53639576,28.0546907 3.63462898,27.5972773 C2.84876325,27.4448062 2.01378092,27.4956299 1.22791519,27.1906876 C1.08056537,27.0890401 0.834982332,27.0382164 0.687632509,26.936569 C0.491166078,26.6316267 0.491166078,26.580803 0.44204947,26.5299793" id="Path"></path>
                                <path d="M8.69363958,14.1798165 C8.93922261,13.5191082 9.33215548,13.1633422 9.38127208,12.4009865 C8.05512367,11.6386308 6.48339223,12.0960442 5.45194346,10.2663905 C5.20636042,9.85980073 5.45194346,8.0809707 5.59929329,7.87767584 C5.89399293,7.21696754 6.48339223,7.21696754 7.02367491,7.67438098 C7.07279152,7.62355727 7.46572438,7.77602841 7.5639576,7.82685213 C8.10424028,7.7252047 8.69363958,7.92849956 9.28303887,8.0809707 C10.019788,8.18261813 10.6583039,8.48756042 11.395053,8.38591299 C11.4441696,8.33508928 11.4932862,8.18261813 11.4932862,7.92849956 C11.3459364,6.86120154 11.0512367,5.89555095 10.8056537,4.77742922 C10.6583039,4.52331064 10.7074205,4.16754464 10.6583039,3.91342606 C10.6091873,3.25271777 10.2162544,2.28706718 10.5600707,1.98212489 C10.6091873,1.93130117 10.6583039,2.13459603 10.7074205,2.08377232 C10.8547703,1.98212489 10.8547703,1.82965374 11.0021201,1.88047746 C12.2791519,2.79530433 13.3597173,4.16754464 14.5385159,5.48896123 C14.9314488,5.89555095 14.9805654,4.82825293 15.275265,4.47248693 C15.3734982,4.32001578 15.275265,3.91342606 15.3734982,3.76095492 C15.6681979,3.20189405 15.7173145,2.49036204 15.9628975,1.98212489 C16.404947,1.32141659 16.6996466,0.355766006 17.3381625,0.10164743 C17.780212,-0.0508237151 18.3204947,0.152471145 18.7134276,0.609884581 C18.8116608,0.660708296 19.0081272,0.609884581 19.155477,0.762355727 C19.5975265,1.16894545 19.9904594,1.72800631 20.4816254,2.28706718 C20.6289753,2.49036204 20.7272085,2.89695176 20.6289753,3.04942291 C20.4816254,3.76095492 19.8922261,3.81177863 19.4992933,4.3708395 C18.7625442,5.59060866 18.0257951,6.75955411 17.3381625,7.97932327 C17.2399293,8.13179442 17.0434629,8.53838414 17.2399293,8.741679 C18.2222615,9.7581533 19.1063604,10.876275 20.2360424,11.6894545 C20.9236749,12.1468679 21.7095406,12.1468679 22.2989399,12.7567525 C22.7409894,13.3158134 23.0848057,13.9256979 23.2812721,14.6372299 C20.7272085,16.3144125 17.8784452,13.5699319 15.1770318,13.6207556 C14.9805654,13.6715794 15.029682,13.9765217 15.029682,14.0781691 C15.1770318,15.2979382 15.3734982,16.4668837 15.4717314,17.6358291 C15.5208481,18.4490086 15.9137809,19.262188 16.0611307,20.0753675 C16.1102473,20.3803098 16.3558304,21.1426655 15.9628975,21.0918418 C15.5699647,21.0918418 14.9805654,20.9901943 14.6858657,20.2786623 C14.2929329,19.3638355 13.9491166,18.4490086 13.654417,17.4325343 C13.6053004,17.127592 13.5070671,16.8734734 13.6053004,16.6193548 C13.654417,16.1619414 13.3597173,15.704528 13.2123675,15.348762 C13.1141343,15.1962908 12.9667845,15.4504094 12.8194346,15.5520568 C12.4265018,16.060294 12.0826855,16.5177074 11.7388693,17.127592 C11.1003534,18.0424189 10.4127208,18.6014797 9.57773852,19.0080694 C8.93922261,19.262188 8.05512367,19.4146592 7.6130742,18.3981849 C7.80954064,18.3473612 8.00600707,17.8899477 7.85865724,17.7374766 C6.9254417,16.1619414 8.25159011,15.2471145 8.69363958,14.1798165" id="Path"></path>
                            </g>
                        </g>
                        <g id="Group-11" transform="translate(2.946996, 192.018349)">
                            <g id="Group" transform="translate(79.568905, 5.908257)">
                                <path d="M0.24445532,0.145343864 L9.48486641,0.145343864 C12.8583498,0.145343864 15.4984673,2.71308546 15.4984673,6.68581775 C15.4984673,10.65855 12.8583498,13.2262916 9.48486641,13.2262916 L3.32459235,13.2262916 L3.32459235,20.4934848 L0.24445532,20.4934848 L0.24445532,0.145343864 L0.24445532,0.145343864 Z M9.33819322,10.3194143 C11.0004894,10.3194143 12.4183303,8.86597571 12.4183303,6.68581775 C12.4183303,4.50565979 11.0004894,3.05222115 9.33819322,3.05222115 L3.32459235,3.05222115 L3.32459235,10.3194143 L9.33819322,10.3194143 Z" id="Shape"></path>
                                <path d="M27.1345405,18.8947023 L26.9878673,18.8947023 C26.6945209,19.282286 26.3522835,19.5729737 25.9122639,19.8636614 C25.227789,20.348141 24.1032945,20.7841726 22.5876716,20.7841726 C19.3608613,20.7841726 17.3074366,18.9431503 17.3074366,16.2785128 C17.3074366,13.3716355 19.2141881,11.4821653 23.3210375,11.4821653 L26.9878673,11.4821653 L26.9878673,11.1914775 C26.9878673,9.3020073 25.8144818,8.13925639 23.9077303,8.13925639 C21.8543056,8.13925639 20.9742664,9.3020073 20.8275933,10.1740705 L17.8941294,10.1740705 C18.0408026,7.75167275 20.2409005,5.6684107 23.9077303,5.6684107 C27.7701243,5.6684107 29.9213312,7.8001207 29.9213312,11.1914775 L29.9213312,20.4934848 L27.4278869,20.4934848 L27.1345405,18.8947023 Z M26.9878673,13.8076671 L23.4677107,13.8076671 C21.2187218,13.8076671 20.2409005,14.8250741 20.2409005,16.1331689 C20.2409005,17.4412637 21.1209396,18.3133269 22.8810179,18.3133269 C25.5700265,18.3133269 26.9878673,16.8598882 26.9878673,14.3890425 L26.9878673,13.8076671 L26.9878673,13.8076671 Z" id="Shape"></path>
                                <path d="M33.1481414,23.6910498 L36.0816052,23.6910498 C36.668298,23.6910498 37.0105354,23.1581223 37.0594265,22.8189867 L37.5483371,21.5108919 L31.5347363,5.95909843 L34.6148733,5.95909843 L38.8683959,17.0052321 L39.4550886,17.0052321 L43.2685916,5.95909843 L46.3487287,5.95909843 L39.8951082,23.8363937 C39.3084154,25.4351762 38.4283763,26.3072394 36.2282784,26.3072394 L33.1481414,26.3072394 L33.1481414,23.6910498 Z" id="Path"></path>
                                <path d="M48.9888461,0.145343864 L58.2292572,0.145343864 C61.6027406,0.145343864 64.2428581,2.71308546 64.2428581,6.68581775 C64.2428581,10.65855 61.6027406,13.2262916 58.2292572,13.2262916 L52.0689831,13.2262916 L52.0689831,20.4934848 L48.9888461,20.4934848 L48.9888461,0.145343864 L48.9888461,0.145343864 Z M58.082584,10.3194143 C59.7448802,10.3194143 61.162721,8.86597571 61.162721,6.68581775 C61.162721,4.50565979 59.7448802,3.05222115 58.082584,3.05222115 L52.0689831,3.05222115 L52.0689831,10.3194143 L58.082584,10.3194143 Z" id="Shape"></path>
                                <path d="M75.8300402,18.8947023 L75.683367,18.8947023 C75.3900207,19.282286 75.0477832,19.5729737 74.6077636,19.8636614 C73.9232887,20.348141 72.7987943,20.7841726 71.2831713,20.7841726 C68.0563611,20.7841726 66.0029364,18.9431503 66.0029364,16.2785128 C66.0029364,13.3716355 67.9096879,11.4821653 72.0165372,11.4821653 L75.683367,11.4821653 L75.683367,11.1914775 C75.683367,9.3020073 74.5099815,8.13925639 72.60323,8.13925639 C70.5498053,8.13925639 69.6697662,9.3020073 69.523093,10.1740705 L66.5896291,10.1740705 C66.7363023,7.75167275 68.9364002,5.6684107 72.60323,5.6684107 C76.4656241,5.6684107 78.6168309,7.8001207 78.6168309,11.1914775 L78.6168309,20.4934848 L76.1233866,20.4934848 L75.8300402,18.8947023 Z M75.683367,13.8076671 L72.1632104,13.8076671 C69.9142215,13.8076671 68.9364002,14.8250741 68.9364002,16.1331689 C68.9364002,17.4412637 69.8164394,18.3133269 71.5765177,18.3133269 C74.2655262,18.3133269 75.683367,16.8598882 75.683367,14.3890425 L75.683367,13.8076671 L75.683367,13.8076671 Z" id="Shape"></path>
                                <polygon id="Path" points="82.7236803 0.145343864 85.6571441 0.145343864 85.6571441 20.4934848 82.7236803 20.4934848"></polygon>
                            </g>
                            <path d="M6.38443449,23.4393142 L5.9896045,26.0544443 C5.94025075,26.1513009 5.89089701,26.1997293 5.79218951,26.1997293 L0.80746088,26.1997293 C0.610045884,26.1997293 0.412630889,26.1028726 0.215215894,25.9575876 C0.017800899,25.8123026 -0.0315528498,25.5701609 0.017800899,25.3280193 L3.91674705,1.16228004 C3.9661008,0.823281696 4.11416205,0.532711686 4.36093079,0.338998346 C4.60769954,0.145285005 4.90382203,0.0484283351 5.24929827,0.0484283351 L10.0859657,0 C13.0471906,0 14.922633,0.0484283351 15.712293,0.145285005 C16.7487217,0.19371334 17.7357967,0.387426681 18.7722254,0.823281696 C20.6476679,1.54970672 21.7828041,2.7604151 22.2269879,4.45540683 C22.6218178,5.95668522 22.4737566,7.79696195 21.6840966,9.92780869 C20.3021917,13.8020755 17.2422592,15.7876372 12.4055918,15.8360656 L10.8756256,15.8360656 C9.69113566,15.7876372 8.90147568,15.8360656 8.50664569,15.9813506 C7.96375445,16.2234923 7.56892446,16.6593473 7.37150947,17.4342006 C7.27280197,17.8700556 6.92732573,19.9524741 6.38443449,23.4393142 M23.5595391,7.89381862 C23.5101853,7.89381862 23.5101853,7.94224695 23.5101853,8.03910362 C23.3621241,8.66867198 23.1647091,9.39509701 22.9179403,10.266807 C22.1776341,12.3492254 20.9931441,13.9473605 19.4138242,15.0612122 C18.081273,15.9329222 16.501953,16.5140623 14.6265105,16.8046323 C13.5407281,16.9499173 12.0601156,16.9983456 10.1846731,16.9983456 L9.39501317,16.9983456 C8.95082943,16.9983456 8.70406069,17.192059 8.65470694,17.5794856 L6.87797198,28.6695744 C6.82861823,28.8632877 6.87797198,29.0570011 7.02603323,29.2507144 C7.17409447,29.4444277 7.32215572,29.5412844 7.56892446,29.5412844 L11.8133469,29.5412844 C12.0601156,29.5412844 12.3068843,29.4444277 12.5536531,29.2507144 C12.8004218,29.0570011 12.8991293,28.8148594 12.9484831,28.5727177 L13.9355581,22.6644608 C14.0836193,22.0348925 14.2810343,21.6474658 14.527803,21.5021808 C14.725218,21.4053241 15.0706943,21.3568958 15.6135855,21.3568958 L15.8603543,21.3568958 C21.1905591,21.3568958 24.3491991,18.935479 25.336274,14.0442172 C25.8791653,11.1869454 25.336274,9.15295533 23.7569541,7.99067529 C23.6582466,7.89381862 23.6088928,7.89381862 23.5595391,7.89381862" id="Shape"></path>
                        </g>
                        <g id="Group-10" transform="translate(1.964664, 257.993884)">
                            <g id="Group" transform="translate(78.586572, 2.954128)">
                                <g id="Group-9" transform="translate(0.343875, 0.343181)">
                                    <path d="M16.5059975,18.2375984 L16.3586225,18.2375984 C15.9164976,18.7768823 15.3761227,19.2671403 14.7866227,19.7083725 C13.7058729,20.4437595 12.1338732,21.1791466 9.8741235,21.1791466 C4.47037432,21.1791466 1.69262327e-13,16.9139018 1.69262327e-13,10.5895733 C1.69262327e-13,4.26524479 4.47037432,-2.20398623e-13 9.8741235,-2.20398623e-13 C15.0322477,-2.20398623e-13 18.3236222,3.52985776 19.1587471,7.05971552 L15.9164976,7.05971552 C14.8848727,4.3632964 12.5759981,2.94154813 9.8741235,2.94154813 C5.99324909,2.94154813 3.09487453,5.88309627 3.09487453,10.5895733 C3.09487453,15.2960503 5.99324909,18.2375984 9.8741235,18.2375984 C13.411123,18.2375984 16.2112475,15.4921535 16.2112475,12.7957344 L16.2112475,12.648657 L10.4636234,12.648657 L10.4636234,10.1483411 L19.3061221,10.1483411 L19.3061221,20.8849918 L16.8007474,20.8849918 L16.5059975,18.2375984 Z" id="Path"></path>
                                    <path d="M22.6957465,13.5311214 C22.6957465,8.97172181 25.7906211,5.88309627 30.0644954,5.88309627 C34.3383698,5.88309627 37.4332443,8.97172181 37.4332443,13.5311214 C37.4332443,18.090521 34.3383698,21.1791466 30.0644954,21.1791466 C25.7906211,21.1791466 22.6957465,18.090521 22.6957465,13.5311214 Z M34.4857447,13.5311214 C34.4857447,10.4915217 32.56987,8.53048959 30.0644954,8.53048959 C27.5591208,8.53048959 25.6432461,10.4915217 25.6432461,13.5311214 C25.6432461,16.5707212 27.5591208,18.5317532 30.0644954,18.5317532 C32.56987,18.5317532 34.4857447,16.619747 34.4857447,13.5311214 Z" id="Shape"></path>
                                    <path d="M40.0859939,13.5311214 C40.0859939,8.97172181 43.1808684,5.88309627 47.4547428,5.88309627 C51.7286171,5.88309627 54.8234916,8.97172181 54.8234916,13.5311214 C54.8234916,18.090521 51.7286171,21.1791466 47.4547428,21.1791466 C43.1808684,21.1791466 40.0859939,18.090521 40.0859939,13.5311214 Z M51.8759921,13.5311214 C51.8759921,10.4915217 49.9601174,8.53048959 47.4547428,8.53048959 C44.9493682,8.53048959 43.0334934,10.4915217 43.0334934,13.5311214 C43.0334934,16.5707212 44.9493682,18.5317532 47.4547428,18.5317532 C49.9601174,18.5317532 51.8759921,16.619747 51.8759921,13.5311214 Z" id="Shape"></path>
                                    <path d="M60.8658657,21.7674562 C61.0132407,23.0911529 62.2904905,24.4148495 64.6976151,24.4148495 C67.0556148,24.4148495 68.6767395,22.796998 68.6767395,20.5908369 L68.6767395,18.2375984 L68.5293646,18.2375984 C67.8416147,18.9239597 66.7608648,20.0025273 63.9607403,20.0025273 C60.3254908,20.0025273 57.4762412,17.2080566 57.4762412,12.9428118 C57.4762412,8.677567 60.3254908,5.88309627 63.9607403,5.88309627 C66.8099898,5.88309627 68.0381146,7.20679293 68.5293646,7.79510256 L68.6767395,7.79510256 L68.9714895,6.17725108 L71.6242391,6.17725108 L71.6242391,20.5908369 C71.6242391,24.4638753 69.1188645,27.0622428 64.6976151,27.0622428 C59.8342409,27.0622428 58.0657412,23.7775141 57.9183662,21.7674562 L60.8658657,21.7674562 L60.8658657,21.7674562 Z M68.6767395,12.9428118 C68.6767395,10.2954185 66.9082398,8.53048959 64.5502402,8.53048959 C62.1922405,8.53048959 60.4237408,10.2954185 60.4237408,12.9428118 C60.4237408,15.5902051 62.1922405,17.355134 64.5502402,17.355134 C66.9082398,17.355134 68.6767395,15.5902051 68.6767395,12.9428118 Z" id="Shape"></path>
                                    <polygon id="Path" points="75.8981134 0.294154813 78.845613 0.294154813 78.845613 20.8849918 75.8981134 20.8849918"></polygon>
                                    <path d="M96.3832353,16.619747 C95.6954854,18.5317532 93.5831107,21.1791466 89.7513613,21.1791466 C85.477487,21.1791466 82.3826124,18.090521 82.3826124,13.5311214 C82.3826124,8.97172181 85.477487,5.88309627 89.7513613,5.88309627 C93.7304857,5.88309627 96.8253602,8.97172181 96.8253602,13.0898892 C96.8253602,13.5311214 96.7762353,13.874302 96.7271103,14.1684568 L96.6779853,14.5606633 L85.330112,14.5606633 C85.6739869,17.0609792 87.3933617,18.6788307 89.7513613,18.6788307 C91.5198611,18.6788307 92.7971109,17.6492888 93.2883608,16.619747 L96.3832353,16.619747 L96.3832353,16.619747 Z M94.0252357,12.3545022 C93.6813607,10.0012637 92.109361,8.38341218 89.7513613,8.38341218 C87.2459867,8.38341218 85.7722369,10.0012637 85.330112,12.3545022 L94.0252357,12.3545022 Z" id="Shape"></path>
                                </g>
                                <g id="Group-7" transform="translate(1.571906, 33.456123)">
                                    <path d="M3.09487453,14.5606633 C3.09487453,16.4726696 5.05987423,18.2375984 8.10562376,18.2375984 C11.4952482,18.2375984 12.821623,16.9139018 12.821623,15.1489729 C12.821623,13.629173 11.6426232,12.648657 9.28462359,12.2074248 L5.30549919,11.4720377 C2.01412469,10.8837281 0.442124933,8.8736702 0.442124933,6.03017367 C0.442124933,2.64739332 3.24224951,6.19215179e-13 7.81087381,6.19215179e-13 C12.968998,6.19215179e-13 15.6217476,2.94154813 15.6217476,6.6184833 L12.5268731,6.6184833 C12.5268731,4.70647701 10.7583734,2.94154813 7.81087381,2.94154813 C5.01074924,2.94154813 3.53699946,4.3632964 3.53699946,6.03017367 C3.53699946,7.35387034 4.37212433,8.38341218 6.63187399,8.8246444 L9.8741235,9.41295403 C14.0497479,10.1483411 15.9164976,11.8642441 15.9164976,15.1489729 C15.9164976,18.5317532 13.263748,21.1791466 8.10562376,21.1791466 C2.94749955,21.1791466 -2.09396693e-14,18.2375984 -2.09396693e-14,14.5606633 L3.09487453,14.5606633 L3.09487453,14.5606633 Z" id="Path"></path>
                                    <path d="M32.66812,16.619747 C31.9803701,18.5317532 29.8679954,21.1791466 26.036246,21.1791466 C21.7623717,21.1791466 18.6674972,18.090521 18.6674972,13.5311214 C18.6674972,8.97172181 21.7623717,5.88309627 26.036246,5.88309627 C30.0153704,5.88309627 33.110245,8.97172181 33.110245,13.0898892 C33.110245,13.5311214 33.06112,13.874302 33.011995,14.1684568 L32.96287,14.5606633 L21.6149967,14.5606633 C21.9588717,17.0609792 23.6782464,18.6788307 26.036246,18.6788307 C27.8047458,18.6788307 29.0819956,17.6492888 29.5732455,16.619747 L32.66812,16.619747 L32.66812,16.619747 Z M30.3101204,12.3545022 C29.9662454,10.0012637 28.3942457,8.38341218 26.036246,8.38341218 C23.5308714,8.38341218 22.0571216,10.0012637 21.6149967,12.3545022 L30.3101204,12.3545022 Z" id="Shape"></path>
                                    <path d="M45.784493,19.2671403 L45.637118,19.2671403 C45.3423681,19.6593467 44.9984931,19.9535015 44.5563682,20.2476563 C43.8686183,20.7379143 42.7387435,21.1791466 41.2158687,21.1791466 C37.9736192,21.1791466 35.9103695,19.3161661 35.9103695,16.619747 C35.9103695,13.6781988 37.8262442,11.7661925 41.9527436,11.7661925 L45.637118,11.7661925 L45.637118,11.4720377 C45.637118,9.56003144 44.4581182,8.38341218 42.5422435,8.38341218 C40.4789938,8.38341218 39.594744,9.56003144 39.447369,10.4424959 L36.4998694,10.4424959 C36.6472444,7.99120576 38.8578691,5.88309627 42.5422435,5.88309627 C46.4231179,5.88309627 48.5846176,8.04023157 48.5846176,11.4720377 L48.5846176,20.8849918 L46.079243,20.8849918 L45.784493,19.2671403 Z M45.637118,14.119431 L42.1001186,14.119431 C39.8403689,14.119431 38.8578691,15.1489729 38.8578691,16.4726696 C38.8578691,17.7963662 39.7421189,18.6788307 41.5106187,18.6788307 C44.2124933,18.6788307 45.637118,17.2080566 45.637118,14.7077407 L45.637118,14.119431 L45.637118,14.119431 Z" id="Shape"></path>
                                    <path d="M52.563742,6.17725108 L55.0691166,6.17725108 L55.3638666,7.50094774 L55.5112415,7.50094774 C56.0024915,6.96166392 56.4937414,6.17725108 58.3113661,6.17725108 L60.9641157,6.17725108 L60.9641157,8.8246444 L58.6061161,8.8246444 C56.5428664,8.8246444 55.5112415,9.85418625 55.5112415,11.8642441 L55.5112415,20.8849918 L52.563742,20.8849918 L52.563742,6.17725108 Z" id="Path"></path>
                                    <path d="M76.3402384,15.7372825 C75.8489884,17.9434436 73.9822387,21.1791466 69.5609894,21.1791466 C65.2871151,21.1791466 62.1922405,18.090521 62.1922405,13.5311214 C62.1922405,8.97172181 65.2871151,5.88309627 69.5609894,5.88309627 C73.9822387,5.88309627 75.8489884,9.16782502 76.3402384,11.1778829 L73.3927388,11.1778829 C72.9014889,9.85418625 71.8207391,8.53048959 69.5609894,8.53048959 C67.0556148,8.53048959 65.1397401,10.4915217 65.1397401,13.5311214 C65.1397401,16.5707212 67.0556148,18.5317532 69.5609894,18.5317532 C71.918989,18.5317532 73.0488639,16.9139018 73.3927388,15.7372825 L76.3402384,15.7372825 Z" id="Path"></path>
                                    <path d="M79.7298629,0.294154813 L82.6773624,0.294154813 L82.6773624,7.64802515 L82.8247374,7.64802515 C83.1686123,7.30484453 83.5124873,7.01068972 83.9054872,6.76556071 C84.5932371,6.32432849 85.6739869,5.88309627 87.0986117,5.88309627 C90.6356112,5.88309627 92.9936108,8.18730897 92.9936108,12.0603473 L92.9936108,20.8849918 L90.0461113,20.8849918 L90.0461113,12.0603473 C90.0461113,10.1483411 88.5232365,8.53048959 86.5091118,8.53048959 C84.2984872,8.53048959 82.6773624,10.1483411 82.6773624,12.0603473 L82.6773624,20.8849918 L79.7298629,20.8849918 L79.7298629,0.294154813 Z" id="Path"></path>
                                    <polygon id="Path" points="104.488859 0.294154813 118.047357 0.294154813 118.047357 3.23570295 107.583734 3.23570295 107.583734 9.11879922 117.457857 9.11879922 117.457857 12.0603473 107.583734 12.0603473 107.583734 17.9434436 118.047357 17.9434436 118.047357 20.8849918 104.488859 20.8849918"></polygon>
                                    <path d="M121.879106,6.17725108 L124.531856,6.17725108 L124.826606,7.64802515 L124.973981,7.64802515 C125.317856,7.30484453 125.661731,7.01068972 126.054731,6.76556071 C126.742481,6.32432849 127.823231,5.88309627 129.247855,5.88309627 C132.784855,5.88309627 135.142854,8.18730897 135.142854,12.0603473 L135.142854,20.8849918 L132.195355,20.8849918 L132.195355,12.0603473 C132.195355,10.1483411 130.67248,8.53048959 128.658355,8.53048959 C126.447731,8.53048959 124.826606,10.1483411 124.826606,12.0603473 L124.826606,20.8849918 L121.879106,20.8849918 L121.879106,6.17725108 Z" id="Path"></path>
                                    <path d="M141.774728,21.7674562 C141.922103,23.0911529 143.199353,24.4148495 145.606478,24.4148495 C147.964477,24.4148495 149.585602,22.796998 149.585602,20.5908369 L149.585602,18.2375984 L149.438227,18.2375984 C148.750477,18.9239597 147.669727,20.0025273 144.869603,20.0025273 C141.234353,20.0025273 138.385104,17.2080566 138.385104,12.9428118 C138.385104,8.677567 141.234353,5.88309627 144.869603,5.88309627 C147.718852,5.88309627 148.946977,7.20679293 149.438227,7.79510256 L149.585602,7.79510256 L149.880352,6.17725108 L152.533102,6.17725108 L152.533102,20.5908369 C152.533102,24.4638753 150.027727,27.0622428 145.606478,27.0622428 C140.743104,27.0622428 138.974604,23.7775141 138.827229,21.7674562 L141.774728,21.7674562 L141.774728,21.7674562 Z M149.585602,12.9428118 C149.585602,10.2954185 147.817102,8.53048959 145.459103,8.53048959 C143.101103,8.53048959 141.332603,10.2954185 141.332603,12.9428118 C141.332603,15.5902051 143.101103,17.355134 145.459103,17.355134 C147.817102,17.355134 149.585602,15.5902051 149.585602,12.9428118 Z" id="Shape"></path>
                                    <path d="M156.512226,0.294154813 L159.754476,0.294154813 L159.754476,3.38278035 L156.512226,3.38278035 L156.512226,0.294154813 Z M156.659601,6.17725108 L159.607101,6.17725108 L159.607101,20.8849918 L156.659601,20.8849918 L156.659601,6.17725108 Z" id="Shape"></path>
                                    <path d="M163.7336,6.17725108 L166.38635,6.17725108 L166.6811,7.64802515 L166.828475,7.64802515 C167.17235,7.30484453 167.516224,7.01068972 167.909224,6.76556071 C168.596974,6.32432849 169.677724,5.88309627 171.102349,5.88309627 C174.639348,5.88309627 176.997348,8.18730897 176.997348,12.0603473 L176.997348,20.8849918 L174.049848,20.8849918 L174.049848,12.0603473 C174.049848,10.1483411 172.526974,8.53048959 170.512849,8.53048959 C168.302224,8.53048959 166.6811,10.1483411 166.6811,12.0603473 L166.6811,20.8849918 L163.7336,20.8849918 L163.7336,6.17725108 Z" id="Path"></path>
                                    <path d="M194.24022,16.619747 C193.552471,18.5317532 191.440096,21.1791466 187.608346,21.1791466 C183.334472,21.1791466 180.239598,18.090521 180.239598,13.5311214 C180.239598,8.97172181 183.334472,5.88309627 187.608346,5.88309627 C191.587471,5.88309627 194.682345,8.97172181 194.682345,13.0898892 C194.682345,13.5311214 194.63322,13.874302 194.584095,14.1684568 L194.53497,14.5606633 L183.187097,14.5606633 C183.530972,17.0609792 185.250347,18.6788307 187.608346,18.6788307 C189.376846,18.6788307 190.654096,17.6492888 191.145346,16.619747 L194.24022,16.619747 L194.24022,16.619747 Z M191.882221,12.3545022 C191.538346,10.0012637 189.966346,8.38341218 187.608346,8.38341218 C185.102972,8.38341218 183.629222,10.0012637 183.187097,12.3545022 L191.882221,12.3545022 Z" id="Shape"></path>
                                </g>
                            </g>
                            <path d="M26.5229682,13.6095131 C26.5229682,21.1919561 21.2577407,26.587156 13.4829189,26.587156 C6.05255118,26.587156 0,20.6572967 0,13.2692753 C0,5.88125388 6.00334345,0 13.4829189,0 C17.1242912,0 20.1259629,1.31234591 22.4879341,3.45098368 L18.8465618,6.95057277 C14.0734117,2.38166479 5.16681199,5.83264847 5.16681199,13.2692753 C5.16681199,17.8867887 8.90659971,21.6780102 13.4829189,21.6780102 C18.7973541,21.6780102 20.8148711,17.8867887 21.1101175,15.9425725 L13.4829189,15.9425725 L13.4829189,11.3736645 L26.2769295,11.3736645 C26.4245527,12.0541402 26.5229682,12.7346158 26.5229682,13.6095131" id="Path"></path>
                        </g>
                        <g id="Group-5" transform="translate(0.982332, 64.990826)">
                            <g id="Group" transform="translate(81.533569, 4.923547)">
                                <polygon id="Path" points="0.2450109 0.153290354 3.33214824 0.153290354 3.33214824 9.96387301 11.2214992 0.153290354 15.0926715 0.153290354 6.56629212 10.7303248 15.6806976 21.6139399 11.8095254 21.6139399 3.33214824 11.4967765 3.33214824 21.6139399 0.2450109 21.6139399 0.2450109 0.153290354"></polygon>
                                <path d="M17.4447761,0.153290354 L20.67892,0.153290354 L20.67892,3.37238779 L17.4447761,3.37238779 L17.4447761,0.153290354 Z M17.5917826,6.28490451 L20.5319134,6.28490451 L20.5319134,21.6139399 L17.5917826,21.6139399 L17.5917826,6.28490451 Z" id="Shape"></path>
                                <path d="M37.9766895,16.2487775 C37.4866677,18.5481328 35.6245849,21.9205206 31.2143887,21.9205206 C26.951199,21.9205206 23.8640617,18.7014232 23.8640617,13.9494222 C23.8640617,9.19742124 26.951199,5.97832381 31.2143887,5.97832381 C35.6245849,5.97832381 37.4866677,9.40180838 37.9766895,11.4967765 L35.0365587,11.4967765 C34.5465369,10.1171634 33.468489,8.73755018 31.2143887,8.73755018 C28.7152775,8.73755018 26.8041925,10.7814216 26.8041925,13.9494222 C26.8041925,17.1174229 28.7152775,19.1612942 31.2143887,19.1612942 C33.5664933,19.1612942 34.6935435,17.4751004 35.0365587,16.2487775 L37.9766895,16.2487775 Z" id="Path"></path>
                                <polygon id="Path" points="41.3088378 0.153290354 44.2489686 0.153290354 44.2489686 13.3362608 50.4232433 6.28490451 53.9514002 6.28490451 47.3361059 13.7961319 54.2454133 21.6139399 50.7172563 21.6139399 44.2489686 14.2560029 44.2489686 21.6139399 41.3088378 21.6139399 41.3088378 0.153290354"></polygon>
                                <path d="M58.2145899,17.0152293 C58.2145899,17.9349714 59.2436357,19.3145846 61.5957403,19.3145846 C63.8008384,19.3145846 64.6828776,18.2926489 64.6828776,17.32181 C64.6828776,16.2487775 64.1438537,15.5845193 62.4777795,15.3290354 L59.8316618,14.8691643 C56.9895354,14.3581965 55.5684722,13.0296801 55.5684722,10.4237441 C55.5684722,7.97109841 57.4795572,5.97832381 61.4487338,5.97832381 C65.7119234,5.97832381 67.4760019,9.04413089 67.4760019,10.7303248 L64.5358711,10.7303248 C64.5358711,9.81058266 63.6538319,8.58425982 61.4487338,8.58425982 C59.34164,8.58425982 58.508603,9.45290516 58.508603,10.4237441 C58.508603,11.394583 59.3906422,12.0077444 60.7137011,12.2632283 L63.3598188,12.7230994 C66.2019452,13.2340672 67.6230084,14.7669708 67.6230084,17.32181 C67.6230084,19.7744557 65.7119234,21.9205206 61.5957403,21.9205206 C56.891531,21.9205206 55.2744591,18.7014232 55.2744591,17.0152293 L58.2145899,17.0152293 L58.2145899,17.0152293 Z" id="Path"></path>
                                <path d="M71.4941807,9.19742124 L69.142076,9.19742124 L69.142076,6.28490451 L71.4941807,6.28490451 L71.4941807,1.9927746 L74.4343115,1.9927746 L74.4343115,6.28490451 L77.8154619,6.28490451 L77.8154619,9.19742124 L74.4343115,9.19742124 L74.4343115,17.9349714 C74.4343115,18.5481328 74.7283246,18.8547135 75.3163507,18.8547135 L77.8154619,18.8547135 L77.8154619,21.6139399 L74.7283246,21.6139399 C72.6212308,21.6139399 71.4941807,20.3876171 71.4941807,18.3948425 L71.4941807,9.19742124 Z" id="Path"></path>
                                <path d="M90.0660069,19.927746 L89.9190004,19.927746 C89.6249873,20.3365203 89.281972,20.643101 88.8409524,20.9496817 C88.1549219,21.4606496 87.0278717,21.9205206 85.5088042,21.9205206 C82.2746603,21.9205206 80.2165687,19.9788428 80.2165687,17.1685196 C80.2165687,14.1027126 82.1276537,12.109938 86.2438369,12.109938 L89.9190004,12.109938 L89.9190004,11.8033573 C89.9190004,9.81058266 88.742948,8.58425982 86.831863,8.58425982 C84.7737715,8.58425982 83.8917322,9.81058266 83.7447257,10.7303248 L80.8045949,10.7303248 C80.9516014,8.17548555 83.1566995,5.97832381 86.831863,5.97832381 C90.7030352,5.97832381 92.8591312,8.22658233 92.8591312,11.8033573 L92.8591312,21.6139399 L90.36002,21.6139399 L90.0660069,19.927746 Z M89.9190004,14.5625836 L86.3908434,14.5625836 C84.1367431,14.5625836 83.1566995,15.6356161 83.1566995,17.0152293 C83.1566995,18.3948425 84.0387388,19.3145846 85.8028172,19.3145846 C88.4979371,19.3145846 89.9190004,17.7816811 89.9190004,15.175745 L89.9190004,14.5625836 L89.9190004,14.5625836 Z" id="Shape"></path>
                                <path d="M96.8283077,6.28490451 L99.3274189,6.28490451 L99.621432,7.6645177 L99.7684385,7.6645177 C100.25846,7.10245307 100.748482,6.28490451 102.561563,6.28490451 L105.207681,6.28490451 L105.207681,9.04413089 L102.855576,9.04413089 C100.797484,9.04413089 99.7684385,10.1171634 99.7684385,12.2121315 L99.7684385,21.6139399 L96.8283077,21.6139399 L96.8283077,6.28490451 Z" id="Path"></path>
                                <path d="M108.882844,9.19742124 L106.530739,9.19742124 L106.530739,6.28490451 L108.882844,6.28490451 L108.882844,1.9927746 L111.822975,1.9927746 L111.822975,6.28490451 L115.204125,6.28490451 L115.204125,9.19742124 L111.822975,9.19742124 L111.822975,17.9349714 C111.822975,18.5481328 112.116988,18.8547135 112.705014,18.8547135 L115.204125,18.8547135 L115.204125,21.6139399 L112.116988,21.6139399 C110.009894,21.6139399 108.882844,20.3876171 108.882844,18.3948425 L108.882844,9.19742124 Z" id="Path"></path>
                                <path d="M131.374845,17.1685196 C130.688814,19.1612942 128.58172,21.9205206 124.75955,21.9205206 C120.496361,21.9205206 117.409223,18.7014232 117.409223,13.9494222 C117.409223,9.19742124 120.496361,5.97832381 124.75955,5.97832381 C128.728727,5.97832381 131.815864,9.19742124 131.815864,13.4895512 C131.815864,13.9494222 131.766862,14.3070997 131.71786,14.6136804 L131.668858,15.0224547 L120.349354,15.0224547 C120.692369,17.6283907 122.407446,19.3145846 124.75955,19.3145846 C126.523629,19.3145846 127.797686,18.2415521 128.287707,17.1685196 L131.374845,17.1685196 L131.374845,17.1685196 Z M129.02274,12.7230994 C128.679725,10.2704537 127.111655,8.58425982 124.75955,8.58425982 C122.260439,8.58425982 120.790374,10.2704537 120.349354,12.7230994 L129.02274,12.7230994 Z" id="Shape"></path>
                                <path d="M135.197015,6.28490451 L137.696126,6.28490451 L137.990139,7.6645177 L138.137146,7.6645177 C138.627167,7.10245307 139.117189,6.28490451 140.93027,6.28490451 L143.576387,6.28490451 L143.576387,9.04413089 L141.224283,9.04413089 C139.166191,9.04413089 138.137146,10.1171634 138.137146,12.2121315 L138.137146,21.6139399 L135.197015,21.6139399 L135.197015,6.28490451 Z" id="Path"></path>
                            </g>
                            <path d="M2.81745816,27.5718654 C2.04022832,27.5718654 1.36015222,27.2694318 0.825806702,26.7149702 C0.291461189,26.1605085 0,25.4548301 0,24.5979348 L0,2.92352504 C0,2.11703537 0.291461189,1.41135691 0.825806702,0.85689527 C1.36015222,0.302433625 2.04022832,0 2.81745816,0 L23.70551,0 C24.4827399,0 25.162816,0.302433625 25.6971615,0.85689527 C26.231507,1.41135691 26.5229682,2.11703537 26.5229682,2.92352504 L26.5229682,24.5979348 C26.5229682,25.4044245 26.231507,26.1101029 25.6971615,26.7149702 C25.162816,27.2694318 24.4827399,27.5718654 23.70551,27.5718654 L2.81745816,27.5718654 Z M11.124102,6.90556776 C10.6869103,6.45191732 10.1039879,6.1998893 9.37533491,6.1998893 C8.64668194,6.1998893 8.11233643,6.45191732 7.67514464,7.00637897 C7.23795286,7.56084062 7.0436454,8.21611347 7.0436454,8.97219753 L7.0436454,18.4988567 C7.0436454,19.3053464 7.23795286,19.9606192 7.67514464,20.5150809 C8.06375956,21.0191369 8.64668194,21.2711649 9.42391178,21.2711649 C10.1525647,21.2711649 10.7354871,21.0191369 11.124102,20.5654865 C11.5612938,20.111836 11.7556013,19.4061576 11.7556013,18.4988567 L11.7556013,15.9281709 L15.3017124,20.6158921 C15.6903273,21.0695425 16.2246729,21.3215705 16.904749,21.3215705 C17.5848251,21.3215705 18.1191706,21.1199481 18.6049392,20.6662977 C19.042131,20.2126472 19.2850153,19.6581856 19.3335922,19.0533184 C19.3335922,18.4484511 19.1878616,17.9443951 18.8964004,17.4907446 L15.9817885,13.6095131 L18.3620549,10.0307152 C18.6535161,9.57706478 18.7992467,9.07300874 18.7506698,8.46814149 C18.702093,7.91367984 18.4592086,7.4096238 18.0220169,7.00637897 C17.4876713,6.50232293 16.904749,6.25029491 16.176096,6.25029491 C15.447443,6.30070051 14.8645206,6.70394535 14.378752,7.4096238 L11.7556013,11.3412609 L11.7556013,8.92179193 C11.8041782,8.06489666 11.6098707,7.4096238 11.124102,6.90556776" id="Shape"></path>
                        </g>
                    </g>
                </g>
            </g>
        </g>
    </g>
</svg>