<?xml version="1.0" encoding="UTF-8"?>
<svg width="192px" height="25px" viewBox="0 0 192 25" version="1.1" xmlns="http://www.w3.org/2000/svg" xmlns:xlink="http://www.w3.org/1999/xlink">
    <title>Group 7</title>
    <g id="Desktop" stroke="none" stroke-width="1" fill="none" fill-rule="evenodd">
        <g id="Credit-card-fraud_1440" transform="translate(-838.000000, -1246.000000)" fill="#000000" fill-rule="nonzero">
            <g id="Apollo_Stratus_Socnet" transform="translate(189.000000, 1246.000000)">
                <g id="Group-7" transform="translate(649.000000, 0.000000)">
                    <g id="Group" transform="translate(86.375405, 3.957134)">
                        <polygon id="Path" points="0.332556761 0.142134062 5.46343251 0.142134062 10.7368326 15.7768808 11.3069299 15.7768808 16.58033 0.142134062 21.7112057 0.142134062 21.7112057 20.0409027 18.7181949 20.0409027 18.7181949 4.8325581 18.1480975 4.8325581 13.0172218 20.0409027 9.02654067 20.0409027 3.89566492 4.8325581 3.32556761 4.8325581 3.32556761 20.0409027 0.332556761 20.0409027"></polygon>
                        <path d="M38.7666168,15.9190149 C38.1015032,17.7667577 36.0586546,20.3251708 32.3530221,20.3251708 C28.2198166,20.3251708 25.2268058,17.3403555 25.2268058,12.9341996 C25.2268058,8.5280437 28.2198166,5.54322841 32.3530221,5.54322841 C36.2011789,5.54322841 39.1941897,8.5280437 39.1941897,12.5077974 C39.1941897,12.9341996 39.1466816,13.2658458 39.0991735,13.5501139 L39.0516654,13.929138 L28.0772923,13.929138 C28.409849,16.3454171 30.0726329,17.9088918 32.3530221,17.9088918 C34.063314,17.9088918 35.2985248,16.9139533 35.7736059,15.9190149 L38.7666168,15.9190149 L38.7666168,15.9190149 Z M36.4862275,11.7971271 C36.1536708,9.52298213 34.6334113,7.95950745 32.3530221,7.95950745 C29.9301085,7.95950745 28.5048653,9.52298213 28.0772923,11.7971271 L36.4862275,11.7971271 Z" id="Shape"></path>
                        <path d="M52.8765251,18.335294 L52.7340007,18.335294 C52.3064278,18.9038302 51.0712169,20.3251708 48.3157466,20.3251708 C44.562606,20.3251708 41.7596276,17.4824896 41.7596276,12.9341996 C41.7596276,8.38590964 44.562606,5.54322841 48.3157466,5.54322841 C51.0712169,5.54322841 52.2589196,7.01194704 52.7340007,7.53310527 L52.8765251,7.53310527 L52.8765251,0.142134062 L55.7270116,0.142134062 L55.7270116,20.0409027 L53.1615737,20.0409027 L52.8765251,18.335294 Z M52.8765251,12.9341996 C52.8765251,9.99676234 51.0237088,8.10164152 48.7433196,8.10164152 C46.4629304,8.10164152 44.6101141,9.99676234 44.6101141,12.9341996 C44.6101141,15.8716369 46.4629304,17.7667577 48.7433196,17.7667577 C51.0237088,17.7667577 52.8765251,15.9190149 52.8765251,12.9341996 Z" id="Shape"></path>
                        <path d="M59.7176927,0.142134062 L62.8532279,0.142134062 L62.8532279,3.12694936 L59.7176927,3.12694936 L59.7176927,0.142134062 Z M59.860217,5.82749653 L62.7107036,5.82749653 L62.7107036,20.0409027 L59.860217,20.0409027 L59.860217,5.82749653 Z" id="Shape"></path>
                        <path d="M66.7013847,5.82749653 L69.5518712,5.82749653 L69.5518712,14.3555402 C69.5518712,16.203283 71.0246226,17.7667577 72.9724551,17.7667577 C75.11032,17.7667577 76.6780876,16.203283 76.6780876,14.3555402 L76.6780876,5.82749653 L79.5285741,5.82749653 L79.5285741,20.0409027 L76.9631362,20.0409027 L76.6780876,18.6195621 L76.5355632,18.6195621 C76.2030065,18.9512082 75.8704497,19.2354763 75.4903848,19.4723665 C74.8252713,19.8987686 73.7325848,20.3251708 72.4023578,20.3251708 C68.9817739,20.3251708 66.7013847,18.0984039 66.7013847,14.3555402 L66.7013847,5.82749653 Z" id="Path"></path>
                        <path d="M83.5192552,5.82749653 L86.0846931,5.82749653 L86.3697417,7.24883715 L86.5122661,7.24883715 C86.7973147,6.917191 87.1298715,6.63292288 87.5099364,6.39603278 C88.1750499,5.96963059 89.0777039,5.54322841 90.2178986,5.54322841 C91.6906499,5.54322841 92.593304,6.06438663 93.2109094,6.53816684 C93.5434662,6.86981298 93.8285148,7.1540811 94.0660554,7.53310527 L94.2085797,7.53310527 C94.4936283,7.1540811 94.8736932,6.86981298 95.3012662,6.53816684 C96.0613959,6.06438663 97.2015905,5.54322841 98.9118825,5.54322841 C101.857385,5.54322841 104.042758,7.81737339 104.042758,11.0390788 L104.042758,20.0409027 L101.192272,20.0409027 L101.192272,11.0864568 C101.192272,9.23871401 100.052077,8.10164152 98.3417852,8.10164152 C96.5839851,8.10164152 95.20625,9.38084807 95.20625,11.0864568 L95.20625,20.0409027 L92.3557634,20.0409027 L92.3557634,11.0864568 C92.3557634,9.23871401 91.2155688,8.10164152 89.5052769,8.10164152 C87.7474769,8.10164152 86.3697417,9.38084807 86.3697417,11.0864568 L86.3697417,20.0409027 L83.5192552,20.0409027 L83.5192552,5.82749653 L83.5192552,5.82749653 Z" id="Path"></path>
                    </g>
                    <path d="M3.04262295,3.69896907 L0.332786885,0.474226804 L0.332786885,0 L8.79508197,0 L15.2606557,14.2268041 L20.9655738,0 L29,0 L29,0.474226804 L26.6704918,2.70309278 C26.4803279,2.89278351 26.3852459,3.08247423 26.4327869,3.36701031 L26.4327869,19.6329897 C26.3852459,19.9175258 26.4803279,20.1072165 26.6704918,20.2969072 L28.952459,22.5257732 L28.952459,23 L17.5901639,23 L17.5901639,22.5257732 L19.9196721,20.2494845 C20.0147541,20.1546392 20.1098361,20.0597938 20.1098361,19.9649485 C20.1098361,19.9175258 20.157377,19.7752577 20.157377,19.585567 L20.157377,6.40206186 L13.6918033,22.9051546 L12.7885246,22.9051546 L5.18196721,6.40206186 L5.18196721,17.4515464 C5.13442623,17.9257732 5.27704918,18.3525773 5.60983607,18.7319588 L8.65245902,22.4309278 L8.65245902,22.9051546 L0,22.9051546 L0,22.4309278 L3.04262295,18.7319588 C3.42295082,18.3525773 3.51803279,17.9731959 3.4704918,17.4515464 L3.4704918,4.64742268 C3.4704918,4.31546392 3.32786885,3.98350515 3.04262295,3.69896907" id="Path"></path>
                </g>
            </g>
        </g>
    </g>
</svg>