<?xml version="1.0" encoding="UTF-8"?>
<svg width="21px" height="17px" viewBox="0 0 21 17" version="1.1" xmlns="http://www.w3.org/2000/svg" xmlns:xlink="http://www.w3.org/1999/xlink">
    <title>Fill 54</title>
    <g id="Desktop" stroke="none" stroke-width="1" fill="none" fill-rule="evenodd">
        <g id="Home_1440" transform="translate(-142.000000, -11553.000000)" fill="#000000">
            <g id="Roadmap" transform="translate(-25.000000, 10810.000000)">
                <g transform="translate(0.000000, 248.000000)" id="Group-64">
                    <g transform="translate(124.000000, 296.853000)">
                        <path d="M45.5345,200.9916 L43.6815,198.7716 L43.6815,198.4376 L49.4825,198.4376 L53.9305,208.2296 L57.8385,198.4376 L63.3545,198.4376 L63.3545,198.7716 L61.7445,200.2916 C61.6125,200.4096 61.5575,200.5546 61.5855,200.7496 L61.5855,211.9426 C61.5575,212.1296 61.6125,212.2826 61.7445,212.3926 L63.3125,213.9136 L63.3125,214.2466 L55.4995,214.2466 L55.4995,213.9136 L57.1025,212.3516 C57.1795,212.2686 57.2275,212.2066 57.2415,212.1646 C57.2555,212.1226 57.2625,212.0326 57.2625,211.9006 L57.2625,202.8456 L52.8205,214.2046 L52.2035,214.2046 L46.9775,202.8456 L46.9775,210.4576 C46.9505,210.7906 47.0405,211.0746 47.2625,211.3246 L49.3655,213.8716 L49.3655,214.2046 L43.4385,214.2046 L43.4385,213.8716 L45.5345,211.3246 C45.7845,211.0746 45.8745,210.7906 45.8255,210.4576 L45.8255,201.6506 C45.8255,201.4086 45.7285,201.1856 45.5345,200.9916" id="Fill-54"></path>
                    </g>
                </g>
            </g>
        </g>
    </g>
</svg>