<?xml version="1.0" encoding="UTF-8"?>
<svg width="225px" height="320px" viewBox="0 0 225 320" version="1.1" xmlns="http://www.w3.org/2000/svg" xmlns:xlink="http://www.w3.org/1999/xlink">
    <title>Group 22</title>
    <g id="Mobile" stroke="none" stroke-width="1" fill="none" fill-rule="evenodd">
        <g id="Credit-card-fraud_375" transform="translate(-35.000000, -2234.000000)" fill="#000000" fill-rule="nonzero">
            <g id="Group-5" transform="translate(35.000000, 441.000000)">
                <g id="Group-23" transform="translate(0.000000, 1117.000000)">
                    <g id="Group-22" transform="translate(0.000000, 676.000000)">
                        <g id="Group-9" transform="translate(14.736842, 63.012346)">
                            <g id="Group" transform="translate(78.596491, 5.907407)">
                                <path d="M7.72151023,0.146604475 L12.503865,0.146604475 L20.1257428,20.6712309 L16.6884253,20.6712309 L14.8950423,15.8332833 L5.33033287,15.8332833 L3.53694985,20.6712309 L0.09963239,20.6712309 L7.72151023,0.146604475 Z M13.8489022,13.0477982 L10.4115848,3.66511186 L9.81379042,3.66511186 L6.37647296,13.0477982 L13.8489022,13.0477982 Z" id="Shape"></path>
                                <path d="M22.3176554,6.01078346 L25.0077299,6.01078346 L25.3066271,7.4768282 L25.4560757,7.4768282 C25.7549728,7.1347511 26.1036862,6.84154215 26.5022158,6.59720136 C27.1996425,6.15738793 28.1461502,5.71757451 29.3417389,5.71757451 C30.8860409,5.71757451 31.8325486,6.25512425 32.4801592,6.74380583 C32.8288725,7.08588294 33.1277697,7.37909189 33.3768507,7.77003715 L33.5262993,7.77003715 C33.8251964,7.37909189 34.223726,7.08588294 34.6720717,6.74380583 C35.4691309,6.25512425 36.6647195,5.71757451 38.4581026,5.71757451 C41.5467067,5.71757451 43.8382516,8.0632461 43.8382516,11.3862809 L43.8382516,20.6712309 L40.8492799,20.6712309 L40.8492799,11.435149 C40.8492799,9.52929085 39.6536912,8.35645505 37.8603082,8.35645505 C36.017109,8.35645505 34.5724393,9.67589532 34.5724393,11.435149 L34.5724393,20.6712309 L31.5834676,20.6712309 L31.5834676,11.435149 C31.5834676,9.52929085 30.387879,8.35645505 28.5944959,8.35645505 C26.7512967,8.35645505 25.3066271,9.67589532 25.3066271,11.435149 L25.3066271,20.6712309 L22.3176554,20.6712309 L22.3176554,6.01078346 L22.3176554,6.01078346 Z" id="Path"></path>
                                <path d="M57.2886243,19.0585817 L57.1391757,19.0585817 C56.8402785,19.449527 56.4915652,19.7427359 56.0432194,20.0359449 C55.3457927,20.5246264 54.2000202,20.9644399 52.6557181,20.9644399 C49.3678493,20.9644399 47.2755691,19.1074499 47.2755691,16.4197012 C47.2755691,13.4876117 49.2184007,11.5817535 53.4029611,11.5817535 L57.1391757,11.5817535 L57.1391757,11.2885445 C57.1391757,9.38268637 55.943587,8.20985058 54.0007554,8.20985058 C51.9084752,8.20985058 51.0117837,9.38268637 50.8623351,10.2623132 L47.8733634,10.2623132 C48.022812,7.81890531 50.2645408,5.71757451 54.0007554,5.71757451 C57.9362348,5.71757451 60.1281474,7.86777347 60.1281474,11.2885445 L60.1281474,20.6712309 L57.5875214,20.6712309 L57.2886243,19.0585817 Z M57.1391757,13.9274251 L53.5524097,13.9274251 C51.2608647,13.9274251 50.2645408,14.9536564 50.2645408,16.2730967 C50.2645408,17.5925369 51.1612323,18.4721638 52.9546153,18.4721638 C55.694506,18.4721638 57.1391757,17.006119 57.1391757,14.513843 L57.1391757,13.9274251 L57.1391757,13.9274251 Z" id="Shape"></path>
                                <polygon id="Path" points="63.1171191 18.0323504 70.8884455 8.79626847 63.2665677 8.79626847 63.2665677 6.01078346 74.7741087 6.01078346 74.7741087 8.649664 67.0027823 17.8857459 74.9235573 17.8857459 74.9235573 20.6712309 63.1171191 20.6712309 63.1171191 18.0323504"></polygon>
                                <path d="M77.0158375,13.3410072 C77.0158375,8.79626847 80.1542578,5.71757451 84.4882668,5.71757451 C88.8222757,5.71757451 91.960696,8.79626847 91.960696,13.3410072 C91.960696,17.8857459 88.8222757,20.9644399 84.4882668,20.9644399 C80.1542578,20.9644399 77.0158375,17.8857459 77.0158375,13.3410072 Z M88.9717243,13.3410072 C88.9717243,10.3111814 87.0288927,8.35645505 84.4882668,8.35645505 C81.9476408,8.35645505 80.0048092,10.3111814 80.0048092,13.3410072 C80.0048092,16.370833 81.9476408,18.3255593 84.4882668,18.3255593 C87.0288927,18.3255593 88.9717243,16.4197012 88.9717243,13.3410072 Z" id="Shape"></path>
                                <path d="M95.3980135,6.01078346 L98.088088,6.01078346 L98.3869852,7.4768282 L98.5364338,7.4768282 C98.8851471,7.1347511 99.2338605,6.84154215 99.63239,6.59720136 C100.329817,6.15738793 101.425773,5.71757451 102.870443,5.71757451 C106.457209,5.71757451 108.848386,8.01437794 108.848386,11.8749624 L108.848386,20.6712309 L105.859414,20.6712309 L105.859414,11.8749624 C105.859414,9.96910427 104.315112,8.35645505 102.272648,8.35645505 C100.03092,8.35645505 98.3869852,9.96910427 98.3869852,11.8749624 L98.3869852,20.6712309 L95.3980135,20.6712309 L95.3980135,6.01078346 Z" id="Path"></path>
                            </g>
                            <path d="M25.3942729,29.2212322 C24.1089562,30.0896954 22.7247691,30.8049004 21.2417114,31.4179333 C19.2148659,32.1331382 17.0891499,32.4907407 14.8645634,32.4907407 C12.6399769,32.4907407 10.4153904,32.0309661 8.24023917,31.0603308 C6.46056997,30.3451258 4.77977128,29.3234044 3.1978431,27.9951666 C1.96196171,27.0245312 0.973256595,26.1049819 0.231727761,25.1854327 C-0.0154485174,24.9300023 -0.064883773,24.725658 0.0834219939,24.6234859 C0.231727761,24.4702277 0.380033528,24.4702277 0.57777455,24.6234859 L0.874386084,24.7767441 C3.39558412,26.3604123 5.47186486,27.4843058 7.05379304,28.0973387 C9.87160261,29.2723183 12.6894122,29.8342651 15.556657,29.783179 C19.1159954,29.7320929 22.8730748,28.7614576 26.77846,26.8201869 C27.0750716,26.6669287 27.2728126,26.7180148 27.3716831,26.871273 C27.4705536,27.0756173 27.4211184,27.3310476 27.1245068,27.6886501 C26.77846,28.0973387 26.2346722,28.6081994 25.3942729,29.2212322 M10.3165199,10.9835051 C7.2020988,12.4139151 5.66960588,14.7638743 5.66960588,17.9312107 C5.66960588,19.8213953 6.16395844,21.3539774 7.2020988,22.528957 C8.14136866,23.6017645 9.37725005,24.2147973 10.8603077,24.4702277 C12.3433654,24.674572 13.8264231,24.4702277 15.2600455,23.9082809 C16.6936679,23.2952481 17.7812435,22.3756988 18.5227723,21.0985471 C18.8688191,21.6094078 19.9069595,22.7843874 21.6866287,24.5213138 L25.6908844,20.4344281 L25.1470966,19.9235674 C24.7021793,19.4637928 24.3066972,18.9529321 24.0100857,18.4931575 C23.6146037,17.8801246 23.4662979,17.2160057 23.4662979,16.6029729 L23.4662979,5.92598416 C23.4662979,5.21077918 23.2191216,4.44448812 22.7742043,3.62711099 C22.2304165,2.55430352 21.4394524,1.73692639 20.4013121,1.17497962 C19.0665602,0.408688563 17.484632,0 15.556657,0 C13.628682,0 11.9478833,0.408688563 10.4153904,1.17497962 C9.08063852,1.8901846 7.99306289,2.86081994 7.25153406,3.98471349 C6.51000522,5.15969311 6.11452318,6.33467272 6.11452318,7.56073841 L11.305225,8.07159911 C11.7501423,6.59010307 12.5411064,5.5172956 13.628682,4.95534882 C14.1230346,4.6488324 14.6173871,4.49557419 15.1117397,4.49557419 C15.9027038,4.49557419 16.4959269,4.6488324 16.8419736,4.95534882 C17.1880204,5.26186525 17.4351967,5.77272595 17.5340672,6.43684486 C17.6329377,6.8966195 17.6329377,7.61182448 17.5835025,8.63354589 L17.5835025,9.50200908 C14.7162577,9.60418123 12.2939301,10.0639559 10.3165199,10.9835051 M16.6442326,18.901846 C16.1498801,19.5659649 15.4577865,19.9235674 14.6173871,19.9746535 C13.7769878,19.9746535 13.0848942,19.7192232 12.4916712,19.1572764 C11.8984481,18.5953296 11.6018366,17.8801246 11.6018366,17.0116614 C11.6018366,15.4790793 12.2939301,14.3551858 13.628682,13.6910669 C14.6668224,13.1802061 15.952139,12.8736897 17.484632,12.8226037 L17.484632,15.7345097 C17.5835025,17.1138336 17.2868909,18.186641 16.6442326,18.901846 M28.4592587,30.0386094 C28.2615177,30.2429536 28.1132119,30.2940397 28.0143414,30.2429536 C27.9154709,30.1918676 27.8660357,29.9875233 27.9649062,29.783179 C28.2615177,29.2723183 28.4592587,28.6081994 28.6569997,27.8929944 C29.0030465,26.7691009 29.0524818,26.0538959 28.8547408,25.7984655 C28.5581292,25.440863 27.5199889,25.389777 25.6908844,25.5941212 L24.652744,25.6452073 C24.6033088,25.6452073 24.5538735,25.6452073 24.5044383,25.5941212 C24.4055678,25.389777 24.7021793,25.1343466 25.2954024,24.8789163 C25.9380607,24.5723998 26.5312838,24.4191416 27.1739421,24.3169695 C27.7671651,24.2658834 28.4098235,24.2658834 29.101917,24.3169695 C29.7940106,24.3680556 30.1894927,24.5213138 30.3377984,24.725658 C30.4861042,24.9300023 30.4861042,25.3386909 30.3872337,26.0028098 C30.2883632,26.6669287 30.1400574,27.2799616 29.8928811,27.8419083 C29.4973991,28.8125437 29.0030465,29.5277487 28.4592587,30.0386094" id="Shape"></path>
                        </g>
                        <g id="Group-8" transform="translate(0.000000, 128.978395)">
                            <g id="Group" transform="translate(95.298246, 3.938272)">
                                <polygon id="Path" points="0.347466714 0.150705299 14.0475829 0.150705299 14.0475829 3.16481128 3.47466714 3.16481128 3.47466714 9.19302324 13.4519256 9.19302324 13.4519256 12.2071292 3.47466714 12.2071292 3.47466714 18.2353412 14.0475829 18.2353412 14.0475829 21.2494472 0.347466714 21.2494472 0.347466714 0.150705299"></polygon>
                                <path d="M18.018631,0.150705299 L20.9969171,0.150705299 L20.9969171,7.98738085 L21.1458314,7.98738085 C21.6422124,7.43479475 22.883165,5.87750666 25.7621749,5.87750666 C29.683585,5.87750666 32.612233,8.89161264 32.612233,13.7141822 C32.612233,18.5367518 29.683585,21.5508578 25.7621749,21.5508578 C22.883165,21.5508578 21.5925743,20.0438048 21.1458314,19.4409836 L20.9969171,19.4409836 L20.6990885,21.2494472 L18.018631,21.2494472 L18.018631,0.150705299 Z M29.6339469,13.7141822 C29.6339469,10.599606 27.6980609,8.59020204 25.315432,8.59020204 C22.9328031,8.59020204 20.9969171,10.599606 20.9969171,13.7141822 C20.9969171,16.8287584 22.9328031,18.8381624 25.315432,18.8381624 C27.6980609,18.8381624 29.6339469,16.8789935 29.6339469,13.7141822 Z" id="Shape"></path>
                                <path d="M45.4188633,19.5916889 L45.269949,19.5916889 C44.9721204,19.9935697 44.6246537,20.2949803 44.1779107,20.5963909 C43.4829773,21.0987419 42.341301,21.5508578 40.8025198,21.5508578 C37.5264051,21.5508578 35.4416048,19.641924 35.4416048,16.8789935 C35.4416048,13.8648875 37.3774908,11.9057186 41.5470913,11.9057186 L45.269949,11.9057186 L45.269949,11.604308 C45.269949,9.64513914 44.0786345,8.43949675 42.1427486,8.43949675 C40.0579483,8.43949675 39.1644624,9.64513914 39.0155481,10.5493709 L36.037262,10.5493709 C36.1861763,8.03761595 38.4198909,5.87750666 42.1427486,5.87750666 C46.0641586,5.87750666 48.2482351,8.08785105 48.2482351,11.604308 L48.2482351,21.2494472 L45.7166919,21.2494472 L45.4188633,19.5916889 Z M45.269949,14.3170034 L41.6960056,14.3170034 C39.4126529,14.3170034 38.4198909,15.3719405 38.4198909,16.7282882 C38.4198909,18.0846359 39.3133767,18.9888677 41.1003484,18.9888677 C43.830444,18.9888677 45.269949,17.4818147 45.269949,14.9198246 L45.269949,14.3170034 L45.269949,14.3170034 Z" id="Shape"></path>
                                <path d="M51.5739879,24.5649637 L54.552274,24.5649637 C55.1479313,24.5649637 55.495398,24.0123776 55.5450361,23.6607319 L56.0414171,22.3043843 L49.9359306,6.17891726 L53.063131,6.17891726 L57.3816459,17.63252 L57.9773031,17.63252 L61.849075,6.17891726 L64.9762755,6.17891726 L58.424046,24.715669 C57.8283888,26.3734273 56.9349029,27.2776591 54.7011883,27.2776591 L51.5739879,27.2776591 L51.5739879,24.5649637 Z" id="Path"></path>
                            </g>
                            <path d="M5.80202518,19.3529691 C7.14095407,20.0585461 8.57906287,20.2097411 10.1659416,19.8569526 C11.7032303,19.4537658 12.6950295,18.6473921 13.1413391,17.4378315 L16.6622262,17.4378315 C16.3646864,19.1009773 15.3728872,20.3609362 13.6868286,21.318505 C12.3478997,22.024082 10.7114311,22.3768705 8.82701267,22.3768705 C5.85161514,22.3768705 3.62006699,21.6208951 2.13236823,20.1089444 C0.743849382,18.6977904 0,16.7826529 0,14.4139301 C0,11.8436139 0.743849382,9.77728124 2.23154815,8.26533053 C3.71924691,6.75337983 5.9012051,5.99740447 8.77742271,5.99740447 C11.3065106,5.99740447 13.3396989,6.65258311 14.8273977,8.06373711 C16.3150964,9.42449274 17.0589458,11.4908254 17.0589458,14.2123367 L17.0589458,15.0691087 L3.52088708,15.0691087 C3.52088708,16.9842463 4.31432642,18.4457986 5.80202518,19.3529691 M12.00077,9.4748911 C11.0585608,8.66851739 9.91799176,8.26533053 8.67824279,8.26533053 C7.38890386,8.26533053 6.29792477,8.66851739 5.30612559,9.4748911 C4.31432642,10.2812648 3.71924691,11.3900287 3.52088708,12.8011827 L13.5876487,12.8011827 C13.4388788,11.3900287 12.9429792,10.2812648 12.00077,9.4748911 M20.5302429,0 L20.5302429,8.61811903 C21.9187618,6.9045749 24.0015401,6.04780283 26.6793978,6.04780283 C28.8117661,6.04780283 30.5970046,6.70298147 32.0847033,8.11413546 C33.8699419,9.62608617 34.7129712,11.6420204 34.7129712,14.262735 C34.7129712,16.6314578 33.9691218,18.5969937 32.4318331,20.1089444 C30.8945443,21.6208951 29.0101259,22.4272688 26.6793978,22.4272688 C25.3900589,22.4272688 24.1998999,22.175277 23.1089208,21.7216918 C22.0179417,21.2681066 21.1253225,20.612928 20.431063,19.7561559 C20.431063,20.4617329 20.3814731,21.1673099 20.3318831,21.8224885 L16.910176,21.8224885 C17.0589458,20.2601395 17.1085358,19.0505789 17.1085358,18.2946036 L17.1085358,0.100796714 L20.5302429,0.100796714 L20.5302429,0 Z M29.6547954,18.3954003 C30.6465945,17.3370348 31.1424941,15.9258808 31.1424941,14.2123367 C31.1424941,12.4987925 30.6465945,11.0876385 29.6547954,10.029273 C28.6629962,8.97090753 27.3736573,8.41652561 25.7867786,8.41652561 C24.1998999,8.41652561 22.910561,8.97090753 21.9683517,10.029273 C21.0261425,11.0876385 20.5302429,12.4987925 20.5302429,14.2123367 C20.5302429,15.9258808 21.0261425,17.3370348 21.9683517,18.3954003 C22.910561,19.4537658 24.1998999,20.0081477 25.8363685,20.0081477 C27.3736573,20.0081477 28.6629962,19.5041641 29.6547954,18.3954003 M50.6313479,21.7216918 L47.4575906,21.7216918 C47.4080006,21.0665132 47.3584107,20.3609362 47.3584107,19.5545625 C46.5153814,20.5625296 45.5731721,21.2681066 44.531783,21.7216918 C43.4903939,22.175277 42.2506449,22.3768705 40.7629461,22.3768705 C38.7297578,22.3768705 37.1428791,21.9232853 36.0023101,20.9657165 C34.861741,20.0081477 34.3162515,18.8993838 34.3162515,17.5386282 C34.3162515,15.673889 35.0105109,14.3635317 36.4486197,13.557158 C37.8867285,12.7507843 39.9695068,12.3475974 42.6969545,12.2468007 L47.1600508,12.2468007 L47.1600508,11.7932155 C47.1600508,9.42449274 45.721942,8.26533053 42.7961344,8.26533053 C41.7547453,8.26533053 40.8621261,8.46692396 40.2174566,8.92050917 C39.5231972,9.37409439 39.1760675,9.92847631 39.1264775,10.6340533 L35.5064105,10.6340533 C35.6551804,8.97090753 36.5477996,7.76134697 38.1346783,6.95497325 C39.4240172,6.29979461 41.0108959,5.99740447 42.9944943,5.99740447 C45.2756324,5.99740447 47.0112809,6.40059133 48.3006199,7.30776175 C49.7883186,8.31572889 50.532168,9.8276796 50.532168,11.8436139 L50.532168,18.9497822 L50.532168,18.8489855 C50.532168,20.0081477 50.532168,20.9657165 50.6313479,21.7216918 M39.1760675,15.3211005 C38.3330382,15.7242874 37.8867285,16.379466 37.8867285,17.2866364 C37.8867285,18.0930101 38.1842683,18.7481888 38.8289377,19.3025707 C39.4736072,19.8569526 40.3662265,20.1089444 41.5563855,20.1089444 C43.341624,20.1089444 44.6805529,19.6553592 45.6227621,18.6977904 C46.5649713,17.7402216 47.0608709,16.4802627 47.0608709,14.8171169 L47.0608709,14.5147268 C45.3748123,14.5147268 43.9367035,14.5651251 42.8457244,14.6155235 C41.2588457,14.7163202 40.0190968,14.968312 39.1760675,15.3211005 M57.2764024,27.5679012 L53.4579756,27.5679012 L56.4333731,21.7720902 L48.5981596,6.60218476 L52.5157664,6.60218476 L58.3673815,18.4457986 L64.1694067,6.60218476 L67.7894737,6.60218476 L57.2764024,27.5679012 Z" id="Shape"></path>
                        </g>
                        <g id="Group-7" transform="translate(14.736842, 0.000000)">
                            <g id="Group" transform="translate(80.561404, 3.938272)">
                                <polygon id="Path" points="0.348503928 0.153268314 5.72542167 0.153268314 11.2516982 17.0127829 11.8491335 17.0127829 17.3754101 0.153268314 22.7523279 0.153268314 22.7523279 21.6108323 19.6157925 21.6108323 19.6157925 5.21112269 19.0183572 5.21112269 13.6414395 21.6108323 9.45939232 21.6108323 4.08247458 5.21112269 3.48503928 5.21112269 3.48503928 21.6108323 0.348503928 21.6108323"></polygon>
                                <path d="M40.6256007,17.1660512 C39.9285929,19.1585393 37.787783,21.9173689 33.9044535,21.9173689 C29.5730476,21.9173689 26.4365122,18.6987343 26.4365122,13.9474166 C26.4365122,9.19609886 29.5730476,5.97746426 33.9044535,5.97746426 C37.9371418,5.97746426 41.0736772,9.19609886 41.0736772,13.4876117 C41.0736772,13.9474166 41.0238909,14.3050427 40.9741046,14.6115793 L40.9243184,15.0202948 L29.4236888,15.0202948 C29.7721927,17.6258561 31.5147123,19.3118076 33.9044535,19.3118076 C35.6967595,19.3118076 36.9912026,18.2389294 37.4890654,17.1660512 L40.6256007,17.1660512 L40.6256007,17.1660512 Z M38.2358595,12.7212701 C37.8873556,10.2689771 36.2941948,8.5830256 33.9044535,8.5830256 C31.3653535,8.5830256 29.8717652,10.2689771 29.4236888,12.7212701 L38.2358595,12.7212701 Z" id="Shape"></path>
                                <path d="M55.4121245,19.7716125 L55.2627657,19.7716125 C54.8146892,20.3846858 53.520246,21.9173689 50.6326421,21.9173689 C46.6995263,21.9173689 43.7621361,18.8520027 43.7621361,13.9474166 C43.7621361,9.04283054 46.6995263,5.97746426 50.6326421,5.97746426 C53.520246,5.97746426 54.7649029,7.56123684 55.2627657,8.12322066 L55.4121245,8.12322066 L55.4121245,0.153268314 L58.399301,0.153268314 L58.399301,21.6108323 L55.7108422,21.6108323 L55.4121245,19.7716125 Z M55.4121245,13.9474166 C55.4121245,10.7798714 53.4704598,8.73629392 51.0807185,8.73629392 C48.6909773,8.73629392 46.7493126,10.7798714 46.7493126,13.9474166 C46.7493126,17.1149618 48.6909773,19.1585393 51.0807185,19.1585393 C53.4704598,19.1585393 55.4121245,17.1660512 55.4121245,13.9474166 Z" id="Shape"></path>
                                <path d="M62.5813482,0.153268314 L65.8672423,0.153268314 L65.8672423,3.37190291 L62.5813482,3.37190291 L62.5813482,0.153268314 Z M62.730707,6.28400089 L65.7178835,6.28400089 L65.7178835,21.6108323 L62.730707,21.6108323 L62.730707,6.28400089 Z" id="Shape"></path>
                                <path d="M69.8999306,6.28400089 L72.8871072,6.28400089 L72.8871072,15.4800997 C72.8871072,17.4725878 74.4304817,19.1585393 76.471719,19.1585393 C78.7121014,19.1585393 80.3550485,17.4725878 80.3550485,15.4800997 L80.3550485,6.28400089 L83.342225,6.28400089 L83.342225,21.6108323 L80.6537661,21.6108323 L80.3550485,20.0781492 L80.2056896,20.0781492 C79.8571857,20.4357752 79.5086818,20.7423119 79.1103916,20.9977591 C78.4133837,21.457564 77.2682994,21.9173689 75.8742837,21.9173689 C72.2896719,21.9173689 69.8999306,19.5161654 69.8999306,15.4800997 L69.8999306,6.28400089 Z" id="Path"></path>
                                <path d="M87.5242721,6.28400089 L90.212731,6.28400089 L90.5114487,7.81668403 L90.6608075,7.81668403 C90.9595251,7.45905796 91.3080291,7.15252133 91.7063193,6.89707414 C92.4033271,6.4372692 93.3492664,5.97746426 94.544137,5.97746426 C96.0875115,5.97746426 97.0334507,6.53944808 97.6806723,7.05034246 C98.0291762,7.40796853 98.3278939,7.71450515 98.5768253,8.12322066 L98.7261841,8.12322066 C99.0249017,7.71450515 99.4231919,7.40796853 99.8712684,7.05034246 C100.667849,6.53944808 101.862719,5.97746426 103.655025,5.97746426 C106.741774,5.97746426 109.031943,8.42975729 109.031943,11.9038391 L109.031943,21.6108323 L106.044767,21.6108323 L106.044767,11.9549285 C106.044767,9.96244043 104.849896,8.73629392 103.05759,8.73629392 C101.215498,8.73629392 99.7716959,10.1157087 99.7716959,11.9549285 L99.7716959,21.6108323 L96.7845194,21.6108323 L96.7845194,11.9549285 C96.7845194,9.96244043 95.5896487,8.73629392 93.7973428,8.73629392 C91.9552506,8.73629392 90.5114487,10.1157087 90.5114487,11.9549285 L90.5114487,21.6108323 L87.5242721,21.6108323 L87.5242721,6.28400089 L87.5242721,6.28400089 Z" id="Path"></path>
                            </g>
                            <path d="M3.19539833,3.95857197 L0.349496693,0.507509227 L0.349496693,0 L9.2366983,0 L16.0269198,15.2252768 L22.0182916,0 L30.4561404,0 L30.4561404,0.507509227 L28.0096635,2.8928026 C27.8099511,3.09580629 27.7100949,3.29880998 27.760023,3.60331551 L27.760023,21.010882 C27.7100949,21.3153876 27.8099511,21.5183912 28.0096635,21.7213949 L30.4062123,24.1066883 L30.4062123,24.6141975 L18.4733966,24.6141975 L18.4733966,24.1066883 L20.9198735,21.670644 C21.0197297,21.5691422 21.1195858,21.4676403 21.1195858,21.3661385 C21.1195858,21.3153876 21.1695139,21.1631348 21.1695139,20.9601311 L21.1695139,6.85137457 L14.3792925,24.5126957 L13.4306586,24.5126957 L5.44216278,6.85137457 L5.44216278,18.6763396 C5.39223469,19.1838488 5.54201898,19.6406071 5.89151567,20.0466145 L9.08691401,24.0051865 L9.08691401,24.5126957 L0,24.5126957 L0,24.0051865 L3.19539833,20.0466145 C3.59482312,19.6406071 3.69467932,19.2345997 3.64475122,18.6763396 L3.64475122,4.97359043 C3.64475122,4.61833397 3.49496693,4.26307751 3.19539833,3.95857197" id="Path"></path>
                        </g>
                        <g id="Group-4" transform="translate(15.719298, 191.006173)">
                            <g id="Group" transform="translate(78.596491, 4.922840)">
                                <path d="M2.21391311,0.651328634 L11.4767441,0.651328634 C14.9129556,0.651328634 17.4527641,3.25664317 17.4527641,6.51328634 C17.4527641,8.11655682 16.9049623,9.21880528 16.3073603,9.92023611 C15.9587591,10.3210537 15.6101579,10.7218714 15.2117566,11.0224846 L15.2117566,11.1727912 C15.7097583,11.4233022 16.1081596,11.8241198 16.4567608,12.2750396 C17.1041629,13.0265727 17.7515651,14.1789233 17.7515651,15.832296 C17.7515651,19.1390414 15.2117566,21.6942537 11.8751454,21.6942537 L2.21391311,21.6942537 L2.21391311,0.651328634 L2.21391311,0.651328634 Z M11.3273436,9.82003171 C12.9707491,9.82003171 14.3153536,8.46727224 14.3153536,6.66359294 C14.3153536,4.85991365 12.9707491,3.50715418 11.3273436,3.50715418 L5.35132361,3.50715418 L5.35132361,9.82003171 L11.3273436,9.82003171 Z M11.6261446,18.8384282 C13.2695501,18.8384282 14.6141546,17.4856687 14.6141546,15.6819894 C14.6141546,13.8783101 13.2695501,12.5255506 11.6261446,12.5255506 L5.35132361,12.5255506 L5.35132361,18.8384282 L11.6261446,18.8384282 Z" id="Shape"></path>
                                <path d="M31.0482096,20.040881 L30.8988091,20.040881 C30.6000081,20.4416987 30.2514069,20.7423119 29.8032054,21.0429251 C29.1060031,21.5439471 27.9605993,21.9948669 26.4167941,21.9948669 C23.1299831,21.9948669 21.0383761,20.0909832 21.0383761,17.3353621 C21.0383761,14.3292299 22.9805826,12.375244 27.1637966,12.375244 L30.8988091,12.375244 L30.8988091,12.0746308 C30.8988091,10.1206449 29.7036051,8.91819206 27.7613986,8.91819206 C25.6697916,8.91819206 24.7733886,10.1206449 24.6239881,11.0224846 L21.6359781,11.0224846 C21.7853786,8.51737444 24.0263861,6.36297973 27.7613986,6.36297973 C31.6956118,6.36297973 33.8868191,8.56747664 33.8868191,12.0746308 L33.8868191,21.6942537 L31.3470106,21.6942537 L31.0482096,20.040881 Z M30.8988091,14.7801498 L27.3131971,14.7801498 C25.0223894,14.7801498 24.0263861,15.832296 24.0263861,17.1850555 C24.0263861,18.537815 24.9227891,19.4396546 26.7155951,19.4396546 C29.4546043,19.4396546 30.8988091,17.9365885 30.8988091,15.3813762 L30.8988091,14.7801498 L30.8988091,14.7801498 Z" id="Shape"></path>
                                <path d="M37.9206326,6.66359294 L40.6098416,6.66359294 L40.9086426,8.16665902 L41.0580431,8.16665902 C41.4066443,7.8159436 41.7552454,7.51533039 42.1536468,7.26481937 C42.8508491,6.81389955 43.9464528,6.36297973 45.3906576,6.36297973 C48.9762696,6.36297973 51.3666776,8.71778325 51.3666776,12.6758573 L51.3666776,21.6942537 L48.3786676,21.6942537 L48.3786676,12.6758573 C48.3786676,10.7218714 46.8348624,9.06849867 44.7930556,9.06849867 C42.5520481,9.06849867 40.9086426,10.7218714 40.9086426,12.6758573 L40.9086426,21.6942537 L37.9206326,21.6942537 L37.9206326,6.66359294 Z" id="Path"></path>
                                <polygon id="Path" points="55.5000914 0.651328634 58.4881014 0.651328634 58.4881014 13.5776969 64.7629224 6.66359294 68.3485344 6.66359294 61.6255119 14.0286167 68.6473354 21.6942537 65.0617234 21.6942537 58.4881014 14.4795365 58.4881014 21.6942537 55.5000914 21.6942537 55.5000914 0.651328634"></polygon>
                                <path d="M70.5895419,0.651328634 L73.8763529,0.651328634 L73.8763529,3.8077674 L70.5895419,3.8077674 L70.5895419,0.651328634 Z M70.7389424,6.66359294 L73.7269524,6.66359294 L73.7269524,21.6942537 L70.7389424,21.6942537 L70.7389424,6.66359294 Z" id="Shape"></path>
                                <path d="M77.9101664,6.66359294 L80.5993754,6.66359294 L80.8981764,8.16665902 L81.0475769,8.16665902 C81.3961781,7.8159436 81.7447792,7.51533039 82.1431806,7.26481937 C82.8403829,6.81389955 83.9359866,6.36297973 85.3801914,6.36297973 C88.9658034,6.36297973 91.3562114,8.71778325 91.3562114,12.6758573 L91.3562114,21.6942537 L88.3682014,21.6942537 L88.3682014,12.6758573 C88.3682014,10.7218714 86.8243962,9.06849867 84.7825894,9.06849867 C82.5415819,9.06849867 80.8981764,10.7218714 80.8981764,12.6758573 L80.8981764,21.6942537 L77.9101664,21.6942537 L77.9101664,6.66359294 Z" id="Path"></path>
                                <path d="M98.0294337,22.5960934 C98.1788342,23.9488528 99.4736386,25.3016123 101.913847,25.3016123 C104.304255,25.3016123 105.94766,23.6482396 105.94766,21.3936405 L105.94766,18.9887348 L105.79826,18.9887348 C105.101057,19.6901656 104.005454,20.7924141 101.166844,20.7924141 C97.4816319,20.7924141 94.5932222,17.9365885 94.5932222,13.5776969 C94.5932222,9.21880528 97.4816319,6.36297973 101.166844,6.36297973 C104.055254,6.36297973 105.300258,7.7157392 105.79826,8.31696563 L105.94766,8.31696563 L106.246461,6.66359294 L108.93567,6.66359294 L108.93567,21.3936405 C108.93567,25.3517145 106.395862,28.0071312 101.913847,28.0071312 C96.9836302,28.0071312 95.1908242,24.6502837 95.0414237,22.5960934 L98.0294337,22.5960934 L98.0294337,22.5960934 Z M105.94766,13.5776969 C105.94766,10.872178 104.154854,9.06849867 101.764446,9.06849867 C99.3740382,9.06849867 97.5812322,10.872178 97.5812322,13.5776969 C97.5812322,16.2832158 99.3740382,18.0868951 101.764446,18.0868951 C104.154854,18.0868951 105.94766,16.2832158 105.94766,13.5776969 Z" id="Shape"></path>
                                <g id="Group-21" transform="translate(0.815313, 35.795160)">
                                    <path d="M3.1374105,14.8803542 C3.1374105,16.8343401 5.12941716,18.6380194 8.2170275,18.6380194 C11.653239,18.6380194 12.9978435,17.2852599 12.9978435,15.4815806 C12.9978435,13.9284123 11.8026395,12.9263683 9.4122315,12.4754484 L5.378418,11.7239154 C2.04180683,11.122689 0.4482015,9.06849867 0.4482015,6.16257092 C0.4482015,2.70551894 3.286811,5.92891991e-13 7.9182265,5.92891991e-13 C13.147244,5.92891991e-13 15.836453,3.00613216 15.836453,6.76379735 L12.6990425,6.76379735 C12.6990425,4.80981145 10.9062365,3.00613216 7.9182265,3.00613216 C5.079617,3.00613216 3.585612,4.45909603 3.585612,6.16257092 C3.585612,7.51533039 4.43221483,8.56747664 6.7230225,9.01839647 L10.0098335,9.6196229 C14.2428477,10.3711559 16.135254,12.124733 16.135254,15.4815806 C16.135254,18.9386326 13.446045,21.6441515 8.2170275,21.6441515 C2.98801,21.6441515 -2.79230829e-14,18.6380194 -2.79230829e-14,14.8803542 L3.1374105,14.8803542 L3.1374105,14.8803542 Z" id="Path"></path>
                                    <path d="M33.166911,16.9846467 C32.4697087,18.9386326 30.3283015,21.6441515 26.4438885,21.6441515 C22.111274,21.6441515 18.9738635,18.4877128 18.9738635,13.8282079 C18.9738635,9.16870307 22.111274,6.01226431 26.4438885,6.01226431 C30.477702,6.01226431 33.6151125,9.16870307 33.6151125,13.3772881 C33.6151125,13.8282079 33.5653123,14.1789233 33.5155122,14.4795365 L33.465712,14.8803542 L21.9618735,14.8803542 C22.3104747,17.4355665 24.0534805,19.0889392 26.4438885,19.0889392 C28.2366945,19.0889392 29.5314988,18.0367929 30.0295005,16.9846467 L33.166911,16.9846467 L33.166911,16.9846467 Z M30.776503,12.6257551 C30.4279018,10.2208493 28.8342965,8.56747664 26.4438885,8.56747664 C23.90408,8.56747664 22.410075,10.2208493 21.9618735,12.6257551 L30.776503,12.6257551 Z" id="Shape"></path>
                                    <path d="M37.051324,6.31287753 L39.5911325,6.31287753 L39.8899335,7.665637 L40.039334,7.665637 C40.5373357,7.11451277 41.0353373,6.31287753 42.8779435,6.31287753 L45.5671525,6.31287753 L45.5671525,9.01839647 L43.1767445,9.01839647 C41.0851375,9.01839647 40.039334,10.0705427 40.039334,12.124733 L40.039334,21.3435383 L37.051324,21.3435383 L37.051324,6.31287753 Z" id="Path"></path>
                                    <polygon id="Path" points="46.314155 6.31287753 49.4515655 6.31287753 53.485379 18.0367929 54.082981 18.0367929 58.1167945 6.31287753 61.254205 6.31287753 56.0251875 21.3435383 51.5431725 21.3435383"></polygon>
                                    <path d="M63.4952125,0.300613216 L66.7820235,0.300613216 L66.7820235,3.45705198 L63.4952125,3.45705198 L63.4952125,0.300613216 Z M63.644613,6.31287753 L66.632623,6.31287753 L66.632623,21.3435383 L63.644613,21.3435383 L63.644613,6.31287753 Z" id="Shape"></path>
                                    <path d="M84.4112825,16.082807 C83.9132808,18.3374061 82.0208745,21.6441515 77.5388595,21.6441515 C73.206245,21.6441515 70.0688345,18.4877128 70.0688345,13.8282079 C70.0688345,9.16870307 73.206245,6.01226431 77.5388595,6.01226431 C82.0208745,6.01226431 83.9132808,9.36911188 84.4112825,11.4233022 L81.4232725,11.4233022 C80.9252708,10.0705427 79.8296671,8.71778325 77.5388595,8.71778325 C74.999051,8.71778325 73.0568445,10.7218714 73.0568445,13.8282079 C73.0568445,16.9345445 74.999051,18.9386326 77.5388595,18.9386326 C79.9292675,18.9386326 81.0746713,17.2852599 81.4232725,16.082807 L84.4112825,16.082807 Z" id="Path"></path>
                                    <path d="M101.144138,16.9846467 C100.446936,18.9386326 98.305529,21.6441515 94.421116,21.6441515 C90.0885015,21.6441515 86.951091,18.4877128 86.951091,13.8282079 C86.951091,9.16870307 90.0885015,6.01226431 94.421116,6.01226431 C98.4549295,6.01226431 101.59234,9.16870307 101.59234,13.3772881 C101.59234,13.8282079 101.54254,14.1789233 101.49274,14.4795365 L101.442939,14.8803542 L89.939101,14.8803542 C90.2877021,17.4355665 92.030708,19.0889392 94.421116,19.0889392 C96.213922,19.0889392 97.5087263,18.0367929 98.006728,16.9846467 L101.144138,16.9846467 L101.144138,16.9846467 Z M98.7537305,12.6257551 C98.4051293,10.2208493 96.811524,8.56747664 94.421116,8.56747664 C91.8813075,8.56747664 90.3873025,10.2208493 89.939101,12.6257551 L98.7537305,12.6257551 Z" id="Shape"></path>
                                    <path d="M106.970758,16.8343401 C106.970758,17.7361797 108.016561,19.0889392 110.406969,19.0889392 C112.647977,19.0889392 113.54438,18.0868951 113.54438,17.1349533 C113.54438,16.082807 112.996578,15.4314784 111.303372,15.1809674 L108.614163,14.7300476 C105.725754,14.2290255 104.281549,12.9263683 104.281549,10.3711559 C104.281549,7.96625021 106.223755,6.01226431 110.257569,6.01226431 C114.590183,6.01226431 116.382989,9.01839647 116.382989,10.6717692 L113.394979,10.6717692 C113.394979,9.7699295 112.498576,8.56747664 110.257569,8.56747664 C108.116162,8.56747664 107.269559,9.41921409 107.269559,10.3711559 C107.269559,11.3230978 108.165962,11.9243242 109.510566,12.1748352 L112.199775,12.6257551 C115.088185,13.1267771 116.53239,14.6298432 116.53239,17.1349533 C116.53239,19.539859 114.590183,21.6441515 110.406969,21.6441515 C105.626153,21.6441515 103.982748,18.4877128 103.982748,16.8343401 L106.970758,16.8343401 L106.970758,16.8343401 Z" id="Path"></path>
                                </g>
                            </g>
                            <path d="M5.93567251,10.1065627 L12.5939486,10.1065627 L12.5939486,24.4158545 L5.93567251,24.4158545 L5.93567251,10.1065627 Z M15.8456649,10.1065627 L22.503941,10.1065627 L22.503941,24.4158545 L15.8456649,24.4158545 L15.8456649,10.1065627 Z M14.245614,0 L0,6.90448343 L0,10.1065627 L2.68395627,10.1065627 L2.68395627,24.4158545 L0,24.4158545 L0,27.5679012 L28.4912281,27.5679012 L28.4912281,24.4158545 L25.8072718,24.4158545 L25.8072718,10.1065627 L28.4912281,10.1065627 L28.4912281,6.90448343 L14.245614,0 Z" id="Shape"></path>
                        </g>
                        <g id="Group-3" transform="translate(15.719298, 290.447531)">
                            <g id="Group" transform="translate(79.578947, 3.938272)">
                                <path d="M19.7350215,14.7648476 C19.0390762,18.1367505 15.9570325,22.4282633 10.3397594,22.4282633 C4.8716174,22.4282633 0.347972672,17.9834822 0.347972672,11.3929447 C0.347972672,4.80240718 4.8716174,0.357626067 10.3397594,0.357626067 C15.5593495,0.357626067 18.889945,4.03606561 19.7350215,7.86777347 L16.4541363,7.86777347 C15.4102183,4.9556755 12.9744096,3.42299235 10.3397594,3.42299235 C6.41263924,3.42299235 3.47972672,6.48835864 3.47972672,11.3929447 C3.47972672,16.2975308 6.41263924,19.362897 10.3397594,19.362897 C13.7697757,19.362897 15.758191,17.0638723 16.4541363,14.7648476 L19.7350215,14.7648476 Z" id="Path"></path>
                                <path d="M22.270251,14.458311 C22.270251,9.70699324 25.402005,6.48835864 29.7268082,6.48835864 C34.0516114,6.48835864 37.1833655,9.70699324 37.1833655,14.458311 C37.1833655,19.2096287 34.0516114,22.4282633 29.7268082,22.4282633 C25.402005,22.4282633 22.270251,19.2096287 22.270251,14.458311 Z M34.2007426,14.458311 C34.2007426,11.2907658 32.2620377,9.2471883 29.7268082,9.2471883 C27.1915788,9.2471883 25.2528739,11.2907658 25.2528739,14.458311 C25.2528739,17.6258561 27.1915788,19.6694337 29.7268082,19.6694337 C32.2620377,19.6694337 34.2007426,17.6769456 34.2007426,14.458311 Z" id="Shape"></path>
                                <path d="M40.4642507,0.664162695 L43.7451359,0.664162695 L43.7451359,3.8827973 L40.4642507,3.8827973 L40.4642507,0.664162695 Z M40.6133818,6.79489527 L43.5960047,6.79489527 L43.5960047,22.1217267 L40.6133818,22.1217267 L40.6133818,6.79489527 Z" id="Shape"></path>
                                <path d="M47.7219664,6.79489527 L50.406327,6.79489527 L50.7045893,8.32757841 L50.8537205,8.32757841 C51.2016931,7.96995234 51.5496658,7.66341572 51.9473489,7.40796853 C52.6432942,6.94816358 53.7369226,6.48835864 55.1785237,6.48835864 C58.7576711,6.48835864 61.1437695,8.88956223 61.1437695,12.9256278 L61.1437695,22.1217267 L58.1611466,22.1217267 L58.1611466,12.9256278 C58.1611466,10.9331398 56.6201247,9.2471883 54.5819991,9.2471883 C52.3450319,9.2471883 50.7045893,10.9331398 50.7045893,12.9256278 L50.7045893,22.1217267 L47.7219664,22.1217267 L47.7219664,6.79489527 Z" id="Path"></path>
                                <path d="M65.2697311,0.664162695 L68.252354,0.664162695 L68.252354,8.63411504 L68.4014852,8.63411504 C68.898589,8.07213122 70.1413485,6.48835864 73.0245507,6.48835864 C76.9516708,6.48835864 79.8845834,9.55372493 79.8845834,14.458311 C79.8845834,19.362897 76.9516708,22.4282633 73.0245507,22.4282633 C70.1413485,22.4282633 68.8488786,20.8955802 68.4014852,20.2825069 L68.252354,20.2825069 L67.9540917,22.1217267 L65.2697311,22.1217267 L65.2697311,0.664162695 Z M76.9019605,14.458311 C76.9019605,11.2907658 74.9632556,9.2471883 72.5771572,9.2471883 C70.1910589,9.2471883 68.252354,11.2907658 68.252354,14.458311 C68.252354,17.6258561 70.1910589,19.6694337 72.5771572,19.6694337 C74.9632556,19.6694337 76.9019605,17.6769456 76.9019605,14.458311 Z" id="Shape"></path>
                                <path d="M92.7098618,20.4357752 L92.5607307,20.4357752 C92.2624684,20.8444907 91.9144957,21.1510274 91.4671023,21.457564 C90.7711569,21.9684584 89.6278182,22.4282633 88.0867963,22.4282633 C84.8059111,22.4282633 82.7180751,20.4868647 82.7180751,17.6769456 C82.7180751,14.6115793 84.65678,12.6190912 88.8324521,12.6190912 L92.5607307,12.6190912 L92.5607307,12.3125546 C92.5607307,10.3200665 91.3676815,9.09391998 89.4289766,9.09391998 C87.3411406,9.09391998 86.4463537,10.3200665 86.2972226,11.2396764 L83.3145997,11.2396764 C83.4637308,8.68520448 85.700698,6.48835864 89.4289766,6.48835864 C93.3560968,6.48835864 95.5433536,8.73629392 95.5433536,12.3125546 L95.5433536,22.1217267 L93.0081241,22.1217267 L92.7098618,20.4357752 Z M92.5607307,15.0713842 L88.9815832,15.0713842 C86.6949056,15.0713842 85.700698,16.1442624 85.700698,17.5236773 C85.700698,18.9030921 86.5954849,19.822702 88.3850586,19.822702 C91.1191296,19.822702 92.5607307,18.2900188 92.5607307,15.6844575 L92.5607307,15.0713842 L92.5607307,15.0713842 Z" id="Shape"></path>
                                <path d="M101.508599,17.5236773 C101.508599,18.4432872 102.552517,19.822702 104.938616,19.822702 C107.175583,19.822702 108.07037,18.8009132 108.07037,17.8302139 C108.07037,16.7573357 107.523556,16.093173 105.833403,15.8377258 L103.149042,15.3779209 C100.26584,14.8670265 98.8242388,13.5387011 98.8242388,10.9331398 C98.8242388,8.48084673 100.762944,6.48835864 104.789485,6.48835864 C109.114288,6.48835864 110.903862,9.55372493 110.903862,11.2396764 L107.921239,11.2396764 C107.921239,10.3200665 107.026452,9.09391998 104.789485,9.09391998 C102.651938,9.09391998 101.806862,9.96244043 101.806862,10.9331398 C101.806862,11.9038391 102.701649,12.5169123 104.043829,12.7723595 L106.728189,13.2321645 C109.611392,13.7430589 111.052993,15.275742 111.052993,17.8302139 C111.052993,20.2825069 109.114288,22.4282633 104.938616,22.4282633 C100.166419,22.4282633 98.5259765,19.2096287 98.5259765,17.5236773 L101.508599,17.5236773 L101.508599,17.5236773 Z" id="Path"></path>
                                <path d="M127.755681,17.6769456 C127.059736,19.6694337 124.922189,22.4282633 121.044779,22.4282633 C116.719976,22.4282633 113.588222,19.2096287 113.588222,14.458311 C113.588222,9.70699324 116.719976,6.48835864 121.044779,6.48835864 C125.07132,6.48835864 128.203074,9.70699324 128.203074,13.998506 C128.203074,14.458311 128.153364,14.8159371 128.103654,15.1224737 L128.053943,15.5311892 L116.570845,15.5311892 C116.918818,18.1367505 118.658681,19.822702 121.044779,19.822702 C122.834353,19.822702 124.126823,18.7498238 124.623927,17.6769456 L127.755681,17.6769456 L127.755681,17.6769456 Z M125.369583,13.2321645 C125.02161,10.7798714 123.430878,9.09391998 121.044779,9.09391998 C118.50955,9.09391998 117.018238,10.7798714 116.570845,13.2321645 L125.369583,13.2321645 Z" id="Shape"></path>
                            </g>
                            <path d="M14.2208391,0 C6.34239512,0 0,6.40568438 0,14.2514063 C0,22.1467848 6.39194508,28.5524691 14.2208391,28.5524691 C22.099283,28.5524691 28.4912281,22.1467848 28.4912281,14.2514063 C28.4416781,6.40568438 22.049733,0 14.2208391,0 M14.8154386,21.5509071 C10.405492,21.5509071 7.23429443,18.670832 7.23429443,14.003124 C7.23429443,9.335416 10.5541419,6.45534085 14.8154386,6.45534085 C16.3019375,6.45534085 17.4911365,6.75327966 18.6803356,7.39881374 L17.2929367,9.73266774 C16.5992372,9.43472893 15.8559878,9.335416 15.0631884,9.335416 C12.4865904,9.335416 10.455042,10.9740794 10.455042,14.003124 C10.455042,16.8831991 12.3874905,18.670832 15.2118383,18.670832 C16.0046377,18.670832 16.7478871,18.5218626 17.4415866,18.2239238 C17.4415866,18.2735802 18.8785355,20.4584648 18.8785355,20.4584648 C17.6893364,21.2529683 16.2523875,21.6005636 14.8154386,21.5509071" id="Shape"></path>
                        </g>
                    </g>
                </g>
            </g>
        </g>
    </g>
</svg>