<?xml version="1.0" encoding="UTF-8"?>
<svg width="152px" height="152px" viewBox="0 0 152 152" version="1.1" xmlns="http://www.w3.org/2000/svg" xmlns:xlink="http://www.w3.org/1999/xlink">
    <title>noAnonymoussmall</title>
    <defs>
        <polygon id="path-1" points="0.594565547 0.938666667 59.8524179 0.938666667 59.8524179 24 0.594565547 24"></polygon>
        <polygon id="path-3" points="0.000522033898 0.494307692 76.2161664 0.494307692 76.2161664 32.8272615 0.000522033898 32.8272615"></polygon>
    </defs>
    <g id="Desktop" stroke="none" stroke-width="1" fill="none" fill-rule="evenodd">
        <g id="Home_1440" transform="translate(-824.000000, -908.000000)">
            <g id="Features-1" transform="translate(0.000000, 460.000000)">
                <g id="noAnonymoussmall" transform="translate(825.000000, 449.000000)">
                    <path d="M75,0 C116.421356,-7.6089797e-15 150,33.5786438 150,75 C150,116.421356 116.421356,150 75,150 C33.5786438,150 5.07265313e-15,116.421356 0,75 C-5.07265313e-15,33.5786438 33.5786438,7.6089797e-15 75,0 Z" id="BG" stroke="#D3D3D3"></path>
                    <g id="Group-3" transform="translate(45.000000, 75.000000)">
                        <mask id="mask-2" fill="white">
                            <use xlink:href="#path-1"></use>
                        </mask>
                        <g id="Clip-2"></g>
                        <path d="M51.2608696,12.1373333 C50.0882609,13.6053333 47.7391304,15.4706667 44.7391304,16.004 C41.7391304,16.5386667 39.0013043,15.3373333 37.4347826,14.404 C36.5217391,13.872 36.5217391,12.6706667 37.3043478,12.004 C38.7391304,10.804 40.9578261,9.20533333 43.6956522,8.804 C46.4347826,8.404 49.0434783,9.20533333 50.7404348,9.872 C51.6521739,10.272 51.9130435,11.4706667 51.2608696,12.1373333 M23.2173913,14.5386667 C21.6521739,15.4706667 18.9130435,16.5386667 15.9130435,16.1373333 C12.9143478,15.6053333 10.6956522,13.7373333 9.39130435,12.272 C8.73913043,11.4706667 9.00130435,10.272 9.91304348,10.004 C11.61,9.33733333 14.3478261,8.53866667 16.9565217,8.93866667 C19.6956522,9.33733333 21.9130435,11.0706667 23.3491304,12.1373333 C24.1304348,12.804 24.1304348,14.004 23.2173913,14.5386667 M58.4347826,1.07066667 C58.4347826,1.07066667 55.4347826,0.938666667 53.8695652,0.938666667 C45.9130435,1.33733333 38.0869565,4.272 30.2608696,4.272 C22.4347826,4.272 14.6086957,1.33733333 6.65217391,0.938666667 C5.2173913,0.938666667 2.08695652,1.07066667 2.08695652,1.07066667 C2.34782609,0.804 -4.95652174,16.404 10.5652174,22.5386667 C17.2173913,24.9386667 22.3043478,23.872 23.4782609,22.9386667 C24.2608696,22.404 24.9130435,21.7373333 25.5652174,21.2053333 C26.7391304,20.272 28.5665217,19.7373333 30.1304348,19.7373333 C31.6956522,19.7373333 33.5217391,20.272 34.6956522,21.2053333 C35.3478261,21.7373333 36.1304348,22.404 36.7826087,22.9386667 C37.9565217,23.872 43.173913,24.804 49.6956522,22.5386667 C65.3478261,16.404 58.173913,0.804 58.4347826,1.07066667" id="Fill-1" fill="#16161F" mask="url(#mask-2)"></path>
                    </g>
                    <g id="Group-6" transform="translate(37.000000, 41.000000)">
                        <mask id="mask-4" fill="white">
                            <use xlink:href="#path-3"></use>
                        </mask>
                        <g id="Clip-5"></g>
                        <path d="M64.8632339,17.3964923 L65.6462847,20.6657231 C65.9073017,21.5811077 65.2547593,22.6272615 64.3412,22.8888 C63.4263356,23.1503385 62.3835729,22.4964923 62.1212508,21.5811077 L58.3378102,5.49649231 C57.5534542,2.09649231 54.0310305,-0.125276923 50.6378102,0.658030769 L43.8500644,2.22726154 C40.0666237,3.14395385 36.1513695,3.14395385 32.3666237,2.22726154 L25.578878,0.658030769 C22.1869627,-0.125276923 18.6632339,1.96572308 17.8801831,5.49649231 L14.0954373,21.5811077 C13.8331153,22.4964923 12.9195559,23.1503385 11.8754881,22.8888 C10.8327254,22.6272615 10.3093864,21.7118769 10.5704034,20.6657231 L11.3547593,17.3964923 C4.30730169,18.9657231 0.000522033898,21.3195692 0.000522033898,23.8041846 C0.000522033898,28.7734154 17.0958271,32.8272615 38.1089966,32.8272615 C59.120861,32.8272615 76.2161664,28.7734154 76.2161664,23.8041846 C76.2174712,21.4516462 71.9093864,19.0964923 64.8632339,17.3964923" id="Fill-4" fill="#CEE0FF" mask="url(#mask-4)"></path>
                    </g>
                </g>
            </g>
        </g>
    </g>
</svg>