<?xml version="1.0" encoding="UTF-8"?>
<svg width="25px" height="29px" viewBox="0 0 25 29" version="1.1" xmlns="http://www.w3.org/2000/svg" xmlns:xlink="http://www.w3.org/1999/xlink">
    <title>Shape</title>
    <g id="Desktop" stroke="none" stroke-width="1" fill="none" fill-rule="evenodd">
        <g id="Credit-card-fraud_1440" transform="translate(-515.000000, -1446.000000)" fill="#000000" fill-rule="nonzero">
            <g id="Apollo_Stratus_Socnet" transform="translate(189.000000, 1246.000000)">
                <g id="Group-11" transform="translate(326.000000, 200.000000)">
                    <path d="M6.24929082,23.0098361 L5.86281846,25.5770492 C5.81450942,25.6721311 5.76620038,25.7196721 5.66958229,25.7196721 L0.790368805,25.7196721 C0.597132628,25.7196721 0.40389645,25.6245902 0.210660273,25.4819672 C0.0174240953,25.3393443 -0.0308849491,25.1016393 0.0174240953,24.8639344 L3.8338386,1.14098361 C3.88214764,0.808196721 4.02707478,0.52295082 4.26862,0.332786885 C4.51016522,0.142622951 4.80001949,0.0475409836 5.1381828,0.0475409836 L9.87246915,0 C12.7710118,0 14.6067555,0.0475409836 15.3797002,0.142622951 C16.3941901,0.190163934 17.360371,0.380327869 18.374861,0.808196721 C20.2106046,1.52131148 21.3217127,2.70983607 21.7564941,4.37377049 C22.1429664,5.84754098 21.9980393,7.65409836 21.2250946,9.74590164 C19.8724413,13.5491803 16.8772806,15.4983607 12.1429942,15.5459016 L10.6454139,15.5459016 C9.48599679,15.4983607 8.71305208,15.5459016 8.32657973,15.6885246 C7.79518024,15.9262295 7.40870788,16.3540984 7.21547171,17.1147541 C7.11885362,17.542623 6.78069031,19.5868852 6.24929082,23.0098361 M23.0608383,7.74918033 C23.0125292,7.74918033 23.0125292,7.79672131 23.0125292,7.89180328 C22.8676021,8.50983607 22.6743659,9.22295082 22.4328207,10.0786885 C21.708185,12.1229508 20.548768,13.6918033 19.0028785,14.7852459 C17.6985343,15.6409836 16.1526449,16.2114754 14.3169012,16.4967213 C13.2541023,16.6393443 11.8048309,16.6868852 9.96908723,16.6868852 L9.19614253,16.6868852 C8.76136113,16.6868852 8.5198159,16.8770492 8.47150686,17.257377 L6.73238126,28.1442623 C6.68407222,28.3344262 6.73238126,28.5245902 6.8773084,28.7147541 C7.02223553,28.904918 7.16716266,29 7.40870788,29 L11.5632857,29 C11.8048309,29 12.0463761,28.904918 12.2879214,28.7147541 C12.5294666,28.5245902 12.6260847,28.2868852 12.6743937,28.0491803 L13.6405746,22.2491803 C13.7855017,21.6311475 13.9787379,21.2508197 14.2202831,21.1081967 C14.4135193,21.0131148 14.7516826,20.9655738 15.2830821,20.9655738 L15.5246273,20.9655738 C20.7420041,20.9655738 23.833783,18.5885246 24.7999639,13.7868852 C25.3313633,10.9819672 24.7999639,8.9852459 23.2540744,7.8442623 C23.1574563,7.74918033 23.1091473,7.74918033 23.0608383,7.74918033" id="Shape"></path>
                </g>
            </g>
        </g>
    </g>
</svg>