<?xml version="1.0" encoding="UTF-8"?>
<svg width="161px" height="32px" viewBox="0 0 161 32" version="1.1" xmlns="http://www.w3.org/2000/svg" xmlns:xlink="http://www.w3.org/1999/xlink">
    <title>Group 11</title>
    <g id="Desktop" stroke="none" stroke-width="1" fill="none" fill-rule="evenodd">
        <g id="Credit-card-fraud_1440" transform="translate(-515.000000, -1446.000000)" fill="#000000" fill-rule="nonzero">
            <g id="Apollo_Stratus_Socnet" transform="translate(189.000000, 1246.000000)">
                <g id="Group-11" transform="translate(326.000000, 200.000000)">
                    <g id="Group" transform="translate(76.971682, 5.774280)">
                        <path d="M0.237540544,0.142134062 L9.2165731,0.142134062 C12.4946326,0.142134062 15.0600705,2.65316915 15.0600705,6.53816684 C15.0600705,10.4231645 12.4946326,12.9341996 9.2165731,12.9341996 L3.2305514,12.9341996 L3.2305514,20.0409027 L0.237540544,20.0409027 L0.237540544,0.142134062 L0.237540544,0.142134062 Z M9.07404877,10.0915184 C10.6893245,10.0915184 12.0670596,8.67017776 12.0670596,6.53816684 C12.0670596,4.40615591 10.6893245,2.9848153 9.07404877,2.9848153 L3.2305514,2.9848153 L3.2305514,10.0915184 L9.07404877,10.0915184 Z" id="Shape"></path>
                        <path d="M26.3670004,18.477428 L26.224476,18.477428 C25.9394274,18.8564522 25.6068706,19.1407203 25.1792976,19.4249884 C24.5141841,19.8987686 23.4214976,20.3251708 21.9487463,20.3251708 C18.8132111,20.3251708 16.8178705,18.524806 16.8178705,15.9190149 C16.8178705,13.0763337 18.6706867,11.2285909 22.6613679,11.2285909 L26.224476,11.2285909 L26.224476,10.9443227 C26.224476,9.09657995 25.0842814,7.95950745 23.2314652,7.95950745 C21.2361246,7.95950745 20.3809787,9.09657995 20.2384543,9.94938432 L17.3879678,9.94938432 C17.5304921,7.58048329 19.668357,5.54322841 23.2314652,5.54322841 C26.9846058,5.54322841 29.0749626,7.62786131 29.0749626,10.9443227 L29.0749626,20.0409027 L26.652049,20.0409027 L26.3670004,18.477428 Z M26.224476,13.5027359 L22.8038922,13.5027359 C20.6185192,13.5027359 19.668357,14.4976743 19.668357,15.7768808 C19.668357,17.0560874 20.523503,17.9088918 22.2337949,17.9088918 C24.8467409,17.9088918 26.224476,16.4875512 26.224476,14.0712721 L26.224476,13.5027359 L26.224476,13.5027359 Z" id="Shape"></path>
                        <path d="M32.2104977,23.1678521 L35.0609843,23.1678521 C35.6310816,23.1678521 35.9636383,22.6466938 36.0111464,22.3150477 L36.4862275,21.0358411 L30.6427302,5.82749653 L33.635741,5.82749653 L37.7689465,16.6296852 L38.3390438,16.6296852 L42.0446763,5.82749653 L45.0376871,5.82749653 L38.7666168,23.3099861 C38.1965194,24.8734608 37.3413735,25.7262652 35.2035086,25.7262652 L32.2104977,25.7262652 L32.2104977,23.1678521 Z" id="Path"></path>
                        <path d="M47.603125,0.142134062 L56.5821575,0.142134062 C59.860217,0.142134062 62.4256549,2.65316915 62.4256549,6.53816684 C62.4256549,10.4231645 59.860217,12.9341996 56.5821575,12.9341996 L50.5961358,12.9341996 L50.5961358,20.0409027 L47.603125,20.0409027 L47.603125,0.142134062 L47.603125,0.142134062 Z M56.4396332,10.0915184 C58.0549089,10.0915184 59.4326441,8.67017776 59.4326441,6.53816684 C59.4326441,4.40615591 58.0549089,2.9848153 56.4396332,2.9848153 L50.5961358,2.9848153 L50.5961358,10.0915184 L56.4396332,10.0915184 Z" id="Shape"></path>
                        <path d="M73.6850767,18.477428 L73.5425524,18.477428 C73.2575037,18.8564522 72.924947,19.1407203 72.497374,19.4249884 C71.8322605,19.8987686 70.739574,20.3251708 69.2668226,20.3251708 C66.1312874,20.3251708 64.1359468,18.524806 64.1359468,15.9190149 C64.1359468,13.0763337 65.9887631,11.2285909 69.9794442,11.2285909 L73.5425524,11.2285909 L73.5425524,10.9443227 C73.5425524,9.09657995 72.4023578,7.95950745 70.5495415,7.95950745 C68.554201,7.95950745 67.699055,9.09657995 67.5565307,9.94938432 L64.7060441,9.94938432 C64.8485685,7.58048329 66.9864334,5.54322841 70.5495415,5.54322841 C74.3026821,5.54322841 76.3930389,7.62786131 76.3930389,10.9443227 L76.3930389,20.0409027 L73.9701254,20.0409027 L73.6850767,18.477428 Z M73.5425524,13.5027359 L70.1219685,13.5027359 C67.9365955,13.5027359 66.9864334,14.4976743 66.9864334,15.7768808 C66.9864334,17.0560874 67.8415793,17.9088918 69.5518712,17.9088918 C72.1648172,17.9088918 73.5425524,16.4875512 73.5425524,14.0712721 L73.5425524,13.5027359 L73.5425524,13.5027359 Z" id="Shape"></path>
                        <polygon id="Path" points="80.38372 0.142134062 83.2342066 0.142134062 83.2342066 20.0409027 80.38372 20.0409027"></polygon>
                    </g>
                    <path d="M6.24929082,23.0098361 L5.86281846,25.5770492 C5.81450942,25.6721311 5.76620038,25.7196721 5.66958229,25.7196721 L0.790368805,25.7196721 C0.597132628,25.7196721 0.40389645,25.6245902 0.210660273,25.4819672 C0.0174240953,25.3393443 -0.0308849491,25.1016393 0.0174240953,24.8639344 L3.8338386,1.14098361 C3.88214764,0.808196721 4.02707478,0.52295082 4.26862,0.332786885 C4.51016522,0.142622951 4.80001949,0.0475409836 5.1381828,0.0475409836 L9.87246915,0 C12.7710118,0 14.6067555,0.0475409836 15.3797002,0.142622951 C16.3941901,0.190163934 17.360371,0.380327869 18.374861,0.808196721 C20.2106046,1.52131148 21.3217127,2.70983607 21.7564941,4.37377049 C22.1429664,5.84754098 21.9980393,7.65409836 21.2250946,9.74590164 C19.8724413,13.5491803 16.8772806,15.4983607 12.1429942,15.5459016 L10.6454139,15.5459016 C9.48599679,15.4983607 8.71305208,15.5459016 8.32657973,15.6885246 C7.79518024,15.9262295 7.40870788,16.3540984 7.21547171,17.1147541 C7.11885362,17.542623 6.78069031,19.5868852 6.24929082,23.0098361 M23.0608383,7.74918033 C23.0125292,7.74918033 23.0125292,7.79672131 23.0125292,7.89180328 C22.8676021,8.50983607 22.6743659,9.22295082 22.4328207,10.0786885 C21.708185,12.1229508 20.548768,13.6918033 19.0028785,14.7852459 C17.6985343,15.6409836 16.1526449,16.2114754 14.3169012,16.4967213 C13.2541023,16.6393443 11.8048309,16.6868852 9.96908723,16.6868852 L9.19614253,16.6868852 C8.76136113,16.6868852 8.5198159,16.8770492 8.47150686,17.257377 L6.73238126,28.1442623 C6.68407222,28.3344262 6.73238126,28.5245902 6.8773084,28.7147541 C7.02223553,28.904918 7.16716266,29 7.40870788,29 L11.5632857,29 C11.8048309,29 12.0463761,28.904918 12.2879214,28.7147541 C12.5294666,28.5245902 12.6260847,28.2868852 12.6743937,28.0491803 L13.6405746,22.2491803 C13.7855017,21.6311475 13.9787379,21.2508197 14.2202831,21.1081967 C14.4135193,21.0131148 14.7516826,20.9655738 15.2830821,20.9655738 L15.5246273,20.9655738 C20.7420041,20.9655738 23.833783,18.5885246 24.7999639,13.7868852 C25.3313633,10.9819672 24.7999639,8.9852459 23.2540744,7.8442623 C23.1574563,7.74918033 23.1091473,7.74918033 23.0608383,7.74918033" id="Shape"></path>
                </g>
            </g>
        </g>
    </g>
</svg>