<?xml version="1.0" encoding="UTF-8"?>
<svg width="18px" height="21px" viewBox="0 0 18 21" version="1.1" xmlns="http://www.w3.org/2000/svg" xmlns:xlink="http://www.w3.org/1999/xlink">
    <title>Fill 56</title>
    <g id="Desktop" stroke="none" stroke-width="1" fill="none" fill-rule="evenodd">
        <g id="Home_1440" transform="translate(-143.000000, -11501.000000)" fill="#1269FF">
            <g id="Roadmap" transform="translate(-25.000000, 10810.000000)">
                <g transform="translate(0.000000, 248.000000)" id="Group-64">
                    <g transform="translate(124.000000, 296.853000)">
                        <path d="M60.7728,152.8119 C60.7478,152.8119 60.7278,152.8379 60.7278,152.8969 C60.6428,153.3199 60.5128,153.8019 60.3498,154.3479 C59.8618,155.7079 59.1068,156.7629 58.0848,157.5049 C57.2328,158.0719 56.2108,158.4559 55.0128,158.6509 C54.3038,158.7419 53.3468,158.7809 52.1558,158.7809 L51.6418,158.7809 C51.3618,158.7809 51.1988,158.9109 51.1728,159.1649 L50.0208,166.4219 C49.9948,166.5589 50.0208,166.6889 50.1058,166.7989 C50.1968,166.9159 50.3068,166.9749 50.4508,166.9749 L53.1778,166.9749 C53.3468,166.9749 53.5088,166.9109 53.6458,166.7799 C53.7898,166.6499 53.8748,166.5059 53.9068,166.3369 L54.5438,162.4519 C54.6288,162.0549 54.7588,161.7939 54.9278,161.6839 C55.0448,161.6249 55.2668,161.5989 55.6118,161.5989 L55.7818,161.5989 C59.2238,161.5989 61.2548,160.0039 61.8798,156.8219 C62.2248,154.9409 61.8798,153.6199 60.8578,152.8509 C60.8318,152.8259 60.7988,152.8119 60.7728,152.8119 M49.0238,162.3079 L48.7698,164.0129 C48.7448,164.0719 48.6988,164.0969 48.6468,164.0969 L45.4378,164.0969 C45.3008,164.0969 45.1708,164.0449 45.0598,163.9279 C44.9428,163.8179 44.9048,163.6739 44.9298,163.5049 L47.4488,147.6759 C47.4748,147.4489 47.5658,147.2729 47.7288,147.1419 C47.8778,147.0119 48.0738,146.9539 48.3018,146.9539 L51.4128,146.9079 C53.3198,146.9079 54.5308,146.9409 55.0438,146.9929 C55.6958,147.0249 56.3458,147.1619 57.0038,147.4219 C58.1948,147.9039 58.9368,148.6979 59.2228,149.8109 C59.4768,150.8069 59.3668,151.9979 58.8778,153.3909 C57.9998,155.9219 56.0078,157.2179 52.9098,157.2769 L51.9268,157.2769 C51.1588,157.2439 50.6448,157.2769 50.3908,157.3609 C50.0268,157.5039 49.7798,157.8169 49.6628,158.2979 C49.6098,158.6689 49.3948,160.0029 49.0238,162.3079" id="Fill-56"></path>
                    </g>
                </g>
            </g>
        </g>
    </g>
</svg>