<?xml version="1.0" encoding="UTF-8"?>
<svg width="23px" height="23px" viewBox="0 0 23 23" version="1.1" xmlns="http://www.w3.org/2000/svg" xmlns:xlink="http://www.w3.org/1999/xlink">
    <title>pintrest</title>
    <g id="Desktop" stroke="none" stroke-width="1" fill="none" fill-rule="evenodd">
        <g id="Home_1440" transform="translate(-1286.000000, -13235.000000)">
            <g id="Footer" transform="translate(0.000000, 13174.000000)">
                <g id="Group-6" transform="translate(1036.000000, 47.000000)">
                    <g id="Bottom/Icon-Copy-32" transform="translate(236.000000, 0.000000)">
                        <g id="pintrest" transform="translate(14.375000, 14.375000)">
                            <circle id="Oval" fill="#A7B4CB" opacity="0.6" cx="10.625" cy="10.625" r="10.4166667"></circle>
                            <path d="M7.01273958,20.3983333 C6.76695833,20.3073958 6.63905208,20.0407292 6.7091875,19.7883333 L9.62135417,9.30454167 C9.77532292,8.75022917 10.3495,8.42569792 10.9038542,8.57966667 C11.458125,8.73364583 11.7826042,9.30782292 11.6286458,9.862125 L10.5325,13.8083333 C11.835625,14.0844792 12.7495833,13.8483333 13.3614583,13.4438542 C14.1354167,12.9322917 14.6325,12.0164583 14.7570833,10.9288542 C14.8816667,9.84032292 14.6151042,8.69807292 14.0061458,7.85209375 C13.4194792,7.03703125 12.4928125,6.45833333 11.1458333,6.45833333 C9.14486458,6.45833333 7.95384375,7.32421875 7.3728125,8.38942708 C6.76801042,9.49823958 6.74855208,10.9595833 7.39002083,12.2425 C7.64729167,12.7570833 7.43872917,13.3827083 6.92416667,13.64 C6.40960417,13.8972917 5.78390625,13.68875 5.526625,13.1741667 C4.60561458,11.3320833 4.58616667,9.14759375 5.543875,7.39182292 C6.52535417,5.59244792 8.45933333,4.375 11.1458333,4.375 C13.184375,4.375 14.7315625,5.29369792 15.6970833,6.63501042 C16.6402083,7.94539583 17.0040625,9.61851042 16.826875,11.1658333 C16.6495833,12.7141667 15.9127083,14.2548958 14.5103125,15.181875 C13.3134375,15.9729167 11.7720833,16.2259375 9.97428125,15.8179167 L8.7084375,20.375 C8.63546875,20.6377083 8.37185417,20.8010417 8.10723958,20.7353125 C7.7340625,20.6427083 7.3688125,20.53 7.01273958,20.3983333 Z" id="Path" fill="#16161F"></path>
                        </g>
                    </g>
                </g>
            </g>
        </g>
    </g>
</svg>