<?xml version="1.0" encoding="UTF-8"?>
<svg width="53px" height="53px" viewBox="0 0 53 53" version="1.1" xmlns="http://www.w3.org/2000/svg" xmlns:xlink="http://www.w3.org/1999/xlink">
    <title>Group 17</title>
    <g id="Desktop" stroke="none" stroke-width="1" fill="none" fill-rule="evenodd">
        <g id="Home_1440" transform="translate(-837.000000, -7832.000000)">
            <g id="Monetization" transform="translate(0.000000, 6641.000000)">
                <g id="Commerce/Discount" transform="translate(818.000000, 1172.000000)">
                    <g id="Group-17" transform="translate(19.000000, 19.000000)">
                        <path d="M24.4827051,0.597369795 C25.3732115,-0.199123265 26.7200677,-0.199123265 27.610574,0.597369795 L27.610574,0.597369795 L32.3023773,4.50720586 C32.765267,5.00845145 33.4691388,5.20955767 34.1269674,5.02851734 L34.1269674,5.02851734 L40.3827051,4.50720586 C41.6410488,4.48182919 42.7377985,5.35922895 42.9892625,6.59245176 L42.9892625,6.59245176 L44.2925412,12.0662223 C44.4970121,12.742644 44.9673588,13.3070601 45.5958199,13.6301567 L45.5958199,13.6301567 L50.8089346,16.7580255 C51.9540886,17.3394663 52.4188163,18.7336494 51.8515576,19.8858944 L51.8515576,19.8858944 L49.505656,25.0990091 C49.2439405,25.7694555 49.2439405,26.5138087 49.505656,27.184255 L49.505656,27.184255 L51.8515576,32.3973698 C52.4188163,33.5496148 51.9540886,34.9437979 50.8089346,35.5252386 L50.8089346,35.5252386 L45.5958199,38.6531075 C44.9673588,38.9762041 44.4970121,39.5406202 44.2925412,40.2170419 L44.2925412,40.2170419 L42.9892625,45.6908124 C42.7377985,46.9240352 41.6410488,47.801435 40.3827051,47.7760583 L40.3827051,47.7760583 L34.1269674,47.2547468 C33.4691388,47.0737065 32.765267,47.2748127 32.3023773,47.7760583 L32.3023773,47.7760583 L27.610574,51.6858944 C26.7200677,52.4823874 25.3732115,52.4823874 24.4827051,51.6858944 L24.4827051,51.6858944 L19.7909019,47.7760583 C19.3280121,47.2748127 18.6241403,47.0737065 17.9663117,47.2547468 L17.9663117,47.2547468 L11.710574,47.7760583 C10.4522304,47.801435 9.35548066,46.9240352 9.10401661,45.6908124 L9.10401661,45.6908124 L7.80073793,40.2170419 C7.59626707,39.5406202 7.12592028,38.9762041 6.49745924,38.6531075 L6.49745924,38.6531075 L1.28434448,35.5252386 C0.139190488,34.9437979 -0.325537209,33.5496148 0.241721532,32.3973698 L0.241721532,32.3973698 L2.58762317,27.184255 C2.84933864,26.5138087 2.84933864,25.7694555 2.58762317,25.0990091 L2.58762317,25.0990091 L0.241721532,19.8858944 C-0.325537209,18.7336494 0.139190488,17.3394663 1.28434448,16.7580255 L1.28434448,16.7580255 L6.49745924,13.6301567 C7.12592028,13.3070601 7.59626707,12.742644 7.80073793,12.0662223 L7.80073793,12.0662223 L9.10401661,6.59245176 C9.35548066,5.35922895 10.4522304,4.48182919 11.710574,4.50720586 L11.710574,4.50720586 L17.9663117,5.02851734 C18.6241403,5.20955767 19.3280121,5.00845145 19.7909019,4.50720586 L19.7909019,4.50720586 Z M35.1695904,31.3547468 C33.0102476,31.3547468 31.2597543,33.1052401 31.2597543,35.2645829 C31.2597543,37.4239257 33.0102476,39.174419 35.1695904,39.174419 C37.3289332,39.174419 39.0794265,37.4239257 39.0794265,35.2645829 C39.0794265,33.1052401 37.3289332,31.3547468 35.1695904,31.3547468 Z M30.9990986,15.7154026 L15.6204101,31.0940911 C14.8349224,31.7868261 14.3849356,32.7836595 14.3849356,33.8309764 C14.3849356,34.8782932 14.8349224,35.8751266 15.6204101,36.5678616 C16.3955231,37.2893358 17.4301297,37.6655564 18.4876232,37.6104845 C19.4607456,37.6244277 20.3991216,37.2490773 21.0941805,36.5678616 L36.4728691,21.1891731 C37.9630752,19.6688587 37.9630752,17.235717 36.4728691,15.7154026 C34.9525547,14.2251964 32.519413,14.2251964 30.9990986,15.7154026 Z M16.9236887,13.1088452 C14.7643459,13.1088452 13.0138527,14.8593384 13.0138527,17.0186813 C13.0138527,19.1780241 14.7643459,20.9285173 16.9236887,20.9285173 C19.0830316,20.9285173 20.8335248,19.1780241 20.8335248,17.0186813 C20.8335248,14.8593384 19.0830316,13.1088452 16.9236887,13.1088452 Z" id="Combined-Shape" fill="#A7B4CB" opacity="0.6"></path>
                        <path d="M35.1695904,31.3547468 C37.3289332,31.3547468 39.0794265,33.1052401 39.0794265,35.2645829 C39.0794265,37.4239257 37.3289332,39.174419 35.1695904,39.174419 C33.0102476,39.174419 31.2597543,37.4239257 31.2597543,35.2645829 C31.2597543,33.1052401 33.0102476,31.3547468 35.1695904,31.3547468 Z M30.9990986,15.7154026 C32.519413,14.2251964 34.9525547,14.2251964 36.4728691,15.7154026 C37.8699374,17.1406973 37.9572541,19.3682817 36.7348194,20.8938626 L36.4728691,21.1891731 L21.0941805,36.5678616 C20.3991216,37.2490773 19.4607456,37.6244277 18.4876232,37.6104845 C17.4301297,37.6655564 16.3955231,37.2893358 15.6204101,36.5678616 C14.8349224,35.8751266 14.3849356,34.8782932 14.3849356,33.8309764 C14.3849356,32.9145741 14.7294568,32.0368233 15.3418024,31.367626 L30.9990986,15.7154026 Z M16.9236887,13.1088452 C19.0830316,13.1088452 20.8335248,14.8593384 20.8335248,17.0186813 C20.8335248,19.1780241 19.0830316,20.9285173 16.9236887,20.9285173 C14.7643459,20.9285173 13.0138527,19.1780241 13.0138527,17.0186813 C13.0138527,14.8593384 14.7643459,13.1088452 16.9236887,13.1088452 Z" id="Shape" fill="#16161F"></path>
                    </g>
                </g>
            </g>
        </g>
    </g>
</svg>