<?xml version="1.0" encoding="UTF-8"?>
<svg width="45px" height="45px" viewBox="0 0 45 45" version="1.1" xmlns="http://www.w3.org/2000/svg" xmlns:xlink="http://www.w3.org/1999/xlink">
    <title>Shop</title>
    <g id="Desktop" stroke="none" stroke-width="1" fill="none" fill-rule="evenodd">
        <g id="Home_1440" transform="translate(-189.000000, -7828.000000)">
            <g id="Monetization" transform="translate(0.000000, 6641.000000)">
                <g id="menu-copy-5" transform="translate(166.000000, 1164.000000)">
                    <g id="Icon/Plus-Square" transform="translate(23.000000, 23.000000)">
                        <g id="Shop" transform="translate(0.330882, 0.330882)">
                            <path d="M2.48161765,17.3713235 C2.48161765,16.0007757 3.5926875,14.8897059 4.96323529,14.8897059 L39.7058824,14.8897059 C41.0764798,14.8897059 42.1875,16.0007757 42.1875,17.3713235 L42.1875,37.2242647 C42.1875,41.336057 38.8544393,44.6691176 34.7426471,44.6691176 L9.92647059,44.6691176 C5.81480239,44.6691176 2.48161765,41.336057 2.48161765,37.2242647 L2.48161765,17.3713235 Z" id="Path" fill="#A7B4CB" opacity="0.6"></path>
                            <path d="M17.3713235,34.7426471 C17.3713235,32.0014522 19.593364,29.7794118 22.3345588,29.7794118 L22.3345588,29.7794118 C25.0757537,29.7794118 27.2977941,32.0014522 27.2977941,34.7426471 L27.2977941,42.1875 C27.2977941,43.5580974 26.1867739,44.6691176 24.8161765,44.6691176 L19.8529412,44.6691176 C18.4823438,44.6691176 17.3713235,43.5580974 17.3713235,42.1875 L17.3713235,34.7426471 Z" id="Path" fill="#16161F"></path>
                            <path d="M4.71542096,3.07177114 C6.37477941,1.02788603 8.92387224,0 11.5565211,0 L33.1124724,0 C35.7452206,0 38.2943382,1.02788603 39.953796,3.07177114 C42.078557,5.68903401 44.6691176,11.961943 44.6691176,14.8897059 C44.6691176,19.8529412 42.1875,22.3345588 37.2242647,22.3345588 C33.5638787,22.3345588 31.2532445,19.6350551 30.2923621,18.2178033 C30.0628125,17.8793107 29.496011,17.8793107 29.2664614,18.2178033 C28.305579,19.6350551 25.9949449,22.3345588 22.3345588,22.3345588 C18.6741728,22.3345588 16.3635634,19.6350551 15.4027059,18.2178033 C15.1732059,17.8793107 14.6062059,17.8793107 14.3767059,18.2178033 C13.4158483,19.6350551 11.1052142,22.3345588 7.44485294,22.3345588 C2.48161765,22.3345588 0,19.8529412 0,14.8897059 C0,11.961943 2.59058548,5.68903401 4.71542096,3.07177114 Z" id="Path" fill="#16161F"></path>
                        </g>
                    </g>
                </g>
            </g>
        </g>
    </g>
</svg>