<?xml version="1.0" encoding="UTF-8"?>
<svg width="58px" height="53px" viewBox="0 0 58 53" version="1.1" xmlns="http://www.w3.org/2000/svg" xmlns:xlink="http://www.w3.org/1999/xlink">
    <title>Star</title>
    <g id="Desktop" stroke="none" stroke-width="1" fill="none" fill-rule="evenodd">
        <g id="Home_1440" transform="translate(-187.000000, -7042.000000)">
            <g id="Monetization" transform="translate(0.000000, 6641.000000)">
                <g id="!Icons/Apps-Copy-17" transform="translate(171.000000, 382.000000)">
                    <g id="Star" transform="translate(16.000000, 19.000000)">
                        <path d="M26.5792909,2.97305364 C27.4951636,0.850649091 30.5045727,0.850649091 31.4204455,2.97305364 L37.1679818,16.2916727 C37.5557909,17.1903564 38.4094455,17.8002264 39.3854273,17.8756527 L54.1242818,19.0145355 C56.4891,19.1972618 57.4287,22.1660182 55.5998545,23.6761273 L44.5155273,32.8274727 C43.7335818,33.4731182 43.3913818,34.5097364 43.6347182,35.4938909 L47.0461727,49.2778545 C47.6071909,51.5446 45.1617,53.3676455 43.1493636,52.1828636 L30.3374273,44.6404909 C29.5119818,44.1543455 28.4880182,44.1543455 27.6625727,44.6404909 L14.8504255,52.1828636 C12.8380891,53.3676455 10.3928091,51.5446 10.9538009,49.2778545 L14.3650709,35.4938909 C14.6086445,34.5097364 14.26626,33.4731182 13.48442,32.8274727 L2.40014545,23.6761273 C0.571141818,22.1660182 1.51074182,19.1972618 3.87553364,19.0145355 L18.61452,17.8756527 C19.5904227,17.8002264 20.4442091,17.1903564 20.8320182,16.2916727 L26.5792909,2.97305364 Z" id="Path" fill="#A7B4CB" opacity="0.6"></path>
                        <path d="M27.7743545,16.6514836 C28.2138364,15.5404145 29.7861636,15.5404145 30.2259091,16.6514836 L32.3655818,22.0605636 C32.5496,22.5261455 32.9817,22.8472545 33.4805,22.8891727 L39.1484182,23.3671455 C40.2986636,23.4639 40.7774273,24.8875364 39.9198182,25.6599909 L35.5062818,29.6353636 C35.1514273,29.9548909 34.9972,30.4410364 35.1029182,30.9066182 L36.4340182,36.7749 C36.6952818,37.9254091 35.4290364,38.8130727 34.4361818,38.1756 L29.7123455,35.1416727 C29.2784,34.8630091 28.7216,34.8630091 28.2876545,35.1416727 L23.5637391,38.1756 C22.5710164,38.8130727 21.3048764,37.9254091 21.5659027,36.7749 L22.8971873,30.9066182 C23.0028,30.4410364 22.84852,29.9548909 22.4938764,29.6353636 L18.0801291,25.6599909 C17.2224936,24.8875364 17.7014418,23.4639 18.8515818,23.3671455 L24.5195,22.8891727 C25.0183,22.8472545 25.4504,22.5261455 25.6346818,22.0605636 L27.7743545,16.6514836 Z" id="Path" fill="#16161F"></path>
                    </g>
                </g>
            </g>
        </g>
    </g>
</svg>