<?xml version="1.0" encoding="UTF-8"?>
<svg width="31px" height="25px" viewBox="0 0 31 25" version="1.1" xmlns="http://www.w3.org/2000/svg" xmlns:xlink="http://www.w3.org/1999/xlink">
    <title>Path</title>
    <g id="Desktop" stroke="none" stroke-width="1" fill="none" fill-rule="evenodd">
        <g id="Credit-card-fraud_1440" transform="translate(-190.000000, -1325.000000)" fill="#000000" fill-rule="nonzero">
            <g id="Apollo_Stratus_Socnet" transform="translate(189.000000, 1246.000000)">
                <g id="Group-19" transform="translate(1.000000, 79.000000)">
                    <path d="M27.9,7.0537428 C27.9,9.9328215 27.1734375,12.7159309 25.76875,15.403071 C24.315625,18.2341651 22.28125,20.4894434 19.665625,22.168906 C16.8078125,24.0403071 13.5140625,25 9.784375,25 C6.2,25 2.9546875,24.0882917 0,22.168906 C0.4359375,22.2168906 0.96875,22.2168906 1.5015625,22.2168906 C4.45625,22.2168906 7.1203125,21.3051823 9.4453125,19.5297505 C8.040625,19.5297505 6.78125,19.0978887 5.715625,18.2821497 C4.65,17.4664107 3.9234375,16.4107486 3.4875,15.2111324 C3.875,15.2591171 4.2625,15.2591171 4.65,15.2591171 C5.23125,15.2591171 5.7640625,15.2111324 6.3453125,15.0671785 C4.8921875,14.731286 3.68125,14.0115163 2.7125,12.8598848 C1.74375,11.7082534 1.259375,10.3646833 1.259375,8.87715931 L1.259375,8.78119002 C2.13125,9.30902111 3.1,9.59692898 4.1171875,9.59692898 C3.29375,8.9731286 2.5671875,8.25335893 2.034375,7.29366603 C1.5015625,6.38195777 1.259375,5.37428023 1.259375,4.2706334 C1.259375,3.16698656 1.55,2.11132438 2.1796875,1.10364683 C3.778125,3.07101727 5.6671875,4.60652591 7.9921875,5.80614203 C10.26875,6.95777351 12.690625,7.5815739 15.30625,7.72552783 C15.209375,7.24568138 15.1609375,6.76583493 15.1609375,6.28598848 C15.1609375,5.18234165 15.4515625,4.12667946 15.984375,3.11900192 C16.565625,2.15930902 17.340625,1.34357006 18.309375,0.815738964 C19.278125,0.239923225 20.34375,0 21.4578125,0 C22.378125,0 23.25,0.19193858 24.025,0.527831094 C24.8,0.911708253 25.478125,1.3915547 26.1078125,1.96737044 C27.5609375,1.67946257 28.9171875,1.19961612 30.1765625,0.479846449 C29.6921875,1.96737044 28.771875,3.11900192 27.3671875,3.98272553 C28.578125,3.83877159 29.7890625,3.45489443 31,2.97504798 C30.0796875,4.2706334 29.0140625,5.37428023 27.803125,6.28598848 C27.9,6.42994242 27.9,6.71785029 27.9,7.0537428" id="Path"></path>
                </g>
            </g>
        </g>
    </g>
</svg>