<?xml version="1.0" encoding="UTF-8"?>
<svg width="15px" height="18px" viewBox="0 0 15 18" version="1.1" xmlns="http://www.w3.org/2000/svg" xmlns:xlink="http://www.w3.org/1999/xlink">
    <title>Fill 19</title>
    <g id="Desktop" stroke="none" stroke-width="1" fill="none" fill-rule="evenodd">
        <g id="Home_1440" transform="translate(-395.000000, -11445.000000)" fill="#000000">
            <g id="Roadmap" transform="translate(-25.000000, 10810.000000)">
                <g transform="translate(0.000000, 248.000000)" id="Group-21">
                    <g transform="translate(417.000000, 289.853000)">
                        <path d="M17.5276,101.3207 C15.7526,101.1907 14.3286,99.8107 14.1426,98.0417 L14.0926,97.5957 L10.9086,97.5957 L10.8836,109.0087 C10.8836,110.0397 9.9586,110.9037 8.8636,110.9037 C7.7986,110.9037 6.9396,110.0447 6.9396,108.9787 C6.9396,107.9197 7.7986,107.0537 8.8636,107.0537 C8.9146,107.0537 8.9686,107.0647 9.0936,107.0797 L9.6536,107.1547 L9.6486,103.7797 L9.1886,103.7457 C9.0796,103.7347 8.9736,103.7297 8.8636,103.7297 C5.9646,103.7297 3.6096,106.0847 3.6096,108.9787 C3.6096,111.8737 5.9646,114.2327 8.8636,114.2327 C11.7576,114.2327 14.1126,111.8737 14.1126,108.9787 L14.1126,103.8597 C15.0436,104.6397 16.2726,105.0457 17.5376,104.9207 L17.9926,104.8757 L17.9926,101.3557 L17.5276,101.3207 Z" id="Fill-19"></path>
                    </g>
                </g>
            </g>
        </g>
    </g>
</svg>