<?xml version="1.0" encoding="UTF-8"?>
<svg width="163px" height="29px" viewBox="0 0 163 29" version="1.1" xmlns="http://www.w3.org/2000/svg" xmlns:xlink="http://www.w3.org/1999/xlink">
    <title>Group 16</title>
    <g id="Desktop" stroke="none" stroke-width="1" fill="none" fill-rule="evenodd">
        <g id="Credit-card-fraud_1440" transform="translate(-193.000000, -1507.000000)" fill="#000000" fill-rule="nonzero">
            <g id="Apollo_Stratus_Socnet" transform="translate(189.000000, 1246.000000)">
                <g id="Group-16" transform="translate(4.000000, 261.000000)">
                    <g id="Group" transform="translate(71.950162, 6.365707)">
                        <polygon id="Path" points="6.46110279 2.9848153 0.190032435 2.9848153 0.190032435 0.142134062 15.725184 0.142134062 15.725184 2.9848153 9.45411364 2.9848153 9.45411364 20.0409027 6.46110279 20.0409027"></polygon>
                        <path d="M18.2906219,0.142134062 L21.4261571,0.142134062 L21.4261571,3.12694936 L18.2906219,3.12694936 L18.2906219,0.142134062 Z M18.4331462,5.82749653 L21.2836327,5.82749653 L21.2836327,20.0409027 L18.4331462,20.0409027 L18.4331462,5.82749653 Z" id="Shape"></path>
                        <polygon id="Path" points="25.3693301 0.142134062 28.2198166 0.142134062 28.2198166 12.3656634 34.2058383 5.82749653 37.6264221 5.82749653 31.2128275 12.7920656 37.9114708 20.0409027 34.490887 20.0409027 28.2198166 13.2184677 28.2198166 20.0409027 25.3693301 20.0409027"></polygon>
                        <polygon id="Path" points="51.0712169 2.9848153 44.8001466 2.9848153 44.8001466 0.142134062 60.3352981 0.142134062 60.3352981 2.9848153 54.0642278 2.9848153 54.0642278 20.0409027 51.0712169 20.0409027"></polygon>
                        <path d="M60.6203468,12.9341996 C60.6203468,8.5280437 63.6133576,5.54322841 67.7465631,5.54322841 C71.8797686,5.54322841 74.8727794,8.5280437 74.8727794,12.9341996 C74.8727794,17.3403555 71.8797686,20.3251708 67.7465631,20.3251708 C63.6133576,20.3251708 60.6203468,17.3403555 60.6203468,12.9341996 Z M72.0222929,12.9341996 C72.0222929,9.99676234 70.1694767,8.10164152 67.7465631,8.10164152 C65.3236496,8.10164152 63.4708333,9.99676234 63.4708333,12.9341996 C63.4708333,15.8716369 65.3236496,17.7667577 67.7465631,17.7667577 C70.1694767,17.7667577 72.0222929,15.9190149 72.0222929,12.9341996 Z" id="Shape"></path>
                        <polygon id="Path" points="78.2933633 0.142134062 81.1438498 0.142134062 81.1438498 12.3656634 87.1298715 5.82749653 90.5504553 5.82749653 84.1368606 12.7920656 90.835504 20.0409027 87.4149201 20.0409027 81.1438498 13.2184677 81.1438498 20.0409027 78.2933633 20.0409027"></polygon>
                    </g>
                    <path d="M24.1493384,6.46557377 C21.0775047,6.22786885 18.6200378,3.85081967 18.289225,0.760655738 L18.194707,0 L12.6654064,0 L12.6181474,19.9196721 C12.6181474,21.7262295 11.0113422,23.2 9.12098299,23.2 C7.2778828,23.2 5.76559546,21.6786885 5.76559546,19.8245902 C5.76559546,17.9704918 7.2778828,16.4491803 9.12098299,16.4491803 C9.21550095,16.4491803 9.3100189,16.4491803 9.49905482,16.4967213 L10.4914934,16.6393443 L10.4914934,10.7442623 L9.68809074,10.6967213 C9.49905482,10.6967213 9.3100189,10.6491803 9.12098299,10.6491803 C4.11153119,10.6491803 0,14.7377049 0,19.8245902 C0,24.8639344 4.06427221,29 9.12098299,29 C14.1304348,29 18.241966,24.8639344 18.241966,19.8245902 L18.241966,10.8868852 C19.8487713,12.2655738 21.9754253,12.9311475 24.1965974,12.7409836 L25,12.6459016 L25,6.51311475 L24.1493384,6.46557377 Z" id="Path"></path>
                </g>
            </g>
        </g>
    </g>
</svg>