<?xml version="1.0" encoding="UTF-8"?>
<svg width="23px" height="23px" viewBox="0 0 23 23" version="1.1" xmlns="http://www.w3.org/2000/svg" xmlns:xlink="http://www.w3.org/1999/xlink">
    <title>travelocity</title>
    <g id="Desktop" stroke="none" stroke-width="1" fill="none" fill-rule="evenodd">
        <g id="Home_1440" transform="translate(-726.000000, -11422.000000)" fill="#000000">
            <g id="Roadmap" transform="translate(-25.000000, 10810.000000)">
                <g transform="translate(0.000000, 248.000000)" id="Group-36">
                    <g transform="translate(744.000000, 289.853000)">
                        <g id="travelocity" transform="translate(7.883944, 74.689655)">
                            <path d="M14.583156,15.395645 C14.764156,15.301645 14.976156,15.301645 15.156156,15.214645 C14.857156,14.878645 14.521156,14.580645 14.278156,14.188645 C14.191156,14.070645 14.247156,14.039645 14.310156,14.007645 C14.372156,14.007645 14.341156,13.882645 14.372156,13.827645 C14.490156,13.795645 14.490156,13.640645 14.552156,13.553645 C14.552156,13.522645 14.552156,13.434645 14.583156,13.404645 C14.614156,13.373645 14.677156,13.341645 14.732156,13.404645 C14.976156,13.703645 15.243156,13.882645 15.517156,14.094645 C15.853156,14.337645 16.214156,14.517645 16.487156,14.823645 C16.519156,14.823645 16.606156,14.878645 16.606156,14.823645 C16.637156,14.517645 16.762156,14.219645 16.880156,13.976645 C16.911156,13.882645 16.942156,13.764645 17.004156,13.671645 C17.085156,13.491645 17.303156,13.373645 17.452156,13.248645 C17.727156,13.098645 18.031156,13.248645 18.236156,13.011645 C18.299156,12.949645 18.417156,13.011645 18.479156,13.011645 C18.660156,13.098645 18.902156,13.042645 19.052156,13.192645 C18.815156,13.733645 18.815156,14.306645 18.629156,14.878645 C18.604156,15.003645 18.542156,15.183645 18.604156,15.246645 C18.871156,15.333645 19.568156,15.214645 19.600156,15.183645 C19.961156,15.183645 20.291156,15.183645 20.658156,15.271645 C20.932156,15.333645 21.105156,15.457645 21.349156,15.663645 C21.741156,15.967645 21.741156,16.515645 21.685156,16.995645 C21.685156,17.026645 21.498156,17.207645 21.442156,17.175645 C21.411156,17.175645 21.411156,17.057645 21.380156,17.026645 C21.225156,17.144645 20.957156,17.417645 20.869156,17.417645 C20.838156,17.417645 20.658156,17.238645 20.564156,17.175645 C20.260156,16.963645 19.898156,17.026645 19.568156,17.057645 C19.170156,17.088645 18.784156,17.026645 18.386156,17.207645 C18.542156,17.480645 18.784156,17.629645 19.027156,17.841645 C19.382156,18.202645 19.749156,18.476645 20.110156,18.837645 C20.353156,19.111645 20.596156,19.291645 20.745156,19.590645 C20.658156,19.652645 20.745156,19.683645 20.683156,19.746645 C20.627156,19.777645 20.627156,19.652645 20.564156,19.652645 C20.502156,19.652645 20.471156,19.746645 20.471156,19.801645 C20.502156,19.832645 20.415156,20.019645 20.353156,20.019645 C20.321156,20.050645 20.166156,20.138645 20.110156,20.138645 C20.079156,20.138645 19.898156,20.050645 19.898156,20.076645 C19.961156,20.168645 20.023156,20.288645 19.992156,20.318645 C19.843156,20.288645 19.749156,20.288645 19.656156,20.168645 C19.170156,19.746645 18.723156,19.291645 18.206156,18.837645 C18.031156,18.657645 17.907156,18.414645 17.664156,18.233645 C17.303156,19.080645 17.054156,19.683645 16.699156,20.530645 C16.606156,20.679645 16.575156,21.078645 16.487156,21.102645 C16.426156,21.133645 16.214156,20.834645 16.090156,20.592645 C16.090156,20.076645 16.151156,19.895645 16.183156,19.354645 L16.183156,19.260645 C16.214156,18.569645 16.426156,17.965645 16.395156,17.238645 C16.395156,17.175645 16.301156,17.144645 16.214156,17.144645 C15.306156,17.057645 14.434156,16.939645 13.525156,16.814645 C13.313156,16.783645 13.102156,16.783645 12.896156,16.690645 C12.865156,16.665645 12.741156,16.603645 12.710156,16.603645 C12.679156,16.572645 12.679156,16.572645 12.647156,16.572645 C13.015156,16.210645 13.313156,15.818645 13.830156,15.607645 C14.066156,15.607645 14.434156,15.457645 14.583156,15.395645" id="Fill-24"></path>
                            <path d="M0.0382559839,18.526545 C-0.0237440161,18.495545 0.00825598388,18.432545 0.00825598388,18.432545 C0.0632559839,18.345545 0.182255984,18.345545 0.244255984,18.345545 C0.486255984,18.283545 0.761255984,18.345545 1.00325598,18.283545 C1.05925598,18.252545 1.09125598,18.190545 1.12125598,18.190545 C1.30225598,18.102545 1.48225598,18.072545 1.70025598,18.009545 C1.75725598,17.984545 1.88125598,17.922545 1.81825598,17.829545 C1.60725598,17.586545 1.39525598,17.375545 1.27025598,17.100545 C1.20925598,16.958545 1.09125598,16.833545 1.09125598,16.683545 C1.09125598,16.565545 1.24025598,16.534545 1.36425598,16.590545 C1.91225598,16.895545 2.26725598,17.349545 2.66525598,17.829545 C2.72725598,17.922545 2.81425598,17.711545 2.84625598,17.617545 C3.02625598,17.225545 3.14425598,16.771545 3.35525598,16.379545 C3.41825598,16.260545 3.51225598,16.105545 3.63025598,16.074545 C3.81025598,16.017545 3.93425598,15.899545 4.07825598,15.806545 C4.20225598,15.744545 4.29625598,15.806545 4.41425598,15.744545 C4.47625598,15.713545 4.59525598,15.838545 4.68725598,15.806545 C4.83725598,15.713545 4.96225598,15.775545 5.10425598,15.806545 C5.19825598,15.868545 5.22925598,15.956545 5.19825598,16.048545 C5.04925598,16.410545 4.99325598,16.771545 4.75025598,17.131545 C4.56925598,17.406545 4.44525598,17.679545 4.23325598,17.954545 C4.23325598,17.984545 4.20225598,18.041545 4.26525598,18.041545 C4.38325598,18.072545 4.53825598,18.041545 4.62625598,18.102545 C4.99325598,18.221545 5.35325598,18.190545 5.74625598,18.252545 C5.92725598,18.314545 5.92725598,18.582545 6.10625598,18.738545 C6.19425598,18.794545 6.04525598,18.887545 5.92725598,18.918545 C5.65225598,19.011545 5.37925598,18.887545 5.10425598,18.980545 C4.65625598,19.067545 4.20225598,18.980545 3.78525598,19.161545 C3.93425598,19.310545 4.07825598,19.434545 4.20225598,19.578545 L4.56925598,20.126545 C4.68725598,20.337545 4.75025598,20.517545 4.81225598,20.729545 C4.86825598,20.823545 4.83725598,20.972545 4.83725598,21.090545 C4.78125598,21.065545 4.78125598,20.972545 4.75025598,20.941545 C4.68725598,20.941545 4.65625598,21.034545 4.56925598,21.034545 C4.50825598,21.003545 4.47625598,20.941545 4.44525598,20.910545 C4.35125598,20.823545 4.26525598,20.667545 4.23325598,20.548545 C4.05325598,20.157545 3.72325598,19.914545 3.41825598,19.672545 C3.11325598,20.306545 2.90825598,20.941545 2.48425598,21.545545 C2.45325598,21.607545 2.39225598,21.607545 2.29825598,21.607545 C2.26725598,21.576545 2.24225598,21.663545 2.21125598,21.663545 C2.18025598,21.607545 2.14825598,21.607545 2.11725598,21.576545 C1.99925598,21.489545 1.81825598,21.364545 1.78725598,21.214545 C1.72525598,21.065545 1.66925598,20.941545 1.66925598,20.792545 C1.66925598,20.760545 1.60725598,20.698545 1.60725598,20.698545 C1.66925598,20.605545 1.66925598,20.462545 1.70025598,20.399545 C1.75725598,20.306545 1.88125598,20.213545 1.88125598,20.126545 C1.99925598,19.821545 2.21125598,19.578545 2.26725598,19.279545 C1.70025598,19.185545 1.09125598,19.216545 0.517255984,19.011545 C0.399255984,18.949545 0.244255984,18.918545 0.126255984,18.825545 C0.0632559839,18.613545 0.0952559839,18.557545 0.0382559839,18.526545" id="Fill-26"></path>
                            <path d="M6.02555598,9.87714501 C6.20655598,9.42314501 6.50455598,9.14814501 6.53655598,8.63914501 C5.57155598,8.09114501 4.42055598,8.42714501 3.69755598,7.15714501 C3.51755598,6.89014501 3.69755598,5.61314501 3.79155598,5.47114501 C4.00355598,5.01614501 4.42055598,5.01614501 4.81855598,5.31514501 C4.84855598,5.28314501 5.14755598,5.37714501 5.21055598,5.40814501 C5.60255598,5.34614501 6.02555598,5.49514501 6.44255598,5.58914501 C6.99055598,5.64514501 7.44455598,5.85614501 7.96155598,5.80014501 C7.98655598,5.76914501 8.04755598,5.64514501 8.04755598,5.49514501 C7.92955598,4.74214501 7.74355598,4.07614501 7.56255598,3.29214501 C7.46955598,3.11114501 7.50055598,2.86914501 7.44455598,2.68914501 C7.41355598,2.23314501 7.11455598,1.54314501 7.38155598,1.32514501 C7.41355598,1.30014501 7.46955598,1.41914501 7.50055598,1.38814501 C7.59355598,1.32514501 7.62555598,1.20714501 7.71255598,1.23814501 C8.65155598,1.87314501 9.43655598,2.83814501 10.282556,3.77714501 C10.556556,4.04514501 10.612556,3.32314501 10.824556,3.08014501 C10.886556,2.96214501 10.824556,2.68914501 10.886556,2.59514501 C11.097556,2.20314501 11.129556,1.71714501 11.309556,1.35614501 C11.639556,0.908145011 11.826556,0.211145011 12.305556,0.0301450108 C12.634556,-0.0618549892 13.002556,0.0561450108 13.300556,0.392145011 C13.363556,0.423145011 13.512556,0.392145011 13.606556,0.485145011 C13.935556,0.783145011 14.210556,1.17614501 14.571556,1.54314501 C14.695556,1.69214501 14.751556,1.96614501 14.695556,2.08414501 C14.601556,2.59514501 14.154556,2.62614501 13.879556,2.99314501 C13.363556,3.83314501 12.822556,4.68014501 12.305556,5.52614501 C12.249556,5.64514501 12.099556,5.91814501 12.217556,6.04314501 C12.940556,6.76514501 13.575556,7.52414501 14.390556,8.09114501 C14.907556,8.42714501 15.448556,8.39614501 15.902556,8.85014501 C16.239556,9.24214501 16.475556,9.66514501 16.625556,10.176145 C14.782556,11.358145 12.697556,9.42314501 10.737556,9.45314501 C10.581556,9.48414501 10.612556,9.69614501 10.612556,9.78314501 C10.706556,10.630145 10.855556,11.445145 10.948556,12.261145 C10.979556,12.840145 11.278556,13.412145 11.365556,13.953145 C11.396556,14.165145 11.583556,14.707145 11.309556,14.676145 C11.010556,14.676145 10.581556,14.588145 10.370556,14.103145 C10.101556,13.475145 9.82855598,12.809145 9.61655598,12.111145 C9.58555598,11.899145 9.49855598,11.719145 9.58555598,11.539145 C9.61655598,11.202145 9.40555598,10.903145 9.31155598,10.661145 C9.25555598,10.543145 9.13755598,10.724145 9.04455598,10.785145 C8.77055598,11.147145 8.49655598,11.477145 8.25455598,11.899145 C7.80555598,12.534145 7.28955598,12.927145 6.68555598,13.200145 C6.23755598,13.381145 5.57155598,13.475145 5.26555598,12.777145 C5.41555598,12.746145 5.54055598,12.416145 5.44655598,12.323145 C4.75555598,11.265145 5.72055598,10.630145 6.02555598,9.87714501" id="Fill-28"></path>
                        </g>
                    </g>
                </g>
            </g>
        </g>
    </g>
</svg>