<?xml version="1.0" encoding="UTF-8"?>
<svg width="222px" height="34px" viewBox="0 0 222 34" version="1.1" xmlns="http://www.w3.org/2000/svg" xmlns:xlink="http://www.w3.org/1999/xlink">
    <title>Group 14</title>
    <g id="Desktop" stroke="none" stroke-width="1" fill="none" fill-rule="evenodd">
        <g id="Credit-card-fraud_1440" transform="translate(-512.000000, -1382.000000)" fill="#000000" fill-rule="nonzero">
            <g id="Apollo_Stratus_Socnet" transform="translate(189.000000, 1246.000000)">
                <g id="Group-14" transform="translate(323.000000, 136.000000)">
                    <g id="Group" transform="translate(78.546438, 8.182853)">
                        <polygon id="Path" points="6.36608657 2.9848153 0.0950162175 2.9848153 0.0950162175 0.142134062 15.6301678 0.142134062 15.6301678 2.9848153 9.35909743 2.9848153 9.35909743 20.0409027 6.36608657 20.0409027"></polygon>
                        <path d="M16.6753462,5.82749653 L19.0982597,5.82749653 L19.3833084,7.10670308 L19.5258327,7.10670308 C20.0009138,6.58554486 20.4759949,5.82749653 22.2337949,5.82749653 L24.7992328,5.82749653 L24.7992328,8.38590964 L22.5188436,8.38590964 C20.523503,8.38590964 19.5258327,9.38084807 19.5258327,11.3233469 L19.5258327,20.0409027 L16.6753462,20.0409027 L16.6753462,5.82749653 Z" id="Path"></path>
                        <path d="M35.6310816,18.477428 L35.4885572,18.477428 C35.2035086,18.8564522 34.8709518,19.1407203 34.4433789,19.4249884 C33.7782653,19.8987686 32.6855788,20.3251708 31.2128275,20.3251708 C28.0772923,20.3251708 26.0819517,18.524806 26.0819517,15.9190149 C26.0819517,13.0763337 27.934768,11.2285909 31.9254491,11.2285909 L35.4885572,11.2285909 L35.4885572,10.9443227 C35.4885572,9.09657995 34.3483626,7.95950745 32.4955464,7.95950745 C30.5002058,7.95950745 29.6450599,9.09657995 29.5025355,9.94938432 L26.652049,9.94938432 C26.7945733,7.58048329 28.9324382,5.54322841 32.4955464,5.54322841 C36.248687,5.54322841 38.3390438,7.62786131 38.3390438,10.9443227 L38.3390438,20.0409027 L35.9161302,20.0409027 L35.6310816,18.477428 Z M35.4885572,13.5027359 L32.0679734,13.5027359 C29.8826004,13.5027359 28.9324382,14.4976743 28.9324382,15.7768808 C28.9324382,17.0560874 29.7875842,17.9088918 31.4978761,17.9088918 C34.1108221,17.9088918 35.4885572,16.4875512 35.4885572,14.0712721 L35.4885572,13.5027359 L35.4885572,13.5027359 Z" id="Shape"></path>
                        <polygon id="Path" points="39.9543195 5.82749653 42.9473303 5.82749653 46.7954871 16.9139533 47.3655844 16.9139533 51.2137413 5.82749653 54.2067521 5.82749653 49.2184007 20.0409027 44.9426709 20.0409027"></polygon>
                        <path d="M69.029282,15.9190149 C68.3641685,17.7667577 66.3213198,20.3251708 62.6156874,20.3251708 C58.4824819,20.3251708 55.489471,17.3403555 55.489471,12.9341996 C55.489471,8.5280437 58.4824819,5.54322841 62.6156874,5.54322841 C66.4638442,5.54322841 69.456855,8.5280437 69.456855,12.5077974 C69.456855,12.9341996 69.4093469,13.2658458 69.3618388,13.5501139 L69.3143307,13.929138 L58.3399576,13.929138 C58.6725143,16.3454171 60.3352981,17.9088918 62.6156874,17.9088918 C64.3259793,17.9088918 65.5611901,16.9139533 66.0362712,15.9190149 L69.029282,15.9190149 L69.029282,15.9190149 Z M66.7488928,11.7971271 C66.4163361,9.52298213 64.8960766,7.95950745 62.6156874,7.95950745 C60.1927738,7.95950745 58.7675305,9.52298213 58.3399576,11.7971271 L66.7488928,11.7971271 Z" id="Shape"></path>
                        <polygon id="Path" points="72.8774389 0.142134062 75.7279254 0.142134062 75.7279254 20.0409027 72.8774389 20.0409027"></polygon>
                        <path d="M79.1485092,12.9341996 C79.1485092,8.5280437 82.1415201,5.54322841 86.2747255,5.54322841 C90.407931,5.54322841 93.4009418,8.5280437 93.4009418,12.9341996 C93.4009418,17.3403555 90.407931,20.3251708 86.2747255,20.3251708 C82.1415201,20.3251708 79.1485092,17.3403555 79.1485092,12.9341996 Z M90.5504553,12.9341996 C90.5504553,9.99676234 88.6976391,8.10164152 86.2747255,8.10164152 C83.851812,8.10164152 81.9989957,9.99676234 81.9989957,12.9341996 C81.9989957,15.8716369 83.851812,17.7667577 86.2747255,17.7667577 C88.6976391,17.7667577 90.5504553,15.9190149 90.5504553,12.9341996 Z" id="Shape"></path>
                        <path d="M109.648715,15.0662105 C109.173634,17.1982215 107.368326,20.3251708 103.092596,20.3251708 C98.9593906,20.3251708 95.9663797,17.3403555 95.9663797,12.9341996 C95.9663797,8.5280437 98.9593906,5.54322841 103.092596,5.54322841 C107.368326,5.54322841 109.173634,8.71755578 109.648715,10.6600546 L106.798229,10.6600546 C106.323147,9.38084807 105.277969,8.10164152 103.092596,8.10164152 C100.669682,8.10164152 98.8168662,9.99676234 98.8168662,12.9341996 C98.8168662,15.8716369 100.669682,17.7667577 103.092596,17.7667577 C105.372985,17.7667577 106.465672,16.203283 106.798229,15.0662105 L109.648715,15.0662105 Z" id="Path"></path>
                        <path d="M112.594218,0.142134062 L115.729753,0.142134062 L115.729753,3.12694936 L112.594218,3.12694936 L112.594218,0.142134062 Z M112.736742,5.82749653 L115.587229,5.82749653 L115.587229,20.0409027 L112.736742,20.0409027 L112.736742,5.82749653 Z" id="Shape"></path>
                        <path d="M120.718104,8.5280437 L118.437715,8.5280437 L118.437715,5.82749653 L120.718104,5.82749653 L120.718104,1.8477428 L123.568591,1.8477428 L123.568591,5.82749653 L126.84665,5.82749653 L126.84665,8.5280437 L123.568591,8.5280437 L123.568591,16.6296852 C123.568591,17.1982215 123.85364,17.4824896 124.423737,17.4824896 L126.84665,17.4824896 L126.84665,20.0409027 L123.85364,20.0409027 C121.810791,20.0409027 120.718104,18.9038302 120.718104,17.0560874 L120.718104,8.5280437 Z" id="Path"></path>
                        <path d="M130.12471,23.1678521 L132.975196,23.1678521 C133.545294,23.1678521 133.877851,22.6466938 133.925359,22.3150477 L134.40044,21.0358411 L128.556942,5.82749653 L131.549953,5.82749653 L135.683159,16.6296852 L136.253256,16.6296852 L139.958888,5.82749653 L142.951899,5.82749653 L136.680829,23.3099861 C136.110732,24.8734608 135.255586,25.7262652 133.117721,25.7262652 L130.12471,25.7262652 L130.12471,23.1678521 Z" id="Path"></path>
                    </g>
                    <g id="Group">
                        <path d="M20.1774194,21 C20.4193548,20.8548387 20.7096774,20.8548387 20.9516129,20.7580645 C20.5645161,20.3225806 20.0806452,19.8870968 19.7419355,19.3548387 C19.6451613,19.2096774 19.6935484,19.1612903 19.7903226,19.1129032 C19.8870968,19.1129032 19.8387097,18.9677419 19.8870968,18.8709677 C20.0322581,18.8225806 20.0322581,18.6290323 20.1290323,18.483871 C20.1290323,18.4354839 20.1290323,18.3387097 20.1774194,18.2903226 C20.2258065,18.2419355 20.3225806,18.1935484 20.3709677,18.2903226 C20.7096774,18.6774194 21.0483871,18.9193548 21.4354839,19.2096774 C21.8709677,19.5483871 22.4032258,19.7903226 22.7419355,20.1774194 C22.7903226,20.1774194 22.8870968,20.2741935 22.8870968,20.1774194 C22.9354839,19.7419355 23.0806452,19.3548387 23.2741935,19.016129 C23.3225806,18.8709677 23.3709677,18.7258065 23.4193548,18.5806452 C23.516129,18.3387097 23.8064516,18.1935484 24.0483871,18 C24.4354839,17.8064516 24.8225806,18 25.1129032,17.6612903 C25.2096774,17.5645161 25.3548387,17.6612903 25.4516129,17.6612903 C25.6935484,17.7580645 26.0322581,17.7096774 26.2258065,17.9032258 C25.8870968,18.6290323 25.8870968,19.4032258 25.6451613,20.1774194 C25.5967742,20.3225806 25.5483871,20.6129032 25.5967742,20.6612903 C25.983871,20.7580645 26.9032258,20.6129032 26.9516129,20.5645161 C27.4354839,20.5645161 27.8709677,20.5645161 28.4032258,20.6612903 C28.7903226,20.7580645 29.0322581,20.9032258 29.3225806,21.1935484 C29.8548387,21.6290323 29.8548387,22.3548387 29.7580645,22.983871 C29.7580645,23.0322581 29.516129,23.2741935 29.4193548,23.2258065 C29.3709677,23.2258065 29.3709677,23.0806452 29.3225806,23.0322581 C29.1290323,23.1774194 28.7419355,23.5645161 28.6451613,23.5645161 C28.5967742,23.5645161 28.3548387,23.3225806 28.2096774,23.2258065 C27.7741935,22.9354839 27.2903226,23.0322581 26.8548387,23.0806452 C26.3225806,23.1290323 25.7903226,23.0322581 25.2580645,23.2741935 C25.4516129,23.6612903 25.7903226,23.8548387 26.1290323,24.1451613 C26.6129032,24.6290323 27.0967742,25.016129 27.5806452,25.5 C27.9193548,25.8870968 28.2580645,26.1290323 28.4516129,26.516129 C28.3548387,26.6129032 28.4516129,26.6612903 28.3548387,26.7096774 C28.2580645,26.7580645 28.2580645,26.5645161 28.2096774,26.5645161 C28.1129032,26.5645161 28.0645161,26.7096774 28.0645161,26.7580645 C28.1129032,26.8064516 27.9677419,27.0483871 27.9193548,27.0483871 C27.8709677,27.0967742 27.6774194,27.1935484 27.5806452,27.1935484 C27.5322581,27.1935484 27.2903226,27.0967742 27.2903226,27.0967742 C27.3870968,27.2419355 27.4354839,27.3870968 27.4354839,27.4354839 C27.2419355,27.3870968 27.0967742,27.3870968 27,27.2419355 C26.3225806,26.6612903 25.7419355,26.0322581 25.016129,25.4516129 C24.7741935,25.2096774 24.6290323,24.8709677 24.2903226,24.6290323 C23.8064516,25.7903226 23.4677419,26.6129032 22.983871,27.7741935 C22.8387097,27.9677419 22.7903226,28.5 22.6935484,28.5483871 C22.5967742,28.5967742 22.3064516,28.1612903 22.1612903,27.8709677 C22.1612903,27.1451613 22.2580645,26.9032258 22.3064516,26.1774194 L22.3064516,26.0322581 C22.3548387,25.1129032 22.6451613,24.2903226 22.5967742,23.2741935 C22.5967742,23.1774194 22.4516129,23.1290323 22.3548387,23.1290323 C21.0967742,23.0322581 19.9354839,22.8387097 18.6774194,22.6935484 C18.3870968,22.6451613 18.0967742,22.6451613 17.8064516,22.5483871 C17.7580645,22.5 17.6129032,22.4516129 17.5645161,22.4516129 C17.516129,22.4032258 17.516129,22.4032258 17.4677419,22.4032258 C17.9516129,21.9193548 18.3870968,21.3870968 19.0645161,21.0967742 C19.5,21.2903226 19.983871,21.0967742 20.1774194,21" id="Path"></path>
                        <path d="M0.435483871,25.2580645 C0.338709677,25.2096774 0.387096774,25.1129032 0.387096774,25.1129032 C0.483870968,25.016129 0.629032258,25.016129 0.725806452,25.016129 C1.06451613,24.9193548 1.4516129,25.016129 1.74193548,24.9193548 C1.83870968,24.8709677 1.83870968,24.7741935 1.88709677,24.7741935 C2.12903226,24.6774194 2.37096774,24.6290323 2.66129032,24.5322581 C2.75806452,24.483871 2.90322581,24.4354839 2.80645161,24.2903226 C2.51612903,23.9516129 2.22580645,23.6612903 2.08064516,23.3225806 C1.98387097,23.1290323 1.83870968,22.9354839 1.83870968,22.7419355 C1.83870968,22.5967742 2.03225806,22.5483871 2.22580645,22.5967742 C2.9516129,23.0322581 3.43548387,23.6129032 4.01612903,24.2903226 C4.11290323,24.4354839 4.20967742,24.1451613 4.25806452,24 C4.5,23.4677419 4.64516129,22.8387097 4.93548387,22.3064516 C5.03225806,22.1612903 5.12903226,21.9193548 5.32258065,21.8709677 C5.56451613,21.7741935 5.75806452,21.6290323 5.9516129,21.483871 C6.09677419,21.3870968 6.24193548,21.483871 6.38709677,21.3870968 C6.48387097,21.3387097 6.62903226,21.5322581 6.77419355,21.483871 C6.96774194,21.3387097 7.16129032,21.4354839 7.35483871,21.483871 C7.5,21.5806452 7.5483871,21.6774194 7.5,21.8225806 C7.30645161,22.3064516 7.20967742,22.7903226 6.87096774,23.2741935 C6.62903226,23.6612903 6.43548387,24 6.14516129,24.3870968 C6.14516129,24.4354839 6.09677419,24.483871 6.19354839,24.483871 C6.33870968,24.5322581 6.58064516,24.483871 6.67741935,24.5806452 C7.16129032,24.7258065 7.64516129,24.6774194 8.17741935,24.7741935 C8.41935484,24.8709677 8.41935484,25.2096774 8.66129032,25.4516129 C8.75806452,25.5483871 8.56451613,25.6451613 8.41935484,25.6935484 C8.03225806,25.8387097 7.69354839,25.6451613 7.30645161,25.7903226 C6.67741935,25.8870968 6.09677419,25.7903226 5.51612903,26.0322581 C5.70967742,26.2258065 5.90322581,26.4193548 6.09677419,26.6129032 L6.58064516,27.3387097 C6.72580645,27.6290323 6.82258065,27.8709677 6.91935484,28.1612903 C7.01612903,28.3064516 6.96774194,28.5 6.96774194,28.6451613 C6.87096774,28.5967742 6.87096774,28.5 6.87096774,28.4516129 C6.77419355,28.4516129 6.72580645,28.5967742 6.62903226,28.5967742 C6.53225806,28.5483871 6.48387097,28.4516129 6.48387097,28.4516129 C6.33870968,28.3548387 6.24193548,28.1129032 6.19354839,27.9677419 C5.9516129,27.4354839 5.51612903,27.0967742 5.08064516,26.7580645 C4.64516129,27.6290323 4.40322581,28.5 3.82258065,29.3225806 C3.77419355,29.4193548 3.67741935,29.4193548 3.58064516,29.4193548 C3.53225806,29.3709677 3.48387097,29.516129 3.48387097,29.516129 C3.43548387,29.4193548 3.38709677,29.4193548 3.33870968,29.4193548 C3.19354839,29.3225806 2.9516129,29.1290323 2.90322581,28.9354839 C2.80645161,28.7419355 2.75806452,28.5483871 2.75806452,28.3548387 C2.75806452,28.3064516 2.66129032,28.2096774 2.66129032,28.2096774 C2.75806452,28.0645161 2.75806452,27.8709677 2.80645161,27.8225806 C2.90322581,27.6774194 3.0483871,27.5806452 3.0483871,27.4354839 C3.19354839,27 3.48387097,26.7096774 3.58064516,26.2741935 C2.80645161,26.1290323 1.98387097,26.1774194 1.20967742,25.8870968 C1.06451613,25.7903226 0.822580645,25.7419355 0.677419355,25.6451613 C0.483870968,25.3548387 0.483870968,25.3064516 0.435483871,25.2580645" id="Path"></path>
                        <path d="M8.56451613,13.5 C8.80645161,12.8709677 9.19354839,12.5322581 9.24193548,11.8064516 C7.93548387,11.0806452 6.38709677,11.516129 5.37096774,9.77419355 C5.12903226,9.38709677 5.37096774,7.69354839 5.51612903,7.5 C5.80645161,6.87096774 6.38709677,6.87096774 6.91935484,7.30645161 C6.96774194,7.25806452 7.35483871,7.40322581 7.4516129,7.4516129 C7.98387097,7.35483871 8.56451613,7.5483871 9.14516129,7.69354839 C9.87096774,7.79032258 10.5,8.08064516 11.2258065,7.98387097 C11.2741935,7.93548387 11.3225806,7.79032258 11.3225806,7.5483871 C11.1774194,6.53225806 10.8870968,5.61290323 10.6451613,4.5483871 C10.5,4.30645161 10.5483871,3.96774194 10.5,3.72580645 C10.4516129,3.09677419 10.0645161,2.17741935 10.4032258,1.88709677 C10.4516129,1.83870968 10.5,2.03225806 10.5483871,1.98387097 C10.6935484,1.88709677 10.6935484,1.74193548 10.8387097,1.79032258 C12.0967742,2.66129032 13.1612903,3.96774194 14.3225806,5.22580645 C14.7096774,5.61290323 14.7580645,4.59677419 15.0483871,4.25806452 C15.1451613,4.11290323 15.0483871,3.72580645 15.1451613,3.58064516 C15.4354839,3.0483871 15.483871,2.37096774 15.7258065,1.88709677 C16.1612903,1.25806452 16.4516129,0.338709677 17.0806452,0.0967741935 C17.516129,-0.0483870968 18.0483871,0.14516129 18.4354839,0.580645161 C18.5322581,0.629032258 18.7258065,0.580645161 18.8709677,0.725806452 C19.3064516,1.11290323 19.6935484,1.64516129 20.1774194,2.17741935 C20.3225806,2.37096774 20.4193548,2.75806452 20.3225806,2.90322581 C20.1774194,3.58064516 19.5967742,3.62903226 19.2096774,4.16129032 C18.483871,5.32258065 17.7580645,6.43548387 17.0806452,7.59677419 C16.983871,7.74193548 16.7903226,8.12903226 16.983871,8.32258065 C17.9516129,9.29032258 18.8225806,10.3548387 19.9354839,11.1290323 C20.6129032,11.5645161 21.3870968,11.5645161 21.9677419,12.1451613 C22.4032258,12.6774194 22.7419355,13.2580645 22.9354839,13.9354839 C20.4193548,15.5322581 17.6129032,12.9193548 14.9516129,12.9677419 C14.7580645,13.016129 14.8064516,13.3064516 14.8064516,13.4032258 C14.9516129,14.5645161 15.1451613,15.6774194 15.2419355,16.7903226 C15.2903226,17.5645161 15.6774194,18.3387097 15.8225806,19.1129032 C15.8709677,19.4032258 16.1129032,20.1290323 15.7258065,20.0806452 C15.3387097,20.0806452 14.7580645,19.983871 14.4677419,19.3064516 C14.0806452,18.4354839 13.7419355,17.5645161 13.4516129,16.5967742 C13.4032258,16.3064516 13.3064516,16.0645161 13.4032258,15.8225806 C13.4516129,15.3870968 13.1612903,14.9516129 13.016129,14.6129032 C12.9193548,14.4677419 12.7741935,14.7096774 12.6290323,14.8064516 C12.2419355,15.2903226 11.9032258,15.7258065 11.5645161,16.3064516 C10.9354839,17.1774194 10.2580645,17.7096774 9.43548387,18.0967742 C8.80645161,18.3387097 7.93548387,18.483871 7.5,17.516129 C7.69354839,17.4677419 7.88709677,17.0322581 7.74193548,16.8870968 C6.82258065,15.3870968 8.12903226,14.516129 8.56451613,13.5" id="Path"></path>
                    </g>
                </g>
            </g>
        </g>
    </g>
</svg>