<?xml version="1.0" encoding="UTF-8"?>
<svg width="23px" height="23px" viewBox="0 0 23 23" version="1.1" xmlns="http://www.w3.org/2000/svg" xmlns:xlink="http://www.w3.org/1999/xlink">
    <title>trello</title>
    <g id="Desktop" stroke="none" stroke-width="1" fill="none" fill-rule="evenodd">
        <g id="Home_1440" transform="translate(-1227.000000, -13235.000000)">
            <g id="Footer" transform="translate(0.000000, 13174.000000)">
                <g id="Group-6" transform="translate(1036.000000, 47.000000)">
                    <g id="Bottom/Icon-Copy-31" transform="translate(177.000000, 0.000000)">
                        <g id="trello" transform="translate(14.375000, 14.375000)">
                            <path d="M0.208333333,3.33333333 C0.208333333,1.60744792 1.60729167,0.208333333 3.33333333,0.208333333 L17.9166667,0.208333333 C19.6427083,0.208333333 21.0416667,1.60744792 21.0416667,3.33333333 L21.0416667,17.9166667 C21.0416667,19.6426042 19.6427083,21.0416667 17.9166667,21.0416667 L3.33333333,21.0416667 C1.60729167,21.0416667 0.208333333,19.6426042 0.208333333,17.9166667 L0.208333333,3.33333333 Z" id="Path" fill="#A7B4CB" opacity="0.6"></path>
                            <path d="M7.5,3.33333333 C8.65104167,3.33333333 9.58333333,4.26607292 9.58333333,5.41666667 L9.58333333,5.41666667 L9.58333333,15.8333333 C9.58333333,16.9839583 8.65104167,17.9166667 7.5,17.9166667 L7.5,17.9166667 L5.41666667,17.9166667 C4.265625,17.9166667 3.33333333,16.9839583 3.33333333,15.8333333 L3.33333333,15.8333333 L3.33333333,5.41666667 C3.33333333,4.26607292 4.265625,3.33333333 5.41666667,3.33333333 L5.41666667,3.33333333 Z M15.8333333,3.33333333 C16.984375,3.33333333 17.9166667,4.26607292 17.9166667,5.41666667 L17.9166667,5.41666667 L17.9166667,8.54166667 C17.9166667,9.69226042 16.984375,10.625 15.8333333,10.625 L15.8333333,10.625 L13.75,10.625 C12.5989583,10.625 11.6666667,9.69226042 11.6666667,8.54166667 L11.6666667,8.54166667 L11.6666667,5.41666667 C11.6666667,4.26607292 12.5989583,3.33333333 13.75,3.33333333 L13.75,3.33333333 Z" id="Combined-Shape" fill="#16161F"></path>
                        </g>
                    </g>
                </g>
            </g>
        </g>
    </g>
</svg>