<?xml version="1.0" encoding="UTF-8"?>
<svg width="22px" height="18px" viewBox="0 0 22 18" version="1.1" xmlns="http://www.w3.org/2000/svg" xmlns:xlink="http://www.w3.org/1999/xlink">
    <title>Fill 62</title>
    <g id="Desktop" stroke="none" stroke-width="1" fill="none" fill-rule="evenodd">
        <g id="Home_1440" transform="translate(-141.000000, -11430.000000)" fill="#1269FF">
            <g id="Roadmap" transform="translate(-25.000000, 10810.000000)">
                <g transform="translate(0.000000, 248.000000)" id="Group-64">
                    <g transform="translate(124.000000, 296.853000)">
                        <path d="M61.4769,80.8617 C61.4769,82.8277 61.0019,84.7277 60.0449,86.5567 C59.0629,88.4967 57.6829,90.0387 55.9059,91.1837 C53.9659,92.4727 51.7409,93.1107 49.2279,93.1107 C46.8199,93.1107 44.6259,92.4727 42.6279,91.1837 C42.9269,91.2167 43.2729,91.2297 43.6569,91.2297 C45.6479,91.2297 47.4379,90.6177 49.0199,89.3877 C48.0629,89.3877 47.2229,89.1077 46.4999,88.5417 C45.7789,87.9817 45.2769,87.2787 45.0029,86.4327 C45.2769,86.4597 45.5379,86.4717 45.7849,86.4717 C46.1679,86.4717 46.5529,86.4327 46.9299,86.3477 C45.9479,86.1327 45.1269,85.6257 44.4699,84.8317 C43.8189,84.0447 43.4879,83.1457 43.4879,82.1307 L43.4879,82.0517 C44.0919,82.4037 44.7309,82.5927 45.4139,82.6257 C44.8409,82.2157 44.3789,81.6947 44.0209,81.0627 C43.6689,80.4377 43.4879,79.7487 43.4879,78.9937 C43.4879,78.2447 43.6959,77.5287 44.1059,76.8447 C45.1729,78.1797 46.4749,79.2477 48.0169,80.0417 C49.5599,80.8357 51.2059,81.2647 52.9569,81.3557 C52.8989,81.0237 52.8729,80.6987 52.8729,80.3667 C52.8729,79.6047 53.0679,78.8887 53.4459,78.2187 C53.8299,77.5487 54.3499,77.0207 55.0009,76.6437 C55.6589,76.2597 56.3679,76.0707 57.1359,76.0707 C57.7669,76.0707 58.3469,76.1877 58.8799,76.4357 C59.4079,76.6827 59.8759,77.0077 60.2869,77.4187 C61.2759,77.2227 62.1869,76.8837 63.0389,76.3967 C62.7069,77.4057 62.0819,78.1997 61.1519,78.7717 C61.9719,78.6617 62.7919,78.4267 63.6119,78.0757 C63.0069,78.9477 62.2849,79.6967 61.4379,80.3277 C61.4639,80.4377 61.4769,80.6137 61.4769,80.8617" id="Fill-62"></path>
                    </g>
                </g>
            </g>
        </g>
    </g>
</svg>