<?xml version="1.0" encoding="UTF-8"?>
<svg width="23px" height="20px" viewBox="0 0 23 20" version="1.1" xmlns="http://www.w3.org/2000/svg" xmlns:xlink="http://www.w3.org/1999/xlink">
    <title>twitter</title>
    <g id="Desktop" stroke="none" stroke-width="1" fill="none" fill-rule="evenodd">
        <g id="Home_1440" transform="translate(-1108.000000, -13236.000000)">
            <g id="Footer" transform="translate(0.000000, 13174.000000)">
                <g id="Group-6" transform="translate(1036.000000, 47.000000)">
                    <g id="Bottom/Icon-Copy-10" transform="translate(59.000000, 0.000000)">
                        <g id="twitter" transform="translate(13.375000, 15.375000)">
                            <path d="M19.9582292,4.9375 C20.4790625,12.75 14.7498958,19 7.45828125,19 C4.945875,19 2.43346875,18.6633333 0.462379167,17.719375 C0.0109479167,17.5032292 0.187398854,16.9010417 0.686829167,16.8679167 C3.114,16.7069792 5.12255208,16.1273958 6.41661458,14.8333333 C9.54171875,11.7083333 10.0625,10.6666667 10.8589583,6.52495833 C10.6805208,6.02920833 10.5832812,5.49470833 10.5832812,4.9375 C10.5832812,2.34866667 12.6819792,0.25 15.2707292,0.25 C16.8521875,0.25 18.2507292,1.03314583 19.0996875,2.23277083 L20.8884375,1.97723958 C21.3340625,1.91357292 21.6452083,2.40715625 21.3954167,2.78173958 L19.9582292,4.9375 Z" id="Path" fill="#A7B4CB" opacity="0.6"></path>
                            <path d="M6.41664583,14.8333333 C0.7745625,12.9526042 -0.198665625,5.97865625 0.814858333,2.34083333 C0.933865625,1.9136875 1.48920833,1.91145833 1.71305208,2.29422917 C3.44376042,5.25386458 6.7345625,6.90629167 10.8589583,6.52496875 C17.3541667,6.52496875 15.7916667,17.9583333 6.41664583,14.8333333 Z" id="Path" fill="#16161F"></path>
                        </g>
                    </g>
                </g>
            </g>
        </g>
    </g>
</svg>