<?xml version="1.0" encoding="UTF-8"?>
<svg width="167px" height="25px" viewBox="0 0 167 25" version="1.1" xmlns="http://www.w3.org/2000/svg" xmlns:xlink="http://www.w3.org/1999/xlink">
    <title>Group 19</title>
    <g id="Desktop" stroke="none" stroke-width="1" fill="none" fill-rule="evenodd">
        <g id="Credit-card-fraud_1440" transform="translate(-190.000000, -1325.000000)" fill="#000000" fill-rule="nonzero">
            <g id="Apollo_Stratus_Socnet" transform="translate(189.000000, 1246.000000)">
                <g id="Group-19" transform="translate(1.000000, 79.000000)">
                    <g id="Group" transform="translate(74.950162, 3.591427)">
                        <polygon id="Path" points="6.46110279 2.9848153 0.190032435 2.9848153 0.190032435 0.142134062 15.725184 0.142134062 15.725184 2.9848153 9.45411364 2.9848153 9.45411364 20.0409027 6.46110279 20.0409027"></polygon>
                        <polygon id="Path" points="15.1550867 5.82749653 18.1480975 5.82749653 20.8560597 16.3454171 21.4261571 16.3454171 24.2291355 5.82749653 28.0297842 5.82749653 30.8327626 16.3454171 31.4028599 16.3454171 34.1108221 5.82749653 37.1038329 5.82749653 33.2556761 20.0409027 29.1224707 20.0409027 26.4145085 9.80725026 25.8444112 9.80725026 23.136449 20.0409027 19.0032435 20.0409027"></polygon>
                        <path d="M39.3842222,0.142134062 L42.5197573,0.142134062 L42.5197573,3.12694936 L39.3842222,3.12694936 L39.3842222,0.142134062 Z M39.5267465,5.82749653 L42.377233,5.82749653 L42.377233,20.0409027 L39.5267465,20.0409027 L39.5267465,5.82749653 Z" id="Shape"></path>
                        <path d="M47.5081088,8.5280437 L45.2277195,8.5280437 L45.2277195,5.82749653 L47.5081088,5.82749653 L47.5081088,1.8477428 L50.3585953,1.8477428 L50.3585953,5.82749653 L53.6366548,5.82749653 L53.6366548,8.5280437 L50.3585953,8.5280437 L50.3585953,16.6296852 C50.3585953,17.1982215 50.6436439,17.4824896 51.2137413,17.4824896 L53.6366548,17.4824896 L53.6366548,20.0409027 L50.6436439,20.0409027 C48.6007953,20.0409027 47.5081088,18.9038302 47.5081088,17.0560874 L47.5081088,8.5280437 Z" id="Path"></path>
                        <path d="M58.1974332,8.5280437 L55.917044,8.5280437 L55.917044,5.82749653 L58.1974332,5.82749653 L58.1974332,1.8477428 L61.0479198,1.8477428 L61.0479198,5.82749653 L64.3259793,5.82749653 L64.3259793,8.5280437 L61.0479198,8.5280437 L61.0479198,16.6296852 C61.0479198,17.1982215 61.3329684,17.4824896 61.9030657,17.4824896 L64.3259793,17.4824896 L64.3259793,20.0409027 L61.3329684,20.0409027 C59.2901197,20.0409027 58.1974332,18.9038302 58.1974332,17.0560874 L58.1974332,8.5280437 Z" id="Path"></path>
                        <path d="M80.0036552,15.9190149 C79.3385416,17.7667577 77.295693,20.3251708 73.5900605,20.3251708 C69.456855,20.3251708 66.4638442,17.3403555 66.4638442,12.9341996 C66.4638442,8.5280437 69.456855,5.54322841 73.5900605,5.54322841 C77.4382173,5.54322841 80.4312281,8.5280437 80.4312281,12.5077974 C80.4312281,12.9341996 80.38372,13.2658458 80.3362119,13.5501139 L80.2887038,13.929138 L69.3143307,13.929138 C69.6468875,16.3454171 71.3096713,17.9088918 73.5900605,17.9088918 C75.3003524,17.9088918 76.5355632,16.9139533 77.0106443,15.9190149 L80.0036552,15.9190149 L80.0036552,15.9190149 Z M77.7232659,11.7971271 C77.3907092,9.52298213 75.8704497,7.95950745 73.5900605,7.95950745 C71.1671469,7.95950745 69.7419037,9.52298213 69.3143307,11.7971271 L77.7232659,11.7971271 Z" id="Shape"></path>
                        <path d="M83.7092876,5.82749653 L86.1322012,5.82749653 L86.4172498,7.10670308 L86.5597742,7.10670308 C87.0348553,6.58554486 87.5099364,5.82749653 89.2677364,5.82749653 L91.8331742,5.82749653 L91.8331742,8.38590964 L89.552785,8.38590964 C87.5574445,8.38590964 86.5597742,9.38084807 86.5597742,11.3233469 L86.5597742,20.0409027 L83.7092876,20.0409027 L83.7092876,5.82749653 L83.7092876,5.82749653 Z" id="Path"></path>
                    </g>
                    <path d="M27.9,7.0537428 C27.9,9.9328215 27.1734375,12.7159309 25.76875,15.403071 C24.315625,18.2341651 22.28125,20.4894434 19.665625,22.168906 C16.8078125,24.0403071 13.5140625,25 9.784375,25 C6.2,25 2.9546875,24.0882917 0,22.168906 C0.4359375,22.2168906 0.96875,22.2168906 1.5015625,22.2168906 C4.45625,22.2168906 7.1203125,21.3051823 9.4453125,19.5297505 C8.040625,19.5297505 6.78125,19.0978887 5.715625,18.2821497 C4.65,17.4664107 3.9234375,16.4107486 3.4875,15.2111324 C3.875,15.2591171 4.2625,15.2591171 4.65,15.2591171 C5.23125,15.2591171 5.7640625,15.2111324 6.3453125,15.0671785 C4.8921875,14.731286 3.68125,14.0115163 2.7125,12.8598848 C1.74375,11.7082534 1.259375,10.3646833 1.259375,8.87715931 L1.259375,8.78119002 C2.13125,9.30902111 3.1,9.59692898 4.1171875,9.59692898 C3.29375,8.9731286 2.5671875,8.25335893 2.034375,7.29366603 C1.5015625,6.38195777 1.259375,5.37428023 1.259375,4.2706334 C1.259375,3.16698656 1.55,2.11132438 2.1796875,1.10364683 C3.778125,3.07101727 5.6671875,4.60652591 7.9921875,5.80614203 C10.26875,6.95777351 12.690625,7.5815739 15.30625,7.72552783 C15.209375,7.24568138 15.1609375,6.76583493 15.1609375,6.28598848 C15.1609375,5.18234165 15.4515625,4.12667946 15.984375,3.11900192 C16.565625,2.15930902 17.340625,1.34357006 18.309375,0.815738964 C19.278125,0.239923225 20.34375,0 21.4578125,0 C22.378125,0 23.25,0.19193858 24.025,0.527831094 C24.8,0.911708253 25.478125,1.3915547 26.1078125,1.96737044 C27.5609375,1.67946257 28.9171875,1.19961612 30.1765625,0.479846449 C29.6921875,1.96737044 28.771875,3.11900192 27.3671875,3.98272553 C28.578125,3.83877159 29.7890625,3.45489443 31,2.97504798 C30.0796875,4.2706334 29.0140625,5.37428023 27.803125,6.28598848 C27.9,6.42994242 27.9,6.71785029 27.9,7.0537428" id="Path"></path>
                </g>
            </g>
        </g>
    </g>
</svg>