<?xml version="1.0" encoding="UTF-8"?>
<svg width="184px" height="23px" viewBox="0 0 184 23" version="1.1" xmlns="http://www.w3.org/2000/svg" xmlns:xlink="http://www.w3.org/1999/xlink">
    <title>Group 18</title>
    <g id="Desktop" stroke="none" stroke-width="1" fill="none" fill-rule="evenodd">
        <g id="Credit-card-fraud_1440" transform="translate(-190.000000, -1389.000000)" fill="#000000" fill-rule="nonzero">
            <g id="Apollo_Stratus_Socnet" transform="translate(189.000000, 1246.000000)">
                <g id="Group-18" transform="translate(1.000000, 143.000000)">
                    <g id="Group" transform="translate(74.000000, 1.182853)">
                        <polygon id="Path" points="7.69631362 12.9341996 0.427572979 0.142134062 3.75314059 0.142134062 8.97903256 9.38084807 9.54912986 9.38084807 14.6324975 0.142134062 17.9580651 0.142134062 10.6893245 12.9341996 10.6893245 20.0409027 7.69631362 20.0409027 7.69631362 12.9341996"></polygon>
                        <path d="M17.5304921,12.9341996 C17.5304921,8.5280437 20.523503,5.54322841 24.6567085,5.54322841 C28.7899139,5.54322841 31.7829248,8.5280437 31.7829248,12.9341996 C31.7829248,17.3403555 28.7899139,20.3251708 24.6567085,20.3251708 C20.523503,20.3251708 17.5304921,17.3403555 17.5304921,12.9341996 Z M28.9324382,12.9341996 C28.9324382,9.99676234 27.079622,8.10164152 24.6567085,8.10164152 C22.2337949,8.10164152 20.3809787,9.99676234 20.3809787,12.9341996 C20.3809787,15.8716369 22.2337949,17.7667577 24.6567085,17.7667577 C27.079622,17.7667577 28.9324382,15.9190149 28.9324382,12.9341996 Z" id="Shape"></path>
                        <path d="M35.0609843,5.82749653 L37.9114708,5.82749653 L37.9114708,14.3555402 C37.9114708,16.203283 39.3842222,17.7667577 41.3320546,17.7667577 C43.4699195,17.7667577 45.0376871,16.203283 45.0376871,14.3555402 L45.0376871,5.82749653 L47.8881736,5.82749653 L47.8881736,20.0409027 L45.3227358,20.0409027 L45.0376871,18.6195621 L44.8951628,18.6195621 C44.562606,18.9512082 44.2300493,19.2354763 43.8499844,19.4723665 C43.1848709,19.8987686 42.0921844,20.3251708 40.7619573,20.3251708 C37.3413735,20.3251708 35.0609843,18.0984039 35.0609843,14.3555402 L35.0609843,5.82749653 Z" id="Path"></path>
                        <path d="M53.0190494,8.5280437 L50.7386602,8.5280437 L50.7386602,5.82749653 L53.0190494,5.82749653 L53.0190494,1.8477428 L55.8695359,1.8477428 L55.8695359,5.82749653 L59.1475954,5.82749653 L59.1475954,8.5280437 L55.8695359,8.5280437 L55.8695359,16.6296852 C55.8695359,17.1982215 56.1545846,17.4824896 56.7246819,17.4824896 L59.1475954,17.4824896 L59.1475954,20.0409027 L56.1545846,20.0409027 C54.1117359,20.0409027 53.0190494,18.9038302 53.0190494,17.0560874 L53.0190494,8.5280437 Z" id="Path"></path>
                        <path d="M61.9980819,5.82749653 L64.8485685,5.82749653 L64.8485685,14.3555402 C64.8485685,16.203283 66.3213198,17.7667577 68.2691523,17.7667577 C70.4070172,17.7667577 71.9747848,16.203283 71.9747848,14.3555402 L71.9747848,5.82749653 L74.8252713,5.82749653 L74.8252713,20.0409027 L72.2598334,20.0409027 L71.9747848,18.6195621 L71.8322605,18.6195621 C71.4997037,18.9512082 71.1671469,19.2354763 70.7870821,19.4723665 C70.1219685,19.8987686 69.029282,20.3251708 67.699055,20.3251708 C64.2784712,20.3251708 61.9980819,18.0984039 61.9980819,14.3555402 L61.9980819,5.82749653 Z" id="Path"></path>
                        <path d="M78.9584768,0.142134062 L81.8089633,0.142134062 L81.8089633,7.53310527 L81.9514876,7.53310527 C82.4265687,7.01194704 83.6142714,5.54322841 86.3697417,5.54322841 C90.1228823,5.54322841 92.9258608,8.38590964 92.9258608,12.9341996 C92.9258608,17.4824896 90.1228823,20.3251708 86.3697417,20.3251708 C83.6142714,20.3251708 82.3790606,18.9038302 81.9514876,18.335294 L81.8089633,18.335294 L81.5239146,20.0409027 L78.9584768,20.0409027 L78.9584768,0.142134062 Z M90.0753742,12.9341996 C90.0753742,9.99676234 88.222558,8.10164152 85.9421688,8.10164152 C83.6617795,8.10164152 81.8089633,9.99676234 81.8089633,12.9341996 C81.8089633,15.8716369 83.6617795,17.7667577 85.9421688,17.7667577 C88.222558,17.7667577 90.0753742,15.9190149 90.0753742,12.9341996 Z" id="Shape"></path>
                        <path d="M109.03111,15.9190149 C108.365996,17.7667577 106.323147,20.3251708 102.617515,20.3251708 C98.4843095,20.3251708 95.4912986,17.3403555 95.4912986,12.9341996 C95.4912986,8.5280437 98.4843095,5.54322841 102.617515,5.54322841 C106.465672,5.54322841 109.458683,8.5280437 109.458683,12.5077974 C109.458683,12.9341996 109.411174,13.2658458 109.363666,13.5501139 L109.316158,13.929138 L98.3417852,13.929138 C98.6743419,16.3454171 100.337126,17.9088918 102.617515,17.9088918 C104.327807,17.9088918 105.563018,16.9139533 106.038099,15.9190149 L109.03111,15.9190149 L109.03111,15.9190149 Z M106.75072,11.7971271 C106.418164,9.52298213 104.897904,7.95950745 102.617515,7.95950745 C100.194601,7.95950745 98.7693581,9.52298213 98.3417852,11.7971271 L106.75072,11.7971271 Z" id="Shape"></path>
                    </g>
                    <path d="M29.3809524,3.27088036 C29.6190476,4.26636569 29.8095238,5.73589165 29.952381,7.7268623 L30,10.476298 L29.952381,13.2257336 C29.8571429,15.2641084 29.6666667,16.7810384 29.3809524,17.7765237 C29.1904762,18.3927765 28.8571429,18.9616253 28.3809524,19.4356659 C27.9047619,19.9097065 27.3333333,20.241535 26.6666667,20.4311512 C25.7142857,20.6681716 23.4761905,20.8577878 19.952381,20.9525959 L14.952381,21 L9.95238095,20.9525959 C6.42857143,20.8577878 4.23809524,20.6681716 3.28571429,20.4311512 C2.61904762,20.241535 2.04761905,19.9097065 1.57142857,19.4356659 C1.0952381,18.9616253 0.761904762,18.4401806 0.571428571,17.7765237 C0.333333333,16.7810384 0.142857143,15.2641084 0.0476190476,13.2257336 L0,10.476298 C0,9.67042889 0,8.76975169 0.0476190476,7.7268623 C0.142857143,5.73589165 0.333333333,4.21896163 0.571428571,3.27088036 C0.761904762,2.60722348 1.0952381,2.03837472 1.57142857,1.56433409 C2.04761905,1.09029345 2.61904762,0.758465011 3.28571429,0.568848758 C4.23809524,0.331828442 6.47619048,0.14221219 9.95238095,0.0474040632 L14.952381,0 L19.952381,0.0474040632 C23.4761905,0.14221219 25.6666667,0.331828442 26.6666667,0.568848758 C27.3333333,0.758465011 27.9047619,1.09029345 28.3809524,1.56433409 C28.9047619,2.08577878 29.1904762,2.60722348 29.3809524,3.27088036 M11.952381,14.979684 L19.8095238,10.523702 L11.952381,6.11512415 L11.952381,14.979684 Z" id="Shape"></path>
                </g>
            </g>
        </g>
    </g>
</svg>