<?xml version="1.0" encoding="UTF-8"?>
<svg width="21px" height="15px" viewBox="0 0 21 15" version="1.1" xmlns="http://www.w3.org/2000/svg" xmlns:xlink="http://www.w3.org/1999/xlink">
    <title>Fill 15</title>
    <g id="Desktop" stroke="none" stroke-width="1" fill="none" fill-rule="evenodd">
        <g id="Home_1440" transform="translate(-392.000000, -11348.000000)" fill="#000000">
            <g id="Roadmap" transform="translate(-25.000000, 10810.000000)">
                <g transform="translate(0.000000, 248.000000)" id="Group-21">
                    <g transform="translate(417.000000, 289.853000)">
                        <path d="M8.7737,10.559 L13.9527,7.59 L8.7737,4.656 L8.7737,10.559 Z M20.2857,2.811 C20.4537,3.462 20.5767,4.454 20.6507,5.78 L20.6847,7.59 L20.6507,9.4 C20.5767,10.751 20.4537,11.753 20.2857,12.404 C20.1677,12.819 19.9507,13.178 19.6347,13.489 C19.3187,13.805 18.9497,14.022 18.5147,14.145 C17.8837,14.313 16.4147,14.431 14.0957,14.505 L10.8007,14.539 L7.5057,14.505 C5.1877,14.431 3.7177,14.313 3.0917,14.145 C2.6587,14.022 2.2837,13.805 1.9667,13.489 C1.6567,13.178 1.4397,12.819 1.3167,12.404 C1.1487,11.753 1.0307,10.751 0.9567,9.4 L0.9177,7.59 C0.9177,7.063 0.9317,6.455 0.9567,5.78 C1.0307,4.454 1.1487,3.462 1.3167,2.811 C1.4397,2.376 1.6567,2.002 1.9667,1.691 C2.2837,1.375 2.6587,1.159 3.0917,1.036 C3.7177,0.868 5.1877,0.749 7.5057,0.675 L10.8007,0.641 L14.0957,0.675 C16.4147,0.749 17.8837,0.868 18.5147,1.036 C18.9497,1.159 19.3187,1.375 19.6347,1.691 C19.9507,2.002 20.1677,2.376 20.2857,2.811 L20.2857,2.811 Z" id="Fill-15"></path>
                    </g>
                </g>
            </g>
        </g>
    </g>
</svg>