<?xml version="1.0" encoding="UTF-8"?>
<svg width="26px" height="20px" viewBox="0 0 26 20" version="1.1" xmlns="http://www.w3.org/2000/svg" xmlns:xlink="http://www.w3.org/1999/xlink">
    <title>Bottom/Icon Copy 8</title>
    <g id="Market-Hub" stroke="none" stroke-width="1" fill="none" fill-rule="evenodd">
        <g id="Home/MarketHub/Market" transform="translate(-1154.000000, -596.000000)">
            <g id="RightSideMenu" transform="translate(1113.000000, 139.000000)">
                <g id="Group" transform="translate(0.000000, 260.000000)">
                    <g transform="translate(30.000000, 183.000000)" id="Bottom/Icon-Copy-8">
                        <path d="M12.819426,-1.42475429e-15 L35.180574,5.17920154e-16 C39.6381677,-3.00926524e-16 41.2545989,0.464128056 42.8842285,1.33566352 C44.5138581,2.20719898 45.792801,3.48614185 46.6643365,5.11577148 C47.5358719,6.74540111 48,8.3618323 48,12.819426 L48,35.180574 C48,39.6381677 47.5358719,41.2545989 46.6643365,42.8842285 C45.792801,44.5138581 44.5138581,45.792801 42.8842285,46.6643365 C41.2545989,47.5358719 39.6381677,48 35.180574,48 L12.819426,48 C8.3618323,48 6.74540111,47.5358719 5.11577148,46.6643365 C3.48614185,45.792801 2.20719898,44.5138581 1.33566352,42.8842285 C0.464128056,41.2545989 7.27514433e-16,39.6381677 -1.25211424e-15,35.180574 L3.45280103e-16,12.819426 C-2.00617683e-16,8.3618323 0.464128056,6.74540111 1.33566352,5.11577148 C2.20719898,3.48614185 3.48614185,2.20719898 5.11577148,1.33566352 C6.74540111,0.464128056 8.3618323,8.27823274e-16 12.819426,-1.42475429e-15 Z" id="BG"></path>
                        <g id="Icon/Plus-Square" transform="translate(9.000000, 9.000000)" fill="#1269FF">
                            <path d="M12,6 C12,5.44772 11.55228,4.99991743 11,4.99991743 L9,4.99991743 C7.89543,4.99991743 4.0944306,8.37551099 3.25652631,9 C2.41862202,9.62448901 2.43552899,13.9738296 3.25652631,13.9738296 C3.80385786,13.9738296 4.38501575,13.9738296 5,13.9738296 C5,14.5510558 5,14.9718126 5,15.2361 L5,23 C5,24.1046 5.89543,25 7,25 L23,25 C24.1046,25 25,24.1046 25,23 L25,15.2361 C25,14.9626422 25,14.4996204 25,13.8470347 C25.722206,13.8470347 26.3189648,13.8470347 26.7902761,13.8470347 C27.2784523,13.8470347 27.5571588,10.0792034 27.0298508,9.43053257 C26.5025427,8.78186175 22.1046,4.99991743 21,4.99991743 L19,4.99991743 C18.4477,4.99991743 18,5.44772 18,6 C18,7.65685 16.6569,9 15,9 C13.3431,9 12,7.65685 12,6 Z" id="Path" opacity="0.3"></path>
                            <path d="M5,22 L25,22 L25,23 C25,24.1045695 24.1045695,25 23,25 L7,25 C5.8954305,25 5,24.1045695 5,23 L5,22 L5,22 Z" id="Rectangle"></path>
                        </g>
                    </g>
                </g>
            </g>
        </g>
    </g>
</svg>