<?xml version="1.0" encoding="UTF-8"?>
<svg width="26px" height="22px" viewBox="0 0 26 22" version="1.1" xmlns="http://www.w3.org/2000/svg" xmlns:xlink="http://www.w3.org/1999/xlink">
    <title>Bottom/Icon Copy 17</title>
    <defs>
        <radialGradient cx="55.9341948%" cy="-36.7017717%" fx="55.9341948%" fy="-36.7017717%" r="137.883829%" gradientTransform="translate(0.559342,-0.367018),scale(0.715410,1.000000),rotate(97.507772),scale(1.000000,2.196601),translate(-0.559342,0.367018)" id="radialGradient-1">
            <stop stop-color="#FFEB99" offset="0%"></stop>
            <stop stop-color="#FF9632" offset="100%"></stop>
        </radialGradient>
        <radialGradient cx="50%" cy="0%" fx="50%" fy="0%" r="116.026393%" gradientTransform="translate(0.500000,0.000000),scale(0.909091,1.000000),rotate(92.960887),scale(1.000000,3.127546),translate(-0.500000,-0.000000)" id="radialGradient-2">
            <stop stop-color="#5E5E5E" offset="0%"></stop>
            <stop stop-color="#161514" offset="100%"></stop>
            <stop stop-color="#161514" offset="100%"></stop>
        </radialGradient>
    </defs>
    <g id="Market-Hub" stroke="none" stroke-width="1" fill="none" fill-rule="evenodd">
        <g id="Home/MarketHub/Market" transform="translate(-1154.000000, -643.000000)">
            <g id="RightSideMenu" transform="translate(1113.000000, 139.000000)">
                <g id="Group" transform="translate(0.000000, 260.000000)">
                    <g transform="translate(30.000000, 231.000000)" id="Bottom/Icon-Copy-17">
                        <path d="M12.819426,-1.42475429e-15 L35.180574,5.17920154e-16 C39.6381677,-3.00926524e-16 41.2545989,0.464128056 42.8842285,1.33566352 C44.5138581,2.20719898 45.792801,3.48614185 46.6643365,5.11577148 C47.5358719,6.74540111 48,8.3618323 48,12.819426 L48,35.180574 C48,39.6381677 47.5358719,41.2545989 46.6643365,42.8842285 C45.792801,44.5138581 44.5138581,45.792801 42.8842285,46.6643365 C41.2545989,47.5358719 39.6381677,48 35.180574,48 L12.819426,48 C8.3618323,48 6.74540111,47.5358719 5.11577148,46.6643365 C3.48614185,45.792801 2.20719898,44.5138581 1.33566352,42.8842285 C0.464128056,41.2545989 7.27514433e-16,39.6381677 -1.25211424e-15,35.180574 L3.45280103e-16,12.819426 C-2.00617683e-16,8.3618323 0.464128056,6.74540111 1.33566352,5.11577148 C2.20719898,3.48614185 3.48614185,2.20719898 5.11577148,1.33566352 C6.74540111,0.464128056 8.3618323,8.27823274e-16 12.819426,-1.42475429e-15 Z" id="BG"></path>
                        <g id="Icon/Plus-Square" transform="translate(9.000000, 9.000000)">
                            <path d="M20.3430131,4 C21.5067325,4 22.5654679,4.67299817 23.0593899,5.72669837 L26,12 L24.5802457,12 C25.9539135,12 27.1040895,13.040895 27.2407746,14.4077455 L27.5601985,17.6019851 C27.7800161,19.8001606 26.1762401,21.7603312 23.9780646,21.9801488 C23.8458052,21.9933747 23.7129688,22 23.5800498,22 L6.41995025,22 C4.21081125,22 2.41995025,20.209139 2.41995025,18 C2.41995025,17.867081 2.42657555,17.7342445 2.43980149,17.6019851 L2.69681259,15.0318741 C2.86892873,13.3107127 4.31724992,12 6.04699578,12 L4,12 L6.94061014,5.72669837 C7.43453211,4.67299817 8.49326747,4 9.65698695,4 L20.3430131,4 Z M7,14 C5.8954305,14 5,14.8954305 5,16 C5,17.1045695 5.8954305,18 7,18 C8.1045695,18 9,17.1045695 9,16 C9,14.8954305 8.1045695,14 7,14 Z M23,14 C21.8954305,14 21,14.8954305 21,16 C21,17.1045695 21.8954305,18 23,18 C24.1045695,18 25,17.1045695 25,16 C25,14.8954305 24.1045695,14 23,14 Z M18.8377223,6 L11.1622777,6 C9.87098644,6 8.72456991,6.82629028 8.31622777,8.0513167 L8.31622777,8.0513167 L7,12 L23,12 L21.6837722,8.0513167 C21.2754301,6.82629028 20.1290136,6 18.8377223,6 L18.8377223,6 Z" id="Combined-Shape" fill="url(#radialGradient-1)"></path>
                            <path d="M7,21 C7.55228475,21 8,21.4477153 8,22 L8,25 C8,25.5522847 7.55228475,26 7,26 L5,26 C4.44771525,26 4,25.5522847 4,25 L4,22 C4,21.4477153 4.44771525,21 5,21 L7,21 Z M25,21 C25.5522847,21 26,21.4477153 26,22 L26,25 C26,25.5522847 25.5522847,26 25,26 L23,26 C22.4477153,26 22,25.5522847 22,25 L22,22 C22,21.4477153 22.4477153,21 23,21 L25,21 Z M18,6 L18,9 L12,9 L12,6 L18,6 Z" id="Combined-Shape" fill="url(#radialGradient-2)"></path>
                        </g>
                    </g>
                </g>
            </g>
        </g>
    </g>
</svg>