<?xml version="1.0" encoding="UTF-8"?>
<svg width="18px" height="22px" viewBox="0 0 18 22" version="1.1" xmlns="http://www.w3.org/2000/svg" xmlns:xlink="http://www.w3.org/1999/xlink">
    <title>Icon/Plus Square</title>
    <defs>
        <radialGradient cx="6.36450801%" cy="-15.3317337%" fx="6.36450801%" fy="-15.3317337%" r="122.341842%" gradientTransform="translate(0.063645,-0.153317),scale(1.000000,0.615385),rotate(48.902566),translate(-0.063645,0.153317)" id="radialGradient-1">
            <stop stop-color="#8ACDFF" offset="0%"></stop>
            <stop stop-color="#78C5FF" offset="46.2742752%"></stop>
            <stop stop-color="#7BB1FF" offset="100%"></stop>
        </radialGradient>
        <radialGradient cx="61.7758911%" cy="-28.0814902%" fx="61.7758911%" fy="-28.0814902%" r="259.956905%" gradientTransform="translate(0.617759,-0.280815),scale(1.000000,0.533333),rotate(93.077569),scale(1.000000,2.941459),translate(-0.617759,0.280815)" id="radialGradient-2">
            <stop stop-color="#69BFFF" offset="0%"></stop>
            <stop stop-color="#4545EA" offset="100%"></stop>
        </radialGradient>
        <radialGradient cx="61.388675%" cy="-25.1773106%" fx="61.388675%" fy="-25.1773106%" r="219.356135%" gradientTransform="translate(0.613887,-0.251773),scale(1.000000,0.571429),rotate(92.976058),scale(1.000000,2.596732),translate(-0.613887,0.251773)" id="radialGradient-3">
            <stop stop-color="#FFA793" offset="0%"></stop>
            <stop stop-color="#FF2929" offset="100%"></stop>
        </radialGradient>
    </defs>
    <g id="Market-Hub" stroke="none" stroke-width="1" fill="none" fill-rule="evenodd">
        <g id="Home/MarketHub/Market" transform="translate(-1158.000000, -739.000000)">
            <g id="RightSideMenu" transform="translate(1113.000000, 139.000000)">
                <g id="Group" transform="translate(0.000000, 260.000000)">
                    <g id="Bottom/Icon-Copy-24" transform="translate(30.000000, 327.000000)">
                        <g id="Group" transform="translate(15.000000, 13.000000)">
                            <path d="M10,11 C10,9.8954 10.8954,9 12,9 L16,9 C17.1046,9 18,9.8954 18,11 L18,20 C18,21.1046 17.1046,22 16,22 L12,22 C10.8954,22 10,21.1046 10,20 L10,11 Z" id="Path" fill="url(#radialGradient-1)"></path>
                            <path d="M2,7 C1.44772,7 1,7.44772 1,8 L1,12.2676 C0.4022,12.6134 0,13.2597 0,14 L0,20 C0,21.1046 0.89543,22 2,22 L6,22 C7.1046,22 8,21.1046 8,20 L8,14 C8,13.2597 7.5978,12.6134 7,12.2676 L7,8 C7,7.44772 6.55228,7 6,7 L2,7 Z" id="Path" fill="url(#radialGradient-2)"></path>
                            <path d="M2,3 C2,1.34315 3.34315,0 5,0 C5.55228,0 6,0.44772 6,1 L6,7 L2,7 L2,3 Z" id="Path" fill="url(#radialGradient-3)"></path>
                        </g>
                    </g>
                </g>
            </g>
        </g>
    </g>
</svg>