<?xml version="1.0" encoding="UTF-8"?>
<svg width="20px" height="20px" viewBox="0 0 20 20" version="1.1" xmlns="http://www.w3.org/2000/svg" xmlns:xlink="http://www.w3.org/1999/xlink">
    <title>Bottom/Icon Copy 25</title>
    <defs>
        <linearGradient x1="50%" y1="124.486268%" x2="50%" y2="0%" id="linearGradient-1">
            <stop stop-color="#6B00D6" offset="0%"></stop>
            <stop stop-color="#B9AEFF" offset="100%"></stop>
        </linearGradient>
        <linearGradient x1="50%" y1="124.486268%" x2="50%" y2="0%" id="linearGradient-2">
            <stop stop-color="#E4E4E4" offset="2.66062063%"></stop>
            <stop stop-color="#FFFFFF" offset="98.5112544%"></stop>
        </linearGradient>
    </defs>
    <g id="Market-Hub" stroke="none" stroke-width="1" fill="none" fill-rule="evenodd">
        <g id="Home/MarketHub/Market" transform="translate(-1157.000000, -788.000000)">
            <g id="RightSideMenu" transform="translate(1113.000000, 139.000000)">
                <g id="Group" transform="translate(0.000000, 260.000000)">
                    <g transform="translate(30.000000, 375.000000)" id="Bottom/Icon-Copy-25">
                        <path d="M12.819426,-1.42475429e-15 L35.180574,5.17920154e-16 C39.6381677,-3.00926524e-16 41.2545989,0.464128056 42.8842285,1.33566352 C44.5138581,2.20719898 45.792801,3.48614185 46.6643365,5.11577148 C47.5358719,6.74540111 48,8.3618323 48,12.819426 L48,35.180574 C48,39.6381677 47.5358719,41.2545989 46.6643365,42.8842285 C45.792801,44.5138581 44.5138581,45.792801 42.8842285,46.6643365 C41.2545989,47.5358719 39.6381677,48 35.180574,48 L12.819426,48 C8.3618323,48 6.74540111,47.5358719 5.11577148,46.6643365 C3.48614185,45.792801 2.20719898,44.5138581 1.33566352,42.8842285 C0.464128056,41.2545989 7.27514433e-16,39.6381677 -1.25211424e-15,35.180574 L3.45280103e-16,12.819426 C-2.00617683e-16,8.3618323 0.464128056,6.74540111 1.33566352,5.11577148 C2.20719898,3.48614185 3.48614185,2.20719898 5.11577148,1.33566352 C6.74540111,0.464128056 8.3618323,8.27823274e-16 12.819426,-1.42475429e-15 Z" id="BG"></path>
                        <g id="Group" transform="translate(9.000000, 9.000000)">
                            <g id="Monitor" transform="translate(5.000000, 5.000000)">
                                <g id="Group" fill="url(#linearGradient-1)">
                                    <path d="M14,18 C14.5523,18 15,18.4477 15,19 C15,19.5523 14.5523,20 14,20 L14,20 L6,20 C5.44772,20 5,19.5523 5,19 C5,18.4477 5.44772,18 6,18 L6,18 Z M17,0 C18.6569,0 20,1.34315 20,3 L20,3 L20,13 C20,14.6569 18.6569,16 17,16 L17,16 L3,16 C1.34315,16 0,14.6569 0,13 L0,13 L0,3 C0,1.34315 1.34315,0 3,0 L3,0 Z" id="Combined-Shape"></path>
                                </g>
                                <path d="M7,8 C7.55229,8 8,8.4477 8,9 C8,9.5523 7.55229,10 7,10 L7,10 L5,10 C4.44772,10 4,9.5523 4,9 C4,8.4477 4.44772,8 5,8 L5,8 Z M12,4 C12.5523,4 13,4.44772 13,5 C13,5.55228 12.5523,6 12,6 L12,6 L5,6 C4.44772,6 4,5.55228 4,5 C4,4.44772 4.44772,4 5,4 L5,4 Z" id="Combined-Shape" fill="url(#linearGradient-2)"></path>
                            </g>
                        </g>
                    </g>
                </g>
            </g>
        </g>
    </g>
</svg>