<?xml version="1.0" encoding="UTF-8"?>
<svg width="18px" height="24px" viewBox="0 0 18 24" version="1.1" xmlns="http://www.w3.org/2000/svg" xmlns:xlink="http://www.w3.org/1999/xlink">
    <title>Icon/Plus Square</title>
    <defs>
        <radialGradient cx="61.7758911%" cy="-28.0814902%" fx="61.7758911%" fy="-28.0814902%" r="182.837732%" gradientTransform="translate(0.617759,-0.280815),scale(1.000000,0.759410),rotate(94.377812),scale(1.000000,2.941459),translate(-0.617759,0.280815)" id="radialGradient-1">
            <stop stop-color="#69BFFF" offset="0%"></stop>
            <stop stop-color="#4545EA" offset="100%"></stop>
        </radialGradient>
    </defs>
    <g id="Market-Hub" stroke="none" stroke-width="1" fill="none" fill-rule="evenodd">
        <g id="Home/MarketHub/Market" transform="translate(-1158.000000, -834.000000)">
            <g id="RightSideMenu" transform="translate(1113.000000, 139.000000)">
                <g id="Group" transform="translate(0.000000, 260.000000)">
                    <g id="Bottom/Icon-Copy-26" transform="translate(30.000000, 423.000000)">
                        <g id="Group" transform="translate(15.000000, 12.000000)">
                            <path d="M1.1452,13.4145 L10.5015,0.459709 C11.1203,-0.397195 12.4723,0.16696 12.2985,1.2096 L11.0001,9.00001 L16.0444,9.00001 C16.8601,9.00001 17.3327,9.92417 16.855,10.5855 L7.4988,23.5403 C6.87992,24.3972 5.52795,23.8331 5.70172,22.7904 L7.0001,15 L1.95588,15 C1.14011,15 0.66757,14.0758 1.1452,13.4145 Z" id="Path" fill="#1269FF" opacity="0.3"></path>
                            <path d="M1.1452,13.4145 L10.5015,0.459694 C11.1203,-0.397211 12.4723,0.166944 12.2985,1.20958 L11.0001,9 L7.0001,15 L1.95588,15 C1.14011,15 0.66757,14.0758 1.1452,13.4145 Z" id="Path" fill="url(#radialGradient-1)"></path>
                        </g>
                    </g>
                </g>
            </g>
        </g>
    </g>
</svg>