<?xml version="1.0" encoding="UTF-8"?>
<svg width="20px" height="20px" viewBox="0 0 20 20" version="1.1" xmlns="http://www.w3.org/2000/svg" xmlns:xlink="http://www.w3.org/1999/xlink">
    <title>Bottom/Icon Copy 30</title>
    <defs>
        <radialGradient cx="61.388675%" cy="-25.1773106%" fx="61.388675%" fy="-25.1773106%" r="250.613524%" gradientTransform="translate(0.613887,-0.251773),scale(1.000000,0.500000),rotate(92.604599),scale(1.000000,2.596732),translate(-0.613887,0.251773)" id="radialGradient-1">
            <stop stop-color="#FFA793" offset="0%"></stop>
            <stop stop-color="#FF2929" offset="100%"></stop>
        </radialGradient>
    </defs>
    <g id="Market-Hub" stroke="none" stroke-width="1" fill="none" fill-rule="evenodd">
        <g id="Home/MarketHub/Market" transform="translate(-1157.000000, -1027.000000)">
            <g id="RightSideMenu" transform="translate(1113.000000, 139.000000)">
                <g id="Group" transform="translate(0.000000, 260.000000)">
                    <g transform="translate(30.000000, 614.000000)" id="Bottom/Icon-Copy-30">
                        <path d="M12.819426,-1.42475429e-15 L35.180574,5.17920154e-16 C39.6381677,-3.00926524e-16 41.2545989,0.464128056 42.8842285,1.33566352 C44.5138581,2.20719898 45.792801,3.48614185 46.6643365,5.11577148 C47.5358719,6.74540111 48,8.3618323 48,12.819426 L48,35.180574 C48,39.6381677 47.5358719,41.2545989 46.6643365,42.8842285 C45.792801,44.5138581 44.5138581,45.792801 42.8842285,46.6643365 C41.2545989,47.5358719 39.6381677,48 35.180574,48 L12.819426,48 C8.3618323,48 6.74540111,47.5358719 5.11577148,46.6643365 C3.48614185,45.792801 2.20719898,44.5138581 1.33566352,42.8842285 C0.464128056,41.2545989 7.27514433e-16,39.6381677 -1.25211424e-15,35.180574 L3.45280103e-16,12.819426 C-2.00617683e-16,8.3618323 0.464128056,6.74540111 1.33566352,5.11577148 C2.20719898,3.48614185 3.48614185,2.20719898 5.11577148,1.33566352 C6.74540111,0.464128056 8.3618323,8.27823274e-16 12.819426,-1.42475429e-15 Z" id="BG"></path>
                        <g id="Group" transform="translate(9.000000, 9.000000)">
                            <g id="Group" transform="translate(5.000000, 5.000000)">
                                <circle id="Oval" fill="#53D769" opacity="0.6" cx="10" cy="10" r="10"></circle>
                                <path d="M9,3 C9,2.44772 9.4477,2 10,2 C10.5523,2 11,2.44772 11,3 L11,4 C12.6569,4 14,5.34315 14,7 C14,7.55229 13.5523,8 13,8 C12.4477,8 12,7.55229 12,7 C12,6.44772 11.5523,6 11,6 L9,6 C8.4477,6 8,6.44771 8,7 L8,7.55848 C8,7.98891 8.2754,8.3711 8.6838,8.5072 L11.9487,9.5955 C13.1737,10.0038 14,11.1502 14,12.4415 L14,13 C14,14.6569 12.6569,16 11,16 L11,17 C11,17.5523 10.5523,18 10,18 C9.4477,18 9,17.5523 9,17 L9,16 C7.34315,16 6,14.6569 6,13 C6,12.4477 6.44771,12 7,12 C7.55229,12 8,12.4477 8,13 C8,13.5523 8.4477,14 9,14 L11,14 C11.5523,14 12,13.5523 12,13 L12,12.4415 C12,12.0111 11.7246,11.6289 11.3162,11.4928 L8.0513,10.4045 C6.82629,9.9962 6,8.8498 6,7.55848 L6,7 C6,5.34315 7.34315,4 9,4 L9,3 Z" id="Path" fill="url(#radialGradient-1)"></path>
                            </g>
                        </g>
                    </g>
                </g>
            </g>
        </g>
    </g>
</svg>