<?xml version="1.0" encoding="UTF-8"?>
<svg width="20px" height="20px" viewBox="0 0 20 20" version="1.1" xmlns="http://www.w3.org/2000/svg" xmlns:xlink="http://www.w3.org/1999/xlink">
    <title>Food/Hamburger</title>
    <defs>
        <radialGradient cx="61.7758911%" cy="-28.0814902%" fx="61.7758911%" fy="-28.0814902%" r="139.306595%" gradientTransform="translate(0.617759,-0.280815),scale(0.901525,1.000000),rotate(96.380410),scale(1.000000,2.941459),translate(-0.617759,0.280815)" id="radialGradient-1">
            <stop stop-color="#69BFFF" offset="0%"></stop>
            <stop stop-color="#4545EA" offset="100%"></stop>
        </radialGradient>
    </defs>
    <g id="Style-Guide/Icons" stroke="none" stroke-width="1" fill="none" fill-rule="evenodd">
        <g id="Icons" transform="translate(-332.000000, -933.000000)">
            <g id="Group" transform="translate(327.000000, 928.000000)">
                <path d="M21,16 C22.1045695,16 23,16.8954305 23,18 C23,19.1045695 22.1045695,20 21,20 L9,20 C7.8954305,20 7,19.1045695 7,18 C7,16.8954305 7.8954305,16 9,16 L21,16 Z M22,12 C22.2739149,11.9674197 22.5476433,12.0622519 22.7426957,12.2573043 C22.9098835,12.4244921 23.0034401,12.6494826 23.0062415,12.8828481 L23,13 L23.0062415,13.1171519 C23.0034401,13.3505174 22.9098835,13.5755079 22.7426957,13.7426957 C22.5755079,13.9098835 22.3505174,14.0034401 22.1171519,14.0062415 L22,14 L8,14 C7.72608506,14.0325803 7.45235669,13.9377481 7.25730429,13.7426957 C7.09011652,13.5755079 6.9965599,13.3505174 6.99375849,13.1171519 L7,13 L6.99375849,12.8828481 C6.9965599,12.6494826 7.09011652,12.4244921 7.25730429,12.2573043 C7.42449206,12.0901165 7.64948258,11.9965599 7.88284814,11.9937585 L8,12 L22,12 Z" id="Shape" fill="#79D0F1" opacity="0.6"></path>
                <path d="M24,20 C24.5128358,20 24.9355072,20.3860402 24.9932723,20.8833789 L25,21 C25,23.209139 23.209139,25 21,25 L9,25 C6.85780461,25 5.10892112,23.3160315 5.00489531,21.1996403 L5,21 C5,20.4477153 5.44771525,20 6,20 L24,20 Z M24,14 C24.2739149,13.9674197 24.5476433,14.0622519 24.7426957,14.2573043 C24.9377481,14.4523567 25.0325803,14.7260851 25,15 L25,15 L25.0062415,15.1171519 C25.0034401,15.3505174 24.9098835,15.5755079 24.7426957,15.7426957 C24.5476433,15.9377481 24.2739149,16.0325803 24,16 L24,16 L21,16 L17.6,18.5 C17.2583592,18.8055728 16.7416408,18.8055728 16.4,18.5 L16.4,18.5 L13,16 L6,16 C5.72608506,16.0325803 5.45235669,15.9377481 5.25730429,15.7426957 C5.06225189,15.5476433 4.96741967,15.2739149 5,15 L5,15 L4.99375849,14.8828481 C4.9965599,14.6494826 5.09011652,14.4244921 5.25730429,14.2573043 C5.45235669,14.0622519 5.72608506,13.9674197 6,14 L6,14 Z M19,5 C22.2383969,5 24.8775718,7.56557489 24.9958615,10.7750617 L25,11 C25,11.5522847 24.5522847,12 24,12 L6,12 C5.48716416,12 5.06449284,11.6139598 5.00672773,11.1166211 L5,11 C5,7.6862915 7.6862915,5 11,5 L19,5 Z" id="Combined-Shape" fill="url(#radialGradient-1)"></path>
            </g>
        </g>
    </g>
</svg>