<?xml version="1.0" encoding="UTF-8"?>
<svg width="22px" height="21px" viewBox="0 0 22 21" version="1.1" xmlns="http://www.w3.org/2000/svg" xmlns:xlink="http://www.w3.org/1999/xlink">
    <title>Home</title>
    <defs>
        <radialGradient cx="61.7758911%" cy="-28.0814902%" fx="61.7758911%" fy="-28.0814902%" r="139.306595%" gradientTransform="translate(0.617759,-0.280815),scale(0.901525,1.000000),rotate(96.380410),scale(1.000000,2.941459),translate(-0.617759,0.280815)" id="radialGradient-1">
            <stop stop-color="#69BFFF" offset="0%"></stop>
            <stop stop-color="#4545EA" offset="100%"></stop>
        </radialGradient>
    </defs>
    <g id="Market-Hub" stroke="none" stroke-width="1" fill="none" fill-rule="evenodd">
        <g id="Home/MarketHub/Market" transform="translate(-1156.000000, -979.000000)">
            <g id="RightSideMenu" transform="translate(1113.000000, 139.000000)">
                <g id="Group" transform="translate(0.000000, 260.000000)">
                    <g id="Bottom/Icon-Copy-29" transform="translate(30.000000, 566.000000)">
                        <g id="Icon/Plus-Square" transform="translate(9.000000, 9.000000)">
                            <g id="Home" transform="translate(4.000000, 5.000000)">
                                <path d="M19,16.8 L19,4.63995 L12.6514,0.81498 L12.6514,0.81497 C12.0511,0.4533 11.751,0.27247 11.4304,0.20183 C11.1469,0.13935 10.8531,0.13935 10.5696,0.20183 C10.249,0.27247 9.9489,0.45331 9.3486,0.81498 L3,4.63998 L3,16.8 C3,17.9201 3,18.4801 3.21799,18.908 C3.40973,19.2843 3.71569,19.5903 4.09202,19.782 C4.51984,20 5.0799,20 6.2,20 L15.8,20 C16.9201,20 17.4802,20 17.908,19.782 C18.2843,19.5903 18.5903,19.2843 18.782,18.908 C19,18.4801 19,17.9201 19,16.8 Z" id="Path" fill="#79D0F1" opacity="0.6"></path>
                                <path d="M11,11 C12.6569,11 14,12.3431 14,14 L14,20 L8,20 L8,14 C8,12.402275 9.24887742,11.096336 10.8237227,11.0050925 L11,11 Z M9.971,0.45118 C10.5556769,0.100392308 11.2748959,0.0734086391 11.8801929,0.370228994 L12.029,0.45118 L21.5145,6.14248 C21.9881,6.42663 22.1417,7.04089 21.8575,7.51447 C21.5936929,7.95422286 21.0451724,8.11803148 20.5889677,7.91169069 L20.4855,7.85746 L11,2.166165 L1.51452,7.85746 C1.04094,8.1416 0.42668,7.98805 0.14254,7.51447 C-0.121315429,7.07471714 -0.00775419388,6.51366367 0.388989698,6.20825042 L0.48553,6.14248 L9.971,0.45118 Z" id="Shape" fill="url(#radialGradient-1)"></path>
                            </g>
                        </g>
                    </g>
                </g>
            </g>
        </g>
    </g>
</svg>