<?xml version="1.0" encoding="UTF-8"?>
<svg width="40px" height="40px" viewBox="0 0 40 40" version="1.1" xmlns="http://www.w3.org/2000/svg" xmlns:xlink="http://www.w3.org/1999/xlink">
    <title>Icon/Bell Copy 4</title>
    <g id="Local-HUB-(FB)" stroke="none" stroke-width="1" fill="none" fill-rule="evenodd">
        <g id="Home/Local-Hub/Pop-up-New-Story" transform="translate(-325.000000, -385.000000)" fill="#1269FF">
            <g id="Group-28" transform="translate(250.000000, 254.000000)">
                <g id="Group-11" transform="translate(30.000000, 76.000000)">
                    <g id="Group" transform="translate(36.000000, 46.000000)">
                        <g id="Camera" transform="translate(9.666667, 9.666667)">
                            <path d="M0,12.261838 C0,9.60041133 1.81132067,7.280508 4.39328733,6.63500667 L7.73333333,5.8 L9.87817333,2.58274 C10.95388,0.96918 12.764814,0 14.7040633,0 L23.9625067,0 C25.9018333,0 27.7127867,0.96918 28.7884933,2.58274 L30.9333333,5.8 L34.27336,6.63500667 C36.8553267,7.280508 38.6666667,9.60041133 38.6666667,12.261838 L38.6666667,32.8666667 C38.6666667,36.0700067 36.0700067,38.6666667 32.8666667,38.6666667 L5.8,38.6666667 C2.59675667,38.6666667 0,36.0700067 0,32.8666667 L0,12.261838 Z" id="Path" opacity="0.3"></path>
                            <path d="M30.9333333,15.4666667 C32.0011133,15.4666667 32.8666667,14.6010747 32.8666667,13.5333333 C32.8666667,12.465592 32.0011133,11.6 30.9333333,11.6 C29.8655533,11.6 29,12.465592 29,13.5333333 C29,14.6010747 29.8655533,15.4666667 30.9333333,15.4666667 Z" id="Path"></path>
                            <path d="M27.0666667,21.2666667 C27.0666667,25.5375933 23.60426,29 19.3333333,29 C15.0623293,29 11.6,25.5375933 11.6,21.2666667 C11.6,16.99574 15.0623293,13.5333333 19.3333333,13.5333333 C23.60426,13.5333333 27.0666667,16.99574 27.0666667,21.2666667 Z M23.2,21.2666667 C23.2,23.4022267 21.4688933,25.1333333 19.3333333,25.1333333 C17.1977733,25.1333333 15.4666667,23.4022267 15.4666667,21.2666667 C15.4666667,19.1311067 17.1977733,17.4 19.3333333,17.4 C21.4688933,17.4 23.2,19.1311067 23.2,21.2666667 Z" id="Shape"></path>
                        </g>
                    </g>
                </g>
            </g>
        </g>
    </g>
</svg>