<?xml version="1.0" encoding="UTF-8"?>
<svg width="154px" height="48px" viewBox="0 0 154 48" version="1.1" xmlns="http://www.w3.org/2000/svg" xmlns:xlink="http://www.w3.org/1999/xlink">
    <title>Button/Fixed-Width-With-Icon</title>
    <g id="Wallet" stroke="none" stroke-width="1" fill="none" fill-rule="evenodd">
        <g id="Home/Wallet/search-popup-window-" transform="translate(-328.000000, -502.000000)">
            <g id="Group-2-Copy-2" transform="translate(251.000000, 306.000000)">
                <g id="Button/Responsive-With-Icon" transform="translate(77.000000, 196.000000)">
                    <path d="M15.3833112,0.75 L138.616689,0.75 C143.753403,0.75 145.626641,1.25832852 147.507375,2.26415612 C149.330296,3.23906492 150.760935,4.66970396 151.735844,6.49262492 C152.741671,8.37335903 153.25,10.2465967 153.25,15.3833112 L153.25,15.3833112 L153.25,32.6166888 C153.25,37.7534033 152.741671,39.626641 151.735844,41.5073751 C150.760935,43.330296 149.330296,44.7609351 147.507375,45.7358439 C145.626641,46.7416715 143.753403,47.25 138.616689,47.25 L138.616689,47.25 L15.3833112,47.25 C10.2465967,47.25 8.37335903,46.7416715 6.49262492,45.7358439 C4.66970396,44.7609351 3.23906492,43.330296 2.26415612,41.5073751 C1.25832852,39.626641 0.75,37.7534033 0.75,32.6166888 L0.75,32.6166888 L0.75,15.3833112 C0.75,10.2465967 1.25832852,8.37335903 2.26415612,6.49262492 C3.23906492,4.66970396 4.66970396,3.23906492 6.49262492,2.26415612 C8.37335903,1.25832852 10.2465967,0.75 15.3833112,0.75 L15.3833112,0.75 Z" id="Background-Color" stroke="#A7B4CB" stroke-width="1.5" opacity="0.2"></path>
                    <g id="Content" transform="translate(34.000000, 9.000000)">
                        <text id="Title" font-family="Helvetica" font-size="14" font-weight="normal" line-spacing="20" fill="#16161F">
                            <tspan x="39" y="18">Cancel</tspan>
                        </text>
                        <g id="Group">
                            <rect id="Rectangle" x="0" y="0" width="30" height="30"></rect>
                            <path d="M7,22.5551839 L7,8 L23,8 L23,22.5551839 C23,23.1995572 22.729168,23.7681136 22.1875,24.2608696 C21.645832,24.7536256 21.020836,25 20.3125,25 L9.6875,25 C8.9791632,25 8.3541692,24.7536256 7.8125,24.2608696 C7.2708308,23.7681136 7,23.1995572 7,22.5551839 Z" id="Path" fill="#A7B4CB" opacity="0.6"></path>
                            <polygon id="Path" fill="#16161F" points="25 6.3125 25 9 5 9 5 6.3125 9.96644295 6.3125 11.442953 5 18.557047 5 20.033557 6.3125"></polygon>
                        </g>
                    </g>
                </g>
            </g>
        </g>
    </g>
</svg>