<?xml version="1.0" encoding="UTF-8"?>
<svg width="30px" height="30px" viewBox="0 0 30 30" version="1.1" xmlns="http://www.w3.org/2000/svg" xmlns:xlink="http://www.w3.org/1999/xlink">
    <title>Icon/Heart Copy</title>
    <g id="Icon/Heart-Copy" stroke="none" stroke-width="1" fill="none" fill-rule="evenodd">
        <g id="Heart" transform="translate(4.000000, 6.000000)" fill="#FF4E4E">
            <path d="M11,1.80957 C9.8321,0.6888 8.24649,0 6.5,0 C2.91015,0 0,2.91015 0,6.5 C0,12.8683 6.97034,16.385 9.8138,17.5547 C10.5796,17.8697 11.4204,17.8697 12.1862,17.5547 C15.0297,16.385 22,12.8682 22,6.5 C22,2.91015 19.0899,0 15.5,0 C13.7535,0 12.1679,0.6888 11,1.80957 Z" id="Path" opacity="0.4"></path>
            <path d="M11,5.86061 L9.9229,4.9028 C9.2926,4.34226 8.44106,4 7.5,4 C5.567,4 4,5.45209 4,7.2433 C4,9.4009 5.6,11.0961 7.59852,12.3588 C8.56679,12.9706 9.546,13.4254 10.289,13.7279 C10.5668,13.841 10.8084,13.9316 11,14 C11.1916,13.9316 11.4332,13.841 11.711,13.7279 C12.454,13.4254 13.4332,12.9706 14.4015,12.3588 C16.4,11.0961 18,9.4009 18,7.2433 C18,5.45209 16.433,4 14.5,4 C13.5589,4 12.7074,4.34226 12.0771,4.9028 L11,5.86061 Z" id="Path"></path>
        </g>
    </g>
</svg>