<?xml version="1.0" encoding="UTF-8"?>
<svg width="273px" height="58px" viewBox="0 0 273 58" version="1.1" xmlns="http://www.w3.org/2000/svg" xmlns:xlink="http://www.w3.org/1999/xlink">
    <title>Logo/Smaller</title>
    <defs>
        <linearGradient x1="22.7825126%" y1="100%" x2="22.7825126%" y2="0%" id="linearGradient-1">
            <stop stop-color="#6CB2FF" offset="0%"></stop>
            <stop stop-color="#FFFFFF" offset="100%"></stop>
        </linearGradient>
        <linearGradient x1="89.1466981%" y1="0.767591783%" x2="27.5231758%" y2="71.5572667%" id="linearGradient-2">
            <stop stop-color="#00FFFF" offset="0%"></stop>
            <stop stop-color="#0089FF" offset="100%"></stop>
        </linearGradient>
        <polygon id="path-3" points="33.6314496 0 53.5823096 19.95086 0 19.95086 0 0"></polygon>
        <linearGradient x1="50%" y1="98.2077729%" x2="16.2611607%" y2="0%" id="linearGradient-5">
            <stop stop-color="#4643E6" offset="0%"></stop>
            <stop stop-color="#00D4FE" stop-opacity="0.731260927" offset="100%"></stop>
        </linearGradient>
        <linearGradient x1="0%" y1="100%" x2="93.4183984%" y2="100%" id="linearGradient-6">
            <stop stop-color="#0082FF" stop-opacity="0" offset="0%"></stop>
            <stop stop-color="#0082FF" offset="16.0099513%"></stop>
            <stop stop-color="#0082FF" stop-opacity="0.37" offset="29.2146215%"></stop>
            <stop stop-color="#0082FF" stop-opacity="0.365930944" offset="36.6459701%"></stop>
            <stop stop-color="#0082FF" stop-opacity="0.613226617" offset="62.4529103%"></stop>
            <stop stop-color="#0082FF" stop-opacity="0.685697115" offset="80.4468969%"></stop>
            <stop stop-color="#0082FF" stop-opacity="0" offset="100%"></stop>
        </linearGradient>
        <polygon id="path-7" points="0.0156620319 0.125119192 16.166066 0.125119192 16.166066 20.1208015 0.0156620319 20.1208015"></polygon>
    </defs>
    <g id="Selected" stroke="none" stroke-width="1" fill="none" fill-rule="evenodd">
        <g id="02-Home-LocalHub" transform="translate(-19.000000, -28.000000)">
            <g id="Logo/Smaller" transform="translate(18.000000, 27.000000)">
                <g id="Group-2">
                    <g id="Logo-Copy-2" transform="translate(0.000000, 0.000000)">
                        <g id="Group-16" transform="translate(0.760033, 0.190008)">
                            <path d="M59.4428312,19.811298 L59.4428312,19.8099918 L20.0371033,19.8099918 L20.0371033,19.811298 C20.0056164,19.8111114 19.9743181,19.8099918 19.9428312,19.8099918 L19.9428312,19.8099918 C9.06138251,19.8099918 0.23996724,28.5403937 0.23996724,39.3099918 L0.23996724,39.3099918 C0.23996724,50.0795899 9.06138251,58.8099918 19.9428312,58.8099918 L19.9428312,58.8099918 C19.9743181,58.8099918 20.0056164,58.8088722 20.0371033,58.8088722 L20.0371033,58.8088722 L20.0371033,58.8099918 L59.4428312,58.8099918 L59.4428312,58.8088722 C59.4743181,58.8088722 59.5056164,58.8099918 59.5371033,58.8099918 L59.5371033,58.8099918 C70.4187405,58.8099918 79.2399672,50.0795899 79.2399672,39.3099918 L79.2399672,39.3099918 C79.2399672,28.5403937 70.4187405,19.8099918 59.5371033,19.8099918 L59.5371033,19.8099918 C59.5056164,19.8099918 59.4743181,19.8111114 59.4428312,19.811298" id="Fill-1" fill="url(#linearGradient-1)"></path>
                            <g id="Group-6" transform="translate(19.411138, 0.000000)" fill="url(#linearGradient-2)">
                                <path d="M20.3288288,0.80999181 C9.55923074,0.80999181 0.828828829,9.54039372 0.828828829,20.3099918 L0.828828829,20.3099918 C0.828828829,31.0795899 9.55923074,39.8099918 20.3288288,39.8099918 L20.3288288,39.8099918 C31.0984269,39.8099918 39.8288288,31.0795899 39.8288288,20.3099918 L39.8288288,20.3099918 C39.8288288,9.54039372 31.0984269,0.80999181 20.3288288,0.80999181 Z" id="Fill-4"></path>
                            </g>
                            <g id="Group-9" transform="translate(26.491400, 19.950860)">
                                <mask id="mask-4" fill="white">
                                    <use xlink:href="#path-3"></use>
                                </mask>
                                <g id="Clip-8"></g>
                                <polygon id="Fill-7" mask="url(#mask-4)" points="53.5823096 19.95086 0 19.95086 0 0 33.6314496 0"></polygon>
                            </g>
                            <g id="Group-12" transform="translate(39.361998, 18.950860)" fill="url(#linearGradient-5)">
                                <path d="M20.3779689,39.8591319 C31.147567,39.8591319 39.8779689,31.1287299 39.8779689,20.3591319 C39.8779689,9.58953377 31.147567,0.859131859 20.3779689,0.859131859 C9.60837079,0.859131859 0.877968878,9.58953377 0.877968878,20.3591319 C0.877968878,31.1287299 9.60837079,39.8591319 20.3779689,39.8591319 Z" id="Fill-10"></path>
                            </g>
                            <g id="Group-15" transform="translate(0.239967, 19.809992)" fill="url(#linearGradient-6)">
                                <polygon id="Fill-13" style="mix-blend-mode: screen;" points="0 20 79 20 79 0 0 0"></polygon>
                            </g>
                        </g>
                    </g>
                    <g id="Group-16" transform="translate(91.000000, 26.000000)">
                        <path d="M4.03768147,19.0346001 C4.03768147,21.5339256 6.57579985,23.8412181 10.5746884,23.8412181 C14.9969186,23.8412181 16.7273076,22.1108292 16.7273076,19.8035367 C16.7273076,17.8424829 15.1892735,16.5352746 12.1130444,15.958371 L6.92187763,14.9969186 C2.65337033,14.2279821 0.576903619,11.5746118 0.576903619,7.88316905 C0.576903619,3.46093882 4.23003633,3.20245841e-14 10.1903006,3.20245841e-14 C16.9196624,3.20245841e-14 20.3804403,3.84564854 20.3804403,8.65226656 L16.3427588,8.65226656 C16.3427588,6.15261915 14.0354663,3.84564854 10.1903006,3.84564854 C6.53700694,3.84564854 4.61458509,5.72976039 4.61458509,7.88316905 C4.61458509,9.61355797 5.72976039,10.9593981 8.65226656,11.5361408 L12.881981,12.3050773 C18.3039736,13.2665297 20.764989,15.5355123 20.764989,19.8035367 C20.764989,24.2257669 17.3042112,27.6865447 10.5746884,27.6865447 C3.84564854,27.6865447 3.20245841e-14,23.8412181 3.20245841e-14,19.0346001 L4.03768147,19.0346001 Z" id="Fill-1" fill="#16161F"></path>
                        <path d="M25.9454515,11.7285439 L22.8692225,11.7285439 L22.8692225,8.07541123 L25.9454515,8.07541123 L25.9454515,2.69172863 L29.7907782,2.69172863 L29.7907782,8.07541123 L34.2128474,8.07541123 L34.2128474,11.7285439 L29.7907782,11.7285439 L29.7907782,22.6877811 C29.7907782,23.4567177 30.1751659,23.8412664 30.9442635,23.8412664 L34.2128474,23.8412664 L34.2128474,27.3020443 L30.1751659,27.3020443 C27.4450146,27.3020443 25.9454515,25.7640102 25.9454515,23.2645238 L25.9454515,11.7285439 Z" id="Fill-3" fill="#16161F"></path>
                        <path d="M37.465882,8.07536294 L40.7346269,8.07536294 L41.1190147,9.80575187 L41.3112086,9.80575187 C41.9650542,9.07512532 42.5802678,8.07536294 44.9643413,8.07536294 L48.4251192,8.07536294 L48.4251192,11.5361408 L45.3488901,11.5361408 C42.6570488,11.5361408 41.3112086,12.881981 41.3112086,15.5355123 L41.3112086,27.301996 L37.465882,27.301996 L37.465882,8.07536294 Z" id="Fill-5" fill="#16161F"></path>
                        <path d="M62.4489959,18.4576965 L57.8344108,18.4576965 C54.9122265,18.4576965 53.6046964,19.8035367 53.6046964,21.5339256 C53.6046964,23.2644755 54.7581817,24.4181218 57.0654742,24.4181218 C60.564884,24.4181218 62.4489959,22.495378 62.4489959,19.226955 L62.4489959,18.4576965 Z M62.6413507,25.1872193 L62.4489959,25.1872193 C62.0644471,25.68702 61.6029564,26.1100397 61.0646847,26.4559565 C60.1417033,27.0713311 58.6804502,27.6865447 56.6809255,27.6865447 C52.4512111,27.6865447 49.7593698,25.2255293 49.7593698,21.7264414 C49.7593698,17.8811148 52.2586953,15.3814674 57.6423779,15.3814674 L62.4489959,15.3814674 L62.4489959,14.9969186 C62.4489959,12.4975932 60.9106399,10.9593981 58.4113144,10.9593981 C55.7194731,10.9593981 54.5659878,12.4975932 54.3736329,13.6510785 L50.5283063,13.6510785 C50.7208222,10.4209655 53.6046964,7.69081418 58.4113144,7.69081418 C63.4487583,7.69081418 66.2943225,10.5363784 66.2943225,14.9969186 L66.2943225,27.301996 L63.0258995,27.301996 L62.6413507,25.1872193 Z" id="Fill-7" fill="#16161F"></path>
                        <path d="M71.647341,11.7285439 L68.5711119,11.7285439 L68.5711119,8.07541123 L71.647341,8.07541123 L71.647341,2.69172863 L75.4926676,2.69172863 L75.4926676,8.07541123 L79.9147369,8.07541123 L79.9147369,11.7285439 L75.4926676,11.7285439 L75.4926676,22.6877811 C75.4926676,23.4567177 75.8770554,23.8412664 76.6461529,23.8412664 L79.9147369,23.8412664 L79.9147369,27.3020443 L75.8770554,27.3020443 C73.1469041,27.3020443 71.647341,25.7640102 71.647341,23.2645238 L71.647341,11.7285439 Z" id="Fill-9" fill="#16161F"></path>
                        <path d="M82.81408,8.07536294 L86.6594066,8.07536294 L86.6594066,19.6115037 C86.6594066,22.1108292 88.6204604,24.2257669 91.2739917,24.2257669 C94.1578659,24.2257669 96.2726426,22.1108292 96.2726426,19.6115037 L96.2726426,8.07536294 L100.118291,8.07536294 L100.118291,27.301996 L96.6575133,27.301996 L96.2726426,25.3795741 L96.0806097,25.3795741 C95.657429,25.8024329 95.1962602,26.1869816 94.6576666,26.5330594 C93.7350071,27.1099631 92.312064,27.6865447 90.5048941,27.6865447 C85.8903091,27.6865447 82.81408,24.6489476 82.81408,19.6115037 L82.81408,8.07536294 Z" id="Fill-11" fill="#16161F"></path>
                        <g id="Group-15" transform="translate(103.340436, 7.565743)">
                            <mask id="mask-8" fill="white">
                                <use xlink:href="#path-7"></use>
                            </mask>
                            <g id="Clip-14"></g>
                            <path d="M3.86098864,13.9682306 C3.86098864,15.1220378 5.20682881,16.8524268 8.28321887,16.8524268 C11.1670931,16.8524268 12.3209003,15.5448966 12.3209003,14.3529403 C12.3209003,13.0069392 11.5902738,12.1995317 9.43670417,11.8532929 L5.97592632,11.2765503 C2.28432264,10.6613366 0.400210789,8.96941868 0.400210789,5.70083473 C0.400210789,2.62444467 2.89953626,0.125119192 8.09070304,0.125119192 C13.6667405,0.125119192 15.9737111,3.9704458 15.9737111,6.08522252 L12.1283845,6.08522252 C12.1283845,4.93173721 10.9748992,3.39370315 8.09070304,3.39370315 C5.36055173,3.39370315 4.2455374,4.50871748 4.2455374,5.70083473 C4.2455374,6.89295197 5.3990227,7.66188852 7.12941163,8.00812727 L10.5905114,8.58503089 C14.3204251,9.20024452 16.166066,11.1226664 16.166066,14.3529403 C16.166066,17.4291694 13.6667405,20.1208497 8.28321887,20.1208497 C2.13059971,20.1208497 0.0156620319,16.0833292 0.0156620319,13.9682306 L3.86098864,13.9682306 Z" id="Fill-13" fill="#16161F" mask="url(#mask-8)"></path>
                        </g>
                    </g>
                </g>
                <g id="Icon" transform="translate(52.000000, 30.000000)" fill="#FFFFFF">
                    <path d="M18,8.36363636 C18,7.45545455 17.2636364,6.72727273 16.3636364,6.72727273 L11.1927273,6.72727273 L11.9781818,2.98818182 C11.9945455,2.90636364 12.0027273,2.81636364 12.0027273,2.72636364 C12.0027273,2.39090909 11.8636364,2.08 11.6427273,1.85909091 L10.7754545,1 L5.39181818,6.38363636 C5.08909091,6.68636364 4.90909091,7.09545455 4.90909091,7.54545455 L4.90909091,15.7272727 C4.90909091,16.6310114 5.64171586,17.3636364 6.54545455,17.3636364 L13.9090909,17.3636364 C14.5881818,17.3636364 15.1690909,16.9545455 15.4145455,16.3654545 L17.8854545,10.5972727 C17.9590909,10.4090909 18,10.2127273 18,10 L18,8.36363636 M0,17.3636364 L3.27272727,17.3636364 L3.27272727,7.54545455 L0,7.54545455 L0,17.3636364 Z" id="Shape"></path>
                </g>
                <text id="PhotoHub" font-family="TTHoves-Medium, TT Hoves" font-size="14" font-weight="400" letter-spacing="-0.1" fill="#0659FD">
                    <tspan x="214" y="33">LocalHub</tspan>
                </text>
            </g>
        </g>
    </g>
</svg>