<?xml version="1.0" encoding="UTF-8"?>
<svg width="30px" height="30px" viewBox="0 0 30 30" version="1.1" xmlns="http://www.w3.org/2000/svg" xmlns:xlink="http://www.w3.org/1999/xlink">
    <title>Icon/Share Copy</title>
    <g id="Icon/Share-Copy" stroke="none" stroke-width="1" fill="none" fill-rule="evenodd">
        <g id="Share-Square" transform="translate(6.000000, 5.000000)">
            <path d="M0.16184,10.1434 C0.30146,8.5346 1.53621,7.31947 3.14628,7.19597 C4.51009,7.09136 6.43529,7 9,7 C11.5647,7 13.4899,7.09136 14.8537,7.19597 C16.4638,7.31947 17.6985,8.5346 17.8382,10.1434 C17.9277,11.1755 18,12.4794 18,14 C18,15.5206 17.9277,16.8245 17.8382,17.8566 C17.6985,19.4654 16.4638,20.6805 14.8537,20.804 C13.4899,20.9086 11.5647,21 9,21 C6.43529,21 4.51009,20.9086 3.14628,20.804 C1.53621,20.6805 0.30146,19.4654 0.16184,17.8566 C0.07226,16.8245 0,15.5206 0,14 C0,12.4794 0.07226,11.1755 0.16184,10.1434 Z" id="Path" fill="#1269FF" opacity="0.3"></path>
            <path d="M6.20711,5.20711 C5.81658,5.59763 5.18342,5.59763 4.79289,5.20711 C4.40237,4.81658 4.40237,4.18342 4.79289,3.79289 L8.2929,0.29289 C8.6834,-0.097631 9.3166,-0.097631 9.7071,0.29289 L13.2071,3.79289 C13.5976,4.18342 13.5976,4.81658 13.2071,5.20711 C12.8166,5.59763 12.1834,5.59763 11.7929,5.20711 L10,3.41421 L10,12.9999993 C10,13.5523 9.5523,13.9999993 9,13.9999993 C8.4477,13.9999993 8,13.5523 8,12.9999993 L8,3.41421 L6.20711,5.20711 Z" id="Path" fill="#0659FD"></path>
        </g>
    </g>
</svg>