<?xml version="1.0" encoding="UTF-8"?>
<svg width="38px" height="38px" viewBox="0 0 38 38" version="1.1" xmlns="http://www.w3.org/2000/svg" xmlns:xlink="http://www.w3.org/1999/xlink">
    <title>Button/Icon Copy 2</title>
    <defs>
        <path d="M11.4545455,2 C9.64706809,2 8.18181818,3.46524991 8.18181818,5.27272727 C8.18181818,7.08020464 9.64706809,8.54545455 11.4545455,8.54545455 C13.2620228,8.54545455 14.7272727,7.08020464 14.7272727,5.27272727 C14.7272727,3.46524991 13.2620228,2 11.4545455,2 L11.4545455,2 Z M11.4545455,3.55454545 C12.4036364,3.55454545 13.1727273,4.32363636 13.1727273,5.27272727 C13.1727273,6.22181818 12.4036364,6.99090909 11.4545455,6.99090909 C10.5056198,6.99090909 9.73636364,6.22165289 9.73636364,5.27272727 C9.73636364,4.32380166 10.5056198,3.55454545 11.4545455,3.55454545 L11.4545455,3.55454545 Z M2.45454545,4.45454545 L2.45454545,6.90909091 L0,6.90909091 L0,8.54545455 L2.45454545,8.54545455 L2.45454545,11 L4.09090909,11 L4.09090909,8.54545455 L6.54545455,8.54545455 L6.54545455,6.90909091 L4.09090909,6.90909091 L4.09090909,4.45454545 L2.45454545,4.45454545 L2.45454545,4.45454545 Z M11.4545455,9.36363636 C9.27,9.36363636 4.90909091,10.4518182 4.90909091,12.6363636 L4.90909091,15.0909091 L18,15.0909091 L18,12.6363636 C18,10.4518182 13.6390909,9.36363636 11.4545455,9.36363636 L11.4545455,9.36363636 Z M11.4545455,10.9181818 C13.8845455,10.9181818 16.4454545,12.1127273 16.4454545,12.6363636 L16.4454545,13.5363636 L6.46363636,13.5363636 L6.46363636,12.6363636 C6.46363636,12.1127273 9,10.9181818 11.4545455,10.9181818 Z" id="path-1"></path>
    </defs>
    <g id="Selected" stroke="none" stroke-width="1" fill="none" fill-rule="evenodd">
        <g id="02-Home-LocalHub-Post-Comment--Share" transform="translate(-629.000000, -703.000000)">
            <g id="Group-4" transform="translate(598.000000, 584.000000)">
                <g id="Bottom" transform="translate(31.000000, 75.000000)">
                    <g id="Button/Icon" transform="translate(0.000000, 44.000000)">
                        <rect id="Background-Color" fill="#F7F7F7" x="0" y="0" width="38" height="38" rx="12"></rect>
                        <g id="Group" transform="translate(10.000000, 10.000000)">
                            <mask id="mask-2" fill="white">
                                <use xlink:href="#path-1"></use>
                            </mask>
                            <use id="Shape" fill="#1E1F20" xlink:href="#path-1"></use>
                        </g>
                    </g>
                </g>
            </g>
        </g>
    </g>
</svg>