<?xml version="1.0" encoding="UTF-8"?>
<svg width="16px" height="4px" viewBox="0 0 16 4" version="1.1" xmlns="http://www.w3.org/2000/svg" xmlns:xlink="http://www.w3.org/1999/xlink">
    <title>Options Copy 2</title>
    <defs>
        <path d="M9,13 C10.1045695,13 11,13.8954305 11,15 C11,16.1045695 10.1045695,17 9,17 C7.8954305,17 7,16.1045695 7,15 C7,13.8954305 7.8954305,13 9,13 L9,13 Z M9,7 C10.1045695,7 11,7.8954305 11,9 C11,10.1045695 10.1045695,11 9,11 C7.8954305,11 7,10.1045695 7,9 C7,7.8954305 7.8954305,7 9,7 L9,7 Z M9,1 C10.1045695,1 11,1.8954305 11,3 C11,4.1045695 10.1045695,5 9,5 C7.8954305,5 7,4.1045695 7,3 C7,1.8954305 7.8954305,1 9,1 Z" id="path-1"></path>
    </defs>
    <g id="Selected" stroke="none" stroke-width="1" fill="none" fill-rule="evenodd">
        <g id="02-Home-LocalHub-Post-Comment--Share" transform="translate(-640.000000, -853.000000)">
            <g id="Group-4" transform="translate(598.000000, 584.000000)">
                <g id="Group" transform="translate(31.000000, 252.000000)">
                    <g id="Button/Icon" transform="translate(19.000000, 19.000000) rotate(90.000000) translate(-19.000000, -19.000000) ">
                        <rect id="Background-Color" x="0" y="0" width="38" height="38" rx="12"></rect>
                        <g id="Icon" transform="translate(10.000000, 10.000000)">
                            <mask id="mask-2" fill="white">
                                <use xlink:href="#path-1"></use>
                            </mask>
                            <use id="Shape" fill="#8F92A1" xlink:href="#path-1"></use>
                        </g>
                    </g>
                </g>
            </g>
        </g>
    </g>
</svg>