<?xml version="1.0" encoding="UTF-8"?>
<svg width="20px" height="21px" viewBox="0 0 20 21" version="1.1" xmlns="http://www.w3.org/2000/svg" xmlns:xlink="http://www.w3.org/1999/xlink">
    <title>uplode</title>
    <g id="Local-HUB-(FB)" stroke="none" stroke-width="1" fill="none" fill-rule="evenodd">
        <g id="Home/Local-Hub/Settings-–-Affiliates" transform="translate(-678.000000, -482.000000)">
            <g id="Bottom/Icon-Copy" transform="translate(663.000000, 468.000000)">
                <g id="Group" transform="translate(9.375000, 9.000000)">
                    <g id="Share-Square" transform="translate(6.250000, 5.000000)">
                        <path d="M0.168583333,10.1434 C0.314020833,8.5346 1.60021875,7.31947 3.277375,7.19597 C4.69801042,7.09136 6.70342708,7 9.375,7 C12.0465625,7 14.0519792,7.09136 15.4726042,7.19597 C17.1497917,7.31947 18.4359375,8.5346 18.5814583,10.1434 C18.6746875,11.1755 18.75,12.4794 18.75,14 C18.75,15.5206 18.6746875,16.8245 18.5814583,17.8566 C18.4359375,19.4654 17.1497917,20.6805 15.4726042,20.804 C14.0519792,20.9086 12.0465625,21 9.375,21 C6.70342708,21 4.69801042,20.9086 3.277375,20.804 C1.60021875,20.6805 0.314020833,19.4654 0.168583333,17.8566 C0.0752708333,16.8245 0,15.5206 0,14 C0,12.4794 0.0752708333,11.1755 0.168583333,10.1434 Z" id="Path" fill="#A7B4CB" opacity="0.6"></path>
                        <path d="M6.46573958,5.20711 C6.0589375,5.59763 5.39939583,5.59763 4.99259375,5.20711 C4.58580208,4.81658 4.58580208,4.18342 4.99259375,3.79289 L8.6384375,0.29289 C9.04520833,-0.097631 9.70479167,-0.097631 10.1115625,0.29289 L13.7573958,3.79289 C14.1641667,4.18342 14.1641667,4.81658 13.7573958,5.20711 C13.350625,5.59763 12.6910417,5.59763 12.2842708,5.20711 L10.4166667,3.41421 L10.4166667,12.9999993 C10.4166667,13.5523 9.9503125,13.9999993 9.375,13.9999993 C8.7996875,13.9999993 8.33333333,13.5523 8.33333333,12.9999993 L8.33333333,3.41421 L6.46573958,5.20711 Z" id="Path" fill="#16161F"></path>
                    </g>
                </g>
            </g>
        </g>
    </g>
</svg>