<?xml version="1.0" encoding="UTF-8"?>
<svg width="44px" height="36px" viewBox="0 0 44 36" version="1.1" xmlns="http://www.w3.org/2000/svg" xmlns:xlink="http://www.w3.org/1999/xlink">
    <title>Icon/Bell Copy</title>
    <g id="Local-HUB-(FB)" stroke="none" stroke-width="1" fill="none" fill-rule="evenodd">
        <g id="Home/Local-Hub/Pop-up-New-Story" transform="translate(-479.000000, -387.000000)" fill="#1269FF">
            <g id="Group-28" transform="translate(250.000000, 254.000000)">
                <g id="Group-10" transform="translate(190.000000, 76.000000)">
                    <g id="Group" transform="translate(32.000000, 46.000000)">
                        <g id="Video" transform="translate(7.733333, 11.600000)">
                            <path d="M8.78748333,0.760921333 C4.53654733,1.29227867 1.255758,4.52871733 0.658416,8.770876 C0.297134,11.3366413 0,14.36834 0,17.4 C0,20.43166 0.297134,23.46332 0.658416,26.0290467 C1.255758,30.27136 4.53654733,33.50776 8.78748333,34.03904 C12.03413,34.4448467 16.2953127,34.8 21.2666667,34.8 C26.23804,34.8 30.4993,34.4448467 33.7457533,34.03904 C37.9967667,33.50776 41.2776333,30.27136 41.87484,26.0290467 C42.23618,23.46332 42.5333333,20.43166 42.5333333,17.4 C42.5333333,14.36834 42.23618,11.3366413 41.87484,8.770876 C41.2776333,4.52871733 37.9967667,1.29227867 33.7457533,0.760921333 C30.4993,0.355095333 26.23804,0 21.2666667,0 C16.2952933,0 12.03413,0.355095333 8.78748333,0.760921333 Z" id="Path" opacity="0.3"></path>
                            <path d="M28.3101867,15.7607267 L18.4246667,9.58225733 C17.13697,8.77743 15.4666667,9.70320667 15.4666667,11.2217047 L15.4666667,23.5785467 C15.4666667,25.09718 17.13697,26.02286 18.4246667,25.2180133 L28.3101867,19.03966 C29.5218067,18.2823733 29.5218067,16.5180133 28.3101867,15.7607267 Z" id="Path"></path>
                        </g>
                    </g>
                </g>
            </g>
        </g>
    </g>
</svg>