<?xml version="1.0" encoding="UTF-8"?>
<svg width="56px" height="56px" viewBox="0 0 56 56" version="1.1" xmlns="http://www.w3.org/2000/svg" xmlns:xlink="http://www.w3.org/1999/xlink">
    <title>wallet_exchange</title>
    <g id="Mobile" stroke="none" stroke-width="1" fill="none" fill-rule="evenodd">
        <g id="15-Home-Wallet-Copy" transform="translate(-282.000000, -340.000000)">
            <g id="Buttons" transform="translate(37.000000, 340.000000)">
                <g id="Group" transform="translate(245.000000, 0.000000)">
                    <g id="Group-2-Copy-3" fill="#000000">
                        <circle id="Oval-Copy" cx="28" cy="28" r="28"></circle>
                    </g>
                    <g transform="translate(14.000000, 18.000000)">
                        <circle id="Oval-Copy-11" stroke="#FFFFFF" stroke-width="1.5" cx="14" cy="10" r="10"></circle>
                        <polygon id="Path-6-Copy-2" fill="#000000" points="5.45454545 2 15 11 1 11"></polygon>
                        <polygon id="Path-6-Copy-3" fill="#000000" transform="translate(22.000000, 13.500000) scale(-1, -1) translate(-22.000000, -13.500000) " points="19.4545455 9 29 18 15 18"></polygon>
                        <path d="M4.7016,5.2688 L8.6976,10.5968 C8.78110545,10.7081406 8.75854061,10.8660945 8.6472,10.9496 C8.60357976,10.9823152 8.55052529,11 8.496,11 L0.504,11 C0.364824243,11 0.252,10.8871758 0.252,10.748 C0.252,10.6934747 0.269684824,10.6404202 0.3024,10.5968 L4.2984,5.2688 C4.38190545,5.15745939 4.53985939,5.13489455 4.6512,5.2184 C4.67030303,5.23272727 4.68727273,5.24969697 4.7016,5.2688 Z" id="Triangle-Copy-2" fill="#FFFFFF"></path>
                        <path d="M23.7016,7.2688 L27.6976,12.5968 C27.7811055,12.7081406 27.7585406,12.8660945 27.6472,12.9496 C27.6035798,12.9823152 27.5505253,13 27.496,13 L19.504,13 C19.3648242,13 19.252,12.8871758 19.252,12.748 C19.252,12.6934747 19.2696848,12.6404202 19.3024,12.5968 L23.2984,7.2688 C23.3819055,7.15745939 23.5398594,7.13489455 23.6512,7.2184 C23.670303,7.23272727 23.6872727,7.24969697 23.7016,7.2688 Z" id="Triangle-Copy-3" fill="#FFFFFF" transform="translate(23.500000, 10.000000) scale(1, -1) translate(-23.500000, -10.000000) "></path>
                    </g>
                </g>
            </g>
        </g>
    </g>
</svg>