<?xml version="1.0" encoding="UTF-8"?>
<svg width="18px" height="18px" viewBox="0 0 18 18" version="1.1" xmlns="http://www.w3.org/2000/svg" xmlns:xlink="http://www.w3.org/1999/xlink">
    <title>Options Copy</title>
    <defs>
        <path d="M2,0 C0.89,0 0,0.89 0,2 L0,16 C0,17.1045695 0.8954305,18 2,18 L16,18 C17.1045695,18 18,17.1045695 18,16 L18,9 L16,9 L16,16 L2,16 L2,2 L9,2 L9,0 L2,0 L2,0 Z M14.78,1 C14.61,1 14.43,1.07 14.3,1.2 L13.08,2.41 L15.58,4.91 L16.8,3.7 C17.06,3.44 17.06,3 16.8,2.75 L15.25,1.2 C15.12,1.07 14.95,1 14.78,1 L14.78,1 Z M12.37,3.12 L5,10.5 L5,13 L7.5,13 L14.87,5.62 L12.37,3.12 Z" id="path-1"></path>
    </defs>
    <g id="Selected" stroke="none" stroke-width="1" fill="none" fill-rule="evenodd">
        <g id="02-Home-LocalHub-Post-Comment--Share" transform="translate(-639.000000, -802.000000)">
            <g id="Group-4" transform="translate(598.000000, 584.000000)">
                <g id="Group" transform="translate(31.000000, 208.000000)">
                    <g id="Button/Icon" transform="translate(19.000000, 19.000000) rotate(90.000000) translate(-19.000000, -19.000000) ">
                        <rect id="Background-Color" x="0" y="0" width="38" height="38" rx="12"></rect>
                        <g id="Group" transform="translate(10.000000, 10.000000)">
                            <mask id="mask-2" fill="white">
                                <use xlink:href="#path-1"></use>
                            </mask>
                            <use id="Shape" fill="#16161F" xlink:href="#path-1"></use>
                        </g>
                    </g>
                </g>
            </g>
        </g>
    </g>
</svg>