<?xml version="1.0" encoding="UTF-8"?>
<svg width="48px" height="48px" viewBox="0 0 48 48" version="1.1" xmlns="http://www.w3.org/2000/svg" xmlns:xlink="http://www.w3.org/1999/xlink">
    <title>Icon</title>
    <g id="InvestPlatform" stroke="none" stroke-width="1" fill="none" fill-rule="evenodd">
        <g id="Home/Knox-PRO/Buy_Sell" transform="translate(-545.000000, -716.000000)">
            <g id="assets" transform="translate(250.000000, 138.000000)">
                <g id="Payment-Method" transform="translate(32.000000, 496.000000)">
                    <g id="assets-board" transform="translate(239.000000, 58.000000)">
                        <g id="Group" transform="translate(24.000000, 24.000000)">
                            <circle id="Oval" fill="#A7B4CB" fill-rule="nonzero" cx="24" cy="24" r="24"></circle>
                            <g id="ic_bank" transform="translate(11.000000, 8.000000)" fill="#FFFFFF">
                                <path d="M3.33333333,12.3333333 L3.33333333,21.6666667 L7.33333333,21.6666667 L7.33333333,12.3333333 L3.33333333,12.3333333 L3.33333333,12.3333333 Z M11.3333333,12.3333333 L11.3333333,21.6666667 L15.3333333,21.6666667 L15.3333333,12.3333333 L11.3333333,12.3333333 L11.3333333,12.3333333 Z M0.666666667,28.3333333 L26,28.3333333 L26,24.3333333 L0.666666667,24.3333333 L0.666666667,28.3333333 L0.666666667,28.3333333 Z M19.3333333,12.3333333 L19.3333333,21.6666667 L23.3333333,21.6666667 L23.3333333,12.3333333 L19.3333333,12.3333333 L19.3333333,12.3333333 Z M13.3333333,0.333333333 L0.666666667,7 L0.666666667,9.66666667 L26,9.66666667 L26,7 L13.3333333,0.333333333 L13.3333333,0.333333333 Z" id="Shape"></path>
                            </g>
                        </g>
                    </g>
                </g>
            </g>
        </g>
    </g>
</svg>