<?xml version="1.0" encoding="UTF-8"?>
<svg width="48px" height="48px" viewBox="0 0 48 48" version="1.1" xmlns="http://www.w3.org/2000/svg" xmlns:xlink="http://www.w3.org/1999/xlink">
    <title>Icon</title>
    <g id="Symbols" stroke="none" stroke-width="1" fill="none" fill-rule="evenodd">
        <g id="assets/card-01" transform="translate(-24.000000, -24.000000)" fill-rule="nonzero">
            <g id="btc" transform="translate(24.000000, 24.000000)">
                <circle id="Oval" fill="#F7931A" cx="24" cy="24" r="24"></circle>
                <path d="M34.9397753,20.0607549 C35.418959,16.9087172 32.9818368,15.2138954 29.6519679,14.0830117 L30.7324203,9.81212091 L28.0953839,9.16547195 L27.0424006,13.3235751 C26.3495681,13.152138 25.6384228,12.9927315 24.9288036,12.833325 L25.9894173,8.64815279 L23.3523808,8 L22.2719284,12.2693869 C21.6981288,12.1400571 21.1334856,12.013735 20.5871551,11.8783899 L20.5902072,11.8648554 L16.9520736,10.9700737 L16.2500848,13.7461527 C16.2500848,13.7461527 18.2080233,14.1882801 18.1668196,14.2153491 C19.2350635,14.4785202 19.4273474,15.1747957 19.3953001,15.7282069 L18.1652935,20.5931124 C18.2385445,20.6111585 18.3331604,20.6382275 18.4399848,20.678831 L18.1607153,20.6111585 L16.4362644,27.4265377 C16.305023,27.7453506 15.9738674,28.2250739 15.2260967,28.0431099 C15.2535658,28.0807058 13.3093618,27.5724096 13.3093618,27.5724096 L12,30.5469948 L15.4336412,31.3906461 C16.0715354,31.5485488 16.6972212,31.7139706 17.3122244,31.8688656 L16.2210896,36.1878791 L18.8566,36.834528 L19.9370524,32.5636373 C20.657354,32.7546243 21.3562907,32.9320768 22.0399669,33.1005063 L20.9625666,37.353351 L23.599603,38 L24.6907379,33.6900095 C29.1895709,34.5291493 32.5713259,34.1907865 33.9951425,30.181563 C35.1427417,26.9543336 33.9386781,25.0910823 31.5717548,23.8774876 C33.2962057,23.4864906 34.5933591,22.3691413 34.9397753,20.0607549 L34.9397753,20.0607549 Z M28.9118274,28.3889919 C28.098436,31.6177252 22.5817191,29.871773 20.7931736,29.4341571 L22.2429332,23.7120658 C24.0314787,24.1526894 29.7648965,25.0234097 28.9118274,28.3889919 Z M29.728271,20.014136 C28.9850784,22.9511254 24.3946817,21.4578174 22.9067705,21.0923856 L24.2191845,15.9041556 C25.7070957,16.2695874 30.5035109,16.9508246 29.728271,20.014136 Z" id="Shape" fill="#FFFFFF"></path>
            </g>
        </g>
    </g>
</svg>