<?xml version="1.0" encoding="UTF-8"?>
<svg width="48px" height="48px" viewBox="0 0 48 48" version="1.1" xmlns="http://www.w3.org/2000/svg" xmlns:xlink="http://www.w3.org/1999/xlink">
    <title>Icon</title>
    <g id="InvestPlatform" stroke="none" stroke-width="1" fill="none" fill-rule="evenodd">
        <g id="Home/Knox-PRO/Buy_Sell" transform="translate(-306.000000, -716.000000)" fill-rule="nonzero">
            <g id="assets" transform="translate(250.000000, 138.000000)">
                <g id="Payment-Method" transform="translate(32.000000, 496.000000)">
                    <g id="assets-board" transform="translate(0.000000, 58.000000)">
                        <g id="$" transform="translate(24.000000, 24.000000)">
                            <circle id="Oval" fill="#4FBF67" cx="24" cy="24" r="24"></circle>
                            <path d="M26.7,37.3 L26.7,34.15 C30.63,33.55 33,31.18 33,27.85 C33,24.25 31.2,22.45 27,21.7 L23.7,21.1 C21.75,20.74 21.15,20.2 21.15,19.15 C21.15,17.95 22.17,16.9 24.3,16.9 C26.67,16.9 28.05,18.25 28.05,19.9 L32.85,19.9 C32.85,15.97 30.45,13.6 26.7,12.85 L26.7,9.7 L22.2,9.7 L22.2,12.85 C18.57,13.6 16.35,15.82 16.35,19.15 C16.35,22.48 18.15,24.31 21.9,25 L25.2,25.6 C27.48,26.05 28.2,26.8 28.2,27.85 C28.2,29.05 27.15,30.1 24.6,30.1 C22.05,30.1 20.7,28.78 20.7,27.1 L15.9,27.1 C15.9,30.79 18.6,33.58 22.2,34.15 L22.2,37.3 L26.7,37.3 Z" fill="#FFFFFF"></path>
                        </g>
                    </g>
                </g>
            </g>
        </g>
    </g>
</svg>