<?xml version="1.0" encoding="UTF-8"?>
<svg width="40px" height="40px" viewBox="0 0 40 40" version="1.1" xmlns="http://www.w3.org/2000/svg" xmlns:xlink="http://www.w3.org/1999/xlink">
    <title>circle icon/withdraw</title>
    <g id="InvestPlatform" stroke="none" stroke-width="1" fill="none" fill-rule="evenodd">
        <g id="Home/Knox-PRO/Buy_Sell_Confirm_error" transform="translate(-348.000000, -527.000000)" fill-rule="nonzero">
            <g id="Confirmation/Modal" transform="translate(276.000000, 294.000000)">
                <g id="Group-5" transform="translate(72.000000, 63.000000)">
                    <g id="latest-activities/withdrew-copy" transform="translate(0.000000, 150.000000)">
                        <g id="$" transform="translate(0.000000, 20.000000)">
                            <circle id="Oval" fill="#C6CEDD" cx="20" cy="20" r="20"></circle>
                            <path d="M22.25,31.0833333 L22.25,28.4583333 C25.525,27.9583333 27.5,25.9833333 27.5,23.2083333 C27.5,20.2083333 26,18.7083333 22.5,18.0833333 L19.75,17.5833333 C18.125,17.2833333 17.625,16.8333333 17.625,15.9583333 C17.625,14.9583333 18.475,14.0833333 20.25,14.0833333 C22.225,14.0833333 23.375,15.2083333 23.375,16.5833333 L27.375,16.5833333 C27.375,13.3083333 25.375,11.3333333 22.25,10.7083333 L22.25,8.08333333 L18.5,8.08333333 L18.5,10.7083333 C15.475,11.3333333 13.625,13.1833333 13.625,15.9583333 C13.625,18.7333333 15.125,20.2583333 18.25,20.8333333 L21,21.3333333 C22.9,21.7083333 23.5,22.3333333 23.5,23.2083333 C23.5,24.2083333 22.625,25.0833333 20.5,25.0833333 C18.375,25.0833333 17.25,23.9833333 17.25,22.5833333 L13.25,22.5833333 C13.25,25.6583333 15.5,27.9833333 18.5,28.4583333 L18.5,31.0833333 L22.25,31.0833333 Z" fill="#FFFFFF"></path>
                        </g>
                    </g>
                </g>
            </g>
        </g>
    </g>
</svg>