<?xml version="1.0" encoding="UTF-8"?>
<svg width="20px" height="20px" viewBox="0 0 20 20" version="1.1" xmlns="http://www.w3.org/2000/svg" xmlns:xlink="http://www.w3.org/1999/xlink">
    <title>Info Circle</title>
    <g id="Symbols" stroke="none" stroke-width="1" fill="none" fill-rule="evenodd">
        <g id="!Icons/Used/UI-Elements/attention" transform="translate(-5.000000, -5.000000)">
            <g id="Info-Circle" transform="translate(15.000000, 15.000000) rotate(-180.000000) translate(-15.000000, -15.000000) translate(5.000000, 5.000000)">
                <circle id="Oval" fill="#A7B4CB" opacity="0.6" cx="10" cy="10" r="10"></circle>
                <path d="M10,5 C9.4477,5 9,5.44772 9,6 C9,6.55229 9.4477,7 10,7 C10.5523,7 11,6.55229 11,6 C11,5.44772 10.5523,5 10,5 Z M10,9 C9.4477,9 9,9.4477 9,10 L9,14 C9,14.5523 9.4477,15 10,15 C10.5523,15 11,14.5523 11,14 L11,10 C11,9.4477 10.5523,9 10,9 Z" id="Shape" fill="#16161F"></path>
            </g>
        </g>
    </g>
</svg>