<?xml version="1.0" encoding="UTF-8"?>
<svg width="40px" height="40px" viewBox="0 0 40 40" version="1.1" xmlns="http://www.w3.org/2000/svg" xmlns:xlink="http://www.w3.org/1999/xlink">
    <title>circle icon/withdraw</title>
    <defs>
        <polygon id="path-1" points="0 0 20 0 20 20 0 20"></polygon>
    </defs>
    <g id="InvestPlatform" stroke="none" stroke-width="1" fill="none" fill-rule="evenodd">
        <g id="Home/Knox-PRO/Buy_Sell_Confirm" transform="translate(-350.000000, -703.000000)">
            <g id="Confirmation/Modal" transform="translate(278.000000, 294.000000)">
                <g id="Group-5" transform="translate(72.000000, 63.000000)">
                    <g id="latest-activities/withdrew-copy-3" transform="translate(0.000000, 326.000000)">
                        <g id="circle-icon/withdraw" transform="translate(0.000000, 20.000000)">
                            <circle id="Oval" fill="#1269FF" fill-rule="nonzero" cx="20" cy="20" r="20"></circle>
                            <g id="Group-6" transform="translate(10.000000, 10.000000)">
                                <mask id="mask-2" fill="white">
                                    <use xlink:href="#path-1"></use>
                                </mask>
                                <g id="Clip-2"></g>
                                <path d="M14.5,2.5 L14.5,5 L3.66666667,5 C2.99169444,5 2.44444444,4.4403125 2.44444444,3.75 C2.44444444,3.0596875 2.99169444,2.5 3.66666667,2.5 L14.5,2.5 Z M17.5555556,7.5 L17.5555556,17.5 L3.66666667,17.5 C2.99169444,17.5 2.44444444,16.9403125 2.44444444,16.25 L2.44444444,7.28125 C2.83677778,7.425 3.24988889,7.4990625 3.66666667,7.5 L17.5555556,7.5 Z M20,20 L20,5 L16.9444444,5 L16.9444444,0 L3.66666667,0 C1.64175,0 0,1.6790625 0,3.75 L0,16.25 C0,18.3209375 1.64175,20 3.66666667,20 L20,20 Z" id="Fill-1" fill="#FFFFFF" mask="url(#mask-2)"></path>
                                <path d="M13.75,10.4166667 C14.9005208,10.4166667 15.8333333,11.3494792 15.8333333,12.5 C15.8333333,13.6505208 14.9005208,14.5833333 13.75,14.5833333 C12.5994792,14.5833333 11.6666667,13.6505208 11.6666667,12.5 C11.6666667,11.3494792 12.5994792,10.4166667 13.75,10.4166667" id="Fill-4" fill="#FFFFFF" mask="url(#mask-2)"></path>
                            </g>
                        </g>
                    </g>
                </g>
            </g>
        </g>
    </g>
</svg>