<?xml version="1.0" encoding="UTF-8"?>
<svg width="18px" height="18px" viewBox="0 0 18 18" version="1.1" xmlns="http://www.w3.org/2000/svg" xmlns:xlink="http://www.w3.org/1999/xlink">
    <title>Icon</title>
    <defs>
        <path d="M16,2 L16,4 L12,4 L12,2 L16,2 L16,2 Z M6,2 L6,8 L2,8 L2,2 L6,2 L6,2 Z M16,10 L16,16 L12,16 L12,10 L16,10 L16,10 Z M6,14 L6,16 L2,16 L2,14 L6,14 L6,14 Z M18,0 L10,0 L10,6 L18,6 L18,0 L18,0 Z M8,0 L0,0 L0,10 L8,10 L8,0 L8,0 Z M18,8 L10,8 L10,18 L18,18 L18,8 L18,8 Z M8,12 L0,12 L0,18 L8,18 L8,12 Z" id="path-1"></path>
    </defs>
    <g id="Page-1" stroke="none" stroke-width="1" fill="none" fill-rule="evenodd">
        <g id="Icon">
            <mask id="mask-2" fill="white">
                <use xlink:href="#path-1"></use>
            </mask>
            <use id="Shape" fill="#FFFFFF" xlink:href="#path-1"></use>
        </g>
    </g>
</svg>