<?xml version="1.0" encoding="UTF-8"?>
<svg width="17px" height="18px" viewBox="0 0 17 18" version="1.1" xmlns="http://www.w3.org/2000/svg" xmlns:xlink="http://www.w3.org/1999/xlink">
    <title>Icon</title>
    <g id="Page-1" stroke="none" stroke-width="1" fill="none" fill-rule="evenodd">
        <g id="Shape" transform="translate(-1.000000, 0.000000)" fill="#16161F">
            <path d="M6.4,8.1 L6.4,9.9 L4.6,9.9 L4.6,8.1 L6.4,8.1 M10,8.1 L10,9.9 L8.2,9.9 L8.2,8.1 L10,8.1 M13.6,8.1 L13.6,9.9 L11.8,9.9 L11.8,8.1 L13.6,8.1 M15.4,1.8 C16.3941125,1.8 17.2,2.60588745 17.2,3.6 L17.2,16.2 C17.2,17.1941125 16.3941125,18 15.4,18 L2.8,18 C1.801,18 1,17.19 1,16.2 L1,3.6 C1,2.60588745 1.80588745,1.8 2.8,1.8 L3.7,1.8 L3.7,0 L5.5,0 L5.5,1.8 L12.7,1.8 L12.7,0 L14.5,0 L14.5,1.8 L15.4,1.8 M15.4,16.2 L15.4,6.3 L2.8,6.3 L2.8,16.2 L15.4,16.2 M6.4,11.7 L6.4,13.5 L4.6,13.5 L4.6,11.7 L6.4,11.7 M10,11.7 L10,13.5 L8.2,13.5 L8.2,11.7 L10,11.7 M13.6,11.7 L13.6,13.5 L11.8,13.5 L11.8,11.7 L13.6,11.7 Z"></path>
        </g>
    </g>
</svg>