<?xml version="1.0" encoding="UTF-8"?>
<svg width="21px" height="19px" viewBox="0 0 21 19" version="1.1" xmlns="http://www.w3.org/2000/svg" xmlns:xlink="http://www.w3.org/1999/xlink">
    <title>Technology/Code</title>
    <defs>
        <linearGradient x1="74.1010258%" y1="46.9288926%" x2="28.6720634%" y2="53.6315079%" id="linearGradient-1">
            <stop stop-color="#69BFFF" offset="0%"></stop>
            <stop stop-color="#4545EA" offset="100%"></stop>
        </linearGradient>
    </defs>
    <g id="Style-Guide/Icons" stroke="none" stroke-width="1" fill="none" fill-rule="evenodd">
        <g id="Icons" transform="translate(-668.000000, -214.000000)">
            <g id="Technology/Code" transform="translate(668.000000, 214.000000)">
                <path d="M19.0063063,2 L7.0063063,2 C6.73239135,2.03258033 6.45866299,1.93774811 6.26361059,1.74269571 C6.06855819,1.54764331 5.97372597,1.27391494 6.0063063,1 L6.0063063,1 C6.0063063,0.44771525 5.55859105,0 5.0063063,0 L1.0063063,0 C0.454021549,0 0.00630629909,0.44771525 0.00630629909,1 L0.00630629909,17 C-0.0262740276,17.2739149 0.0685581936,17.5476433 0.26361059,17.7426957 C0.458662986,17.9377481 0.732391355,18.0325803 1.0063063,18 L19.0063063,18 C19.2802212,18.0325803 19.5539496,17.9377481 19.749002,17.7426957 C19.9440544,17.5476433 20.0388866,17.2739149 20.0063063,17 L20.0063063,3 C20.0063063,2.44771525 19.558591,2 19.0063063,2 Z M7.7063063,13.7 C7.52886427,13.8986601 7.2725374,14.0085144 7.0063063,14 C6.74469497,13.9865401 6.49647471,13.88016 6.3063063,13.7 L3.3063063,10.7 C3.12614629,10.5098316 3.01976618,10.2616113 3.0063063,10 C2.99779186,9.7337689 3.10764624,9.47744203 3.3063063,9.3 L6.3063063,6.3 C6.54107678,5.9869727 6.93684856,5.83962868 7.31916557,5.92291713 C7.70148259,6.00620559 8.00010071,6.30482371 8.08338917,6.68714073 C8.16667762,7.06945774 8.0193336,7.46522952 7.7063063,7.7 L5.4063063,10 L7.7063063,12.3 C8.08744918,12.6888435 8.08744918,13.3111565 7.7063063,13.7 L7.7063063,13.7 Z M16.7063063,10.7 L13.7063063,13.7 C13.5288643,13.8986601 13.2725374,14.0085144 13.0063063,14 C12.744695,13.9865401 12.4964747,13.88016 12.3063063,13.7 C11.9251634,13.3111565 11.9251634,12.6888435 12.3063063,12.3 L14.6063063,10 L12.3063063,7.7 C12.0077161,7.3018797 12.0473076,6.74478517 12.3991995,6.39289322 C12.7510915,6.04100126 13.308186,6.00140977 13.7063063,6.3 L16.7063063,9.3 C17.0874492,9.68884351 17.0874492,10.3111565 16.7063063,10.7 Z" id="Shape" fill="#1269FF" opacity="0.3"></path>
                <path d="M6.3063063,6.3 C6.54107678,5.9869727 6.93684856,5.83962868 7.31916557,5.92291713 C7.70148259,6.00620559 8.00010071,6.30482371 8.08338917,6.68714073 C8.15742335,7.02697807 8.0492294,7.37744635 7.80442322,7.61601947 L7.7063063,7.7 L5.4063063,10 L7.7063063,12.3 C8.08744918,12.6888435 8.08744918,13.3111565 7.7063063,13.7 C7.52886427,13.8986601 7.2725374,14.0085144 7.0063063,14 C6.78829686,13.9887834 6.57958677,13.9130389 6.4060214,13.7838431 L6.3063063,13.7 L3.3063063,10.7 C3.12614629,10.5098316 3.01976618,10.2616113 3.0063063,10 C2.99900821,9.77180191 3.07867496,9.5508804 3.22668954,9.38067516 L6.3063063,6.3 Z M12.3991995,6.39289322 C12.7217671,6.07032559 13.2167619,6.01017711 13.603675,6.23238292 L13.7063063,6.3 L16.7063063,9.3 C17.0581305,9.65893247 17.0851939,10.2167975 16.7874965,10.606335 L16.7063063,10.7 L13.7063063,13.7 C13.5288643,13.8986601 13.2725374,14.0085144 13.0063063,14 C12.744695,13.9865401 12.4964747,13.88016 12.3063063,13.7 C11.9544821,13.3410675 11.9274187,12.7832025 12.2251161,12.393665 L12.3063063,12.3 L14.6063063,10 L12.3063063,7.7 C12.0077161,7.3018797 12.0473076,6.74478517 12.3991995,6.39289322 Z" id="Shape" fill="url(#linearGradient-1)"></path>
            </g>
        </g>
    </g>
</svg>