<?xml version="1.0" encoding="UTF-8"?>
<svg width="21px" height="20px" viewBox="0 0 21 20" version="1.1" xmlns="http://www.w3.org/2000/svg" xmlns:xlink="http://www.w3.org/1999/xlink">
    <title>!Icons/add friends Copy 13</title>
    <defs>
        <linearGradient x1="77.0347062%" y1="21.0962075%" x2="29.8138619%" y2="90.9480332%" id="linearGradient-1">
            <stop stop-color="#5E5E5E" offset="0%"></stop>
            <stop stop-color="#161514" offset="100%"></stop>
        </linearGradient>
        <linearGradient x1="66.5443004%" y1="-11.7355238%" x2="50%" y2="100%" id="linearGradient-2">
            <stop stop-color="#FFF4DC" offset="0%"></stop>
            <stop stop-color="#EDB134" offset="100%"></stop>
        </linearGradient>
    </defs>
    <g id="Style-Guide/Icons" stroke="none" stroke-width="1" fill="none" fill-rule="evenodd">
        <g id="Icons" transform="translate(-522.000000, -1606.000000)">
            <g id="Path" transform="translate(517.000000, 1601.000000)">
                <path d="M13.0884575,19.4804 L10.0754575,23.6985 C9.21445747,24.9034 7.47845747,25.0471 6.43145747,24.0001 C5.38445747,22.9532 5.52845747,21.2167 6.73345747,20.3561 L10.9514575,17.3432 C11.2024575,17.1636 11.2324575,16.8012 11.0144575,16.5828 L8.84545747,14.4143 C8.06445747,13.6333 8.06445747,12.367 8.84545747,11.5859 L10.4314575,10.0001 L20.4314575,20.0001 L18.8454575,21.5859 C18.0644575,22.367 16.7984575,22.367 16.0174575,21.5859 L13.8484575,19.4175 C13.6304575,19.199 13.2674575,19.229 13.0884575,19.4804 Z" fill="url(#linearGradient-1)"></path>
                <path d="M20.4314575,19.9999 L10.4314575,9.9999 L14.5174575,5.9142 C15.2984575,5.1331 16.5644575,5.1331 17.3454575,5.9142 L24.5174575,13.0857 C25.2984575,13.8668 25.2984575,15.1331 24.5174575,15.9142 L20.4314575,19.9999 Z" fill="url(#linearGradient-2)"></path>
            </g>
        </g>
    </g>
</svg>