<?xml version="1.0" encoding="UTF-8"?>
<svg width="18px" height="20px" viewBox="0 0 18 20" version="1.1" xmlns="http://www.w3.org/2000/svg" xmlns:xlink="http://www.w3.org/1999/xlink">
    <title>Commerce/Shopping</title>
    <defs>
        <linearGradient x1="74.1010258%" y1="46.9288926%" x2="28.6720634%" y2="53.6315079%" id="linearGradient-1">
            <stop stop-color="#69BFFF" offset="0%"></stop>
            <stop stop-color="#4545EA" offset="100%"></stop>
        </linearGradient>
    </defs>
    <g id="Style-Guide/Icons" stroke="none" stroke-width="1" fill="none" fill-rule="evenodd">
        <g id="Icons" transform="translate(-333.000000, -861.000000)">
            <g id="Commerce/Shopping" transform="translate(333.094982, 861.000000)">
                <path d="M15.0050181,4 C15.5043412,4.03743138 15.9153784,4.4073649 16.0050181,4.9 L16.0050181,4.9 L17.8050181,18.9 C17.8333708,19.18207 17.7406689,19.4629188 17.549972,19.6726854 C17.3592751,19.882452 17.0885059,20.0014214 16.8050181,20.0000126 L16.8050181,20.0000126 L1.00501812,20.0000126 C0.721530339,20.0014214 0.450761136,19.882452 0.260064221,19.6726854 C0.0693673059,19.4629188 -0.0233345774,19.18207 0.00501812037,18.9 L0.00501812037,18.9 L1.80501812,4.9 C1.89465782,4.4073649 2.30569507,4.03743138 2.80501812,4 L2.80501812,4 Z M11.9050181,6 C11.3527334,6 10.9050181,6.44771525 10.9050181,7 C10.9050181,7.55228475 11.3527334,8 11.9050181,8 C12.4573029,8 12.9050181,7.55228475 12.9050181,7 C12.9050181,6.44771525 12.4573029,6 11.9050181,6 Z M5.90501812,6 C5.35273337,6 4.90501812,6.44771525 4.90501812,7 C4.90501812,7.55228475 5.35273337,8 5.90501812,8 C6.45730287,8 6.90501812,7.55228475 6.90501812,7 C6.90501812,6.44771525 6.45730287,6 5.90501812,6 Z" id="Combined-Shape" fill="#1269FF" opacity="0.3"></path>
                <path d="M5.90501812,6 C6.45730287,6 6.90501812,6.44771525 6.90501812,7 C6.90501812,7.55228475 6.45730287,8 5.90501812,8 C5.35273337,8 4.90501812,7.55228475 4.90501812,7 C4.90501812,6.44771525 5.35273337,6 5.90501812,6 Z M11.9050181,6 C12.4573029,6 12.9050181,6.44771525 12.9050181,7 C12.9050181,7.55228475 12.4573029,8 11.9050181,8 C11.3527334,8 10.9050181,7.55228475 10.9050181,7 C10.9050181,6.44771525 11.3527334,6 11.9050181,6 Z M8.90501812,0 C11.0472135,0 12.796097,1.68396847 12.9001228,3.80035966 L12.9050181,4 L4.90501812,4 C4.90501812,1.790861 6.69587912,0 8.90501812,0 Z" id="Shape" fill="url(#linearGradient-1)"></path>
            </g>
        </g>
    </g>
</svg>