<?xml version="1.0" encoding="UTF-8"?>
<svg width="30px" height="30px" viewBox="0 0 30 30" version="1.1" xmlns="http://www.w3.org/2000/svg" xmlns:xlink="http://www.w3.org/1999/xlink" style="background: #F9F9F9;">
    <title>2. Icons/Apps</title>
    <g id="2.-Icons/Apps" stroke="none" stroke-width="1" fill="none" fill-rule="evenodd">
        <rect fill="" x="0" y="0" width="30" height="30"></rect>
        <g id="Grid" transform="translate(5.000000, 5.000000)">
            <path d="M15.5,11 C16.0918,11 16.8394,11.0778 17.5276,11.1721 C18.7275,11.3364 19.6636,12.2725 19.8279,13.4724 C19.9222,14.1606 20,14.9082 20,15.5 C20,16.0918 19.9222,16.8394 19.8279,17.5276 C19.6636,18.7275 18.7275,19.6636 17.5276,19.8279 C16.8394,19.9222 16.0918,20 15.5,20 C14.9082,20 14.1606,19.9222 13.4724,19.8279 C12.2725,19.6636 11.3364,18.7275 11.1721,17.5276 C11.0778,16.8394 11,16.0918 11,15.5 C11,14.9082 11.0778,14.1606 11.1721,13.4724 C11.3364,12.2725 12.2725,11.3364 13.4724,11.1721 C14.1606,11.0778 14.9082,11 15.5,11 Z M4.5,11 C5.09184,11 5.83935,11.0778 6.52756,11.1721 C7.72747,11.3364 8.6636,12.2725 8.8279,13.4724 C8.9222,14.1606 9,14.9082 9,15.5 C9,16.0918 8.9222,16.8394 8.8279,17.5276 C8.6636,18.7275 7.72747,19.6636 6.52756,19.8279 C5.83935,19.9222 5.09184,20 4.5,20 C3.90816,20 3.16065,19.9222 2.47244,19.8279 C1.27253,19.6636 0.33642,18.7275 0.17209,17.5276 C0.07784,16.8394 0,16.0918 0,15.5 C0,14.9082 0.07784,14.1606 0.17209,13.4724 C0.33642,12.2725 1.27253,11.3364 2.47244,11.1721 C3.16065,11.0778 3.90816,11 4.5,11 Z M15.5,0 C16.0918,0 16.8394,0.07784 17.5276,0.17209 C18.7275,0.33642 19.6636,1.27253 19.8279,2.47244 C19.9222,3.16065 20,3.90816 20,4.5 C20,5.09184 19.9222,5.83935 19.8279,6.52756 C19.6636,7.72747 18.7275,8.6636 17.5276,8.8279 C16.8394,8.9222 16.0918,9 15.5,9 C14.9082,9 14.1606,8.9222 13.4724,8.8279 C12.2725,8.6636 11.3364,7.72747 11.1721,6.52756 C11.0778,5.83935 11,5.09184 11,4.5 C11,3.90816 11.0778,3.16065 11.1721,2.47244 C11.3364,1.27253 12.2725,0.33642 13.4724,0.17209 C14.1606,0.07784 14.9082,0 15.5,0 Z" id="Combined-Shape" fill="#A7B4CB" opacity="0.4"></path>
            <path d="M0.17209,2.47244 C0.33642,1.27253 1.27253,0.33642 2.47244,0.17209 C3.16065,0.07784 3.90816,0 4.5,0 C5.09184,0 5.83935,0.07784 6.52756,0.17209 C7.72747,0.33642 8.6636,1.27253 8.8279,2.47244 C8.9222,3.16065 9,3.90816 9,4.5 C9,5.09184 8.9222,5.83935 8.8279,6.52756 C8.6636,7.72747 7.72747,8.6636 6.52756,8.8279 C5.83935,8.9222 5.09184,9 4.5,9 C3.90816,9 3.16065,8.9222 2.47244,8.8279 C1.27253,8.6636 0.33642,7.72747 0.17209,6.52756 C0.07784,5.83935 0,5.09184 0,4.5 C0,3.90816 0.07784,3.16065 0.17209,2.47244 Z" id="Path" fill="#16161F"></path>
        </g>
    </g>
</svg>