<?xml version="1.0" encoding="UTF-8"?>
<svg width="17px" height="17px" viewBox="0 0 17 17" version="1.1" xmlns="http://www.w3.org/2000/svg" xmlns:xlink="http://www.w3.org/1999/xlink">
    <title>Bottom/Icon Copy 6</title>
    <g id="-" stroke="none" stroke-width="1" fill="none" fill-rule="evenodd">
        <g id="User/02" transform="translate(-253.000000, -12.000000)">
            <g id="Bottom/Icon-Copy-6" transform="translate(241.000000, 0.000000)">
                <path d="M15.3833112,-6.21504185e-16 L24.6166888,6.21504185e-16 C29.9658012,-3.61111829e-16 31.9055187,0.556953667 33.8610742,1.60279622 C35.8166298,2.64863878 37.3513612,4.18337022 38.3972038,6.13892578 C39.4430463,8.09448133 40,10.0341988 40,15.3833112 L40,24.6166888 C40,29.9658012 39.4430463,31.9055187 38.3972038,33.8610742 C37.3513612,35.8166298 35.8166298,37.3513612 33.8610742,38.3972038 C31.9055187,39.4430463 29.9658012,40 24.6166888,40 L15.3833112,40 C10.0341988,40 8.09448133,39.4430463 6.13892578,38.3972038 C4.18337022,37.3513612 2.64863878,35.8166298 1.60279622,33.8610742 C0.556953667,31.9055187 2.4074122e-16,29.9658012 -4.14336123e-16,24.6166888 L4.14336123e-16,15.3833112 C-2.4074122e-16,10.0341988 0.556953667,8.09448133 1.60279622,6.13892578 C2.64863878,4.18337022 4.18337022,2.64863878 6.13892578,1.60279622 C8.09448133,0.556953667 10.0341988,3.61111829e-16 15.3833112,-6.21504185e-16 Z" id="BG"></path>
                <g id="Group" transform="translate(7.500000, 7.500000)">
                    <g id="Group-2" transform="translate(4.166667, 1.333333)">
                        <g id="User" transform="translate(3.623188, 3.449275)">
                            <path d="M10.1449275,3.62318841 C10.1449275,5.62421739 8.52275362,7.24637681 6.52173913,7.24637681 C4.52071014,7.24637681 2.89855072,5.62421739 2.89855072,3.62318841 C2.89855072,1.62215942 4.52071014,0 6.52173913,0 C8.52275362,0 10.1449275,1.62215942 10.1449275,3.62318841 Z" id="Path" fill="#0659FD"></path>
                            <path d="M11.4623188,9.51072464 C11.0156522,8.99282609 10.2484058,9.01949275 9.64847826,9.34789855 C8.72014493,9.85601449 7.65471014,10.1449275 6.52173913,10.1449275 C5.38876812,10.1449275 4.32331884,9.85601449 3.39496377,9.34789855 C2.79505072,9.01949275 2.02783333,8.99282609 1.58115942,9.51072464 C0.595811594,10.6531884 0,12.141087 0,13.7681159 L0,14.4927536 C0,15.2931159 0.648862319,15.942029 1.44927536,15.942029 L11.5942029,15.942029 C12.3946377,15.942029 13.0434783,15.2931159 13.0434783,14.4927536 L13.0434783,13.7681159 C13.0434783,12.141087 12.4476812,10.6531884 11.4623188,9.51072464 Z" id="Path" fill="#0659FD" opacity="0.3"></path>
                        </g>
                        <text id="+" font-family="Helvetica" font-size="12.173913" font-weight="normal" fill="#0659FD">
                            <tspan x="0" y="11.8333333">+</tspan>
                        </text>
                    </g>
                </g>
            </g>
        </g>
    </g>
</svg>