<?xml version="1.0" encoding="UTF-8"?>
<svg width="18px" height="22px" viewBox="0 0 18 22" version="1.1" xmlns="http://www.w3.org/2000/svg" xmlns:xlink="http://www.w3.org/1999/xlink">
    <title>Bottom/Icon Copy 20</title>
    <g id="Local-HUB-(FB)" stroke="none" stroke-width="1" fill="none" fill-rule="evenodd">
        <g id="Home/Local-Hub/Main" transform="translate(-792.000000, -377.000000)">
            <g id="Bottom/Icon-Copy-20" transform="translate(782.000000, 369.000000)">
                <path d="M15.3833112,-6.21504185e-16 L22.6166888,6.21504185e-16 C27.9658012,-3.61111829e-16 29.9055187,0.556953667 31.8610742,1.60279622 C33.8166298,2.64863878 35.3513612,4.18337022 36.3972038,6.13892578 C37.4430463,8.09448133 38,10.0341988 38,15.3833112 L38,22.6166888 C38,27.9658012 37.4430463,29.9055187 36.3972038,31.8610742 C35.3513612,33.8166298 33.8166298,35.3513612 31.8610742,36.3972038 C29.9055187,37.4430463 27.9658012,38 22.6166888,38 L15.3833112,38 C10.0341988,38 8.09448133,37.4430463 6.13892578,36.3972038 C4.18337022,35.3513612 2.64863878,33.8166298 1.60279622,31.8610742 C0.556953667,29.9055187 2.4074122e-16,27.9658012 -4.14336123e-16,22.6166888 L4.14336123e-16,15.3833112 C-2.4074122e-16,10.0341988 0.556953667,8.09448133 1.60279622,6.13892578 C2.64863878,4.18337022 4.18337022,2.64863878 6.13892578,1.60279622 C8.09448133,0.556953667 10.0341988,3.61111829e-16 15.3833112,-6.21504185e-16 Z" id="BG"></path>
                <g id="Group" transform="translate(4.000000, 4.000000)" fill="#16161f">
                    <g id="Music-01" transform="translate(6.000000, 4.000000)">
                        <path d="M18,2.19833 C18,0.95052 16.8699,0.00738 15.6422,0.23059 L6.64223,1.86695 C5.69125,2.03986 5,2.86812 5,3.83469 L5,18.5 L7,18.5 L7,7.83469 L16,6.19833 L16,16.5 L18,16.5 L18,2.19833 Z" id="Path" opacity="0.2"></path>
                        <path d="M3.5,15 C5.433,15 7,16.567 7,18.5 C7,20.433 5.433,22 3.5,22 C1.567,22 0,20.433 0,18.5 C0,16.567 1.567,15 3.5,15 Z M14.5,13 C16.433,13 18,14.567 18,16.5 C18,18.433 16.433,20 14.5,20 C12.567,20 11,18.433 11,16.5 C11,14.567 12.567,13 14.5,13 Z" id="Combined-Shape"></path>
                    </g>
                </g>
            </g>
        </g>
    </g>
</svg>