<?xml version="1.0" encoding="UTF-8"?>
<svg width="38px" height="38px" viewBox="0 0 38 38" version="1.1" xmlns="http://www.w3.org/2000/svg" xmlns:xlink="http://www.w3.org/1999/xlink">
    <title>Bottom/Icon Copy 21</title>
    <g id="Local-HUB-(FB)" stroke="none" stroke-width="1" fill="none" fill-rule="evenodd">
        <g id="Home/Local-Hub/Main" transform="translate(-912.000000, -369.000000)">
            <g id="New-Post-Copy-2" transform="translate(251.000000, 344.000000)">
                <g id="Bottom" transform="translate(661.000000, 24.376836)">
                    <g id="Bottom/Icon-Copy-21" transform="translate(0.000000, 0.623164)">
                        <path d="M15.3833112,-6.21504185e-16 L22.6166888,6.21504185e-16 C27.9658012,-3.61111829e-16 29.9055187,0.556953667 31.8610742,1.60279622 C33.8166298,2.64863878 35.3513612,4.18337022 36.3972038,6.13892578 C37.4430463,8.09448133 38,10.0341988 38,15.3833112 L38,22.6166888 C38,27.9658012 37.4430463,29.9055187 36.3972038,31.8610742 C35.3513612,33.8166298 33.8166298,35.3513612 31.8610742,36.3972038 C29.9055187,37.4430463 27.9658012,38 22.6166888,38 L15.3833112,38 C10.0341988,38 8.09448133,37.4430463 6.13892578,36.3972038 C4.18337022,35.3513612 2.64863878,33.8166298 1.60279622,31.8610742 C0.556953667,29.9055187 2.4074122e-16,27.9658012 -4.14336123e-16,22.6166888 L4.14336123e-16,15.3833112 C-2.4074122e-16,10.0341988 0.556953667,8.09448133 1.60279622,6.13892578 C2.64863878,4.18337022 4.18337022,2.64863878 6.13892578,1.60279622 C8.09448133,0.556953667 10.0341988,3.61111829e-16 15.3833112,-6.21504185e-16 Z" id="BG" fill="#A7B4CB" opacity="0.4"></path>
                        <g id="Group" transform="translate(4.000000, 4.000000)">
                            <g id="Plus-Square" transform="translate(5.000000, 5.000000)">
                                <path d="M4.54184,0.36899 C2.34504,0.65912 0.65912,2.34504 0.36899,4.54184 C0.16953,6.05208 0,7.94127 0,10 C0,12.0587 0.16953,13.9479 0.36899,15.4582 C0.65912,17.655 2.34504,19.3409 4.54184,19.631 C6.05208,19.8305 7.94127,20 10,20 C12.0587,20 13.9479,19.8305 15.4582,19.631 C17.655,19.3409 19.3409,17.655 19.631,15.4582 C19.8305,13.9479 20,12.0587 20,10 C20,7.94127 19.8305,6.05208 19.631,4.54184 C19.3409,2.34504 17.655,0.65912 15.4582,0.36899 C13.9479,0.16953 12.0587,0 10,0 C7.94127,0 6.05208,0.16953 4.54184,0.36899 Z" id="Path"></path>
                                <path d="M10,15 C10.5523,15 11,14.5523 11,14 L11,11 L14,11 C14.5523,11 15,10.5523 15,10 C15,9.4477 14.5523,9 14,9 L11,9 L11,6 C11,5.44772 10.5523,5 10,5 C9.4477,5 9,5.44772 9,6 L9,9 L6,9 C5.44772,9 5,9.4477 5,10 C5,10.5523 5.44771,11 6,11 L9,11 L9,14 C9,14.5523 9.4477,15 10,15 Z" id="Path" fill="#16161F"></path>
                            </g>
                        </g>
                    </g>
                </g>
            </g>
        </g>
    </g>
</svg>