<?xml version="1.0" encoding="UTF-8"?>
<svg width="22px" height="18px" viewBox="0 0 22 18" version="1.1" xmlns="http://www.w3.org/2000/svg" xmlns:xlink="http://www.w3.org/1999/xlink">
    <title>Bottom/Icon Copy 11</title>
    <g id="Local-HUB-(FB)" stroke="none" stroke-width="1" fill="none" fill-rule="evenodd">
        <g id="Home/Local-Hub/Main" transform="translate(-700.000000, -379.000000)">
            <g id="Bottom/Icon-Copy-11" transform="translate(692.000000, 369.000000)">
                <path d="M15.3833112,-6.21504185e-16 L22.6166888,6.21504185e-16 C27.9658012,-3.61111829e-16 29.9055187,0.556953667 31.8610742,1.60279622 C33.8166298,2.64863878 35.3513612,4.18337022 36.3972038,6.13892578 C37.4430463,8.09448133 38,10.0341988 38,15.3833112 L38,22.6166888 C38,27.9658012 37.4430463,29.9055187 36.3972038,31.8610742 C35.3513612,33.8166298 33.8166298,35.3513612 31.8610742,36.3972038 C29.9055187,37.4430463 27.9658012,38 22.6166888,38 L15.3833112,38 C10.0341988,38 8.09448133,37.4430463 6.13892578,36.3972038 C4.18337022,35.3513612 2.64863878,33.8166298 1.60279622,31.8610742 C0.556953667,29.9055187 2.4074122e-16,27.9658012 -4.14336123e-16,22.6166888 L4.14336123e-16,15.3833112 C-2.4074122e-16,10.0341988 0.556953667,8.09448133 1.60279622,6.13892578 C2.64863878,4.18337022 4.18337022,2.64863878 6.13892578,1.60279622 C8.09448133,0.556953667 10.0341988,3.61111829e-16 15.3833112,-6.21504185e-16 Z" id="BG"></path>
                <g id="Group" transform="translate(4.000000, 4.000000)" fill="#16161f">
                    <g id="Video" transform="translate(4.000000, 6.000000)">
                        <path d="M4.54525,0.39358 C2.34649,0.66842 0.64953,2.34244 0.34056,4.53666 C0.15369,5.86378 0,7.4319 0,9 C0,10.5681 0.15369,12.1362 0.34056,13.4633 C0.64953,15.6576 2.34649,17.3316 4.54525,17.6064 C6.22455,17.8163 8.42861,18 11,18 C13.5714,18 15.7755,17.8163 17.4547,17.6064 C19.6535,17.3316 21.3505,15.6576 21.6594,13.4633 C21.8463,12.1362 22,10.5681 22,9 C22,7.4319 21.8463,5.86378 21.6594,4.53666 C21.3505,2.34244 19.6535,0.66842 17.4547,0.39358 C15.7755,0.18367 13.5714,0 11,0 C8.4286,0 6.22455,0.18367 4.54525,0.39358 Z" id="Path" opacity="0.2"></path>
                        <path d="M14.6432,8.1521 L9.53,4.95634 C8.86395,4.54005 8,5.0189 8,5.80433 L8,12.1958 C8,12.9813 8.86395,13.4601 9.53,13.0438 L14.6432,9.8481 C15.2699,9.4564 15.2699,8.5438 14.6432,8.1521 Z" id="Path"></path>
                    </g>
                </g>
            </g>
        </g>
    </g>
</svg>