<?xml version="1.0" encoding="UTF-8"?>
<svg width="20px" height="20px" viewBox="0 0 20 20" version="1.1" xmlns="http://www.w3.org/2000/svg" xmlns:xlink="http://www.w3.org/1999/xlink">
    <title>Bottom/Icon Copy 19</title>
    <g id="Local-HUB-(FB)" stroke="none" stroke-width="1" fill="none" fill-rule="evenodd">
        <g id="Home/Local-Hub/Main" transform="translate(-836.000000, -378.000000)">
            <g id="Bottom/Icon-Copy-19" transform="translate(827.000000, 369.000000)">
                <path d="M15.3833112,-6.21504185e-16 L22.6166888,6.21504185e-16 C27.9658012,-3.61111829e-16 29.9055187,0.556953667 31.8610742,1.60279622 C33.8166298,2.64863878 35.3513612,4.18337022 36.3972038,6.13892578 C37.4430463,8.09448133 38,10.0341988 38,15.3833112 L38,22.6166888 C38,27.9658012 37.4430463,29.9055187 36.3972038,31.8610742 C35.3513612,33.8166298 33.8166298,35.3513612 31.8610742,36.3972038 C29.9055187,37.4430463 27.9658012,38 22.6166888,38 L15.3833112,38 C10.0341988,38 8.09448133,37.4430463 6.13892578,36.3972038 C4.18337022,35.3513612 2.64863878,33.8166298 1.60279622,31.8610742 C0.556953667,29.9055187 2.4074122e-16,27.9658012 -4.14336123e-16,22.6166888 L4.14336123e-16,15.3833112 C-2.4074122e-16,10.0341988 0.556953667,8.09448133 1.60279622,6.13892578 C2.64863878,4.18337022 4.18337022,2.64863878 6.13892578,1.60279622 C8.09448133,0.556953667 10.0341988,3.61111829e-16 15.3833112,-6.21504185e-16 Z" id="BG"></path>
                <g id="Group" transform="translate(4.000000, 4.000000)" fill="#1269FF">
                    <g id="Column-01-Average" transform="translate(5.000000, 5.000000)">
                        <path d="M16,8 C16,6.89543 16.8954,6 18,6 L18,6 C19.1046,6 20,6.89543 20,8 L20,18 C20,19.1046 19.1046,20 18,20 L18,20 C16.8954,20 16,19.1046 16,18 L16,8 Z" id="Path"></path>
                        <path d="M8,12 C8,10.8954 8.8954,10 10,10 L10,10 C11.1046,10 12,10.8954 12,12 L12,18 C12,19.1046 11.1046,20 10,20 L10,20 C8.8954,20 8,19.1046 8,18 L8,12 Z" id="Path"></path>
                        <path d="M0,2 C0,0.89543 0.89543,0 2,0 L2,0 C3.10457,0 4,0.89543 4,2 L4,18 C4,19.1046 3.10457,20 2,20 L2,20 C0.89543,20 0,19.1046 0,18 L0,2 Z" id="Path" opacity="0.2"></path>
                    </g>
                </g>
            </g>
        </g>
    </g>
</svg>