<?xml version="1.0" encoding="UTF-8"?>
<svg width="19px" height="22px" viewBox="0 0 19 22" version="1.1" xmlns="http://www.w3.org/2000/svg" xmlns:xlink="http://www.w3.org/1999/xlink">
    <title>Icon/Plus Square</title>
    <g id="Local-HUB-(FB)" stroke="none" stroke-width="1" fill="none" fill-rule="evenodd">
        <g id="Home/Local-Hub/PopUp-windows" transform="translate(-1082.000000, -347.000000)">
            <g id="Group-9" transform="translate(919.000000, 281.000000)">
                <g id="Bottom/Poll-" transform="translate(148.500000, 53.000000)">
                    <g id="File-Chart" transform="translate(15.000000, 13.000000)">
                        <path d="M0,3 C0,1.34315 1.34315,0 3,0 L12.7574,0 C13.553,0 14.3161,0.31607 14.8787,0.87868 L17.1213,3.12132 C17.6839,3.68393 18,4.44699 18,5.24264 L18,19 C18,20.6569 16.6569,22 15,22 L3,22 C1.34315,22 0,20.6569 0,19 L0,3 Z" id="Path" fill="#16161F" opacity="0.3"></path>
                        <path d="M8,11 C8,10.4477 8.4477,10 9,10 C9.5523,10 10,10.4477 10,11 L10,16 C10,16.5523 9.5523,17 9,17 C8.4477,17 8,16.5523 8,16 L8,11 Z" id="Path" fill="#16161F"></path>
                        <path d="M4,14 C4,13.4477 4.44772,13 5,13 C5.55229,13 6,13.4477 6,14 L6,16 C6,16.5523 5.55229,17 5,17 C4.44772,17 4,16.5523 4,16 L4,14 Z" id="Path" fill="#16161F"></path>
                        <path d="M13,12 C12.4477,12 12,12.4477 12,13 L12,16 C12,16.5523 12.4477,17 13,17 C13.5523,17 14,16.5523 14,16 L14,13 C14,12.4477 13.5523,12 13,12 Z" id="Path" fill="#16161F"></path>
                        <path d="M13.4978,0.04011 C13.2256,-0.006622 13,0.22387 13,0.50001 L13,4.00001 C13,4.55229 13.4477,5.00001 14,5.00001 L17.5,5.00001 C17.7761,5.00001 18.0066,4.77437 17.9599,4.50221 C17.8903,4.09715 17.7242,3.72417 17.4142,3.41422 L14.5858,0.5858 C14.2758,0.27585 13.9029,0.10967 13.4978,0.04011 Z" id="Path" fill="#16161F"></path>
                    </g>
                </g>
            </g>
        </g>
    </g>
</svg>