<?xml version="1.0" encoding="UTF-8"?>
<svg width="21px" height="20px" viewBox="0 0 21 20" version="1.1" xmlns="http://www.w3.org/2000/svg" xmlns:xlink="http://www.w3.org/1999/xlink">
    <title>Icon/Plus Square</title>
    <g id="Local-HUB-(FB)" stroke="none" stroke-width="1" fill="none" fill-rule="evenodd">
        <g id="Home/Local-Hub/PopUp-windows" transform="translate(-985.000000, -300.000000)">
            <g id="Group-9" transform="translate(919.000000, 281.000000)">
                <g id="Bottom/Create-Album" transform="translate(52.500000, 5.000000)">
                    <g id="Group" transform="translate(9.000000, 9.000000)">
                        <g id="Image" transform="translate(5.000000, 5.000000)">
                            <path d="M0.45153,3.94826 C0.71842,2.12109 2.12109,0.71842 3.94826,0.45153 C5.54228,0.21869 7.6618,0 10,0 C12.3382,0 14.4577,0.21869 16.0517,0.45153 C17.8789,0.71842 19.2816,2.12109 19.5485,3.94826 C19.7813,5.54228 20,7.6618 20,10 C20,12.3382 19.7813,14.4577 19.5485,16.0517 C19.2816,17.8789 17.8789,19.2816 16.0517,19.5485 C14.4577,19.7813 12.3382,20 10,20 C7.6618,20 5.54228,19.7813 3.94826,19.5485 C2.12109,19.2816 0.71842,17.8789 0.45153,16.0517 C0.21869,14.4577 0,12.3382 0,10 C0,7.6618 0.21869,5.54228 0.45153,3.94826 Z" id="Path" fill="#1269FF" opacity="0.3"></path>
                            <path d="M6,8 C7.10457,8 8,7.10457 8,6 C8,4.89543 7.10457,4 6,4 C4.89543,4 4,4.89543 4,6 C4,7.10457 4.89543,8 6,8 Z" id="Path" fill="#1269FF"></path>
                            <path d="M19.6642,15.2016 C19.7024,14.8989 19.5962,14.5963 19.3805,14.3806 L15.4143,10.4144 C14.6332,9.6334 13.3669,9.6334 12.5858,10.4144 L9.7072,13.2931 C9.3166,13.6836 8.6835,13.6836 8.293,13.2931 L7.41427,12.4144 C6.63322,11.6334 5.36689,11.6334 4.58584,12.4144 L0.93337,16.0669 C0.68517,16.3151 0.57669,16.679 0.70674,17.005 C1.24439,18.3529 2.45448,19.3303 3.94832,19.5485 C5.54234,19.7813 7.66186,20 10.0001,20 C12.3383,20 14.4578,19.7813 16.0518,19.5485 C17.879,19.2816 19.2816,17.8789 19.5485,16.0517 C19.5878,15.7828 19.6267,15.499 19.6642,15.2016 Z" id="Path" fill="#1269FF"></path>
                        </g>
                    </g>
                </g>
            </g>
        </g>
    </g>
</svg>