<?xml version="1.0" encoding="UTF-8"?>
<svg width="21px" height="20px" viewBox="0 0 21 20" version="1.1" xmlns="http://www.w3.org/2000/svg" xmlns:xlink="http://www.w3.org/1999/xlink">
    <title>Icon/Plus Square</title>
    <g id="Local-HUB-(FB)" stroke="none" stroke-width="1" fill="none" fill-rule="evenodd">
        <g id="Home/Local-Hub/PopUp-windows" transform="translate(-1037.000000, -400.000000)" fill="#1269FF">
            <g id="Group-32-Copy" transform="translate(658.000000, 175.000000)">
                <g id="Bottom/Gif" transform="translate(365.500000, 211.000000)">
                    <g id="Icon/Plus-Square" transform="translate(14.000000, 14.000000)">
                        <rect id="Rectangle" opacity="0.3" x="0" y="0" width="20" height="20" rx="7"></rect>
                        <path d="M5.4,13.2 C6.11,13.2 6.6,12.98 6.95,12.75 C7.15,12.62 7.32,12.47 7.45,12.3 L7.5,12.3 L7.53798263,12.6038611 C7.57341244,12.8872995 7.81435578,13.1 8.1,13.1 C8.37614237,13.1 8.6,12.8761424 8.6,12.6 L8.6,10.4 C8.6,9.84771525 8.15228475,9.4 7.6,9.4 L6.05,9.4 C5.77385763,9.4 5.55,9.62385763 5.55,9.9 C5.55,10.1761424 5.77385763,10.4 6.05,10.4 L7.3,10.4 L7.3,10.4 L7.3,10.45 C7.3,10.9 6.7,11.95 5.4,11.95 C4.2,11.95 3.3,11.04 3.3,9.6 C3.3,8.16 4.2,7.25 5.4,7.25 C6.34,7.25 6.9,7.85 7.2,8.5 C7.38864572,8.88165972 8.61438652,8.72982754 8.55,8.5 C8.31,7.4 7.29,6 5.4,6 C3.51,6 2,7.49 2,9.6 C2,11.71 3.51,13.2 5.4,13.2 Z M11.25,12.45 L11.25,6.75 C11.25,6.39101491 10.9589851,6.1 10.6,6.1 C10.2410149,6.1 9.95,6.39101491 9.95,6.75 L9.95,12.45 C9.95,12.8089851 10.2410149,13.1 10.6,13.1 C10.9589851,13.1 11.25,12.8089851 11.25,12.45 Z M14.05,12.45 L14.05,10.2 L14.05,10.2 L16.55,10.2 C16.8813708,10.2 17.15,9.93137085 17.15,9.6 C17.15,9.26862915 16.8813708,9 16.55,9 L14.05,9 L14.05,9 L14.05,7.3 L16.8,7.3 C17.1313708,7.3 17.4,7.03137085 17.4,6.7 C17.4,6.36862915 17.1313708,6.1 16.8,6.1 L13.75,6.1 C13.1977153,6.1 12.75,6.54771525 12.75,7.1 L12.75,12.45 C12.75,12.8089851 13.0410149,13.1 13.4,13.1 C13.7589851,13.1 14.05,12.8089851 14.05,12.45 Z" id="GIF"></path>
                    </g>
                </g>
            </g>
        </g>
    </g>
</svg>