<?xml version="1.0" encoding="UTF-8"?>
<svg width="22px" height="21px" viewBox="0 0 22 21" version="1.1" xmlns="http://www.w3.org/2000/svg" xmlns:xlink="http://www.w3.org/1999/xlink">
    <title>Icon/Plus Square</title>
    <g id="Local-HUB-(FB)" stroke="none" stroke-width="1" fill="none" fill-rule="evenodd">
        <g id="Home/Local-Hub/PopUp-windows" transform="translate(-985.000000, -348.000000)">
            <g id="Group-9" transform="translate(919.000000, 281.000000)">
                <g id="Bottom/Colored-Post" transform="translate(52.500000, 53.000000)">
                    <g id="Paint-Bucket" transform="translate(14.000000, 14.000000)">
                        <path d="M4.49998,1.50004 C6.29283,-0.29281 9.1189,-0.4228 11.0615,1.11008 C11.3818,1.36283 11.6631,1.66091 11.9502,1.95004 L20.6787,10.6786 C20.9424,10.9423 21.0192,11.2934 20.9465,11.6089 C20.8635,11.9692 20.5853,12.2829 20.1677,12.3664 L17.2968,12.9406 C17.1032,12.9793 16.9254,13.0745 16.7858,13.2141 L10.4142,19.5858 C9.6331,20.3668 8.36678,20.3668 7.58573,19.5858 L1.41416,13.4142 C0.63311,12.6332 0.63311,11.3668 1.41416,10.5858 C2.2879,9.712 3.16159,8.8382 4.03534,7.96448 C2.5819,6.02573 2.73678,3.26324 4.49998,1.50004 Z M5.47443,6.52539 L9.5253,2.47449 C8.39087,1.7881 6.89376,1.93469 5.9142,2.91425 C4.93463,3.89382 4.78804,5.39093 5.47443,6.52539 Z" id="Shape" fill="#16161F" opacity="0.3"></path>
                        <path d="M13.7928,15 C14.2383,15 14.4614,15.5386 14.1464,15.8536 L10.4142,19.5858 C9.6331,20.3668 8.36679,20.3668 7.58574,19.5858 L3.8535,15.8536 C3.53852,15.5386 3.7616,15 4.20706,15 L13.7928,15 Z" id="Path" fill="#16161F"></path>
                        <path d="M21,18.0001 C21,19.1047 20.1046,20.0001 19,20.0001 C17.8954,20.0001 17,19.1047 17,18.0001 C17,16.8592 18.1571,15.7183 18.711,15.2374 C18.8788,15.0918 19.1212,15.0918 19.289,15.2374 C19.8429,15.7183 21,16.8592 21,18.0001 Z" id="Path" fill="#16161F"></path>
                    </g>
                </g>
            </g>
        </g>
    </g>
</svg>