<?xml version="1.0" encoding="UTF-8"?>
<svg width="30px" height="30px" viewBox="0 0 30 30" version="1.1" xmlns="http://www.w3.org/2000/svg" xmlns:xlink="http://www.w3.org/1999/xlink">
    <title>all_icon</title>
    <g id="all_icon" stroke="none" stroke-width="1" fill="none" fill-rule="evenodd">
        <g id="Shopping-Tag" transform="translate(5.000000, 5.000000)">
            <path d="M9.4142,1.17157 C10.1643,0.42143 11.1817,0 12.2426,0 L17.9999,0 C19.6568,0 20.9999,1.34315 20.9999,3 L20.9999,8.7574 C20.9999,9.8182 20.5785,10.8356 19.8284,11.5858 L12.1213,19.2929 C10.9497,20.4645 9.0502,20.4645 7.87862,19.2929 L1.70705,13.1213 C0.53547,11.9497 0.53548,10.0503 1.70705,8.8787 L9.4142,1.17157 Z M14,8 C14.5523,8 15,7.55228 15,7 C15,6.44772 14.5523,6 14,6 C13.4477,6 13,6.44772 13,7 C13,7.55228 13.4477,8 14,8 Z" id="Shape" fill="#1269FF" opacity="0.3"></path>
            <path d="M3.99991,6.58575 L14.4141,17 L12.9999,18.4142 L2.58569,7.99997 L3.99991,6.58575 Z M14,4 C15.6569,4 17,5.34315 17,7 C17,8.6569 15.6569,10 14,10 C12.3431,10 11,8.6569 11,7 C11,5.34315 12.3431,4 14,4 Z M14,6 C13.4477,6 13,6.44772 13,7 C13,7.55228 13.4477,8 14,8 C14.5523,8 15,7.55228 15,7 C15,6.44772 14.5523,6 14,6 Z" id="Shape" fill="#16161F"></path>
        </g>
    </g>
</svg>