<?xml version="1.0" encoding="UTF-8"?>
<svg width="30px" height="30px" viewBox="0 0 30 30" version="1.1" xmlns="http://www.w3.org/2000/svg" xmlns:xlink="http://www.w3.org/1999/xlink">
    <title>Apparel_icon</title>
    <g id="Apparel_icon" stroke="none" stroke-width="1" fill="none" fill-rule="evenodd">
        <g id="Icon/Plus-Square" transform="translate(2.000000, 5.000000)">
            <path d="M10,1 C10,0.44772 9.55228,-8.25667829e-05 9,-8.25667829e-05 L7,-8.25667829e-05 C5.89543,-8.25667829e-05 2.0944306,3.37551099 1.25652631,4 C0.418622021,4.62448901 0.435528994,8.97382962 1.25652631,8.97382962 C1.80385786,8.97382962 2.38501575,8.97382962 3,8.97382962 C3,9.55105583 3,9.97181262 3,10.2361 L3,18 C3,19.1046 3.89543,20 5,20 L21,20 C22.1046,20 23,19.1046 23,18 L23,10.2361 C23,9.96264219 23,9.49962043 23,8.84703472 C23.722206,8.84703472 24.3189648,8.84703472 24.7902761,8.84703472 C25.2784523,8.84703472 25.5571588,5.07920339 25.0298508,4.43053257 C24.5025427,3.78186175 20.1046,-8.25667829e-05 19,-8.25667829e-05 L17,-8.25667829e-05 C16.4477,-8.25667829e-05 16,0.44772 16,1 C16,2.65685 14.6569,4 13,4 C11.3431,4 10,2.65685 10,1 Z" id="Path" fill="#A7B4CB" opacity="0.6"></path>
            <path d="M3,17 L23,17 L23,18 C23,19.1045695 22.1045695,20 21,20 L5,20 C3.8954305,20 3,19.1045695 3,18 L3,17 L3,17 Z" id="Rectangle" fill="#16161F"></path>
        </g>
    </g>
</svg>