<?xml version="1.0" encoding="UTF-8"?>
<svg width="30px" height="30px" viewBox="0 0 30 30" version="1.1" xmlns="http://www.w3.org/2000/svg" xmlns:xlink="http://www.w3.org/1999/xlink">
    <title>Icon/At</title>
    <g id="Icon/At" stroke="none" stroke-width="1" fill="none" fill-rule="evenodd">
        <rect id="Rectangle" x="0" y="0" width="30" height="30"></rect>
        <g id="At" transform="translate(5.000000, 5.000000)">
            <path d="M10,2 C5.58172,2 2,5.58172 2,10 C2,14.4183 5.58172,18 10,18 C11.279,18 12.4852,17.7006 13.555,17.169 C14.0495,16.9232 14.6497,17.1249 14.8955,17.6194 C15.1413,18.114 14.9396,18.7142 14.445,18.96 C13.1049,19.626 11.5947,20 10,20 C4.47715,20 0,15.5228 0,10 C0,4.47715 4.47715,0 10,0 C15.5228,0 20,4.47715 20,10 L20,10.0089 C20,10.2812 20.0003,11.4115 19.6362,12.5037 C19.4504,13.0611 19.1472,13.68 18.6362,14.1683 C18.1013,14.6794 17.3862,15 16.5,15 C15.9477,15 15.5,14.5523 15.5,14 C15.5,13.4477 15.9477,13 16.5,13 C16.8638,13 17.0862,12.8831 17.2545,12.7223 C17.4466,12.5388 17.6121,12.2514 17.7388,11.8713 C17.9956,11.1009 18,10.2444 18,10 C18,5.58172 14.4183,2 10,2 Z" id="Path" fill="#A7B4CB" opacity="0.6"></path>
            <path d="M13,10 C13,11.6569 11.6569,13 10,13 C8.3431,13 7,11.6569 7,10 C7,8.3431 8.3431,7 10,7 C11.6569,7 13,8.3431 13,10 Z M13.7505,13.3067 C12.8343,14.345 11.4937,15 10,15 C7.23858,15 5,12.7614 5,10 C5,7.23858 7.23858,5 10,5 C11.1256,5 12.1643,5.37195 13,5.99964 C13.0002,5.44752 13.4478,5 14,5 C14.5523,5 15,5.44772 15,6 C15,8.5531 15.0062,10.415 15.2876,11.6534 C15.4253,12.2591 15.6032,12.5838 15.7695,12.7538 C15.902,12.8892 16.0962,13 16.5,13 C17.0523,13 17.5,13.4477 17.5,14 C17.5,14.5523 17.0523,15 16.5,15 C15.6538,15 14.9105,14.7358 14.3399,14.1524 C14.0971,13.9043 13.9047,13.6175 13.7505,13.3067 Z" id="Shape" fill="#16161F"></path>
        </g>
    </g>
</svg>