<?xml version="1.0" encoding="UTF-8"?>
<svg width="30px" height="30px" viewBox="0 0 30 30" version="1.1" xmlns="http://www.w3.org/2000/svg" xmlns:xlink="http://www.w3.org/1999/xlink">
    <title>Beauty_icon</title>
    <g id="Beauty_icon" stroke="none" stroke-width="1" fill="none" fill-rule="evenodd">
        <g id="Group" transform="translate(6.000000, 4.000000)">
            <path d="M10,11 C10,9.8954 10.8954,9 12,9 L16,9 C17.1046,9 18,9.8954 18,11 L18,20 C18,21.1046 17.1046,22 16,22 L12,22 C10.8954,22 10,21.1046 10,20 L10,11 Z" id="Path" fill="#A7B4CB" opacity="0.6"></path>
            <path d="M2,7 C1.44772,7 1,7.44772 1,8 L1,12.2676 C0.4022,12.6134 0,13.2597 0,14 L0,20 C0,21.1046 0.89543,22 2,22 L6,22 C7.1046,22 8,21.1046 8,20 L8,14 C8,13.2597 7.5978,12.6134 7,12.2676 L7,8 C7,7.44772 6.55228,7 6,7 L2,7 Z" id="Path" fill="#A7B4CB" opacity="0.6"></path>
            <path d="M2,3 C2,1.34315 3.34315,0 5,0 C5.55228,0 6,0.44772 6,1 L6,7 L2,7 L2,3 Z" id="Path" fill="#16161F"></path>
        </g>
    </g>
</svg>