<?xml version="1.0" encoding="UTF-8"?>
<svg width="30px" height="30px" viewBox="0 0 30 30" version="1.1" xmlns="http://www.w3.org/2000/svg" xmlns:xlink="http://www.w3.org/1999/xlink">
    <title>blog_hub</title>
    <defs>
        <linearGradient x1="77.0347062%" y1="0%" x2="29.8138619%" y2="120.835053%" id="linearGradient-1">
            <stop stop-color="#5E5E5E" offset="0%"></stop>
            <stop stop-color="#161514" offset="100%"></stop>
        </linearGradient>
        <linearGradient x1="68.6755151%" y1="-11.7355238%" x2="50%" y2="100%" id="linearGradient-2">
            <stop stop-color="#FFF4DC" offset="0%"></stop>
            <stop stop-color="#EDB134" offset="100%"></stop>
        </linearGradient>
        <linearGradient x1="77.0340928%" y1="0%" x2="29.8143199%" y2="120.835053%" id="linearGradient-3">
            <stop stop-color="#5E5E5E" offset="0%"></stop>
            <stop stop-color="#161514" offset="100%"></stop>
        </linearGradient>
    </defs>
    <g id="blog_hub" stroke="none" stroke-width="1" fill="none" fill-rule="evenodd">
        <g id="Pen" transform="translate(5.000000, 5.000000)">
            <path d="M12.0858,19.0858 L11,18 L18,11 L19.0858,12.0858 C19.8668,12.8668 19.8668,14.1332 19.0858,14.9142 L14.9142,19.0858 C14.1332,19.8668 12.8668,19.8668 12.0858,19.0858 Z" id="Path" fill="url(#linearGradient-1)"></path>
            <path d="M1.53051,10.7138 L0.37708,2.63982 C0.18852,1.31989 1.31989,0.18852 2.63982,0.37708 L10.7138,1.53051 C12.7585,1.82261 14.5093,3.1459 15.3481,5.03337 L18,11 L11,18 L5.03337,15.3481 C3.1459,14.5093 1.82261,12.7585 1.53051,10.7138 Z" id="Path" fill="url(#linearGradient-2)"></path>
            <path d="M7.06775,8.4819 L0.42395,1.83811 C0.60811,1.15188 1.15189,0.60805 1.83809,0.42383 L8.482,7.06773 C8.6472,7.02355 8.8209,7 9,7 C10.1046,7 11,7.89543 11,9 C11,10.1046 10.1046,11 9,11 C7.89543,11 7,10.1046 7,9 C7,8.8208 7.02356,8.6472 7.06775,8.4819 Z" id="Path" fill="url(#linearGradient-3)"></path>
        </g>
    </g>
</svg>