<?xml version="1.0" encoding="UTF-8"?>
<svg width="16px" height="20px" viewBox="0 0 16 20" version="1.1" xmlns="http://www.w3.org/2000/svg" xmlns:xlink="http://www.w3.org/1999/xlink">
    <title>bookmark_icon</title>
    <defs>
        <linearGradient x1="74.1010258%" y1="46.9288926%" x2="28.6720634%" y2="53.6315079%" id="linearGradient-1">
            <stop stop-color="#69BFFF" offset="0%"></stop>
            <stop stop-color="#4545EA" offset="100%"></stop>
        </linearGradient>
    </defs>
    <g id="Global-HUB-(twitter)" stroke="none" stroke-width="1" fill="none" fill-rule="evenodd">
        <g id="Home/GlobalHub/Expanded-Copy" transform="translate(-33.000000, -403.000000)">
            <g id="Group-3" transform="translate(0.000000, 138.000000)">
                <g id="Bottom/Icon-Copy-12" transform="translate(17.000000, 251.000000)">
                    <path d="M12.819426,-1.42475429e-15 L35.180574,5.17920154e-16 C39.6381677,-3.00926524e-16 41.2545989,0.464128056 42.8842285,1.33566352 C44.5138581,2.20719898 45.792801,3.48614185 46.6643365,5.11577148 C47.5358719,6.74540111 48,8.3618323 48,12.819426 L48,35.180574 C48,39.6381677 47.5358719,41.2545989 46.6643365,42.8842285 C45.792801,44.5138581 44.5138581,45.792801 42.8842285,46.6643365 C41.2545989,47.5358719 39.6381677,48 35.180574,48 L12.819426,48 C8.3618323,48 6.74540111,47.5358719 5.11577148,46.6643365 C3.48614185,45.792801 2.20719898,44.5138581 1.33566352,42.8842285 C0.464128056,41.2545989 7.27514433e-16,39.6381677 -1.25211424e-15,35.180574 L3.45280103e-16,12.819426 C-2.00617683e-16,8.3618323 0.464128056,6.74540111 1.33566352,5.11577148 C2.20719898,3.48614185 3.48614185,2.20719898 5.11577148,1.33566352 C6.74540111,0.464128056 8.3618323,8.27823274e-16 12.819426,-1.42475429e-15 Z" id="BG"></path>
                    <g id="Group" transform="translate(9.000000, 9.000000)">
                        <g id="Bookmark" transform="translate(7.000000, 5.000000)">
                            <path d="M3.38768993,0.134288109 C1.59707554,0.250738336 0.264357024,1.62007925 0.158169768,3.43360321 C0.0720892894,4.90389646 0,7.00056754 0,9.8999343 C0,14.4229443 0.175352085,17.5252237 0.305770588,19.2069525 C0.358313102,19.884378 1.10687726,20.2263758 1.6552092,19.8345184 L7.48741937,15.666286 C7.79470997,15.4465975 8.20529003,15.4465975 8.51258063,15.666286 L14.3447908,19.8345184 C14.8931494,20.2263758 15.6416869,19.884378 15.6942205,19.2069525 C15.8246212,17.5252237 16,14.4229443 16,9.8999343 C16,7.00047754 15.9279996,4.90377046 15.8418658,3.43346822 C15.735643,1.62000725 14.4030134,0.250747336 12.6124256,0.134297109 C11.4548192,0.0590126084 9.93143295,0 7.99995556,0 C6.06865594,0 4.54529636,0.0590126084 3.38768993,0.134288109 Z" id="Path" fill="#1269FF" opacity="0.3"></path>
                            <path d="M3.30037033,0.14921 C1.47585628,0.2786 0.117897864,1.8001 0.00970934241,3.81514 C0.00644874235,3.8758 0.00321531395,3.93741 0,4 C1.65997149,4 14.3400829,4 16,4 C15.99683,3.93736 15.9935694,3.8757 15.9903088,3.81499 C15.882075,1.80002 14.5242162,0.27861 12.6997293,0.14922 C11.5202072,0.06557 9.96798045,0 8.00002717,0 C6.03208295,0 4.47988334,0.06557 3.30037033,0.14921 Z" id="Path" fill="url(#linearGradient-1)"></path>
                        </g>
                    </g>
                </g>
            </g>
        </g>
    </g>
</svg>