<?xml version="1.0" encoding="UTF-8"?>
<svg width="26px" height="22px" viewBox="0 0 26 22" version="1.1" xmlns="http://www.w3.org/2000/svg" xmlns:xlink="http://www.w3.org/1999/xlink">
    <title>Fill 70</title>
    <g id="Local-HUB-(FB)" stroke="none" stroke-width="1" fill="none" fill-rule="evenodd">
        <g id="Home/Local-Hub/PopUp-windows" transform="translate(-1304.000000, -1078.000000)" fill="#1269FF">
            <g id="Share-Social-Network" transform="translate(1190.000000, 1013.000000)">
                <path d="M130.8675,79.391 C129.89575,79.391 129.079187,78.602875 129.079187,77.631125 C129.079187,76.659375 129.89575,75.84525 130.8675,75.84525 C131.83925,75.84525 132.627375,76.659375 132.627375,77.631125 C132.627375,78.602875 131.83925,79.391 130.8675,79.391 M131.28025,82.80675 C130.375125,83.7110625 128.97925,84.150625 127.013,84.150625 C127.008938,84.150625 127.004063,84.1498125 126.999187,84.1498125 C126.995125,84.1498125 126.99025,84.150625 126.985375,84.150625 C125.019125,84.150625 123.624062,83.7110625 122.71975,82.80675 C122.441875,82.528875 122.441875,82.0795625 122.71975,81.8025 C122.996813,81.5254375 123.446125,81.5254375 123.724,81.8025 C124.348,82.4265 125.414812,82.730375 126.985375,82.730375 C126.99025,82.730375 126.995125,82.7311875 126.999187,82.7311875 C127.004063,82.7311875 127.008938,82.730375 127.013,82.730375 C128.583562,82.730375 129.651187,82.4265 130.276,81.8025 C130.553875,81.524625 131.003187,81.5254375 131.28025,81.8025 C131.557312,82.080375 131.557312,82.5296875 131.28025,82.80675 M121.372625,77.631125 C121.372625,76.6601875 122.187562,75.84525 123.1585,75.84525 C124.13025,75.84525 124.918375,76.6601875 124.918375,77.631125 C124.918375,78.602875 124.13025,79.391 123.1585,79.391 C122.187562,79.391 121.372625,78.602875 121.372625,77.631125 M135.6645,66.42025 C136.322625,66.42025 136.858062,66.9556875 136.858062,67.613 C136.858062,68.271125 136.322625,68.8065625 135.6645,68.8065625 C135.006375,68.8065625 134.470937,68.271125 134.470937,67.613 C134.470937,66.9556875 135.006375,66.42025 135.6645,66.42025 M140,75.6981875 C140,73.974875 138.598437,72.5733125 136.875125,72.5733125 C136.12925,72.5733125 135.444312,72.8365625 134.906438,73.2745 C133.001125,72.076875 130.583125,71.355375 127.99125,71.202625 L129.34325,66.9280625 L133.058812,67.803125 C133.156313,69.1559375 134.287313,70.2268125 135.6645,70.2268125 C137.105063,70.2268125 138.2775,69.054375 138.2775,67.613 C138.2775,66.1724375 137.105063,65 135.6645,65 C134.657,65 133.781125,65.573625 133.344812,66.4113125 L129.027187,65.394875 C128.665625,65.3095625 128.3,65.5175625 128.187875,65.8718125 L126.50925,71.1774375 C123.716688,71.2456875 121.0915,71.969625 119.046437,73.237125 C118.515875,72.8219375 117.848813,72.5733125 117.124875,72.5733125 C115.401562,72.5733125 114,73.974875 114,75.6981875 C114,76.763375 114.53625,77.7050625 115.352812,78.2689375 C115.318687,78.51675 115.300813,78.7661875 115.300813,79.018875 C115.300813,81.1728125 116.552875,83.1764375 118.82625,84.6600625 C121.005375,86.08275 123.88975,86.866 126.947187,86.866 C130.004625,86.866 132.889,86.08275 135.068125,84.6600625 C137.3415,83.1764375 138.593562,81.1728125 138.593562,79.018875 C138.593562,78.7889375 138.578125,78.560625 138.549688,78.3339375 C139.420688,77.779 140,76.8048125 140,75.6981875" id="Fill-70"></path>
            </g>
        </g>
    </g>
</svg>