<svg id="Layer_1" data-name="Layer 1" xmlns="http://www.w3.org/2000/svg" xmlns:xlink="http://www.w3.org/1999/xlink" viewBox="0 0 24 24"><defs><style>.cls-1{fill:#f6f6f6;}.cls-2{clip-path:url(#clip-path);}.cls-3,.cls-4,.cls-5{fill:none;stroke:#181716;stroke-width:1.5px;}.cls-3{stroke-linecap:round;stroke-linejoin:round;}.cls-3,.cls-5{fill-rule:evenodd;}.cls-4,.cls-5{stroke-miterlimit:10;}</style><clipPath id="clip-path"><rect class="cls-1" x="-133.93" y="50.07" width="24" height="24"/></clipPath></defs><title>Cloud_Icons</title><rect class="cls-1" x="-133.93" y="50.07" width="24" height="24"/><path class="cls-3" d="M21.07,8.77a4,4,0,0,0-.25-1.36L19.49,3.9a1.53,1.53,0,0,0-1.36-.83H6a1.5,1.5,0,0,0-1.35.83L3.32,7.41a3.72,3.72,0,0,0-.25,1.36v11a1.3,1.3,0,0,0,1.3,1.3h15.4a1.3,1.3,0,0,0,1.3-1.3Z"/><rect class="cls-4" x="10.07" y="7.07" width="4" height="6"/><path class="cls-5" d="M3.07,9.15A2,2,0,0,1,4.92,7.07h14.3a2,2,0,0,1,1.85,2.08"/></svg>