<svg id="Layer_1" data-name="Layer 1" xmlns="http://www.w3.org/2000/svg" xmlns:xlink="http://www.w3.org/1999/xlink" viewBox="0 0 24 24"><defs><clipPath id="clip-path"><rect class="cls-1" x="-81.93" y="109.07" width="24" height="24"/></clipPath></defs><title>Cloud_Icons</title><rect class="cls-1" x="-81.93" y="109.07" width="24" height="24"/><path class="cls-3" d="M20.36,6.57a.21.21,0,0,1,.21.21V17.36a.22.22,0,0,1-.21.21H3.78a.21.21,0,0,1-.21-.21V6.78a.21.21,0,0,1,.21-.21H20.36m0-1.5H3.78A1.7,1.7,0,0,0,2.07,6.78V17.36a1.71,1.71,0,0,0,1.71,1.71H20.36a1.72,1.72,0,0,0,1.71-1.71V6.78a1.71,1.71,0,0,0-1.71-1.71Z"/><polyline class="cls-4" points="2.44 6.57 12.07 12.6 21.69 6.57"/></svg>