<svg id="Layer_1" data-name="Layer 1" xmlns="http://www.w3.org/2000/svg" viewBox="0 0 24 24"><defs><style>.cls-1{fill:none;stroke:#181716;stroke-miterlimit:10;stroke-width:1.5px;}.cls-2{fill:#181716;}</style></defs><title>Cloud_Icons</title><line class="cls-1" x1="20.07" y1="21.04" x2="4.07" y2="21.04"/><path class="cls-2" d="M13.07,8.41,14.7,10l-7.5,7.5H5.57V15.91l7.5-7.5m0-2.12-9,9V19H7.82l9-9L13.07,6.29Z"/><path class="cls-2" d="M17.07,4.14,18.7,5.77l-.88.88L16.19,5l.88-.88m0-1.6a1.23,1.23,0,0,0-.89.37L14.07,5l3.75,3.75,2.11-2.11a1.26,1.26,0,0,0,0-1.78l-2-2a1.21,1.21,0,0,0-.88-.37Z"/></svg>