<svg id="Layer_1" data-name="Layer 1" xmlns="http://www.w3.org/2000/svg" xmlns:xlink="http://www.w3.org/1999/xlink" viewBox="0 0 24 24"><defs><clipPath id="clip-path"><rect class="cls-1" x="-81.93" y="-9.93" width="24" height="24"/></clipPath></defs><title>Cloud_Icons</title><rect class="cls-1" x="-81.93" y="-9.93" width="24" height="24"/><path class="cls-3" d="M12.07,4.12a.75.75,0,0,1,.73.53l1.36,4.18a.78.78,0,0,0,.74.54h4.39a.78.78,0,0,1,.46,1.4l-3.56,2.58a.79.79,0,0,0-.28.87l1.36,4.17a.78.78,0,0,1-.74,1,.72.72,0,0,1-.45-.15l-3.56-2.58a.74.74,0,0,0-.45-.15.79.79,0,0,0-.46.15L8.06,19.26a.74.74,0,0,1-.45.15.77.77,0,0,1-.74-1l1.35-4.17a.77.77,0,0,0-.28-.87L4.39,10.77a.77.77,0,0,1,.45-1.4h4.4A.77.77,0,0,0,10,8.83l1.36-4.18a.77.77,0,0,1,.74-.53m0-1.5A2.28,2.28,0,0,0,9.9,4.19L8.71,7.87H4.84A2.27,2.27,0,0,0,3.51,12l3.12,2.27L5.44,17.93a2.25,2.25,0,0,0,.32,2,2.29,2.29,0,0,0,1.85.94,2.23,2.23,0,0,0,1.33-.44l3.13-2.27,3.12,2.27a2.26,2.26,0,0,0,1.34.44,2.27,2.27,0,0,0,2.17-3l-1.2-3.68L20.63,12a2.27,2.27,0,0,0-1.34-4.11H15.43l-1.2-3.68a2.26,2.26,0,0,0-2.16-1.57Z"/></svg>