<svg id="Layer_1" data-name="Layer 1" xmlns="http://www.w3.org/2000/svg" viewBox="0 0 24 24"><defs><style>.cls-1{fill:#181716;}.cls-2{fill:none;stroke:#181716;stroke-miterlimit:10;stroke-width:1.5px;}</style></defs><title>Cloud_Icons</title><path class="cls-1" d="M18.11,6.54a.54.54,0,0,1,.46.19V19.34a.54.54,0,0,1-.46.2H6a.51.51,0,0,1-.45-.2V6.73A.51.51,0,0,1,6,6.54H18.11m0-1.5H6A1.83,1.83,0,0,0,4.07,6.73V19.34A1.84,1.84,0,0,0,6,21H18.11a1.84,1.84,0,0,0,2-1.7V6.73a1.84,1.84,0,0,0-2-1.69Z"/><line class="cls-2" x1="8.07" y1="3.04" x2="8.07" y2="7.04"/><line class="cls-2" x1="16.07" y1="3.04" x2="16.07" y2="7.04"/><line class="cls-2" x1="4.07" y1="9.04" x2="20.07" y2="9.04"/><rect class="cls-2" x="13.07" y="14.04" width="3" height="3"/></svg>