<svg id="Layer_1" data-name="Layer 1" xmlns="http://www.w3.org/2000/svg" xmlns:xlink="http://www.w3.org/1999/xlink" viewBox="0 0 24 24"><defs><style>.cls-1{fill:#f6f6f6;}.cls-2{clip-path:url(#clip-path);}.cls-3{fill:#181716;}.cls-4{fill:none;stroke:#181716;stroke-miterlimit:10;stroke-width:1.5px;}</style><clipPath id="clip-path"><rect class="cls-1" x="-133.93" y="-39.93" width="24" height="24"/></clipPath></defs><title>Cloud_Icons</title><rect class="cls-1" x="-133.93" y="-39.93" width="24" height="24"/><path class="cls-3" d="M9.57,5.57v4h-4v-4h4m.16-1.5H5.4A1.32,1.32,0,0,0,4.07,5.4V9.73A1.33,1.33,0,0,0,5.4,11.07H9.73a1.34,1.34,0,0,0,1.34-1.34V5.4A1.33,1.33,0,0,0,9.73,4.07Z"/><path class="cls-3" d="M9.57,14.57v4h-4v-4h4m.16-1.5H5.4A1.32,1.32,0,0,0,4.07,14.4v4.33A1.33,1.33,0,0,0,5.4,20.07H9.73a1.34,1.34,0,0,0,1.34-1.34V14.4a1.33,1.33,0,0,0-1.34-1.33Z"/><path class="cls-3" d="M18.57,5.57v4h-4v-4h4m.16-1.5H14.4A1.32,1.32,0,0,0,13.07,5.4V9.73a1.33,1.33,0,0,0,1.33,1.34h4.33a1.34,1.34,0,0,0,1.34-1.34V5.4a1.33,1.33,0,0,0-1.34-1.33Z"/><polyline class="cls-4" points="14.29 15.29 17.07 18.07 22.07 13.07"/></svg>