<?xml version="1.0" encoding="UTF-8"?>
<svg width="21px" height="18px" viewBox="0 0 21 18" version="1.1" xmlns="http://www.w3.org/2000/svg" xmlns:xlink="http://www.w3.org/1999/xlink">
    <title>Technology/Code</title>
    <g id="Style-Guide/Icons" stroke="none" stroke-width="1" fill="none" fill-rule="evenodd">
        <g id="Style-Guide-Copy" transform="translate(-1627.000000, -135.000000)" fill="#000000" fill-rule="nonzero">
            <g id="Group" transform="translate(1625.000000, 132.000000)">
                <path d="M21.0063063,5 L9.0063063,5 C8.73239135,5.03258033 8.45866299,4.93774811 8.26361059,4.74269571 C8.06855819,4.54764331 7.97372597,4.27391494 8.0063063,4 L8.0063063,4 C8.0063063,3.44771525 7.55859105,3 7.0063063,3 L3.0063063,3 C2.45402155,3 2.0063063,3.44771525 2.0063063,4 L2.0063063,20 C1.97372597,20.2739149 2.06855819,20.5476433 2.26361059,20.7426957 C2.45866299,20.9377481 2.73239135,21.0325803 3.0063063,21 L21.0063063,21 C21.2802212,21.0325803 21.5539496,20.9377481 21.749002,20.7426957 C21.9440544,20.5476433 22.0388866,20.2739149 22.0063063,20 L22.0063063,6 C22.0063063,5.44771525 21.558591,5 21.0063063,5 Z M9.7063063,16.7 C9.52886427,16.8986601 9.2725374,17.0085144 9.0063063,17 C8.74469497,16.9865401 8.49647471,16.88016 8.3063063,16.7 L5.3063063,13.7 C5.12614629,13.5098316 5.01976618,13.2616113 5.0063063,13 C4.99779186,12.7337689 5.10764624,12.477442 5.3063063,12.3 L8.3063063,9.3 C8.54107678,8.9869727 8.93684856,8.83962868 9.31916557,8.92291713 C9.70148259,9.00620559 10.0001007,9.30482371 10.0833892,9.68714073 C10.1666776,10.0694577 10.0193336,10.4652295 9.7063063,10.7 L7.4063063,13 L9.7063063,15.3 C10.0874492,15.6888435 10.0874492,16.3111565 9.7063063,16.7 L9.7063063,16.7 Z M18.7063063,13.7 L15.7063063,16.7 C15.5288643,16.8986601 15.2725374,17.0085144 15.0063063,17 C14.744695,16.9865401 14.4964747,16.88016 14.3063063,16.7 C13.9251634,16.3111565 13.9251634,15.6888435 14.3063063,15.3 L16.6063063,13 L14.3063063,10.7 C14.0077161,10.3018797 14.0473076,9.74478517 14.3991995,9.39289322 C14.7510915,9.04100126 15.308186,9.00140977 15.7063063,9.3 L18.7063063,12.3 C19.0874492,12.6888435 19.0874492,13.3111565 18.7063063,13.7 Z" id="Shape"></path>
                <g opacity="0.400000006" transform="translate(5.005846, 8.899961)" id="Path">
                    <path d="M2.40046073,4.10003911 L4.70046073,1.80003911 C5.01348803,1.56526864 5.16083205,1.16949685 5.07754359,0.787179838 C4.99425514,0.404862821 4.69563702,0.1062447 4.31332,0.022956245 C3.93100298,-0.0603322103 3.5352312,0.0870118109 3.30046073,0.400039112 L0.300460726,3.40003911 C0.101800663,3.57748114 -0.00805371146,3.83380801 0.000460726484,4.10003911 C0.0139206038,4.36165044 0.120300716,4.6098707 0.300460726,4.80003911 L3.30046073,7.80003911 C3.49062914,7.98019912 3.7388494,8.08657923 4.00046073,8.10003911 C4.26669183,8.10855355 4.5230187,7.99869918 4.70046073,7.80003911 C5.0816036,7.4111956 5.0816036,6.78888262 4.70046073,6.40003911 L2.40046073,4.10003911 Z"></path>
                    <path d="M13.7004607,3.40003911 L10.7004607,0.400039112 C10.3023404,0.101448886 9.7452459,0.141040375 9.39335395,0.492932331 C9.04146199,0.844824287 9.0018705,1.40191881 9.30046073,1.80003911 L11.6004607,4.10003911 L9.30046073,6.40003911 C8.91931785,6.78888262 8.91931785,7.4111956 9.30046073,7.80003911 C9.49062914,7.98019912 9.7388494,8.08657923 10.0004607,8.10003911 C10.2666918,8.10855355 10.5230187,7.99869918 10.7004607,7.80003911 L13.7004607,4.80003911 C14.0816036,4.4111956 14.0816036,3.78888262 13.7004607,3.40003911 Z"></path>
                </g>
            </g>
        </g>
    </g>
</svg>