<?xml version="1.0" encoding="UTF-8"?>
<svg width="19px" height="22px" viewBox="0 0 19 22" version="1.1" xmlns="http://www.w3.org/2000/svg" xmlns:xlink="http://www.w3.org/1999/xlink">
    <title>Icon/Plus Square</title>
    <g id="Local-HUB-(FB)" stroke="none" stroke-width="1" fill="none" fill-rule="evenodd">
        <g id="Home/Local-Hub/PopUp-windows" transform="translate(-1034.000000, -347.000000)">
            <g id="Group-9" transform="translate(919.000000, 281.000000)">
                <g id="Bottom/Write-Article" transform="translate(100.500000, 53.000000)">
                    <g id="File-Document" transform="translate(15.000000, 13.000000)">
                        <path d="M0,3 C0,1.34315 1.34315,0 3,0 L12.7574,0 C13.553,0 14.3161,0.31607 14.8787,0.87868 L17.1213,3.12132 C17.6839,3.68393 18,4.44699 18,5.24264 L18,19 C18,20.6569 16.6569,22 15,22 L3,22 C1.34315,22 0,20.6569 0,19 L0,3 Z" id="Path" fill="#A7B4CB" opacity="0.3"></path>
                        <path d="M12,0.89181 C12,0.39927 12.3993,0 12.8918,0 L12.8918,0 C13.6014,0 14.2819,0.28187 14.7836,0.78361 L17.2164,3.21639 C17.7181,3.71813 18,4.39863 18,5.10819 L18,5.10819 C18,5.60073 17.6007,6 17.1082,6 L13,6 C12.4477,6 12,5.55228 12,5 L12,0.89181 Z" id="Path" fill="#16161F"></path>
                        <path d="M6,11 C5.44771,11 5,11.4477 5,12 C5,12.5523 5.44771,13 6,13 L12,13 C12.5523,13 13,12.5523 13,12 C13,11.4477 12.5523,11 12,11 L6,11 Z" id="Path" fill="#16161F"></path>
                        <path d="M6,15 C5.44771,15 5,15.4477 5,16 C5,16.5523 5.44771,17 6,17 L9,17 C9.5523,17 10,16.5523 10,16 C10,15.4477 9.5523,15 9,15 L6,15 Z" id="Path" fill="#16161F"></path>
                    </g>
                </g>
            </g>
        </g>
    </g>
</svg>