<?xml version="1.0" encoding="UTF-8"?>
<svg width="30px" height="30px" viewBox="0 0 30 30" version="1.1" xmlns="http://www.w3.org/2000/svg" xmlns:xlink="http://www.w3.org/1999/xlink">
    <title>Computers_icon</title>
    <g id="Computers_icon" stroke="none" stroke-width="1" fill="none" fill-rule="evenodd">
        <g id="Monitor" transform="translate(5.000000, 5.000000)">
            <g id="Group" fill="#A7B4CB" opacity="0.6">
                <path d="M0,13 C0,14.6569 1.34315,16 3,16 L17,16 C18.6569,16 20,14.6569 20,13 L20,3 C20,1.34315 18.6569,0 17,0 L3,0 C1.34315,0 0,1.34315 0,3 L0,13 Z" id="Path"></path>
                <path d="M6,18 C5.44772,18 5,18.4477 5,19 C5,19.5523 5.44772,20 6,20 L14,20 C14.5523,20 15,19.5523 15,19 C15,18.4477 14.5523,18 14,18 L6,18 Z" id="Path"></path>
            </g>
            <path d="M5,4 C4.44772,4 4,4.44772 4,5 C4,5.55228 4.44772,6 5,6 L12,6 C12.5523,6 13,5.55228 13,5 C13,4.44772 12.5523,4 12,4 L5,4 Z" id="Path" fill="#1E1F20"></path>
            <path d="M5,8 C4.44772,8 4,8.4477 4,9 C4,9.5523 4.44772,10 5,10 L7,10 C7.55229,10 8,9.5523 8,9 C8,8.4477 7.55229,8 7,8 L5,8 Z" id="Path" fill="#1E1F20"></path>
        </g>
    </g>
</svg>