<?xml version="1.0" encoding="UTF-8"?>
<svg width="22px" height="14px" viewBox="0 0 22 14" version="1.1" xmlns="http://www.w3.org/2000/svg" xmlns:xlink="http://www.w3.org/1999/xlink">
    <title>!Icons/Apps Copy 37</title>
    <g id="Style-Guide/Icons" stroke="none" stroke-width="1" fill="none" fill-rule="evenodd">
        <g id="Icons" transform="translate(-283.000000, -1306.000000)">
            <g id="Group" transform="translate(279.000000, 1298.000000)">
                <rect id="Rectangle" x="0" y="0" width="30" height="30"></rect>
                <rect id="Rectangle" fill="#A7B4CB" opacity="0.6" x="4" y="8" width="22" height="14" rx="3"></rect>
                <path d="M4.41786128,17.0013148 C6.85474035,17.2022821 8.79770127,19.1452445 8.99868598,21.582182 C9.01765422,21.812241 8.82869916,22 8.59785348,22 L7.76188012,22 C7.53103443,22 7.34663543,21.8119067 7.31812874,21.5828508 C7.12980902,20.0695771 5.9304046,18.8702103 4.41715656,18.6818661 C4.18807561,18.6533595 4,18.4689445 4,18.238133 L4,17.4021626 C4,17.1713511 4.18779473,16.9823382 4.41786128,17.0013148 Z M25.582182,17.0013148 C25.812241,16.9823382 26,17.1713511 26,17.4021626 L26,17.4021626 L26,18.238133 C26,18.4689445 25.8119067,18.6533595 25.5828508,18.6818661 C24.0695771,18.8702103 22.8702103,20.0695771 22.6818661,21.5828508 C22.6533595,21.8119067 22.4689445,22 22.238133,22 L22.238133,22 L21.4021626,22 C21.1713511,22 20.9823382,21.812241 21.0013148,21.582182 C21.2022821,19.1452445 23.1452445,17.2022821 25.582182,17.0013148 Z M15,12 C16.6569,12 18,13.3431 18,15 C18,16.6569 16.6569,18 15,18 C13.3431,18 12,16.6569 12,15 C12,13.3431 13.3431,12 15,12 Z M22.238133,8 C22.4689445,8 22.6533595,8.18807717 22.6818661,8.4171588 C22.8702103,9.93040337 24.0695771,11.129807 25.5828508,11.3181266 C25.8119067,11.3466333 26,11.5310322 26,11.7618777 L26,11.7618777 L26,12.5978506 C26,12.8286961 25.812241,13.0176761 25.582182,12.9986828 C23.1452445,12.7976982 21.2022821,10.8547385 21.0013148,8.41786102 C20.9823382,8.18779294 21.1713511,8 21.4021626,8 L21.4021626,8 Z M8.59785348,8 C8.82869916,8 9.01765422,8.18779294 8.99868598,8.41786102 C8.79770127,10.8547385 6.85474035,12.7976982 4.41786128,12.9986828 C4.18779473,13.0176761 4,12.8286961 4,12.5978506 L4,12.5978506 L4,11.7618777 C4,11.5310322 4.18807561,11.3466333 4.41715656,11.3181266 C5.9304046,11.129807 7.12980902,9.93039501 7.31812874,8.4171588 C7.34663543,8.18807717 7.53103443,8 7.76188012,8 L7.76188012,8 Z" id="Combined-Shape" fill="#16161F"></path>
            </g>
        </g>
    </g>
</svg>