<?xml version="1.0" encoding="UTF-8"?>
<svg width="20px" height="20px" viewBox="0 0 20 20" version="1.1" xmlns="http://www.w3.org/2000/svg" xmlns:xlink="http://www.w3.org/1999/xlink">
    <title>Icon/Plus Square</title>
    <g id="Local-HUB-(FB)" stroke="none" stroke-width="1" fill="none" fill-rule="evenodd">
        <g id="Home/Local-Hub/Active-Menus" transform="translate(-755.000000, -689.000000)" fill="#1269FF">
            <g id="Pop-up_Your-Post-Options" transform="translate(716.000000, 249.000000)">
                <g id="menu-copy-6" transform="translate(25.000000, 426.000000)">
                    <g id="Icon/Plus-Square" transform="translate(14.000000, 14.000000)">
                        <path d="M2,17.5551839 L2,3 L18,3 L18,17.5551839 C18,18.1995572 17.729168,18.7681136 17.1875,19.2608696 C16.645832,19.7536256 16.020836,20 15.3125,20 L4.6875,20 C3.9791632,20 3.3541692,19.7536256 2.8125,19.2608696 C2.2708308,18.7681136 2,18.1995572 2,17.5551839 Z" id="Path" opacity="0.3"></path>
                        <polygon id="Path" points="20 1.3125 20 4 0 4 0 1.3125 4.96644295 1.3125 6.44295302 0 13.557047 0 15.033557 1.3125"></polygon>
                    </g>
                </g>
            </g>
        </g>
    </g>
</svg>