<?xml version="1.0" encoding="UTF-8"?>
<svg width="20px" height="20px" viewBox="0 0 20 20" version="1.1" xmlns="http://www.w3.org/2000/svg" xmlns:xlink="http://www.w3.org/1999/xlink">
    <title>!Icons/add friends Copy</title>
    <g id="Style-Guide/Icons" stroke="none" stroke-width="1" fill="none" fill-rule="evenodd">
        <g id="Icons" transform="translate(-282.000000, -1606.000000)">
            <g id="Path" transform="translate(277.000000, 1601.000000)">
                <path d="M11,13 C11,11.8954 11.895,11 13,11 L23,11 C24.105,11 25,11.8954 25,13 L25,23 C25,24.1046 24.105,25 23,25 L13,25 C11.895,25 11,24.1046 11,23 L11,13 Z" fill="#A7B4CB" opacity="0.6"></path>
                <path d="M19,12 C19,15.866 15.866,19 12,19 C8.134,19 5,15.866 5,12 C5,8.134 8.134,5 12,5 C15.866,5 19,8.134 19,12 Z" fill="#16161F"></path>
            </g>
        </g>
    </g>
</svg>