<?xml version="1.0" encoding="utf-8"?>
<!-- Generator: Adobe Illustrator 21.0.0, SVG Export Plug-In . SVG Version: 6.00 Build 0)  -->
<svg version="1.1" id="Capa_1" xmlns="http://www.w3.org/2000/svg" xmlns:xlink="http://www.w3.org/1999/xlink" x="0px" y="0px"
	 viewBox="0 0 512 512" style="enable-background:new 0 0 512 512;" xml:space="preserve">
<style type="text/css">
	.st0{fill:#16161F;}
	.st1{fill:#CAD2E0;}
</style>
<g id="XMLID_99_">
	<g>
		<g id="XMLID_53_">
			<path class="st0" d="M91.5,81.1h129.1C213.4,35.9,174.1,1.3,127,1.3c-52.3,0-94.9,42.5-94.9,94.9c0,43.2,29,79.7,68.6,91.1
				L91.5,81.1z"/>
		</g>
		<g id="XMLID_52_">
			
				<rect x="249.1" y="335.2" transform="matrix(0.5293 -0.8484 0.8484 0.5293 -173.9497 392.8468)" class="st0" width="36" height="36"/>
		</g>
		<g id="XMLID_51_">
			
				<rect x="253.4" y="177.8" transform="matrix(0.9203 -0.3911 0.3911 0.9203 -54.9576 121.7789)" class="st0" width="36" height="36"/>
		</g>
		<path id="XMLID_50_" class="st1" d="M124.3,111.2l4.1,47.5c16.5-3.3,51.1-7.5,106.7-2.1l4.7,0.5l57.2-24.3l13.3,31.3
			c52.3,8,86.5-7.3,86.9-7.4l5.9-2.8l3.7-42.7L124.3,111.2L124.3,111.2z"/>
		<path id="XMLID_49_" class="st1" d="M340.6,196.6c-5.3,0-10.9-0.2-16.7-0.6l10.8,25.5L246.1,259l-31.4-73.9
			c-46.7-3.1-73.8,1.5-83.6,3.8l27.9,321.7l-1.1,0.1l0.1,1.3h214.1l28.1-324.3C388.8,191.4,368.1,196.6,340.6,196.6z M216.9,444.8
			c-0.4-8.1,7.2-15.1,15.1-15.1c8.4,0,14.7,6.9,15.1,15.1c0.4,8.1-7.2,15.1-15.1,15.1C223.6,459.9,217.3,453,216.9,444.8z
			 M326.6,262.6c8.4,0,14.7,6.9,15.1,15.1c0.4,8.1-7.2,15.1-15.1,15.1c-8.4,0-14.7-6.9-15.1-15.1
			C311.2,269.5,318.7,262.6,326.6,262.6z M251.9,286.9l81.7,51l-51,81.7l-81.7-51L251.9,286.9z M201.5,246.3
			c8.4,0,14.7,6.9,15.1,15.1c0.4,8.1-7.2,15.1-15.1,15.1c-8.4,0-14.7-6.9-15.1-15.1C186.1,253.3,193.6,246.3,201.5,246.3z"/>
		<g id="XMLID_48_">
			<polygon class="st0" points="479.9,30.1 479.9,0 331.3,0 319.7,81.1 350.1,81.1 357.4,30.1 			"/>
		</g>
	</g>
</g>
</svg>
