<?xml version="1.0" encoding="UTF-8"?>
<svg width="22px" height="20px" viewBox="0 0 22 20" version="1.1" xmlns="http://www.w3.org/2000/svg" xmlns:xlink="http://www.w3.org/1999/xlink">
    <title>Star</title>
    <g id="Work-In-Progress" stroke="none" stroke-width="1" fill="none" fill-rule="evenodd">
        <g id="Home/Local-Hub/Explore-LocalHub/Events-Copy" transform="translate(-359.000000, -417.000000)" fill="#FFFFFF">
            <g id="Card/event" transform="translate(317.000000, 239.000000)">
                <g id="Group-Copy" transform="translate(38.000000, 173.000000)">
                    <g id="Star" transform="translate(4.000000, 5.000000)">
                        <path d="M10.0818,1.12771 C10.4292,0.32266 11.5707,0.32266 11.9181,1.12771 L14.0982,6.1796 C14.2453,6.52048 14.5691,6.75181 14.9393,6.78042 L20.5299,7.21241 C21.4269,7.28172 21.7833,8.4078 21.0896,8.9806 L16.8852,12.4518 C16.5886,12.6967 16.4588,13.0899 16.5511,13.4632 L17.8451,18.6916 C18.0579,19.5514 17.1303,20.2429 16.367,19.7935 L11.5073,16.9326 C11.1942,16.7482 10.8058,16.7482 10.4927,16.9326 L5.63292,19.7935 C4.86962,20.2429 3.9421,19.5514 4.15489,18.6916 L5.44882,13.4632 C5.54121,13.0899 5.41134,12.6967 5.11478,12.4518 L0.9104,8.9806 C0.21664,8.4078 0.57304,7.28172 1.47003,7.21241 L7.06068,6.78042 C7.43085,6.75181 7.7547,6.52048 7.9018,6.1796 L10.0818,1.12771 Z" id="Path" opacity="0.4"></path>
                        <path d="M10.5351,6.31608 C10.7018,5.89464 11.2982,5.89464 11.465,6.31608 L12.2766,8.3678 C12.3464,8.5444 12.5103,8.6662 12.6995,8.6821 L14.8494,8.8634 C15.2857,8.9001 15.4673,9.4401 15.142,9.7331 L13.4679,11.241 C13.3333,11.3622 13.2748,11.5466 13.3149,11.7232 L13.8198,13.9491 C13.9189,14.3855 13.4386,14.7222 13.062,14.4804 L11.2702,13.3296 C11.1056,13.2239 10.8944,13.2239 10.7298,13.3296 L8.93797,14.4804 C8.56142,14.7222 8.08116,14.3855 8.18017,13.9491 L8.68514,11.7232 C8.7252,11.5466 8.66668,11.3622 8.53216,11.241 L6.85798,9.7331 C6.53267,9.4401 6.71434,8.9001 7.1506,8.8634 L9.3005,8.6821 C9.4897,8.6662 9.6536,8.5444 9.7235,8.3678 L10.5351,6.31608 Z" id="Path"></path>
                    </g>
                </g>
            </g>
        </g>
    </g>
</svg>