<?xml version="1.0" encoding="UTF-8"?>
<svg width="20px" height="20px" viewBox="0 0 20 20" version="1.1" xmlns="http://www.w3.org/2000/svg" xmlns:xlink="http://www.w3.org/1999/xlink">
    <title>even_hub</title>
    <defs>
        <linearGradient x1="77.0347062%" y1="0%" x2="29.8138619%" y2="120.835053%" id="linearGradient-1">
            <stop stop-color="#5E5E5E" offset="0%"></stop>
            <stop stop-color="#161514" offset="100%"></stop>
        </linearGradient>
        <linearGradient x1="68.9184033%" y1="34.2028194%" x2="50%" y2="62.5%" id="linearGradient-2">
            <stop stop-color="#FFEB99" offset="0%"></stop>
            <stop stop-color="#FF9632" offset="100%"></stop>
        </linearGradient>
    </defs>
    <g id="Local-HUB-(FB)" stroke="none" stroke-width="1" fill="none" fill-rule="evenodd">
        <g id="Home/Local-Hub/Main" transform="translate(-31.000000, -944.000000)">
            <g id="Bottom/Icon-Copy-15" transform="translate(17.000000, 930.000000)">
                <path d="M12.819426,-1.42475429e-15 L35.180574,5.17920154e-16 C39.6381677,-3.00926524e-16 41.2545989,0.464128056 42.8842285,1.33566352 C44.5138581,2.20719898 45.792801,3.48614185 46.6643365,5.11577148 C47.5358719,6.74540111 48,8.3618323 48,12.819426 L48,35.180574 C48,39.6381677 47.5358719,41.2545989 46.6643365,42.8842285 C45.792801,44.5138581 44.5138581,45.792801 42.8842285,46.6643365 C41.2545989,47.5358719 39.6381677,48 35.180574,48 L12.819426,48 C8.3618323,48 6.74540111,47.5358719 5.11577148,46.6643365 C3.48614185,45.792801 2.20719898,44.5138581 1.33566352,42.8842285 C0.464128056,41.2545989 7.27514433e-16,39.6381677 -1.25211424e-15,35.180574 L3.45280103e-16,12.819426 C-2.00617683e-16,8.3618323 0.464128056,6.74540111 1.33566352,5.11577148 C2.20719898,3.48614185 3.48614185,2.20719898 5.11577148,1.33566352 C6.74540111,0.464128056 8.3618323,8.27823274e-16 12.819426,-1.42475429e-15 Z" id="BG"></path>
                <g id="Group" transform="translate(9.000000, 9.000000)">
                    <g id="Calendar" transform="translate(5.000000, 5.000000)">
                        <path d="M4,1 C4,0.44772 4.44772,0 5,0 C5.55228,0 6,0.44772 6,1 L6,2 L14,2 L14,1 C14,0.44772 14.4477,0 15,0 C15.5523,0 16,0.44772 16,1 L16,2 L17,2 C18.6569,2 20,3.34315 20,5 L20,17 C20,18.6569 18.6569,20 17,20 L3,20 C1.34315,20 0,18.6569 0,17 L0,5 C0,3.34315 1.34315,2 3,2 L4,2 L4,1 Z" id="Path" fill="url(#linearGradient-1)"></path>
                        <path d="M8,10 C7.44772,10 7,10.4477 7,11 C7,11.5523 7.44772,12 8,12 L15,12 C15.5523,12 16,11.5523 16,11 C16,10.4477 15.5523,10 15,10 L8,10 Z M5,14 C4.44772,14 4,14.4477 4,15 C4,15.5523 4.44772,16 5,16 L11,16 C11.5523,16 12,15.5523 12,15 C12,14.4477 11.5523,14 11,14 L5,14 Z" id="Shape" fill="url(#linearGradient-2)"></path>
                    </g>
                </g>
            </g>
        </g>
    </g>
</svg>