<?xml version="1.0" encoding="UTF-8"?>
<svg width="22px" height="22px" viewBox="0 0 22 22" version="1.1" xmlns="http://www.w3.org/2000/svg" xmlns:xlink="http://www.w3.org/1999/xlink">
    <title>explore_icon</title>
    <defs>
        <linearGradient x1="74.1010258%" y1="0.862281604%" x2="28.6720634%" y2="108.104127%" id="linearGradient-1">
            <stop stop-color="#69BFFF" offset="0%"></stop>
            <stop stop-color="#4545EA" offset="100%"></stop>
        </linearGradient>
        <radialGradient cx="6.9700972%" cy="10.3987043%" fx="6.9700972%" fy="10.3987043%" r="96.7848973%" gradientTransform="translate(0.069701,0.103987),scale(0.972028,1.000000),rotate(67.785913),translate(-0.069701,-0.103987)" id="radialGradient-2">
            <stop stop-color="#6FC1FF" offset="0%"></stop>
            <stop stop-color="#6FC1FF" offset="46.2742752%"></stop>
            <stop stop-color="#7BB1FF" offset="100%"></stop>
        </radialGradient>
    </defs>
    <g id="Global-HUB-(twitter)" stroke="none" stroke-width="1" fill="none" fill-rule="evenodd">
        <g id="Home/GlobalHub/Expanded-Copy" transform="translate(-31.000000, -355.000000)">
            <g id="Group-3" transform="translate(0.000000, 138.000000)">
                <g id="Bottom/Icon-Copy-9" transform="translate(17.000000, 203.000000)">
                    <path d="M12.819426,-1.42475429e-15 L35.180574,5.17920154e-16 C39.6381677,-3.00926524e-16 41.2545989,0.464128056 42.8842285,1.33566352 C44.5138581,2.20719898 45.792801,3.48614185 46.6643365,5.11577148 C47.5358719,6.74540111 48,8.3618323 48,12.819426 L48,35.180574 C48,39.6381677 47.5358719,41.2545989 46.6643365,42.8842285 C45.792801,44.5138581 44.5138581,45.792801 42.8842285,46.6643365 C41.2545989,47.5358719 39.6381677,48 35.180574,48 L12.819426,48 C8.3618323,48 6.74540111,47.5358719 5.11577148,46.6643365 C3.48614185,45.792801 2.20719898,44.5138581 1.33566352,42.8842285 C0.464128056,41.2545989 7.27514433e-16,39.6381677 -1.25211424e-15,35.180574 L3.45280103e-16,12.819426 C-2.00617683e-16,8.3618323 0.464128056,6.74540111 1.33566352,5.11577148 C2.20719898,3.48614185 3.48614185,2.20719898 5.11577148,1.33566352 C6.74540111,0.464128056 8.3618323,8.27823274e-16 12.819426,-1.42475429e-15 Z" id="BG"></path>
                    <g id="Icon/Plus-Square" transform="translate(9.000000, 9.000000)">
                        <circle id="Oval" fill="url(#linearGradient-1)" cx="13.5" cy="13.5" r="8.5"></circle>
                        <path d="M19.4102834,19.6167895 C19.7707674,19.2563056 20.3379984,19.228576 20.7302896,19.5336009 L20.824497,19.6167895 L26.2071068,24.7928932 C26.5976311,25.1834175 26.5976311,25.8165825 26.2071068,26.2071068 C25.8466228,26.5675907 25.2793918,26.5953203 24.8871006,26.2902954 L24.7928932,26.2071068 L19.4102834,21.0310031 C19.0197591,20.6404788 19.0197591,20.0073138 19.4102834,19.6167895 Z" id="Line" fill="url(#radialGradient-2)"></path>
                    </g>
                </g>
            </g>
        </g>
    </g>
</svg>