<?xml version="1.0" encoding="UTF-8"?>
<svg width="24px" height="16px" viewBox="0 0 24 16" version="1.1" xmlns="http://www.w3.org/2000/svg" xmlns:xlink="http://www.w3.org/1999/xlink">
    <title>ecpolore_icon</title>
    <defs>
        <linearGradient x1="50%" y1="124.486268%" x2="50%" y2="0%" id="linearGradient-1">
            <stop stop-color="#6B00D6" offset="0%"></stop>
            <stop stop-color="#B9AEFF" offset="100%"></stop>
        </linearGradient>
    </defs>
    <g id="Local-HUB-(FB)" stroke="none" stroke-width="1" fill="none" fill-rule="evenodd">
        <g id="Home/Local-Hub/Main" transform="translate(-29.000000, -754.000000)">
            <g id="Bottom/Icon-Copy-15" transform="translate(17.000000, 738.000000)">
                <path d="M12.819426,-1.42475429e-15 L35.180574,5.17920154e-16 C39.6381677,-3.00926524e-16 41.2545989,0.464128056 42.8842285,1.33566352 C44.5138581,2.20719898 45.792801,3.48614185 46.6643365,5.11577148 C47.5358719,6.74540111 48,8.3618323 48,12.819426 L48,35.180574 C48,39.6381677 47.5358719,41.2545989 46.6643365,42.8842285 C45.792801,44.5138581 44.5138581,45.792801 42.8842285,46.6643365 C41.2545989,47.5358719 39.6381677,48 35.180574,48 L12.819426,48 C8.3618323,48 6.74540111,47.5358719 5.11577148,46.6643365 C3.48614185,45.792801 2.20719898,44.5138581 1.33566352,42.8842285 C0.464128056,41.2545989 7.27514433e-16,39.6381677 -1.25211424e-15,35.180574 L3.45280103e-16,12.819426 C-2.00617683e-16,8.3618323 0.464128056,6.74540111 1.33566352,5.11577148 C2.20719898,3.48614185 3.48614185,2.20719898 5.11577148,1.33566352 C6.74540111,0.464128056 8.3618323,8.27823274e-16 12.819426,-1.42475429e-15 Z" id="BG"></path>
                <g id="Icon/Plus-Square" transform="translate(9.000000, 9.000000)">
                    <rect id="Rectangle" x="0" y="0" width="30" height="30"></rect>
                    <g id="Eye" transform="translate(3.000000, 7.000000)">
                        <path d="M22.3422,5.506 C23.5181,6.9837 23.5181,9.0163 22.3422,10.494 C20.4739,12.8417 17.0265,16 11.9999,16 C6.97341,16 3.526,12.8417 1.65772,10.494 C0.481768,9.0163 0.481768,6.9837 1.65772,5.506 C3.526,3.15826 6.97341,0 11.9999,0 C17.0265,0 20.4739,3.15826 22.3422,5.506 Z" id="Path" fill="url(#linearGradient-1)"></path>
                        <path d="M14,8 C14,9.1046 13.1046,10 12,10 C10.8954,10 10,9.1046 10,8 C10,7.9716 10.0006,7.9434 10.0018,7.9153 C10.1577,7.9701 10.3253,8 10.5,8 C11.3284,8 12,7.3284 12,6.5 C12,6.3253 11.9701,6.1577 11.9153,6.0018 C11.9434,6.0006 11.9716,6 12,6 C13.1046,6 14,6.8954 14,8 Z M16,8 C16,10.2091 14.2091,12 12,12 C9.79086,12 8,10.2091 8,8 C8,5.79086 9.79086,4 12,4 C14.2091,4 16,5.79086 16,8 Z" id="Shape" fill="#FFFFFF"></path>
                    </g>
                </g>
            </g>
        </g>
    </g>
</svg>