<?xml version="1.0" encoding="UTF-8"?>
<svg width="30px" height="30px" viewBox="0 0 30 30" version="1.1" xmlns="http://www.w3.org/2000/svg" xmlns:xlink="http://www.w3.org/1999/xlink">
    <title>favorites</title>
    <defs>
        <linearGradient x1="68.6755151%" y1="-11.7355238%" x2="50%" y2="100%" id="linearGradient-1">
            <stop stop-color="#FFF4DC" offset="0%"></stop>
            <stop stop-color="#EDB134" offset="100%"></stop>
        </linearGradient>
        <linearGradient x1="77.0347062%" y1="14.8004977%" x2="29.8138619%" y2="99.8671719%" id="linearGradient-2">
            <stop stop-color="#5E5E5E" offset="0%"></stop>
            <stop stop-color="#161514" offset="100%"></stop>
        </linearGradient>
    </defs>
    <g id="favorites" stroke="none" stroke-width="1" fill="none" fill-rule="evenodd">
        <g id="Medal" transform="translate(5.000000, 5.000000)">
            <circle id="Oval" fill="url(#linearGradient-1)" cx="10" cy="8" r="8"></circle>
            <path d="M3,12 C4.2781615,14.0818013 6.40540712,15.4904827 8.81013706,15.860595 L9.1,15.9 L5.7,19.3 C5.34106753,19.6518242 4.78320249,19.6788876 4.39366501,19.3811902 L4.3,19.3 L0.7,15.7 C0.348175807,15.3410675 0.321112407,14.7832025 0.618809802,14.393665 L0.7,14.3 L3,12 Z M17,12 L19.3,14.3 C19.6518242,14.6589325 19.6788876,15.2167975 19.3811902,15.606335 L19.3,15.7 L15.7,19.3 C15.3410675,19.6518242 14.7832025,19.6788876 14.393665,19.3811902 L14.3,19.3 L10.9,15.9 C13.3260141,15.6135579 15.4974079,14.2739288 16.8425816,12.2465618 L17,12 Z M10.5231048,3.81608 L11.3347048,5.8678 C11.4045048,6.0444 11.5684048,6.1662 11.7576048,6.1821 L13.9075048,6.3634 C14.3438048,6.4001 14.5254048,6.9401 14.2001048,7.2331 L12.5260048,8.741 C12.3914048,8.8622 12.3329048,9.0466 12.3730048,9.2232 L12.8779048,11.4491 C12.9770048,11.8855 12.4967048,12.2222 12.1201048,11.9804 L10.3283048,10.8296 C10.1637048,10.7239 9.9525048,10.7239 9.7879048,10.8296 L7.9960748,11.9804 C7.6195248,12.2222 7.1392648,11.8855 7.2382748,11.4491 L7.7432448,9.2232 C7.7833048,9.0466 7.7247848,8.8622 7.5902648,8.741 L5.9160848,7.2331 C5.5907748,6.9401 5.7724448,6.4001 6.2087048,6.3634 L8.3586048,6.1821 C8.5478048,6.1662 8.7117048,6.0444 8.7816048,5.8678 L9.5932048,3.81608 C9.7599048,3.39464 10.3563048,3.39464 10.5231048,3.81608 Z" id="Shape" fill="url(#linearGradient-2)"></path>
        </g>
    </g>
</svg>