<?xml version="1.0" encoding="UTF-8"?>
<svg width="26px" height="26px" viewBox="0 0 26 26" version="1.1" xmlns="http://www.w3.org/2000/svg" xmlns:xlink="http://www.w3.org/1999/xlink">
    <title>Fill 3</title>
    <g id="Local-HUB-(FB)" stroke="none" stroke-width="1" fill="none" fill-rule="evenodd">
        <g id="Home/Local-Hub/PopUp-windows" transform="translate(-1205.000000, -1030.000000)" fill="#1269FF">
            <g id="Share-Social-Network" transform="translate(1190.000000, 1013.000000)">
                <path d="M39.9169375,17 L16.083875,17 C15.4850625,17 15,17.4850625 15,18.0830625 L15,41.9169375 C15,42.5149375 15.4850625,43 16.083875,43 L28.8125,43 L28.8125,33.25 L25.5625,33.25 L25.5625,29.1875 L28.8125,29.1875 L28.8125,25.9375 C28.8125,22.5794375 30.9388125,20.9268125 33.9345,20.9268125 C35.369375,20.9268125 36.60275,21.0340625 36.961875,21.0811875 L36.961875,24.5911875 L34.8843125,24.592 C33.25525,24.592 32.875,25.3663125 32.875,26.5021875 L32.875,29.1875 L36.9375,29.1875 L36.125,33.25 L32.875,33.25 L32.94,43 L39.9169375,43 C40.5149375,43 41,42.5149375 41,41.9169375 L41,18.0830625 C41,17.4850625 40.5149375,17 39.9169375,17" id="Fill-3"></path>
            </g>
        </g>
    </g>
</svg>