<?xml version="1.0" encoding="UTF-8"?>
<svg width="18px" height="22px" viewBox="0 0 18 22" version="1.1" xmlns="http://www.w3.org/2000/svg" xmlns:xlink="http://www.w3.org/1999/xlink">
    <title>File Plus</title>
    <g id="-" stroke="none" stroke-width="1" fill="none" fill-rule="evenodd">
        <g id="!Icons/2.-Icons/File-Plus" transform="translate(-6.000000, -4.000000)">
            <g id="File-Plus" transform="translate(6.000000, 4.000000)">
                <path d="M0,3 C0,1.34315 1.34315,0 3,0 L12.7574,0 C13.553,0 14.3161,0.31607 14.8787,0.87868 L17.1213,3.12132 C17.6839,3.68393 18,4.44699 18,5.24264 L18,19 C18,20.6569 16.6569,22 15,22 L3,22 C1.34315,22 0,20.6569 0,19 L0,3 Z" id="Path" fill="#A7B4CB" opacity="0.6"></path>
                <path d="M12,0.89181 C12,0.39927 12.3993,0 12.8918,0 L12.8918,0 C13.6014,0 14.2819,0.28187 14.7836,0.78361 L17.2164,3.21639 C17.7181,3.71813 18,4.39863 18,5.10819 L18,5.10819 C18,5.60073 17.6007,6 17.1082,6 L13,6 C12.4477,6 12,5.55228 12,5 L12,0.89181 Z" id="Path" fill="#1E1F20"></path>
                <path d="M10,10 C10,9.4477 9.5523,9 9,9 C8.4477,9 8,9.4477 8,10 L8,12 L6,12 C5.44771,12 5,12.4477 5,13 C5,13.5523 5.44771,14 6,14 L8,14 L8,16 C8,16.5523 8.4477,17 9,17 C9.5523,17 10,16.5523 10,16 L10,14 L12,14 C12.5523,14 13,13.5523 13,13 C13,12.4477 12.5523,12 12,12 L10,12 L10,10 Z" id="Path" fill="#1E1F20"></path>
            </g>
        </g>
    </g>
</svg>