<?xml version="1.0" encoding="UTF-8"?>
<svg width="19px" height="22px" viewBox="0 0 19 22" version="1.1" xmlns="http://www.w3.org/2000/svg" xmlns:xlink="http://www.w3.org/1999/xlink">
    <title>Icon/Plus Square</title>
    <g id="Local-HUB-(FB)" stroke="none" stroke-width="1" fill="none" fill-rule="evenodd">
        <g id="Home/Local-Hub/PopUp-windows" transform="translate(-1130.000000, -347.000000)">
            <g id="Group-9" transform="translate(919.000000, 281.000000)">
                <g id="Bottom/File-Upload-" transform="translate(196.500000, 53.000000)">
                    <g id="Group" transform="translate(9.000000, 9.000000)">
                        <g id="File-Upload" transform="translate(6.000000, 4.000000)">
                            <path d="M0,3 C0,1.34315 1.34315,0 3,0 L12.7574,0 C13.553,0 14.3161,0.31607 14.8787,0.87868 L17.1213,3.12132 C17.6839,3.68393 18,4.44699 18,5.24264 L18,19 C18,20.6569 16.6569,22 15,22 L3,22 C1.34315,22 0,20.6569 0,19 L0,3 Z" id="Path" fill="#1269FF" opacity="0.3"></path>
                            <path d="M12,0.89181 C12,0.39927 12.3993,0 12.8918,0 L12.8918,0 C13.6014,0 14.2819,0.28187 14.7836,0.78361 L17.2164,3.21639 C17.7181,3.71813 18,4.39863 18,5.10819 L18,5.10819 C18,5.60073 17.6007,6 17.1082,6 L13,6 C12.4477,6 12,5.55228 12,5 L12,0.89181 Z" id="Path" fill="#1269FF"></path>
                            <path d="M8.6172,8.07588 C8.4993,8.12468 8.3888,8.19702 8.2929,8.29289 L5.29289,11.2929 C4.90237,11.6834 4.90237,12.3166 5.29289,12.7071 C5.68342,13.0976 6.31658,13.0976 6.70711,12.7071 L8,11.4142 L8,16.0000025 C8,16.5523 8.4477,17.0000025 9,17.0000025 C9.5523,17.0000025 10,16.5523 10,16.0000025 L10,11.4142 L11.2929,12.7071 C11.6834,13.0976 12.3166,13.0976 12.7071,12.7071 C13.0976,12.3166 13.0976,11.6834 12.7071,11.2929 L9.7071,8.29289 C9.4125,7.99825 8.9797,7.92591 8.6172,8.07588 Z" id="Path" fill="#1269FF"></path>
                        </g>
                    </g>
                </g>
            </g>
        </g>
    </g>
</svg>