<?xml version="1.0" encoding="UTF-8"?>
<svg width="20px" height="20px" viewBox="0 0 20 20" version="1.1" xmlns="http://www.w3.org/2000/svg" xmlns:xlink="http://www.w3.org/1999/xlink">
    <title>Icon/Plus Square</title>
    <g id="Local-HUB-(FB)" stroke="none" stroke-width="1" fill="none" fill-rule="evenodd">
        <g id="Home/Local-Hub/PopUp-windows" transform="translate(-605.000000, -601.000000)">
            <g id="pop-up-Sort-by" transform="translate(566.000000, 557.000000)">
                <g id="menu" transform="translate(25.000000, 30.000000)">
                    <g id="Icon/Plus-Square" transform="translate(9.000000, 9.000000)">
                        <rect id="Rectangle" x="0" y="0" width="30" height="30"></rect>
                        <g id="Globe" transform="translate(5.000000, 5.000000)" fill="#1269FF">
                            <path d="M5,11 C5.3,16.1 7.4,20.0000863 10,20.0000863 C4.86539982,20.0212575 0.566741831,16.1133866 0.1,11 L0.1,11 Z M19.9,11 C19.4332582,16.1133866 15.1346002,20.0212575 10,20.0000863 C12.6,20.0000863 14.7,16.1 15,11 L15,11 Z M13,11 C12.7,15.4 11,18 10,18 C9,18 7.3,15.4 7,11 L7,11 Z M10,2 C11,2 12.7,4.6 13,9 L13,9 L7,9 C7.3,4.6 9,2 10,2 Z M10,-8.63103442e-05 C7.4,-8.63103442e-05 5.3,3.9 5,9 L5,9 L0.1,9 C0.566741831,3.88661336 4.86539982,-0.0212575412 10,-8.63103442e-05 Z M10,-8.63103442e-05 C15.1346002,-0.0212575412 19.4332582,3.88661336 19.9,9 L19.9,9 L15,9 C14.7,3.9 12.6,-8.63103442e-05 10,-8.63103442e-05 Z" id="Combined-Shape"></path>
                            <path d="M15,11 L19.9,11 C19.9826854,10.6734606 20.0163868,10.3364466 20,10 C20.0163868,9.66355343 19.9826854,9.32653936 19.9,9 L15,9 C14.7,3.9 12.6,0 10,0 C7.4,0 5.3,3.9 5,9 L0.1,9 C0.0173146151,9.32653936 -0.0163867919,9.66355343 1.74860126e-15,10 C-0.0163867919,10.3364466 0.0173146151,10.6734606 0.1,11 L5,11 C5.3,16.1 7.4,20 10,20 C12.6,20 14.7,16.1 15,11 Z M10,2 C11,2 12.7,4.6 13,9 L7,9 C7.3,4.6 9,2 10,2 Z M10,18 C9,18 7.3,15.4 7,11 L13,11 C12.7,15.4 11,18 10,18 Z" id="Shape" opacity="0.3"></path>
                        </g>
                    </g>
                </g>
            </g>
        </g>
    </g>
</svg>