<?xml version="1.0" encoding="UTF-8"?>
<svg width="19px" height="22px" viewBox="0 0 19 22" version="1.1" xmlns="http://www.w3.org/2000/svg" xmlns:xlink="http://www.w3.org/1999/xlink">
    <title>Bottom/Icon</title>
    <g id="Local-HUB-(FB)" stroke="none" stroke-width="1" fill="none" fill-rule="evenodd">
        <g id="Home/Local-Hub/PopUp-windows" transform="translate(-606.000000, -744.000000)">
            <g id="pop-up-Sort-by" transform="translate(566.000000, 557.000000)">
                <g id="Bottom/Icon" transform="translate(25.000000, 174.000000)">
                    <path d="M12.819426,-1.42475429e-15 L35.180574,5.17920154e-16 C39.6381677,-3.00926524e-16 41.2545989,0.464128056 42.8842285,1.33566352 C44.5138581,2.20719898 45.792801,3.48614185 46.6643365,5.11577148 C47.5358719,6.74540111 48,8.3618323 48,12.819426 L48,35.180574 C48,39.6381677 47.5358719,41.2545989 46.6643365,42.8842285 C45.792801,44.5138581 44.5138581,45.792801 42.8842285,46.6643365 C41.2545989,47.5358719 39.6381677,48 35.180574,48 L12.819426,48 C8.3618323,48 6.74540111,47.5358719 5.11577148,46.6643365 C3.48614185,45.792801 2.20719898,44.5138581 1.33566352,42.8842285 C0.464128056,41.2545989 7.27514433e-16,39.6381677 -1.25211424e-15,35.180574 L3.45280103e-16,12.819426 C-2.00617683e-16,8.3618323 0.464128056,6.74540111 1.33566352,5.11577148 C2.20719898,3.48614185 3.48614185,2.20719898 5.11577148,1.33566352 C6.74540111,0.464128056 8.3618323,8.27823274e-16 12.819426,-1.42475429e-15 Z" id="BG"></path>
                    <g id="Group" transform="translate(9.000000, 9.000000)">
                        <g id="Play" transform="translate(6.000000, 4.000000)">
                            <path d="M0,3.38537 C0,1.03485 2.58049,-0.402633 4.57906,0.83458 L16.8795,8.44913 C18.7741,9.622 18.7741,12.3779 16.8795,13.5507 L4.57906,21.1653 C2.58049,22.4025 0,20.965 0,18.6145 L0,3.38537 Z" id="Path" fill="#1269FF" opacity="0.3"></path>
                            <path d="M4.113225,7.80433 C4.113225,7.0189 5.08487991,6.54005 5.83396348,6.95633 L11.584604,10.1521 C12.289432,10.5438 12.289432,11.4564 11.584604,11.8481 L5.83396348,15.0438 C5.08487991,15.4601 4.113225,14.9813 4.113225,14.1958 L4.113225,7.80433 Z" id="Path" fill="#1269FF"></path>
                        </g>
                    </g>
                </g>
            </g>
        </g>
    </g>
</svg>