<?xml version="1.0" encoding="UTF-8"?>
<svg width="20px" height="19px" viewBox="0 0 20 19" version="1.1" xmlns="http://www.w3.org/2000/svg" xmlns:xlink="http://www.w3.org/1999/xlink">
    <title>Bottom/Icon</title>
    <g id="Local-HUB-(FB)" stroke="none" stroke-width="1" fill="none" fill-rule="evenodd">
        <g id="Home/Local-Hub/PopUp-windows" transform="translate(-605.000000, -937.000000)">
            <g id="pop-up-Sort-by" transform="translate(566.000000, 557.000000)">
                <g id="Bottom/Icon" transform="translate(25.000000, 366.000000)">
                    <path d="M12.819426,-1.42475429e-15 L35.180574,5.17920154e-16 C39.6381677,-3.00926524e-16 41.2545989,0.464128056 42.8842285,1.33566352 C44.5138581,2.20719898 45.792801,3.48614185 46.6643365,5.11577148 C47.5358719,6.74540111 48,8.3618323 48,12.819426 L48,35.180574 C48,39.6381677 47.5358719,41.2545989 46.6643365,42.8842285 C45.792801,44.5138581 44.5138581,45.792801 42.8842285,46.6643365 C41.2545989,47.5358719 39.6381677,48 35.180574,48 L12.819426,48 C8.3618323,48 6.74540111,47.5358719 5.11577148,46.6643365 C3.48614185,45.792801 2.20719898,44.5138581 1.33566352,42.8842285 C0.464128056,41.2545989 7.27514433e-16,39.6381677 -1.25211424e-15,35.180574 L3.45280103e-16,12.819426 C-2.00617683e-16,8.3618323 0.464128056,6.74540111 1.33566352,5.11577148 C2.20719898,3.48614185 3.48614185,2.20719898 5.11577148,1.33566352 C6.74540111,0.464128056 8.3618323,8.27823274e-16 12.819426,-1.42475429e-15 Z" id="BG"></path>
                    <g id="Group" transform="translate(9.000000, 9.000000)">
                        <g id="Pie-03" transform="translate(5.000000, 5.000000)">
                            <path d="M8.002,0.05546 C8.5509,-0.00578 9.0000014,0.44768 9.0000014,0.99997 L9.0000014,8.5858 C9.0000014,8.851 8.8946,9.1053 8.7071,9.2929 L3.34315,14.6568 C2.95263,15.0473 2.31443,15.0504 1.96962,14.619 C1.07318,13.4974 0.45494,12.1735 0.17294,10.7558 C-0.17433,9.01 0.0039,7.2004 0.68509,5.55582 C1.36628,3.91128 2.51983,2.50567 3.99987,1.51674 C5.20174,0.71367 6.57508,0.21467 8.002,0.05546 Z" id="Path" fill="#16161F"></path>
                            <path d="M5.38105,17.0304 C4.94963,16.6856 4.95273,16.0474 5.34325,15.6569 L10.7072,10.2929 C10.8947,10.1054 11.0001,9.851 11.0001,9.5858 L11.0001,2 C11.0001,1.44771 11.4492,0.99426 11.9981,1.0555 C13.1307,1.18187 14.2322,1.52261 15.2427,2.06271 C16.548,2.7604 17.6611,3.76924 18.4833,4.99987 C19.3056,6.23049 19.8117,7.6449 19.9568,9.1178 C20.1018,10.5908 19.8814,12.0768 19.315,13.4441 C18.7486,14.8115 17.8537,16.0182 16.7096,16.9571 C15.5655,17.896 14.2075,18.5383 12.7559,18.8271 C11.3043,19.1158 9.8039,19.0421 8.3875,18.6125 C7.29113,18.2799 6.27132,17.7419 5.38105,17.0304 Z" id="Path" fill="#A7B4CB" opacity="0.6"></path>
                        </g>
                    </g>
                </g>
            </g>
        </g>
    </g>
</svg>