<?xml version="1.0" encoding="UTF-8"?>
<svg width="22px" height="18px" viewBox="0 0 22 18" version="1.1" xmlns="http://www.w3.org/2000/svg" xmlns:xlink="http://www.w3.org/1999/xlink">
    <title>Bottom/Icon</title>
    <g id="Local-HUB-(FB)" stroke="none" stroke-width="1" fill="none" fill-rule="evenodd">
        <g id="Home/Local-Hub/PopUp-windows" transform="translate(-604.000000, -1082.000000)">
            <g id="pop-up-Sort-by" transform="translate(566.000000, 557.000000)">
                <g id="Bottom/Icon" transform="translate(25.000000, 510.000000)">
                    <path d="M12.819426,-1.42475429e-15 L35.180574,5.17920154e-16 C39.6381677,-3.00926524e-16 41.2545989,0.464128056 42.8842285,1.33566352 C44.5138581,2.20719898 45.792801,3.48614185 46.6643365,5.11577148 C47.5358719,6.74540111 48,8.3618323 48,12.819426 L48,35.180574 C48,39.6381677 47.5358719,41.2545989 46.6643365,42.8842285 C45.792801,44.5138581 44.5138581,45.792801 42.8842285,46.6643365 C41.2545989,47.5358719 39.6381677,48 35.180574,48 L12.819426,48 C8.3618323,48 6.74540111,47.5358719 5.11577148,46.6643365 C3.48614185,45.792801 2.20719898,44.5138581 1.33566352,42.8842285 C0.464128056,41.2545989 7.27514433e-16,39.6381677 -1.25211424e-15,35.180574 L3.45280103e-16,12.819426 C-2.00617683e-16,8.3618323 0.464128056,6.74540111 1.33566352,5.11577148 C2.20719898,3.48614185 3.48614185,2.20719898 5.11577148,1.33566352 C6.74540111,0.464128056 8.3618323,8.27823274e-16 12.819426,-1.42475429e-15 Z" id="BG"></path>
                    <g id="Group" transform="translate(9.000000, 9.000000)">
                        <g id="Folder" transform="translate(4.000000, 6.000000)">
                            <path d="M12,3 L11.4104,2.01732 C10.8306,1.05094 9.8702,0.36835 8.75227,0.22585 C7.83875,0.10939 6.66937,0 5.5,0 C4.68392,0 3.86784,0.05328 3.13873,0.12505 C1.53169,0.28325 0.31947,1.53621 0.19597,3.14628 C0.09136,4.51009 0,6.43529 0,9 C0,10.8205 0.06629,12.4422 0.15059,13.7685 C0.29156,15.9862 2.01613,17.6935 4.23467,17.8214 C5.91963,17.9185 8.17474,18 11,18 C13.8253,18 16.0804,17.9185 17.7653,17.8214 C19.9839,17.6935 21.7084,15.9862 21.8494,13.7685 C21.9337,12.4422 22,10.8205 22,9 C22,7.9589 21.9398,6.97795 21.8611,6.14085 C21.7101,4.53313 20.4669,3.2899 18.8591,3.13886 C18.0221,3.06022 17.0411,3 16,3 L12,3 Z" id="Path" fill="#1269FF" opacity="0.3"></path>
                            <path d="M12,3 L0.21033,3 C0.39381,1.46081 1.58074,0.27842 3.13877,0.12505 C3.86788,0.05328 4.68396,0 5.50004,0 C6.66941,0 7.83879,0.10939 8.75231,0.22585 C9.8702,0.36835 10.8306,1.05094 11.4104,2.01732 L12,3 Z" id="Path" fill="#1269FF"></path>
                        </g>
                    </g>
                </g>
            </g>
        </g>
    </g>
</svg>