<?xml version="1.0" encoding="UTF-8"?>
<svg width="16px" height="23px" viewBox="0 0 16 23" version="1.1" xmlns="http://www.w3.org/2000/svg" xmlns:xlink="http://www.w3.org/1999/xlink">
    <title>forum_hub</title>
    <defs>
        <linearGradient x1="77.0347062%" y1="21.0962075%" x2="29.8138619%" y2="90.9480332%" id="linearGradient-1">
            <stop stop-color="#5E5E5E" offset="0%"></stop>
            <stop stop-color="#161514" offset="100%"></stop>
        </linearGradient>
        <linearGradient x1="66.5443004%" y1="-11.7355238%" x2="50%" y2="100%" id="linearGradient-2">
            <stop stop-color="#FFF4DC" offset="0%"></stop>
            <stop stop-color="#EDB134" offset="100%"></stop>
        </linearGradient>
    </defs>
    <g id="Local-HUB-(FB)" stroke="none" stroke-width="1" fill="none" fill-rule="evenodd">
        <g id="Home/Local-Hub/Main" transform="translate(-33.000000, -895.000000)">
            <g id="Bottom/Icon-Copy-21" transform="translate(17.000000, 882.000000)">
                <path d="M12.819426,-1.42475429e-15 L35.180574,5.17920154e-16 C39.6381677,-3.00926524e-16 41.2545989,0.464128056 42.8842285,1.33566352 C44.5138581,2.20719898 45.792801,3.48614185 46.6643365,5.11577148 C47.5358719,6.74540111 48,8.3618323 48,12.819426 L48,35.180574 C48,39.6381677 47.5358719,41.2545989 46.6643365,42.8842285 C45.792801,44.5138581 44.5138581,45.792801 42.8842285,46.6643365 C41.2545989,47.5358719 39.6381677,48 35.180574,48 L12.819426,48 C8.3618323,48 6.74540111,47.5358719 5.11577148,46.6643365 C3.48614185,45.792801 2.20719898,44.5138581 1.33566352,42.8842285 C0.464128056,41.2545989 7.27514433e-16,39.6381677 -1.25211424e-15,35.180574 L3.45280103e-16,12.819426 C-2.00617683e-16,8.3618323 0.464128056,6.74540111 1.33566352,5.11577148 C2.20719898,3.48614185 3.48614185,2.20719898 5.11577148,1.33566352 C6.74540111,0.464128056 8.3618323,8.27823274e-16 12.819426,-1.42475429e-15 Z" id="BG"></path>
                <g id="Group" transform="translate(9.000000, 9.000000)">
                    <g id="Lightbulb" transform="translate(7.000000, 4.000000)">
                        <path d="M11.4285714,17 L11.4285714,18.7857143 C11.4608411,19.704541 11.1099909,20.5954868 10.4598817,21.245596 C9.80977256,21.8957052 8.91882672,22.2465554 8,22.2142857 C7.08720766,22.2434781 6.20837267,21.8668345 5.6,21.1857143 C4.91887978,20.5773416 4.54223621,19.6985066 4.57142857,18.7857143 L4.57142857,17 L11.4285714,17 Z" id="Path" fill="url(#linearGradient-1)"></path>
                        <path d="M16,7.93333324 C16.0232811,10.52092 14.7354681,12.9473744 12.5714286,14.3933333 L12.5714286,15.8666667 C12.5714286,16.4925894 12.059754,17 11.4285714,17 L4.57142857,17 C3.940246,17 3.42857143,16.4925894 3.42857143,15.8666667 L3.42857143,14.3933333 C1.26453193,12.9473744 -0.0232810574,10.52092 2.53762939e-15,7.93333324 C9.31082467e-08,3.55187425 3.58172207,0 8,0 C12.4182779,0 15.9999999,3.55187425 16,7.93333324 L16,7.93333324 Z" id="Path" fill="url(#linearGradient-2)"></path>
                    </g>
                </g>
            </g>
        </g>
    </g>
</svg>