<?xml version="1.0" encoding="UTF-8"?>
<svg width="27px" height="24px" viewBox="0 0 27 24" version="1.1" xmlns="http://www.w3.org/2000/svg" xmlns:xlink="http://www.w3.org/1999/xlink">
    <title>friend_icon</title>
    <defs>
        <linearGradient x1="74.1010258%" y1="0.862281604%" x2="28.6720634%" y2="108.104127%" id="linearGradient-1">
            <stop stop-color="#69BFFF" offset="0%"></stop>
            <stop stop-color="#4545EA" offset="100%"></stop>
        </linearGradient>
        <radialGradient cx="6.9700972%" cy="10.3987043%" fx="6.9700972%" fy="10.3987043%" r="112.424594%" gradientTransform="translate(0.069701,0.103987),scale(0.523798,1.000000),rotate(52.843638),translate(-0.069701,-0.103987)" id="radialGradient-2">
            <stop stop-color="#6FC1FF" offset="0%"></stop>
            <stop stop-color="#6FC1FF" offset="46.2742752%"></stop>
            <stop stop-color="#7BB1FF" offset="100%"></stop>
        </radialGradient>
    </defs>
    <g id="Local-HUB-(FB)" stroke="none" stroke-width="1" fill="none" fill-rule="evenodd">
        <g id="Home/Local-Hub/Main" transform="translate(-27.000000, -306.000000)">
            <g id="Bottom/Icon-Copy-4" transform="translate(17.000000, 294.000000)">
                <path d="M12.819426,-1.42475429e-15 L35.180574,5.17920154e-16 C39.6381677,-3.00926524e-16 41.2545989,0.464128056 42.8842285,1.33566352 C44.5138581,2.20719898 45.792801,3.48614185 46.6643365,5.11577148 C47.5358719,6.74540111 48,8.3618323 48,12.819426 L48,35.180574 C48,39.6381677 47.5358719,41.2545989 46.6643365,42.8842285 C45.792801,44.5138581 44.5138581,45.792801 42.8842285,46.6643365 C41.2545989,47.5358719 39.6381677,48 35.180574,48 L12.819426,48 C8.3618323,48 6.74540111,47.5358719 5.11577148,46.6643365 C3.48614185,45.792801 2.20719898,44.5138581 1.33566352,42.8842285 C0.464128056,41.2545989 7.27514433e-16,39.6381677 -1.25211424e-15,35.180574 L3.45280103e-16,12.819426 C-2.00617683e-16,8.3618323 0.464128056,6.74540111 1.33566352,5.11577148 C2.20719898,3.48614185 3.48614185,2.20719898 5.11577148,1.33566352 C6.74540111,0.464128056 8.3618323,8.27823274e-16 12.819426,-1.42475429e-15 Z" id="BG"></path>
                <g id="Icon/Plus-Square" transform="translate(9.000000, 9.000000)">
                    <g id="Group-2" transform="translate(12.000000, 3.000000)">
                        <g id="User" transform="translate(0.347826, 0.739130)">
                            <path d="M12.173913,4.34782609 C12.173913,6.74906087 10.2273043,8.69565217 7.82608696,8.69565217 C5.42485217,8.69565217 3.47826087,6.74906087 3.47826087,4.34782609 C3.47826087,1.9465913 5.42485217,0 7.82608696,0 C10.2273043,0 12.173913,1.9465913 12.173913,4.34782609 Z" id="Path" fill="url(#linearGradient-1)"></path>
                            <path d="M13.7547826,11.4128696 C13.2187826,10.7913913 12.298087,10.8233913 11.5781739,11.2174783 C10.4641739,11.8272174 9.18565217,12.173913 7.82608696,12.173913 C6.46652174,12.173913 5.18798261,11.8272174 4.07395652,11.2174783 C3.35406087,10.8233913 2.4334,10.7913913 1.8973913,11.4128696 C0.714973913,12.7838261 0,14.5693043 0,16.5217391 L0,17.3913043 C0,18.3517391 0.778634783,19.1304348 1.73913043,19.1304348 L13.9130435,19.1304348 C14.8735652,19.1304348 15.6521739,18.3517391 15.6521739,17.3913043 L15.6521739,16.5217391 C15.6521739,14.5693043 14.9372174,12.7838261 13.7547826,11.4128696 Z" id="Path" fill="url(#radialGradient-2)"></path>
                        </g>
                    </g>
                    <g id="Group-2-Copy" transform="translate(1.000000, 7.000000)">
                        <g id="User" transform="translate(0.347826, 0.739130)">
                            <path d="M12.173913,4.34782609 C12.173913,6.74906087 10.2273043,8.69565217 7.82608696,8.69565217 C5.42485217,8.69565217 3.47826087,6.74906087 3.47826087,4.34782609 C3.47826087,1.9465913 5.42485217,0 7.82608696,0 C10.2273043,0 12.173913,1.9465913 12.173913,4.34782609 Z" id="Path" fill="url(#linearGradient-1)"></path>
                            <path d="M9.84871678,16.2608696 C8.99731758,15.2005639 9.14835675,12.3551349 9.04652645,12.0793097 C8.94469615,11.8034844 8.24124954,12.173913 7.82608696,12.173913 C6.46652174,12.173913 5.18798261,11.8272174 4.07395652,11.2174783 C3.35406087,10.8233913 2.4334,10.7913913 1.8973913,11.4128696 C0.714973913,12.7838261 0,14.5693043 0,16.5217391 L0,17.3913043 C0,18.3517391 0.778634783,19.1304348 1.73913043,19.1304348 L13.9130435,19.1304348 C14.8735652,19.1304348 15.6521739,18.2608696 15.6521739,17.3913043 C15.6521739,16.5217391 10.7156343,17.9150185 9.84871678,16.2608696 Z" id="Path" fill="url(#radialGradient-2)"></path>
                        </g>
                    </g>
                </g>
            </g>
        </g>
    </g>
</svg>