<?xml version="1.0" encoding="UTF-8"?>
<svg width="24px" height="16px" viewBox="0 0 24 16" version="1.1" xmlns="http://www.w3.org/2000/svg" xmlns:xlink="http://www.w3.org/1999/xlink">
    <title>Controller</title>
    <g id="-" stroke="none" stroke-width="1" fill="none" fill-rule="evenodd">
        <g id="!Icons/2.-Icons/Controller" transform="translate(-3.000000, -7.000000)">
            <g id="Controller" transform="translate(3.000000, 7.000000)">
                <path d="M1.4526,4.37983 C1.76537,1.87768 3.89237,0 6.41399,0 L17.5862,0 C20.1078,0 22.2348,1.87768 22.5476,4.37983 L23.322,10.5757 C23.6821,13.456 21.4363,16 18.5336,16 C16.9301,16 15.5005,15.2154 14.6212,14 L9.37894,14 C8.4997,15.2154 7.07009,16 5.46656,16 C2.5639,16 0.318082,13.456 0.678112,10.5757 L1.4526,4.37983 Z" id="Path" fill="#A7B4CB" opacity="0.6"></path>
                <path d="M8,4 C7.44772,4 7,4.44772 7,5 L7,6 L6,6 C5.44772,6 5,6.4477 5,7 C5,7.5523 5.44772,8 6,8 L7,8 L7,9 C7,9.5523 7.44772,10 8,10 C8.55229,10 9,9.5523 9,9 L9,8 L10,8 C10.5523,8 11,7.5523 11,7 C11,6.4477 10.5523,6 10,6 L9,6 L9,5 C9,4.44772 8.55229,4 8,4 Z" id="Path" fill="#16161F"></path>
                <path d="M18,6 C18.5523,6 19,5.55229 19,5 C19,4.44771 18.5523,4 18,4 C17.4477,4 17,4.44771 17,5 C17,5.55229 17.4477,6 18,6 Z" id="Path" fill="#16161F"></path>
                <path d="M16,10 C16.5523,10 17,9.5523 17,9 C17,8.4477 16.5523,8 16,8 C15.4477,8 15,8.4477 15,9 C15,9.5523 15.4477,10 16,10 Z" id="Path" fill="#16161F"></path>
            </g>
        </g>
    </g>
</svg>