<?xml version="1.0" encoding="UTF-8"?>
<svg width="30px" height="30px" viewBox="0 0 30 30" version="1.1" xmlns="http://www.w3.org/2000/svg" xmlns:xlink="http://www.w3.org/1999/xlink">
    <title>Icon/Giftbox</title>
    <g id="Icon/Giftbox" stroke="none" stroke-width="1" fill="none" fill-rule="evenodd">
        <g id="Giftbox" transform="translate(4.000000, 5.000000)">
            <path d="M13,5 L17.9,5 C17.9,4.7 18,4.3 18,4 C18,1.790861 16.209139,-6.65916974e-16 14,-6.65916974e-16 C12.8353535,-0.0316897407 11.7238063,0.487032292 11,1.4 C10.2761937,0.487032292 9.16464647,-0.0316897407 8,-8.87961579e-16 C5.790861,2.22261445e-16 4,1.790861 4,4 C4,4.3 4.1,4.7 4.1,5 L9,5 L9,20 L13,20 L13,5 Z" id="Path" fill="#A7B4CB" opacity="0.6"></path>
            <path d="M1.88284814,4.99375849 L2,5 L9,5 L9,20 L4,20 C3.72608506,20.0325803 3.45235669,19.9377481 3.25730429,19.7426957 C3.06225189,19.5476433 2.96741967,19.2739149 3,19 L3,19 L3,11 L2,11 C1.72608506,11.0325803 1.45235669,10.9377481 1.25730429,10.7426957 C1.06225189,10.5476433 0.967419673,10.2739149 1,10 L1,10 L1,6 C0.967419673,5.72608506 1.06225189,5.45235669 1.25730429,5.25730429 C1.45235669,5.06225189 1.72608506,4.96741967 2,5 Z M20,5 C20.2739149,4.96741967 20.5476433,5.06225189 20.7426957,5.25730429 C20.9377481,5.45235669 21.0325803,5.72608506 21,6 L21,6 L21,10 C21.0325803,10.2739149 20.9377481,10.5476433 20.7426957,10.7426957 C20.5476433,10.9377481 20.2739149,11.0325803 20,11 L20,11 L19,11 L19,19 C19.0325803,19.2739149 18.9377481,19.5476433 18.7426957,19.7426957 C18.5476433,19.9377481 18.2739149,20.0325803 18,20 L18,20 L13,20 L13,5 Z" id="Combined-Shape" fill="#16161F"></path>
        </g>
    </g>
</svg>