<?xml version="1.0" encoding="UTF-8"?>
<svg width="20px" height="20px" viewBox="0 0 20 20" version="1.1" xmlns="http://www.w3.org/2000/svg" xmlns:xlink="http://www.w3.org/1999/xlink">
    <title>!Icons/Apps Copy 22</title>
    <g id="Style-Guide/Icons" stroke="none" stroke-width="1" fill="none" fill-rule="evenodd">
        <g id="Style-Guide-Copy" transform="translate(-1486.000000, -785.000000)">
            <g id="Shape" transform="translate(1481.000000, 780.000000)">
                <path d="M23,16 C23.5523,16 24,16.4477 24,17 L24,22 C24,23.6569 22.6569,25 21,25 L9,25 C7.34315,25 6,23.6569 6,22 L6,17 C6,16.4477 6.44772,16 7,16 L23,16 Z M23,9 C24.1046,9 25,9.89543 25,11 L25,12 C25,13.1046 24.1046,14 23,14 L7,14 C5.89543,14 5,13.1046 5,12 L5,11 C5,9.89543 5.89543,9 7,9 L23,9 Z" fill="#A7B4CB" opacity="0.6"></path>
                <path d="M15.5,16 C15.7761,16 16,16.2239 16,16.5 L16,24.5 C16,24.7761 15.7761,25 15.5,25 L14.5,25 C14.2239,25 14,24.7761 14,24.5 L14,16.5 C14,16.2239 14.2239,16 14.5,16 L15.5,16 Z M17,5 C18.6569,5 20,6.34315 20,8 C20,9.59767679 18.7511226,10.9036606 17.1762773,10.9949073 L17,11 L16,11 L16,13.5 C16,13.7454222 15.8230914,13.9496 15.5898645,13.9919429 L15.5,14 L14.5,14 C14.2545778,14 14.0504,13.8230914 14.0080571,13.5898645 L14,13.5 L14,11 L13,11 C11.34315,11 10,9.65685 10,8 C10,6.34315 11.34315,5 13,5 C13.7684,5 14.4692,5.28885 15,5.76389 C15.5308,5.28885 16.2316,5 17,5 Z M13,7 C12.44772,7 12,7.44772 12,8 C12,8.55228 12.44772,9 13,9 L13.5,9 C13.7761,9 14,8.77614 14,8.5 L14,8 C14,7.44772 13.5523,7 13,7 Z M17,7 C16.48715,7 16.0644908,7.38604429 16.0067275,7.88337975 L16,8 L16,8.5 C16,8.74545778 16.1769086,8.9496079 16.4101355,8.99194425 L16.5,9 L17,9 C17.5523,9 18,8.55228 18,8 C18,7.44772 17.5523,7 17,7 Z" fill="#16161F"></path>
            </g>
        </g>
    </g>
</svg>