<?xml version="1.0" encoding="UTF-8"?>
<svg width="18px" height="18px" viewBox="0 0 18 18" version="1.1" xmlns="http://www.w3.org/2000/svg" xmlns:xlink="http://www.w3.org/1999/xlink">
    <title>Icon/Web</title>
    <g id="Icon/Web" stroke="none" stroke-width="1" fill="none" fill-rule="evenodd">
        <path d="M12.924,10.8 C12.996,10.206 13.05,9.612 13.05,9 C13.05,8.388 12.996,7.794 12.924,7.2 L15.966,7.2 C16.11,7.776 16.2,8.379 16.2,9 C16.2,9.621 16.11,10.224 15.966,10.8 M11.331,15.804 C11.871,14.805 12.285,13.725 12.573,12.6 L15.228,12.6 C14.364,14.085 12.987,15.237 11.331,15.804 M11.106,10.8 L6.894,10.8 C6.804,10.206 6.75,9.612 6.75,9 C6.75,8.388 6.804,7.785 6.894,7.2 L11.106,7.2 C11.187,7.785 11.25,8.388 11.25,9 C11.25,9.612 11.187,10.206 11.106,10.8 M9,16.164 C8.253,15.084 7.65,13.887 7.281,12.6 L10.719,12.6 C10.35,13.887 9.747,15.084 9,16.164 M5.4,5.4 L2.772,5.4 C3.627,3.906 5.013,2.754 6.66,2.196 C6.12,3.195 5.715,4.275 5.4,5.4 M2.772,12.6 L5.4,12.6 C5.715,13.725 6.12,14.805 6.66,15.804 C5.013,15.237 3.627,14.085 2.772,12.6 M2.034,10.8 C1.89,10.224 1.8,9.621 1.8,9 C1.8,8.379 1.89,7.776 2.034,7.2 L5.076,7.2 C5.004,7.794 4.95,8.388 4.95,9 C4.95,9.612 5.004,10.206 5.076,10.8 M9,1.827 C9.747,2.907 10.35,4.113 10.719,5.4 L7.281,5.4 C7.65,4.113 8.253,2.907 9,1.827 M15.228,5.4 L12.573,5.4 C12.285,4.275 11.871,3.195 11.331,2.196 C12.987,2.763 14.364,3.906 15.228,5.4 M9,0 C4.023,0 0,4.05 0,9 C0,11.3869484 0.948211563,13.6761336 2.63603897,15.363961 C4.32386638,17.0517884 6.61305159,18 9,18 C13.9705627,18 18,13.9705627 18,9 C18,6.61305159 17.0517884,4.32386638 15.363961,2.63603897 C13.6761336,0.948211563 11.3869484,0 9,0 Z" id="Shape" fill="#1E1F20"></path>
    </g>
</svg>