<?xml version="1.0" encoding="UTF-8"?>
<svg width="20px" height="18px" viewBox="0 0 20 18" version="1.1" xmlns="http://www.w3.org/2000/svg" xmlns:xlink="http://www.w3.org/1999/xlink">
    <title>Education/Graduation_cap</title>
    <g id="Style-Guide/Icons" stroke="none" stroke-width="1" fill="none" fill-rule="evenodd">
        <g id="Style-Guide-Copy" transform="translate(-1387.000000, -495.000000)" fill="#000000" fill-rule="nonzero">
            <g id="Group" transform="translate(1385.000000, 492.000000)">
                <g id="Path-2" opacity="0.400000006" transform="translate(6.000000, 13.000000)">
                    <path d="M6.6,3.6 C6.22392636,3.79565832 5.77607364,3.79565832 5.4,3.6 L0.3,0 C0.10231322,0.648313845 0.00122770245,1.32221729 0,2 C0,5.3137085 2.6862915,8 6,8 C9.3137085,8 12,5.3137085 12,2 C11.9987723,1.32221729 11.8976868,0.648313845 11.7,0 L6.6,3.6 Z" id="Path"></path>
                </g>
                <path d="M11.4,3.4 L3.2,9.2 C2.90050517,9.3543561 2.71231056,9.66306831 2.71231056,10 C2.71231056,10.3369317 2.90050517,10.6456439 3.2,10.8 L11.4,16.6 C11.7760736,16.7956583 12.2239264,16.7956583 12.6,16.6 L18.4,12.5 C18.7030176,12.2727368 19.1084296,12.2361808 19.4472136,12.4055728 C19.7859976,12.5749648 20,12.9212279 20,13.3 L20,17 C19.9674197,17.2739149 20.0622519,17.5476433 20.2573043,17.7426957 C20.4523567,17.9377481 20.7260851,18.0325803 21,18 L21,18 C21.2739149,18.0325803 21.5476433,17.9377481 21.7426957,17.7426957 C21.9377481,17.5476433 22.0325803,17.2739149 22,17 L22,10.5 C21.974743,10.1917504 21.8314455,9.90515542 21.6,9.7 L12.6,3.4 C12.2239264,3.20434168 11.7760736,3.20434168 11.4,3.4 L11.4,3.4 Z" id="Path"></path>
            </g>
        </g>
    </g>
</svg>