<?xml version="1.0" encoding="UTF-8"?>
<svg width="32px" height="32px" viewBox="0 0 32 32" version="1.1" xmlns="http://www.w3.org/2000/svg" xmlns:xlink="http://www.w3.org/1999/xlink">
    <title>Group 2 Copy</title>
    <g id="-" stroke="none" stroke-width="1" fill="none" fill-rule="evenodd">
        <g id="!Icons/2.-Icons/Group" transform="translate(1.000000, 1.000000)">
            <g id="Group-2-Copy" transform="translate(-1.000000, -1.000000)">
                <g id="Group" transform="translate(0.347826, 0.739130)">
                    <path d="M21.6521739,0.260869565 C26.6227367,0.260869565 30.6521739,4.29030682 30.6521739,9.26086957 L30.6521739,21.2608696 C30.6521739,26.2314323 26.6227367,30.2608696 21.6521739,30.2608696 L9.65217391,30.2608696 C4.68161116,30.2608696 0.652173913,26.2314323 0.652173913,21.2608696 L0.652173913,9.26086957 C0.652173913,4.29030682 4.68161116,0.260869565 9.65217391,0.260869565 L21.6521739,0.260869565 Z M20.8521739,2.26086957 L10.4521739,2.26086957 C6.22719558,2.26086957 2.78679013,5.62002543 2.65602934,9.81326539 L2.65217391,10.0608696 L2.65217391,20.4608696 C2.65217391,20.7419186 2.66703824,21.0194959 2.69602364,21.2928582 C3.00599963,20.6073364 3.41236944,19.9752293 3.8973913,19.4128696 C4.4334,18.7913913 5.35406087,18.8233913 6.07395652,19.2174783 C7.18798261,19.8272174 8.46652174,20.173913 9.82608696,20.173913 C10.2412495,20.173913 10.9446961,19.8034844 11.0465265,20.0793097 C11.1483568,20.3551349 10.9973176,23.2005639 11.8487168,24.2608696 C12.7156343,25.9150185 17.6521739,24.5217391 17.6521739,25.3913043 C17.6521739,25.9719281 17.3609518,27.386091 16.8814689,28.2617868 L20.8521739,28.2608696 C24.5672411,28.2608696 27.6756869,25.663615 28.4607883,22.185829 C28.1720504,22.7466367 27.587377,23.1304348 26.9130435,23.1304348 L26.9130435,23.1304348 L14.7391304,23.1304348 C13.7786348,23.1304348 13,22.3517391 13,21.3913043 L13,21.3913043 L13,20.5217391 C13,18.5693043 13.7149739,16.7838261 14.8973913,15.4128696 C15.4334,14.7913913 16.3540609,14.8233913 17.0739565,15.2174783 C18.1879826,15.8272174 19.4665217,16.173913 20.826087,16.173913 C22.1856522,16.173913 23.4641739,15.8272174 24.5781739,15.2174783 C25.298087,14.8233913 26.2187826,14.7913913 26.7547826,15.4128696 C27.9372174,16.7838261 28.6521739,18.5693043 28.6521739,20.5217391 L28.6521739,20.5217391 L28.6521739,20.4608696 L28.6521739,10.0608696 C28.6521739,5.75304852 25.159995,2.26086957 20.8521739,2.26086957 Z" id="Combined-Shape" fill="#A7B4CB" opacity="0.6"></path>
                    <path d="M25.173913,8.34782609 C25.173913,10.7490609 23.2273043,12.6956522 20.826087,12.6956522 C18.4248522,12.6956522 16.4782609,10.7490609 16.4782609,8.34782609 C16.4782609,5.9465913 18.4248522,4 20.826087,4 C23.2273043,4 25.173913,5.9465913 25.173913,8.34782609 Z" id="Path" fill="#16161F"></path>
                    <path d="M14.173913,12.3478261 C14.173913,14.7490609 12.2273043,16.6956522 9.82608696,16.6956522 C7.42485217,16.6956522 5.47826087,14.7490609 5.47826087,12.3478261 C5.47826087,9.9465913 7.42485217,8 9.82608696,8 C12.2273043,8 14.173913,9.9465913 14.173913,12.3478261 Z" id="Path" fill="#16161F"></path>
                </g>
            </g>
        </g>
    </g>
</svg>