<svg id="Layer_1" data-name="Layer 1" xmlns="http://www.w3.org/2000/svg" xmlns:xlink="http://www.w3.org/1999/xlink" viewBox="0 0 24 24"><defs><clipPath id="clip-path"><path class="cls-1" d="M16.57,20.54V17c0-3.62-4.7-5.3-7.5-5.49V11h14V21Z"/></clipPath></defs><title>Cloud_Icons</title><path class="cls-2" d="M17.07,5.27a2,2,0,1,1-2,2,2,2,0,0,1,2-2m0-1.5a3.5,3.5,0,1,0,3.5,3.5,3.49,3.49,0,0,0-3.5-3.5Z"/><path class="cls-2" d="M7.07,5.27a2,2,0,1,1-2,2,2,2,0,0,1,2-2m0-1.5a3.5,3.5,0,1,0,3.5,3.5,3.49,3.49,0,0,0-3.5-3.5Z"/><path class="cls-2" d="M7.57,14.54c1.88,0,5,1.16,5,2.5v.5h-10V17c0-1.34,3.11-2.5,5-2.5m0-1.5c-2.17,0-6.5,1.34-6.5,4v2h13V17c0-2.66-4.33-4-6.5-4Z"/><g class="cls-3"><path class="cls-2" d="M16.57,14.54c1.88,0,5,1.16,5,2.5v.5h-10V17c0-1.34,3.11-2.5,5-2.5m0-1.5c-2.17,0-6.5,1.34-6.5,4v2h13V17c0-2.66-4.33-4-6.5-4Z"/></g></svg>