<?xml version="1.0" encoding="UTF-8"?>
<svg width="20px" height="16px" viewBox="0 0 20 16" version="1.1" xmlns="http://www.w3.org/2000/svg" xmlns:xlink="http://www.w3.org/1999/xlink">
    <title>Bottom/Icon</title>
    <g id="Local-HUB-(FB)" stroke="none" stroke-width="1" fill="none" fill-rule="evenodd">
        <g id="Home/Local-Hub/PopUp-windows" transform="translate(-83.000000, -795.000000)">
            <g id="Pop-up_Your-Post-Options" transform="translate(44.000000, 557.000000)">
                <g id="Bottom/Icon" transform="translate(25.000000, 222.000000)">
                    <path d="M12.819426,-1.42475429e-15 L35.180574,5.17920154e-16 C39.6381677,-3.00926524e-16 41.2545989,0.464128056 42.8842285,1.33566352 C44.5138581,2.20719898 45.792801,3.48614185 46.6643365,5.11577148 C47.5358719,6.74540111 48,8.3618323 48,12.819426 L48,35.180574 C48,39.6381677 47.5358719,41.2545989 46.6643365,42.8842285 C45.792801,44.5138581 44.5138581,45.792801 42.8842285,46.6643365 C41.2545989,47.5358719 39.6381677,48 35.180574,48 L12.819426,48 C8.3618323,48 6.74540111,47.5358719 5.11577148,46.6643365 C3.48614185,45.792801 2.20719898,44.5138581 1.33566352,42.8842285 C0.464128056,41.2545989 7.27514433e-16,39.6381677 -1.25211424e-15,35.180574 L3.45280103e-16,12.819426 C-2.00617683e-16,8.3618323 0.464128056,6.74540111 1.33566352,5.11577148 C2.20719898,3.48614185 3.48614185,2.20719898 5.11577148,1.33566352 C6.74540111,0.464128056 8.3618323,8.27823274e-16 12.819426,-1.42475429e-15 Z" id="BG"></path>
                    <g id="Group" transform="translate(9.000000, 9.000000)">
                        <rect id="Rectangle" x="0" y="0" width="30" height="30"></rect>
                        <g id="Eyeball_on" transform="translate(5.000000, 9.000000)">
                            <path d="M19.5,5.4 C18.3,3.9 14.8,0 10,0 C5.2,0 1.7,3.9 0.5,5.4 C0.194427191,5.74164079 0.194427191,6.25835921 0.5,6.6 C1.7,8.1 5.2,12 10,12 C14.8,12 18.3,8.1 19.5,6.6 C19.8055728,6.25835921 19.8055728,5.74164079 19.5,5.4 Z M10,9 C8.34314575,9 7,7.65685425 7,6 C7,4.34314575 8.34314575,3 10,3 C11.6568542,3 13,4.34314575 13,6 C13.028236,6.80397338 12.721242,7.58355099 12.1523965,8.15239652 C11.583551,8.72124205 10.8039734,9.02823599 10,9 Z" id="Shape" fill="#A7B4CB" opacity="0.6"></path>
                            <circle id="Oval" fill="#16161F" cx="10" cy="6" r="3"></circle>
                        </g>
                        <path d="M6,14 L24,14 C24.5522847,14 25,14.4477153 25,15 C25,15.5522847 24.5522847,16 24,16 L6,16 C5.44771525,16 5,15.5522847 5,15 C5,14.4477153 5.44771525,14 6,14 Z" id="Rectangle" fill="#16161F" transform="translate(15.000000, 15.000000) rotate(-315.000000) translate(-15.000000, -15.000000) "></path>
                    </g>
                </g>
            </g>
        </g>
    </g>
</svg>