<?xml version="1.0" encoding="UTF-8"?>
<svg width="22px" height="20px" viewBox="0 0 22 20" version="1.1" xmlns="http://www.w3.org/2000/svg" xmlns:xlink="http://www.w3.org/1999/xlink">
    <title>!Icons/Apps Copy 4</title>
    <g id="Style-Guide/Icons" stroke="none" stroke-width="1" fill="none" fill-rule="evenodd">
        <g id="Style-Guide-Copy" transform="translate(-211.000000, -86.000000)">
            <g id="Group" transform="translate(207.000000, 81.000000)">
                <rect id="Rectangle" x="0" y="0" width="30" height="30"></rect>
                <g id="Home" transform="translate(4.000000, 5.000000)">
                    <path d="M19,16.8 L19,4.63995 L12.6514,0.81498 L12.6514,0.81497 C12.0511,0.4533 11.751,0.27247 11.4304,0.20183 C11.1469,0.13935 10.8531,0.13935 10.5696,0.20183 C10.249,0.27247 9.9489,0.45331 9.3486,0.81498 L3,4.63998 L3,16.8 C3,17.9201 3,18.4801 3.21799,18.908 C3.40973,19.2843 3.71569,19.5903 4.09202,19.782 C4.51984,20 5.0799,20 6.2,20 L15.8,20 C16.9201,20 17.4802,20 17.908,19.782 C18.2843,19.5903 18.5903,19.2843 18.782,18.908 C19,18.4801 19,17.9201 19,16.8 Z" id="Path" fill="#A7B4CB" opacity="0.6"></path>
                    <path d="M0.14254,7.51447 C0.42668,7.98805 1.04094,8.1416 1.51452,7.85746 L11,2.166165 L20.4855,7.85746 C20.9591,8.1416 21.5734,7.98805 21.8575,7.51447 C22.1417,7.04089 21.9881,6.42663 21.5145,6.14248 L12.029,0.45118 C11.3957,0.07116 10.6044,0.07116 9.971,0.45118 L0.48553,6.14248 C0.01195,6.42663 -0.141612,7.04089 0.14254,7.51447 Z" id="Path" fill="#16161F"></path>
                    <path d="M8,14 C8,12.3431 9.3431,11 11,11 L11,11 C12.6569,11 14,12.3431 14,14 L14,20 L8,20 L8,14 Z" id="Path" fill="#16161F"></path>
                </g>
            </g>
        </g>
    </g>
</svg>