<?xml version="1.0" encoding="UTF-8"?>
<svg width="28px" height="28px" viewBox="0 0 28 28" version="1.1" xmlns="http://www.w3.org/2000/svg" xmlns:xlink="http://www.w3.org/1999/xlink">
    <title>Button</title>
    <defs>
        <polygon id="path-1" points="13.2631579 2.94736842 4.42105263 11.7894737 0.368421053 7.73684211 1.40736842 6.69789474 4.42105263 9.70421053 12.2242105 1.90842105"></polygon>
    </defs>
    <g id="Local-HUB-(FB)" stroke="none" stroke-width="1" fill="none" fill-rule="evenodd">
        <g id="Home/Local-Hub/Main" transform="translate(-1388.000000, -626.000000)">
            <g id="Trend" transform="translate(1143.000000, 571.000000)">
                <g id="User/02" transform="translate(0.000000, 50.000000)">
                    <g id="Button/Icon" transform="translate(245.000000, 5.000000)">
                        <path d="M9.44589284,-3.81625377e-16 L18.5541072,3.81625377e-16 C21.8386499,-2.21735334e-16 23.0297044,0.341989094 24.2304842,0.984173119 C25.4312639,1.62635714 26.3736429,2.5687361 27.0158269,3.76951583 C27.6580109,4.97029556 28,6.16135012 28,9.44589284 L28,18.5541072 C28,21.8386499 27.6580109,23.0297044 27.0158269,24.2304842 C26.3736429,25.4312639 25.4312639,26.3736429 24.2304842,27.0158269 C23.0297044,27.6580109 21.8386499,28 18.5541072,28 L9.44589284,28 C6.16135012,28 4.97029556,27.6580109 3.76951583,27.0158269 C2.5687361,26.3736429 1.62635714,25.4312639 0.984173119,24.2304842 C0.341989094,23.0297044 6.83870734e-16,21.8386499 -1.17699972e-15,18.5541072 L2.54416918e-16,9.44589284 C-1.47823556e-16,6.16135012 0.341989094,4.97029556 0.984173119,3.76951583 C1.62635714,2.5687361 2.5687361,1.62635714 3.76951583,0.984173119 C4.97029556,0.341989094 6.16135012,2.21735334e-16 9.44589284,-3.81625377e-16 Z" id="Background-Color" fill="#1269FF" opacity="0.1"></path>
                        <g id="Icon" transform="translate(7.368421, 7.368421)">
                            <mask id="mask-2" fill="white">
                                <use xlink:href="#path-1"></use>
                            </mask>
                            <use id="Shape" fill="#16161F" xlink:href="#path-1"></use>
                        </g>
                    </g>
                </g>
            </g>
        </g>
    </g>
</svg>