<?xml version="1.0" encoding="UTF-8"?>
<svg width="26px" height="26px" viewBox="0 0 26 26" version="1.1" xmlns="http://www.w3.org/2000/svg" xmlns:xlink="http://www.w3.org/1999/xlink">
    <title>Fill 33</title>
    <g id="Local-HUB-(FB)" stroke="none" stroke-width="1" fill="none" fill-rule="evenodd">
        <g id="Home/Local-Hub/PopUp-windows" transform="translate(-1304.000000, -1030.000000)" fill="#1269FF">
            <g id="Share-Social-Network" transform="translate(1190.000000, 1013.000000)">
                <path d="M136.156063,39.1544375 L132.299937,39.1544375 L132.299937,33.1208125 C132.299937,31.681875 132.275563,29.831 130.296313,29.831 C128.29025,29.831 127.983938,31.399125 127.983938,33.017625 L127.983938,39.1544375 L124.131875,39.1544375 L124.131875,26.74675 L127.82875,26.74675 L127.82875,28.44325 L127.881563,28.44325 C128.395875,27.4674375 129.653625,26.4388125 131.529688,26.4388125 C135.434562,26.4388125 136.156063,29.0079375 136.156063,32.34975 L136.156063,39.1544375 Z M119.784188,25.051875 C118.545125,25.051875 117.546563,24.0500625 117.546563,22.8150625 C117.546563,21.580875 118.545125,20.5790625 119.784188,20.5790625 C121.017562,20.5790625 122.019375,21.580875 122.019375,22.8150625 C122.019375,24.0500625 121.017562,25.051875 119.784188,25.051875 L119.784188,25.051875 Z M121.713062,39.1544375 L117.852875,39.1544375 L117.852875,26.74675 L121.713062,26.74675 L121.713062,39.1544375 Z M138.916938,17 L115.083875,17 C114.485063,17 114,17.4850625 114,18.0830625 L114,41.916125 C114,42.5149375 114.485063,43 115.083875,43 L138.916938,43 C139.514938,43 140,42.5149375 140,41.916125 L140,18.0830625 C140,17.4850625 139.514938,17 138.916938,17 L138.916938,17 Z" id="Fill-33"></path>
            </g>
        </g>
    </g>
</svg>