<?xml version="1.0" encoding="UTF-8"?>
<svg width="26px" height="26px" viewBox="0 0 26 26" version="1.1" xmlns="http://www.w3.org/2000/svg" xmlns:xlink="http://www.w3.org/1999/xlink">
    <title>Fill 274</title>
    <defs>
        <filter id="filter-1">
            <feColorMatrix in="SourceGraphic" type="matrix" values="0 0 0 0 0.070588 0 0 0 0 0.411765 0 0 0 0 1.000000 0 0 0 1.000000 0"></feColorMatrix>
        </filter>
    </defs>
    <g id="Local-HUB-(FB)" stroke="none" stroke-width="1" fill="none" fill-rule="evenodd">
        <g id="Home/Local-Hub/PopUp-windows" transform="translate(-1353.000000, -1030.000000)">
            <g id="Fill-274" transform="translate(1190.000000, 1013.000000)" filter="url(#filter-1)">
                <g transform="translate(163.000000, 17.000000)">
                    <path d="M22.75,23.5625 L3.25,23.5625 C2.8015,23.5625 2.4375,23.1985 2.4375,22.75 L2.4375,10.5625 L5.6875,10.5625 C5.2641875,11.171875 5.1211875,12.3085625 5.1211875,13.0300625 C5.1211875,17.381 8.669375,20.9210625 13.0300625,20.9210625 C17.3915625,20.9210625 20.93975,17.381 20.93975,13.0300625 C20.93975,12.3085625 20.837375,11.1889375 20.3125,10.5625 L23.5625,10.5625 L23.5625,22.75 C23.5625,23.1985 23.1985,23.5625 22.75,23.5625 M13.0300625,8.042125 C15.79175,8.042125 18.0301875,10.2756875 18.0301875,13.0300625 C18.0301875,15.78525 15.79175,18.0188125 13.0300625,18.0188125 C10.2691875,18.0188125 8.03075,15.78525 8.03075,13.0300625 C8.03075,10.2756875 10.2691875,8.042125 13.0300625,8.042125 M19.5,3.25 L21.9375,3.25 C22.386,3.25 22.75,3.614 22.75,4.0625 L22.75,6.5 C22.75,6.9485 22.386,7.3125 21.9375,7.3125 L19.5,7.3125 C19.0515,7.3125 18.6875,6.9485 18.6875,6.5 L18.6875,4.0625 C18.6875,3.614 19.0515,3.25 19.5,3.25 M22.90925,0 L3.09075,0 C1.3836875,0 0,1.3804375 0,3.0834375 L0,22.9165625 C0,24.6195625 1.3836875,26 3.09075,26 L22.90925,26 C24.6163125,26 26,24.6195625 26,22.9165625 L26,3.0834375 C26,1.3804375 24.6163125,0 22.90925,0" id="Fill-23" fill="#444444"></path>
                </g>
            </g>
        </g>
    </g>
</svg>