<svg xmlns="http://www.w3.org/2000/svg" xmlns:xlink="http://www.w3.org/1999/xlink" width="18px" height="18px" viewBox="0 0 18 18" version="1.1">
    <title>Icon/Camera</title>
    <defs>
        <path d="M1.8,2.8 L4.5,2.8 L6.3,1 L11.7,1 L13.5,2.8 L16.2,2.8 C17.1941125,2.8 18,3.60588745 18,4.6 L18,15.4 C18,16.3941125 17.1941125,17.2 16.2,17.2 L1.8,17.2 C0.80588745,17.2 0,16.3941125 0,15.4 L0,4.6 C0,3.60588745 0.80588745,2.8 1.8,2.8 L1.8,2.8 Z M9,5.5 C6.51471863,5.5 4.5,7.51471863 4.5,10 C4.5,12.4852814 6.51471863,14.5 9,14.5 C11.4852814,14.5 13.5,12.4852814 13.5,10 C13.5,7.51471863 11.4852814,5.5 9,5.5 L9,5.5 Z M9,7.3 C10.4911688,7.3 11.7,8.50883118 11.7,10 C11.7,11.4911688 10.4911688,12.7 9,12.7 C7.50883118,12.7 6.3,11.4911688 6.3,10 C6.3,8.50883118 7.50883118,7.3 9,7.3 Z" id="path-1"/>
    </defs>
    <g id="Icon/Camera" stroke="none" stroke-width="1" fill="none" fill-rule="evenodd">
        <mask id="mask-2" fill="white">
            <use xlink:href="#path-1"/>
        </mask>
        <use id="Shape" fill="#fff" xlink:href="#path-1"/>
    </g>
</svg>