<svg xmlns="http://www.w3.org/2000/svg" xmlns:xlink="http://www.w3.org/1999/xlink" width="18px" height="18px" viewBox="0 0 18 18" version="1.1">
    <title>Icon/Eye</title>
    <defs>
        <path d="M9,6.09090909 C7.64439198,6.09090909 6.54545455,7.18984652 6.54545455,8.54545455 C6.54545455,9.90106257 7.64439198,11 9,11 C10.355608,11 11.4545455,9.90106257 11.4545455,8.54545455 C11.4545455,7.18984652 10.355608,6.09090909 9,6.09090909 L9,6.09090909 Z M9,12.6363636 C6.7406533,12.6363636 4.90909091,10.8048012 4.90909091,8.54545455 C4.90909091,6.28610784 6.7406533,4.45454545 9,4.45454545 C11.2593467,4.45454545 13.0909091,6.28610784 13.0909091,8.54545455 C13.0909091,10.8048012 11.2593467,12.6363636 9,12.6363636 L9,12.6363636 Z M9,2.40909091 C4.90909091,2.40909091 1.41545455,4.95363636 0,8.54545455 C1.41545455,12.1372727 4.90909091,14.6818182 9,14.6818182 C13.0909091,14.6818182 16.5845455,12.1372727 18,8.54545455 C16.5845455,4.95363636 13.0909091,2.40909091 9,2.40909091 Z" id="path-1"/>
    </defs>
    <g id="Icon/Eye" stroke="none" stroke-width="1" fill="none" fill-rule="evenodd">
        <mask id="mask-2" fill="white">
            <use xlink:href="#path-1"/>
        </mask>
        <use id="Shape" fill="#fff" xlink:href="#path-1"/>
    </g>
</svg>