<svg xmlns="http://www.w3.org/2000/svg" xmlns:xlink="http://www.w3.org/1999/xlink" width="18px" height="18px" viewBox="0 0 18 18" version="1.1">
    <title>Icon/Thumbsup</title>
    <g id="Icon/Thumbsup" stroke="none" stroke-width="1" fill="none" fill-rule="evenodd">
        <path d="M18,8.36363636 C18,7.45545455 17.2636364,6.72727273 16.3636364,6.72727273 L11.1927273,6.72727273 L11.9781818,2.98818182 C11.9945455,2.90636364 12.0027273,2.81636364 12.0027273,2.72636364 C12.0027273,2.39090909 11.8636364,2.08 11.6427273,1.85909091 L10.7754545,1 L5.39181818,6.38363636 C5.08909091,6.68636364 4.90909091,7.09545455 4.90909091,7.54545455 L4.90909091,15.7272727 C4.90909091,16.6310114 5.64171586,17.3636364 6.54545455,17.3636364 L13.9090909,17.3636364 C14.5881818,17.3636364 15.1690909,16.9545455 15.4145455,16.3654545 L17.8854545,10.5972727 C17.9590909,10.4090909 18,10.2127273 18,10 L18,8.36363636 M0,17.3636364 L3.27272727,17.3636364 L3.27272727,7.54545455 L0,7.54545455 L0,17.3636364 Z" id="Shape" fill="#fff"/>
    </g>
</svg>