<?xml version="1.0" encoding="UTF-8"?>
<svg width="20px" height="20px" viewBox="0 0 20 20" version="1.1" xmlns="http://www.w3.org/2000/svg" xmlns:xlink="http://www.w3.org/1999/xlink">
    <title>Icon/Plus Square</title>
    <g id="Work-In-Progress" stroke="none" stroke-width="1" fill="none" fill-rule="evenodd">
        <g id="Group-28-Copy" transform="translate(-39.000000, -372.000000)">
            <g id="menu-copy-7" transform="translate(25.000000, 358.000000)">
                <g id="Group" transform="translate(9.000000, 9.000000)">
                    <rect id="Rectangle" x="0" y="0" width="30" height="30"></rect>
                    <g id="link-(2)" transform="translate(5.000000, 5.000000)">
                        <path d="M12.1814035,7.7817154 C11.9449123,7.54382066 11.6826901,7.33294347 11.3996101,7.15294347 C10.6498246,6.67282651 9.77816764,6.41769176 8.88783626,6.41769176 C7.65208577,6.41539961 6.46654971,6.90639376 5.59426901,7.7817154 L1.36253411,12.0167641 C0.491734893,12.8892398 0.00230019493,14.071345 0.00151950354,15.3040156 C-0.000116959064,17.8763353 2.08378168,19.962924 4.65610136,19.9645894 C5.88994152,19.9688499 7.07438596,19.4801949 7.94635478,18.6072125 L11.4395322,15.1140351 C11.5030019,15.0511111 11.5384405,14.9652632 11.5379337,14.8759064 C11.5368811,14.6921637 11.3870565,14.5440936 11.2033138,14.5451462 L11.0702534,14.5451462 C10.3404288,14.5477193 9.61711501,14.4075634 8.94109162,14.1326316 C8.81653021,14.0813645 8.67337232,14.1102924 8.57847953,14.205809 L6.06670565,16.7208967 C5.28674464,17.5008577 4.02218324,17.5008577 3.24222222,16.7208967 C2.46226121,15.9409357 2.46226121,14.6763743 3.24222222,13.8964133 L7.49060429,9.65138402 C8.26994152,8.87302144 9.53243665,8.87302144 10.3117739,9.65138402 C10.8369981,10.145692 11.6562573,10.145692 12.1814425,9.65138402 C12.4074074,9.42522417 12.5444055,9.12526316 12.5673684,8.80635478 C12.5916569,8.42526316 12.4511111,8.05204678 12.1814035,7.7817154 Z" id="Path" fill="#1269FF" opacity="0.3"></path>
                        <path d="M18.5988694,1.36424951 C16.779883,-0.454736842 13.8307212,-0.454736842 12.0117349,1.36424951 L8.52187135,4.85076023 C8.42604288,4.94705653 8.39840156,5.09189084 8.4520078,5.21672515 C8.50499025,5.34191033 8.62881092,5.42226121 8.76471735,5.41964912 L8.88779727,5.41964912 C9.61676413,5.41832359 10.3389084,5.55957115 11.0136452,5.83551657 C11.1382066,5.88678363 11.2813645,5.85785575 11.3762573,5.76233918 L13.8813645,3.26054581 C14.6613255,2.4805848 15.9258869,2.4805848 16.705848,3.26054581 C17.485809,4.04050682 17.485809,5.30506823 16.705848,6.08502924 L13.5852632,9.20226121 L13.5586355,9.23220273 L12.4674464,10.3167641 C11.6881092,11.0951267 10.425614,11.0951267 9.6462768,10.3167641 C9.12105263,9.82245614 8.30179337,9.82245614 7.77660819,10.3167641 C7.54920078,10.5446394 7.41208577,10.8472125 7.39068226,11.1684211 C7.36635478,11.5495127 7.50690058,11.922729 7.77660819,12.1930994 C8.16167641,12.5798051 8.61220273,12.8951657 9.10732943,13.1246004 C9.17719298,13.1578558 9.24705653,13.1844834 9.31692008,13.214425 C9.38678363,13.2443665 9.45996101,13.2676413 9.52982456,13.294269 C9.59968811,13.3208967 9.6728655,13.3441715 9.74272904,13.3641326 L9.93902534,13.4173489 C10.0720858,13.4506043 10.2051852,13.477232 10.3415595,13.5005068 C10.505848,13.5249123 10.671306,13.5404678 10.837271,13.5470955 L11.0701365,13.5470955 L11.0900975,13.5470955 L11.2897076,13.5238207 C11.362885,13.5205068 11.4394152,13.5038596 11.5259259,13.5038596 L11.6390253,13.5038596 L11.868577,13.4706043 L11.9750487,13.4506433 L12.1679922,13.4107212 L12.2046004,13.4107212 C13.0217934,13.2054581 13.7679922,12.7823392 14.3637037,12.1864327 L18.5987524,7.95138402 C20.4178558,6.13239766 20.4178558,3.18323587 18.5988694,1.36424951 Z" id="Path" fill="#1269FF"></path>
                    </g>
                </g>
            </g>
        </g>
    </g>
</svg>