<?xml version="1.0" encoding="UTF-8"?>
<svg width="25px" height="17px" viewBox="0 0 25 17" version="1.1" xmlns="http://www.w3.org/2000/svg" xmlns:xlink="http://www.w3.org/1999/xlink">
    <title>Bottom/Icon</title>
    <g id="Local-HUB-(FB)" stroke="none" stroke-width="1" fill="none" fill-rule="evenodd">
        <g id="Home/Local-Hub/Active-Menus" transform="translate(-153.000000, -1119.000000)">
            <g id="pop-up-Sort-by" transform="translate(115.000000, 882.000000)">
                <g id="Bottom/Icon" transform="translate(25.000000, 222.000000)">
                    <path d="M12.819426,-1.42475429e-15 L35.180574,5.17920154e-16 C39.6381677,-3.00926524e-16 41.2545989,0.464128056 42.8842285,1.33566352 C44.5138581,2.20719898 45.792801,3.48614185 46.6643365,5.11577148 C47.5358719,6.74540111 48,8.3618323 48,12.819426 L48,35.180574 C48,39.6381677 47.5358719,41.2545989 46.6643365,42.8842285 C45.792801,44.5138581 44.5138581,45.792801 42.8842285,46.6643365 C41.2545989,47.5358719 39.6381677,48 35.180574,48 L12.819426,48 C8.3618323,48 6.74540111,47.5358719 5.11577148,46.6643365 C3.48614185,45.792801 2.20719898,44.5138581 1.33566352,42.8842285 C0.464128056,41.2545989 7.27514433e-16,39.6381677 -1.25211424e-15,35.180574 L3.45280103e-16,12.819426 C-2.00617683e-16,8.3618323 0.464128056,6.74540111 1.33566352,5.11577148 C2.20719898,3.48614185 3.48614185,2.20719898 5.11577148,1.33566352 C6.74540111,0.464128056 8.3618323,8.27823274e-16 12.819426,-1.42475429e-15 Z" id="BG"></path>
                    <g id="Path" transform="translate(9.000000, 9.000000)">
                        <path d="M22.1818182,6 L5.81818182,6 C4.81363636,6 4,7.01433333 4,8.26666667 L4,20.7333333 C4,21.9856667 4.81363636,23 5.81818182,23 L22.1818182,23 C23.1863636,23 24,21.9856667 24,20.7333333 L24,8.26666667 C24,7.01433333 23.1863636,6 22.1818182,6 Z" fill="#A7B4CB" opacity="0.6"></path>
                        <path d="M20.2961032,16.8249819 L24.2961032,11.007296 C24.6961032,10.4247637 25.4961032,10.4247637 25.8961032,11.007296 L29.8961032,16.8249819 C30.3901032,17.5438747 30.5868532,18.2371468 29.7628532,18.2371468 L20.7628532,18.2371468 C19.9388532,18.2371468 19.8021032,17.5438747 20.2961032,16.8249819 Z" fill="#16161F" transform="translate(25.166625, 14.403772) scale(-1, 1) rotate(90.000000) translate(-25.166625, -14.403772) "></path>
                    </g>
                </g>
            </g>
        </g>
    </g>
</svg>