<?xml version="1.0" encoding="UTF-8"?>
<svg width="30px" height="30px" viewBox="0 0 30 30" version="1.1" xmlns="http://www.w3.org/2000/svg" xmlns:xlink="http://www.w3.org/1999/xlink">
    <title>location_icon</title>
    <g id="location_icon" stroke="none" stroke-width="1" fill="none" fill-rule="evenodd">
        <g id="Map-Marker" transform="translate(6.000000, 4.000000)">
            <path d="M18,9 C18,14.4917 13.1746,19.1791 10.5904,21.2957 C9.6534,22.0631 8.3466,22.0631 7.4096,21.2957 C4.82537,19.1791 0,14.4917 0,9 C0,4.02944 4.02944,0 9,0 C13.9706,0 18,4.02944 18,9 Z" id="Path" fill="#A7B4CB" opacity="0.6"></path>
            <path d="M12,8 C12,9.6569 10.6569,11 9,11 C7.3431,11 6,9.6569 6,8 C6,6.34315 7.3431,5 9,5 C10.6569,5 12,6.34315 12,8 Z" id="Path" fill="#16161F"></path>
        </g>
    </g>
</svg>