<?xml version="1.0" encoding="UTF-8"?>
<svg width="30px" height="30px" viewBox="0 0 30 30" version="1.1" xmlns="http://www.w3.org/2000/svg" xmlns:xlink="http://www.w3.org/1999/xlink">
    <title>lock_iconb</title>
    <g id="lock_iconb" stroke="none" stroke-width="1" fill="none" fill-rule="evenodd">
        <g id="Lock" transform="translate(6.000000, 5.000000)">
            <path d="M9,12 C10.1045695,12 11,12.8954305 11,14 C11,15.1045695 10.1045695,16 9,16 C7.8954305,16 7,15.1045695 7,14 C7,12.8954305 7.8954305,12 9,12 Z M9,8.8817842e-16 L9.22493826,0.00413847206 C12.4344251,0.122428238 15,2.76160306 15,6 L15,6 L15,8 L3,8 L3,6 C3,2.6862915 5.6862915,8.8817842e-16 9,8.8817842e-16 L9,8.8817842e-16 Z" id="Combined-Shape" fill="#A7B4CB" opacity="0.6"></path>
            <path d="M16,8 L2,8 C1.72608506,7.96741967 1.45235669,8.06225189 1.25730429,8.25730429 C1.06225189,8.45235669 0.967419673,8.72608506 1,9 L1,19 C0.967419673,19.2739149 1.06225189,19.5476433 1.25730429,19.7426957 C1.45235669,19.9377481 1.72608506,20.0325803 2,20 L16,20 C16.2739149,20.0325803 16.5476433,19.9377481 16.7426957,19.7426957 C16.9377481,19.5476433 17.0325803,19.2739149 17,19 L17,9 C17.0325803,8.72608506 16.9377481,8.45235669 16.7426957,8.25730429 C16.5476433,8.06225189 16.2739149,7.96741967 16,8 Z M9,16 C7.8954305,16 7,15.1045695 7,14 C7,12.8954305 7.8954305,12 9,12 C10.1045695,12 11,12.8954305 11,14 C11,15.1045695 10.1045695,16 9,16 Z" id="Shape" fill="#16161F"></path>
        </g>
    </g>
</svg>