<?xml version="1.0" encoding="UTF-8"?>
<svg width="30px" height="30px" viewBox="0 0 30 30" version="1.1" xmlns="http://www.w3.org/2000/svg" xmlns:xlink="http://www.w3.org/1999/xlink">
    <title>Icon/Log out</title>
    <g id="Icon/Log-out" stroke="none" stroke-width="1" fill="none" fill-rule="evenodd">
        <g id="Sign-Out" transform="translate(15.000000, 15.000000) rotate(-180.000000) translate(-15.000000, -15.000000) translate(5.000000, 5.000000)">
            <path d="M11.1409,19.8611 C9.5331,19.7101 8.3267,18.4628 8.2092,16.8523 C8.0992,15.3432 8,13.118 8,10 C8,6.882 8.0992,4.65682 8.2092,3.14773 C8.3267,1.5372 9.5331,0.2899 11.1408,0.13886 C11.9779,0.06022 12.9589,0 14,0 C15.0411,0 16.0221,0.06022 16.8592,0.13886 C18.4669,0.2899 19.6733,1.53721 19.7908,3.14773 C19.9008,4.65683 20,6.882 20,10 C20,13.118 19.9008,15.3432 19.7908,16.8523 C19.6733,18.4628 18.4669,19.7101 16.8591,19.8611 C16.0221,19.9398 15.0411,20 14,20 C12.9589,20 11.9779,19.9398 11.1409,19.8611 Z" id="Path" fill="#A7B4CB" opacity="0.6"></path>
            <path d="M5.20711,12.7929 C5.59763,13.1834 5.59763,13.8166 5.20711,14.2071 C4.81658,14.5976 4.18342,14.5976 3.79289,14.2071 L0.29289,10.7071 C-0.09763,10.3166 -0.09763,9.6834 0.29289,9.2929 L3.79289,5.79289 C4.18342,5.40237 4.81658,5.40237 5.20711,5.79289 C5.59763,6.18342 5.59763,6.81658 5.20711,7.20711 L3.41421,9 L13,9 C13.5523,9 14,9.4477 14,10 C14,10.5523 13.5523,11 13,11 L3.41421,11 L5.20711,12.7929 Z" id="Path" fill="#16161F"></path>
        </g>
    </g>
</svg>