<?xml version="1.0" encoding="utf-8"?>
<!-- Generator: Adobe Illustrator 21.0.0, SVG Export Plug-In . SVG Version: 6.00 Build 0)  -->
<svg version="1.1" id="Capa_1" xmlns="http://www.w3.org/2000/svg" xmlns:xlink="http://www.w3.org/1999/xlink" x="0px" y="0px"
	 viewBox="0 0 787.3 787.3" style="enable-background:new 0 0 787.3 787.3;" xml:space="preserve">
<style type="text/css">
	.st0{fill:#CAD2E0;}
</style>
<g>
	<g>
		<g>
			<path class="st0" d="M393.3,172c0.1,0,0.2,0,0.4,0c0.1,0,0.2,0,0.4,0c47.3,0,85.6-38.3,85.6-85.6c0-7.5-1-14.8-2.8-21.7
				c-9.5-36.9-43-64.2-82.9-64.2c-0.1,0-0.2,0-0.4,0c-0.1,0-0.2,0-0.4,0c-47.3-0.1-85.6,38.3-85.6,85.5c0,7.5,1,14.8,2.8,21.7
				C319.9,144.7,353.4,172,393.3,172z"/>
			<path class="st0" d="M394.1,172.5h-0.8c-39.3,0-73.6-26.6-83.4-64.7c-1.9-7.2-2.8-14.5-2.8-21.8c0-47.4,38.5-86,85.9-86h1
				c39.3,0,73.6,26.6,83.4,64.6c1.9,7.2,2.8,14.5,2.8,21.8C480.2,133.9,441.6,172.5,394.1,172.5z M393,1c-46.8,0-84.9,38.1-84.9,85
				c0,7.2,0.9,14.5,2.8,21.6c9.7,37.6,43.6,63.9,82.4,63.9h0.8c46.9,0,85.1-38.2,85.1-85.1c0-7.2-0.9-14.5-2.8-21.6
				C466.7,27.2,432.9,1,394,1H393z"/>
		</g>
		<path class="st0" d="M483.8,207.9h-21.4L441,314.7h-25.3l-6.6-71.7c2-10.9,6.7-21.1,11.7-31.8c0,0,0.9-1.9,1.4-2.9l0,0
			c-0.1,0-0.2,0-0.3,0c0.1-0.1,0.1-0.3,0.2-0.4c-30,0-27.6,0-57,0l0,0c0.1,0.1,0.1,0.2,0.2,0.4h-0.1l0,0c0.5,1,1.4,2.9,1.4,2.9
			c4.4,9.3,8.5,18.2,10.8,27.6c0.3,1.3,0.6,2.6,0.8,3.9l-6.6,72.1h-25.3L324.9,208h-21.4c-32.5,0-58.8,26.3-58.8,58.8v171.3
			c0,32.5,26.3,58.8,58.8,58.8h7.5v248.9c0,22.9,18.6,41.5,41.5,41.5c21.3,0,38.9-16.1,41.2-36.9c2.3,20.7,19.9,36.9,41.2,36.9
			c22.9,0,41.5-18.6,41.5-41.5V496.7h7.5c32.5,0,58.8-26.3,58.8-58.8V266.6C542.5,234.2,516.2,207.9,483.8,207.9z"/>
	</g>
</g>
</svg>
