<?xml version="1.0" encoding="UTF-8"?>
<svg width="18px" height="18px" viewBox="0 0 18 18" version="1.1" xmlns="http://www.w3.org/2000/svg" xmlns:xlink="http://www.w3.org/1999/xlink">
    <title>markit_hub</title>
    <defs>
        <linearGradient x1="74.1010258%" y1="22.3600334%" x2="28.6720634%" y2="82.6835712%" id="linearGradient-1">
            <stop stop-color="#69BFFF" offset="0%"></stop>
            <stop stop-color="#4545EA" offset="100%"></stop>
        </linearGradient>
        <linearGradient x1="74.1010258%" y1="37.7155704%" x2="28.6720634%" y2="64.5260316%" id="linearGradient-2">
            <stop stop-color="#69BFFF" offset="0%"></stop>
            <stop stop-color="#4545EA" offset="100%"></stop>
        </linearGradient>
    </defs>
    <g id="Local-HUB-(FB)" stroke="none" stroke-width="1" fill="none" fill-rule="evenodd">
        <g id="Home/Local-Hub/Main" transform="translate(-32.000000, -849.000000)">
            <g id="Bottom/Icon-Copy-20" transform="translate(17.000000, 834.000000)">
                <path d="M12.819426,-1.42475429e-15 L35.180574,5.17920154e-16 C39.6381677,-3.00926524e-16 41.2545989,0.464128056 42.8842285,1.33566352 C44.5138581,2.20719898 45.792801,3.48614185 46.6643365,5.11577148 C47.5358719,6.74540111 48,8.3618323 48,12.819426 L48,35.180574 C48,39.6381677 47.5358719,41.2545989 46.6643365,42.8842285 C45.792801,44.5138581 44.5138581,45.792801 42.8842285,46.6643365 C41.2545989,47.5358719 39.6381677,48 35.180574,48 L12.819426,48 C8.3618323,48 6.74540111,47.5358719 5.11577148,46.6643365 C3.48614185,45.792801 2.20719898,44.5138581 1.33566352,42.8842285 C0.464128056,41.2545989 7.27514433e-16,39.6381677 -1.25211424e-15,35.180574 L3.45280103e-16,12.819426 C-2.00617683e-16,8.3618323 0.464128056,6.74540111 1.33566352,5.11577148 C2.20719898,3.48614185 3.48614185,2.20719898 5.11577148,1.33566352 C6.74540111,0.464128056 8.3618323,8.27823274e-16 12.819426,-1.42475429e-15 Z" id="BG"></path>
                <g id="Group" transform="translate(9.000000, 9.000000)">
                    <g id="Shop" transform="translate(6.000000, 6.000000)">
                        <path d="M1,7 C1,6.44772 1.44772,6 2,6 L16,6 C16.5523,6 17,6.44772 17,7 L17,15 C17,16.6569 15.6569,18 14,18 L4,18 C2.34315,18 1,16.6569 1,15 L1,7 Z" id="Path" fill="url(#linearGradient-1)"></path>
                        <path d="M7,14 C7,12.8954 7.8954,12 9,12 C10.1046,12 11,12.8954 11,14 L11,17 C11,17.3682 11,17.7015333 11,18 L7,18 C7,17.7015333 7,17.3682 7,17 L7,14 Z" id="Path" fill="#FFFFFF"></path>
                        <path d="M1.90014,1.23781 C2.5688,0.4142 3.59599,0 4.65685,0 L13.3431,0 C14.404,0 15.4312,0.4142 16.0999,1.23781 C16.9561,2.29247 18,4.82022 18,6 C18,8 17,9 15,9 C13.525,9 12.5939,7.9122 12.2067,7.3411 C12.1142,7.2047 11.8858,7.2047 11.7933,7.3411 C11.4061,7.9122 10.475,9 9,9 C7.525,9 6.59391,7.9122 6.20672,7.3411 C6.11424,7.2047 5.88576,7.2047 5.79328,7.3411 C5.40609,7.9122 4.47499,9 3,9 C1,9 0,8 0,6 C0,4.82022 1.04391,2.29247 1.90014,1.23781 Z" id="Path" fill="url(#linearGradient-2)"></path>
                    </g>
                </g>
            </g>
        </g>
    </g>
</svg>