<svg id="Layer_1" data-name="Layer 1" xmlns="http://www.w3.org/2000/svg" xmlns:xlink="http://www.w3.org/1999/xlink" viewBox="0 0 24 24"><defs><clipPath id="clip-path"><rect class="cls-1" x="-133.93" y="-9.93" width="24" height="24"/></clipPath></defs><title>Cloud_Icons</title><rect class="cls-1" x="-133.93" y="-9.93" width="24" height="24"/><path class="cls-3" d="M15.07,19.07h5V17.32c0-2.33-3.67-3.5-6-3.5"/><path class="cls-4" d="M7.57,12.57a4,4,0,1,1-4,4,4,4,0,0,1,4-4m0-1.5a5.5,5.5,0,1,0,5.5,5.5,5.5,5.5,0,0,0-5.5-5.5Z"/><polyline class="cls-5" points="7.07 14.07 7.07 17.07 10.07 17.07"/><path class="cls-4" d="M12.07,5.3a2,2,0,1,1-2,2,2,2,0,0,1,2-2m0-1.5a3.5,3.5,0,1,0,3.5,3.5,3.5,3.5,0,0,0-3.5-3.5Z"/></svg>