<?xml version="1.0" encoding="UTF-8"?>
<svg width="20px" height="20px" viewBox="0 0 20 20" version="1.1" xmlns="http://www.w3.org/2000/svg" xmlns:xlink="http://www.w3.org/1999/xlink">
    <title>messages</title>
    <defs>
        <linearGradient x1="74.1010258%" y1="2.0874265%" x2="28.6720634%" y2="106.655423%" id="linearGradient-1">
            <stop stop-color="#69BFFF" offset="0%"></stop>
            <stop stop-color="#4545EA" offset="100%"></stop>
        </linearGradient>
    </defs>
    <g id="Local-HUB-(FB)" stroke="none" stroke-width="1" fill="none" fill-rule="evenodd">
        <g id="Home/Local-Hub/Main" transform="translate(-31.000000, -356.000000)">
            <g id="Bottom/Icon-Copy-21" transform="translate(17.000000, 342.000000)">
                <path d="M12.819426,-1.42475429e-15 L35.180574,5.17920154e-16 C39.6381677,-3.00926524e-16 41.2545989,0.464128056 42.8842285,1.33566352 C44.5138581,2.20719898 45.792801,3.48614185 46.6643365,5.11577148 C47.5358719,6.74540111 48,8.3618323 48,12.819426 L48,35.180574 C48,39.6381677 47.5358719,41.2545989 46.6643365,42.8842285 C45.792801,44.5138581 44.5138581,45.792801 42.8842285,46.6643365 C41.2545989,47.5358719 39.6381677,48 35.180574,48 L12.819426,48 C8.3618323,48 6.74540111,47.5358719 5.11577148,46.6643365 C3.48614185,45.792801 2.20719898,44.5138581 1.33566352,42.8842285 C0.464128056,41.2545989 7.27514433e-16,39.6381677 -1.25211424e-15,35.180574 L3.45280103e-16,12.819426 C-2.00617683e-16,8.3618323 0.464128056,6.74540111 1.33566352,5.11577148 C2.20719898,3.48614185 3.48614185,2.20719898 5.11577148,1.33566352 C6.74540111,0.464128056 8.3618323,8.27823274e-16 12.819426,-1.42475429e-15 Z" id="BG"></path>
                <g id="Group" transform="translate(9.000000, 9.000000)">
                    <g id="Comment" transform="translate(5.000000, 5.000000)">
                        <path d="M3.69477,0.48932 C2.00472,0.74648 0.66565,1.98488 0.37546,3.66957 C0.17321,4.84372 0,6.33525 0,8 C0,9.6647 0.17321,11.1563 0.37546,12.3304 C0.62456,13.7766 1.64656,14.8939 3,15.344 L3,18.7476 C3,19.5219 3.84211,20.0024 4.50873,19.6085 L10.6241,15.9949 C12.8384,15.9586 14.8238,15.7361 16.3052,15.5107 C17.9953,15.2535 19.3344,14.0151 19.6245,12.3304 C19.8268,11.1563 20,9.6647 20,8 C20,6.33525 19.8268,4.84372 19.6245,3.66957 C19.3344,1.98488 17.9953,0.74648 16.3052,0.48932 C14.6859,0.24293 12.4644,0 10,0 C7.53559,0 5.31411,0.24293 3.69477,0.48932 Z" id="Path" fill="url(#linearGradient-1)"></path>
                        <path d="M5,5 C4.44772,5 4,5.44772 4,6 C4,6.55228 4.44772,7 5,7 L15,7 C15.5523,7 16,6.55228 16,6 C16,5.44772 15.5523,5 15,5 L5,5 Z M5,9 C4.44772,9 4,9.4477 4,10 C4,10.5523 4.44772,11 5,11 L9,11 C9.5523,11 10,10.5523 10,10 C10,9.4477 9.5523,9 9,9 L5,9 Z" id="Shape" fill="#FFFFFF"></path>
                    </g>
                </g>
            </g>
        </g>
    </g>
</svg>