<?xml version="1.0" encoding="UTF-8"?>
<svg width="19px" height="20px" viewBox="0 0 19 20" version="1.1" xmlns="http://www.w3.org/2000/svg" xmlns:xlink="http://www.w3.org/1999/xlink">
    <title>Commerce/Money_bag</title>
    <g id="Style-Guide/Icons" stroke="none" stroke-width="1" fill="none" fill-rule="evenodd">
        <g id="Style-Guide-Copy" transform="translate(-1391.000000, -785.000000)">
            <g id="Shape" transform="translate(1385.000000, 780.000000)">
                <path d="M18.3063063,7.60020541 C16.178621,6.80247792 13.8339916,6.80247792 11.7063063,7.60020541 C8.25782402,8.9592881 5.99526349,12.2935878 6.0063063,16.0002054 L6.0063063,24.0002054 C5.97372597,24.2741204 6.06855819,24.5478487 6.26361059,24.7429011 C6.45866299,24.9379535 6.73239135,25.0327857 7.0063063,25.0002054 L23.0063063,25.0002054 C23.2802212,25.0327857 23.5539496,24.9379535 23.749002,24.7429011 C23.9440544,24.5478487 24.0388866,24.2741204 24.0063063,24.0002054 L24.0063063,16.0002054 C24.0173491,12.2935878 21.7547886,8.9592881 18.3063063,7.60020541 L18.3063063,7.60020541 Z M14.0063063,16.0002054 L16.0063063,16.0002054 C17.6631605,16.0002054 19.0063063,17.3433512 19.0063063,19.0002054 C19.0063063,20.6570597 17.6631605,22.0002054 16.0063063,22.0002054 C16.0063063,22.5524902 15.558591,23.0002054 15.0063063,23.0002054 C14.4540215,23.0002054 14.0063063,22.5524902 14.0063063,22.0002054 L12.0063063,22.0002054 C11.4540215,22.0002054 11.0063063,21.5524902 11.0063063,21.0002054 C11.0063063,20.4479207 11.4540215,20.0002054 12.0063063,20.0002054 L16.0063063,20.0002054 C16.558591,20.0002054 17.0063063,19.5524902 17.0063063,19.0002054 C17.0063063,18.4479207 16.558591,18.0002054 16.0063063,18.0002054 L14.0063063,18.0002054 C12.349452,18.0002054 11.0063063,16.6570597 11.0063063,15.0002054 C11.0063063,13.3433512 12.349452,12.0002054 14.0063063,12.0002054 C14.0063063,11.4479207 14.4540215,11.0002054 15.0063063,11.0002054 C15.558591,11.0002054 16.0063063,11.4479207 16.0063063,12.0002054 L18.0063063,12.0002054 C18.558591,12.0002054 19.0063063,12.4479207 19.0063063,13.0002054 C19.0063063,13.5524902 18.558591,14.0002054 18.0063063,14.0002054 L14.0063063,14.0002054 C13.4540215,14.0002054 13.0063063,14.4479207 13.0063063,15.0002054 C13.0063063,15.5524902 13.4540215,16.0002054 14.0063063,16.0002054 Z" fill="#16161F"></path>
                <path d="M15.0063063,11.0002054 C15.5191421,11.0002054 15.9418135,11.3862456 15.9995786,11.8835843 L16.0063063,12.0002054 L18.0063063,12.0002054 C18.558591,12.0002054 19.0063063,12.4479207 19.0063063,13.0002054 C19.0063063,13.5130412 18.6202661,13.9357126 18.1229274,13.9934777 L18.0063063,14.0002054 L14.0063063,14.0002054 C13.4540215,14.0002054 13.0063063,14.4479207 13.0063063,15.0002054 C13.0063063,15.5130412 13.3923465,15.9357126 13.8896852,15.9934777 L14.0063063,16.0002054 L16.0063063,16.0002054 C17.6631605,16.0002054 19.0063063,17.3433512 19.0063063,19.0002054 C19.0063063,20.6570597 17.6631605,22.0002054 16.0063063,22.0002054 C16.0063063,22.5524902 15.558591,23.0002054 15.0063063,23.0002054 C14.4934705,23.0002054 14.0707991,22.6141652 14.013034,22.1168265 L14.0063063,22.0002054 L12.0063063,22.0002054 C11.4540215,22.0002054 11.0063063,21.5524902 11.0063063,21.0002054 C11.0063063,20.4873696 11.3923465,20.0646982 11.8896852,20.0069331 L12.0063063,20.0002054 L16.0063063,20.0002054 C16.558591,20.0002054 17.0063063,19.5524902 17.0063063,19.0002054 C17.0063063,18.4873696 16.6202661,18.0646982 16.1229274,18.0069331 L16.0063063,18.0002054 L14.0063063,18.0002054 C12.349452,18.0002054 11.0063063,16.6570597 11.0063063,15.0002054 C11.0063063,13.3433512 12.349452,12.0002054 14.0063063,12.0002054 C14.0063063,11.4479207 14.4540215,11.0002054 15.0063063,11.0002054 Z M17.7063063,5.00020541 C18.0101154,4.99405324 18.3002398,5.12637557 18.4947735,5.35981604 C18.6615167,5.55990787 18.7425225,5.81568157 18.723953,6.07216125 L18.7063063,6.20020541 L18.3063063,7.60020541 C16.2906044,6.84446357 14.0801938,6.80468769 12.0439962,7.48087775 L11.7063063,7.60020541 L11.3063063,6.20020541 C11.2454697,5.90248619 11.3233053,5.5932565 11.5178391,5.35981604 C11.6845822,5.15972421 11.9215553,5.03392326 12.177179,5.00593788 L12.3063063,5.00020541 L17.7063063,5.00020541 Z" fill="#A7B4CB" opacity="0.6"></path>
            </g>
        </g>
    </g>
</svg>