<?xml version="1.0" encoding="UTF-8"?>
<svg width="40px" height="40px" viewBox="0 0 40 40" version="1.1" xmlns="http://www.w3.org/2000/svg" xmlns:xlink="http://www.w3.org/1999/xlink">
    <title>more-icon</title>
    <g id="Symbols" stroke="none" stroke-width="1" fill="none" fill-rule="evenodd">
        <g id="User/Profile-Header" transform="translate(-509.000000, -183.000000)" fill="#1269FF">
            <g id="Bottom/Icon-Copy-7" transform="translate(509.000000, 183.000000)">
                <path d="M12.819426,-5.17920154e-16 L27.180574,5.17920154e-16 C31.6381677,-3.00926524e-16 33.2545989,0.464128056 34.8842285,1.33566352 C36.5138581,2.20719898 37.792801,3.48614185 38.6643365,5.11577148 C39.5358719,6.74540111 40,8.3618323 40,12.819426 L40,27.180574 C40,31.6381677 39.5358719,33.2545989 38.6643365,34.8842285 C37.792801,36.5138581 36.5138581,37.792801 34.8842285,38.6643365 C33.2545989,39.5358719 31.6381677,40 27.180574,40 L12.819426,40 C8.3618323,40 6.74540111,39.5358719 5.11577148,38.6643365 C3.48614185,37.792801 2.20719898,36.5138581 1.33566352,34.8842285 C0.464128056,33.2545989 2.00617683e-16,31.6381677 -3.45280103e-16,27.180574 L3.45280103e-16,12.819426 C-2.00617683e-16,8.3618323 0.464128056,6.74540111 1.33566352,5.11577148 C2.20719898,3.48614185 3.48614185,2.20719898 5.11577148,1.33566352 C6.74540111,0.464128056 8.3618323,3.00926524e-16 12.819426,-5.17920154e-16 Z" id="BG" opacity="0.1"></path>
                <g id="Group" transform="translate(7.500000, 7.500000)">
                    <g id="Options-Square" transform="translate(4.166667, 4.166667)">
                        <path d="M0.307491667,3.78486667 C0.549266667,1.9542 1.9542,0.549266667 3.78486667,0.307491667 C5.0434,0.141275 6.617725,0 8.33333333,0 C10.0489167,0 11.62325,0.141275 12.8818333,0.307491667 C14.7125,0.549266667 16.1174167,1.9542 16.3591667,3.78486667 C16.5254167,5.0434 16.6666667,6.617725 16.6666667,8.33333333 C16.6666667,10.0489167 16.5254167,11.62325 16.3591667,12.8818333 C16.1174167,14.7125 14.7125,16.1174167 12.8818333,16.3591667 C11.62325,16.5254167 10.0489167,16.6666667 8.33333333,16.6666667 C6.617725,16.6666667 5.0434,16.5254167 3.78486667,16.3591667 C1.9542,16.1174167 0.549266667,14.7125 0.307491667,12.8818333 C0.141275,11.62325 0,10.0489167 0,8.33333333 C0,6.617725 0.141275,5.0434 0.307491667,3.78486667 Z" id="Path" opacity="0.3"></path>
                        <path d="M5.83333333,8.33333333 C5.83333333,8.79358333 5.46023333,9.16666667 5,9.16666667 C4.53976667,9.16666667 4.16666667,8.79358333 4.16666667,8.33333333 C4.16666667,7.87308333 4.53976667,7.5 5,7.5 C5.46023333,7.5 5.83333333,7.87308333 5.83333333,8.33333333 Z M9.16666667,8.33333333 C9.16666667,8.79358333 8.79358333,9.16666667 8.33333333,9.16666667 C7.87308333,9.16666667 7.5,8.79358333 7.5,8.33333333 C7.5,7.87308333 7.87308333,7.5 8.33333333,7.5 C8.79358333,7.5 9.16666667,7.87308333 9.16666667,8.33333333 Z M11.6666667,9.16666667 C12.1269167,9.16666667 12.5,8.79358333 12.5,8.33333333 C12.5,7.87308333 12.1269167,7.5 11.6666667,7.5 C11.2064167,7.5 10.8333333,7.87308333 10.8333333,8.33333333 C10.8333333,8.79358333 11.2064167,9.16666667 11.6666667,9.16666667 Z" id="Shape"></path>
                    </g>
                </g>
            </g>
        </g>
    </g>
</svg>