<?xml version="1.0" encoding="UTF-8"?>
<svg width="40px" height="40px" viewBox="0 0 40 40" version="1.1" xmlns="http://www.w3.org/2000/svg" xmlns:xlink="http://www.w3.org/1999/xlink">
    <title>masg-icon</title>
    <g id="Symbols" stroke="none" stroke-width="1" fill="none" fill-rule="evenodd">
        <g id="User/Profile-Header" transform="translate(-459.000000, -183.000000)" fill="#1269FF">
            <g id="masg-icon" transform="translate(459.000000, 183.000000)">
                <path d="M12.819426,-5.17920154e-16 L27.180574,5.17920154e-16 C31.6381677,-3.00926524e-16 33.2545989,0.464128056 34.8842285,1.33566352 C36.5138581,2.20719898 37.792801,3.48614185 38.6643365,5.11577148 C39.5358719,6.74540111 40,8.3618323 40,12.819426 L40,27.180574 C40,31.6381677 39.5358719,33.2545989 38.6643365,34.8842285 C37.792801,36.5138581 36.5138581,37.792801 34.8842285,38.6643365 C33.2545989,39.5358719 31.6381677,40 27.180574,40 L12.819426,40 C8.3618323,40 6.74540111,39.5358719 5.11577148,38.6643365 C3.48614185,37.792801 2.20719898,36.5138581 1.33566352,34.8842285 C0.464128056,33.2545989 2.00617683e-16,31.6381677 -3.45280103e-16,27.180574 L3.45280103e-16,12.819426 C-2.00617683e-16,8.3618323 0.464128056,6.74540111 1.33566352,5.11577148 C2.20719898,3.48614185 3.48614185,2.20719898 5.11577148,1.33566352 C6.74540111,0.464128056 8.3618323,3.00926524e-16 12.819426,-5.17920154e-16 Z" id="BG" opacity="0.1"></path>
                <g id="Icon/Plus-Square" transform="translate(10.500000, 12.500000)">
                    <g id="Envelope" transform="translate(0.333333, 0.000000)">
                        <path d="M0,2.5 C0,1.11929167 1.11929167,0 2.5,0 L15.8333333,0 C17.2140833,0 18.3333333,1.11929167 18.3333333,2.5 L18.3333333,12.5 C18.3333333,13.88075 17.2140833,15 15.8333333,15 L2.5,15 C1.11929167,15 0,13.88075 0,12.5 L0,2.5 Z" id="Path" opacity="0.3"></path>
                        <path d="M3.526475,3.6332 C3.82111667,3.27963333 4.34658333,3.23186667 4.70015,3.5265 L8.63316667,6.804 C8.94225,7.06158333 9.39108333,7.06158333 9.70016667,6.804 L13.6331667,3.5265 C13.98675,3.23186667 14.51225,3.27963333 14.8068333,3.6332 C15.1015,3.98676667 15.05375,4.51223333 14.7001667,4.806875 L10.7670833,8.08441667 C9.84,8.857 8.49333333,8.857 7.56616667,8.08441667 L3.633175,4.806875 C3.27960833,4.51223333 3.23184167,3.98676667 3.526475,3.6332 Z" id="Path"></path>
                    </g>
                </g>
            </g>
        </g>
    </g>
</svg>