<?xml version="1.0" encoding="UTF-8"?>
<svg width="30px" height="30px" viewBox="0 0 30 30" version="1.1" xmlns="http://www.w3.org/2000/svg" xmlns:xlink="http://www.w3.org/1999/xlink">
    <title>Icon/Flag</title>
    <g id="Icon/Flag" stroke="none" stroke-width="1" fill="none" fill-rule="evenodd">
        <g id="Flag" transform="translate(6.000000, 3.000000)">
            <path d="M0,1 C0,0.447716 0.44772,0 1,0 C1.55228,0 2,0.447715 2,1 L2,23 C2,23.5523 1.55228,24 1,24 C0.44772,24 0,23.5523 0,23 L0,1 Z" id="Path" fill="#A7B4CB" opacity="0.6"></path>
            <path d="M8,5 C8,4.44772 8.4477,4 9,4 L15.382,4 C16.1253,4 16.6088,4.78231 16.2764,5.44721 L14.2236,9.55279 C14.0828,9.83431 14.0828,10.1657 14.2236,10.4472 L16.2764,14.5528 C16.6088,15.2177 16.1253,16 15.382,16 L10,16 C8.8954,16 8,15.1046 8,14 L8,5 Z" id="Path" fill="#A7B4CB" opacity="0.6"></path>
            <path d="M2,2 L8,2 C9.1046,2 10,2.89543 10,4 L10,13 C10,13.5523 9.5523,14 9,14 L2,14 L2,2 Z" id="Path" fill="#16161F"></path>
        </g>
    </g>
</svg>