<?xml version="1.0" encoding="UTF-8"?>
<svg width="30px" height="30px" viewBox="0 0 30 30" version="1.1" xmlns="http://www.w3.org/2000/svg" xmlns:xlink="http://www.w3.org/1999/xlink">
    <title>nav_icon_photoHub Copy</title>
    <g id="nav_icon_photoHub-Copy" stroke="none" stroke-width="1" fill="none" fill-rule="evenodd">
        <g id="Camera" transform="translate(5.000000, 5.000000)">
            <path d="M0,6.34233 C0,4.96573 0.93689,3.76578 2.27239,3.4319 L4,3 L5.1094,1.3359 C5.6658,0.5013 6.60249,0 7.60555,0 L12.3944,0 C13.3975,0 14.3342,0.5013 14.8906,1.3359 L16,3 L17.7276,3.4319 C19.0631,3.76578 20,4.96573 20,6.34233 L20,17 C20,18.6569 18.6569,20 17,20 L3,20 C1.34315,20 0,18.6569 0,17 L0,6.34233 Z" id="Path" fill="#0659FD"></path>
            <path d="M16,8 C16.5523,8 17,7.55228 17,7 C17,6.44772 16.5523,6 16,6 C15.4477,6 15,6.44772 15,7 C15,7.55228 15.4477,8 16,8 Z" id="Path" fill="#FFFFFF"></path>
            <path d="M14,11 C14,13.2091 12.2091,15 10,15 C7.79086,15 6,13.2091 6,11 C6,8.7909 7.79086,7 10,7 C12.2091,7 14,8.7909 14,11 Z M12,11 C12,12.1046 11.1046,13 10,13 C8.8954,13 8,12.1046 8,11 C8,9.8954 8.8954,9 10,9 C11.1046,9 12,9.8954 12,11 Z" id="Shape" fill="#FFFFFF"></path>
        </g>
    </g>
</svg>