<?xml version="1.0" encoding="UTF-8"?>
<svg width="30px" height="30px" viewBox="0 0 30 30" version="1.1" xmlns="http://www.w3.org/2000/svg" xmlns:xlink="http://www.w3.org/1999/xlink">
    <title>nav_icon_videoHub.svg Copy</title>
    <g id="nav_icon_videoHub.svg-Copy" stroke="none" stroke-width="1" fill="none" fill-rule="evenodd">
        <g id="Video" transform="translate(4.000000, 6.000000)">
            <path d="M4.54525,0.39358 C2.34649,0.66842 0.64953,2.34244 0.34056,4.53666 C0.15369,5.86378 0,7.4319 0,9 C0,10.5681 0.15369,12.1362 0.34056,13.4633 C0.64953,15.6576 2.34649,17.3316 4.54525,17.6064 C6.22455,17.8163 8.42861,18 11,18 C13.5714,18 15.7755,17.8163 17.4547,17.6064 C19.6535,17.3316 21.3505,15.6576 21.6594,13.4633 C21.8463,12.1362 22,10.5681 22,9 C22,7.4319 21.8463,5.86378 21.6594,4.53666 C21.3505,2.34244 19.6535,0.66842 17.4547,0.39358 C15.7755,0.18367 13.5714,0 11,0 C8.4286,0 6.22455,0.18367 4.54525,0.39358 Z" id="Path" fill="#0659FD"></path>
            <path d="M14.6432,8.1521 L9.53,4.95634 C8.86395,4.54005 8,5.0189 8,5.80433 L8,12.1958 C8,12.9813 8.86395,13.4601 9.53,13.0438 L14.6432,9.8481 C15.2699,9.4564 15.2699,8.5438 14.6432,8.1521 Z" id="Path" fill="#FFFFFF"></path>
        </g>
    </g>
</svg>