<?xml version="1.0" encoding="UTF-8"?>
<svg width="30px" height="30px" viewBox="0 0 30 30" version="1.1" xmlns="http://www.w3.org/2000/svg" xmlns:xlink="http://www.w3.org/1999/xlink">
    <title>Icon/Comment Copy</title>
    <g id="Icon/Comment-Copy" stroke="none" stroke-width="1" fill="none" fill-rule="evenodd">
        <g id="Comment" transform="translate(5.000000, 5.000000)">
            <path d="M3.69477,0.48932 C2.00472,0.74648 0.66565,1.98488 0.37546,3.66957 C0.17321,4.84372 0,6.33525 0,8 C0,9.6647 0.17321,11.1563 0.37546,12.3304 C0.62456,13.7766 1.64656,14.8939 3,15.344 L3,18.7476 C3,19.5219 3.84211,20.0024 4.50873,19.6085 L10.6241,15.9949 C12.8384,15.9586 14.8238,15.7361 16.3052,15.5107 C17.9953,15.2535 19.3344,14.0151 19.6245,12.3304 C19.8268,11.1563 20,9.6647 20,8 C20,6.33525 19.8268,4.84372 19.6245,3.66957 C19.3344,1.98488 17.9953,0.74648 16.3052,0.48932 C14.6859,0.24293 12.4644,0 10,0 C7.53559,0 5.31411,0.24293 3.69477,0.48932 Z" id="Path" fill="#A7B4CB" opacity="0.6"></path>
            <path d="M5,5 C4.44772,5 4,5.44772 4,6 C4,6.55228 4.44772,7 5,7 L15,7 C15.5523,7 16,6.55228 16,6 C16,5.44772 15.5523,5 15,5 L5,5 Z M5,9 C4.44772,9 4,9.4477 4,10 C4,10.5523 4.44772,11 5,11 L9,11 C9.5523,11 10,10.5523 10,10 C10,9.4477 9.5523,9 9,9 L5,9 Z" id="Shape" fill="#16161F"></path>
        </g>
    </g>
</svg>