<?xml version="1.0" encoding="UTF-8"?>
<svg width="30px" height="30px" viewBox="0 0 30 30" version="1.1" xmlns="http://www.w3.org/2000/svg" xmlns:xlink="http://www.w3.org/1999/xlink">
    <title>Icon/Settings 3</title>
    <g id="Icon/Settings-3" stroke="none" stroke-width="1" fill="none" fill-rule="evenodd">
        <g id="Settings-01" transform="translate(4.000000, 6.000000)">
            <path d="M12,13 C12.5523,13 13,13.4477 13,14 C13,14.5523 12.5523,15 12,15 L12,15 L1,15 C0.44772,15 0,14.5523 0,14 C0,13.4477 0.44772,13 1,13 L1,13 Z M21,13 C21.5523,13 22,13.4477 22,14 C22,14.5523 21.5523,15 21,15 L21,15 L18,15 C17.4477,15 17,14.5523 17,14 C17,13.4477 17.4477,13 18,13 L18,13 Z M4,3 C4.55228,3 5,3.44772 5,4 C5,4.55228 4.55228,5 4,5 L4,5 L1,5 C0.44772,5 0,4.55228 0,4 C0,3.44772 0.44772,3 1,3 L1,3 Z M21,3 C21.5523,3 22,3.44772 22,4 C22,4.55228 21.5523,5 21,5 L21,5 L10,5 C9.4477,5 9,4.55228 9,4 C9,3.44772 9.4477,3 10,3 L10,3 Z" id="Combined-Shape" fill="#A7B4CB" opacity="0.6"></path>
            <path d="M15,10 C17.2091,10 19,11.7909 19,14 C19,16.2091 17.2091,18 15,18 C12.7909,18 11,16.2091 11,14 C11,11.7909 12.7909,10 15,10 Z M8,0 C10.2091,0 12,1.79086 12,4 C12,6.20914 10.2091,8 8,8 C5.79086,8 4,6.20914 4,4 C4,1.79086 5.79086,0 8,0 Z" id="Combined-Shape" fill="#16161F"></path>
        </g>
    </g>
</svg>