<?xml version="1.0" encoding="UTF-8"?>
<svg width="30px" height="30px" viewBox="0 0 30 30" version="1.1" xmlns="http://www.w3.org/2000/svg" xmlns:xlink="http://www.w3.org/1999/xlink">
    <title>Icon/Favorites Copy</title>
    <g id="Icon/Favorites-Copy" stroke="none" stroke-width="1" fill="none" fill-rule="evenodd">
        <rect id="Rectangle" x="0" y="0" width="30" height="30"></rect>
        <g id="Medal" transform="translate(5.000000, 5.000000)">
            <path d="M3,12 L0.7,14.3 C0.318857124,14.6888435 0.318857124,15.3111565 0.7,15.7 L4.3,19.3 C4.68884351,19.6811429 5.31115649,19.6811429 5.7,19.3 L9.1,15.9 C6.5769453,15.6021002 4.32928796,14.1650734 3,12 Z" id="Path" fill="#0659FD"></path>
            <path d="M19.3,14.3 L17,12 C15.670712,14.1650734 13.4230547,15.6021002 10.9,15.9 L14.3,19.3 C14.6888435,19.6811429 15.3111565,19.6811429 15.7,19.3 L19.3,15.7 C19.6811429,15.3111565 19.6811429,14.6888435 19.3,14.3 Z" id="Path" fill="#0659FD"></path>
            <circle id="Oval" fill="#1269FF" opacity="0.3" cx="10" cy="8" r="8"></circle>
        </g>
        <path d="M14.5932048,8.81608 C14.7599048,8.39464 15.3563048,8.39464 15.5231048,8.81608 L16.3347048,10.8678 C16.4045048,11.0444 16.5684048,11.1662 16.7576048,11.1821 L18.9075048,11.3634 C19.3438048,11.4001 19.5254048,11.9401 19.2001048,12.2331 L17.5260048,13.741 C17.3914048,13.8622 17.3329048,14.0466 17.3730048,14.2232 L17.8779048,16.4491 C17.9770048,16.8855 17.4967048,17.2222 17.1201048,16.9804 L15.3283048,15.8296 C15.1637048,15.7239 14.9525048,15.7239 14.7879048,15.8296 L12.9960748,16.9804 C12.6195248,17.2222 12.1392648,16.8855 12.2382748,16.4491 L12.7432448,14.2232 C12.7833048,14.0466 12.7247848,13.8622 12.5902648,13.741 L10.9160848,12.2331 C10.5907748,11.9401 10.7724448,11.4001 11.2087048,11.3634 L13.3586048,11.1821 C13.5478048,11.1662 13.7117048,11.0444 13.7816048,10.8678 L14.5932048,8.81608 Z" id="Path-Copy" fill="#0659FD"></path>
    </g>
</svg>