<?xml version="1.0" encoding="UTF-8"?>
<svg width="30px" height="30px" viewBox="0 0 30 30" version="1.1" xmlns="http://www.w3.org/2000/svg" xmlns:xlink="http://www.w3.org/1999/xlink">
    <title>Icon/Eye</title>
    <g id="Icon/Eye" stroke="none" stroke-width="1" fill="none" fill-rule="evenodd">
        <rect id="Rectangle" x="0" y="0" width="30" height="30"></rect>
        <g id="Eye" transform="translate(3.000000, 7.000000)">
            <path d="M22.3422,5.506 C23.5181,6.9837 23.5181,9.0163 22.3422,10.494 C20.4739,12.8417 17.0265,16 11.9999,16 C6.97341,16 3.526,12.8417 1.65772,10.494 C0.481768,9.0163 0.481768,6.9837 1.65772,5.506 C3.526,3.15826 6.97341,0 11.9999,0 C17.0265,0 20.4739,3.15826 22.3422,5.506 Z" id="Path" fill="#A7B4CB" opacity="0.6"></path>
            <path d="M14,8 C14,9.1046 13.1046,10 12,10 C10.8954,10 10,9.1046 10,8 C10,7.9716 10.0006,7.9434 10.0018,7.9153 C10.1577,7.9701 10.3253,8 10.5,8 C11.3284,8 12,7.3284 12,6.5 C12,6.3253 11.9701,6.1577 11.9153,6.0018 C11.9434,6.0006 11.9716,6 12,6 C13.1046,6 14,6.8954 14,8 Z M16,8 C16,10.2091 14.2091,12 12,12 C9.79086,12 8,10.2091 8,8 C8,5.79086 9.79086,4 12,4 C14.2091,4 16,5.79086 16,8 Z" id="Shape" fill="#16161F"></path>
        </g>
    </g>
</svg>