<?xml version="1.0" encoding="UTF-8"?>
<svg width="20px" height="20px" viewBox="0 0 20 20" version="1.1" xmlns="http://www.w3.org/2000/svg" xmlns:xlink="http://www.w3.org/1999/xlink">
    <title>!Icons/Apps Copy 11</title>
    <g id="Style-Guide/Icons" stroke="none" stroke-width="1" fill="none" fill-rule="evenodd">
        <g id="Style-Guide-Copy" transform="translate(-574.000000, -206.000000)">
            <g id="Group" transform="translate(569.000000, 201.000000)">
                <g transform="translate(5.000000, 5.000000)">
                    <circle id="Oval" fill="#A7B4CB" opacity="0.6" cx="10" cy="10" r="10"></circle>
                    <path d="M9,3 C9,2.44772 9.4477,2 10,2 C10.5523,2 11,2.44772 11,3 L11,4 C12.6569,4 14,5.34315 14,7 C14,7.55229 13.5523,8 13,8 C12.4477,8 12,7.55229 12,7 C12,6.44772 11.5523,6 11,6 L9,6 C8.4477,6 8,6.44771 8,7 L8,7.55848 C8,7.98891 8.2754,8.3711 8.6838,8.5072 L11.9487,9.5955 C13.1737,10.0038 14,11.1502 14,12.4415 L14,13 C14,14.6569 12.6569,16 11,16 L11,17 C11,17.5523 10.5523,18 10,18 C9.4477,18 9,17.5523 9,17 L9,16 C7.34315,16 6,14.6569 6,13 C6,12.4477 6.44771,12 7,12 C7.55229,12 8,12.4477 8,13 C8,13.5523 8.4477,14 9,14 L11,14 C11.5523,14 12,13.5523 12,13 L12,12.4415 C12,12.0111 11.7246,11.6289 11.3162,11.4928 L8.0513,10.4045 C6.82629,9.9962 6,8.8498 6,7.55848 L6,7 C6,5.34315 7.34315,4 9,4 L9,3 Z" id="Path" fill="#16161F"></path>
                </g>
            </g>
        </g>
    </g>
</svg>