<?xml version="1.0" encoding="UTF-8"?>
<svg width="20px" height="20px" viewBox="0 0 20 20" version="1.1" xmlns="http://www.w3.org/2000/svg" xmlns:xlink="http://www.w3.org/1999/xlink">
    <title>!Icons/Apps Copy 6</title>
    <g id="Style-Guide/Icons" stroke="none" stroke-width="1" fill="none" fill-rule="evenodd">
        <g id="Style-Guide-Copy" transform="translate(-132.000000, -373.000000)">
            <g id="Group" transform="translate(127.000000, 368.000000)">
                <rect id="Rectangle" x="0" y="0" width="30" height="30"></rect>
                <path d="M15,5 C9.4771525,5 5,9.4771525 5,15 C5,20.5228475 9.4771525,25 15,25 C20.5228475,25 25,20.5228475 25,15 C25,9.4771525 20.5228475,5 15,5 Z" id="Path" fill="#A7B4CB" opacity="0.6"></path>
                <circle id="Oval" fill="#16161F" cx="11" cy="13" r="1"></circle>
                <circle id="Oval" fill="#16161F" cx="19" cy="13" r="1"></circle>
                <path d="M17.3,18.2 C16.6455625,18.7185461 15.834972,19.0004906 15,19 C14.1885899,19.0422564 13.3947408,18.753584 12.8,18.2 C12.4043295,17.7769019 11.7483324,17.7331687 11.3,18.1 C10.9345925,18.482012 10.8925983,19.0699302 11.2,19.5 C13.3456138,21.482143 16.6543862,21.482143 18.8,19.5 C19.1074017,19.0699302 19.0654075,18.482012 18.7,18.1 C18.2843919,17.7452297 17.6609645,17.7897603 17.3,18.2 Z" id="Path" fill="#16161F"></path>
            </g>
        </g>
    </g>
</svg>