<?xml version="1.0" encoding="UTF-8"?>
<svg width="20px" height="20px" viewBox="0 0 20 20" version="1.1" xmlns="http://www.w3.org/2000/svg" xmlns:xlink="http://www.w3.org/1999/xlink">
    <title>!Icons/Apps Copy 30</title>
    <g id="Style-Guide/Icons" stroke="none" stroke-width="1" fill="none" fill-rule="evenodd">
        <g id="Style-Guide-Copy" transform="translate(-102.000000, -493.000000)">
            <g id="Group" transform="translate(97.000000, 488.000000)">
                <g id="Combined-Shape-2" transform="translate(8.300000, 5.828359)" fill="#A7B4CB" opacity="0.6">
                    <path d="M14.5,0.0716409219 C14.8714617,-0.077046392 15.2957948,0.00999858456 15.5787186,0.292922359 C15.8616423,0.575846133 15.9486873,1.00017921 15.8,1.37164092 L15.8,1.37164092 L10,15.8716409 L9.2,15.6716409 C4.22943725,15.6716409 0.2,11.6422037 0.2,6.67164092 C0.192703184,6.39354836 0.124428719,6.1204505 -2.48689958e-14,5.87164092 L-2.48689958e-14,5.87164092 L0.8,5.57164092 Z M8.2,9.17164092 C7.37157288,9.17164092 6.7,9.8432138 6.7,10.6716409 C6.7,11.500068 7.37157288,12.1716409 8.2,12.1716409 C9.02842712,12.1716409 9.7,11.500068 9.7,10.6716409 C9.7,9.8432138 9.02842712,9.17164092 8.2,9.17164092 Z M4.7,6.17164092 C4.14771525,6.17164092 3.7,6.61935617 3.7,7.17164092 C3.7,7.72392567 4.14771525,8.17164092 4.7,8.17164092 C5.25228475,8.17164092 5.7,7.72392567 5.7,7.17164092 C5.7,6.61935617 5.25228475,6.17164092 4.7,6.17164092 Z M10.7,4.17164092 C10.1477153,4.17164092 9.7,4.61935617 9.7,5.17164092 C9.7,5.72392567 10.1477153,6.17164092 10.7,6.17164092 C11.2522847,6.17164092 11.7,5.72392567 11.7,5.17164092 C11.7,4.61935617 11.2522847,4.17164092 10.7,4.17164092 Z" id="Combined-Shape"></path>
                </g>
                <path d="M7,11 C7.82842712,11 8.5,11.6715729 8.5,12.5 C8.5,17.4705627 12.5294373,21.5 17.5,21.5 C18.3284271,21.5 19,22.1715729 19,23 C19,23.8284271 18.3284271,24.5 17.5,24.5 C10.872583,24.5 5.5,19.127417 5.5,12.5 C5.5,11.6715729 6.17157288,11 7,11 Z M16.5,15 C17.3284271,15 18,15.6715729 18,16.5 C18,17.3284271 17.3284271,18 16.5,18 C15.6715729,18 15,17.3284271 15,16.5 C15,15.6715729 15.6715729,15 16.5,15 Z M13,12 C13.5522847,12 14,12.4477153 14,13 C14,13.5522847 13.5522847,14 13,14 C12.4477153,14 12,13.5522847 12,13 C12,12.4477153 12.4477153,12 13,12 Z M19,10 C19.5522847,10 20,10.4477153 20,11 C20,11.5522847 19.5522847,12 19,12 C18.4477153,12 18,11.5522847 18,11 C18,10.4477153 18.4477153,10 19,10 Z" id="Combined-Shape" fill="#16161F"></path>
            </g>
        </g>
    </g>
</svg>