<?xml version="1.0" encoding="UTF-8"?>
<svg width="18px" height="18px" viewBox="0 0 18 18" version="1.1" xmlns="http://www.w3.org/2000/svg" xmlns:xlink="http://www.w3.org/1999/xlink">
    <title>!Icons/Unused/Notification</title>
    <defs>
        <path d="M12.7,13.5 L4.6,13.5 L4.6,7.65 C4.6,5.4 6.4,3.6 8.65,3.6 C10.9,3.6 12.7,5.4 12.7,7.65 L12.7,13.5 Z M14.5,12.6 L14.5,7.65 C14.5,4.887 12.574,2.574 10,1.962 L10,1.35 C10,0.604415588 9.39558441,0 8.65,0 C7.90441559,0 7.3,0.604415588 7.3,1.35 L7.3,1.962 C4.717,2.574 2.8,4.887 2.8,7.65 L2.8,12.6 L1,14.4 L1,15.3 L16.3,15.3 L16.3,14.4 L14.5,12.6 Z M8.65,18 C9.64411255,18 10.45,17.1941125 10.45,16.2 L6.85,16.2 C6.85,17.1941125 7.65588745,18 8.65,18 Z" id="path-1"></path>
    </defs>
    <g id="!Icons/Unused/Notification" stroke="none" stroke-width="1" fill="none" fill-rule="evenodd">
        <mask id="mask-2" fill="white">
            <use xlink:href="#path-1"></use>
        </mask>
        <use id="Shape" fill="#16161F" xlink:href="#path-1"></use>
    </g>
</svg>