<?xml version="1.0" encoding="UTF-8"?>
<svg width="30px" height="30px" viewBox="0 0 30 30" version="1.1" xmlns="http://www.w3.org/2000/svg" xmlns:xlink="http://www.w3.org/1999/xlink">
    <title>notifications copy</title>
    <g id="notifications-copy" stroke="none" stroke-width="1" fill="none" fill-rule="evenodd">
        <g id="Bottom/Icon-Copy-24" transform="translate(-9.000000, -9.000000)">
            <path d="M15.3833112,-6.21504185e-16 L32.6166888,6.21504185e-16 C37.9658012,-3.61111829e-16 39.9055187,0.556953667 41.8610742,1.60279622 C43.8166298,2.64863878 45.3513612,4.18337022 46.3972038,6.13892578 C47.4430463,8.09448133 48,10.0341988 48,15.3833112 L48,32.6166888 C48,37.9658012 47.4430463,39.9055187 46.3972038,41.8610742 C45.3513612,43.8166298 43.8166298,45.3513612 41.8610742,46.3972038 C39.9055187,47.4430463 37.9658012,48 32.6166888,48 L15.3833112,48 C10.0341988,48 8.09448133,47.4430463 6.13892578,46.3972038 C4.18337022,45.3513612 2.64863878,43.8166298 1.60279622,41.8610742 C0.556953667,39.9055187 2.4074122e-16,37.9658012 -4.14336123e-16,32.6166888 L4.14336123e-16,15.3833112 C-2.4074122e-16,10.0341988 0.556953667,8.09448133 1.60279622,6.13892578 C2.64863878,4.18337022 4.18337022,2.64863878 6.13892578,1.60279622 C8.09448133,0.556953667 10.0341988,3.61111829e-16 15.3833112,-6.21504185e-16 Z" id="BG"></path>
            <g id="Icon/Plus-Square" transform="translate(9.000000, 9.000000)">
                <rect id="Rectangle" x="0" y="0" width="30" height="30"></rect>
                <g id="Bell" transform="translate(5.000000, 5.000000)">
                    <path d="M17.4,4.4 L18.1,3.7 C18.4811429,3.31115649 18.4811429,2.68884351 18.1,2.3 L16.7,0.9 C16.3111565,0.518857124 15.6888435,0.518857124 15.3,0.9 L14.6,1.6 C15.2455175,1.96654304 15.8490926,2.40245841 16.4,2.9 C16.7676423,3.37625723 17.1017788,3.87746206 17.4,4.4 L17.4,4.4 Z" id="Path" fill="#1269FF" opacity="0.3"></path>
                    <path d="M5.4,13.6 C4.4,12.5 3.5,11.6 2.8,10.7 C1.83466045,12.2767766 2.0757034,14.309682 3.3830107,15.6169893 C4.690318,16.9242966 6.72322345,17.1653396 8.3,16.2 C7.4,15.5 6.5,14.6 5.4,13.6 Z" id="Path" fill="#0659FD"></path>
                    <path d="M15.5,13.4 L16,12.9 C18.7568087,10.196926 18.9321008,5.81462596 16.4,2.9 C15.0936384,1.51164903 13.277552,0.716143275 11.3713142,0.697269632 C9.46507628,0.67839599 7.63359492,1.43778721 6.3,2.8 L5.6,3.5 L5.1,3.7 L2.2,4.3 L1.7,4.6 L0.3,6 C-0.00191839832,6.32338394 -0.080717207,6.79617679 0.1,7.2 C1.62996296,9.518766 3.40703169,11.6646603 5.4,13.6 C7.33533969,15.5929683 9.481234,17.370037 11.8,18.9 C12.2038232,19.0807172 12.6766161,19.0019184 13,18.7 L14.4,17.3 L14.7,16.8 L15.3,13.9 C15.3068825,13.7152289 15.3775555,13.5385463 15.5,13.4 L15.5,13.4 Z" id="Path" fill="#1269FF" opacity="0.3"></path>
                </g>
            </g>
        </g>
    </g>
</svg>