<?xml version="1.0" encoding="UTF-8"?>
<svg width="30px" height="30px" viewBox="0 0 30 30" version="1.1" xmlns="http://www.w3.org/2000/svg" xmlns:xlink="http://www.w3.org/1999/xlink">
    <title>Icon/OK</title>
    <g id="Icon/OK" stroke="none" stroke-width="1" fill="none" fill-rule="evenodd">
        <g id="Close-Circle" transform="translate(5.000000, 5.000000)" fill="#A7B4CB" opacity="0.6">
            <path d="M10,20 C15.5228,20 20,15.5228 20,10 C20,4.47715 15.5228,0 10,0 C4.47715,0 0,4.47715 0,10 C0,15.5228 4.47715,20 10,20 Z" id="Path"></path>
        </g>
        <path d="M19.2600599,11.3273272 C19.6315669,10.9186696 20.2640152,10.888553 20.6726728,11.2600599 C21.0498952,11.6029894 21.1045738,12.1682595 20.8185535,12.5746152 L20.7399401,12.6726728 L14.3763037,19.6726728 C13.9972937,20.0895838 13.3488453,20.111214 12.942895,19.7204869 L9.3065314,16.2204869 C8.9086175,15.8374947 8.89652102,15.2044453 9.27951315,14.8065314 C9.66250528,14.4086175 10.2955547,14.396521 10.6934686,14.7795131 L13.588,17.566 L19.2600599,11.3273272 Z" id="Path-3" fill="#16161F"></path>
    </g>
</svg>