<?xml version="1.0" encoding="UTF-8"?>
<svg width="20px" height="20px" viewBox="0 0 20 20" version="1.1" xmlns="http://www.w3.org/2000/svg" xmlns:xlink="http://www.w3.org/1999/xlink">
    <title>Bottom/Icon Copy 8</title>
    <g id="Local-HUB-(FB)" stroke="none" stroke-width="1" fill="none" fill-rule="evenodd">
        <g id="Home/Local-Hub/Main" transform="translate(-746.000000, -378.000000)">
            <g id="Bottom/Icon-Copy-8" transform="translate(737.000000, 369.000000)">
                <path d="M15.3833112,-6.21504185e-16 L22.6166888,6.21504185e-16 C27.9658012,-3.61111829e-16 29.9055187,0.556953667 31.8610742,1.60279622 C33.8166298,2.64863878 35.3513612,4.18337022 36.3972038,6.13892578 C37.4430463,8.09448133 38,10.0341988 38,15.3833112 L38,22.6166888 C38,27.9658012 37.4430463,29.9055187 36.3972038,31.8610742 C35.3513612,33.8166298 33.8166298,35.3513612 31.8610742,36.3972038 C29.9055187,37.4430463 27.9658012,38 22.6166888,38 L15.3833112,38 C10.0341988,38 8.09448133,37.4430463 6.13892578,36.3972038 C4.18337022,35.3513612 2.64863878,33.8166298 1.60279622,31.8610742 C0.556953667,29.9055187 2.4074122e-16,27.9658012 -4.14336123e-16,22.6166888 L4.14336123e-16,15.3833112 C-2.4074122e-16,10.0341988 0.556953667,8.09448133 1.60279622,6.13892578 C2.64863878,4.18337022 4.18337022,2.64863878 6.13892578,1.60279622 C8.09448133,0.556953667 10.0341988,3.61111829e-16 15.3833112,-6.21504185e-16 Z" id="BG"></path>
                <g id="Group" transform="translate(4.000000, 4.000000)" fill="#1269FF">
                    <g id="Camera" transform="translate(5.000000, 5.000000)">
                        <path d="M0,6.34233 C0,4.96573 0.93689,3.76578 2.27239,3.4319 L4,3 L5.1094,1.3359 C5.6658,0.5013 6.60249,0 7.60555,0 L12.3944,0 C13.3975,0 14.3342,0.5013 14.8906,1.3359 L16,3 L17.7276,3.4319 C19.0631,3.76578 20,4.96573 20,6.34233 L20,17 C20,18.6569 18.6569,20 17,20 L3,20 C1.34315,20 0,18.6569 0,17 L0,6.34233 Z" id="Path" opacity="0.2"></path>
                        <path d="M16,8 C16.5523,8 17,7.55228 17,7 C17,6.44772 16.5523,6 16,6 C15.4477,6 15,6.44772 15,7 C15,7.55228 15.4477,8 16,8 Z" id="Path"></path>
                        <path d="M14,11 C14,13.2091 12.2091,15 10,15 C7.79086,15 6,13.2091 6,11 C6,8.7909 7.79086,7 10,7 C12.2091,7 14,8.7909 14,11 Z M12,11 C12,12.1046 11.1046,13 10,13 C8.8954,13 8,12.1046 8,11 C8,9.8954 8.8954,9 10,9 C11.1046,9 12,9.8954 12,11 Z" id="Shape"></path>
                    </g>
                </g>
            </g>
        </g>
    </g>
</svg>