<?xml version="1.0" encoding="UTF-8"?>
<svg width="20px" height="20px" viewBox="0 0 20 20" version="1.1" xmlns="http://www.w3.org/2000/svg" xmlns:xlink="http://www.w3.org/1999/xlink">
    <title>Commerce/Piggy</title>
    <g id="Style-Guide/Icons" stroke="none" stroke-width="1" fill="none" fill-rule="evenodd">
        <g id="Style-Guide-Copy" transform="translate(-1246.000000, -785.000000)">
            <g id="Shape" transform="translate(1241.000000, 780.000000)">
                <path d="M22.5063063,12.1 C21.5848569,14.0304539 19.5374438,15.1609042 17.4128479,14.9122812 C15.288252,14.6636583 13.5571551,13.091042 13.1063063,11 L13.0063063,11 L10.0063063,8.6 C9.68885206,8.35851429 9.25825162,8.32877269 8.91061146,8.52432028 C8.5629713,8.71986787 8.36478288,9.10330321 8.4063063,9.5 L8.8063063,12.7 C7.89933898,13.5884381 7.30315223,14.7457418 7.1063063,16 L6.0063063,16 C5.73239135,15.9674197 5.45866299,16.0622519 5.26361059,16.2573043 C5.06855819,16.4523567 4.97372597,16.7260851 5.0063063,17 L5.0063063,20 C4.97372597,20.2739149 5.06855819,20.5476433 5.26361059,20.7426957 C5.45866299,20.9377481 5.73239135,21.0325803 6.0063063,21 L8.5063063,21 C8.95563248,21.4595263 9.45935537,21.8625046 10.0063063,22.2 C10.9205666,22.7209576 11.9540436,22.9965514 13.0063063,23 L19.0063063,23 C20.058569,22.9965514 21.092046,22.7209576 22.0063063,22.2 C23.8639037,21.1275162 25.0076815,19.144968 25.0063075,17 C24.9985349,15.0623021 24.0706016,13.243553 22.5063063,12.1 L22.5063063,12.1 Z M9.0063063,15 C9.0063063,14.4477153 9.45402155,14 10.0063063,14 C10.558591,14 11.0063063,14.4477153 11.0063063,15 C11.0063063,15.5522847 10.558591,16 10.0063063,16 C9.73239135,16.0325803 9.45866299,15.9377481 9.26361059,15.7426957 C9.06855819,15.5476433 8.97372597,15.2739149 9.0063063,15 L9.0063063,15 Z" fill="#A7B4CB" opacity="0.6"></path>
                <path d="M10.0063063,22.201 L10.2840605,22.3488996 C11.0337399,22.7261932 11.8532905,22.94474 12.6912915,22.9908279 L13.0063063,23 L14.0063063,23 L14.0063063,24 C14.0388866,24.2739149 13.9440544,24.5476433 13.749002,24.7426957 C13.5818142,24.9098835 13.3568237,25.0034401 13.1234582,25.0062415 L13.0063063,25 L11.0063063,25 C10.7323914,25.0325803 10.458663,24.9377481 10.2636106,24.7426957 C10.0964228,24.5755079 10.0028662,24.3505174 10.0000648,24.1171519 L10.0063063,24 L10.0063063,22.201 Z M22.0063063,22.2 L22.0063063,24 C22.0388866,24.2739149 21.9440544,24.5476433 21.749002,24.7426957 C21.5818142,24.9098835 21.3568237,25.0034401 21.1234582,25.0062415 L21.0063063,25 L19.0063063,25 C18.7323914,25.0325803 18.458663,24.9377481 18.2636106,24.7426957 C18.0964228,24.5755079 18.0028662,24.3505174 18.0000648,24.1171519 L18.0063063,24 L18.0063063,23 L19.0063063,23 C19.9533428,22.9968963 20.8851627,22.7733549 21.7285521,22.3488996 L22.0063063,22.2 Z M10.0063063,14 C10.558591,14 11.0063063,14.4477153 11.0063063,15 C11.0063063,15.5522847 10.558591,16 10.0063063,16 C9.45402155,16 9.0063063,15.5522847 9.0063063,15 C9.0063063,14.4477153 9.45402155,14 10.0063063,14 Z M18.0063063,5 C19.3323887,5 20.6041583,5.5267842 21.5418402,6.46446609 C22.4795221,7.40214799 23.0063503,8.67391755 23.0063503,10 C23.0085735,10.7297509 22.8371879,11.4495702 22.5063063,12.1 C21.5848569,14.0304539 19.5374438,15.1609042 17.4128479,14.9122812 C15.288252,14.6636583 13.5571551,13.091042 13.1063063,11 C13.0442923,10.7550955 13.0098317,10.5042989 13.0033905,10.2522688 L13.0063063,10 C13.0063063,7.23857625 15.2448825,5 18.0063063,5 Z" fill="#16161F"></path>
            </g>
        </g>
    </g>
</svg>