<?xml version="1.0" encoding="UTF-8"?>
<svg width="26px" height="26px" viewBox="0 0 26 26" version="1.1" xmlns="http://www.w3.org/2000/svg" xmlns:xlink="http://www.w3.org/1999/xlink">
    <title>Fill 11</title>
    <g id="Local-HUB-(FB)" stroke="none" stroke-width="1" fill="none" fill-rule="evenodd">
        <g id="Home/Local-Hub/PopUp-windows" transform="translate(-1205.000000, -1076.000000)" fill="#1269FF">
            <g id="Share-Social-Network" transform="translate(1190.000000, 1013.000000)">
                <path d="M28,63 C20.8199375,63 15,68.8199375 15,76 C15,81.507125 18.4263125,86.2115 23.2623125,88.1054375 C23.1485625,87.0768125 23.0461875,85.4989375 23.3078125,84.3760625 C23.5434375,83.3620625 24.8320625,77.91425 24.8320625,77.91425 C24.8320625,77.91425 24.442875,77.135875 24.442875,75.9845625 C24.442875,74.17675 25.491,72.8271875 26.7950625,72.8271875 C27.904125,72.8271875 28.440375,73.66 28.440375,74.6585625 C28.440375,75.774125 27.73025,77.441375 27.3638125,78.98675 C27.0575,80.2810625 28.0121875,81.3365 29.288625,81.3365 C31.599375,81.3365 33.3755,78.8998125 33.3755,75.3833125 C33.3755,72.270625 31.1386875,70.0939375 27.94475,70.0939375 C24.24625,70.0939375 22.07525,72.868625 22.07525,75.7359375 C22.07525,76.853125 22.5050625,78.0515625 23.042125,78.702375 C23.1485625,78.8315625 23.164,78.9436875 23.1323125,79.0753125 C23.034,79.4864375 22.814625,80.3688125 22.7715625,80.55 C22.7146875,80.78725 22.5830625,80.8384375 22.336875,80.723875 C20.7126875,79.9674375 19.697875,77.594125 19.697875,75.6871875 C19.697875,71.5865 22.6773125,67.8205625 28.287625,67.8205625 C32.797,67.8205625 36.302125,71.034 36.302125,75.328875 C36.302125,79.809 33.4770625,83.414875 29.5559375,83.414875 C28.238875,83.414875 27.000625,82.7299375 26.5765,81.9215 C26.5765,81.9215 25.924875,84.4036875 25.7664375,85.01225 C25.473125,86.1408125 24.6809375,87.5561875 24.150375,88.419875 C25.3675,88.796875 26.6601875,89 28,89 C35.1800625,89 41,83.17925 41,76 C41,68.8199375 35.1800625,63 28,63" id="Fill-11"></path>
            </g>
        </g>
    </g>
</svg>