<?xml version="1.0" encoding="UTF-8"?>
<svg width="20px" height="20px" viewBox="0 0 20 20" version="1.1" xmlns="http://www.w3.org/2000/svg" xmlns:xlink="http://www.w3.org/1999/xlink">
    <title>Plus Square</title>
    <g id="-" stroke="none" stroke-width="1" fill="none" fill-rule="evenodd">
        <g id="!Icons/2.-Icons/Plus-Square" transform="translate(-5.000000, -5.000000)">
            <g id="Plus-Square" transform="translate(5.000000, 5.000000)">
                <path d="M4.54184,0.36899 C2.34504,0.65912 0.65912,2.34504 0.36899,4.54184 C0.16953,6.05208 0,7.94127 0,10 C0,12.0587 0.16953,13.9479 0.36899,15.4582 C0.65912,17.655 2.34504,19.3409 4.54184,19.631 C6.05208,19.8305 7.94127,20 10,20 C12.0587,20 13.9479,19.8305 15.4582,19.631 C17.655,19.3409 19.3409,17.655 19.631,15.4582 C19.8305,13.9479 20,12.0587 20,10 C20,7.94127 19.8305,6.05208 19.631,4.54184 C19.3409,2.34504 17.655,0.65912 15.4582,0.36899 C13.9479,0.16953 12.0587,0 10,0 C7.94127,0 6.05208,0.16953 4.54184,0.36899 Z" id="Path" fill="#A7B4CB" opacity="0.4"></path>
                <path d="M10,15 C10.5523,15 11,14.5523 11,14 L11,11 L14,11 C14.5523,11 15,10.5523 15,10 C15,9.4477 14.5523,9 14,9 L11,9 L11,6 C11,5.44772 10.5523,5 10,5 C9.4477,5 9,5.44772 9,6 L9,9 L6,9 C5.44772,9 5,9.4477 5,10 C5,10.5523 5.44771,11 6,11 L9,11 L9,14 C9,14.5523 9.4477,15 10,15 Z" id="Path" fill="#16161F"></path>
            </g>
        </g>
    </g>
</svg>