<?xml version="1.0" encoding="utf-8"?>
<!-- Generator: Adobe Illustrator 21.0.0, SVG Export Plug-In . SVG Version: 6.00 Build 0)  -->
<svg version="1.1" id="Capa_1" xmlns="http://www.w3.org/2000/svg" xmlns:xlink="http://www.w3.org/1999/xlink" x="0px" y="0px"
	 viewBox="0 0 298.1 298.1" style="enable-background:new 0 0 298.1 298.1;" xml:space="preserve">
<style type="text/css">
	.st0{fill:#CAD2E0;}
	.st1{fill:#16161F;}
</style>
<g>
	<path class="st0" d="M296.6,231.6L283,210.8c-2.8-4.3-8.6-5.5-12.9-2.7l-75.8,49.7c-4.3,2.8-5.5,8.6-2.7,12.9l13.6,20.8
		c2.8,4.3,8.6,5.5,12.9,2.7l75.8-49.7C298.2,241.6,299.4,235.8,296.6,231.6z"/>
	<path class="st0" d="M207.2,231.1l24.8-16.3c10-6.6,16.9-16.6,19.3-28.4c2.3-11.1,0.5-23.1-6.4-33.7c-3.5-5.4-33.2-50.6-36.6-55.9
		c-4.6-7-14-9-21-4.4c-4.6,3-7,8-6.8,13.1l-2.7-4.1c-4.6-7-14-9-21-4.4c-4.6,3-7,8-6.8,13.1l-1.9-2.9c-4.6-7-14-9-21-4.4
		c-4.6,3-7,8-6.8,13.1L95.2,77.7c-4.6-7-14-9-21-4.4c-7,4.6-9,14-4.4,21l62.5,95.4l-26.2-8.9c-7.9-2.7-16.5,1.5-19.2,9.5
		c-2.7,7.9,1.5,16.5,9.5,19.2l73.6,25.1c4.9,2,10.1,3.1,15.5,3.1C192.9,237.6,200.5,235.5,207.2,231.1z"/>
	<path class="st1" d="M102.9,68.6c3,4.6,9.2,5.9,13.8,2.9c4.6-3,5.9-9.2,2.9-13.8c-14.1-21.5-43-27.5-64.5-13.4
		c-21.5,14.1-27.5,43-13.4,64.5c1.9,2.9,5.1,4.5,8.4,4.5c1.9,0,3.8-0.5,5.5-1.6c4.6-3,5.9-9.2,2.9-13.8c-8-12.3-4.6-28.8,7.7-36.8
		C78.4,52.9,94.9,56.4,102.9,68.6z"/>
	<path class="st1" d="M21.3,70.8C24.6,55,33.9,41.4,47.4,32.5S77.2,20.5,93,23.8c15.9,3.3,29.5,12.6,38.4,26.1
		c3,4.6,9.2,5.9,13.8,2.9c4.6-3,5.9-9.2,2.9-13.8c-11.8-18-29.9-30.4-51-34.8C76-0.1,54.5,3.9,36.5,15.7S6.1,45.7,1.7,66.8
		s-0.3,42.6,11.5,60.6c1.9,2.9,5.1,4.5,8.4,4.5c1.9,0,3.8-0.5,5.5-1.6c4.6-3,5.9-9.2,2.9-13.8C21.1,102.9,18,86.7,21.3,70.8z"/>
</g>
</svg>
