<?xml version="1.0" encoding="UTF-8"?>
<svg width="30px" height="30px" viewBox="0 0 30 30" version="1.1" xmlns="http://www.w3.org/2000/svg" xmlns:xlink="http://www.w3.org/1999/xlink">
    <title>Icon/Security Copy</title>
    <g id="Icon/Security-Copy" stroke="none" stroke-width="1" fill="none" fill-rule="evenodd">
        <path d="M15,4 L24,8.02553191 L24,14.0170213 C24,16.7943402 23.140635,19.3297767 21.421875,21.6234028 C19.703115,23.9170327 17.562513,25.3758833 15,26 C12.437487,25.3758833 10.296885,23.9170327 8.578125,21.6234028 C6.8593665,19.3297767 6,16.7943402 6,14.0170213 L6,8.02553191 L15,4 Z" id="Fill-1" fill="#1269FF" opacity="0.3"></path>
        <path d="M21.984375,15 C21.734373,17.0907901 20.968755,18.9553117 19.6875,20.5936155 C18.406245,22.2319224 16.843758,23.3475146 15,23.9404255 L15,23.9404255 L15,15 Z M15,6.2 L15,15 L8.015625,15 L8.015625,9.2893617 L15,6.2 Z" id="Combined-Shape" fill="#0659FD"></path>
    </g>
</svg>