<?xml version="1.0" encoding="UTF-8"?>
<svg width="22px" height="18px" viewBox="0 0 22 18" version="1.1" xmlns="http://www.w3.org/2000/svg" xmlns:xlink="http://www.w3.org/1999/xlink">
    <title>setting_icon</title>
    <defs>
        <radialGradient cx="6.9700972%" cy="10.3987043%" fx="6.9700972%" fy="10.3987043%" r="110.817071%" gradientTransform="translate(0.069701,0.103987),scale(0.545455,1.000000),rotate(53.954638),translate(-0.069701,-0.103987)" id="radialGradient-1">
            <stop stop-color="#6FC1FF" offset="0%"></stop>
            <stop stop-color="#6FC1FF" offset="46.2742752%"></stop>
            <stop stop-color="#7BB1FF" offset="100%"></stop>
        </radialGradient>
        <linearGradient x1="66.7368235%" y1="0.862281604%" x2="35.1889329%" y2="108.104127%" id="linearGradient-2">
            <stop stop-color="#69BFFF" offset="0%"></stop>
            <stop stop-color="#4545EA" offset="100%"></stop>
        </linearGradient>
    </defs>
    <g id="Local-HUB-(FB)" stroke="none" stroke-width="1" fill="none" fill-rule="evenodd">
        <g id="Home/Local-Hub/Main" transform="translate(-30.000000, -405.000000)">
            <g id="Bottom/Icon-Copy-16" transform="translate(17.000000, 390.000000)">
                <path d="M12.819426,-1.42475429e-15 L35.180574,5.17920154e-16 C39.6381677,-3.00926524e-16 41.2545989,0.464128056 42.8842285,1.33566352 C44.5138581,2.20719898 45.792801,3.48614185 46.6643365,5.11577148 C47.5358719,6.74540111 48,8.3618323 48,12.819426 L48,35.180574 C48,39.6381677 47.5358719,41.2545989 46.6643365,42.8842285 C45.792801,44.5138581 44.5138581,45.792801 42.8842285,46.6643365 C41.2545989,47.5358719 39.6381677,48 35.180574,48 L12.819426,48 C8.3618323,48 6.74540111,47.5358719 5.11577148,46.6643365 C3.48614185,45.792801 2.20719898,44.5138581 1.33566352,42.8842285 C0.464128056,41.2545989 7.27514433e-16,39.6381677 -1.25211424e-15,35.180574 L3.45280103e-16,12.819426 C-2.00617683e-16,8.3618323 0.464128056,6.74540111 1.33566352,5.11577148 C2.20719898,3.48614185 3.48614185,2.20719898 5.11577148,1.33566352 C6.74540111,0.464128056 8.3618323,8.27823274e-16 12.819426,-1.42475429e-15 Z" id="BG"></path>
                <g id="Group" transform="translate(9.000000, 9.000000)">
                    <g id="Settings-01" transform="translate(4.000000, 6.000000)">
                        <path d="M12,13 C12.5523,13 13,13.4477 13,14 C13,14.5523 12.5523,15 12,15 L12,15 L1,15 C0.44772,15 0,14.5523 0,14 C0,13.4477 0.44772,13 1,13 L1,13 Z M21,13 C21.5523,13 22,13.4477 22,14 C22,14.5523 21.5523,15 21,15 L21,15 L18,15 C17.4477,15 17,14.5523 17,14 C17,13.4477 17.4477,13 18,13 L18,13 Z M4,3 C4.55228,3 5,3.44772 5,4 C5,4.55228 4.55228,5 4,5 L4,5 L1,5 C0.44772,5 0,4.55228 0,4 C0,3.44772 0.44772,3 1,3 L1,3 Z M21,3 C21.5523,3 22,3.44772 22,4 C22,4.55228 21.5523,5 21,5 L21,5 L10,5 C9.4477,5 9,4.55228 9,4 C9,3.44772 9.4477,3 10,3 L10,3 Z" id="Combined-Shape" fill="url(#radialGradient-1)"></path>
                        <path d="M15,10 C17.2091,10 19,11.7909 19,14 C19,16.2091 17.2091,18 15,18 C12.7909,18 11,16.2091 11,14 C11,11.7909 12.7909,10 15,10 Z M8,0 C10.2091,0 12,1.79086 12,4 C12,6.20914 10.2091,8 8,8 C5.79086,8 4,6.20914 4,4 C4,1.79086 5.79086,0 8,0 Z" id="Combined-Shape" fill="url(#linearGradient-2)"></path>
                    </g>
                </g>
            </g>
        </g>
    </g>
</svg>