<?xml version="1.0" encoding="UTF-8"?>
<svg width="30px" height="30px" viewBox="0 0 30 30" version="1.1" xmlns="http://www.w3.org/2000/svg" xmlns:xlink="http://www.w3.org/1999/xlink">
    <title>2. Icons/Settings 2 Copy</title>
    <g id="2.-Icons/Settings-2-Copy" stroke="none" stroke-width="1" fill="none" fill-rule="evenodd">
        <g id="Settings-02" transform="translate(5.000000, 5.000000)">
            <path d="M4.5,0 L15.5,0 C17.9853,0 20,2.01472 20,4.5 C20,6.98528 17.9853,9 15.5,9 L4.5,9 C2.01472,9 0,6.98528 0,4.5 C0,2.01472 2.01472,0 4.5,0 Z" id="Path" fill="#1269FF" opacity="0.3"></path>
            <path d="M18,4.5 C18,5.88071 16.8807,7 15.5,7 C14.1193,7 13,5.88071 13,4.5 C13,3.11929 14.1193,2 15.5,2 C16.8807,2 18,3.11929 18,4.5 Z" id="Path" fill="#0659FD"></path>
            <path d="M0,15.5 C0,13.0147 2.01472,11 4.5,11 L15.5,11 C17.9853,11 20,13.0147 20,15.5 L20,15.5 C20,17.9853 17.9853,20 15.5,20 L4.5,20 C2.01472,20 0,17.9853 0,15.5 L0,15.5 Z" id="Path" fill="#1269FF" opacity="0.3"></path>
            <path d="M7,15.5 C7,16.8807 5.88071,18 4.5,18 C3.11929,18 2,16.8807 2,15.5 C2,14.1193 3.11929,13 4.5,13 C5.88071,13 7,14.1193 7,15.5 Z" id="Path" fill="#0659FD"></path>
        </g>
    </g>
</svg>