<?xml version="1.0" encoding="UTF-8"?>
<svg width="30px" height="30px" viewBox="0 0 30 30" version="1.1" xmlns="http://www.w3.org/2000/svg" xmlns:xlink="http://www.w3.org/1999/xlink">
    <title>Icon/Settings</title>
    <g id="Icon/Settings" stroke="none" stroke-width="1" fill="none" fill-rule="evenodd">
        <g id="Gear" transform="translate(4.000000, 4.000000)">
            <path d="M12.8471178,18.2892231 L12.8471178,19.7944862 C12.8848424,20.1116509 12.7750367,20.4285995 12.5491865,20.6544497 C12.3233364,20.8802998 12.0063877,20.9901055 11.6892231,20.952381 L11.6892231,20.952381 L9.37343358,20.952381 C9.05626891,20.9901055 8.73932027,20.8802998 8.51347013,20.6544497 C8.28761999,20.4285995 8.17781426,20.1116509 8.21553885,19.7944862 L8.21553885,19.7944862 L8.21553885,18.2892231 C8.96417996,18.5270149 9.74586695,18.644268 10.5313283,18.6365915 C11.3167897,18.644268 12.0984767,18.5270149 12.8471178,18.2892231 L12.8471178,18.2892231 Z M17.7102757,14.352381 L18.752381,15.3944862 C19.2083231,15.8836658 19.2083231,16.6421487 18.752381,17.1313283 L18.752381,17.1313283 L17.1313283,18.752381 C16.6421487,19.2083231 15.8836658,19.2083231 15.3944862,18.752381 L15.3944862,18.752381 L14.352381,17.7102757 C15.7412015,16.8975657 16.8975657,15.7412015 17.7102757,14.352381 L17.7102757,14.352381 Z M3.35238095,14.352381 C4.16509091,15.7412015 5.32145517,16.8975657 6.71027569,17.7102757 L6.71027569,17.7102757 L5.66817043,18.752381 C5.17899081,19.2083231 4.42050793,19.2083231 3.93132832,18.752381 L3.93132832,18.752381 L2.31027569,17.1313283 C1.85433356,16.6421487 1.85433356,15.8836658 2.31027569,15.3944862 L2.31027569,15.3944862 Z M1.1325209,8.20831184 L1.26817043,8.21553885 L2.77343358,8.21553885 C2.5356417,8.96417996 2.41838865,9.74586695 2.42606516,10.5313283 C2.41838865,11.3167897 2.5356417,12.0984767 2.77343358,12.8471178 L2.77343358,12.8471178 L1.26817043,12.8471178 C0.951005754,12.8848424 0.634057116,12.7750367 0.408206973,12.5491865 C0.18235683,12.3233364 0.0725511005,12.0063877 0.110275689,11.6892231 L0.110275689,11.6892231 L0.110275689,9.37343358 C0.0725511005,9.05626891 0.18235683,8.73932027 0.408206973,8.51347013 C0.634057116,8.28761999 0.951005754,8.17781426 1.26817043,8.21553885 Z M19.7944862,8.21553885 C20.1116509,8.17781426 20.4285995,8.28761999 20.6544497,8.51347013 C20.8802998,8.73932027 20.9901055,9.05626891 20.952381,9.37343358 L20.952381,9.37343358 L20.952381,11.6892231 C20.9901055,12.0063877 20.8802998,12.3233364 20.6544497,12.5491865 C20.4285995,12.7750367 20.1116509,12.8848424 19.7944862,12.8471178 L19.7944862,12.8471178 L18.2892231,12.8471178 C18.7535686,11.3381734 18.7535686,9.72448328 18.2892231,8.21553885 L18.2892231,8.21553885 Z M3.93132832,2.31027569 C4.42050793,1.85433356 5.17899081,1.85433356 5.66817043,2.31027569 L5.66817043,2.31027569 L6.71027569,3.35238095 C5.32145517,4.16509091 4.16509091,5.32145517 3.35238095,6.71027569 L3.35238095,6.71027569 L2.31027569,5.66817043 C1.85433356,5.17899081 1.85433356,4.42050793 2.31027569,3.93132832 L2.31027569,3.93132832 Z M15.3944862,2.31027569 C15.8836658,1.85433356 16.6421487,1.85433356 17.1313283,2.31027569 L17.1313283,2.31027569 L18.752381,3.93132832 C19.2083231,4.42050793 19.2083231,5.17899081 18.752381,5.66817043 L18.752381,5.66817043 L17.7102757,6.71027569 C16.8975657,5.32145517 15.7412015,4.16509091 14.352381,3.35238095 L14.352381,3.35238095 Z M11.6892231,0.110275689 C12.0063877,0.0725511005 12.3233364,0.18235683 12.5491865,0.408206973 C12.7750367,0.634057116 12.8848424,0.951005754 12.8471178,1.26817043 L12.8471178,1.26817043 L12.8471178,2.77343358 C12.0984767,2.5356417 11.3167897,2.41838865 10.5313283,2.42606516 C9.74586695,2.41838865 8.96417996,2.5356417 8.21553885,2.77343358 L8.21553885,2.77343358 L8.21553885,1.26817043 C8.17781426,0.951005754 8.28761999,0.634057116 8.51347013,0.408206973 C8.73932027,0.18235683 9.05626891,0.0725511005 9.37343358,0.110275689 L9.37343358,0.110275689 Z" id="Combined-Shape" fill="#A7B4CB" opacity="0.6"></path>
            <path d="M10.5313283,2.42606516 C6.05491509,2.42606516 2.42606516,6.05491509 2.42606516,10.5313283 C2.42606516,15.0077416 6.05491509,18.6365915 10.5313283,18.6365915 C15.0077416,18.6365915 18.6365915,15.0077416 18.6365915,10.5313283 C18.6365915,6.05491509 15.0077416,2.42606516 10.5313283,2.42606516 Z M10.5313283,12.8471178 C9.25235311,12.8471178 8.21553885,11.8103035 8.21553885,10.5313283 C8.21553885,9.25235311 9.25235311,8.21553885 10.5313283,8.21553885 C11.8103035,8.21553885 12.8471178,9.25235311 12.8471178,10.5313283 C12.8471178,11.8103035 11.8103035,12.8471178 10.5313283,12.8471178 Z" id="Shape" fill="#16161F"></path>
            <circle id="Oval" fill="#A7B4CB" opacity="0.6" cx="10.5313283" cy="10.5313283" r="2.31578947"></circle>
        </g>
    </g>
</svg>