<?xml version="1.0" encoding="UTF-8"?>
<svg width="16px" height="24px" viewBox="0 0 16 24" version="1.1" xmlns="http://www.w3.org/2000/svg" xmlns:xlink="http://www.w3.org/1999/xlink">
    <title>Speakers</title>
    <g id="-" stroke="none" stroke-width="1" fill="none" fill-rule="evenodd">
        <g id="!Icons/2.-Icons/Speakers" transform="translate(-7.000000, -3.000000)">
            <g id="Speakers" transform="translate(7.000000, 3.000000)">
                <path d="M3,23.9999994 C1.34315,23.9999994 0,22.6569 0,20.9999994 L0,2.99999943 C0,1.34315 1.34315,-5.68248e-07 3,-5.68248e-07 L13,-5.68248e-07 C14.6569,-5.68248e-07 16,1.34314 16,2.99999943 L16,20.9999994 C16,22.6569 14.6569,23.9999994 13,23.9999994 L3,23.9999994 Z" id="Path" fill="#A7B4CB" opacity="0.6"></path>
                <path d="M11,7 C11,8.65685 9.6569,10 8,10 C6.3431,10 5,8.65685 5,7 C5,5.34315 6.3431,4 8,4 C9.6569,4 11,5.34315 11,7 Z M9,7 C9,7.55228 8.5523,8 8,8 C7.4477,8 7,7.55228 7,7 C7,6.44772 7.4477,6 8,6 C8.5523,6 9,6.44772 9,7 Z" id="Shape" fill="#16161F"></path>
                <path d="M12,16 C12,18.2091 10.2091,20 8,20 C5.79086,20 4,18.2091 4,16 C4,13.7909 5.79086,12 8,12 C10.2091,12 12,13.7909 12,16 Z M10,16 C10,17.1046 9.1046,18 8,18 C6.8954,18 6,17.1046 6,16 C6,14.8954 6.8954,14 8,14 C9.1046,14 10,14.8954 10,16 Z" id="Shape" fill="#16161F"></path>
            </g>
        </g>
    </g>
</svg>