<?xml version="1.0" encoding="UTF-8"?>
<svg width="18px" height="22px" viewBox="0 0 18 22" version="1.1" xmlns="http://www.w3.org/2000/svg" xmlns:xlink="http://www.w3.org/1999/xlink">
    <title>!Icons/add friends Copy 54</title>
    <g id="Style-Guide/Icons" stroke="none" stroke-width="1" fill="none" fill-rule="evenodd">
        <g id="Icons" transform="translate(-717.000000, -1225.000000)">
            <g id="!Icons/add-friends-Copy-54" transform="translate(717.000000, 1225.000000)">
                <path d="M0,3 C0,1.3431 1.343,0 3,0 L12.757,0 C13.553,0 14.316,0.3161 14.879,0.8787 L17.121,3.1213 C17.684,3.6839 18,4.447 18,5.2426 L18,19 C18,20.6569 16.657,22 15,22 L3,22 C1.343,22 0,20.6569 0,19 L0,3 Z" id="Path" fill="#A7B4CB" opacity="0.6"></path>
                <path d="M6.293,10.2929 C6.683,9.9024 7.317,9.9024 7.707,10.2929 C8.06792308,10.6533615 8.09568639,11.2206207 7.79028994,11.6128973 L7.707,11.7071 L6.414,13 L7.707,14.2929 C8.098,14.6834 8.098,15.3166 7.707,15.7071 C7.347,16.0675615 6.77909467,16.0952893 6.38710924,15.7902834 L6.293,15.7071 L4.293,13.7071 C3.93207692,13.3466385 3.90431361,12.7793793 4.20971006,12.3871027 L4.293,12.2929 L6.293,10.2929 Z M11.707,10.2929 L13.707,12.2929 C14.098,12.6834 14.098,13.3166 13.707,13.7071 L11.707,15.7071 C11.317,16.0976 10.683,16.0976 10.293,15.7071 C9.902,15.3166 9.902,14.6834 10.293,14.2929 L11.586,13 L10.293,11.7071 C9.902,11.3166 9.902,10.6834 10.293,10.2929 C10.683,9.9024 11.317,9.9024 11.707,10.2929 Z M12.892,0 C13.601,0 14.282,0.2819 14.784,0.7836 L17.216,3.2164 C17.718,3.7181 18,4.3986 18,5.1082 C18,5.6007 17.601,6 17.108,6 L13,6 C12.448,6 12,5.5523 12,5 L12,0.8918 C12,0.3993 12.399,0 12.892,0 Z" id="Shape" fill="#16161F"></path>
            </g>
        </g>
    </g>
</svg>