<?xml version="1.0" encoding="UTF-8"?>
<svg width="20px" height="21px" viewBox="0 0 20 21" version="1.1" xmlns="http://www.w3.org/2000/svg" xmlns:xlink="http://www.w3.org/1999/xlink">
    <title>Bottom/Icon</title>
    <g id="Local-HUB-(FB)" stroke="none" stroke-width="1" fill="none" fill-rule="evenodd">
        <g id="Home/Local-Hub/PopUp-windows" transform="translate(-83.000000, -860.000000)">
            <g id="Pop-up_Your-Post-Options" transform="translate(44.000000, 557.000000)">
                <g id="Bottom/Icon" transform="translate(25.000000, 290.000000)">
                    <path d="M12.819426,-1.42475429e-15 L35.180574,5.17920154e-16 C39.6381677,-3.00926524e-16 41.2545989,0.464128056 42.8842285,1.33566352 C44.5138581,2.20719898 45.792801,3.48614185 46.6643365,5.11577148 C47.5358719,6.74540111 48,8.3618323 48,12.819426 L48,35.180574 C48,39.6381677 47.5358719,41.2545989 46.6643365,42.8842285 C45.792801,44.5138581 44.5138581,45.792801 42.8842285,46.6643365 C41.2545989,47.5358719 39.6381677,48 35.180574,48 L12.819426,48 C8.3618323,48 6.74540111,47.5358719 5.11577148,46.6643365 C3.48614185,45.792801 2.20719898,44.5138581 1.33566352,42.8842285 C0.464128056,41.2545989 7.27514433e-16,39.6381677 -1.25211424e-15,35.180574 L3.45280103e-16,12.819426 C-2.00617683e-16,8.3618323 0.464128056,6.74540111 1.33566352,5.11577148 C2.20719898,3.48614185 3.48614185,2.20719898 5.11577148,1.33566352 C6.74540111,0.464128056 8.3618323,8.27823274e-16 12.819426,-1.42475429e-15 Z" id="BG"></path>
                    <g id="Group" transform="translate(9.000000, 9.000000)">
                        <g id="Comment" transform="translate(4.000000, 3.000000)">
                            <path d="M4.69477,2.48932 C3.00472,2.74648 1.66565,3.98488 1.37546,5.66957 C1.17321,6.84372 1,8.33525 1,10 C1,11.6647 1.17321,13.1563 1.37546,14.3304 C1.62456,15.7766 2.64656,16.8939 4,17.344 L4,20.7476 C4,21.5219 4.84211,22.0024 5.50873,21.6085 L11.6241,17.9949 C13.8384,17.9586 15.8238,17.7361 17.3052,17.5107 C18.9953,17.2535 20.3344,16.0151 20.6245,14.3304 C20.8268,13.1563 21,11.6647 21,10 C21,8.33525 20.8268,6.84372 20.6245,5.66957 C20.3344,3.98488 18.9953,2.74648 17.3052,2.48932 C15.6859,2.24293 13.4644,2 11,2 C8.53559,2 6.31411,2.24293 4.69477,2.48932 Z" id="Path" fill="#A7B4CB" opacity="0.6"></path>
                            <path d="M6,7 C5.44772,7 5,7.44772 5,8 C5,8.55228 5.44772,9 6,9 L16,9 C16.5523,9 17,8.55228 17,8 C17,7.44772 16.5523,7 16,7 L6,7 Z M6,11 C5.44772,11 5,11.4477 5,12 C5,12.5523 5.44772,13 6,13 L10,13 C10.5523,13 11,12.5523 11,12 C11,11.4477 10.5523,11 10,11 L6,11 Z" id="Shape" fill="#16161F"></path>
                            <rect id="Rectangle" fill="#16161F" transform="translate(10.121320, 10.121320) rotate(-315.000000) translate(-10.121320, -10.121320) " x="-1.87867966" y="9.12132034" width="24" height="2" rx="1"></rect>
                        </g>
                    </g>
                </g>
            </g>
        </g>
    </g>
</svg>