<?xml version="1.0" encoding="UTF-8"?>
<svg width="30px" height="30px" viewBox="0 0 30 30" version="1.1" xmlns="http://www.w3.org/2000/svg" xmlns:xlink="http://www.w3.org/1999/xlink">
    <title>trending_icon</title>
    <defs>
        <radialGradient cx="6.9700972%" cy="10.3987043%" fx="6.9700972%" fy="10.3987043%" r="158.881108%" gradientTransform="translate(0.069701,0.103987),scale(1.000000,0.578637),rotate(77.063906),translate(-0.069701,-0.103987)" id="radialGradient-1">
            <stop stop-color="#6FC1FF" offset="0%"></stop>
            <stop stop-color="#6FC1FF" offset="46.2742752%"></stop>
            <stop stop-color="#7BB1FF" offset="100%"></stop>
        </radialGradient>
        <linearGradient x1="63.8420333%" y1="0.862281604%" x2="37.7506455%" y2="108.104127%" id="linearGradient-2">
            <stop stop-color="#69BFFF" offset="0%"></stop>
            <stop stop-color="#4545EA" offset="100%"></stop>
        </linearGradient>
    </defs>
    <g id="trending_icon" stroke="none" stroke-width="1" fill="none" fill-rule="evenodd">
        <g id="Heart" transform="translate(5.000000, 6.000000)">
            <path d="M9.2,18.2 L9.4,18.2 C5.72366937,13.7859994 5.98285888,7.30626172 10,3.2 L9.5,2.7 C8.4786031,1.60427436 7.04795403,0.982051059 5.55,0.982051059 C4.05204597,0.982051059 2.6213969,1.60427436 1.6,2.7 C-0.483933749,4.95953105 -0.483933749,8.44046895 1.6,10.7 L9,18 L9.2,18.2 Z" id="Path" fill="url(#radialGradient-1)"></path>
            <path d="M18,2.3 C15.6935099,0.439989936 12.3465754,0.657323349 10.3,2.8 L10,3.2 C5.96766425,7.27348548 5.62381139,13.7207266 9.2,18.2 C9.62958152,18.6369427 10.3193562,18.6800536 10.8,18.3 L18.4,10.7 C19.4990968,9.55143046 20.0785756,8.00207048 20.0029601,6.41414476 C19.9273446,4.82621903 19.2032636,3.33893332 18,2.3 Z" id="Path" fill="url(#linearGradient-2)"></path>
        </g>
    </g>
</svg>