<?xml version="1.0" encoding="UTF-8"?>
<svg width="26px" height="22px" viewBox="0 0 26 22" version="1.1" xmlns="http://www.w3.org/2000/svg" xmlns:xlink="http://www.w3.org/1999/xlink">
    <title>Fill 1</title>
    <g id="Local-HUB-(FB)" stroke="none" stroke-width="1" fill="none" fill-rule="evenodd">
        <g id="Home/Local-Hub/PopUp-windows" transform="translate(-1255.000000, -1033.000000)" fill="#1269FF">
            <g id="Share-Social-Network" transform="translate(1190.000000, 1013.000000)">
                <path d="M91,22.500875 C90.0436875,22.925 89.0150625,23.2118125 87.9360625,23.341 C89.0378125,22.6804375 89.883625,21.6355625 90.28175,20.39 C89.2515,21.001 88.109125,21.444625 86.8944375,21.6843125 C85.9210625,20.6475625 84.5349375,20 83.0009375,20 C80.0548125,20 77.666875,22.3879375 77.666875,25.3340625 C77.666875,25.7516875 77.714,26.15875 77.805,26.5495625 C73.3711875,26.3269375 69.441125,24.2030625 66.81025,20.9758125 C66.3511875,21.7639375 66.0879375,22.6804375 66.0879375,23.657875 C66.0879375,25.5079375 67.029625,27.1410625 68.4604375,28.097375 C67.5861875,28.06975 66.7639375,27.8300625 66.044875,27.4303125 C66.0440625,27.4530625 66.0440625,27.475 66.0440625,27.49775 C66.0440625,30.0823125 67.88275,32.237875 70.3235,32.7278125 C69.8758125,32.8496875 69.4045625,32.9146875 68.917875,32.9146875 C68.5741875,32.9146875 68.24025,32.881375 67.9144375,32.819625 C68.592875,34.938625 70.5631875,36.48075 72.8975,36.5238125 C71.0718125,37.954625 68.771625,38.8069375 66.272375,38.8069375 C65.84175,38.8069375 65.417625,38.78175 65,38.733 C67.3603125,40.245875 70.16425,41.1290625 73.177,41.1290625 C82.98875,41.1290625 88.3536875,33.0008125 88.3536875,25.952375 C88.3536875,25.7208125 88.3488125,25.490875 88.33825,25.26175 C89.3806875,24.5101875 90.285,23.5709375 91,22.500875" id="Fill-1"></path>
            </g>
        </g>
    </g>
</svg>