<?xml version="1.0" encoding="UTF-8"?>
<svg width="22px" height="18px" viewBox="0 0 22 18" version="1.1" xmlns="http://www.w3.org/2000/svg" xmlns:xlink="http://www.w3.org/1999/xlink">
    <title>Video_hub</title>
    <defs>
        <linearGradient x1="50%" y1="16.5289256%" x2="22.6926308%" y2="83.4710744%" id="linearGradient-1">
            <stop stop-color="#FF9393" offset="0%"></stop>
            <stop stop-color="#FF2929" offset="100%"></stop>
        </linearGradient>
    </defs>
    <g id="Local-HUB-(FB)" stroke="none" stroke-width="1" fill="none" fill-rule="evenodd">
        <g id="Home/Local-Hub/Main" transform="translate(-30.000000, -609.000000)">
            <g id="Bottom/Icon-Copy-6" transform="translate(17.000000, 594.000000)">
                <path d="M12.819426,-1.42475429e-15 L35.180574,5.17920154e-16 C39.6381677,-3.00926524e-16 41.2545989,0.464128056 42.8842285,1.33566352 C44.5138581,2.20719898 45.792801,3.48614185 46.6643365,5.11577148 C47.5358719,6.74540111 48,8.3618323 48,12.819426 L48,35.180574 C48,39.6381677 47.5358719,41.2545989 46.6643365,42.8842285 C45.792801,44.5138581 44.5138581,45.792801 42.8842285,46.6643365 C41.2545989,47.5358719 39.6381677,48 35.180574,48 L12.819426,48 C8.3618323,48 6.74540111,47.5358719 5.11577148,46.6643365 C3.48614185,45.792801 2.20719898,44.5138581 1.33566352,42.8842285 C0.464128056,41.2545989 7.27514433e-16,39.6381677 -1.25211424e-15,35.180574 L3.45280103e-16,12.819426 C-2.00617683e-16,8.3618323 0.464128056,6.74540111 1.33566352,5.11577148 C2.20719898,3.48614185 3.48614185,2.20719898 5.11577148,1.33566352 C6.74540111,0.464128056 8.3618323,8.27823274e-16 12.819426,-1.42475429e-15 Z" id="BG"></path>
                <g id="Group" transform="translate(9.000000, 9.000000)">
                    <g id="Video" transform="translate(4.000000, 6.000000)">
                        <path d="M4.54525,0.39358 C2.34649,0.66842 0.64953,2.34244 0.34056,4.53666 C0.15369,5.86378 0,7.4319 0,9 C0,10.5681 0.15369,12.1362 0.34056,13.4633 C0.64953,15.6576 2.34649,17.3316 4.54525,17.6064 C6.22455,17.8163 8.42861,18 11,18 C13.5714,18 15.7755,17.8163 17.4547,17.6064 C19.6535,17.3316 21.3505,15.6576 21.6594,13.4633 C21.8463,12.1362 22,10.5681 22,9 C22,7.4319 21.8463,5.86378 21.6594,4.53666 C21.3505,2.34244 19.6535,0.66842 17.4547,0.39358 C15.7755,0.18367 13.5714,0 11,0 C8.4286,0 6.22455,0.18367 4.54525,0.39358 Z" id="Path" fill="url(#linearGradient-1)"></path>
                        <path d="M14.6432,8.1521 L9.53,4.95634 C8.86395,4.54005 8,5.0189 8,5.80433 L8,12.1958 C8,12.9813 8.86395,13.4601 9.53,13.0438 L14.6432,9.8481 C15.2699,9.4564 15.2699,8.5438 14.6432,8.1521 Z" id="Path" fill="#FFFFFF"></path>
                    </g>
                </g>
            </g>
        </g>
    </g>
</svg>