<?xml version="1.0" encoding="UTF-8"?>
<svg width="26px" height="15px" viewBox="0 0 26 15" version="1.1" xmlns="http://www.w3.org/2000/svg" xmlns:xlink="http://www.w3.org/1999/xlink">
    <title>vk-social-network-logo</title>
    <defs>
        <filter id="filter-1">
            <feColorMatrix in="SourceGraphic" type="matrix" values="0 0 0 0 0.070588 0 0 0 0 0.411765 0 0 0 0 1.000000 0 0 0 1.000000 0"></feColorMatrix>
        </filter>
    </defs>
    <g id="Local-HUB-(FB)" stroke="none" stroke-width="1" fill="none" fill-rule="evenodd">
        <g id="Home/Local-Hub/PopUp-windows" transform="translate(-1353.000000, -1082.000000)">
            <g id="vk-social-network-logo" transform="translate(1190.000000, 1013.000000)" fill="#1269FF">
                <g transform="translate(163.000000, 69.000000)">
                    <path d="M25.8319235,13.416663 C25.8004772,13.3488925 25.7711621,13.2926776 25.7439308,13.2476393 C25.2933588,12.4361457 24.4323279,11.4400947 23.1613588,10.2592022 L23.1345064,10.2321603 L23.1210565,10.2188998 L23.1074645,10.2053078 L23.0938251,10.2053078 C22.5169945,9.65542441 22.1517158,9.28569399 21.9987468,9.09640073 C21.7188561,8.73581056 21.656153,8.37081603 21.809122,8.00099089 C21.9171949,7.72157377 22.3231548,7.1314827 23.0260546,6.22991257 C23.3957851,5.75210929 23.6886047,5.36916576 23.9048452,5.08065574 C25.4644189,3.00728597 26.140561,1.68237523 25.9331293,1.10540255 L25.8525719,0.970571949 C25.7984408,0.889398907 25.6587322,0.815140255 25.4336357,0.747417122 C25.2080182,0.679836066 24.9196503,0.668659381 24.5680109,0.713697632 L20.6739781,0.74059745 C20.6108962,0.71824408 20.5208197,0.720327869 20.4034645,0.747417122 C20.2862514,0.774506375 20.2276211,0.788098361 20.2276211,0.788098361 L20.1598506,0.821959927 L20.106051,0.862641166 C20.0609654,0.889540984 20.0113807,0.936852459 19.9572495,1.00448087 C19.9034026,1.0718725 19.8583643,1.15096175 19.8223716,1.24108561 C19.3984153,2.33180692 18.9163971,3.34590164 18.3754171,4.2833224 C18.0418689,4.84229872 17.7355519,5.32673224 17.4558033,5.7369071 C17.1764335,6.14693989 16.9420546,6.44904189 16.7529035,6.64269217 C16.5634681,6.83653188 16.3925027,6.99182149 16.2389654,7.10912933 C16.0856648,7.22648452 15.9686412,7.27606922 15.8876102,7.25793078 C15.8063898,7.23979235 15.7299053,7.22179599 15.6574936,7.20379964 C15.531377,7.12262659 15.4299344,7.01223315 15.3534499,6.87252459 C15.2766339,6.73281603 15.224918,6.55697268 15.1978761,6.34513661 C15.1709763,6.13315847 15.1550638,5.95082696 15.1505173,5.79752641 C15.1463024,5.6444153 15.1482441,5.42784335 15.1573843,5.14842623 C15.1667614,4.86886703 15.1709763,4.67971585 15.1709763,4.58054645 C15.1709763,4.23795264 15.1776539,3.86613843 15.1910565,3.46500911 C15.2046958,3.06387978 15.2157304,2.74605464 15.2249654,2.51191257 C15.234153,2.2775337 15.2384153,2.02956284 15.2384153,1.76814208 C15.2384153,1.50672131 15.2225027,1.30170492 15.1910565,1.15290346 C15.1599891,1.00429144 15.1122987,0.86003643 15.0494536,0.720185792 C14.9862295,0.580477231 14.8936903,0.472404372 14.7722623,0.39568306 C14.6505974,0.319056466 14.4993333,0.258247723 14.3193224,0.213067395 C13.8415191,0.104947177 13.2331002,0.0464590164 12.4937814,0.0373661202 C10.8172313,0.0193697632 9.73995993,0.127632058 9.26220401,0.362010929 C9.07291075,0.461038251 8.90161384,0.596342441 8.74845537,0.767497268 C8.58615665,0.965883424 8.56351913,1.07414572 8.68068488,1.09195264 C9.22161749,1.17298361 9.60456102,1.36682332 9.82994171,1.67328233 L9.91116211,1.83567577 C9.9743388,1.95284153 10.0374208,2.16027322 10.1005501,2.4576867 C10.1635847,2.75510018 10.2042659,3.084102 10.2221676,3.44450273 C10.2671585,4.10264845 10.2671585,4.66602914 10.2221676,5.13469217 C10.1770346,5.60354463 10.1344117,5.96853916 10.0937304,6.22995993 C10.0530492,6.49138069 9.99224044,6.70321676 9.91116211,6.86542077 C9.82994171,7.02767213 9.77590528,7.12684153 9.74881603,7.16283424 C9.72177413,7.19882696 9.69923133,7.22151184 9.68132969,7.2304153 C9.56416393,7.27531148 9.44230965,7.29818579 9.31619308,7.29818579 C9.18988707,7.29818579 9.0367286,7.23500911 8.85648087,7.10875046 C8.67628051,6.9824918 8.48926047,6.80906375 8.29542077,6.58818215 C8.10158106,6.36725319 7.88297268,6.05852095 7.63950091,5.66193807 C7.39621858,5.26535519 7.14379599,4.79664481 6.88237523,4.25580692 L6.66608743,3.86358106 C6.53087796,3.61125319 6.34617851,3.24384335 6.11179964,2.76168306 C5.87727869,2.27933333 5.66998907,1.8127541 5.48978871,1.36204007 C5.41775592,1.17274681 5.30954098,1.02863388 5.16533333,0.929464481 L5.09765756,0.888783242 C5.05266667,0.852790528 4.98044444,0.814571949 4.88136976,0.773843352 C4.78215301,0.733162113 4.67862659,0.703989071 4.5703643,0.686040073 L0.865530055,0.712939891 C0.486943534,0.712939891 0.230069217,0.79870674 0.0948123862,0.970003643 L0.0406812386,1.05103461 C0.0136393443,1.09616758 0,1.16824772 0,1.26746448 C0,1.36663388 0.0270418944,1.48834608 0.0811730419,1.63245902 C0.622010929,2.90357013 1.21016029,4.12945355 1.84562113,5.31029872 C2.48108197,6.4911439 3.03328597,7.44234608 3.50190164,8.16305282 C3.97061202,8.88428051 4.44836794,9.56496903 4.9351694,10.2047869 C5.42197086,10.8448415 5.74420036,11.2550164 5.90185792,11.4352168 C6.05970492,11.6157486 6.18369035,11.7507213 6.27381421,11.8408452 L6.61190893,12.1653005 C6.82824408,12.3816831 7.14592714,12.6408306 7.56510018,12.9427432 C7.98436794,13.2448452 8.44853188,13.5422587 8.95782878,13.8354572 C9.4672204,14.1281821 10.0598215,14.3670601 10.7359636,14.5518069 C11.4120109,14.7367432 12.0700146,14.8109545 12.7100692,14.7751512 L14.2650492,14.7751512 C14.5804117,14.7479199 14.819337,14.6487505 14.9817304,14.4775956 L15.0355301,14.4098251 C15.0717122,14.3560255 15.1055738,14.2724372 15.1368306,14.1599599 C15.1684663,14.0472933 15.1841894,13.9231658 15.1841894,13.7881457 C15.1749545,13.4006084 15.204459,13.051337 15.271898,12.7403789 C15.3392896,12.4295155 15.4161056,12.1951366 15.5020146,12.0372896 C15.5878761,11.8795847 15.6847723,11.7465064 15.7926084,11.638623 C15.9006812,11.5305027 15.9776867,11.4650055 16.022867,11.4424627 C16.0677632,11.4197778 16.1036138,11.4043862 16.1306557,11.3951512 C16.3469909,11.323071 16.601592,11.392878 16.8948379,11.6049035 C17.187847,11.8167395 17.4626703,12.0783024 17.7197341,12.3891658 C17.9766557,12.7003133 18.2853406,13.0493953 18.6458361,13.4369326 C19.0065683,13.824612 19.3219781,14.1127905 19.5923024,14.3023679 L19.8626266,14.4646193 C20.0431585,14.5728816 20.2775373,14.672051 20.5660474,14.7621749 C20.8540364,14.8522689 21.1063643,14.8747942 21.323031,14.8297559 L24.7843461,14.7757668 C25.1267031,14.7757668 25.3930965,14.7190783 25.5820583,14.6066011 C25.7713989,14.4939344 25.8838761,14.3698069 25.920153,14.2347869 C25.9563352,14.0996248 25.9582769,13.9462769 25.92702,13.7748379 C25.8949581,13.6038251 25.8633698,13.4842441 25.8319235,13.416663 Z" id="Path" fill="#1269FF" opacity="1"></path>
                </g>
            </g>
        </g>
    </g>
</svg>