<?xml version="1.0" encoding="UTF-8"?>
<svg width="20px" height="18px" viewBox="0 0 20 18" version="1.1" xmlns="http://www.w3.org/2000/svg" xmlns:xlink="http://www.w3.org/1999/xlink">
    <title>Bottom/Icon Copy 23</title>
    <g id="Wallet" stroke="none" stroke-width="1" fill="none" fill-rule="evenodd">
        <g id="Home/Wallet/Transactions" transform="translate(-300.000000, -820.000000)">
            <g id="Group-8" transform="translate(268.000000, 788.000000)">
                <g id="Bottom/Icon-Copy-23" transform="translate(18.000000, 16.000000)">
                    <path d="M12.819426,-1.42475429e-15 L35.180574,5.17920154e-16 C39.6381677,-3.00926524e-16 41.2545989,0.464128056 42.8842285,1.33566352 C44.5138581,2.20719898 45.792801,3.48614185 46.6643365,5.11577148 C47.5358719,6.74540111 48,8.3618323 48,12.819426 L48,35.180574 C48,39.6381677 47.5358719,41.2545989 46.6643365,42.8842285 C45.792801,44.5138581 44.5138581,45.792801 42.8842285,46.6643365 C41.2545989,47.5358719 39.6381677,48 35.180574,48 L12.819426,48 C8.3618323,48 6.74540111,47.5358719 5.11577148,46.6643365 C3.48614185,45.792801 2.20719898,44.5138581 1.33566352,42.8842285 C0.464128056,41.2545989 7.27514433e-16,39.6381677 -1.25211424e-15,35.180574 L3.45280103e-16,12.819426 C-2.00617683e-16,8.3618323 0.464128056,6.74540111 1.33566352,5.11577148 C2.20719898,3.48614185 3.48614185,2.20719898 5.11577148,1.33566352 C6.74540111,0.464128056 8.3618323,8.27823274e-16 12.819426,-1.42475429e-15 Z" id="BG"></path>
                    <g id="Group" transform="translate(9.000000, 9.000000)" fill="#1269FF">
                        <g id="Heart" transform="translate(5.000000, 6.000000)">
                            <path d="M9.2,18.2 L9.4,18.2 C5.72366937,13.7859994 5.98285888,7.30626172 10,3.2 L9.5,2.7 C8.4786031,1.60427436 7.04795403,0.982051059 5.55,0.982051059 C4.05204597,0.982051059 2.6213969,1.60427436 1.6,2.7 C-0.483933749,4.95953105 -0.483933749,8.44046895 1.6,10.7 L9,18 L9.2,18.2 Z" id="Path"></path>
                            <path d="M18,2.3 C15.6935099,0.439989936 12.3465754,0.657323349 10.3,2.8 L10,3.2 C5.96766425,7.27348548 5.62381139,13.7207266 9.2,18.2 C9.62958152,18.6369427 10.3193562,18.6800536 10.8,18.3 L18.4,10.7 C19.4990968,9.55143046 20.0785756,8.00207048 20.0029601,6.41414476 C19.9273446,4.82621903 19.2032636,3.33893332 18,2.3 Z" id="Path" opacity="0.3"></path>
                        </g>
                    </g>
                </g>
            </g>
        </g>
    </g>
</svg>