<?xml version="1.0" encoding="UTF-8"?>
<svg width="21px" height="20px" viewBox="0 0 21 20" version="1.1" xmlns="http://www.w3.org/2000/svg" xmlns:xlink="http://www.w3.org/1999/xlink">
    <title>Bottom/Icon Copy 24</title>
    <g id="Wallet" stroke="none" stroke-width="1" fill="none" fill-rule="evenodd">
        <g id="Home/Wallet/Transactions" transform="translate(-299.000000, -926.000000)">
            <g id="Group-9" transform="translate(268.000000, 896.000000)">
                <g id="Bottom/Icon-Copy-24" transform="translate(18.000000, 16.000000)">
                    <path d="M12.819426,-1.42475429e-15 L35.180574,5.17920154e-16 C39.6381677,-3.00926524e-16 41.2545989,0.464128056 42.8842285,1.33566352 C44.5138581,2.20719898 45.792801,3.48614185 46.6643365,5.11577148 C47.5358719,6.74540111 48,8.3618323 48,12.819426 L48,35.180574 C48,39.6381677 47.5358719,41.2545989 46.6643365,42.8842285 C45.792801,44.5138581 44.5138581,45.792801 42.8842285,46.6643365 C41.2545989,47.5358719 39.6381677,48 35.180574,48 L12.819426,48 C8.3618323,48 6.74540111,47.5358719 5.11577148,46.6643365 C3.48614185,45.792801 2.20719898,44.5138581 1.33566352,42.8842285 C0.464128056,41.2545989 7.27514433e-16,39.6381677 -1.25211424e-15,35.180574 L3.45280103e-16,12.819426 C-2.00617683e-16,8.3618323 0.464128056,6.74540111 1.33566352,5.11577148 C2.20719898,3.48614185 3.48614185,2.20719898 5.11577148,1.33566352 C6.74540111,0.464128056 8.3618323,8.27823274e-16 12.819426,-1.42475429e-15 Z" id="BG"></path>
                    <g id="Group" transform="translate(9.000000, 9.000000)" fill="#1269FF">
                        <g id="Airplane" transform="translate(4.000000, 5.000000)">
                            <path d="M21,-7.81597009e-14 L21,17.6 C20.9834569,17.9088449 20.8249354,18.1926547 20.5706415,18.3687044 C20.3163476,18.544754 19.994902,18.593229 19.7,18.5 L19.7,18.5 L12,15.7 L21,-7.81597009e-14 Z M21,-3.90798505e-14 L7,14 L1.5,12.6 C1.1189423,12.5000562 0.832069573,12.1857021 0.767305188,11.7971158 C0.702540803,11.4085295 0.87195423,11.0181278 1.2,10.8 L1.2,10.8 L21,-3.90798505e-14 Z" id="Combined-Shape" opacity="0.3"></path>
                            <path d="M7,14 L8.3,18.7 C8.3851164,19.1299973 8.74034928,19.4544392 9.17628139,19.5003268 C9.61221351,19.5462144 10.0272155,19.3028498 10.2,18.9 L12,15.7 L21,0 L7,14 Z" id="Path"></path>
                        </g>
                    </g>
                </g>
            </g>
        </g>
    </g>
</svg>