<?xml version="1.0" encoding="UTF-8"?>
<svg width="30px" height="30px" viewBox="0 0 30 30" version="1.1" xmlns="http://www.w3.org/2000/svg" xmlns:xlink="http://www.w3.org/1999/xlink">
    <title>Icon/Wallet Copy</title>
    <g id="Icon/Wallet-Copy" stroke="none" stroke-width="1" fill="none" fill-rule="evenodd">
        <g id="Wallet" transform="translate(4.000000, 6.000000)">
            <path d="M0,3 C0,1.34315 1.34315,0 3,0 L19,0 C20.6569,0 22,1.34315 22,3 L22,15 C22,16.6569 20.6569,18 19,18 L3,18 C1.34315,18 0,16.6569 0,15 L0,3 Z" id="Path" fill="#1269FF" opacity="0.3"></path>
            <path d="M15.125,5 L20.625,5 C21.3844125,5 22,5.59696 22,6.33333333 L22,11.6666667 C22,12.4030667 21.3844125,13 20.625,13 L15.125,13 C12.8467625,13 11,11.2092 11,9 C11,6.7908 12.8467625,5 15.125,5 Z M15.125,10.3333333 C15.8844125,10.3333333 16.5,9.7364 16.5,9 C16.5,8.2636 15.8844125,7.66666667 15.125,7.66666667 C14.3655875,7.66666667 13.75,8.2636 13.75,9 C13.75,9.7364 14.3655875,10.3333333 15.125,10.3333333 Z" id="Shape" fill="#0659FD"></path>
        </g>
    </g>
</svg>