<?xml version="1.0" encoding="UTF-8"?>
<svg width="22px" height="18px" viewBox="0 0 22 18" version="1.1" xmlns="http://www.w3.org/2000/svg" xmlns:xlink="http://www.w3.org/1999/xlink">
    <title>Bottom/Icon Copy 16</title>
    <defs>
        <radialGradient cx="55.9341948%" cy="-36.7017717%" fx="55.9341948%" fy="-36.7017717%" r="137.606437%" gradientTransform="translate(0.559342,-0.367018),scale(0.818182,1.000000),rotate(96.573558),scale(1.000000,2.196601),translate(-0.559342,0.367018)" id="radialGradient-1">
            <stop stop-color="#FFEB99" offset="0%"></stop>
            <stop stop-color="#FF9632" offset="100%"></stop>
        </radialGradient>
        <radialGradient cx="50%" cy="0%" fx="50%" fy="0%" r="116.113429%" gradientTransform="translate(0.500000,0.000000),scale(0.727273,1.000000),rotate(93.699258),scale(1.000000,3.127546),translate(-0.500000,-0.000000)" id="radialGradient-2">
            <stop stop-color="#5E5E5E" offset="0%"></stop>
            <stop stop-color="#161514" offset="100%"></stop>
            <stop stop-color="#161514" offset="100%"></stop>
        </radialGradient>
    </defs>
    <g id="Symbols" stroke="none" stroke-width="1" fill="none" fill-rule="evenodd">
        <g id="Menu/InvestPlatform" transform="translate(-30.000000, -611.000000)">
            <g id="Bottom/Icon-Copy-16" transform="translate(17.000000, 596.000000)">
                <path d="M12.819426,-1.42475429e-15 L35.180574,5.17920154e-16 C39.6381677,-3.00926524e-16 41.2545989,0.464128056 42.8842285,1.33566352 C44.5138581,2.20719898 45.792801,3.48614185 46.6643365,5.11577148 C47.5358719,6.74540111 48,8.3618323 48,12.819426 L48,35.180574 C48,39.6381677 47.5358719,41.2545989 46.6643365,42.8842285 C45.792801,44.5138581 44.5138581,45.792801 42.8842285,46.6643365 C41.2545989,47.5358719 39.6381677,48 35.180574,48 L12.819426,48 C8.3618323,48 6.74540111,47.5358719 5.11577148,46.6643365 C3.48614185,45.792801 2.20719898,44.5138581 1.33566352,42.8842285 C0.464128056,41.2545989 7.27514433e-16,39.6381677 -1.25211424e-15,35.180574 L3.45280103e-16,12.819426 C-2.00617683e-16,8.3618323 0.464128056,6.74540111 1.33566352,5.11577148 C2.20719898,3.48614185 3.48614185,2.20719898 5.11577148,1.33566352 C6.74540111,0.464128056 8.3618323,8.27823274e-16 12.819426,-1.42475429e-15 Z" id="BG"></path>
                <g id="Group" transform="translate(9.000000, 9.000000)">
                    <g id="Wallet" transform="translate(4.000000, 6.000000)">
                        <path d="M0,3 C0,1.34315 1.34315,0 3,0 L19,0 C20.6569,0 22,1.34315 22,3 L22,15 C22,16.6569 20.6569,18 19,18 L3,18 C1.34315,18 0,16.6569 0,15 L0,3 Z" id="Path" fill="url(#radialGradient-1)"></path>
                        <path d="M15.125,5 L20.625,5 C21.3844125,5 22,5.59696 22,6.33333333 L22,11.6666667 C22,12.4030667 21.3844125,13 20.625,13 L15.125,13 C12.8467625,13 11,11.2092 11,9 C11,6.7908 12.8467625,5 15.125,5 Z M15.125,10.3333333 C15.8844125,10.3333333 16.5,9.7364 16.5,9 C16.5,8.2636 15.8844125,7.66666667 15.125,7.66666667 C14.3655875,7.66666667 13.75,8.2636 13.75,9 C13.75,9.7364 14.3655875,10.3333333 15.125,10.3333333 Z" id="Shape" fill="url(#radialGradient-2)"></path>
                    </g>
                </g>
            </g>
        </g>
    </g>
</svg>