<?xml version="1.0" encoding="UTF-8"?>
<svg width="26px" height="26px" viewBox="0 0 26 26" version="1.1" xmlns="http://www.w3.org/2000/svg" xmlns:xlink="http://www.w3.org/1999/xlink">
    <title>Group 4</title>
    <defs>
        <filter id="filter-1">
            <feColorMatrix in="SourceGraphic" type="matrix" values="0 0 0 0 0.070588 0 0 0 0 0.411765 0 0 0 0 1.000000 0 0 0 1.000000 0"></feColorMatrix>
        </filter>
    </defs>
    <g id="Local-HUB-(FB)" stroke="none" stroke-width="1" fill="none" fill-rule="evenodd">
        <g id="Home/Local-Hub/PopUp-windows" transform="translate(-1254.000000, -1076.000000)">
            <g id="Group-4" transform="translate(1190.000000, 1013.000000)" fill="#1269FF">
                <g transform="translate(64.000000, 63.000000)">
                    <path d="M7.148375,21.87575 L7.5391875,22.108125 C9.1845,23.0839375 11.0695,23.599875 12.9910625,23.6006875 L12.9959375,23.6006875 C18.8995625,23.6006875 23.7055,18.796375 23.7079375,12.8919375 C23.70875,10.031125 22.595625,7.340125 20.5733125,5.3161875 C18.551,3.29225 15.8608125,2.1766875 13,2.175875 C7.0915,2.175875 2.286375,6.979375 2.2839375,12.8838125 C2.283125,14.9069375 2.8494375,16.87725 3.9219375,18.5826875 L4.17625,18.9873125 L3.094,22.9393125 L7.148375,21.87575 Z M4.47419879e-14,26 L1.828125,19.3236875 C0.700375,17.369625 0.10725,15.153125 0.1080625,12.883 C0.1105,5.7793125 5.89225,-2.30926389e-14 12.9959375,-2.30926389e-14 C16.443375,0.0008125 19.6795625,1.3430625 22.1121875,3.778125 C24.545625,6.2131875 25.884625,9.4501875 25.8838125,12.89275 C25.8805625,19.9964375 20.0988125,25.7765625 12.9959375,25.7765625 L12.9959375,25.7765625 L12.99025,25.7765625 C10.833875,25.77575 8.7140625,25.234625 6.8315,24.2084375 L4.47419879e-14,26 Z" id="Fill-54" fill="#1269FF"></path>
                    <path d="M9.7747,7.4969375 C9.513075,6.868875 9.2482,6.9541875 9.04995,6.9444375 C8.8622625,6.9346875 8.6477625,6.9330625 8.4332625,6.9330625 C8.21795,6.9330625 7.8693875,7.0135 7.57445,7.3360625 C7.2795125,7.6578125 6.4475125,8.437 6.4475125,10.021375 C6.4475125,11.60575 7.6012625,13.1365 7.7621375,13.3518125 C7.9230125,13.5663125 10.033075,16.8179375 13.2627625,18.2121875 C14.0313875,18.5436875 14.6310125,18.7419375 15.0990125,18.890625 C15.870075,19.1351875 16.572075,19.1010625 17.1270125,19.0181875 C17.7461375,18.9255625 19.032325,18.239 19.30045,17.4874375 C19.5693875,16.7350625 19.5693875,16.09075 19.48895,15.9566875 C19.4085125,15.822625 19.1932,15.741375 18.87145,15.5805 C18.5497,15.419625 16.9661375,14.6404375 16.6712,14.5331875 C16.37545,14.4259375 16.16095,14.3723125 15.94645,14.6940625 C15.73195,15.016625 15.11445,15.741375 14.9267625,15.9566875 C14.739075,16.1711875 14.5513875,16.198 14.228825,16.037125 C13.907075,15.87625 12.8695125,15.5358125 11.6393875,14.4389375 C10.6822625,13.5858125 10.036325,12.5311875 9.847825,12.2094375 C9.6601375,11.886875 9.828325,11.713 9.9892,11.552125 C10.133825,11.4083125 10.3117625,11.1759375 10.4726375,10.98825 C10.6335125,10.8005625 10.6871375,10.6656875 10.7943875,10.4511875 C10.9016375,10.235875 10.8480125,10.0481875 10.767575,9.8873125 C10.6871375,9.725625 10.042825,8.14125 9.7747,7.4969375" id="Fill-55" fill="#1269FF"></path>
                </g>
            </g>
        </g>
    </g>
</svg>