<?xml version="1.0" encoding="UTF-8"?>
<svg width="30px" height="30px" viewBox="0 0 30 30" version="1.1" xmlns="http://www.w3.org/2000/svg" xmlns:xlink="http://www.w3.org/1999/xlink">
    <title>work_icon</title>
    <g id="work_icon" stroke="none" stroke-width="1" fill="none" fill-rule="evenodd">
        <g id="Tie" transform="translate(9.000000, 3.000000)">
            <path d="M14.7858,12.3929 L6.9724,8.48619 C6.5903,8.29515 6.1601,8.64025 6.2637,9.05467 L6.9443,11.7769 C6.9797,11.9185 7.0752,12.0376 7.2057,12.1029 L13.3858,15.1929 C14.2378,15.6189 15.2695,15.1915 15.5708,14.2879 C15.8171,13.5489 15.4825,12.7413 14.7858,12.3929 Z" id="Path" fill="#A7B4CB" opacity="0.6"></path>
            <path d="M2.83053,6.79047 C2.92933,6.3294 3.33679,6 3.80833,6 L6.1915,6 C6.663,6 7.0705,6.3294 7.1693,6.79047 L9.8704,19.3957 C9.9498,19.766 9.8131,20.1495 9.5173,20.3861 L5.62461,23.5002 C5.25939,23.7924 4.74044,23.7924 4.37522,23.5002 L0.48252,20.3861 C0.18674,20.1495 0.05004,19.766 0.12941,19.3957 L2.83053,6.79047 Z" id="Path" fill="#16161F"></path>
            <path d="M1.72349,0.552786 C1.89288,0.214002 2.23915,0 2.61792,0 L7.3819,0 C7.7606,0 8.1069,0.214002 8.2763,0.552786 L8.7763,1.55279 C8.917,1.83431 8.917,2.16569 8.7763,2.44721 L7.2763,5.44721 C7.1069,5.786 6.7606,6 6.3819,6 L3.61792,6 C3.23915,6 2.89288,5.786 2.72349,5.44721 L1.22349,2.44721 C1.08273,2.16569 1.08273,1.83431 1.22349,1.55279 L1.72349,0.552786 Z" id="Path" fill="#A7B4CB" opacity="0.6"></path>
        </g>
    </g>
</svg>