<?xml version="1.0" encoding="utf-8"?>
<!-- Generator: Adobe Illustrator 21.0.0, SVG Export Plug-In . SVG Version: 6.00 Build 0)  -->
<svg version="1.1" id="Layer_1" xmlns="http://www.w3.org/2000/svg" xmlns:xlink="http://www.w3.org/1999/xlink" x="0px" y="0px"
	 viewBox="0 0 23 20" style="enable-background:new 0 0 23 20;" xml:space="preserve">
<style type="text/css">
	.st0{fill:#FFFFFF;}
	.st1{fill:#1E1F20;}
</style>
<g>
	<path id="path-1" class="st0" d="M13.5,5.7h-1.6v5.4l4.6,2.8l0.8-1.3l-3.8-2.3V5.7 M13,0.3c-5.4,0-9.7,4.4-9.7,9.7H0l4.3,4.4
		L8.7,10H5.4c0-4.2,3.4-7.6,7.6-7.6s7.6,3.4,7.6,7.6s-3.4,7.6-7.6,7.6c-2.1,0-4-0.9-5.3-2.2l-1.5,1.5c1.8,1.8,4.2,2.9,6.9,2.9
		c5.4,0,9.7-4.4,9.7-9.7S18.4,0.3,13,0.3"/>
</g>
<title>Icon</title>
<g id="Selected">
	<g id="Artboard" transform="translate(-12.000000, -12.000000)">
		<g id="Icon" transform="translate(12.000000, 11.000000)">
			<g id="Shape">
				<path id="path-1_1_" class="st1" d="M13.5,6.7h-1.6v5.4l4.6,2.8l0.8-1.3l-3.8-2.3V6.7 M13,1.3c-5.4,0-9.7,4.4-9.7,9.7H0l4.3,4.4
					L8.7,11H5.4c0-4.2,3.4-7.6,7.6-7.6s7.6,3.4,7.6,7.6s-3.4,7.6-7.6,7.6c-2.1,0-4-0.9-5.3-2.2l-1.5,1.5c1.8,1.8,4.2,2.9,6.9,2.9
					c5.4,0,9.7-4.4,9.7-9.7S18.4,1.3,13,1.3"/>
			</g>
		</g>
	</g>
</g>
</svg>
