<?xml version="1.0" encoding="UTF-8"?>
<svg width="23px" height="20px" viewBox="0 0 23 20" version="1.1" xmlns="http://www.w3.org/2000/svg" xmlns:xlink="http://www.w3.org/1999/xlink">
    <title>Icon</title>
    <defs>
        <path d="M13.5338346,6.67669173 L11.9097744,6.67669173 L11.9097744,12.0902256 L16.5437594,14.8403008 L17.3233083,13.5302256 L13.5338346,11.2781955 L13.5338346,6.67669173 M12.9924812,1.26315789 C7.61081928,1.26315789 3.2481203,5.62585687 3.2481203,11.0075188 L0,11.0075188 L4.2875188,15.3708271 L8.66165414,11.0075188 L5.41353383,11.0075188 C5.41353383,6.82178175 8.80674415,3.42857143 12.9924812,3.42857143 C17.1782183,3.42857143 20.5714286,6.82178175 20.5714286,11.0075188 C20.5714286,15.1932558 17.1782183,18.5864662 12.9924812,18.5864662 C10.9028571,18.5864662 9.0081203,17.7311278 7.64390977,16.3560902 L6.10646617,17.8935338 C7.8712782,19.6691729 10.2857143,20.7518797 12.9924812,20.7518797 C18.3741431,20.7518797 22.7368421,16.3891807 22.7368421,11.0075188 C22.7368421,5.62585687 18.3741431,1.26315789 12.9924812,1.26315789" id="path-1"></path>
    </defs>
    <g id="Selected" stroke="none" stroke-width="1" fill="none" fill-rule="evenodd">
        <g id="Artboard" transform="translate(-12.000000, -12.000000)">
            <g id="Icon" transform="translate(12.000000, 11.000000)">
                <mask id="mask-2" fill="white">
                    <use xlink:href="#path-1"></use>
                </mask>
                <use id="Shape" fill="#FFFFFF" xlink:href="#path-1"></use>
            </g>
        </g>
    </g>
</svg>