<?xml version="1.0" encoding="UTF-8"?>
<svg width="18px" height="22px" viewBox="0 0 18 22" version="1.1" xmlns="http://www.w3.org/2000/svg" xmlns:xlink="http://www.w3.org/1999/xlink">
    <title>affiliates</title>
    <g id="Local-HUB-(FB)" stroke="none" stroke-width="1" fill="none" fill-rule="evenodd">
        <g id="Home/Local-Hub/Settings-–-Affiliates" transform="translate(-330.000000, -226.000000)">
            <g id="Bottom/Icon" transform="translate(315.000000, 213.000000)">
                <g id="Group" transform="translate(9.000000, 9.000000)">
                    <g id="Flip-Chart" transform="translate(6.000000, 4.000000)">
                        <path d="M5.8944,19.4472 C6.14139,18.9532 5.94117,18.3525 5.44719,18.1055 C4.95321,17.8586 4.35254,18.0588 4.10555,18.5528 L3.10555,20.5528 C2.85856,21.0467 3.05878,21.6474 3.55276,21.8944 C4.04674,22.1414 4.64741,21.9412 4.8944,21.4472 L5.8944,19.4472 Z" id="Path" fill="#0659FD"></path>
                        <path d="M12.1056,19.4472 C11.8586,18.9532 12.0588,18.3525 12.5528,18.1055 C13.0468,17.8586 13.6475,18.0588 13.8945,18.5528 L14.8945,20.5528 C15.1414,21.0467 14.9412,21.6474 14.4472,21.8944 C13.9533,22.1414 13.3526,21.9412 13.1056,21.4472 L12.1056,19.4472 Z" id="Path" fill="#0659FD"></path>
                        <path d="M8,1 C8,0.44772 8.4477,0 9,0 C9.5523,0 10,0.44772 10,1 L10,2 L15,2 C16.6569,2 18,3.34315 18,5 L18,13 C18,14.6569 16.6569,16 15,16 L3,16 C1.34315,16 0,14.6569 0,13 L0,5 C0,3.34315 1.34315,2 3,2 L8,2 L8,1 Z" id="Path" fill="#0659FD" opacity="0.3"></path>
                        <path d="M14.6247,5.21917 C15.056,5.56418 15.1259,6.19347 14.7809,6.62473 L10.7809,11.6247 C10.4568,12.0298 9.8769,12.1198 9.4453,11.8321 L7.1274,10.2868 L4.70711,12.7071 C4.31658,13.0977 3.68342,13.0977 3.29289,12.7071 C2.90237,12.3166 2.90237,11.6835 3.29289,11.2929 L6.29289,8.29293 C6.62996,7.95587 7.1581,7.90357 7.5547,8.16799 L9.7919,9.6594 L13.2191,5.37534 C13.5641,4.94408 14.1934,4.87416 14.6247,5.21917 Z" id="Path" fill="#0659FD"></path>
                    </g>
                </g>
            </g>
        </g>
    </g>
</svg>