<?xml version="1.0" encoding="UTF-8"?>
<svg width="20px" height="20px" viewBox="0 0 20 20" version="1.1" xmlns="http://www.w3.org/2000/svg" xmlns:xlink="http://www.w3.org/1999/xlink">
    <title>bag</title>
    <g id="Local-HUB-(FB)" stroke="none" stroke-width="1" fill="none" fill-rule="evenodd">
        <g id="Home/Local-Hub/Settings-–-Edit-Profile-Copy-3" transform="translate(-708.000000, -597.000000)">
            <g id="Group-3-Copy" transform="translate(317.000000, 367.000000)">
                <g id="Bottom/Icon-Copy-34" transform="translate(377.000000, 216.000000)">
                    <path d="M12.819426,-1.42475429e-15 L35.180574,5.17920154e-16 C39.6381677,-3.00926524e-16 41.2545989,0.464128056 42.8842285,1.33566352 C44.5138581,2.20719898 45.792801,3.48614185 46.6643365,5.11577148 C47.5358719,6.74540111 48,8.3618323 48,12.819426 L48,35.180574 C48,39.6381677 47.5358719,41.2545989 46.6643365,42.8842285 C45.792801,44.5138581 44.5138581,45.792801 42.8842285,46.6643365 C41.2545989,47.5358719 39.6381677,48 35.180574,48 L12.819426,48 C8.3618323,48 6.74540111,47.5358719 5.11577148,46.6643365 C3.48614185,45.792801 2.20719898,44.5138581 1.33566352,42.8842285 C0.464128056,41.2545989 7.27514433e-16,39.6381677 -1.25211424e-15,35.180574 L3.45280103e-16,12.819426 C-2.00617683e-16,8.3618323 0.464128056,6.74540111 1.33566352,5.11577148 C2.20719898,3.48614185 3.48614185,2.20719898 5.11577148,1.33566352 C6.74540111,0.464128056 8.3618323,8.27823274e-16 12.819426,-1.42475429e-15 Z" id="BG"></path>
                    <g id="Group" transform="translate(9.000000, 9.000000)">
                        <g id="Briefcase" transform="translate(5.000000, 5.000000)">
                            <path d="M0,8 C0,6.34315 1.34315,5 3,5 L17,5 C18.6569,5 20,6.34315 20,8 L20,17 C20,18.6569 18.6569,20 17,20 L3,20 C1.34315,20 0,18.6569 0,17 L0,8 Z" id="Path" fill="#A7B4CB" opacity="0.6"></path>
                            <path d="M7,2 C6.44772,2 6,2.44772 6,3 L6,6 C6,6.55228 5.55228,7 5,7 C4.44772,7 4,6.55228 4,6 L4,3 C4,1.34315 5.34315,0 7,0 L13,0 C14.6569,0 16,1.34315 16,3 L16,6 C16,6.55228 15.5523,7 15,7 C14.4477,7 14,6.55228 14,6 L14,3 C14,2.44772 13.5523,2 13,2 L7,2 Z" id="Path" fill="#16161F"></path>
                        </g>
                    </g>
                </g>
            </g>
        </g>
    </g>
</svg>