<?xml version="1.0" encoding="UTF-8"?>
<svg width="13px" height="23px" viewBox="0 0 13 23" version="1.1" xmlns="http://www.w3.org/2000/svg" xmlns:xlink="http://www.w3.org/1999/xlink">
    <title>Icon</title>
    <defs>
        <path d="M0.0526315789,15.1578947 L2.57894737,15.1578947 C2.57894737,16.5221053 4.30947368,17.6842105 6.36842105,17.6842105 C8.42736842,17.6842105 10.1578947,16.5221053 10.1578947,15.1578947 C10.1578947,13.7684211 8.84421053,13.2631579 6.06526316,12.5936842 C3.38736842,11.9242105 0.0526315789,11.0905263 0.0526315789,7.57894737 C0.0526315789,5.31789474 1.90947368,3.39789474 4.47368421,2.75368421 L4.47368421,0 L8.26315789,0 L8.26315789,2.75368421 C10.8273684,3.39789474 12.6842105,5.31789474 12.6842105,7.57894737 L10.1578947,7.57894737 C10.1578947,6.21473684 8.42736842,5.05263158 6.36842105,5.05263158 C4.30947368,5.05263158 2.57894737,6.21473684 2.57894737,7.57894737 C2.57894737,8.96842105 3.89263158,9.47368421 6.67157895,10.1431579 C9.34947368,10.8126316 12.6842105,11.6463158 12.6842105,15.1578947 C12.6842105,17.4189474 10.8273684,19.3389474 8.26315789,19.9831579 L8.26315789,22.7368421 L4.47368421,22.7368421 L4.47368421,19.9831579 C1.90947368,19.3389474 0.0526315789,17.4189474 0.0526315789,15.1578947 Z" id="path-1"></path>
    </defs>
    <g id="Selected" stroke="none" stroke-width="1" fill="none" fill-rule="evenodd">
        <g id="Artboard" transform="translate(-46.000000, -43.000000)">
            <g id="Icon" transform="translate(46.000000, 43.000000)">
                <mask id="mask-2" fill="white">
                    <use xlink:href="#path-1"></use>
                </mask>
                <use id="Shape" fill="#FFFFFF" xlink:href="#path-1"></use>
            </g>
        </g>
    </g>
</svg>