<?xml version="1.0" encoding="utf-8"?>
<!-- Generator: Adobe Illustrator 21.0.0, SVG Export Plug-In . SVG Version: 6.00 Build 0)  -->
<svg version="1.1" id="Layer_1" xmlns="http://www.w3.org/2000/svg" xmlns:xlink="http://www.w3.org/1999/xlink" x="0px" y="0px"
	 viewBox="0 0 13 23" style="enable-background:new 0 0 13 23;" xml:space="preserve">
<style type="text/css">
	.st0{fill:#FFFFFF;}
	.st1{fill:#1E1F20;}
</style>
<g>
	<path id="path-1" class="st0" d="M0.1,15.2h2.5c0,1.4,1.7,2.5,3.8,2.5s3.8-1.2,3.8-2.5c0-1.4-1.3-1.9-4.1-2.6c-2.7-0.7-6-1.5-6-5
		c0-2.3,1.9-4.2,4.4-4.8V0h3.8v2.8c2.6,0.6,4.4,2.6,4.4,4.8h-2.5c0-1.4-1.7-2.5-3.8-2.5S2.6,6.2,2.6,7.6c0,1.4,1.3,1.9,4.1,2.6
		c2.7,0.7,6,1.5,6,5c0,2.3-1.9,4.2-4.4,4.8v2.8H4.5V20C1.9,19.3,0.1,17.4,0.1,15.2z"/>
</g>
<title>Icon</title>
<g id="Selected">
	<g id="Artboard" transform="translate(-46.000000, -43.000000)">
		<g id="Icon" transform="translate(46.000000, 43.000000)">
			<g id="Shape">
				<path id="path-1_1_" class="st1" d="M0.1,15.2h2.5c0,1.4,1.7,2.5,3.8,2.5s3.8-1.2,3.8-2.5c0-1.4-1.3-1.9-4.1-2.6
					c-2.7-0.7-6-1.5-6-5c0-2.3,1.9-4.2,4.4-4.8V0h3.8v2.8c2.6,0.6,4.4,2.6,4.4,4.8h-2.5c0-1.4-1.7-2.5-3.8-2.5S2.6,6.2,2.6,7.6
					c0,1.4,1.3,1.9,4.1,2.6c2.7,0.7,6,1.5,6,5c0,2.3-1.9,4.2-4.4,4.8v2.8H4.5V20C1.9,19.3,0.1,17.4,0.1,15.2z"/>
			</g>
		</g>
	</g>
</g>
</svg>
