<?xml version="1.0" encoding="UTF-8"?>
<svg width="26px" height="26px" viewBox="0 0 26 26" version="1.1" xmlns="http://www.w3.org/2000/svg" xmlns:xlink="http://www.w3.org/1999/xlink">
    <title>Icon/Plus Square</title>
    <g id="Local-HUB-(FB)" stroke="none" stroke-width="1" fill="none" fill-rule="evenodd">
        <g id="Home/Local-Hub/Settings-–-Your-Information" transform="translate(-333.000000, -787.000000)">
            <g id="Bottom/Icon-Copy-34" transform="translate(317.000000, 771.000000)">
                <g id="Group" transform="translate(10.875000, 10.875000)">
                    <g id="Calendar" transform="translate(6.041667, 6.041667)">
                        <path d="M4.83333333,1.20833333 C4.83333333,0.540995 5.37432833,0 6.04166667,0 C6.709005,0 7.25,0.540995 7.25,1.20833333 L7.25,2.41666667 L16.9166667,2.41666667 L16.9166667,1.20833333 C16.9166667,0.540995 17.4576375,0 18.125,0 C18.7923625,0 19.3333333,0.540995 19.3333333,1.20833333 L19.3333333,2.41666667 L20.5416667,2.41666667 C22.5437542,2.41666667 24.1666667,4.03963958 24.1666667,6.04166667 L24.1666667,20.5416667 C24.1666667,22.5437542 22.5437542,24.1666667 20.5416667,24.1666667 L3.625,24.1666667 C1.62297292,24.1666667 0,22.5437542 0,20.5416667 L0,6.04166667 C0,4.03963958 1.62297292,2.41666667 3.625,2.41666667 L4.83333333,2.41666667 L4.83333333,1.20833333 Z" id="Path" fill="#0659FD" opacity="0.3"></path>
                        <path d="M9.66666667,12.0833333 C8.99932833,12.0833333 8.45833333,12.6243042 8.45833333,13.2916667 C8.45833333,13.9590292 8.99932833,14.5 9.66666667,14.5 L18.125,14.5 C18.7923625,14.5 19.3333333,13.9590292 19.3333333,13.2916667 C19.3333333,12.6243042 18.7923625,12.0833333 18.125,12.0833333 L9.66666667,12.0833333 Z M6.04166667,16.9166667 C5.37432833,16.9166667 4.83333333,17.4576375 4.83333333,18.125 C4.83333333,18.7923625 5.37432833,19.3333333 6.04166667,19.3333333 L13.2916667,19.3333333 C13.9590292,19.3333333 14.5,18.7923625 14.5,18.125 C14.5,17.4576375 13.9590292,16.9166667 13.2916667,16.9166667 L6.04166667,16.9166667 Z" id="Shape" fill="#0659FD"></path>
                    </g>
                </g>
            </g>
        </g>
    </g>
</svg>