<?xml version="1.0" encoding="UTF-8"?>
<svg width="20px" height="20px" viewBox="0 0 20 20" version="1.1" xmlns="http://www.w3.org/2000/svg" xmlns:xlink="http://www.w3.org/1999/xlink">
    <title>camera</title>
    <g id="Local-HUB-(FB)" stroke="none" stroke-width="1" fill="none" fill-rule="evenodd">
        <g id="Home/Local-Hub/Settings-–-Edit-Profile-Copy-3" transform="translate(-331.000000, -921.000000)">
            <g id="Group-3-Copy" transform="translate(317.000000, 367.000000)">
                <g id="Bottom/Icon-Copy-34" transform="translate(0.000000, 540.000000)">
                    <path d="M12.819426,-1.42475429e-15 L35.180574,5.17920154e-16 C39.6381677,-3.00926524e-16 41.2545989,0.464128056 42.8842285,1.33566352 C44.5138581,2.20719898 45.792801,3.48614185 46.6643365,5.11577148 C47.5358719,6.74540111 48,8.3618323 48,12.819426 L48,35.180574 C48,39.6381677 47.5358719,41.2545989 46.6643365,42.8842285 C45.792801,44.5138581 44.5138581,45.792801 42.8842285,46.6643365 C41.2545989,47.5358719 39.6381677,48 35.180574,48 L12.819426,48 C8.3618323,48 6.74540111,47.5358719 5.11577148,46.6643365 C3.48614185,45.792801 2.20719898,44.5138581 1.33566352,42.8842285 C0.464128056,41.2545989 7.27514433e-16,39.6381677 -1.25211424e-15,35.180574 L3.45280103e-16,12.819426 C-2.00617683e-16,8.3618323 0.464128056,6.74540111 1.33566352,5.11577148 C2.20719898,3.48614185 3.48614185,2.20719898 5.11577148,1.33566352 C6.74540111,0.464128056 8.3618323,8.27823274e-16 12.819426,-1.42475429e-15 Z" id="BG"></path>
                    <g id="Group" transform="translate(9.000000, 9.000000)">
                        <g id="Camera" transform="translate(5.000000, 5.000000)">
                            <path d="M0,6.34233 C0,4.96573 0.93689,3.76578 2.27239,3.4319 L4,3 L5.1094,1.3359 C5.6658,0.5013 6.60249,0 7.60555,0 L12.3944,0 C13.3975,0 14.3342,0.5013 14.8906,1.3359 L16,3 L17.7276,3.4319 C19.0631,3.76578 20,4.96573 20,6.34233 L20,17 C20,18.6569 18.6569,20 17,20 L3,20 C1.34315,20 0,18.6569 0,17 L0,6.34233 Z" id="Path" fill="#A7B4CB" opacity="0.6"></path>
                            <path d="M16,8 C16.5523,8 17,7.55228 17,7 C17,6.44772 16.5523,6 16,6 C15.4477,6 15,6.44772 15,7 C15,7.55228 15.4477,8 16,8 Z" id="Path" fill="#16161F"></path>
                            <path d="M14,11 C14,13.2091 12.2091,15 10,15 C7.79086,15 6,13.2091 6,11 C6,8.7909 7.79086,7 10,7 C12.2091,7 14,8.7909 14,11 Z M12,11 C12,12.1046 11.1046,13 10,13 C8.8954,13 8,12.1046 8,11 C8,9.8954 8.8954,9 10,9 C11.1046,9 12,9.8954 12,11 Z" id="Shape" fill="#16161F"></path>
                        </g>
                    </g>
                </g>
            </g>
        </g>
    </g>
</svg>