<?xml version="1.0" encoding="UTF-8"?>
<svg width="19px" height="23px" viewBox="0 0 19 23" version="1.1" xmlns="http://www.w3.org/2000/svg" xmlns:xlink="http://www.w3.org/1999/xlink">
    <title>edit-post</title>
    <g id="Local-HUB-(FB)" stroke="none" stroke-width="1" fill="none" fill-rule="evenodd">
        <g id="Home/Local-Hub/PopUp-windows" transform="translate(-84.000000, -744.000000)">
            <g id="Pop-up_Your-Post-Options" transform="translate(44.000000, 557.000000)">
                <g id="Bottom/Icon" transform="translate(25.000000, 174.000000)">
                    <path d="M12.819426,-1.42475429e-15 L35.180574,5.17920154e-16 C39.6381677,-3.00926524e-16 41.2545989,0.464128056 42.8842285,1.33566352 C44.5138581,2.20719898 45.792801,3.48614185 46.6643365,5.11577148 C47.5358719,6.74540111 48,8.3618323 48,12.819426 L48,35.180574 C48,39.6381677 47.5358719,41.2545989 46.6643365,42.8842285 C45.792801,44.5138581 44.5138581,45.792801 42.8842285,46.6643365 C41.2545989,47.5358719 39.6381677,48 35.180574,48 L12.819426,48 C8.3618323,48 6.74540111,47.5358719 5.11577148,46.6643365 C3.48614185,45.792801 2.20719898,44.5138581 1.33566352,42.8842285 C0.464128056,41.2545989 7.27514433e-16,39.6381677 -1.25211424e-15,35.180574 L3.45280103e-16,12.819426 C-2.00617683e-16,8.3618323 0.464128056,6.74540111 1.33566352,5.11577148 C2.20719898,3.48614185 3.48614185,2.20719898 5.11577148,1.33566352 C6.74540111,0.464128056 8.3618323,8.27823274e-16 12.819426,-1.42475429e-15 Z" id="BG"></path>
                    <g id="Group" transform="translate(9.000000, 9.000000)">
                        <g id="Edit" transform="translate(6.000000, 4.000000)">
                            <path d="M17,21 C17.5522847,21 18,21.4477153 18,22 C18,22.5522847 17.5522847,23 17,23 L1,23 C0.44771525,23 6.76353751e-17,22.5522847 0,22 C-6.76353751e-17,21.4477153 0.44771525,21 1,21 L17,21 Z M10.8787,1.70705 C12.0503,0.535476 13.9498,0.535476 15.1214,1.70705 L15.1214,1.70705 L17.2929,3.87862 C18.4645,5.0502 18.4645,6.94969 17.2929,8.12126 L17.2929,8.12126 L16.4142,8.99997 L10,2.58576 Z" id="Combined-Shape" fill="#A7B4CB" opacity="0.6"></path>
                            <path d="M1.08576,11.5 L7.5,17.9142 L7,18.4142 C6.62493,18.7893 6.11622,19 5.58579,19 L5.58579,19 L2,19 C0.89543,19 0,18.1045 0,17 L0,17 L0,13.4142 C0,12.8838 0.21071,12.375 0.58579,12 L0.58579,12 L1.08576,11.5 Z M8.5858,4 L15,10.4142 L8.9142,16.5 L2.5,10.0858 L8.5858,4 Z" id="Combined-Shape" fill="#16161F"></path>
                        </g>
                    </g>
                </g>
            </g>
        </g>
    </g>
</svg>