<?xml version="1.0" encoding="UTF-8"?>
<svg width="17px" height="24px" viewBox="0 0 17 24" version="1.1" xmlns="http://www.w3.org/2000/svg" xmlns:xlink="http://www.w3.org/1999/xlink">
    <title>flag3</title>
    <g id="Local-HUB-(FB)" stroke="none" stroke-width="1" fill="none" fill-rule="evenodd">
        <g id="Home/Local-Hub/Settings-–-Edit-Profile-Copy-3" transform="translate(-709.000000, -919.000000)">
            <g id="Group-3-Copy" transform="translate(317.000000, 367.000000)">
                <g id="Bottom/Icon-Copy-34" transform="translate(377.000000, 540.000000)">
                    <path d="M12.819426,-1.42475429e-15 L35.180574,5.17920154e-16 C39.6381677,-3.00926524e-16 41.2545989,0.464128056 42.8842285,1.33566352 C44.5138581,2.20719898 45.792801,3.48614185 46.6643365,5.11577148 C47.5358719,6.74540111 48,8.3618323 48,12.819426 L48,35.180574 C48,39.6381677 47.5358719,41.2545989 46.6643365,42.8842285 C45.792801,44.5138581 44.5138581,45.792801 42.8842285,46.6643365 C41.2545989,47.5358719 39.6381677,48 35.180574,48 L12.819426,48 C8.3618323,48 6.74540111,47.5358719 5.11577148,46.6643365 C3.48614185,45.792801 2.20719898,44.5138581 1.33566352,42.8842285 C0.464128056,41.2545989 7.27514433e-16,39.6381677 -1.25211424e-15,35.180574 L3.45280103e-16,12.819426 C-2.00617683e-16,8.3618323 0.464128056,6.74540111 1.33566352,5.11577148 C2.20719898,3.48614185 3.48614185,2.20719898 5.11577148,1.33566352 C6.74540111,0.464128056 8.3618323,8.27823274e-16 12.819426,-1.42475429e-15 Z" id="BG"></path>
                    <g id="Group" transform="translate(9.000000, 9.000000)">
                        <g id="Flag" transform="translate(6.000000, 3.000000)">
                            <path d="M0,1 C0,0.447716 0.44772,0 1,0 C1.55228,0 2,0.447715 2,1 L2,23 C2,23.5523 1.55228,24 1,24 C0.44772,24 0,23.5523 0,23 L0,1 Z" id="Path" fill="#A7B4CB" opacity="0.6"></path>
                            <path d="M8,5 C8,4.44772 8.4477,4 9,4 L15.382,4 C16.1253,4 16.6088,4.78231 16.2764,5.44721 L14.2236,9.55279 C14.0828,9.83431 14.0828,10.1657 14.2236,10.4472 L16.2764,14.5528 C16.6088,15.2177 16.1253,16 15.382,16 L10,16 C8.8954,16 8,15.1046 8,14 L8,5 Z" id="Path" fill="#A7B4CB" opacity="0.6"></path>
                            <path d="M2,2 L8,2 C9.1046,2 10,2.89543 10,4 L10,13 C10,13.5523 9.5523,14 9,14 L2,14 L2,2 Z" id="Path" fill="#16161F"></path>
                        </g>
                    </g>
                </g>
            </g>
        </g>
    </g>
</svg>