<?xml version="1.0" encoding="UTF-8"?>
<svg width="30px" height="30px" viewBox="0 0 30 30" version="1.1" xmlns="http://www.w3.org/2000/svg" xmlns:xlink="http://www.w3.org/1999/xlink">
    <title>!Icons/2. Icons/Friends </title>
    <g id="Symbols" stroke="none" stroke-width="1" fill="none" fill-rule="evenodd">
        <g id="!Icons/2.-Icons/Friends-">
            <g id="Group-2" transform="translate(12.000000, 3.000000)">
                <g id="User" transform="translate(0.347826, 0.739130)">
                    <path d="M12.173913,4.34782609 C12.173913,6.74906087 10.2273043,8.69565217 7.82608696,8.69565217 C5.42485217,8.69565217 3.47826087,6.74906087 3.47826087,4.34782609 C3.47826087,1.9465913 5.42485217,0 7.82608696,0 C10.2273043,0 12.173913,1.9465913 12.173913,4.34782609 Z" id="Path" fill="#0659FD"></path>
                    <path d="M13.7547826,11.4128696 C13.2187826,10.7913913 12.298087,10.8233913 11.5781739,11.2174783 C10.4641739,11.8272174 9.18565217,12.173913 7.82608696,12.173913 C6.46652174,12.173913 5.18798261,11.8272174 4.07395652,11.2174783 C3.35406087,10.8233913 2.4334,10.7913913 1.8973913,11.4128696 C0.714973913,12.7838261 0,14.5693043 0,16.5217391 L0,17.3913043 C0,18.3517391 0.778634783,19.1304348 1.73913043,19.1304348 L13.9130435,19.1304348 C14.8735652,19.1304348 15.6521739,18.3517391 15.6521739,17.3913043 L15.6521739,16.5217391 C15.6521739,14.5693043 14.9372174,12.7838261 13.7547826,11.4128696 Z" id="Path" fill="#0659FD" opacity="0.3"></path>
                </g>
            </g>
            <g id="Group-2-Copy" transform="translate(1.000000, 7.000000)">
                <g id="User" transform="translate(0.347826, 0.739130)">
                    <path d="M12.173913,4.34782609 C12.173913,6.74906087 10.2273043,8.69565217 7.82608696,8.69565217 C5.42485217,8.69565217 3.47826087,6.74906087 3.47826087,4.34782609 C3.47826087,1.9465913 5.42485217,0 7.82608696,0 C10.2273043,0 12.173913,1.9465913 12.173913,4.34782609 Z" id="Path" fill="#0659FD"></path>
                    <path d="M9.84871678,16.2608696 C8.99731758,15.2005639 9.14835675,12.3551349 9.04652645,12.0793097 C8.94469615,11.8034844 8.24124954,12.173913 7.82608696,12.173913 C6.46652174,12.173913 5.18798261,11.8272174 4.07395652,11.2174783 C3.35406087,10.8233913 2.4334,10.7913913 1.8973913,11.4128696 C0.714973913,12.7838261 0,14.5693043 0,16.5217391 L0,17.3913043 C0,18.3517391 0.778634783,19.1304348 1.73913043,19.1304348 L13.9130435,19.1304348 C14.8735652,19.1304348 15.6521739,18.2608696 15.6521739,17.3913043 C15.6521739,16.5217391 10.7156343,17.9150185 9.84871678,16.2608696 Z" id="Path" fill="#0659FD" opacity="0.3"></path>
                </g>
            </g>
        </g>
        <g id="!Icons/2.-Icons/Friends--2"></g>
    </g>
</svg>