<?xml version="1.0" encoding="UTF-8"?>
<svg width="33px" height="29px" viewBox="0 0 33 29" version="1.1" xmlns="http://www.w3.org/2000/svg" xmlns:xlink="http://www.w3.org/1999/xlink">
    <title>Bottom/Icon Copy 10</title>
    <g id="Local-HUB-(FB)" stroke="none" stroke-width="1" fill="none" fill-rule="evenodd">
        <g id="Home/Local-Hub/Settings-–-Your-Information" transform="translate(-329.000000, -446.000000)">
            <g id="Bottom/Icon-Copy-10" transform="translate(329.000000, 446.000000)">
                <path d="M28.5054348,5.64673913 C28.5054348,8.54823116 26.1532826,10.9003623 23.2518116,10.9003623 C20.3503196,10.9003623 17.9981884,8.54823116 17.9981884,5.64673913 C17.9981884,2.7452471 20.3503196,0.393115942 23.2518116,0.393115942 C26.1532826,0.393115942 28.5054348,2.7452471 28.5054348,5.64673913 Z" id="Path" fill="#0659FD"></path>
                <path d="M30.4156522,14.1836667 C29.7679855,13.4327138 28.6554783,13.4713804 27.7855833,13.9475688 C26.4395,14.684337 24.8946196,15.1032609 23.2518116,15.1032609 C21.6090036,15.1032609 20.0641022,14.684337 18.7179873,13.9475688 C17.8481134,13.4713804 16.7356482,13.4327138 16.087971,14.1836667 C14.6592167,15.8402391 13.7952899,17.997692 13.7952899,20.3568841 L13.7952899,21.4076087 C13.7952899,22.5681341 14.7361402,23.509058 15.8967391,23.509058 L30.6068841,23.509058 C31.7675145,23.509058 32.7083333,22.5681341 32.7083333,21.4076087 L32.7083333,20.3568841 C32.7083333,17.997692 31.8444275,15.8402391 30.4156522,14.1836667 Z" id="Path" fill="#0659FD" opacity="0.3"></path>
                <path d="M15.2137681,10.4800723 C15.2137681,13.3815643 12.8616159,15.7336955 9.96014493,15.7336955 C7.0586529,15.7336955 4.70652174,13.3815643 4.70652174,10.4800723 C4.70652174,7.57858019 7.0586529,5.226449 9.96014493,5.226449 C12.8616159,5.226449 15.2137681,7.57858019 15.2137681,10.4800723 Z" id="Path" fill="#0659FD"></path>
                <path d="M12.404156,24.8729237 C11.3753819,23.591721 11.5578876,20.1534943 11.4348426,19.8202054 C11.3117977,19.4869166 10.4617997,19.9345179 9.96014493,19.9345179 C8.31733696,19.9345179 6.77243551,19.5155939 5.42632065,18.7788258 C4.55644674,18.3026374 3.44398152,18.2639707 2.79630435,19.0149236 C1.36755,20.6714961 0.503623188,22.8289491 0.503623188,25.1881411 L0.503623188,26.2388658 C0.503623188,27.3993911 1.44447355,28.3403151 2.60507246,28.3403151 L17.3152174,28.3403151 C18.4758478,28.3403151 19.4166667,27.2895904 19.4166667,26.2388658 C19.4166667,25.1881411 13.4516812,26.871687 12.404156,24.8729237 Z" id="Path" fill="#0659FD" opacity="0.3"></path>
            </g>
        </g>
    </g>
</svg>