<?xml version="1.0" encoding="UTF-8"?>
<svg width="20px" height="20px" viewBox="0 0 20 20" version="1.1" xmlns="http://www.w3.org/2000/svg" xmlns:xlink="http://www.w3.org/1999/xlink">
    <title>gift </title>
    <g id="Local-HUB-(FB)" stroke="none" stroke-width="1" fill="none" fill-rule="evenodd">
        <g id="Home/Local-Hub/Settings-–-Edit-Profile-Copy-3" transform="translate(-331.000000, -489.000000)">
            <g id="Group-3-Copy" transform="translate(317.000000, 367.000000)">
                <g id="Bottom/Icon-Copy-34" transform="translate(0.000000, 108.000000)">
                    <path d="M12.819426,-1.42475429e-15 L35.180574,5.17920154e-16 C39.6381677,-3.00926524e-16 41.2545989,0.464128056 42.8842285,1.33566352 C44.5138581,2.20719898 45.792801,3.48614185 46.6643365,5.11577148 C47.5358719,6.74540111 48,8.3618323 48,12.819426 L48,35.180574 C48,39.6381677 47.5358719,41.2545989 46.6643365,42.8842285 C45.792801,44.5138581 44.5138581,45.792801 42.8842285,46.6643365 C41.2545989,47.5358719 39.6381677,48 35.180574,48 L12.819426,48 C8.3618323,48 6.74540111,47.5358719 5.11577148,46.6643365 C3.48614185,45.792801 2.20719898,44.5138581 1.33566352,42.8842285 C0.464128056,41.2545989 7.27514433e-16,39.6381677 -1.25211424e-15,35.180574 L3.45280103e-16,12.819426 C-2.00617683e-16,8.3618323 0.464128056,6.74540111 1.33566352,5.11577148 C2.20719898,3.48614185 3.48614185,2.20719898 5.11577148,1.33566352 C6.74540111,0.464128056 8.3618323,8.27823274e-16 12.819426,-1.42475429e-15 Z" id="BG"></path>
                    <g id="Group" transform="translate(9.000000, 9.000000)">
                        <g id="Gift" transform="translate(5.000000, 5.000000)">
                            <path d="M1,12 C1,11.4477 1.44772,11 2,11 L18,11 C18.5523,11 19,11.4477 19,12 L19,17 C19,18.6569 17.6569,20 16,20 L4,20 C2.34315,20 1,18.6569 1,17 L1,12 Z" id="Path" fill="#A7B4CB" opacity="0.6"></path>
                            <path d="M0,6 C0,4.89543 0.89543,4 2,4 L18,4 C19.1046,4 20,4.89543 20,6 L20,7 C20,8.1046 19.1046,9 18,9 L2,9 C0.89543,9 0,8.1046 0,7 L0,6 Z" id="Path" fill="#A7B4CB" opacity="0.6"></path>
                            <path d="M5,3 C5,4.65685 6.34315,6 8,6 L9,6 L9,8.5 C9,8.7761 9.2239,9 9.5,9 L10.5,9 C10.7761,9 11,8.7761 11,8.5 L11,6 L12,6 C13.6569,6 15,4.65685 15,3 C15,1.34315 13.6569,0 12,0 C11.2316,0 10.5308,0.28885 10,0.76389 C9.4692,0.28885 8.7684,0 8,0 C6.34315,0 5,1.34315 5,3 Z M8.5,4 C8.7761,4 9,3.77614 9,3.5 L9,3 C9,2.44772 8.5523,2 8,2 C7.44772,2 7,2.44772 7,3 C7,3.55228 7.44772,4 8,4 L8.5,4 Z M11.5,4 C11.2239,4 11,3.77614 11,3.5 L11,3 C11,2.44772 11.4477,2 12,2 C12.5523,2 13,2.44772 13,3 C13,3.55228 12.5523,4 12,4 L11.5,4 Z" id="Shape" fill="#16161F"></path>
                            <path d="M9,11.5 C9,11.2239 9.2239,11 9.5,11 L10.5,11 C10.7761,11 11,11.2239 11,11.5 L11,19.5 C11,19.7761 10.7761,20 10.5,20 L9.5,20 C9.2239,20 9,19.7761 9,19.5 L9,11.5 Z" id="Path" fill="#16161F"></path>
                        </g>
                    </g>
                </g>
            </g>
        </g>
    </g>
</svg>