<?xml version="1.0" encoding="UTF-8"?>
<svg width="22px" height="18px" viewBox="0 0 22 18" version="1.1" xmlns="http://www.w3.org/2000/svg" xmlns:xlink="http://www.w3.org/1999/xlink">
    <title>heart</title>
    <g id="Local-HUB-(FB)" stroke="none" stroke-width="1" fill="none" fill-rule="evenodd">
        <g id="Home/Local-Hub/Settings-–-Edit-Profile-Copy-3" transform="translate(-707.000000, -490.000000)">
            <g id="Group-3-Copy" transform="translate(317.000000, 367.000000)">
                <g id="Bottom/Icon-Copy-34" transform="translate(377.000000, 108.000000)">
                    <path d="M12.819426,-1.42475429e-15 L35.180574,5.17920154e-16 C39.6381677,-3.00926524e-16 41.2545989,0.464128056 42.8842285,1.33566352 C44.5138581,2.20719898 45.792801,3.48614185 46.6643365,5.11577148 C47.5358719,6.74540111 48,8.3618323 48,12.819426 L48,35.180574 C48,39.6381677 47.5358719,41.2545989 46.6643365,42.8842285 C45.792801,44.5138581 44.5138581,45.792801 42.8842285,46.6643365 C41.2545989,47.5358719 39.6381677,48 35.180574,48 L12.819426,48 C8.3618323,48 6.74540111,47.5358719 5.11577148,46.6643365 C3.48614185,45.792801 2.20719898,44.5138581 1.33566352,42.8842285 C0.464128056,41.2545989 7.27514433e-16,39.6381677 -1.25211424e-15,35.180574 L3.45280103e-16,12.819426 C-2.00617683e-16,8.3618323 0.464128056,6.74540111 1.33566352,5.11577148 C2.20719898,3.48614185 3.48614185,2.20719898 5.11577148,1.33566352 C6.74540111,0.464128056 8.3618323,8.27823274e-16 12.819426,-1.42475429e-15 Z" id="BG"></path>
                    <g id="Group" transform="translate(9.000000, 9.000000)">
                        <g id="Heart" transform="translate(4.000000, 6.000000)">
                            <path d="M11,1.80957 C9.8321,0.6888 8.24649,0 6.5,0 C2.91015,0 0,2.91015 0,6.5 C0,12.8683 6.97034,16.385 9.8138,17.5547 C10.5796,17.8697 11.4204,17.8697 12.1862,17.5547 C15.0297,16.385 22,12.8682 22,6.5 C22,2.91015 19.0899,0 15.5,0 C13.7535,0 12.1679,0.6888 11,1.80957 Z" id="Path" fill="#A7B4CB" opacity="0.6"></path>
                            <path d="M11,5.86061 L9.9229,4.9028 C9.2926,4.34226 8.44106,4 7.5,4 C5.567,4 4,5.45209 4,7.2433 C4,9.4009 5.6,11.0961 7.59852,12.3588 C8.56679,12.9706 9.546,13.4254 10.289,13.7279 C10.5668,13.841 10.8084,13.9316 11,14 C11.1916,13.9316 11.4332,13.841 11.711,13.7279 C12.454,13.4254 13.4332,12.9706 14.4015,12.3588 C16.4,11.0961 18,9.4009 18,7.2433 C18,5.45209 16.433,4 14.5,4 C13.5589,4 12.7074,4.34226 12.0771,4.9028 L11,5.86061 Z" id="Path" fill="#16161F"></path>
                        </g>
                    </g>
                </g>
            </g>
        </g>
    </g>
</svg>