<?xml version="1.0" encoding="UTF-8"?>
<svg width="23px" height="23px" viewBox="0 0 23 23" version="1.1" xmlns="http://www.w3.org/2000/svg" xmlns:xlink="http://www.w3.org/1999/xlink">
    <title>Icon</title>
    <defs>
        <path d="M20.2244211,15.2450526 C21.3044211,12.7781053 21.3044211,9.94736842 20.2244211,7.49178947 L17.1094737,8.90147368 C17.7915789,10.4703158 17.7915789,12.2551579 17.1208421,13.8353684 L20.2244211,15.2450526 L20.2244211,15.2450526 Z M15.2564211,2.51242105 C12.7894737,1.43242105 9.95873684,1.43242105 7.49178947,2.51242105 L8.90147368,5.616 C10.4816842,4.94526316 12.2665263,4.94526316 13.8467368,5.62736842 L15.2564211,2.51242105 L15.2564211,2.51242105 Z M2.51242105,7.48042105 C1.43242105,9.95873684 1.43242105,12.7781053 2.51242105,15.2564211 L5.62736842,13.8353684 C4.94526316,12.2665263 4.94526316,10.4703158 5.62736842,8.89010526 L2.51242105,7.48042105 L2.51242105,7.48042105 Z M7.49178947,20.2244211 C9.95873684,21.3044211 12.7894737,21.3044211 15.2564211,20.2130526 L13.8467368,17.1094737 C12.2778947,17.7915789 10.4816842,17.7915789 8.91284211,17.1208421 L7.49178947,20.2244211 L7.49178947,20.2244211 Z M11.3684211,0 C14.3835138,0 17.2751162,1.19774092 19.4071087,3.32973343 C21.5391012,5.46172595 22.7368421,8.35332833 22.7368421,11.3684211 C22.7368421,17.6470266 17.6470266,22.7368421 11.3684211,22.7368421 C8.35332833,22.7368421 5.46172595,21.5391012 3.32973343,19.4071087 C1.19774092,17.2751162 0,14.3835138 0,11.3684211 C0,8.35332833 1.19774092,5.46172595 3.32973343,3.32973343 C5.46172595,1.19774092 8.35332833,0 11.3684211,0 L11.3684211,0 Z M11.3684211,6.82105263 C8.85697882,6.82105263 6.82105263,8.85697882 6.82105263,11.3684211 C6.82105263,13.8798633 8.85697882,15.9157895 11.3684211,15.9157895 C13.8798633,15.9157895 15.9157895,13.8798633 15.9157895,11.3684211 C15.9157895,8.85697882 13.8798633,6.82105263 11.3684211,6.82105263 Z" id="path-1"></path>
    </defs>
    <g id="Page-1" stroke="none" stroke-width="1" fill="none" fill-rule="evenodd">
        <g id="Icon">
            <mask id="mask-2" fill="white">
                <use xlink:href="#path-1"></use>
            </mask>
            <use id="Shape" fill="#FFFFFF" xlink:href="#path-1"></use>
        </g>
    </g>
</svg>