<?xml version="1.0" encoding="UTF-8"?>
<svg width="20px" height="20px" viewBox="0 0 20 20" version="1.1" xmlns="http://www.w3.org/2000/svg" xmlns:xlink="http://www.w3.org/1999/xlink">
    <title>Help</title>
    <g id="Local-HUB-(FB)" stroke="none" stroke-width="1" fill="none" fill-rule="evenodd">
        <g id="Home/Local-Hub/PopUp-windows" transform="translate(-1230.000000, -891.000000)">
            <g id="My-account" transform="translate(1190.000000, 557.000000)">
                <g id="Bottom/Icon" transform="translate(25.000000, 319.000000)">
                    <path d="M12.819426,-1.42475429e-15 L35.180574,5.17920154e-16 C39.6381677,-3.00926524e-16 41.2545989,0.464128056 42.8842285,1.33566352 C44.5138581,2.20719898 45.792801,3.48614185 46.6643365,5.11577148 C47.5358719,6.74540111 48,8.3618323 48,12.819426 L48,35.180574 C48,39.6381677 47.5358719,41.2545989 46.6643365,42.8842285 C45.792801,44.5138581 44.5138581,45.792801 42.8842285,46.6643365 C41.2545989,47.5358719 39.6381677,48 35.180574,48 L12.819426,48 C8.3618323,48 6.74540111,47.5358719 5.11577148,46.6643365 C3.48614185,45.792801 2.20719898,44.5138581 1.33566352,42.8842285 C0.464128056,41.2545989 7.27514433e-16,39.6381677 -1.25211424e-15,35.180574 L3.45280103e-16,12.819426 C-2.00617683e-16,8.3618323 0.464128056,6.74540111 1.33566352,5.11577148 C2.20719898,3.48614185 3.48614185,2.20719898 5.11577148,1.33566352 C6.74540111,0.464128056 8.3618323,8.27823274e-16 12.819426,-1.42475429e-15 Z" id="BG"></path>
                    <g id="Group" transform="translate(9.000000, 9.000000)">
                        <g id="Chat" transform="translate(5.000000, 5.000000)">
                            <path d="M20,1 C20.2739149,0.967419673 20.5476433,1.06225189 20.7426957,1.25730429 C20.9377481,1.45235669 21.0325803,1.72608506 21,2 L21,2 L21,14.1 C21.0487761,14.5495871 20.789756,14.9759554 20.36828,15.1398628 C19.946804,15.3037701 19.4677815,15.1644183 19.2,14.8 L19.2,14.8 L17,12 L16,12 L16,7 C16.0325803,6.72608506 15.9377481,6.45235669 15.7426957,6.25730429 C15.5476433,6.06225189 15.2739149,5.96741967 15,6 L15,6 L6,6 L6,2 C5.96741967,1.72608506 6.06225189,1.45235669 6.25730429,1.25730429 C6.45235669,1.06225189 6.72608506,0.967419673 7,1 L7,1 Z M5,9 C5.55228475,9 6,9.44771525 6,10 C6,10.5522847 5.55228475,11 5,11 C4.44771525,11 4,10.5522847 4,10 C4,9.44771525 4.44771525,9 5,9 Z M9,9 C9.55228475,9 10,9.44771525 10,10 C10,10.5522847 9.55228475,11 9,11 C8.44771525,11 8,10.5522847 8,10 C8,9.44771525 8.44771525,9 9,9 Z" id="Combined-Shape" fill="#1269FF" opacity="0.3"></path>
                            <path d="M15,6 L2,6 C1.72608506,5.96741967 1.45235669,6.06225189 1.25730429,6.25730429 C1.06225189,6.45235669 0.967419673,6.72608506 1,7 L1,19.1 C0.951223857,19.5495871 1.21024404,19.9759554 1.63172004,20.1398628 C2.05319604,20.3037701 2.5322185,20.1644183 2.8,19.8 L5,17 L15,17 C15.2739149,17.0325803 15.5476433,16.9377481 15.7426957,16.7426957 C15.9377481,16.5476433 16.0325803,16.2739149 16,16 L16,7 C16.0325803,6.72608506 15.9377481,6.45235669 15.7426957,6.25730429 C15.5476433,6.06225189 15.2739149,5.96741967 15,6 Z M5,11 C4.44771525,11 4,10.5522847 4,10 C4,9.44771525 4.44771525,9 5,9 C5.55228475,9 6,9.44771525 6,10 C6,10.5522847 5.55228475,11 5,11 Z M9,11 C8.44771525,11 8,10.5522847 8,10 C8,9.44771525 8.44771525,9 9,9 C9.55228475,9 10,9.44771525 10,10 C10,10.5522847 9.55228475,11 9,11 Z" id="Shape" fill="#1269FF"></path>
                        </g>
                    </g>
                </g>
            </g>
        </g>
    </g>
</svg>