<?xml version="1.0" encoding="UTF-8"?>
<svg width="20px" height="20px" viewBox="0 0 20 20" version="1.1" xmlns="http://www.w3.org/2000/svg" xmlns:xlink="http://www.w3.org/1999/xlink">
    <title>home</title>
    <g id="Local-HUB-(FB)" stroke="none" stroke-width="1" fill="none" fill-rule="evenodd">
        <g id="Home/Local-Hub/Settings-–-Edit-Profile-Copy-3" transform="translate(-708.000000, -705.000000)">
            <g id="Group-3-Copy" transform="translate(317.000000, 367.000000)">
                <g id="Bottom/Icon-Copy-34" transform="translate(377.000000, 324.000000)">
                    <path d="M12.819426,-1.42475429e-15 L35.180574,5.17920154e-16 C39.6381677,-3.00926524e-16 41.2545989,0.464128056 42.8842285,1.33566352 C44.5138581,2.20719898 45.792801,3.48614185 46.6643365,5.11577148 C47.5358719,6.74540111 48,8.3618323 48,12.819426 L48,35.180574 C48,39.6381677 47.5358719,41.2545989 46.6643365,42.8842285 C45.792801,44.5138581 44.5138581,45.792801 42.8842285,46.6643365 C41.2545989,47.5358719 39.6381677,48 35.180574,48 L12.819426,48 C8.3618323,48 6.74540111,47.5358719 5.11577148,46.6643365 C3.48614185,45.792801 2.20719898,44.5138581 1.33566352,42.8842285 C0.464128056,41.2545989 7.27514433e-16,39.6381677 -1.25211424e-15,35.180574 L3.45280103e-16,12.819426 C-2.00617683e-16,8.3618323 0.464128056,6.74540111 1.33566352,5.11577148 C2.20719898,3.48614185 3.48614185,2.20719898 5.11577148,1.33566352 C6.74540111,0.464128056 8.3618323,8.27823274e-16 12.819426,-1.42475429e-15 Z" id="BG"></path>
                    <g id="Group" transform="translate(9.000000, 9.000000)">
                        <g id="Bank" transform="translate(5.000000, 5.000000)">
                            <path d="M2,8 L6,8 L6,15 L8,15 L8,8 L12,8 L12,15 L14,15 L14,8 L18,8 L18,15 C19.1046,15 20,15.8954 20,17 L20,18 C20,19.1046 19.1046,20 18,20 L2,20 C0.89543,20 0,19.1046 0,18 L0,17 C0,15.8954 0.89543,15 2,15 L2,8 Z" id="Path" fill="#A7B4CB" opacity="0.6"></path>
                            <path d="M0,5.35405 C0,4.53624 0.4979,3.80083 1.25722,3.4971 L9.2572,0.2971 C9.734,0.10637 10.266,0.10637 10.7428,0.2971 L18.7428,3.4971 C19.5021,3.80083 20,4.53624 20,5.35405 L20,5.99999 C20,7.10456 19.1046,7.99999 18,7.99999 L2,7.99999 C0.89543,7.99999 0,7.10456 0,5.99999 L0,5.35405 Z" id="Path" fill="#16161F"></path>
                        </g>
                    </g>
                </g>
            </g>
        </g>
    </g>
</svg>