<?xml version="1.0" encoding="UTF-8"?>
<svg width="26px" height="26px" viewBox="0 0 26 26" version="1.1" xmlns="http://www.w3.org/2000/svg" xmlns:xlink="http://www.w3.org/1999/xlink">
    <title>infoIcon</title>
    <g id="Local-HUB-(FB)" stroke="none" stroke-width="1" fill="none" fill-rule="evenodd">
        <g id="Home/Local-Hub/Settings-–-Your-Information" transform="translate(-333.000000, -379.000000)" fill="#1269FF">
            <g id="Bottom/Icon-Copy" transform="translate(317.000000, 363.000000)">
                <g id="Group" transform="translate(10.875000, 10.875000)">
                    <g id="Monitor" transform="translate(6.041667, 6.041667)">
                        <g id="Group" opacity="0.3">
                            <path d="M0,15.7083333 C0,17.7104208 1.62297292,19.3333333 3.625,19.3333333 L20.5416667,19.3333333 C22.5437542,19.3333333 24.1666667,17.7104208 24.1666667,15.7083333 L24.1666667,3.625 C24.1666667,1.62297292 22.5437542,0 20.5416667,0 L3.625,0 C1.62297292,0 0,1.62297292 0,3.625 L0,15.7083333 Z" id="Path"></path>
                            <path d="M7.25,21.75 C6.58266167,21.75 6.04166667,22.2909708 6.04166667,22.9583333 C6.04166667,23.6256958 6.58266167,24.1666667 7.25,24.1666667 L16.9166667,24.1666667 C17.5840292,24.1666667 18.125,23.6256958 18.125,22.9583333 C18.125,22.2909708 17.5840292,21.75 16.9166667,21.75 L7.25,21.75 Z" id="Path"></path>
                        </g>
                        <path d="M6.04166667,4.83333333 C5.37432833,4.83333333 4.83333333,5.37432833 4.83333333,6.04166667 C4.83333333,6.709005 5.37432833,7.25 6.04166667,7.25 L14.5,7.25 C15.1673625,7.25 15.7083333,6.709005 15.7083333,6.04166667 C15.7083333,5.37432833 15.1673625,4.83333333 14.5,4.83333333 L6.04166667,4.83333333 Z" id="Path"></path>
                        <path d="M6.04166667,9.66666667 C5.37432833,9.66666667 4.83333333,10.2076375 4.83333333,10.875 C4.83333333,11.5423625 5.37432833,12.0833333 6.04166667,12.0833333 L8.45833333,12.0833333 C9.12568375,12.0833333 9.66666667,11.5423625 9.66666667,10.875 C9.66666667,10.2076375 9.12568375,9.66666667 8.45833333,9.66666667 L6.04166667,9.66666667 Z" id="Path"></path>
                    </g>
                </g>
            </g>
        </g>
    </g>
</svg>