<?xml version="1.0" encoding="UTF-8"?>
<svg width="21px" height="21px" viewBox="0 0 21 21" version="1.1" xmlns="http://www.w3.org/2000/svg" xmlns:xlink="http://www.w3.org/1999/xlink">
    <title>Icon</title>
    <defs>
        <path d="M11.3684211,1.26315789 C14.1589124,1.26315789 16.4210526,3.52529811 16.4210526,6.31578947 C16.4210526,9.10628084 14.1589124,11.3684211 11.3684211,11.3684211 C8.57792969,11.3684211 6.31578947,9.10628084 6.31578947,6.31578947 C6.31578947,3.52529811 8.57792969,1.26315789 11.3684211,1.26315789 L11.3684211,1.26315789 Z M11.3684211,3.78947368 C9.97317537,3.78947368 8.84210526,4.92054379 8.84210526,6.31578947 C8.84210526,7.71103516 9.97317537,8.84210526 11.3684211,8.84210526 C12.7636667,8.84210526 13.8947368,7.71103516 13.8947368,6.31578947 C13.8947368,4.92054379 12.7636667,3.78947368 11.3684211,3.78947368 L11.3684211,3.78947368 Z M11.3684211,12.6315789 C14.7410526,12.6315789 21.4736842,14.3115789 21.4736842,17.6842105 L21.4736842,21.4736842 L1.26315789,21.4736842 L1.26315789,17.6842105 C1.26315789,14.3115789 7.99578947,12.6315789 11.3684211,12.6315789 L11.3684211,12.6315789 Z M11.3684211,15.0315789 C7.61684211,15.0315789 3.66315789,16.8757895 3.66315789,17.6842105 L3.66315789,19.0736842 L19.0736842,19.0736842 L19.0736842,17.6842105 C19.0736842,16.8757895 15.12,15.0315789 11.3684211,15.0315789 Z" id="path-1"></path>
    </defs>
    <g id="Selected" stroke="none" stroke-width="1" fill="none" fill-rule="evenodd">
        <g id="Artboard" transform="translate(-43.000000, -44.000000)">
            <g id="Icon" transform="translate(42.000000, 43.000000)">
                <mask id="mask-2" fill="white">
                    <use xlink:href="#path-1"></use>
                </mask>
                <use id="Shape" fill="#1E1F20" xlink:href="#path-1"></use>
            </g>
        </g>
    </g>
</svg>