<?xml version="1.0" encoding="utf-8"?>
<!-- Generator: Adobe Illustrator 21.0.0, SVG Export Plug-In . SVG Version: 6.00 Build 0)  -->
<svg version="1.1" id="Layer_1" xmlns="http://www.w3.org/2000/svg" xmlns:xlink="http://www.w3.org/1999/xlink" x="0px" y="0px"
	 viewBox="0 0 21 21" style="enable-background:new 0 0 21 21;" xml:space="preserve">
<style type="text/css">
	.st0{fill:#FFFFFF;}
</style>
<g>
	<path id="path-1" class="st0" d="M10.4,0.3c2.8,0,5.1,2.3,5.1,5.1s-2.3,5.1-5.1,5.1S5.3,8.1,5.3,5.3S7.6,0.3,10.4,0.3L10.4,0.3z
		 M10.4,2.8C9,2.8,7.8,3.9,7.8,5.3S9,7.8,10.4,7.8s2.5-1.1,2.5-2.5S11.8,2.8,10.4,2.8L10.4,2.8z M10.4,11.6c3.4,0,10.1,1.7,10.1,5.1
		v3.8H0.3v-3.8C0.3,13.3,7,11.6,10.4,11.6L10.4,11.6z M10.4,14c-3.8,0-7.7,1.8-7.7,2.7v1.4h15.4v-1.4C18.1,15.9,14.1,14,10.4,14z"/>
</g>
<title>Icon</title>
<g id="Selected">
	<g id="Artboard" transform="translate(-43.000000, -44.000000)">
		<g id="Icon" transform="translate(42.000000, 43.000000)">
			<g id="Shape">
				<path id="path-1_1_" class="st0" d="M11.4,1.3c2.8,0,5.1,2.3,5.1,5.1s-2.3,5.1-5.1,5.1S6.3,9.1,6.3,6.3S8.6,1.3,11.4,1.3
					L11.4,1.3z M11.4,3.8c-1.4,0-2.5,1.1-2.5,2.5s1.1,2.5,2.5,2.5s2.5-1.1,2.5-2.5S12.8,3.8,11.4,3.8L11.4,3.8z M11.4,12.6
					c3.4,0,10.1,1.7,10.1,5.1v3.8H1.3v-3.8C1.3,14.3,8,12.6,11.4,12.6L11.4,12.6z M11.4,15c-3.8,0-7.7,1.8-7.7,2.7v1.4h15.4v-1.4
					C19.1,16.9,15.1,15,11.4,15z"/>
			</g>
		</g>
	</g>
</g>
</svg>
