<?xml version="1.0" encoding="UTF-8"?>
<svg width="21px" height="24px" viewBox="0 0 21 24" version="1.1" xmlns="http://www.w3.org/2000/svg" xmlns:xlink="http://www.w3.org/1999/xlink">
    <title>Icon</title>
    <defs>
        <path d="M16.0421053,17.0526316 L5.81052632,17.0526316 L5.81052632,9.66315789 C5.81052632,6.82105263 8.08421053,4.54736842 10.9263158,4.54736842 C13.7684211,4.54736842 16.0421053,6.82105263 16.0421053,9.66315789 L16.0421053,17.0526316 Z M18.3157895,15.9157895 L18.3157895,9.66315789 C18.3157895,6.17305263 15.8829474,3.25136842 12.6315789,2.47831579 L12.6315789,1.70526316 C12.6315789,0.763472321 11.8681066,0 10.9263158,0 C9.98452495,0 9.22105263,0.763472321 9.22105263,1.70526316 L9.22105263,2.47831579 C5.95831579,3.25136842 3.53684211,6.17305263 3.53684211,9.66315789 L3.53684211,15.9157895 L1.26315789,18.1894737 L1.26315789,19.3263158 L20.5894737,19.3263158 L20.5894737,18.1894737 L18.3157895,15.9157895 Z M10.9263158,22.7368421 C12.1820369,22.7368421 13.2,21.718879 13.2,20.4631579 L8.65263158,20.4631579 C8.65263158,21.718879 9.67059467,22.7368421 10.9263158,22.7368421 Z" id="path-1"></path>
    </defs>
    <g id="Selected" stroke="none" stroke-width="1" fill="none" fill-rule="evenodd">
        <g id="01-Home-Settings" transform="translate(-1003.000000, -308.000000)">
            <g id="Right" transform="translate(925.000000, 0.000000)">
                <g id="Button" transform="translate(65.000000, 296.000000)">
                    <g id="Icon" transform="translate(12.631579, 12.631579)">
                        <mask id="mask-2" fill="white">
                            <use xlink:href="#path-1"></use>
                        </mask>
                        <use id="Shape" fill="#FFFFFF" xlink:href="#path-1"></use>
                    </g>
                </g>
            </g>
        </g>
    </g>
</svg>