<?xml version="1.0" encoding="UTF-8"?>
<svg width="18px" height="22px" viewBox="0 0 18 22" version="1.1" xmlns="http://www.w3.org/2000/svg" xmlns:xlink="http://www.w3.org/1999/xlink">
    <title>person</title>
    <g id="Local-HUB-(FB)" stroke="none" stroke-width="1" fill="none" fill-rule="evenodd">
        <g id="Home/Local-Hub/Settings-–-Edit-Profile-Copy-3" transform="translate(-332.000000, -596.000000)">
            <g id="Group-3-Copy" transform="translate(317.000000, 367.000000)">
                <g id="Bottom/Icon-Copy-34" transform="translate(0.000000, 216.000000)">
                    <path d="M12.819426,-1.42475429e-15 L35.180574,5.17920154e-16 C39.6381677,-3.00926524e-16 41.2545989,0.464128056 42.8842285,1.33566352 C44.5138581,2.20719898 45.792801,3.48614185 46.6643365,5.11577148 C47.5358719,6.74540111 48,8.3618323 48,12.819426 L48,35.180574 C48,39.6381677 47.5358719,41.2545989 46.6643365,42.8842285 C45.792801,44.5138581 44.5138581,45.792801 42.8842285,46.6643365 C41.2545989,47.5358719 39.6381677,48 35.180574,48 L12.819426,48 C8.3618323,48 6.74540111,47.5358719 5.11577148,46.6643365 C3.48614185,45.792801 2.20719898,44.5138581 1.33566352,42.8842285 C0.464128056,41.2545989 7.27514433e-16,39.6381677 -1.25211424e-15,35.180574 L3.45280103e-16,12.819426 C-2.00617683e-16,8.3618323 0.464128056,6.74540111 1.33566352,5.11577148 C2.20719898,3.48614185 3.48614185,2.20719898 5.11577148,1.33566352 C6.74540111,0.464128056 8.3618323,8.27823274e-16 12.819426,-1.42475429e-15 Z" id="BG"></path>
                    <g id="Group" transform="translate(9.000000, 9.000000)">
                        <g id="User" transform="translate(6.000000, 4.000000)">
                            <path d="M14,5 C14,7.76142 11.7614,10 9,10 C6.23858,10 4,7.76142 4,5 C4,2.23858 6.23858,0 9,0 C11.7614,0 14,2.23858 14,5 Z" id="Path" fill="#16161F"></path>
                            <path d="M15.818,13.1248 C15.2016,12.4101 14.1428,12.4469 13.3149,12.9001 C12.0338,13.6013 10.5635,14 9,14 C7.4365,14 5.96618,13.6013 4.68505,12.9001 C3.85717,12.4469 2.79841,12.4101 2.182,13.1248 C0.82222,14.7014 0,16.7547 0,19 L0,20 C0,21.1045 0.89543,22 2,22 L16,22 C17.1046,22 18,21.1045 18,20 L18,19 C18,16.7547 17.1778,14.7014 15.818,13.1248 Z" id="Path" fill="#A7B4CB" opacity="0.6"></path>
                        </g>
                    </g>
                </g>
            </g>
        </g>
    </g>
</svg>