<?xml version="1.0" encoding="UTF-8"?>
<svg width="18px" height="22px" viewBox="0 0 18 22" version="1.1" xmlns="http://www.w3.org/2000/svg" xmlns:xlink="http://www.w3.org/1999/xlink">
    <title>plus</title>
    <g id="Local-HUB-(FB)" stroke="none" stroke-width="1" fill="none" fill-rule="evenodd">
        <g id="Home/Local-Hub/Settings-–-Edit-Profile-Copy-3" transform="translate(-332.000000, -812.000000)">
            <g id="Group-3-Copy" transform="translate(317.000000, 367.000000)">
                <g id="Bottom/Icon-Copy-34" transform="translate(0.000000, 432.000000)">
                    <path d="M12.819426,-1.42475429e-15 L35.180574,5.17920154e-16 C39.6381677,-3.00926524e-16 41.2545989,0.464128056 42.8842285,1.33566352 C44.5138581,2.20719898 45.792801,3.48614185 46.6643365,5.11577148 C47.5358719,6.74540111 48,8.3618323 48,12.819426 L48,35.180574 C48,39.6381677 47.5358719,41.2545989 46.6643365,42.8842285 C45.792801,44.5138581 44.5138581,45.792801 42.8842285,46.6643365 C41.2545989,47.5358719 39.6381677,48 35.180574,48 L12.819426,48 C8.3618323,48 6.74540111,47.5358719 5.11577148,46.6643365 C3.48614185,45.792801 2.20719898,44.5138581 1.33566352,42.8842285 C0.464128056,41.2545989 7.27514433e-16,39.6381677 -1.25211424e-15,35.180574 L3.45280103e-16,12.819426 C-2.00617683e-16,8.3618323 0.464128056,6.74540111 1.33566352,5.11577148 C2.20719898,3.48614185 3.48614185,2.20719898 5.11577148,1.33566352 C6.74540111,0.464128056 8.3618323,8.27823274e-16 12.819426,-1.42475429e-15 Z" id="BG"></path>
                    <g id="Group" transform="translate(9.000000, 9.000000)">
                        <g id="File-Plus" transform="translate(6.000000, 4.000000)">
                            <path d="M0,3 C0,1.34315 1.34315,0 3,0 L12.7574,0 C13.553,0 14.3161,0.31607 14.8787,0.87868 L17.1213,3.12132 C17.6839,3.68393 18,4.44699 18,5.24264 L18,19 C18,20.6569 16.6569,22 15,22 L3,22 C1.34315,22 0,20.6569 0,19 L0,3 Z" id="Path" fill="#A7B4CB" opacity="0.6"></path>
                            <path d="M12,0.89181 C12,0.39927 12.3993,0 12.8918,0 L12.8918,0 C13.6014,0 14.2819,0.28187 14.7836,0.78361 L17.2164,3.21639 C17.7181,3.71813 18,4.39863 18,5.10819 L18,5.10819 C18,5.60073 17.6007,6 17.1082,6 L13,6 C12.4477,6 12,5.55228 12,5 L12,0.89181 Z" id="Path" fill="#16161F"></path>
                            <path d="M10,10 C10,9.4477 9.5523,9 9,9 C8.4477,9 8,9.4477 8,10 L8,12 L6,12 C5.44771,12 5,12.4477 5,13 C5,13.5523 5.44771,14 6,14 L8,14 L8,16 C8,16.5523 8.4477,17 9,17 C9.5523,17 10,16.5523 10,16 L10,14 L12,14 C12.5523,14 13,13.5523 13,13 C13,12.4477 12.5523,12 12,12 L10,12 L10,10 Z" id="Path" fill="#16161F"></path>
                        </g>
                    </g>
                </g>
            </g>
        </g>
    </g>
</svg>