<?xml version="1.0" encoding="UTF-8"?>
<svg width="20px" height="20px" viewBox="0 0 20 20" version="1.1" xmlns="http://www.w3.org/2000/svg" xmlns:xlink="http://www.w3.org/1999/xlink">
    <title>screen</title>
    <g id="Local-HUB-(FB)" stroke="none" stroke-width="1" fill="none" fill-rule="evenodd">
        <g id="Home/Local-Hub/Settings-–-Edit-Profile-Copy-3" transform="translate(-708.000000, -381.000000)">
            <g id="Group-3-Copy" transform="translate(317.000000, 367.000000)">
                <g id="Bottom/Icon-Copy-34" transform="translate(377.000000, 0.000000)">
                    <path d="M12.819426,-1.42475429e-15 L35.180574,5.17920154e-16 C39.6381677,-3.00926524e-16 41.2545989,0.464128056 42.8842285,1.33566352 C44.5138581,2.20719898 45.792801,3.48614185 46.6643365,5.11577148 C47.5358719,6.74540111 48,8.3618323 48,12.819426 L48,35.180574 C48,39.6381677 47.5358719,41.2545989 46.6643365,42.8842285 C45.792801,44.5138581 44.5138581,45.792801 42.8842285,46.6643365 C41.2545989,47.5358719 39.6381677,48 35.180574,48 L12.819426,48 C8.3618323,48 6.74540111,47.5358719 5.11577148,46.6643365 C3.48614185,45.792801 2.20719898,44.5138581 1.33566352,42.8842285 C0.464128056,41.2545989 7.27514433e-16,39.6381677 -1.25211424e-15,35.180574 L3.45280103e-16,12.819426 C-2.00617683e-16,8.3618323 0.464128056,6.74540111 1.33566352,5.11577148 C2.20719898,3.48614185 3.48614185,2.20719898 5.11577148,1.33566352 C6.74540111,0.464128056 8.3618323,8.27823274e-16 12.819426,-1.42475429e-15 Z" id="BG"></path>
                    <g id="Group" transform="translate(9.000000, 9.000000)">
                        <g id="Monitor" transform="translate(5.000000, 5.000000)">
                            <g id="Group" fill="#A7B4CB" opacity="0.6">
                                <path d="M0,13 C0,14.6569 1.34315,16 3,16 L17,16 C18.6569,16 20,14.6569 20,13 L20,3 C20,1.34315 18.6569,0 17,0 L3,0 C1.34315,0 0,1.34315 0,3 L0,13 Z" id="Path"></path>
                                <path d="M6,18 C5.44772,18 5,18.4477 5,19 C5,19.5523 5.44772,20 6,20 L14,20 C14.5523,20 15,19.5523 15,19 C15,18.4477 14.5523,18 14,18 L6,18 Z" id="Path"></path>
                            </g>
                            <path d="M5,4 C4.44772,4 4,4.44772 4,5 C4,5.55228 4.44772,6 5,6 L12,6 C12.5523,6 13,5.55228 13,5 C13,4.44772 12.5523,4 12,4 L5,4 Z" id="Path" fill="#16161F"></path>
                            <path d="M5,8 C4.44772,8 4,8.4477 4,9 C4,9.5523 4.44772,10 5,10 L7,10 C7.55229,10 8,9.5523 8,9 C8,8.4477 7.55229,8 7,8 L5,8 Z" id="Path" fill="#16161F"></path>
                        </g>
                    </g>
                </g>
            </g>
        </g>
    </g>
</svg>