<?xml version="1.0" encoding="utf-8"?>
<!-- Generator: Adobe Illustrator 21.0.0, SVG Export Plug-In . SVG Version: 6.00 Build 0)  -->
<svg version="1.1" id="Layer_1" xmlns="http://www.w3.org/2000/svg" xmlns:xlink="http://www.w3.org/1999/xlink" x="0px" y="0px"
	 viewBox="0 0 18 23" style="enable-background:new 0 0 18 23;" xml:space="preserve">
<style type="text/css">
	.st0{fill:#FFFFFF;}
	.st1{fill:#1E1F20;}
</style>
<g>
	<path id="path-1" class="st0" d="M9.2,17.3c-1.2,0-2.2-1-2.2-2.2C7,14,8,13,9.2,13c1.2,0,2.2,1,2.2,2.2S10.4,17.3,9.2,17.3
		L9.2,17.3z M15.7,20.6V9.7h-13v10.8H15.7L15.7,20.6z M15.7,7.6c1.2,0,2.2,1,2.2,2.2v10.8c0,1.2-1,2.2-2.2,2.2h-13
		c-1.2,0-2.2-1-2.2-2.2V9.7c0-1.2,1-2.2,2.2-2.2h1.1V5.4c0-3,2.4-5.4,5.4-5.4C10.6,0,12,0.6,13,1.6s1.6,2.4,1.6,3.8v2.2H15.7
		L15.7,7.6z M9.2,2.2c-1.8,0-3.2,1.5-3.2,3.2v2.2h6.5V5.4C12.4,3.6,11,2.2,9.2,2.2z"/>
</g>
<title>Icon</title>
<g id="Selected">
	<g id="Artboard" transform="translate(-44.000000, -43.000000)">
		<g id="Icon" transform="translate(44.000000, 43.000000)">
			<g id="Shape">
				<path id="path-1_1_" class="st1" d="M9.2,17.3c-1.2,0-2.2-1-2.2-2.2C7,14,8,13,9.2,13c1.2,0,2.2,1,2.2,2.2S10.4,17.3,9.2,17.3
					L9.2,17.3z M15.7,20.6V9.7h-13v10.8H15.7L15.7,20.6z M15.7,7.6c1.2,0,2.2,1,2.2,2.2v10.8c0,1.2-1,2.2-2.2,2.2h-13
					c-1.2,0-2.2-1-2.2-2.2V9.7c0-1.2,1-2.2,2.2-2.2h1.1V5.4c0-3,2.4-5.4,5.4-5.4C10.6,0,12,0.6,13,1.6s1.6,2.4,1.6,3.8v2.2H15.7
					L15.7,7.6z M9.2,2.2c-1.8,0-3.2,1.5-3.2,3.2v2.2h6.5V5.4C12.4,3.6,11,2.2,9.2,2.2z"/>
			</g>
		</g>
	</g>
</g>
</svg>
