<?xml version="1.0" encoding="UTF-8"?>
<svg width="18px" height="23px" viewBox="0 0 18 23" version="1.1" xmlns="http://www.w3.org/2000/svg" xmlns:xlink="http://www.w3.org/1999/xlink">
    <title>Icon</title>
    <defs>
        <path d="M9.18796992,17.3233083 C7.98616541,17.3233083 7.02255639,16.3488722 7.02255639,15.1578947 C7.02255639,13.9560902 7.98616541,12.9924812 9.18796992,12.9924812 C10.3838948,12.9924812 11.3533835,13.9619699 11.3533835,15.1578947 C11.3533835,16.3538196 10.3838948,17.3233083 9.18796992,17.3233083 L9.18796992,17.3233083 Z M15.6842105,20.5714286 L15.6842105,9.7443609 L2.69172932,9.7443609 L2.69172932,20.5714286 L15.6842105,20.5714286 L15.6842105,20.5714286 Z M15.6842105,7.57894737 C16.8801354,7.57894737 17.8496241,8.54843603 17.8496241,9.7443609 L17.8496241,20.5714286 C17.8496241,21.7673534 16.8801354,22.7368421 15.6842105,22.7368421 L2.69172932,22.7368421 C1.48992481,22.7368421 0.526315789,21.762406 0.526315789,20.5714286 L0.526315789,9.7443609 C0.526315789,8.54255639 1.48992481,7.57894737 2.69172932,7.57894737 L3.77443609,7.57894737 L3.77443609,5.41353383 C3.77443609,2.42372166 6.19815775,0 9.18796992,0 C10.6237284,0 12.0006819,0.57035282 13.0159164,1.58558735 C14.0311509,2.60082188 14.6015038,3.97777539 14.6015038,5.41353383 L14.6015038,7.57894737 L15.6842105,7.57894737 L15.6842105,7.57894737 Z M9.18796992,2.16541353 C7.39408262,2.16541353 5.93984962,3.61964653 5.93984962,5.41353383 L5.93984962,7.57894737 L12.4360902,7.57894737 L12.4360902,5.41353383 C12.4360902,3.61964653 10.9818572,2.16541353 9.18796992,2.16541353 Z" id="path-1"></path>
    </defs>
    <g id="Selected" stroke="none" stroke-width="1" fill="none" fill-rule="evenodd">
        <g id="Artboard" transform="translate(-44.000000, -43.000000)">
            <g id="Icon" transform="translate(44.000000, 43.000000)">
                <mask id="mask-2" fill="white">
                    <use xlink:href="#path-1"></use>
                </mask>
                <use id="Shape" fill="#FFFFFF" xlink:href="#path-1"></use>
            </g>
        </g>
    </g>
</svg>