<?xml version="1.0" encoding="UTF-8"?>
<svg width="48px" height="48px" viewBox="0 0 48 48" version="1.1" xmlns="http://www.w3.org/2000/svg" xmlns:xlink="http://www.w3.org/1999/xlink">
    <title>Icon/Plus Square</title>
    <g id="Local-HUB-(FB)" stroke="none" stroke-width="1" fill="none" fill-rule="evenodd">
        <g id="Home/Local-Hub/Settings-–-Edit-Profile-Copy-3" transform="translate(-317.000000, -217.000000)" fill="#1269FF">
            <g id="Group-5" transform="translate(317.000000, 217.000000)">
            <path d="M12.819426,-1.42475429e-15 L35.180574,5.17920154e-16 C39.6381677,-3.00926524e-16 41.2545989,0.464128056 42.8842285,1.33566352 C44.5138581,2.20719898 45.792801,3.48614185 46.6643365,5.11577148 C47.5358719,6.74540111 48,8.3618323 48,12.819426 L48,35.180574 C48,39.6381677 47.5358719,41.2545989 46.6643365,42.8842285 C45.792801,44.5138581 44.5138581,45.792801 42.8842285,46.6643365 C41.2545989,47.5358719 39.6381677,48 35.180574,48 L12.819426,48 C8.3618323,48 6.74540111,47.5358719 5.11577148,46.6643365 C3.48614185,45.792801 2.20719898,44.5138581 1.33566352,42.8842285 C0.464128056,41.2545989 7.27514433e-16,39.6381677 -1.25211424e-15,35.180574 L3.45280103e-16,12.819426 C-2.00617683e-16,8.3618323 0.464128056,6.74540111 1.33566352,5.11577148 C2.20719898,3.48614185 3.48614185,2.20719898 5.11577148,1.33566352 C6.74540111,0.464128056 8.3618323,8.27823274e-16 12.819426,-1.42475429e-15 Z" id="BG" opacity="0.1"></path>
                <g id="Envelope" transform="translate(9.000000, 9.000000)">
                 <g transform="translate(5.000000, 5.000000)">
                    <path d="M0,3 C0,1.34315 1.34315,0 3,0 L19,0 C20.6569,0 22,1.34315 22,3 L22,15 C22,16.6569 20.6569,18 19,18 L3,18 C1.34315,18 0,16.6569 0,15 L0,3 Z" id="Path" opacity="0.3"></path>
                    <path d="M4.23177,4.35984 C4.58534,3.93556 5.2159,3.87824 5.64018,4.2318 L10.3598,8.1648 C10.7307,8.4739 11.2693,8.4739 11.6402,8.1648 L16.3598,4.2318 C16.7841,3.87824 17.4147,3.93556 17.7682,4.35984 C18.1218,4.78412 18.0645,5.41468 17.6402,5.76825 L12.9205,9.7013 C11.808,10.6284 10.192,10.6284 9.0794,9.7013 L4.35981,5.76825 C3.93553,5.41468 3.87821,4.78412 4.23177,4.35984 Z" id="Path"></path>
                    </g>
                </g>
            </g>
        </g>
    </g>
</svg>